                                                                        S      1
,,5Hwalls,5Hwalls,7Hunknown,7Hunknown,32,38,7,99,15,,1.,6,1HM,1,0.08,15HG      1
20211012.212320,1D-5,10000.,7Hunknown,7Hunknown,11,0,;                  G      2
     408       1                                       3        00000001D      1
     408       0               1       0                               0D      2
     124       2                                                00000000D      3
     124                       1       0                               0D      4
     308       3                                                00010200D      5
     308       0               1       0                               0D      6
     186       4                                                00010000D      7
     186            -185       1       0                               0D      8
     186       5                                                00000000D      9
     186            -183       1       0                               0D     10
     514       6                                                00010000D     11
     514                       1       1                               0D     12
     514       7                                                00010000D     13
     514                       1       1                               0D     14
     510       8                                                00010000D     15
     510            -185       1       1                               0D     16
     510       9                                                00010000D     17
     510            -185       1       1                               0D     18
     510      10                                                00010000D     19
     510            -185       1       1                               0D     20
     510      11                                                00010000D     21
     510            -185       1       1                               0D     22
     510      12                                                00010000D     23
     510            -185       1       1                               0D     24
     510      13                                                00010000D     25
     510            -185       1       1                               0D     26
     510      14                                                00010000D     27
     510            -183       1       1                               0D     28
     510      15                                                00010000D     29
     510            -183       1       1                               0D     30
     510      16                                                00010000D     31
     510            -183       1       1                               0D     32
     510      17                                                00010000D     33
     510            -183       1       1                               0D     34
     510      18                                                00010000D     35
     510            -183       1       1                               0D     36
     510      19                                                00010000D     37
     510            -183       1       1                               0D     38
     510      20                                                00010000D     39
     510            -183       1       1                               0D     40
     510      21                                                00010000D     41
     510            -183       1       1                               0D     42
     510      22                                                00010000D     43
     510            -183       1       1                               0D     44
     508      23                                                00010000D     45
     508                       1       1                               0D     46
     508      24                                                00010000D     47
     508                       1       1                               0D     48
     508      25                                                00010000D     49
     508                       1       1                               0D     50
     508      26                                                00010000D     51
     508                       1       1                               0D     52
     508      27                                                00010000D     53
     508                       1       1                               0D     54
     508      28                                                00010000D     55
     508                       1       1                               0D     56
     508      29                                                00010000D     57
     508                       1       1                               0D     58
     508      30                                                00010000D     59
     508                       1       1                               0D     60
     508      31                                                00010000D     61
     508                       1       1                               0D     62
     508      32                                                00010000D     63
     508                       2       1                               0D     64
     508      34                                                00010000D     65
     508                       1       1                               0D     66
     508      35                                                00010000D     67
     508                       1       1                               0D     68
     508      36                                                00010000D     69
     508                       2       1                               0D     70
     508      38                                                00010000D     71
     508                       2       1                               0D     72
     508      40                                                00010000D     73
     508                       1       1                               0D     74
     126      41                                                00010000D     75
     126       0               2       0                               0D     76
     126      43                                                00010000D     77
     126       0               2       0                               0D     78
     126      45                                                00010000D     79
     126       0               2       0                               0D     80
     126      47                                                00010000D     81
     126       0               2       0                               0D     82
     126      49                                                00010000D     83
     126       0               2       0                               0D     84
     126      51                                                00010000D     85
     126       0               2       0                               0D     86
     126      53                                                00010000D     87
     126       0               2       0                               0D     88
     126      55                                                00010000D     89
     126       0               2       0                               0D     90
     126      57                                                00010000D     91
     126       0               2       0                               0D     92
     126      59                                                00010000D     93
     126       0               2       0                               0D     94
     126      61                                                00010000D     95
     126       0               2       0                               0D     96
     126      63                                                00010000D     97
     126       0               2       0                               0D     98
     126      65                                                00010000D     99
     126       0               3       0                               0D    100
     126      68                                                00010000D    101
     126       0               2       0                               0D    102
     126      70                                                00010000D    103
     126       0               2       0                               0D    104
     126      72                                                00010000D    105
     126       0               2       0                               0D    106
     126      74                                                00010000D    107
     126       0               2       0                               0D    108
     126      76                                                00010000D    109
     126       0               2       0                               0D    110
     126      78                                                00010000D    111
     126       0               2       0                               0D    112
     126      80                                                00010000D    113
     126       0               2       0                               0D    114
     126      82                                                00010000D    115
     126       0               2       0                               0D    116
     126      84                                                00010000D    117
     126       0               2       0                               0D    118
     126      86                                                00010000D    119
     126       0               2       0                               0D    120
     126      88                                                00010000D    121
     126       0               2       0                               0D    122
     126      90                                                00010000D    123
     126       0               2       0                               0D    124
     126      92                                                00010000D    125
     126       0               2       0                               0D    126
     126      94                                                00010000D    127
     126       0               2       0                               0D    128
     126      96                                                00010000D    129
     126       0               2       0                               0D    130
     126      98                                                00010000D    131
     126       0               2       0                               0D    132
     126     100                                                00010000D    133
     126       0               2       0                               0D    134
     126     102                                                00010000D    135
     126       0               2       0                               0D    136
     126     104                                                00010000D    137
     126       0               2       0                               0D    138
     126     106                                                00010000D    139
     126       0               2       0                               0D    140
     128     108                                                00010000D    141
     128       0    -185       4       0                               0D    142
     128     112                                                00010000D    143
     128       0    -185       4       0                               0D    144
     128     116                                                00010000D    145
     128       0    -185       4       0                               0D    146
     128     120                                                00010000D    147
     128       0    -185       4       0                               0D    148
     128     124                                                00010000D    149
     128       0    -185       4       0                               0D    150
     128     128                                                00010000D    151
     128       0    -185       4       0                               0D    152
     128     132                                                00010000D    153
     128       0    -183       4       0                               0D    154
     128     136                                                00010000D    155
     128       0    -183       4       0                               0D    156
     128     140                                                00010000D    157
     128       0    -183       5       0                               0D    158
     128     145                                                00010000D    159
     128       0    -183       4       0                               0D    160
     128     149                                                00010000D    161
     128       0    -183       4       0                               0D    162
     128     153                                                00010000D    163
     128       0    -183       5       0                               0D    164
     128     158                                                00010000D    165
     128       0    -183       4       0                               0D    166
     128     162                                                00010000D    167
     128       0    -183       5       0                               0D    168
     128     167                                                00010000D    169
     128       0    -183       5       0                               0D    170
     502     172                                                00010000D    171
     502                       3       1                               0D    172
     502     175                                                00010000D    173
     502                       4       1                               0D    174
     504     179                                                00010001D    175
     504                       3       1                               0D    176
     504     182                                                00010001D    177
     504                       6       1                               0D    178
     406     188                                                00000000D    179
     406                       1      15                               0D    180
     406     189                                                00000000D    181
     406                       1      15                               0D    182
     314     190                                                00000200D    183
     314                       2       0                               0D    184
     314     192                                                00000200D    185
     314                       2       0                               0D    186
408,5,0.,0.,0.,1.,0,1,181;                                             1P      1
124,1.,0.,0.,-0.02,0.,1.,0.,0.,0.,0.,1.,0.;                            3P      2
308,0,4Hdoor,1,7;                                                      5P      3
186,11,1,0,0,1,179;                                                    7P      4
186,13,1,0,0,1,179;                                                    9P      5
514,6,15,1,17,1,19,1,21,1,23,1,25,1;                                  11P      6
514,9,27,1,29,1,31,1,33,1,35,1,37,1,39,1,41,1,43,1;                   13P      7
510,141,1,1,45;                                                       15P      8
510,143,1,1,47;                                                       17P      9
510,145,1,1,49;                                                       19P     10
510,147,1,1,51;                                                       21P     11
510,149,1,1,53;                                                       23P     12
510,151,1,1,55;                                                       25P     13
510,153,1,1,57;                                                       27P     14
510,155,1,1,59;                                                       29P     15
510,157,1,1,61;                                                       31P     16
510,159,1,1,63;                                                       33P     17
510,161,1,1,65;                                                       35P     18
510,163,1,1,67;                                                       37P     19
510,165,1,1,69;                                                       39P     20
510,167,1,1,71;                                                       41P     21
510,169,1,1,73;                                                       43P     22
508,4,0,175,1,0,0,0,175,2,1,0,0,175,3,0,0,0,175,4,0,0;                45P     23
508,4,0,175,5,0,0,0,175,4,1,0,0,175,6,0,0,0,175,7,0,0;                47P     24
508,4,0,175,8,0,0,0,175,7,1,0,0,175,9,0,0,0,175,10,0,0;               49P     25
508,4,0,175,11,0,0,0,175,10,1,0,0,175,12,0,0,0,175,2,0,0;             51P     26
508,4,0,175,11,1,0,0,175,1,1,0,0,175,5,1,0,0,175,8,1,0;               53P     27
508,4,0,175,12,1,0,0,175,9,1,0,0,175,6,1,0,0,175,3,1,0;               55P     28
508,4,0,177,1,0,0,0,177,2,1,0,0,177,3,0,0,0,177,4,0,0;                57P     29
508,4,0,177,5,0,0,0,177,4,1,0,0,177,6,0,0,0,177,7,0,0;                59P     30
508,4,0,177,8,1,0,0,177,9,1,0,0,177,6,1,0,0,177,3,1,0;                61P     31
508,6,0,177,10,0,0,0,177,11,0,0,0,177,12,0,0,0,177,13,0,0,0,177,      63P     32
7,1,0,0,177,9,0,0;                                                    63P     33
508,4,0,177,14,1,0,0,177,12,1,0,0,177,15,0,0,0,177,16,0,0;            65P     34
508,4,0,177,17,1,0,0,177,16,1,0,0,177,18,0,0,0,177,19,0,0;            67P     35
508,6,0,177,20,1,0,0,177,19,1,0,0,177,21,0,0,0,177,10,1,0,0,177,      69P     36
8,0,0,0,177,2,0,0;                                                    69P     37
508,6,0,177,5,1,0,0,177,13,1,0,0,177,14,0,0,0,177,17,0,0,0,177,       71P     38
20,0,0,0,177,1,1,0;                                                   71P     39
508,4,0,177,21,1,0,0,177,18,1,0,0,177,15,1,0,0,177,11,1,0;            73P     40
126,1,1,0,0,1,0,0.,0.,76.2,76.2,1.,1.,1.648,0.,0.1,1.648,0.,          75P     41
0.862,0.,76.2,0.,0.,0.;                                               75P     42
126,1,1,0,0,1,0,0.,0.,3.5,3.5,1.,1.,1.648,0.,0.1,1.683,0.,0.1,        77P     43
0.,3.5,0.,0.,0.;                                                      77P     44
126,1,1,0,0,1,0,-76.2,-76.2,0.,0.,1.,1.,1.683,0.,0.862,1.683,0.,      79P     45
0.1,-76.2,0.,0.,0.,0.;                                                79P     46
126,1,1,0,0,1,0,0.,0.,3.5,3.5,1.,1.,1.648,0.,0.862,1.683,0.,          81P     47
0.862,0.,3.5,0.,0.,0.;                                                81P     48
126,1,1,0,0,1,0,0.,0.,187.96,187.96,1.,1.,1.648,0.,0.862,1.648,       83P     49
1.8796,0.862,0.,187.96,0.,0.,0.;                                      83P     50
126,1,1,0,0,1,0,-187.96,-187.96,0.,0.,1.,1.,1.683,1.8796,0.862,       85P     51
1.683,0.,0.862,-187.96,0.,0.,0.,0.;                                   85P     52
126,1,1,0,0,1,0,0.,0.,3.5,3.5,1.,1.,1.648,1.8796,0.862,1.683,         87P     53
1.8796,0.862,0.,3.5,0.,0.,0.;                                         87P     54
126,1,1,0,0,1,0,0.,0.,76.2,76.2,1.,1.,1.648,1.8796,0.862,1.648,       89P     55
1.8796,0.1,0.,76.2,0.,0.,0.;                                          89P     56
126,1,1,0,0,1,0,-76.2,-76.2,0.,0.,1.,1.,1.683,1.8796,0.1,1.683,       91P     57
1.8796,0.862,-76.2,0.,0.,0.,0.;                                       91P     58
126,1,1,0,0,1,0,0.,0.,3.5,3.5,1.,1.,1.648,1.8796,0.1,1.683,           93P     59
1.8796,0.1,0.,3.5,0.,0.,0.;                                           93P     60
126,1,1,0,0,1,0,0.,0.,187.96,187.96,1.,1.,1.648,1.8796,0.1,           95P     61
1.648,0.,0.1,0.,187.96,0.,0.,0.;                                      95P     62
126,1,1,0,0,1,0,-187.96,-187.96,0.,0.,1.,1.,1.683,0.,0.1,1.683,       97P     63
1.8796,0.1,-187.96,0.,0.,0.,0.;                                       97P     64
126,1,1,0,0,1,0,-135.775,-135.775,-9.67499999999998,                  99P     65
-9.67499999999998,1.,1.,2.909,0.,0.944,1.648,0.,0.944,-135.775,       99P     66
-9.67499999999998,0.,0.,0.;                                           99P     67
126,1,1,0,0,1,0,0.,0.,240.5,240.5,1.,1.,2.909,0.,0.944,2.909,        101P     68
2.405,0.944,0.,240.5,0.,0.,0.;                                       101P     69
126,1,1,0,0,1,0,0.,0.,126.1,126.1,1.,1.,1.648,2.405,0.944,2.909,     103P     70
2.405,0.944,0.,126.1,0.,0.,0.;                                       103P     71
126,1,1,0,0,1,0,0.,0.,240.5,240.5,1.,1.,1.648,0.,0.944,1.648,        105P     72
2.405,0.944,0.,240.5,0.,0.,0.;                                       105P     73
126,1,1,0,0,1,0,-3.125,-3.125,91.275,91.275,1.,1.,1.648,0.,          107P     74
0.944,1.648,0.,0.,-3.125,91.275,0.,0.,0.;                            107P     75
126,1,1,0,0,1,0,0.,0.,94.4,94.4,1.,1.,1.648,2.405,0.,1.648,          109P     76
2.405,0.944,0.,94.4,0.,0.,0.;                                        109P     77
126,1,1,0,0,1,0,0.,0.,240.5,240.5,1.,1.,1.648,0.,0.,1.648,2.405,     111P     78
0.,0.,240.5,0.,0.,0.;                                                111P     79
126,1,1,0,0,1,0,0.,0.,94.4,94.4,1.,1.,2.909,2.405,0.944,2.909,       113P     80
2.405,0.,0.,94.4,0.,0.,0.;                                           113P     81
126,1,1,0,0,1,0,0.,0.,126.1,126.1,1.,1.,2.909,2.405,0.,1.648,        115P     82
2.405,0.,0.,126.1,0.,0.,0.;                                          115P     83
126,1,1,0,0,1,0,-10.,-10.,240.5,240.5,1.,1.,2.909,-0.1,0.,2.909,     117P     84
2.405,0.,-10.,240.5,0.,0.,0.;                                        117P     85
126,1,1,0,0,1,0,-290.9,-290.9,0.,0.,1.,1.,0.,-0.1,0.,2.909,-0.1,     119P     86
0.,-290.9,0.,0.,0.,0.;                                               119P     87
126,1,1,0,0,1,0,0.,0.,10.,10.,1.,1.,0.,0.,0.,0.,-0.1,0.,0.,10.,      121P     88
0.,0.,0.;                                                            121P     89
126,1,1,0,0,1,0,126.1,126.1,290.9,290.9,1.,1.,1.648,0.,0.,0.,0.,     123P     90
0.,126.1,290.9,0.,0.,0.;                                             123P     91
126,1,1,0,0,1,0,0.,0.,365.1,365.1,1.,1.,0.,0.,3.651,0.,0.,0.,0.,     125P     92
365.1,0.,0.,0.;                                                      125P     93
126,1,1,0,0,1,0,0.,0.,365.1,365.1,1.,1.,0.,-0.1,3.651,0.,-0.1,       127P     94
0.,0.,365.1,0.,0.,0.;                                                127P     95
126,1,1,0,0,1,0,0.,0.,10.,10.,1.,1.,0.,0.,3.651,0.,-0.1,3.651,       129P     96
0.,10.,0.,0.,0.;                                                     129P     97
126,1,1,0,0,1,0,0.,0.,290.9,290.9,1.,1.,2.909,0.,3.651,0.,0.,        131P     98
3.651,0.,290.9,0.,0.,0.;                                             131P     99
126,1,1,0,0,1,0,0.,0.,290.9,290.9,1.,1.,2.909,-0.1,3.651,0.,         133P    100
-0.1,3.651,0.,290.9,0.,0.,0.;                                        133P    101
126,1,1,0,0,1,0,0.,0.,10.,10.,1.,1.,2.909,0.,3.651,2.909,-0.1,       135P    102
3.651,0.,10.,0.,0.,0.;                                               135P    103
126,1,1,0,0,1,0,94.4,94.4,365.1,365.1,1.,1.,2.909,0.,0.944,          137P    104
2.909,0.,3.651,94.4,365.1,0.,0.,0.;                                  137P    105
126,1,1,0,0,1,0,0.,0.,365.1,365.1,1.,1.,2.909,-0.1,0.,2.909,         139P    106
-0.1,3.651,0.,365.1,0.,0.,0.;                                        139P    107
128,1,1,1,1,0,0,1,0,0,-0.001,-0.001,76.201,76.201,-0.001,-0.001,     141P    108
3.501,3.501,1.,1.,1.,1.,1.64799,0.,0.86201,1.64799,0.,0.09999,       141P    109
1.68301,0.,0.86201,1.68301,0.,0.09999,-0.001,76.201,-0.001,          141P    110
3.501;                                                               141P    111
128,1,1,1,1,0,0,1,0,0,-0.001,-0.001,187.961,187.961,-0.001,          143P    112
-0.001,3.501,3.501,1.,1.,1.,1.,1.64799,1.87961,0.862,1.64799,        143P    113
-1.00000000000477D-5,0.862,1.68301,1.87961,0.862,1.68301,            143P    114
-1.00000000000477D-5,0.862,-0.001,187.961,-0.001,3.501;              143P    115
128,1,1,1,1,0,0,1,0,0,-0.001,-0.001,76.201,76.201,-0.001,-0.001,     145P    116
3.501,3.501,1.,1.,1.,1.,1.64799,1.8796,0.09999,1.64799,1.8796,       145P    117
0.86201,1.68301,1.8796,0.09999,1.68301,1.8796,0.86201,-0.001,        145P    118
76.201,-0.001,3.501;                                                 145P    119
128,1,1,1,1,0,0,1,0,0,-0.001,-0.001,187.961,187.961,-0.001,          147P    120
-0.001,3.501,3.501,1.,1.,1.,1.,1.64799,-1D-5,0.1,1.64799,            147P    121
1.87961,0.1,1.68301,-1D-5,0.1,1.68301,1.87961,0.1,-0.001,            147P    122
187.961,-0.001,3.501;                                                147P    123
128,1,1,1,1,0,0,1,0,0,-38.101,-38.101,38.101,38.101,-93.981,         149P    124
-93.981,93.981,93.981,1.,1.,1.,1.,1.648,-1.00000000000477D-5,        149P    125
0.09999,1.648,-1.00000000000477D-5,0.86201,1.648,1.87961,            149P    126
0.09999,1.648,1.87961,0.86201,-38.101,38.101,-93.981,93.981;         149P    127
128,1,1,1,1,0,0,1,0,0,-38.101,-38.101,38.101,38.101,-93.981,         151P    128
-93.981,93.981,93.981,1.,1.,1.,1.,1.683,-1.00000000000477D-5,        151P    129
0.86201,1.683,-1.00000000000477D-5,0.09999,1.683,1.87961,            151P    130
0.86201,1.683,1.87961,0.09999,-38.101,38.101,-93.981,93.981;         151P    131
128,1,1,1,1,0,0,1,0,0,-0.001,-0.001,126.101,126.101,-0.001,          153P    132
-0.001,240.501,240.501,1.,1.,1.,1.,1.64799,-1D-5,0.944,2.90901,      153P    133
-1D-5,0.944,1.64799,2.40501,0.944,2.90901,2.40501,0.944,-0.001,      153P    134
126.101,-0.001,240.501;                                              153P    135
128,1,1,1,1,0,0,1,0,0,-0.001,-0.001,94.401,94.401,-0.001,-0.001,     155P    136
240.501,240.501,1.,1.,1.,1.,1.648,-1D-5,-1D-5,1.648,-1D-5,           155P    137
0.94401,1.648,2.40501,-1D-5,1.648,2.40501,0.94401,-0.001,94.401,     155P    138
-0.001,240.501;                                                      155P    139
128,1,1,1,1,0,0,1,0,0,-47.201,-47.201,47.201,47.201,-63.051,         157P    140
-63.051,63.051,63.051,1.,1.,1.,1.,1.64799,2.405,                     157P    141
-9.99999999997669D-6,1.64799,2.405,0.94401,2.90901,2.405,            157P    142
-9.99999999997669D-6,2.90901,2.405,0.94401,-47.201,47.201,           157P    143
-63.051,63.051;                                                      157P    144
128,1,1,1,1,0,0,1,0,0,-0.001,-0.001,290.901,290.901,-240.501,        159P    145
-240.501,10.001,10.001,1.,1.,1.,1.,-1D-5,2.40501,0.,2.90901,         159P    146
2.40501,0.,-1D-5,-0.10001,0.,2.90901,-0.10001,0.,-0.001,290.901,     159P    147
-240.501,10.001;                                                     159P    148
128,1,1,1,1,0,0,1,0,0,-0.001,-0.001,365.101,365.101,-0.001,          161P    149
-0.001,10.001,10.001,1.,1.,1.,1.,0.,1D-5,3.65101,0.,1D-5,            161P    150
-9.99999999976353D-6,0.,-0.10001,3.65101,0.,-0.10001,                161P    151
-9.99999999976353D-6,-0.001,365.101,-0.001,10.001;                   161P    152
128,1,1,1,1,0,0,1,0,0,-0.001,-0.001,290.901,290.901,-0.001,          163P    153
-0.001,10.001,10.001,1.,1.,1.,1.,2.90901,1D-5,3.651,                 163P    154
-9.99999999976353D-6,1D-5,3.651,2.90901,-0.10001,3.651,              163P    155
-9.99999999976353D-6,-0.10001,3.651,-0.001,290.901,-0.001,           163P    156
10.001;                                                              163P    157
128,1,1,1,1,0,0,1,0,0,-0.001,-0.001,365.101,365.101,-240.501,        165P    158
-240.501,10.001,10.001,1.,1.,1.,1.,2.909,2.40501,-1D-5,2.909,        165P    159
2.40501,3.65101,2.909,-0.10001,-1D-5,2.909,-0.10001,3.65101,         165P    160
-0.001,365.101,-240.501,10.001;                                      165P    161
128,1,1,1,1,0,0,1,0,0,-145.451,-145.451,145.451,145.451,             167P    162
-182.551,-182.551,182.551,182.551,1.,1.,1.,1.,                       167P    163
-1.00000000000477D-5,0.,3.65101,2.90901,0.,3.65101,                  167P    164
-1.00000000000477D-5,0.,-1.00000000000477D-5,2.90901,0.,             167P    165
-9.99999999976353D-6,-145.451,145.451,-182.551,182.551;              167P    166
128,1,1,1,1,0,0,1,0,0,-182.551,-182.551,182.551,182.551,             169P    167
-145.451,-145.451,145.451,145.451,1.,1.,1.,1.,                       169P    168
-1.00000000000477D-5,-0.1,3.65101,-1.00000000000477D-5,-0.1,         169P    169
-1.00000000000477D-5,2.90901,-0.1,3.65101,2.90901,-0.1,              169P    170
-9.99999999976353D-6,-182.551,182.551,-145.451,145.451;              169P    171
502,8,1.648,0.,0.1,1.648,0.,0.862,1.683,0.,0.1,1.683,0.,0.862,       171P    172
1.648,1.8796,0.862,1.683,1.8796,0.862,1.648,1.8796,0.1,1.683,        171P    173
1.8796,0.1;                                                          171P    174
502,14,2.909,0.,0.944,1.648,0.,0.944,2.909,2.405,0.944,1.648,        173P    175
2.405,0.944,1.648,0.,0.,1.648,2.405,0.,2.909,2.405,0.,2.909,         173P    176
-0.1,0.,0.,-0.1,0.,0.,0.,0.,0.,0.,3.651,0.,-0.1,3.651,2.909,0.,      173P    177
3.651,2.909,-0.1,3.651;                                              173P    178
504,12,75,171,1,171,2,77,171,1,171,3,79,171,4,171,3,81,171,2,        175P    179
171,4,83,171,2,171,5,85,171,6,171,4,87,171,5,171,6,89,171,5,171,     175P    180
7,91,171,8,171,6,93,171,7,171,8,95,171,7,171,1,97,171,3,171,8;       175P    181
504,21,99,173,1,173,2,101,173,1,173,3,103,173,4,173,3,105,173,2,     177P    182
173,4,107,173,2,173,5,109,173,6,173,4,111,173,5,173,6,113,173,3,     177P    183
173,7,115,173,7,173,6,117,173,8,173,7,119,173,9,173,8,121,173,       177P    184
10,173,9,123,173,5,173,10,125,173,11,173,10,127,173,12,173,9,        177P    185
129,173,11,173,12,131,173,13,173,11,133,173,14,173,12,135,173,       177P    186
13,173,14,137,173,1,173,13,139,173,8,173,14;                         177P    187
406,1,5HBody1;                                                       179P    188
406,1,6Hdoor:1;                                                      181P    189
314,62.7450980392157,62.7450980392157,62.7450980392157,13HSteel      183P    190
- Satin;                                                             183P    191
314,90.5882352941177,89.4117647058824,86.2745098039216,15HSurfac     185P    192
e - Matte;                                                           185P    193
S      1G      2D    186P    193                                        T      1
