                                                                        S      1
,,4Hdoor,4Hdoor,7Hunknown,7Hunknown,32,38,7,99,15,,1.,6,1HM,1,0.08,15H20G      1
211012.212340,1D-5,10000.,7Hunknown,7Hunknown,11,0,;                    G      2
     186       1                                                00000000D      1
     186             -71       1       0                               0D      2
     514       2                                                00010000D      3
     514                       1       1                               0D      4
     510       3                                                00010000D      5
     510             -71       1       1                               0D      6
     510       4                                                00010000D      7
     510             -71       1       1                               0D      8
     510       5                                                00010000D      9
     510             -71       1       1                               0D     10
     510       6                                                00010000D     11
     510             -71       1       1                               0D     12
     510       7                                                00010000D     13
     510             -71       1       1                               0D     14
     510       8                                                00010000D     15
     510             -71       1       1                               0D     16
     508       9                                                00010000D     17
     508                       1       1                               0D     18
     508      10                                                00010000D     19
     508                       1       1                               0D     20
     508      11                                                00010000D     21
     508                       1       1                               0D     22
     508      12                                                00010000D     23
     508                       1       1                               0D     24
     508      13                                                00010000D     25
     508                       1       1                               0D     26
     508      14                                                00010000D     27
     508                       1       1                               0D     28
     126      15                                                00010000D     29
     126       0               2       0                               0D     30
     126      17                                                00010000D     31
     126       0               2       0                               0D     32
     126      19                                                00010000D     33
     126       0               2       0                               0D     34
     126      21                                                00010000D     35
     126       0               2       0                               0D     36
     126      23                                                00010000D     37
     126       0               2       0                               0D     38
     126      25                                                00010000D     39
     126       0               2       0                               0D     40
     126      27                                                00010000D     41
     126       0               2       0                               0D     42
     126      29                                                00010000D     43
     126       0               2       0                               0D     44
     126      31                                                00010000D     45
     126       0               2       0                               0D     46
     126      33                                                00010000D     47
     126       0               2       0                               0D     48
     126      35                                                00010000D     49
     126       0               2       0                               0D     50
     126      37                                                00010000D     51
     126       0               2       0                               0D     52
     128      39                                                00010000D     53
     128       0     -71       4       0                               0D     54
     128      43                                                00010000D     55
     128       0     -71       4       0                               0D     56
     128      47                                                00010000D     57
     128       0     -71       4       0                               0D     58
     128      51                                                00010000D     59
     128       0     -71       4       0                               0D     60
     128      55                                                00010000D     61
     128       0     -71       4       0                               0D     62
     128      59                                                00010000D     63
     128       0     -71       4       0                               0D     64
     502      63                                                00010000D     65
     502                       3       1                               0D     66
     504      66                                                00010001D     67
     504                       3       1                               0D     68
     406      69                                                00000000D     69
     406                       1      15                               0D     70
     314      70                                                00000200D     71
     314                       2       0                               0D     72
     314      72                                                00000200D     73
     314                       2       0                               0D     74
186,3,1,0,0,1,69;                                                      1P      1
514,6,5,1,7,1,9,1,11,1,13,1,15,1;                                      3P      2
510,53,1,1,17;                                                         5P      3
510,55,1,1,19;                                                         7P      4
510,57,1,1,21;                                                         9P      5
510,59,1,1,23;                                                        11P      6
510,61,1,1,25;                                                        13P      7
510,63,1,1,27;                                                        15P      8
508,4,0,67,1,0,0,0,67,2,1,0,0,67,3,0,0,0,67,4,0,0;                    17P      9
508,4,0,67,5,0,0,0,67,4,1,0,0,67,6,0,0,0,67,7,0,0;                    19P     10
508,4,0,67,8,0,0,0,67,7,1,0,0,67,9,0,0,0,67,10,0,0;                   21P     11
508,4,0,67,11,0,0,0,67,10,1,0,0,67,12,0,0,0,67,2,0,0;                 23P     12
508,4,0,67,11,1,0,0,67,1,1,0,0,67,5,1,0,0,67,8,1,0;                   25P     13
508,4,0,67,12,1,0,0,67,9,1,0,0,67,6,1,0,0,67,3,1,0;                   27P     14
126,1,1,0,0,1,0,0.,0.,76.2,76.2,1.,1.,1.648,0.,0.1,1.648,0.,          29P     15
0.862,0.,76.2,0.,0.,0.;                                               29P     16
126,1,1,0,0,1,0,0.,0.,3.5,3.5,1.,1.,1.648,0.,0.1,1.683,0.,0.1,        31P     17
0.,3.5,0.,0.,0.;                                                      31P     18
126,1,1,0,0,1,0,-76.2,-76.2,0.,0.,1.,1.,1.683,0.,0.862,1.683,0.,      33P     19
0.1,-76.2,0.,0.,0.,0.;                                                33P     20
126,1,1,0,0,1,0,0.,0.,3.5,3.5,1.,1.,1.648,0.,0.862,1.683,0.,          35P     21
0.862,0.,3.5,0.,0.,0.;                                                35P     22
126,1,1,0,0,1,0,0.,0.,187.96,187.96,1.,1.,1.648,0.,0.862,1.648,       37P     23
1.8796,0.862,0.,187.96,0.,0.,0.;                                      37P     24
126,1,1,0,0,1,0,-187.96,-187.96,0.,0.,1.,1.,1.683,1.8796,0.862,       39P     25
1.683,0.,0.862,-187.96,0.,0.,0.,0.;                                   39P     26
126,1,1,0,0,1,0,0.,0.,3.5,3.5,1.,1.,1.648,1.8796,0.862,1.683,         41P     27
1.8796,0.862,0.,3.5,0.,0.,0.;                                         41P     28
126,1,1,0,0,1,0,0.,0.,76.2,76.2,1.,1.,1.648,1.8796,0.862,1.648,       43P     29
1.8796,0.1,0.,76.2,0.,0.,0.;                                          43P     30
126,1,1,0,0,1,0,-76.2,-76.2,0.,0.,1.,1.,1.683,1.8796,0.1,1.683,       45P     31
1.8796,0.862,-76.2,0.,0.,0.,0.;                                       45P     32
126,1,1,0,0,1,0,0.,0.,3.5,3.5,1.,1.,1.648,1.8796,0.1,1.683,           47P     33
1.8796,0.1,0.,3.5,0.,0.,0.;                                           47P     34
126,1,1,0,0,1,0,0.,0.,187.96,187.96,1.,1.,1.648,1.8796,0.1,           49P     35
1.648,0.,0.1,0.,187.96,0.,0.,0.;                                      49P     36
126,1,1,0,0,1,0,-187.96,-187.96,0.,0.,1.,1.,1.683,0.,0.1,1.683,       51P     37
1.8796,0.1,-187.96,0.,0.,0.,0.;                                       51P     38
128,1,1,1,1,0,0,1,0,0,-0.001,-0.001,76.201,76.201,-0.001,-0.001,      53P     39
3.501,3.501,1.,1.,1.,1.,1.64799,0.,0.86201,1.64799,0.,0.09999,        53P     40
1.68301,0.,0.86201,1.68301,0.,0.09999,-0.001,76.201,-0.001,           53P     41
3.501;                                                                53P     42
128,1,1,1,1,0,0,1,0,0,-0.001,-0.001,187.961,187.961,-0.001,           55P     43
-0.001,3.501,3.501,1.,1.,1.,1.,1.64799,1.87961,0.862,1.64799,         55P     44
-1.00000000000477D-5,0.862,1.68301,1.87961,0.862,1.68301,             55P     45
-1.00000000000477D-5,0.862,-0.001,187.961,-0.001,3.501;               55P     46
128,1,1,1,1,0,0,1,0,0,-0.001,-0.001,76.201,76.201,-0.001,-0.001,      57P     47
3.501,3.501,1.,1.,1.,1.,1.64799,1.8796,0.09999,1.64799,1.8796,        57P     48
0.86201,1.68301,1.8796,0.09999,1.68301,1.8796,0.86201,-0.001,         57P     49
76.201,-0.001,3.501;                                                  57P     50
128,1,1,1,1,0,0,1,0,0,-0.001,-0.001,187.961,187.961,-0.001,           59P     51
-0.001,3.501,3.501,1.,1.,1.,1.,1.64799,-1D-5,0.1,1.64799,             59P     52
1.87961,0.1,1.68301,-1D-5,0.1,1.68301,1.87961,0.1,-0.001,             59P     53
187.961,-0.001,3.501;                                                 59P     54
128,1,1,1,1,0,0,1,0,0,-38.101,-38.101,38.101,38.101,-93.981,          61P     55
-93.981,93.981,93.981,1.,1.,1.,1.,1.648,-1.00000000000477D-5,         61P     56
0.09999,1.648,-1.00000000000477D-5,0.86201,1.648,1.87961,             61P     57
0.09999,1.648,1.87961,0.86201,-38.101,38.101,-93.981,93.981;          61P     58
128,1,1,1,1,0,0,1,0,0,-38.101,-38.101,38.101,38.101,-93.981,          63P     59
-93.981,93.981,93.981,1.,1.,1.,1.,1.683,-1.00000000000477D-5,         63P     60
0.86201,1.683,-1.00000000000477D-5,0.09999,1.683,1.87961,             63P     61
0.86201,1.683,1.87961,0.09999,-38.101,38.101,-93.981,93.981;          63P     62
502,8,1.648,0.,0.1,1.648,0.,0.862,1.683,0.,0.1,1.683,0.,0.862,        65P     63
1.648,1.8796,0.862,1.683,1.8796,0.862,1.648,1.8796,0.1,1.683,         65P     64
1.8796,0.1;                                                           65P     65
504,12,29,65,1,65,2,31,65,1,65,3,33,65,4,65,3,35,65,2,65,4,37,        67P     66
65,2,65,5,39,65,6,65,4,41,65,5,65,6,43,65,5,65,7,45,65,8,65,6,        67P     67
47,65,7,65,8,49,65,7,65,1,51,65,3,65,8;                               67P     68
406,1,5HBody1;                                                        69P     69
314,90.5882352941177,89.4117647058824,86.2745098039216,15HSurfac      71P     70
e - Matte;                                                            71P     71
314,62.7450980392157,62.7450980392157,62.7450980392157,13HSteel       73P     72
- Satin;                                                              73P     73
S      1G      2D     74P     73                                        T      1
