                                                                        S      1
,,4Hface,4Hface,7Hunknown,7Hunknown,32,38,7,99,15,,1.,2,2HMM,1,0.08,15H2G      1
0211012.212010,0.01,10000.,7Hunknown,7Hunknown,11,0,;                   G      2
     186       1                                                00000000D      1
     186            -155       1       0                               0D      2
     514       2                                                00010000D      3
     514                       1       1                               0D      4
     510       3                                                00010000D      5
     510            -155       1       1                               0D      6
     510       4                                                00010000D      7
     510            -155       1       1                               0D      8
     510       5                                                00010000D      9
     510            -155       1       1                               0D     10
     510       6                                                00010000D     11
     510            -155       1       1                               0D     12
     510       7                                                00010000D     13
     510            -155       1       1                               0D     14
     510       8                                                00010000D     15
     510            -155       1       1                               0D     16
     510       9                                                00010000D     17
     510            -155       1       1                               0D     18
     510      10                                                00010000D     19
     510            -155       1       1                               0D     20
     510      11                                                00010000D     21
     510            -155       1       1                               0D     22
     510      12                                                00010000D     23
     510            -155       1       1                               0D     24
     510      13                                                00010000D     25
     510            -155       1       1                               0D     26
     510      14                                                00010000D     27
     510            -155       1       1                               0D     28
     508      15                                                00010000D     29
     508                       1       1                               0D     30
     508      16                                                00010000D     31
     508                       1       1                               0D     32
     508      17                                                00010000D     33
     508                       1       1                               0D     34
     508      18                                                00010000D     35
     508                       1       1                               0D     36
     508      19                                                00010000D     37
     508                       1       1                               0D     38
     508      20                                                00010000D     39
     508                       1       1                               0D     40
     508      21                                                00010000D     41
     508                       1       1                               0D     42
     508      22                                                00010000D     43
     508                       1       1                               0D     44
     508      23                                                00010000D     45
     508                       1       1                               0D     46
     508      24                                                00010000D     47
     508                       1       1                               0D     48
     508      25                                                00010000D     49
     508                       1       1                               0D     50
     508      26                                                00010000D     51
     508                       1       1                               0D     52
     508      27                                                00010000D     53
     508                       1       1                               0D     54
     508      28                                                00010000D     55
     508                       1       1                               0D     56
     508      29                                                00010000D     57
     508                       1       1                               0D     58
     508      30                                                00010000D     59
     508                       1       1                               0D     60
     508      31                                                00010000D     61
     508                       1       1                               0D     62
     508      32                                                00010000D     63
     508                       1       1                               0D     64
     126      33                                                00010000D     65
     126       0               8       0                               0D     66
     126      41                                                00010000D     67
     126       0               2       0                               0D     68
     126      43                                                00010000D     69
     126       0               8       0                               0D     70
     126      51                                                00010000D     71
     126       0               3       0                               0D     72
     126      54                                                00010000D     73
     126       0               2       0                               0D     74
     126      56                                                00010000D     75
     126       0               3       0                               0D     76
     126      59                                                00010000D     77
     126       0               2       0                               0D     78
     126      61                                                00010000D     79
     126       0               4       0                               0D     80
     126      65                                                00010000D     81
     126       0               4       0                               0D     82
     126      69                                                00010000D     83
     126       0               3       0                               0D     84
     126      72                                                00010000D     85
     126       0               4       0                               0D     86
     126      76                                                00010000D     87
     126       0               4       0                               0D     88
     126      80                                                00010000D     89
     126       0               2       0                               0D     90
     126      82                                                00010000D     91
     126       0               3       0                               0D     92
     126      85                                                00010000D     93
     126       0               4       0                               0D     94
     126      89                                                00010000D     95
     126       0               8       0                               0D     96
     126      97                                                00010000D     97
     126       0               3       0                               0D     98
     126     100                                                00010000D     99
     126       0               8       0                               0D    100
     126     108                                                00010000D    101
     126       0               3       0                               0D    102
     126     111                                                00010000D    103
     126       0               3       0                               0D    104
     126     114                                                00010000D    105
     126       0               3       0                               0D    106
     126     117                                                00010000D    107
     126       0               3       0                               0D    108
     126     120                                                00010000D    109
     126       0               3       0                               0D    110
     126     123                                                00010000D    111
     126       0               3       0                               0D    112
     126     126                                                00010000D    113
     126       0               3       0                               0D    114
     126     129                                                00010000D    115
     126       0               3       0                               0D    116
     126     132                                                00010000D    117
     126       0               3       0                               0D    118
     126     135                                                00010000D    119
     126       0               3       0                               0D    120
     126     138                                                00010000D    121
     126       0               3       0                               0D    122
     126     141                                                00010000D    123
     126       0               3       0                               0D    124
     128     144                                                00010000D    125
     128       0    -155      12       0                               0D    126
     128     156                                                00010000D    127
     128       0    -155       4       0                               0D    128
     128     160                                                00010000D    129
     128       0    -155       5       0                               0D    130
     128     165                                                00010000D    131
     128       0    -155       5       0                               0D    132
     128     170                                                00010000D    133
     128       0    -155       4       0                               0D    134
     128     174                                                00010000D    135
     128       0    -155      13       0                               0D    136
     128     187                                                00010000D    137
     128       0    -155       6       0                               0D    138
     128     193                                                00010000D    139
     128       0    -155       6       0                               0D    140
     128     199                                                00010000D    141
     128       0    -155       6       0                               0D    142
     128     205                                                00010000D    143
     128       0    -155       6       0                               0D    144
     128     211                                                00010000D    145
     128       0    -155       7       0                               0D    146
     128     218                                                00010000D    147
     128       0    -155       7       0                               0D    148
     502     225                                                00010000D    149
     502                      10       1                               0D    150
     504     235                                                00010001D    151
     504                       8       1                               0D    152
     406     243                                                00000000D    153
     406                       1      15                               0D    154
     314     244                                                00000200D    155
     314                       2       0                               0D    156
186,3,1,0,0,1,153;                                                     1P      1
514,12,5,1,7,1,9,1,11,1,13,1,15,1,17,1,19,1,21,1,23,1,25,1,27,1;       3P      2
510,125,1,1,29;                                                        5P      3
510,127,1,1,31;                                                        7P      4
510,129,1,1,33;                                                        9P      5
510,131,1,1,35;                                                       11P      6
510,133,1,1,37;                                                       13P      7
510,135,1,1,39;                                                       15P      8
510,137,1,1,41;                                                       17P      9
510,139,1,1,43;                                                       19P     10
510,141,1,1,45;                                                       21P     11
510,143,1,1,47;                                                       23P     12
510,145,4,1,49,51,53,55;                                              25P     13
510,147,4,1,57,59,61,63;                                              27P     14
508,4,0,151,1,0,0,0,151,2,1,0,0,151,3,0,0,0,151,2,0,0;                29P     15
508,4,0,151,4,0,0,0,151,5,0,0,0,151,6,0,0,0,151,7,1,0;                31P     16
508,4,0,151,8,0,0,0,151,7,0,0,0,151,9,0,0,0,151,10,1,0;               33P     17
508,4,0,151,11,0,0,0,151,10,0,0,0,151,12,0,0,0,151,13,1,0;            35P     18
508,4,0,151,14,0,0,0,151,13,0,0,0,151,15,0,0,0,151,5,1,0;             37P     19
508,4,0,151,16,0,0,0,151,17,1,0,0,151,18,0,0,0,151,17,0,0;            39P     20
508,4,0,151,19,1,0,0,151,20,1,0,0,151,21,0,0,0,151,22,0,0;            41P     21
508,4,0,151,23,1,0,0,151,22,1,0,0,151,24,0,0,0,151,25,0,0;            43P     22
508,4,0,151,26,1,0,0,151,25,1,0,0,151,27,0,0,0,151,28,0,0;            45P     23
508,4,0,151,29,1,0,0,151,28,1,0,0,151,30,0,0,0,151,20,0,0;            47P     24
508,4,0,151,29,0,0,0,151,19,0,0,0,151,23,0,0,0,151,26,0,0;            49P     25
508,1,0,151,3,1,0;                                                    51P     26
508,4,0,151,12,1,0,0,151,9,1,0,0,151,6,1,0,0,151,15,1,0;              53P     27
508,1,0,151,18,1,0;                                                   55P     28
508,4,0,151,30,1,0,0,151,27,1,0,0,151,24,1,0,0,151,21,1,0;            57P     29
508,1,0,151,1,1,0;                                                    59P     30
508,4,0,151,11,1,0,0,151,14,1,0,0,151,4,1,0,0,151,8,1,0;              61P     31
508,1,0,151,16,1,0;                                                   63P     32
126,8,2,0,1,0,0,-3.14159265358979,-3.14159265358979,                  65P     33
-3.14159265358979,-1.5707963267949,-1.5707963267949,0.,0.,            65P     34
1.5707963267949,1.5707963267949,3.14159265358979,                     65P     35
3.14159265358979,3.14159265358979,1.,0.707106781186544,1.,            65P     36
0.707106781186544,1.,0.707106781186543,1.,0.707106781186543,1.,       65P     37
119.,39.,18.,119.,39.,23.,124.,39.,23.,129.,39.,23.,129.,39.,         65P     38
18.,129.,39.,13.,124.,39.,13.,119.,39.,13.,119.,39.,18.,              65P     39
-3.14159265358979,3.14159265358979,0.,0.,0.;                          65P     40
126,1,1,0,0,1,0,7.8,7.8,8.,8.,1.,1.,119.,39.,18.,119.,40.,18.,        67P     41
7.8,8.,0.,0.,0.;                                                      67P     42
126,8,2,0,1,0,0,-3.14159265358979,-3.14159265358979,                  69P     43
-3.14159265358979,-1.5707963267949,-1.5707963267949,0.,0.,            69P     44
1.5707963267949,1.5707963267949,3.14159265358979,                     69P     45
3.14159265358979,3.14159265358979,1.,0.707106781186543,1.,            69P     46
0.707106781186543,1.,0.707106781186544,1.,0.707106781186544,1.,       69P     47
119.,40.,18.,119.,40.,13.,124.,40.,13.,129.,40.,13.,129.,40.,         69P     48
18.,129.,40.,23.,124.,40.,23.,119.,40.,23.,119.,40.,18.,              69P     49
-3.14159265358979,3.14159265358979,0.,0.,0.;                          69P     50
126,1,1,0,0,1,0,-3.17499998398125,-3.17499998398125,                  71P     51
1.02500001601875,1.02500001601875,1.,1.,99.,39.,43.,99.,39.,1.,       71P     52
-3.17499998398125,1.02500001601875,0.,0.,0.;                          71P     53
126,1,1,0,0,1,0,0.,0.,0.1,0.1,1.,1.,99.,40.,43.,99.,39.,43.,0.,       73P     54
0.1,0.,0.,0.;                                                         73P     55
126,1,1,0,0,1,0,-1.02500001601875,-1.02500001601875,                  75P     56
3.17499998398125,3.17499998398125,1.,1.,99.,40.,1.,99.,40.,43.,       75P     57
-1.02500001601875,3.17499998398125,0.,0.,0.;                          75P     58
126,1,1,0,0,1,0,0.,0.,0.1,0.1,1.,1.,99.,40.,1.,99.,39.,1.,0.,         77P     59
0.1,0.,0.,0.;                                                         77P     60
126,1,1,0,0,1,0,-6.72499995343387,-6.72499995343387,                  79P     61
3.07500004656613,3.07500004656613,1.,1.,99.,39.,1.,                   79P     62
0.999999999999992,39.,0.999999999999998,-6.72499995343387,            79P     63
3.07500004656613,0.,0.,0.;                                            79P     64
126,1,1,0,0,1,0,-3.07500004656613,-3.07500004656613,                  81P     65
6.72499995343387,6.72499995343387,1.,1.,0.999999999999992,40.,        81P     66
0.999999999999998,99.,40.,1.,-3.07500004656613,6.72499995343387,      81P     67
0.,0.,0.;                                                             81P     68
126,1,1,0,0,1,0,0.,0.,0.1,0.1,1.,1.,0.999999999999993,40.,            83P     69
0.999999999999996,0.999999999999993,39.,0.999999999999996,0.,         83P     70
0.1,0.,0.,0.;                                                         83P     71
126,1,1,0,0,1,0,-3.12500001601875,-3.12500001601875,                  85P     72
1.07499998398125,1.07499998398125,1.,1.,0.999999999999994,39.,        85P     73
0.999999999999996,0.999999999999997,39.,43.,-3.12500001601875,        85P     74
1.07499998398125,0.,0.,0.;                                            85P     75
126,1,1,0,0,1,0,-1.07499998398125,-1.07499998398125,                  87P     76
3.12500001601875,3.12500001601875,1.,1.,0.999999999999997,40.,        87P     77
43.,0.999999999999994,40.,0.999999999999996,-1.07499998398125,        87P     78
3.12500001601875,0.,0.,0.;                                            87P     79
126,1,1,0,0,1,0,0.,0.,0.1,0.1,1.,1.,0.999999999999996,40.,43.,        89P     80
0.999999999999996,39.,43.,0.,0.1,0.,0.,0.;                            89P     81
126,1,1,0,0,1,0,-7.97500004656613,-7.97500004656613,                  91P     82
1.82499995343387,1.82499995343387,1.,1.,0.999999999999996,39.,        91P     83
43.,99.,39.,43.,-7.97500004656613,1.82499995343387,0.,0.,0.;          91P     84
126,1,1,0,0,1,0,-1.82499995343387,-1.82499995343387,                  93P     85
7.97500004656613,7.97500004656613,1.,1.,99.,40.,43.,                  93P     86
0.999999999999996,40.,43.,-1.82499995343387,7.97500004656613,0.,      93P     87
0.,0.;                                                                93P     88
126,8,2,0,1,0,0,-3.14159265358979,-3.14159265358979,                  95P     89
-3.14159265358979,-1.5707963267949,-1.5707963267949,0.,0.,            95P     90
1.5707963267949,1.5707963267949,3.14159265358979,                     95P     91
3.14159265358979,3.14159265358979,1.,0.707106781186542,1.,            95P     92
0.707106781186542,1.,0.707106781186542,1.,0.707106781186542,1.,       95P     93
120.,39.,35.,120.,39.,39.,124.,39.,39.,128.,39.,39.,128.,39.,         95P     94
35.,128.,39.,31.,124.,39.,31.,120.,39.,31.,120.,39.,35.,              95P     95
-3.14159265358979,3.14159265358979,0.,0.,0.;                          95P     96
126,1,1,0,0,1,0,9.74999999999999,9.74999999999999,                    97P     97
9.99999999999999,9.99999999999999,1.,1.,120.,39.,35.,120.,40.,        97P     98
35.,9.74999999999999,9.99999999999999,0.,0.,0.;                       97P     99
126,8,2,0,1,0,0,-3.14159265358979,-3.14159265358979,                  99P    100
-3.14159265358979,-1.5707963267949,-1.5707963267949,0.,0.,            99P    101
1.5707963267949,1.5707963267949,3.14159265358979,                     99P    102
3.14159265358979,3.14159265358979,1.,0.707106781186542,1.,            99P    103
0.707106781186542,1.,0.707106781186542,1.,0.707106781186542,1.,       99P    104
120.,40.,35.,120.,40.,31.,124.,40.,31.,128.,40.,31.,128.,40.,         99P    105
35.,128.,40.,39.,124.,40.,39.,120.,40.,39.,120.,40.,35.,              99P    106
-3.14159265358979,3.14159265358979,0.,0.,0.;                          99P    107
126,1,1,0,0,1,0,0.,0.,6.90000010281801,6.90000010281801,1.,1.,       101P    108
140.000002086163,40.,-13.0000001937151,140.000002086163,40.,         101P    109
56.000000834465,0.,6.90000010281801,0.,0.,0.;                        101P    110
126,1,1,0,0,1,0,0.,0.,0.1,0.1,1.,1.,140.000002086163,40.,            103P    111
56.000000834465,140.000002086163,39.,56.000000834465,0.,0.1,0.,      103P    112
0.,0.;                                                               103P    113
126,1,1,0,0,1,0,0.,0.,6.90000010281801,6.90000010281801,1.,1.,       105P    114
140.000002086163,39.,-13.0000001937151,140.000002086163,39.,         105P    115
56.000000834465,0.,6.90000010281801,0.,0.,0.;                        105P    116
126,1,1,0,0,1,0,0.,0.,0.1,0.1,1.,1.,140.000002086163,40.,            107P    117
-13.0000001937151,140.000002086163,39.,-13.0000001937151,0.,0.1,     107P    118
0.,0.,0.;                                                            107P    119
126,1,1,0,0,1,0,0.,0.,15.500000230968,15.500000230968,1.,1.,         109P    120
-15.0000002235174,40.,-13.0000001937151,140.000002086163,40.,        109P    121
-13.0000001937151,0.,15.500000230968,0.,0.,0.;                       109P    122
126,1,1,0,0,1,0,0.,0.,15.500000230968,15.500000230968,1.,1.,         111P    123
-15.0000002235174,39.,-13.0000001937151,140.000002086163,39.,        111P    124
-13.0000001937151,0.,15.500000230968,0.,0.,0.;                       111P    125
126,1,1,0,0,1,0,0.,0.,0.1,0.1,1.,1.,-15.0000002235174,40.,           113P    126
-13.0000001937151,-15.0000002235174,39.,-13.0000001937151,0.,        113P    127
0.1,0.,0.,0.;                                                        113P    128
126,1,1,0,0,1,0,0.,0.,6.90000010281801,6.90000010281801,1.,1.,       115P    129
-15.0000002235174,40.,56.000000834465,-15.0000002235174,40.,         115P    130
-13.0000001937151,0.,6.90000010281801,0.,0.,0.;                      115P    131
126,1,1,0,0,1,0,0.,0.,6.90000010281801,6.90000010281801,1.,1.,       117P    132
-15.0000002235174,39.,56.000000834465,-15.0000002235174,39.,         117P    133
-13.0000001937151,0.,6.90000010281801,0.,0.,0.;                      117P    134
126,1,1,0,0,1,0,0.,0.,0.1,0.1,1.,1.,-15.0000002235174,40.,           119P    135
56.000000834465,-15.0000002235174,39.,56.000000834465,0.,0.1,0.,     119P    136
0.,0.;                                                               119P    137
126,1,1,0,0,1,0,0.,0.,15.500000230968,15.500000230968,1.,1.,         121P    138
140.000002086163,40.,56.000000834465,-15.0000002235174,40.,          121P    139
56.000000834465,0.,15.500000230968,0.,0.,0.;                         121P    140
126,1,1,0,0,1,0,0.,0.,15.500000230968,15.500000230968,1.,1.,         123P    141
140.000002086163,39.,56.000000834465,-15.0000002235174,39.,          123P    142
56.000000834465,0.,15.500000230968,0.,0.,0.;                         123P    143
128,1,8,1,2,0,1,0,0,1,7.8,7.8,8.,8.,-3.14159265358979,               125P    144
-3.14159265358979,-3.14159265358979,-1.5707963267949,                125P    145
-1.5707963267949,0.,0.,1.5707963267949,1.5707963267949,              125P    146
3.14159265358979,3.14159265358979,3.14159265358979,1.,1.,            125P    147
0.707106781186548,0.707106781186548,1.,1.,0.707106781186548,         125P    148
0.707106781186548,1.,1.,0.707106781186548,0.707106781186548,1.,      125P    149
1.,0.707106781186548,0.707106781186548,1.,1.,119.,39.,18.,119.,      125P    150
40.,18.,119.,39.,23.,119.,40.,23.,124.,39.,23.,124.,40.,23.,         125P    151
129.,39.,23.,129.,40.,23.,129.,39.,18.,129.,40.,18.,129.,39.,        125P    152
13.,129.,40.,13.,124.,39.,13.,124.,40.,13.,119.,39.,13.,119.,        125P    153
40.,13.,119.,39.,18.,119.,40.,18.,7.8,8.,-3.14159265358979,          125P    154
3.14159265358979;                                                    125P    155
128,1,1,1,1,0,0,1,0,0,-0.00100000000000014,-0.00100000000000014,     127P    156
4.201,4.201,-0.001,-0.001,0.101,0.101,1.,1.,1.,1.,99.,40.01,         127P    157
43.01,99.,40.01,0.989999999999999,99.,38.99,43.01,99.,38.99,         127P    158
0.989999999999999,-0.00100000000000014,4.201,-0.001,0.101;           127P    159
128,1,1,1,1,0,0,1,0,0,-0.00100000000000008,-0.00100000000000008,     129P    160
9.801,9.801,-0.001,-0.001,0.101,0.101,1.,1.,1.,1.,99.01,40.01,       129P    161
1.,0.989999999999992,40.01,0.999999999999996,99.01,38.99,1.,         129P    162
0.989999999999992,38.99,0.999999999999996,-0.00100000000000008,      129P    163
9.801,-0.001,0.101;                                                  129P    164
128,1,1,1,1,0,0,1,0,0,-0.001,-0.001,4.201,4.201,-0.001,-0.001,       131P    165
0.101,0.101,1.,1.,1.,1.,0.999999999999993,40.01,                     131P    166
0.989999999999993,0.999999999999996,40.01,43.01,                     131P    167
0.999999999999993,38.99,0.989999999999993,0.999999999999996,         131P    168
38.99,43.01,-0.001,4.201,-0.001,0.101;                               131P    169
128,1,1,1,1,0,0,1,0,0,-0.001,-0.001,9.801,9.801,-0.001,-0.001,       133P    170
0.101,0.101,1.,1.,1.,1.,0.990000000000002,40.01,43.,99.01,40.01,     133P    171
43.,0.990000000000002,38.99,43.,99.01,38.99,43.,-0.001,9.801,        133P    172
-0.001,0.101;                                                        133P    173
128,1,8,1,2,0,1,0,0,1,9.74999999999999,9.74999999999999,             135P    174
9.99999999999999,9.99999999999999,-3.14159265358979,                 135P    175
-3.14159265358979,-3.14159265358979,-1.5707963267949,                135P    176
-1.5707963267949,0.,0.,1.5707963267949,1.5707963267949,              135P    177
3.14159265358979,3.14159265358979,3.14159265358979,1.,1.,            135P    178
0.707106781186548,0.707106781186548,1.,1.,0.707106781186548,         135P    179
0.707106781186548,1.,1.,0.707106781186548,0.707106781186548,1.,      135P    180
1.,0.707106781186548,0.707106781186548,1.,1.,120.,39.,35.,120.,      135P    181
40.,35.,120.,39.,39.,120.,40.,39.,124.,39.,39.,124.,40.,39.,         135P    182
128.,39.,39.,128.,40.,39.,128.,39.,35.,128.,40.,35.,128.,39.,        135P    183
31.,128.,40.,31.,124.,39.,31.,124.,40.,31.,120.,39.,31.,120.,        135P    184
40.,31.,120.,39.,35.,120.,40.,35.,9.74999999999999,                  135P    185
9.99999999999999,-3.14159265358979,3.14159265358979;                 135P    186
128,1,1,1,1,0,0,1,0,0,-0.001,-0.001,6.90100010281801,                137P    187
6.90100010281801,-0.001,-0.001,0.101,0.101,1.,1.,1.,1.,              137P    188
140.000002086163,40.01,-13.0100001937151,140.000002086163,40.01,     137P    189
56.010000834465,140.000002086163,38.99,-13.0100001937151,            137P    190
140.000002086163,38.99,56.010000834465,-0.001,6.90100010281801,      137P    191
-0.001,0.101;                                                        137P    192
128,1,1,1,1,0,0,1,0,0,-0.001,-0.001,15.501000230968,                 139P    193
15.501000230968,-0.001,-0.001,0.101,0.101,1.,1.,1.,1.,               139P    194
-15.0100002235174,40.01,-13.0000001937151,140.010002086163,          139P    195
40.01,-13.0000001937151,-15.0100002235174,38.99,                     139P    196
-13.0000001937151,140.010002086163,38.99,-13.0000001937151,          139P    197
-0.001,15.501000230968,-0.001,0.101;                                 139P    198
128,1,1,1,1,0,0,1,0,0,-0.001,-0.001,6.90100010281801,                141P    199
6.90100010281801,-0.001,-0.001,0.101,0.101,1.,1.,1.,1.,              141P    200
-15.0000002235174,40.01,56.010000834465,-15.0000002235174,40.01,     141P    201
-13.0100001937151,-15.0000002235174,38.99,56.010000834465,           141P    202
-15.0000002235174,38.99,-13.0100001937151,-0.001,                    141P    203
6.90100010281801,-0.001,0.101;                                       141P    204
128,1,1,1,1,0,0,1,0,0,-0.001,-0.001,15.501000230968,                 143P    205
15.501000230968,-0.001,-0.001,0.101,0.101,1.,1.,1.,1.,               143P    206
140.010002086163,40.01,56.000000834465,-15.0100002235174,40.01,      143P    207
56.000000834465,140.010002086163,38.99,56.000000834465,              143P    208
-15.0100002235174,38.99,56.000000834465,-0.001,15.501000230968,      143P    209
-0.001,0.101;                                                        143P    210
128,1,1,1,1,0,0,1,0,0,-7.751000115484,-7.751000115484,               145P    211
7.751000115484,7.751000115484,-3.45100005140901,                     145P    212
-3.45100005140901,3.45100005140901,3.45100005140901,1.,1.,1.,1.,     145P    213
140.010002086163,40.,-13.0100001937151,-15.0100002235174,40.,        145P    214
-13.0100001937151,140.010002086163,40.,56.010000834465,              145P    215
-15.0100002235174,40.,56.010000834465,-7.751000115484,               145P    216
7.751000115484,-3.45100005140901,3.45100005140901;                   145P    217
128,1,1,1,1,0,0,1,0,0,-3.45100005140901,-3.45100005140901,           147P    218
3.45100005140901,3.45100005140901,-7.751000115484,                   147P    219
-7.751000115484,7.751000115484,7.751000115484,1.,1.,1.,1.,           147P    220
-15.0100002235174,39.,56.010000834465,-15.0100002235174,39.,         147P    221
-13.0100001937151,140.010002086163,39.,56.010000834465,              147P    222
140.010002086163,39.,-13.0100001937151,-3.45100005140901,            147P    223
3.45100005140901,-7.751000115484,7.751000115484;                     147P    224
502,20,119.,39.,18.,119.,40.,18.,99.,39.,43.,99.,39.,1.,99.,40.,     149P    225
43.,99.,40.,1.,0.999999999999993,39.,0.999999999999996,              149P    226
0.999999999999993,40.,0.999999999999996,0.999999999999996,39.,       149P    227
43.,0.999999999999996,40.,43.,120.,39.,35.,120.,40.,35.,             149P    228
140.000002086163,40.,-13.0000001937151,140.000002086163,40.,         149P    229
56.000000834465,140.000002086163,39.,56.000000834465,                149P    230
140.000002086163,39.,-13.0000001937151,-15.0000002235174,40.,        149P    231
-13.0000001937151,-15.0000002235174,39.,-13.0000001937151,           149P    232
-15.0000002235174,40.,56.000000834465,-15.0000002235174,39.,         149P    233
56.000000834465;                                                     149P    234
504,30,65,149,1,149,1,67,149,1,149,2,69,149,2,149,2,71,149,3,        151P    235
149,4,73,149,5,149,3,75,149,6,149,5,77,149,6,149,4,79,149,4,149,     151P    236
7,81,149,8,149,6,83,149,8,149,7,85,149,7,149,9,87,149,10,149,8,      151P    237
89,149,10,149,9,91,149,9,149,3,93,149,5,149,10,95,149,11,149,11,     151P    238
97,149,11,149,12,99,149,12,149,12,101,149,13,149,14,103,149,14,      151P    239
149,15,105,149,16,149,15,107,149,13,149,16,109,149,17,149,13,        151P    240
111,149,18,149,16,113,149,17,149,18,115,149,19,149,17,117,149,       151P    241
20,149,18,119,149,19,149,20,121,149,14,149,19,123,149,15,149,20;     151P    242
406,1,5HBody1;                                                       153P    243
314,62.7450980392157,62.7450980392157,62.7450980392157,13HSteel      155P    244
- Satin;                                                             155P    245
S      1G      2D    156P    245                                        T      1
