                                                                        S      1
,,21Hcocked up lcd shit v1,21Hcocked up lcd shit v1,7Hunknown,7Hunknown,G      1
32,38,7,99,15,,1.,2,2HMM,1,0.08,15H20211012.212202,0.01,10000.,7HunknownG      2
,7Hunknown,11,0,15H20180722.102021;                                     G      3
     408       1                                                00000001D      1
     408       0               1       0                               0D      2
     308       2                                                00010200D      3
     308       0               1       0                               0D      4
     186       3                                                00010000D      5
     186            -129       1       0                               0D      6
     514       4                                                00010000D      7
     514                       1       1                               0D      8
     510       5                                                00010000D      9
     510            -129       1       1                               0D     10
     510       6                                                00010000D     11
     510            -129       1       1                               0D     12
     510       7                                                00010000D     13
     510            -129       1       1                               0D     14
     510       8                                                00010000D     15
     510            -129       1       1                               0D     16
     510       9                                                00010000D     17
     510            -129       1       1                               0D     18
     510      10                                                00010000D     19
     510            -129       1       1                               0D     20
     510      11                                                00010000D     21
     510            -129       1       1                               0D     22
     510      12                                                00010000D     23
     510            -129       1       1                               0D     24
     510      13                                                00010000D     25
     510            -129       1       1                               0D     26
     510      14                                                00010000D     27
     510            -129       1       1                               0D     28
     508      15                                                00010000D     29
     508                       1       1                               0D     30
     508      16                                                00010000D     31
     508                       1       1                               0D     32
     508      17                                                00010000D     33
     508                       1       1                               0D     34
     508      18                                                00010000D     35
     508                       1       1                               0D     36
     508      19                                                00010000D     37
     508                       1       1                               0D     38
     508      20                                                00010000D     39
     508                       1       1                               0D     40
     508      21                                                00010000D     41
     508                       1       1                               0D     42
     508      22                                                00010000D     43
     508                       1       1                               0D     44
     508      23                                                00010000D     45
     508                       1       1                               0D     46
     508      24                                                00010000D     47
     508                       1       1                               0D     48
     508      25                                                00010000D     49
     508                       1       1                               0D     50
     508      26                                                00010000D     51
     508                       1       1                               0D     52
     126      27                                                00010000D     53
     126       0               2       0                               0D     54
     126      29                                                00010000D     55
     126       0               2       0                               0D     56
     126      31                                                00010000D     57
     126       0               2       0                               0D     58
     126      33                                                00010000D     59
     126       0               2       0                               0D     60
     126      35                                                00010000D     61
     126       0               2       0                               0D     62
     126      37                                                00010000D     63
     126       0               2       0                               0D     64
     126      39                                                00010000D     65
     126       0               2       0                               0D     66
     126      41                                                00010000D     67
     126       0               2       0                               0D     68
     126      43                                                00010000D     69
     126       0               2       0                               0D     70
     126      45                                                00010000D     71
     126       0               2       0                               0D     72
     126      47                                                00010000D     73
     126       0               2       0                               0D     74
     126      49                                                00010000D     75
     126       0               2       0                               0D     76
     126      51                                                00010000D     77
     126       0               2       0                               0D     78
     126      53                                                00010000D     79
     126       0               2       0                               0D     80
     126      55                                                00010000D     81
     126       0               2       0                               0D     82
     126      57                                                00010000D     83
     126       0               2       0                               0D     84
     126      59                                                00010000D     85
     126       0               2       0                               0D     86
     126      61                                                00010000D     87
     126       0               2       0                               0D     88
     126      63                                                00010000D     89
     126       0               2       0                               0D     90
     126      65                                                00010000D     91
     126       0               2       0                               0D     92
     126      67                                                00010000D     93
     126       0               2       0                               0D     94
     126      69                                                00010000D     95
     126       0               2       0                               0D     96
     126      71                                                00010000D     97
     126       0               2       0                               0D     98
     126      73                                                00010000D     99
     126       0               2       0                               0D    100
     128      75                                                00010000D    101
     128       0    -129       4       0                               0D    102
     128      79                                                00010000D    103
     128       0    -129       3       0                               0D    104
     128      82                                                00010000D    105
     128       0    -129       3       0                               0D    106
     128      85                                                00010000D    107
     128       0    -129       4       0                               0D    108
     128      89                                                00010000D    109
     128       0    -129       4       0                               0D    110
     128      93                                                00010000D    111
     128       0    -129       4       0                               0D    112
     128      97                                                00010000D    113
     128       0    -129       4       0                               0D    114
     128     101                                                00010000D    115
     128       0    -129       4       0                               0D    116
     128     105                                                00010000D    117
     128       0    -129       3       0                               0D    118
     128     108                                                00010000D    119
     128       0    -129       3       0                               0D    120
     502     111                                                00010000D    121
     502                       4       1                               0D    122
     504     115                                                00010001D    123
     504                       7       1                               0D    124
     406     122                                                00000000D    125
     406                       1      15                               0D    126
     406     123                                                00000000D    127
     406                       1      15                               0D    128
     314     124                                                00000200D    129
     314                       2       0                               0D    130
408,3,0.,0.,0.,1.,0,1,127;                                             1P      1
308,0,10HComponent1,1,5;                                               3P      2
186,7,1,0,0,1,125;                                                     5P      3
514,10,9,1,11,1,13,1,15,1,17,1,19,1,21,1,23,1,25,1,27,1;               7P      4
510,101,1,1,29;                                                        9P      5
510,103,1,1,31;                                                       11P      6
510,105,1,1,33;                                                       13P      7
510,107,1,1,35;                                                       15P      8
510,109,1,1,37;                                                       17P      9
510,111,1,1,39;                                                       19P     10
510,113,1,1,41;                                                       21P     11
510,115,1,1,43;                                                       23P     12
510,117,2,1,45,47;                                                    25P     13
510,119,2,1,49,51;                                                    27P     14
508,4,0,123,1,0,0,0,123,2,1,0,0,123,3,0,0,0,123,4,0,0;                29P     15
508,4,0,123,5,1,0,0,123,6,1,0,0,123,7,0,0,0,123,8,0,0;                31P     16
508,4,0,123,9,1,0,0,123,8,1,0,0,123,10,0,0,0,123,11,0,0;              33P     17
508,4,0,123,12,1,0,0,123,11,1,0,0,123,13,0,0,0,123,14,0,0;            35P     18
508,4,0,123,15,1,0,0,123,14,1,0,0,123,16,0,0,0,123,6,0,0;             37P     19
508,4,0,123,17,0,0,0,123,18,1,0,0,123,19,0,0,0,123,2,0,0;             39P     20
508,4,0,123,20,1,0,0,123,4,1,0,0,123,21,0,0,0,123,22,0,0;             41P     21
508,4,0,123,23,1,0,0,123,22,1,0,0,123,24,0,0,0,123,18,0,0;            43P     22
508,4,0,123,24,1,0,0,123,21,1,0,0,123,3,1,0,0,123,19,1,0;             45P     23
508,4,0,123,16,1,0,0,123,13,1,0,0,123,10,1,0,0,123,7,1,0;             47P     24
508,4,0,123,23,0,0,0,123,17,1,0,0,123,1,1,0,0,123,20,0,0;             49P     25
508,4,0,123,15,0,0,0,123,5,0,0,0,123,9,0,0,0,123,12,0,0;              51P     26
126,1,1,0,0,1,0,0.,0.,7.2,7.2,1.,1.,66.,0.,77.,                       53P     27
-6.00000000000001,0.,77.,0.,7.2,0.,0.,0.;                             53P     28
126,1,1,0,0,1,0,0.,0.,0.15,0.15,1.,1.,66.,0.,77.,66.,1.5,77.,0.,      55P     29
0.15,0.,0.,0.;                                                        55P     30
126,1,1,0,0,1,0,-7.2,-7.2,0.,0.,1.,1.,-6.00000000000001,1.5,77.,      57P     31
66.,1.5,77.,-7.2,0.,0.,0.,0.;                                         57P     32
126,1,1,0,0,1,0,0.,0.,0.15,0.15,1.,1.,-6.00000000000001,0.,77.,       59P     33
-6.00000000000001,1.5,77.,0.,0.15,0.,0.,0.;                           59P     34
126,1,1,0,0,1,0,0.,0.,6.6,6.6,1.,1.,60.,0.,0.,60.,0.,66.,0.,6.6,      61P     35
0.,0.,0.;                                                             61P     36
126,1,1,0,0,1,0,0.,0.,0.15,0.15,1.,1.,60.,0.,66.,60.,1.5,66.,0.,      63P     37
0.15,0.,0.,0.;                                                        63P     38
126,1,1,0,0,1,0,0.,0.,6.6,6.6,1.,1.,60.,1.5,0.,60.,1.5,66.,0.,        65P     39
6.6,0.,0.,0.;                                                         65P     40
126,1,1,0,0,1,0,0.,0.,0.15,0.15,1.,1.,60.,0.,0.,60.,1.5,0.,0.,        67P     41
0.15,0.,0.,0.;                                                        67P     42
126,1,1,0,0,1,0,0.,0.,6.,6.,1.,1.,0.,0.,0.,60.,0.,0.,0.,6.,0.,        69P     43
0.,0.;                                                                69P     44
126,1,1,0,0,1,0,0.,0.,6.,6.,1.,1.,0.,1.5,0.,60.,1.5,0.,0.,6.,0.,      71P     45
0.,0.;                                                                71P     46
126,1,1,0,0,1,0,0.,0.,0.15,0.15,1.,1.,0.,0.,0.,0.,1.5,0.,0.,          73P     47
0.15,0.,0.,0.;                                                        73P     48
126,1,1,0,0,1,0,0.,0.,6.6,6.6,1.,1.,0.,0.,66.,0.,0.,0.,0.,6.6,        75P     49
0.,0.,0.;                                                             75P     50
126,1,1,0,0,1,0,0.,0.,6.6,6.6,1.,1.,0.,1.5,66.,0.,1.5,0.,0.,6.6,      77P     51
0.,0.,0.;                                                             77P     52
126,1,1,0,0,1,0,0.,0.,0.15,0.15,1.,1.,0.,0.,66.,0.,1.5,66.,0.,        79P     53
0.15,0.,0.,0.;                                                        79P     54
126,1,1,0,0,1,0,0.,0.,6.,6.,1.,1.,60.,0.,66.,0.,0.,66.,0.,6.,0.,      81P     55
0.,0.;                                                                81P     56
126,1,1,0,0,1,0,0.,0.,6.,6.,1.,1.,60.,1.5,66.,0.,1.5,66.,0.,6.,       83P     57
0.,0.,0.;                                                             83P     58
126,1,1,0,0,1,0,-7.8,-7.8,0.0999999999999996,0.0999999999999996,      85P     59
1.,1.,66.,0.,-2.,66.,0.,77.,-7.8,0.0999999999999996,0.,0.,0.;         85P     60
126,1,1,0,0,1,0,0.,0.,0.15,0.15,1.,1.,66.,0.,-2.,66.,1.5,-2.,0.,      87P     61
0.15,0.,0.,0.;                                                        87P     62
126,1,1,0,0,1,0,-0.0999999999999996,-0.0999999999999996,7.8,7.8,      89P     63
1.,1.,66.,1.5,77.,66.,1.5,-2.,-0.0999999999999996,7.8,0.,0.,0.;       89P     64
126,1,1,0,0,1,0,0.,0.,7.9,7.9,1.,1.,-6.00000000000001,0.,-2.,         91P     65
-6.00000000000001,0.,77.,0.,7.9,0.,0.,0.;                             91P     66
126,1,1,0,0,1,0,0.,0.,7.9,7.9,1.,1.,-6.00000000000001,1.5,-2.,        93P     67
-6.00000000000001,1.5,77.,0.,7.9,0.,0.,0.;                            93P     68
126,1,1,0,0,1,0,0.,0.,0.15,0.15,1.,1.,-6.00000000000001,0.,-2.,       95P     69
-6.00000000000001,1.5,-2.,0.,0.15,0.,0.,0.;                           95P     70
126,1,1,0,0,1,0,-0.4,-0.4,6.8,6.8,1.,1.,66.,0.,-2.,                   97P     71
-6.00000000000001,0.,-2.,-0.4,6.8,0.,0.,0.;                           97P     72
126,1,1,0,0,1,0,-0.4,-0.4,6.8,6.8,1.,1.,66.,1.5,-2.,                  99P     73
-6.00000000000001,1.5,-2.,-0.4,6.8,0.,0.,0.;                          99P     74
128,1,1,1,1,0,0,1,0,0,-0.001,-0.001,7.201,7.201,-0.001,-0.001,       101P     75
0.151,0.151,1.,1.,1.,1.,-6.01000000000001,-0.01,77.,66.01,-0.01,     101P     76
77.,-6.01000000000001,1.51,77.,66.01,1.51,77.,-0.001,7.201,          101P     77
-0.001,0.151;                                                        101P     78
128,1,1,1,1,0,0,1,0,0,-0.001,-0.001,6.601,6.601,-0.001,-0.001,       103P     79
0.151,0.151,1.,1.,1.,1.,60.,-0.01,-0.01,60.,-0.01,66.01,60.,         103P     80
1.51,-0.01,60.,1.51,66.01,-0.001,6.601,-0.001,0.151;                 103P     81
128,1,1,1,1,0,0,1,0,0,-0.001,-0.001,6.001,6.001,-0.001,-0.001,       105P     82
0.151,0.151,1.,1.,1.,1.,-0.01,-0.01,0.,60.01,-0.01,0.,-0.01,         105P     83
1.51,0.,60.01,1.51,0.,-0.001,6.001,-0.001,0.151;                     105P     84
128,1,1,1,1,0,0,1,0,0,-0.001,-0.001,6.601,6.601,-0.001,-0.001,       107P     85
0.151,0.151,1.,1.,1.,1.,0.,-0.01,66.01,0.,-0.01,                     107P     86
-0.0100000000000033,0.,1.51,66.01,0.,1.51,-0.0100000000000033,       107P     87
-0.001,6.601,-0.001,0.151;                                           107P     88
128,1,1,1,1,0,0,1,0,0,-0.001,-0.001,6.001,6.001,-0.001,-0.001,       109P     89
0.151,0.151,1.,1.,1.,1.,60.01,-0.01,66.,-0.0100000000000033,         109P     90
-0.01,66.,60.01,1.51,66.,-0.0100000000000033,1.51,66.,-0.001,        109P     91
6.001,-0.001,0.151;                                                  109P     92
128,1,1,1,1,0,0,1,0,0,-0.101,-0.101,7.801,7.801,-0.001,-0.001,       111P     93
0.151,0.151,1.,1.,1.,1.,66.,-0.01,77.01,66.,-0.01,                   111P     94
-2.01000000000001,66.,1.51,77.01,66.,1.51,-2.01000000000001,         111P     95
-0.101,7.801,-0.001,0.151;                                           111P     96
128,1,1,1,1,0,0,1,0,0,-0.001,-0.001,7.901,7.901,-0.001,-0.001,       113P     97
0.151,0.151,1.,1.,1.,1.,-6.00000000000001,-0.01,-2.01,               113P     98
-6.00000000000001,-0.01,77.01,-6.00000000000001,1.51,-2.01,          113P     99
-6.00000000000001,1.51,77.01,-0.001,7.901,-0.001,0.151;              113P    100
128,1,1,1,1,0,0,1,0,0,-0.001,-0.001,7.201,7.201,-0.001,-0.001,       115P    101
0.151,0.151,1.,1.,1.,1.,66.01,-0.01,-2.,-6.01000000000001,-0.01,     115P    102
-2.,66.01,1.51,-2.,-6.01000000000001,1.51,-2.,-0.001,7.201,          115P    103
-0.001,0.151;                                                        115P    104
128,1,1,1,1,0,0,1,0,0,-3.901,-3.901,4.001,4.001,-3.601,-3.601,       117P    105
3.601,3.601,1.,1.,1.,1.,-6.01,1.5,-2.01,-6.01,1.5,77.01,66.01,       117P    106
1.5,-2.01,66.01,1.5,77.01,-3.901,4.001,-3.601,3.601;                 117P    107
128,1,1,1,1,0,0,1,0,0,-3.601,-3.601,3.601,3.601,-4.001,-4.001,       119P    108
3.901,3.901,1.,1.,1.,1.,66.01,0.,77.01,-6.01,0.,77.01,66.01,0.,      119P    109
-2.01000000000001,-6.01,0.,-2.01,-3.601,3.601,-4.001,3.901;          119P    110
502,16,66.,0.,77.,-6.00000000000001,0.,77.,66.,1.5,77.,              121P    111
-6.00000000000001,1.5,77.,60.,0.,0.,60.,0.,66.,60.,1.5,66.,60.,      121P    112
1.5,0.,0.,0.,0.,0.,1.5,0.,0.,0.,66.,0.,1.5,66.,66.,0.,-2.,66.,       121P    113
1.5,-2.,-6.00000000000001,0.,-2.,-6.00000000000001,1.5,-2.;          121P    114
504,24,53,121,1,121,2,55,121,1,121,3,57,121,4,121,3,59,121,2,        123P    115
121,4,61,121,5,121,6,63,121,6,121,7,65,121,8,121,7,67,121,5,121,     123P    116
8,69,121,9,121,5,71,121,10,121,8,73,121,9,121,10,75,121,11,121,      123P    117
9,77,121,12,121,10,79,121,11,121,12,81,121,6,121,11,83,121,7,        123P    118
121,12,85,121,13,121,1,87,121,13,121,14,89,121,3,121,14,91,121,      123P    119
15,121,2,93,121,16,121,4,95,121,15,121,16,97,121,13,121,15,99,       123P    120
121,14,121,16;                                                       123P    121
406,1,5HBody1;                                                       125P    122
406,1,12HComponent1:1;                                               127P    123
314,62.7450980392157,62.7450980392157,62.7450980392157,13HSteel      129P    124
- Satin;                                                             129P    125
S      1G      3D    130P    125                                        T      1
