                                                                        S      1
,,13Hbutton cutout,13Hbutton cutout,7Hunknown,7Hunknown,32,38,7,99,15,, G      1
1.,2,2HMM,1,0.08,15H20211012.212056,0.01,10000.,7Hunknown,7Hunknown,11, G      2
0,;                                                                     G      3
     186       1                                                00000000D      1
     186             -71       1       0                               0D      2
     514       2                                                00010000D      3
     514                       1       1                               0D      4
     510       3                                                00010000D      5
     510             -71       1       1                               0D      6
     510       4                                                00010000D      7
     510             -71       1       1                               0D      8
     510       5                                                00010000D      9
     510             -71       1       1                               0D     10
     510       6                                                00010000D     11
     510             -71       1       1                               0D     12
     510       7                                                00010000D     13
     510             -71       1       1                               0D     14
     510       8                                                00010000D     15
     510             -71       1       1                               0D     16
     508       9                                                00010000D     17
     508                       1       1                               0D     18
     508      10                                                00010000D     19
     508                       1       1                               0D     20
     508      11                                                00010000D     21
     508                       1       1                               0D     22
     508      12                                                00010000D     23
     508                       1       1                               0D     24
     508      13                                                00010000D     25
     508                       1       1                               0D     26
     508      14                                                00010000D     27
     508                       1       1                               0D     28
     126      15                                                00010000D     29
     126       0               3       0                               0D     30
     126      18                                                00010000D     31
     126       0               3       0                               0D     32
     126      21                                                00010000D     33
     126       0               3       0                               0D     34
     126      24                                                00010000D     35
     126       0               3       0                               0D     36
     126      27                                                00010000D     37
     126       0               3       0                               0D     38
     126      30                                                00010000D     39
     126       0               3       0                               0D     40
     126      33                                                00010000D     41
     126       0               3       0                               0D     42
     126      36                                                00010000D     43
     126       0               3       0                               0D     44
     126      39                                                00010000D     45
     126       0               3       0                               0D     46
     126      42                                                00010000D     47
     126       0               3       0                               0D     48
     126      45                                                00010000D     49
     126       0               3       0                               0D     50
     126      48                                                00010000D     51
     126       0               3       0                               0D     52
     128      51                                                00010000D     53
     128       0     -71       5       0                               0D     54
     128      56                                                00010000D     55
     128       0     -71       5       0                               0D     56
     128      61                                                00010000D     57
     128       0     -71       5       0                               0D     58
     128      66                                                00010000D     59
     128       0     -71       5       0                               0D     60
     128      71                                                00010000D     61
     128       0     -71       5       0                               0D     62
     128      76                                                00010000D     63
     128       0     -71       5       0                               0D     64
     502      81                                                00010000D     65
     502                       6       1                               0D     66
     504      87                                                00010001D     67
     504                       3       1                               0D     68
     406      90                                                00000000D     69
     406                       1      15                               0D     70
     314      91                                                00000200D     71
     314                       2       0                               0D     72
186,3,1,0,0,1,69;                                                      1P      1
514,6,5,1,7,1,9,1,11,1,13,1,15,1;                                      3P      2
510,53,1,1,17;                                                         5P      3
510,55,1,1,19;                                                         7P      4
510,57,1,1,21;                                                         9P      5
510,59,1,1,23;                                                        11P      6
510,61,1,1,25;                                                        13P      7
510,63,1,1,27;                                                        15P      8
508,4,0,67,1,1,0,0,67,2,1,0,0,67,3,0,0,0,67,4,0,0;                    17P      9
508,4,0,67,5,1,0,0,67,4,1,0,0,67,6,0,0,0,67,7,0,0;                    19P     10
508,4,0,67,8,1,0,0,67,7,1,0,0,67,9,0,0,0,67,10,0,0;                   21P     11
508,4,0,67,11,1,0,0,67,10,1,0,0,67,12,0,0,0,67,2,0,0;                 23P     12
508,4,0,67,11,0,0,0,67,1,0,0,0,67,5,0,0,0,67,8,0,0;                   25P     13
508,4,0,67,12,1,0,0,67,9,1,0,0,67,6,1,0,0,67,3,1,0;                   27P     14
126,1,1,0,0,1,0,0.,0.,1.,1.,1.,1.,-9.99999940395355,                  29P     15
5.00000011920929,0.,-9.99999940395355,15.0000001192093,0.,0.,1.,      29P     16
0.,0.,0.;                                                             29P     17
126,1,1,0,0,1,0,0.,0.,5.2,5.2,1.,1.,-9.99999940395355,                31P     18
15.0000001192093,0.,-9.99999940395355,15.0000001192093,-52.,0.,       31P     19
5.2,0.,0.,0.;                                                         31P     20
126,1,1,0,0,1,0,0.,0.,1.,1.,1.,1.,-9.99999940395355,                  33P     21
5.00000011920929,-52.,-9.99999940395355,15.0000001192093,-52.,        33P     22
0.,1.,0.,0.,0.;                                                       33P     23
126,1,1,0,0,1,0,0.,0.,5.2,5.2,1.,1.,-9.99999940395355,                35P     24
5.00000011920929,0.,-9.99999940395355,5.00000011920929,-52.,0.,       35P     25
5.2,0.,0.,0.;                                                         35P     26
126,1,1,0,0,1,0,0.,0.,5.,5.,1.,1.,40.0000005960464,                   37P     27
5.00000011920929,0.,-9.99999940395355,5.00000011920929,0.,0.,5.,      37P     28
0.,0.,0.;                                                             37P     29
126,1,1,0,0,1,0,0.,0.,5.,5.,1.,1.,40.0000005960464,                   39P     30
5.00000011920929,-52.,-9.99999940395355,5.00000011920929,-52.,        39P     31
0.,5.,0.,0.,0.;                                                       39P     32
126,1,1,0,0,1,0,0.,0.,5.2,5.2,1.,1.,40.0000005960464,                 41P     33
5.00000011920929,0.,40.0000005960464,5.00000011920929,-52.,0.,        41P     34
5.2,0.,0.,0.;                                                         41P     35
126,1,1,0,0,1,0,0.,0.,1.,1.,1.,1.,40.0000005960464,                   43P     36
15.0000001192093,0.,40.0000005960464,5.00000011920929,0.,0.,1.,       43P     37
0.,0.,0.;                                                             43P     38
126,1,1,0,0,1,0,0.,0.,1.,1.,1.,1.,40.0000005960464,                   45P     39
15.0000001192093,-52.,40.0000005960464,5.00000011920929,-52.,0.,      45P     40
1.,0.,0.,0.;                                                          45P     41
126,1,1,0,0,1,0,0.,0.,5.2,5.2,1.,1.,40.0000005960464,                 47P     42
15.0000001192093,0.,40.0000005960464,15.0000001192093,-52.,0.,        47P     43
5.2,0.,0.,0.;                                                         47P     44
126,1,1,0,0,1,0,0.,0.,5.,5.,1.,1.,-9.99999940395355,                  49P     45
15.0000001192093,0.,40.0000005960464,15.0000001192093,0.,0.,5.,       49P     46
0.,0.,0.;                                                             49P     47
126,1,1,0,0,1,0,0.,0.,5.,5.,1.,1.,-9.99999940395355,                  51P     48
15.0000001192093,-52.,40.0000005960464,15.0000001192093,-52.,0.,      51P     49
5.,0.,0.,0.;                                                          51P     50
128,1,1,1,1,0,0,1,0,0,-0.001,-0.001,1.001,1.001,-0.001,-0.001,        53P     51
5.201,5.201,1.,1.,1.,1.,-9.99999940395355,4.99000011920929,0.01,      53P     52
-9.99999940395355,15.0100001192093,0.01,-9.99999940395355,            53P     53
4.99000011920929,-52.01,-9.99999940395355,15.0100001192093,           53P     54
-52.01,-0.001,1.001,-0.001,5.201;                                     53P     55
128,1,1,1,1,0,0,1,0,0,-0.001,-0.001,5.001,5.001,-0.001,-0.001,        55P     56
5.201,5.201,1.,1.,1.,1.,40.0100005960465,5.00000011920929,0.01,       55P     57
-10.0099994039536,5.00000011920929,0.01,40.0100005960465,             55P     58
5.00000011920929,-52.01,-10.0099994039536,5.00000011920929,           55P     59
-52.01,-0.001,5.001,-0.001,5.201;                                     55P     60
128,1,1,1,1,0,0,1,0,0,-0.001,-0.001,1.001,1.001,-0.001,-0.001,        57P     61
5.201,5.201,1.,1.,1.,1.,40.0000005960464,15.0100001192093,0.01,       57P     62
40.0000005960464,4.99000011920929,0.01,40.0000005960464,              57P     63
15.0100001192093,-52.01,40.0000005960464,4.99000011920929,            57P     64
-52.01,-0.001,1.001,-0.001,5.201;                                     57P     65
128,1,1,1,1,0,0,1,0,0,-0.001,-0.001,5.001,5.001,-0.001,-0.001,        59P     66
5.201,5.201,1.,1.,1.,1.,-10.0099994039536,15.0000001192093,0.01,      59P     67
40.0100005960465,15.0000001192093,0.01,-10.0099994039536,             59P     68
15.0000001192093,-52.01,40.0100005960465,15.0000001192093,            59P     69
-52.01,-0.001,5.001,-0.001,5.201;                                     59P     70
128,1,1,1,1,0,0,1,0,0,-2.501,-2.501,2.501,2.501,-0.501,-0.501,        61P     71
0.501,0.501,1.,1.,1.,1.,-10.0099994039536,4.99000011920929,0.,        61P     72
40.0100005960464,4.99000011920929,0.,-10.0099994039536,               61P     73
15.0100001192093,0.,40.0100005960464,15.0100001192093,0.,-2.501,      61P     74
2.501,-0.501,0.501;                                                   61P     75
128,1,1,1,1,0,0,1,0,0,-2.501,-2.501,2.501,2.501,-0.501,-0.501,        63P     76
0.501,0.501,1.,1.,1.,1.,40.0100005960464,4.99000011920929,-52.,       63P     77
-10.0099994039536,4.99000011920929,-52.,40.0100005960464,             63P     78
15.0100001192093,-52.,-10.0099994039536,15.0100001192093,-52.,        63P     79
-2.501,2.501,-0.501,0.501;                                            63P     80
502,8,-9.99999940395355,5.00000011920929,0.,-9.99999940395355,        65P     81
15.0000001192093,0.,-9.99999940395355,15.0000001192093,-52.,          65P     82
-9.99999940395355,5.00000011920929,-52.,40.0000005960464,             65P     83
5.00000011920929,0.,40.0000005960464,5.00000011920929,-52.,           65P     84
40.0000005960464,15.0000001192093,0.,40.0000005960464,                65P     85
15.0000001192093,-52.;                                                65P     86
504,12,29,65,1,65,2,31,65,2,65,3,33,65,4,65,3,35,65,1,65,4,37,        67P     87
65,5,65,1,39,65,6,65,4,41,65,5,65,6,43,65,7,65,5,45,65,8,65,6,        67P     88
47,65,7,65,8,49,65,2,65,7,51,65,3,65,8;                               67P     89
406,1,5HBody1;                                                        69P     90
314,62.7450980392157,62.7450980392157,62.7450980392157,13HSteel       71P     91
- Satin;                                                              71P     92
S      1G      3D     72P     92                                        T      1
