                                                                        S      1
,,6Hbutton,6Hbutton,7Hunknown,7Hunknown,32,38,7,99,15,,1.,2,2HMM,1,0.08,G      1
15H20211012.212058,0.01,10000.,7Hunknown,7Hunknown,11,0,;               G      2
     186       1                                                00000000D      1
     186            -135       1       0                               0D      2
     514       2                                                00010000D      3
     514                       1       1                               0D      4
     510       3                                                00010000D      5
     510            -135       1       1                               0D      6
     510       4                                                00010000D      7
     510            -135       1       1                               0D      8
     510       5                                                00010000D      9
     510            -135       1       1                               0D     10
     510       6                                                00010000D     11
     510            -135       1       1                               0D     12
     510       7                                                00010000D     13
     510            -135       1       1                               0D     14
     510       8                                                00010000D     15
     510            -135       1       1                               0D     16
     510       9                                                00010000D     17
     510            -135       1       1                               0D     18
     510      10                                                00010000D     19
     510            -135       1       1                               0D     20
     510      11                                                00010000D     21
     510            -135       1       1                               0D     22
     510      12                                                00010000D     23
     510            -135       1       1                               0D     24
     510      13                                                00010000D     25
     510            -135       1       1                               0D     26
     508      14                                                00010000D     27
     508                       1       1                               0D     28
     508      15                                                00010000D     29
     508                       1       1                               0D     30
     508      16                                                00010000D     31
     508                       1       1                               0D     32
     508      17                                                00010000D     33
     508                       2       1                               0D     34
     508      19                                                00010000D     35
     508                       1       1                               0D     36
     508      20                                                00010000D     37
     508                       1       1                               0D     38
     508      21                                                00010000D     39
     508                       2       1                               0D     40
     508      23                                                00010000D     41
     508                       1       1                               0D     42
     508      24                                                00010000D     43
     508                       1       1                               0D     44
     508      25                                                00010000D     45
     508                       1       1                               0D     46
     508      26                                                00010000D     47
     508                       1       1                               0D     48
     508      27                                                00010000D     49
     508                       1       1                               0D     50
     508      28                                                00010000D     51
     508                       1       1                               0D     52
     126      29                                                00010000D     53
     126       0              15       0                               0D     54
     126      44                                                00010000D     55
     126       0               4       0                               0D     56
     126      48                                                00010000D     57
     126       0              15       0                               0D     58
     126      63                                                00010000D     59
     126       0               7       0                               0D     60
     126      70                                                00010000D     61
     126       0               4       0                               0D     62
     126      74                                                00010000D     63
     126       0               7       0                               0D     64
     126      81                                                00010000D     65
     126       0               4       0                               0D     66
     126      85                                                00010000D     67
     126       0               7       0                               0D     68
     126      92                                                00010000D     69
     126       0               4       0                               0D     70
     126      96                                                00010000D     71
     126       0               7       0                               0D     72
     126     103                                                00010000D     73
     126       0               5       0                               0D     74
     126     108                                                00010000D     75
     126       0               7       0                               0D     76
     126     115                                                00010000D     77
     126       0               7       0                               0D     78
     126     122                                                00010000D     79
     126       0               7       0                               0D     80
     126     129                                                00010000D     81
     126       0               5       0                               0D     82
     126     134                                                00010000D     83
     126       0              10       0                               0D     84
     126     144                                                00010000D     85
     126       0               4       0                               0D     86
     126     148                                                00010000D     87
     126       0              10       0                               0D     88
     126     158                                                00010000D     89
     126       0               5       0                               0D     90
     126     163                                                00010000D     91
     126       0               7       0                               0D     92
     126     170                                                00010000D     93
     126       0               6       0                               0D     94
     126     176                                                00010000D     95
     126       0               7       0                               0D     96
     126     183                                                00010000D     97
     126       0               5       0                               0D     98
     126     188                                                00010000D     99
     126       0               4       0                               0D    100
     126     192                                                00010000D    101
     126       0               4       0                               0D    102
     126     196                                                00010000D    103
     126       0               4       0                               0D    104
     126     200                                                00010000D    105
     126       0               3       0                               0D    106
     128     203                                                00010000D    107
     128       0    -135      26       0                               0D    108
     128     229                                                00010000D    109
     128       0    -135      11       0                               0D    110
     128     240                                                00010000D    111
     128       0    -135      11       0                               0D    112
     128     251                                                00010000D    113
     128       0    -135       9       0                               0D    114
     128     260                                                00010000D    115
     128       0    -135      16       0                               0D    116
     128     276                                                00010000D    117
     128       0    -135       9       0                               0D    118
     128     285                                                00010000D    119
     128       0    -135       8       0                               0D    120
     128     293                                                00010000D    121
     128       0    -135      11       0                               0D    122
     128     304                                                00010000D    123
     128       0    -135      11       0                               0D    124
     128     315                                                00010000D    125
     128       0    -135      11       0                               0D    126
     128     326                                                00010000D    127
     128       0    -135       8       0                               0D    128
     502     334                                                00010000D    129
     502                      18       1                               0D    130
     504     352                                                00010001D    131
     504                       7       1                               0D    132
     406     359                                                00000000D    133
     406                       1      15                               0D    134
     314     360                                                00000200D    135
     314                       2       0                               0D    136
186,3,1,0,0,1,133;                                                     1P      1
514,11,5,1,7,1,9,1,11,1,13,1,15,1,17,1,19,1,21,1,23,1,25,1;            3P      2
510,107,1,1,27;                                                        5P      3
510,109,1,1,29;                                                        7P      4
510,111,1,1,31;                                                        9P      5
510,113,2,1,33,35;                                                    11P      6
510,115,1,1,37;                                                       13P      7
510,117,2,1,39,41;                                                    15P      8
510,119,1,1,43;                                                       17P      9
510,121,1,1,45;                                                       19P     10
510,123,1,1,47;                                                       21P     11
510,125,1,1,49;                                                       23P     12
510,127,1,1,51;                                                       25P     13
508,4,0,131,1,0,0,0,131,2,1,0,0,131,3,0,0,0,131,2,0,0;                27P     14
508,4,0,131,4,1,0,0,131,5,1,0,0,131,6,1,0,0,131,7,1,0;                29P     15
508,4,0,131,7,0,0,0,131,8,0,0,0,131,9,0,0,0,131,10,0,0;               31P     16
508,8,0,131,6,0,0,0,131,11,1,0,0,131,12,1,0,0,131,13,1,0,0,131,       33P     17
14,0,0,0,131,15,0,0,0,131,16,0,0,0,131,8,1,0;                         33P     18
508,1,0,131,3,1,0;                                                    35P     19
508,4,0,131,16,1,0,0,131,17,1,0,0,131,18,1,0,0,131,9,1,0;             37P     20
508,8,0,131,4,0,0,0,131,10,1,0,0,131,18,0,0,0,131,19,1,0,0,131,       39P     21
20,0,0,0,131,21,1,0,0,131,22,1,0,0,131,23,0,0;                        39P     22
508,1,0,131,1,1,0;                                                    41P     23
508,4,0,131,17,0,0,0,131,15,1,0,0,131,24,0,0,0,131,19,0,0;            43P     24
508,4,0,131,20,1,0,0,131,24,1,0,0,131,14,1,0,0,131,25,1,0;            45P     25
508,4,0,131,12,0,0,0,131,26,1,0,0,131,22,0,0,0,131,27,1,0;            47P     26
508,4,0,131,25,0,0,0,131,13,0,0,0,131,27,0,0,0,131,21,0,0;            49P     27
508,4,0,131,5,0,0,0,131,23,1,0,0,131,26,0,0,0,131,11,0,0;             51P     28
126,8,2,0,1,0,0,-3.14159265358979,-3.14159265358979,                  53P     29
-3.14159265358979,-1.5707963267949,-1.5707963267949,0.,0.,            53P     30
1.5707963267949,1.5707963267949,3.14159265358979,                     53P     31
3.14159265358979,3.14159265358979,1.,0.707106781186547,1.,            53P     32
0.707106781186547,1.,0.707106781186547,1.,0.707106781186547,1.,       53P     33
37.0000004917383,14.0000002086163,-11.0000001639128,                  53P     34
37.0000004917383,14.0000002086163,-7.00000016391277,                  53P     35
33.0000004917383,14.0000002086163,-7.00000016391277,                  53P     36
29.0000004917383,14.0000002086163,-7.00000016391277,                  53P     37
29.0000004917383,14.0000002086163,-11.0000001639128,                  53P     38
29.0000004917383,14.0000002086163,-15.0000001639128,                  53P     39
33.0000004917383,14.0000002086163,-15.0000001639128,                  53P     40
37.0000004917383,14.0000002086163,-15.0000001639128,                  53P     41
37.0000004917383,14.0000002086163,-11.0000001639128,                  53P     42
-3.14159265358979,3.14159265358979,0.,0.,0.;                          53P     43
126,1,1,0,0,1,0,0.,0.,2.00000002980232,2.00000002980232,1.,1.,        55P     44
37.0000004917383,14.0000002086163,-11.0000001639128,                  55P     45
37.0000004917383,6.00000008940697,-11.0000001639128,0.,               55P     46
2.00000002980232,0.,0.,0.;                                            55P     47
126,8,2,0,1,0,0,-3.14159265358979,-3.14159265358979,                  57P     48
-3.14159265358979,-1.5707963267949,-1.5707963267949,0.,0.,            57P     49
1.5707963267949,1.5707963267949,3.14159265358979,                     57P     50
3.14159265358979,3.14159265358979,1.,0.707106781186547,1.,            57P     51
0.707106781186547,1.,0.707106781186547,1.,0.707106781186547,1.,       57P     52
37.0000004917383,6.00000008940697,-11.0000001639128,                  57P     53
37.0000004917383,6.00000008940697,-15.0000001639128,                  57P     54
33.0000004917383,6.00000008940697,-15.0000001639128,                  57P     55
29.0000004917383,6.00000008940697,-15.0000001639128,                  57P     56
29.0000004917383,6.00000008940697,-11.0000001639128,                  57P     57
29.0000004917383,6.00000008940697,-7.00000016391277,                  57P     58
33.0000004917383,6.00000008940697,-7.00000016391277,                  57P     59
37.0000004917383,6.00000008940697,-7.00000016391277,                  57P     60
37.0000004917383,6.00000008940697,-11.0000001639128,                  57P     61
-3.14159265358979,3.14159265358979,0.,0.,0.;                          57P     62
126,2,2,0,0,0,0,-0.607951495516508,-0.607951495516508,                59P     63
-0.607951495516508,0.607951495516508,0.607951495516508,               59P     64
0.607951495516508,1.,0.820819818812358,1.,-7.04247118384137,          59P     65
14.0000002086163,-12.2569285116123,-9.00000013411045,                 59P     66
14.0000002086163,-12.9823570566671,-9.00000013411045,                 59P     67
14.0000002086163,-15.0699791884528,-0.607951495516508,                59P     68
0.607951495516508,0.,0.,0.;                                           59P     69
126,1,1,0,0,1,0,0.,0.,0.800000011920929,0.800000011920929,1.,1.,      61P     70
-9.00000013411045,14.0000002086163,-15.0699791884528,                 61P     71
-9.00000013411045,6.00000008940697,-15.0699791884528,0.,              61P     72
0.800000011920929,0.,0.,0.;                                           61P     73
126,2,2,0,0,0,0,-0.607951495516508,-0.607951495516508,                63P     74
-0.607951495516508,0.607951495516508,0.607951495516508,               63P     75
0.607951495516508,1.,0.820819818812358,1.,-9.00000013411045,          63P     76
6.00000008940697,-15.0699791884528,-9.00000013411045,                 63P     77
6.00000008940697,-12.9823570566671,-7.04247118384137,                 63P     78
6.00000008940697,-12.2569285116123,-0.607951495516508,                63P     79
0.607951495516508,0.,0.,0.;                                           63P     80
126,1,1,0,0,1,0,-0.800000011920929,-0.800000011920929,0.,0.,1.,       65P     81
1.,-7.04247118384137,6.00000008940697,-12.2569285116123,              65P     82
-7.04247118384137,14.0000002086163,-12.2569285116123,                 65P     83
-0.800000011920929,0.,0.,0.,0.;                                       65P     84
126,2,2,0,0,0,0,-0.288972311966317,-0.288972311966317,                67P     85
-0.288972311966317,-0.0158025666286889,-0.0158025666286889,           67P     86
-0.0158025666286889,1.,0.990686778305145,1.,28.1836740582398,         67P     87
6.00000008940697,-4.44222066999332,10.0335723362619,                  67P     88
6.00000008940697,-5.92882317024456,-7.04247118384137,                 67P     89
6.00000008940697,-12.2569285116123,-0.288972311966317,                67P     90
-0.0158025666286889,0.,0.,0.;                                         67P     91
126,1,1,0,0,1,0,0.,0.,0.800000011920929,0.800000011920929,1.,1.,      69P     92
28.1836740582398,14.0000002086163,-4.4422206699933,                   69P     93
28.1836740582398,6.00000008940697,-4.4422206699933,0.,                69P     94
0.800000011920929,0.,0.,0.;                                           69P     95
126,2,2,0,0,0,0,0.0158025666286889,0.0158025666286889,                71P     96
0.0158025666286889,0.288972311966317,0.288972311966317,               71P     97
0.288972311966317,1.,0.990686778305145,1.,-7.04247118384137,          71P     98
14.0000002086163,-12.2569285116123,10.0335723362619,                  71P     99
14.0000002086163,-5.92882317024456,28.1836740582398,                  71P    100
14.0000002086163,-4.44222066999332,0.0158025666286889,                71P    101
0.288972311966317,0.,0.,0.;                                           71P    102
126,1,1,0,0,1,0,1.50699791884528,1.50699791884528,                    73P    103
1.60497551445926,1.60497551445926,1.,1.,-9.00000013411045,            73P    104
6.00000008940697,-15.0699791884528,-9.00000013411045,                 73P    105
6.00000008940697,-16.0497551445926,1.50699791884528,                  73P    106
1.60497551445926,0.,0.,0.;                                            73P    107
126,2,2,0,0,0,0,-1.47059183404292,-1.47059183404292,                  75P    108
-1.47059183404292,-4.16299496401039D-17,-4.16299496401039D-17,        75P    109
-4.16299496401039D-17,1.,0.741632282771597,1.,-9.00000013411047,      75P    110
6.00000008940697,-16.0497551445926,-9.00000013411047,                 75P    111
6.00000008940697,-25.0951293244991,-4.16333634234434D-16,             75P    112
6.00000008940697,-26.0000003874302,-1.47059183404292,                 75P    113
-4.16299496401039D-17,0.,0.,0.;                                       75P    114
126,2,2,0,0,0,0,-0.734347667636438,-0.734347667636438,                77P    115
-0.734347667636438,-0.0224860999950828,-0.0224860999950828,           77P    116
-0.0224860999950828,1.,0.937322551208894,1.,0.,6.00000008940697,      77P    117
-26.0000003874302,19.7778552993844,6.00000008940697,                  77P    118
-30.8329349530692,37.9096890339773,6.00000008940697,                  77P    119
-21.5724046129529,-0.734347667636438,-0.0224860999950828,0.,0.,       77P    120
0.;                                                                   77P    121
126,2,2,0,0,0,0,-0.549299517378261,-0.549299517378261,                79P    122
-0.549299517378261,0.549299517378262,0.549299517378262,               79P    123
0.549299517378262,1.,0.852890446193432,1.,39.0000005811453,           79P    124
6.00000008940697,-19.7912625863913,39.0000005811453,                  79P    125
6.00000008940697,-21.0155462548562,37.9096890339773,                  79P    126
6.00000008940697,-21.5724046129529,-0.549299517378261,                79P    127
0.549299517378262,0.,0.,0.;                                           79P    128
126,1,1,0,0,1,0,1.44088455253795,1.44088455253795,                    81P    129
1.97912625863913,1.97912625863913,1.,1.,39.0000005811453,             81P    130
6.00000008940697,-14.4088455253795,39.0000005811453,                  81P    131
6.00000008940697,-19.7912625863913,1.44088455253795,                  81P    132
1.97912625863913,0.,0.,0.;                                            81P    133
126,4,2,0,0,0,0,-0.826259958609574,-0.826259958609574,                83P    134
-0.826259958609574,3.88578058618805D-16,3.88578058618805D-16,         83P    135
0.826259958609574,0.826259958609574,0.826259958609574,1.,             83P    136
0.915868693499035,1.,0.91586869349903,1.,28.1836740582398,            83P    137
6.00000008940697,-4.44222066999331,32.5526191304106,                  83P    138
6.00000008940697,-4.08437779025425,35.7763098557779,                  83P    139
6.00000008940697,-7.05482399872295,39.0000005811453,                  83P    140
6.00000008940697,-10.0252702071916,39.0000005811453,                  83P    141
6.00000008940697,-14.4088455253795,-0.826259958609574,                83P    142
0.826259958609574,0.,0.,0.;                                           83P    143
126,1,1,0,0,1,0,-0.800000011920929,-0.800000011920929,0.,0.,1.,       85P    144
1.,39.0000005811453,6.00000008940697,-14.4088455253795,               85P    145
39.0000005811453,14.0000002086163,-14.4088455253795,                  85P    146
-0.800000011920929,0.,0.,0.,0.;                                       85P    147
126,4,2,0,0,0,0,-0.826259958609574,-0.826259958609574,                87P    148
-0.826259958609574,-3.88578058618805D-16,-3.88578058618805D-16,       87P    149
0.826259958609574,0.826259958609574,0.826259958609574,1.,             87P    150
0.91586869349903,1.,0.915868693499035,1.,39.0000005811453,            87P    151
14.0000002086163,-14.4088455253795,39.0000005811453,                  87P    152
14.0000002086163,-10.0252702071916,35.7763098557779,                  87P    153
14.0000002086163,-7.05482399872295,32.5526191304106,                  87P    154
14.0000002086163,-4.08437779025425,28.1836740582398,                  87P    155
14.0000002086163,-4.44222066999331,-0.826259958609574,                87P    156
0.826259958609574,0.,0.,0.;                                           87P    157
126,1,1,0,0,1,0,1.44088455253795,1.44088455253795,                    89P    158
1.97912625863913,1.97912625863913,1.,1.,39.0000005811453,             89P    159
14.0000002086163,-14.4088455253795,39.0000005811453,                  89P    160
14.0000002086163,-19.7912625863913,1.44088455253795,                  89P    161
1.97912625863913,0.,0.,0.;                                            89P    162
126,2,2,0,0,0,0,-0.549299517378262,-0.549299517378262,                91P    163
-0.549299517378262,0.549299517378261,0.549299517378261,               91P    164
0.549299517378261,1.,0.852890446193432,1.,37.9096890339773,           91P    165
14.0000002086163,-21.5724046129529,39.0000005811453,                  91P    166
14.0000002086163,-21.0155462548562,39.0000005811453,                  91P    167
14.0000002086163,-19.7912625863913,-0.549299517378262,                91P    168
0.549299517378261,0.,0.,0.;                                           91P    169
126,2,2,0,0,0,0,0.0224860999950828,0.0224860999950828,                93P    170
0.0224860999950828,0.734347667636438,0.734347667636438,               93P    171
0.734347667636438,1.,0.937322551208894,1.,37.9096890339773,           93P    172
14.0000002086163,-21.5724046129529,19.7778552993844,                  93P    173
14.0000002086163,-30.8329349530692,0.,14.0000002086163,               93P    174
-26.0000003874302,0.0224860999950828,0.734347667636438,0.,0.,0.;      93P    175
126,2,2,0,0,0,0,4.16299496401039D-17,4.16299496401039D-17,            95P    176
4.16299496401039D-17,1.47059183404292,1.47059183404292,               95P    177
1.47059183404292,1.,0.741632282771597,1.,-4.16333634234434D-16,       95P    178
14.0000002086163,-26.0000003874302,-9.00000013411047,                 95P    179
14.0000002086163,-25.0951293244991,-9.00000013411047,                 95P    180
14.0000002086163,-16.0497551445926,4.16299496401039D-17,              95P    181
1.47059183404292,0.,0.,0.;                                            95P    182
126,1,1,0,0,1,0,1.50699791884528,1.50699791884528,                    97P    183
1.60497551445926,1.60497551445926,1.,1.,-9.00000013411045,            97P    184
14.0000002086163,-15.0699791884528,-9.00000013411045,                 97P    185
14.0000002086163,-16.0497551445926,1.50699791884528,                  97P    186
1.60497551445926,0.,0.,0.;                                            97P    187
126,1,1,0,0,1,0,0.,0.,0.800000011920929,0.800000011920929,1.,1.,      99P    188
39.0000005811453,14.0000002086163,-19.7912625863913,                  99P    189
39.0000005811453,6.00000008940697,-19.7912625863913,0.,               99P    190
0.800000011920929,0.,0.,0.;                                           99P    191
126,1,1,0,0,1,0,-0.800000011920929,-0.800000011920929,0.,0.,1.,      101P    192
1.,37.9096890339773,6.00000008940697,-21.5724046129529,              101P    193
37.9096890339773,14.0000002086163,-21.5724046129529,                 101P    194
-0.800000011920929,0.,0.,0.,0.;                                      101P    195
126,1,1,0,0,1,0,-0.800000011920929,-0.800000011920929,0.,0.,1.,      103P    196
1.,-9.00000013411045,6.00000008940697,-16.0497551445926,             103P    197
-9.00000013411045,14.0000002086163,-16.0497551445926,                103P    198
-0.800000011920929,0.,0.,0.,0.;                                      103P    199
126,1,1,0,0,1,0,0.,0.,0.8,0.8,1.,1.,-1.5854834689577D-6,             105P    200
14.0000002086163,-26.,-1.5854834689577D-6,6.00000020861626,-26.,     105P    201
0.,0.8,0.,0.,0.;                                                     105P    202
128,1,8,1,2,0,1,0,0,1,0.,0.,2.00000002980232,2.00000002980232,       107P    203
-3.14159265358979,-3.14159265358979,-3.14159265358979,               107P    204
-1.5707963267949,-1.5707963267949,0.,0.,1.5707963267949,             107P    205
1.5707963267949,3.14159265358979,3.14159265358979,                   107P    206
3.14159265358979,1.,1.,0.707106781186548,0.707106781186548,1.,       107P    207
1.,0.707106781186548,0.707106781186548,1.,1.,0.707106781186548,      107P    208
0.707106781186548,1.,1.,0.707106781186548,0.707106781186548,1.,      107P    209
1.,37.0000004917383,14.0000002086163,-11.0000001639128,              107P    210
37.0000004917383,6.00000008940697,-11.0000001639128,                 107P    211
37.0000004917383,14.0000002086163,-7.00000016391277,                 107P    212
37.0000004917383,6.00000008940697,-7.00000016391277,                 107P    213
33.0000004917383,14.0000002086163,-7.00000016391277,                 107P    214
33.0000004917383,6.00000008940697,-7.00000016391277,                 107P    215
29.0000004917383,14.0000002086163,-7.00000016391277,                 107P    216
29.0000004917383,6.00000008940697,-7.00000016391277,                 107P    217
29.0000004917383,14.0000002086163,-11.0000001639128,                 107P    218
29.0000004917383,6.00000008940697,-11.0000001639128,                 107P    219
29.0000004917383,14.0000002086163,-15.0000001639128,                 107P    220
29.0000004917383,6.00000008940697,-15.0000001639128,                 107P    221
33.0000004917383,14.0000002086163,-15.0000001639128,                 107P    222
33.0000004917383,6.00000008940697,-15.0000001639128,                 107P    223
37.0000004917383,14.0000002086163,-15.0000001639128,                 107P    224
37.0000004917383,6.00000008940697,-15.0000001639128,                 107P    225
37.0000004917383,14.0000002086163,-11.0000001639128,                 107P    226
37.0000004917383,6.00000008940697,-11.0000001639128,0.,              107P    227
2.00000002980232,-3.14159265358979,3.14159265358979;                 107P    228
128,1,2,1,2,0,0,0,0,0,-2.6666667064031,-2.6666667064031,0.,0.,       109P    229
-0.607951495516508,-0.607951495516508,-0.607951495516508,            109P    230
0.607951495516508,0.607951495516508,0.607951495516508,1.,1.,         109P    231
0.820819818812358,0.820819818812358,1.,1.,-9.00000013411045,         109P    232
14.0000002086163,-15.0699791884528,-9.00000013411045,                109P    233
6.00000008940697,-15.0699791884528,-9.00000013411045,                109P    234
14.0000002086163,-12.9823570566671,-9.00000013411045,                109P    235
6.00000008940697,-12.9823570566671,-7.04247118384137,                109P    236
14.0000002086163,-12.2569285116123,-7.04247118384137,                109P    237
6.00000008940697,-12.2569285116123,-2.6666667064031,0.,              109P    238
-0.607951495516508,0.607951495516508;                                109P    239
128,1,2,1,2,0,0,0,0,0,0.,0.,0.0603773588632684,                      111P    240
0.0603773588632684,-0.288972311966317,-0.288972311966317,            111P    241
-0.288972311966317,-0.015802566628689,-0.015802566628689,            111P    242
-0.015802566628689,1.,1.,0.990686778305132,0.990686778305132,1.,     111P    243
1.,28.1836740582398,6.00000008940697,-4.4422206699933,               111P    244
28.1836740582398,14.0000002086163,-4.4422206699933,                  111P    245
10.0335723362618,6.00000008940697,-5.92882317024459,                 111P    246
10.0335723362618,14.0000002086163,-5.92882317024459,                 111P    247
-7.04247118384136,6.00000008940697,-12.2569285116123,                111P    248
-7.04247118384136,14.0000002086163,-12.2569285116123,0.,             111P    249
0.0603773588632684,-0.288972311966317,-0.015802566628689;            111P    250
128,1,1,1,1,0,0,1,0,0,-0.00100000000000002,-0.00100000000000002,     113P    251
4.80100007152558,4.80100007152558,0.407437779025425,                 113P    252
0.407437779025425,3.08429349530692,3.08429349530692,1.,1.,1.,1.,     113P    253
39.0100005811453,6.00000008940697,-4.07437779025425,                 113P    254
-9.01000013411047,6.00000008940697,-4.07437779025425,                113P    255
39.0100005811453,6.00000008940697,-30.8429349530692,                 113P    256
-9.01000013411047,6.00000008940697,-30.8429349530692,                113P    257
-0.00100000000000002,4.80100007152558,0.407437779025425,             113P    258
3.08429349530692;                                                    113P    259
128,1,4,1,2,0,0,0,0,0,0.,0.,0.800000011920929,0.800000011920929,     115P    260
-0.826259958609575,-0.826259958609575,-0.826259958609575,0.,0.,      115P    261
0.826259958609574,0.826259958609574,0.826259958609574,1.,1.,         115P    262
0.915868693499037,0.915868693499037,1.,1.,0.915868693499037,         115P    263
0.915868693499037,1.,1.,39.0000005811453,6.00000008940697,           115P    264
-14.4088455253795,39.0000005811453,14.0000002086163,                 115P    265
-14.4088455253795,39.0000005811453,6.00000008940697,                 115P    266
-10.0252702071916,39.0000005811453,14.0000002086163,                 115P    267
-10.0252702071916,35.7763098557779,6.00000008940697,                 115P    268
-7.05482399872294,35.7763098557779,14.0000002086163,                 115P    269
-7.05482399872294,32.5526191304106,6.00000008940697,                 115P    270
-4.08437779025425,32.5526191304106,14.0000002086163,                 115P    271
-4.08437779025425,28.1836740582398,6.00000008940697,                 115P    272
-4.44222066999331,28.1836740582398,14.0000002086163,                 115P    273
-4.44222066999331,0.,0.800000011920929,-0.826259958609575,           115P    274
0.826259958609574;                                                   115P    275
128,1,1,1,1,0,0,1,0,0,-0.00100000000000222,-0.00100000000000222,     117P    276
4.80100007152557,4.80100007152557,0.407437779025425,                 117P    277
0.407437779025425,3.08429349530692,3.08429349530692,1.,1.,1.,1.,     117P    278
-9.01000013411047,14.0000002086163,-4.07437779025425,                117P    279
39.0100005811453,14.0000002086163,-4.07437779025425,                 117P    280
-9.01000013411047,14.0000002086163,-30.8429349530692,                117P    281
39.0100005811453,14.0000002086163,-30.8429349530692,                 117P    282
-0.00100000000000222,4.80100007152557,0.407437779025425,             117P    283
3.08429349530692;                                                    117P    284
128,1,1,1,1,0,0,1,0,0,-0.001,-0.001,0.801000011920929,               119P    285
0.801000011920929,1.43988455253795,1.43988455253795,                 119P    286
1.98012625863913,1.98012625863913,1.,1.,1.,1.,39.0000005811453,      119P    287
14.0100002086163,-14.3988455253795,39.0000005811453,                 119P    288
5.99000008940697,-14.3988455253795,39.0000005811453,                 119P    289
14.0100002086163,-19.8012625863913,39.0000005811453,                 119P    290
5.99000008940697,-19.8012625863913,-0.001,0.801000011920929,         119P    291
1.43988455253795,1.98012625863913;                                   119P    292
128,1,2,1,2,0,0,0,0,0,-4.00000005960464,-4.00000005960464,0.,0.,     121P    293
-0.549299517378261,-0.549299517378261,-0.549299517378261,            121P    294
0.549299517378262,0.549299517378262,0.549299517378262,1.,1.,         121P    295
0.852890446193423,0.852890446193423,1.,1.,39.0000005811453,          121P    296
14.0000002086163,-19.7912625863913,39.0000005811453,                 121P    297
6.00000008940697,-19.7912625863913,39.0000005811453,                 121P    298
14.0000002086163,-21.0155462548562,39.0000005811453,                 121P    299
6.00000008940697,-21.0155462548562,37.9096890339773,                 121P    300
14.0000002086163,-21.5724046129529,37.9096890339773,                 121P    301
6.00000008940697,-21.5724046129529,-4.00000005960464,0.,             121P    302
-0.549299517378261,0.549299517378262;                                121P    303
128,1,2,1,2,0,0,0,0,0,0.,0.,0.799967212712872,0.799967212712872,     123P    304
-1.47059183404292,-1.47059183404292,-1.47059183404292,               123P    305
-4.16316564967825D-17,-4.16316564967825D-17,                         123P    306
-4.16316564967825D-17,1.,1.,0.741632282771596,0.741632282771596,     123P    307
1.,1.,-9.00000013411047,6.00000008940697,-16.0497551445926,          123P    308
-9.00000013411047,14.0000002086163,-16.0497551445926,                123P    309
-9.00000013411048,6.00000008940697,-25.0951293244991,                123P    310
-9.00000013411048,14.0000002086163,-25.0951293244991,0.,             123P    311
6.00000008940697,-26.0000003874302,0.,14.0000002086163,              123P    312
-26.0000003874302,0.,0.799967212712872,-1.47059183404292,            123P    313
-4.16316564967825D-17;                                               123P    314
128,1,2,1,2,0,0,0,0,0,0.,0.,0.146077853034779,0.146077853034779,     125P    315
-0.734347697438759,-0.734347697438759,-0.734347697438759,            125P    316
-0.0224860999950827,-0.0224860999950827,-0.0224860999950827,1.,      125P    317
1.,0.937322546016394,0.937322546016394,1.,1.,                        125P    318
-1.58548347117815D-6,6.00000008940697,-26.,-1.58548347117815D-6,     125P    319
14.0000002086163,-26.,19.7778544721738,6.00000008940697,             125P    320
-30.8329353755532,19.7778544721738,14.0000002086163,                 125P    321
-30.8329353755532,37.9096890339773,6.00000008940697,                 125P    322
-21.5724046129529,37.9096890339773,14.0000002086163,                 125P    323
-21.5724046129529,0.,0.146077853034779,-0.734347697438759,           125P    324
-0.0224860999950827;                                                 125P    325
128,1,1,1,1,0,0,1,0,0,-0.001,-0.001,0.801000011920929,               127P    326
0.801000011920929,1.50599791884528,1.50599791884528,                 127P    327
1.60597551445926,1.60597551445926,1.,1.,1.,1.,-9.00000013411045,     127P    328
5.99000008940697,-15.0599791884528,-9.00000013411045,                127P    329
14.0100002086163,-15.0599791884528,-9.00000013411045,                127P    330
5.99000008940697,-16.0597551445926,-9.00000013411045,                127P    331
14.0100002086163,-16.0597551445926,-0.001,0.801000011920929,         127P    332
1.50599791884528,1.60597551445926;                                   127P    333
502,18,37.0000004917383,14.0000002086163,-11.0000001639128,          129P    334
37.0000004917383,6.00000008940697,-11.0000001639128,                 129P    335
-7.04247118384136,14.0000002086163,-12.2569285116123,                129P    336
-9.00000013411045,14.0000002086163,-15.0699791884528,                129P    337
-9.00000013411045,6.00000008940697,-15.0699791884528,                129P    338
-7.04247118384136,6.00000008940697,-12.2569285116123,                129P    339
28.1836740582398,6.00000008940697,-4.44222066999332,                 129P    340
28.1836740582398,14.0000002086163,-4.44222066999332,                 129P    341
-9.00000013411047,6.00000008940697,-16.0497551445926,0.,             129P    342
6.00000020861626,-26.0000003874302,37.9096890339773,                 129P    343
6.00000008940697,-21.5724046129529,39.0000005811453,                 129P    344
6.00000008940697,-19.7912625863913,39.0000005811453,                 129P    345
6.00000008940697,-14.4088455253795,39.0000005811453,                 129P    346
14.0000002086163,-14.4088455253795,39.0000005811453,                 129P    347
14.0000002086163,-19.7912625863913,37.9096890339773,                 129P    348
14.0000002086163,-21.5724046129529,0.,14.0000002086163,              129P    349
-26.0000003874302,-9.00000013411047,14.0000002086163,                129P    350
-16.0497551445926;                                                   129P    351
504,27,53,129,1,129,1,55,129,1,129,2,57,129,2,129,2,59,129,3,        131P    352
129,4,61,129,4,129,5,63,129,5,129,6,65,129,6,129,3,67,129,7,129,     131P    353
6,69,129,8,129,7,71,129,3,129,8,73,129,5,129,9,75,129,9,129,10,      131P    354
77,129,10,129,11,79,129,12,129,11,81,129,13,129,12,83,129,7,129,     131P    355
13,85,129,13,129,14,87,129,14,129,8,89,129,14,129,15,91,129,16,      131P    356
129,15,93,129,16,129,17,95,129,17,129,18,97,129,4,129,18,99,129,     131P    357
15,129,12,101,129,11,129,16,103,129,9,129,18,105,129,17,129,10;      131P    358
406,1,5HBody1;                                                       133P    359
314,62.7450980392157,62.7450980392157,62.7450980392157,13HSteel      135P    360
- Satin;                                                             135P    361
S      1G      2D    136P    361                                        T      1
