                                                                        S      1
,,10HComponent7,10HComponent7,7Hunknown,7Hunknown,32,38,7,99,15,,1.,2,2HG      1
MM,1,0.08,15H20211012.212054,0.01,10000.,7Hunknown,7Hunknown,11,0,;     G      2
     186       1                                                00000000D      1
     186             -71       1       0                               0D      2
     514       2                                                00010000D      3
     514                       1       1                               0D      4
     510       3                                                00010000D      5
     510             -71       1       1                               0D      6
     510       4                                                00010000D      7
     510             -71       1       1                               0D      8
     510       5                                                00010000D      9
     510             -71       1       1                               0D     10
     510       6                                                00010000D     11
     510             -71       1       1                               0D     12
     510       7                                                00010000D     13
     510             -71       1       1                               0D     14
     510       8                                                00010000D     15
     510             -71       1       1                               0D     16
     508       9                                                00010000D     17
     508                       1       1                               0D     18
     508      10                                                00010000D     19
     508                       1       1                               0D     20
     508      11                                                00010000D     21
     508                       1       1                               0D     22
     508      12                                                00010000D     23
     508                       1       1                               0D     24
     508      13                                                00010000D     25
     508                       1       1                               0D     26
     508      14                                                00010000D     27
     508                       1       1                               0D     28
     126      15                                                00010000D     29
     126       0               3       0                               0D     30
     126      18                                                00010000D     31
     126       0               3       0                               0D     32
     126      21                                                00010000D     33
     126       0               3       0                               0D     34
     126      24                                                00010000D     35
     126       0               3       0                               0D     36
     126      27                                                00010000D     37
     126       0               3       0                               0D     38
     126      30                                                00010000D     39
     126       0               3       0                               0D     40
     126      33                                                00010000D     41
     126       0               2       0                               0D     42
     126      35                                                00010000D     43
     126       0               3       0                               0D     44
     126      38                                                00010000D     45
     126       0               3       0                               0D     46
     126      41                                                00010000D     47
     126       0               2       0                               0D     48
     126      43                                                00010000D     49
     126       0               3       0                               0D     50
     126      46                                                00010000D     51
     126       0               3       0                               0D     52
     128      49                                                00010000D     53
     128       0     -71       6       0                               0D     54
     128      55                                                00010000D     55
     128       0     -71       5       0                               0D     56
     128      60                                                00010000D     57
     128       0     -71       5       0                               0D     58
     128      65                                                00010000D     59
     128       0     -71       6       0                               0D     60
     128      71                                                00010000D     61
     128       0     -71       7       0                               0D     62
     128      78                                                00010000D     63
     128       0     -71       7       0                               0D     64
     502      85                                                00010000D     65
     502                       5       1                               0D     66
     504      90                                                00010001D     67
     504                       3       1                               0D     68
     406      93                                                00000000D     69
     406                       1      15                               0D     70
     314      94                                                00000200D     71
     314                       2       0                               0D     72
186,3,1,0,0,1,69;                                                      1P      1
514,6,5,1,7,1,9,1,11,1,13,1,15,1;                                      3P      2
510,53,1,1,17;                                                         5P      3
510,55,1,1,19;                                                         7P      4
510,57,1,1,21;                                                         9P      5
510,59,1,1,23;                                                        11P      6
510,61,1,1,25;                                                        13P      7
510,63,1,1,27;                                                        15P      8
508,4,0,67,1,1,0,0,67,2,1,0,0,67,3,0,0,0,67,4,0,0;                    17P      9
508,4,0,67,5,1,0,0,67,4,1,0,0,67,6,0,0,0,67,7,0,0;                    19P     10
508,4,0,67,8,1,0,0,67,7,1,0,0,67,9,0,0,0,67,10,0,0;                   21P     11
508,4,0,67,11,1,0,0,67,10,1,0,0,67,12,0,0,0,67,2,0,0;                 23P     12
508,4,0,67,12,1,0,0,67,9,1,0,0,67,6,1,0,0,67,3,1,0;                   25P     13
508,4,0,67,11,0,0,0,67,1,0,0,0,67,5,0,0,0,67,8,0,0;                   27P     14
126,1,1,0,0,1,0,0.,0.,5.80078601196277,5.80078601196277,1.,1.,        29P     15
-35.,-1.5732827409599,32.9834099340065,-35.,-1.5732827409599,         29P     16
-25.0244501856211,0.,5.80078601196277,0.,0.,0.;                       29P     17
126,1,1,0,0,1,0,0.,0.,8.6,8.6,1.,1.,-35.,-1.5732827409599,            31P     18
-25.0244501856211,51.,-1.5732827409599,-25.0244501856211,0.,8.6,      31P     19
0.,0.,0.;                                                             31P     20
126,1,1,0,0,1,0,0.,0.,5.80078601196277,5.80078601196277,1.,1.,        33P     21
51.,-1.5732827409599,32.9834099340065,51.,-1.5732827409599,           33P     22
-25.0244501856211,0.,5.80078601196277,0.,0.,0.;                       33P     23
126,1,1,0,0,1,0,0.,0.,8.6,8.6,1.,1.,-35.,-1.5732827409599,            35P     24
32.9834099340065,51.,-1.5732827409599,32.9834099340065,0.,8.6,        35P     25
0.,0.,0.;                                                             35P     26
126,1,1,0,0,1,0,0.,0.,1.58232827409599,1.58232827409599,1.,1.,        37P     27
-35.,14.25,32.9834099340065,-35.,-1.5732827409599,                    37P     28
32.9834099340065,0.,1.58232827409599,0.,0.,0.;                        37P     29
126,1,1,0,0,1,0,0.,0.,1.58232827409599,1.58232827409599,1.,1.,        39P     30
51.,14.25,32.9834099340065,51.,-1.5732827409599,                      39P     31
32.9834099340065,0.,1.58232827409599,0.,0.,0.;                        39P     32
126,1,1,0,0,1,0,0.,0.,8.6,8.6,1.,1.,-35.,14.25,32.9834099340065,      41P     33
51.,14.25,32.9834099340065,0.,8.6,0.,0.,0.;                           41P     34
126,1,1,0,0,1,0,0.,0.,5.80078601196277,5.80078601196277,1.,1.,        43P     35
-35.,14.25,-25.0244501856211,-35.,14.25,32.9834099340065,0.,          43P     36
5.80078601196277,0.,0.,0.;                                            43P     37
126,1,1,0,0,1,0,0.,0.,5.80078601196277,5.80078601196277,1.,1.,        45P     38
51.,14.25,-25.0244501856211,51.,14.25,32.9834099340065,0.,            45P     39
5.80078601196277,0.,0.,0.;                                            45P     40
126,1,1,0,0,1,0,0.,0.,8.6,8.6,1.,1.,-35.,14.25,                       47P     41
-25.0244501856211,51.,14.25,-25.0244501856211,0.,8.6,0.,0.,0.;        47P     42
126,1,1,0,0,1,0,0.,0.,1.58232827409599,1.58232827409599,1.,1.,        49P     43
-35.,-1.5732827409599,-25.0244501856211,-35.,14.25,                   49P     44
-25.0244501856211,0.,1.58232827409599,0.,0.,0.;                       49P     45
126,1,1,0,0,1,0,0.,0.,1.58232827409599,1.58232827409599,1.,1.,        51P     46
51.,-1.5732827409599,-25.0244501856211,51.,14.25,                     51P     47
-25.0244501856211,0.,1.58232827409599,0.,0.,0.;                       51P     48
128,1,1,1,1,0,0,1,0,0,-0.001,-0.001,5.80178601196277,                 53P     49
5.80178601196277,-0.001,-0.001,8.601,8.601,1.,1.,1.,1.,-35.01,        53P     50
-1.5732827409599,32.9934099340065,-35.01,-1.5732827409599,            53P     51
-25.0344501856211,51.01,-1.5732827409599,32.9934099340065,51.01,      53P     52
-1.5732827409599,-25.0344501856211,-0.001,5.80178601196277,           53P     53
-0.001,8.601;                                                         53P     54
128,1,1,1,1,0,0,1,0,0,-0.001,-0.001,1.58332827409599,                 55P     55
1.58332827409599,-0.001,-0.001,8.601,8.601,1.,1.,1.,1.,-35.01,        55P     56
14.26,32.9834099340065,-35.01,-1.5832827409599,32.9834099340065,      55P     57
51.01,14.26,32.9834099340065,51.01,-1.5832827409599,                  55P     58
32.9834099340065,-0.001,1.58332827409599,-0.001,8.601;                55P     59
128,1,1,1,1,0,0,1,0,0,-0.001,-0.001,5.80178601196277,                 57P     60
5.80178601196277,-0.001,-0.001,8.601,8.601,1.,1.,1.,1.,-35.01,        57P     61
14.25,-25.0344501856211,-35.01,14.25,32.9934099340065,51.01,          57P     62
14.25,-25.0344501856211,51.01,14.25,32.9934099340065,-0.001,          57P     63
5.80178601196277,-0.001,8.601;                                        57P     64
128,1,1,1,1,0,0,1,0,0,-0.001,-0.001,1.58332827409599,                 59P     65
1.58332827409599,-0.001,-0.001,8.601,8.601,1.,1.,1.,1.,-35.01,        59P     66
-1.5832827409599,-25.0244501856211,-35.01,14.26,                      59P     67
-25.0244501856211,51.01,-1.5832827409599,-25.0244501856211,           59P     68
51.01,14.26,-25.0244501856211,-0.001,1.58332827409599,-0.001,         59P     69
8.601;                                                                59P     70
128,1,1,1,1,0,0,1,0,0,-2.90139300598138,-2.90139300598138,            61P     71
2.90139300598138,2.90139300598138,-0.792164137047995,                 61P     72
-0.792164137047995,0.792164137047995,0.792164137047995,1.,1.,1.,      61P     73
1.,51.,-1.5832827409599,32.9934099340065,51.,-1.5832827409599,        61P     74
-25.0344501856211,51.,14.26,32.9934099340065,51.,14.26,               61P     75
-25.0344501856211,-2.90139300598138,2.90139300598138,                 61P     76
-0.792164137047995,0.792164137047995;                                 61P     77
128,1,1,1,1,0,0,1,0,0,-2.90139300598138,-2.90139300598138,            63P     78
2.90139300598138,2.90139300598138,-0.792164137047995,                 63P     79
-0.792164137047995,0.792164137047995,0.792164137047995,1.,1.,1.,      63P     80
1.,-35.,-1.5832827409599,-25.0344501856211,-35.,                      63P     81
-1.5832827409599,32.9934099340065,-35.,14.26,-25.0344501856211,       63P     82
-35.,14.26,32.9934099340065,-2.90139300598138,2.90139300598138,       63P     83
-0.792164137047995,0.792164137047995;                                 63P     84
502,8,-35.,-1.5732827409599,32.9834099340065,-35.,                    65P     85
-1.5732827409599,-25.0244501856211,51.,-1.5732827409599,              65P     86
-25.0244501856211,51.,-1.5732827409599,32.9834099340065,-35.,         65P     87
14.25,32.9834099340065,51.,14.25,32.9834099340065,-35.,14.25,         65P     88
-25.0244501856211,51.,14.25,-25.0244501856211;                        65P     89
504,12,29,65,1,65,2,31,65,2,65,3,33,65,4,65,3,35,65,1,65,4,37,        67P     90
65,5,65,1,39,65,6,65,4,41,65,5,65,6,43,65,7,65,5,45,65,8,65,6,        67P     91
47,65,7,65,8,49,65,2,65,7,51,65,3,65,8;                               67P     92
406,1,5HBody1;                                                        69P     93
314,62.7450980392157,62.7450980392157,62.7450980392157,13HSteel       71P     94
- Satin;                                                              71P     95
S      1G      2D     72P     95                                        T      1
