                                                                        S      1
,,11HComponent16,11HComponent16,7Hunknown,7Hunknown,32,38,7,99,15,,1.,2,G      1
2HMM,1,0.08,15H20211012.212100,0.01,10000.,7Hunknown,7Hunknown,11,0,;   G      2
     186       1                                                00000000D      1
     186            -131       1       0                               0D      2
     514       2                                                00010000D      3
     514                       1       1                               0D      4
     510       3                                                00010000D      5
     510            -131       1       1                               0D      6
     510       4                                                00010000D      7
     510            -131       1       1                               0D      8
     510       5                                                00010000D      9
     510            -131       1       1                               0D     10
     510       6                                                00010000D     11
     510            -131       1       1                               0D     12
     510       7                                                00010000D     13
     510            -131       1       1                               0D     14
     510       8                                                00010000D     15
     510            -131       1       1                               0D     16
     510       9                                                00010000D     17
     510            -131       1       1                               0D     18
     510      10                                                00010000D     19
     510            -131       1       1                               0D     20
     510      11                                                00010000D     21
     510            -131       1       1                               0D     22
     510      12                                                00010000D     23
     510            -131       1       1                               0D     24
     510      13                                                00010000D     25
     510            -131       1       1                               0D     26
     508      14                                                00010000D     27
     508                       2       1                               0D     28
     508      16                                                00010000D     29
     508                       2       1                               0D     30
     508      18                                                00010000D     31
     508                       1       1                               0D     32
     508      19                                                00010000D     33
     508                       1       1                               0D     34
     508      20                                                00010000D     35
     508                       1       1                               0D     36
     508      21                                                00010000D     37
     508                       2       1                               0D     38
     508      23                                                00010000D     39
     508                       2       1                               0D     40
     508      25                                                00010000D     41
     508                       2       1                               0D     42
     508      27                                                00010000D     43
     508                       1       1                               0D     44
     508      28                                                00010000D     45
     508                       1       1                               0D     46
     508      29                                                00010000D     47
     508                       1       1                               0D     48
     126      30                                                00010000D     49
     126       0               4       0                               0D     50
     126      34                                                00010000D     51
     126       0               4       0                               0D     52
     126      38                                                00010000D     53
     126       0               3       0                               0D     54
     126      41                                                00010000D     55
     126       0               4       0                               0D     56
     126      45                                                00010000D     57
     126       0               4       0                               0D     58
     126      49                                                00010000D     59
     126       0               5       0                               0D     60
     126      54                                                00010000D     61
     126       0               4       0                               0D     62
     126      58                                                00010000D     63
     126       0               5       0                               0D     64
     126      63                                                00010000D     65
     126       0               4       0                               0D     66
     126      67                                                00010000D     67
     126       0               4       0                               0D     68
     126      71                                                00010000D     69
     126       0               3       0                               0D     70
     126      74                                                00010000D     71
     126       0               4       0                               0D     72
     126      78                                                00010000D     73
     126       0               5       0                               0D     74
     126      83                                                00010000D     75
     126       0               4       0                               0D     76
     126      87                                                00010000D     77
     126       0               6       0                               0D     78
     126      93                                                00010000D     79
     126       0               6       0                               0D     80
     126      99                                                00010000D     81
     126       0               7       0                               0D     82
     126     106                                                00010000D     83
     126       0               6       0                               0D     84
     126     112                                                00010000D     85
     126       0               3       0                               0D     86
     126     115                                                00010000D     87
     126       0               6       0                               0D     88
     126     121                                                00010000D     89
     126       0               6       0                               0D     90
     126     127                                                00010000D     91
     126       0               6       0                               0D     92
     126     133                                                00010000D     93
     126       0               6       0                               0D     94
     126     139                                                00010000D     95
     126       0               6       0                               0D     96
     126     145                                                00010000D     97
     126       0               7       0                               0D     98
     126     152                                                00010000D     99
     126       0               7       0                               0D    100
     126     159                                                00010000D    101
     126       0               4       0                               0D    102
     128     163                                                00010000D    103
     128       0    -131       7       0                               0D    104
     128     170                                                00010000D    105
     128       0    -131       8       0                               0D    106
     128     178                                                00010000D    107
     128       0    -131      10       0                               0D    108
     128     188                                                00010000D    109
     128       0    -131      10       0                               0D    110
     128     198                                                00010000D    111
     128       0    -131      10       0                               0D    112
     128     208                                                00010000D    113
     128       0    -131       8       0                               0D    114
     128     216                                                00010000D    115
     128       0    -131       8       0                               0D    116
     128     224                                                00010000D    117
     128       0    -131       8       0                               0D    118
     128     232                                                00010000D    119
     128       0    -131      11       0                               0D    120
     128     243                                                00010000D    121
     128       0    -131      11       0                               0D    122
     128     254                                                00010000D    123
     128       0    -131      10       0                               0D    124
     502     264                                                00010000D    125
     502                      15       1                               0D    126
     504     279                                                00010001D    127
     504                       8       1                               0D    128
     406     287                                                00000000D    129
     406                       1      15                               0D    130
     314     288                                                00000200D    131
     314                       2       0                               0D    132
186,3,1,0,0,1,129;                                                     1P      1
514,11,5,1,7,1,9,1,11,1,13,1,15,1,17,1,19,1,21,1,23,1,25,1;            3P      2
510,103,1,1,27;                                                        5P      3
510,105,1,1,29;                                                        7P      4
510,107,1,1,31;                                                        9P      5
510,109,1,1,33;                                                       11P      6
510,111,1,1,35;                                                       13P      7
510,113,1,1,37;                                                       15P      8
510,115,1,1,39;                                                       17P      9
510,117,1,1,41;                                                       19P     10
510,119,1,1,43;                                                       21P     11
510,121,1,1,45;                                                       23P     12
510,123,1,1,47;                                                       25P     13
508,6,0,127,1,1,0,0,127,2,1,0,0,127,3,1,0,0,127,4,1,0,0,127,5,0,      27P     14
0,0,127,6,0,0;                                                        27P     15
508,6,0,127,7,1,0,0,127,8,1,0,0,127,9,1,0,0,127,10,1,0,0,127,11,      29P     16
1,0,0,127,12,1,0;                                                     29P     17
508,4,0,127,13,1,0,0,127,14,0,0,0,127,15,1,0,0,127,5,1,0;             31P     18
508,4,0,127,16,1,0,0,127,9,0,0,0,127,17,1,0,0,127,14,1,0;             33P     19
508,4,0,127,11,0,0,0,127,18,0,0,0,127,19,1,0,0,127,20,0,0;            35P     20
508,6,0,127,10,0,0,0,127,16,0,0,0,127,13,0,0,0,127,4,0,0,0,127,       37P     21
21,1,0,0,127,18,1,0;                                                  37P     22
508,6,0,127,12,0,0,0,127,20,1,0,0,127,22,1,0,0,127,2,0,0,0,127,       39P     23
23,1,0,0,127,24,1,0;                                                  39P     24
508,6,0,127,17,0,0,0,127,8,0,0,0,127,25,0,0,0,127,26,0,0,0,127,       41P     25
6,1,0,0,127,15,0,0;                                                   41P     26
508,4,0,127,1,0,0,0,127,26,1,0,0,127,27,1,0,0,127,23,0,0;             43P     27
508,4,0,127,7,0,0,0,127,24,0,0,0,127,27,0,0,0,127,25,1,0;             45P     28
508,4,0,127,3,0,0,0,127,22,0,0,0,127,19,0,0,0,127,21,0,0;             47P     29
126,1,1,0,0,1,0,-0.024999988079071,-0.024999988079071,0.3,0.3,        49P     30
1.,1.,-9.99999940395355,15.0000001192093,-13.4881143564337,           49P     31
-9.99999940395355,18.25,-13.4881143564337,-0.024999988079071,         49P     32
0.3,0.,0.,0.;                                                         49P     33
126,1,1,0,0,1,0,2.55935570447097,2.55935570447097,                    51P     34
2.66833956876133,2.66833956876133,1.,1.,-9.99999940395355,18.25,      51P     35
-13.4881143564337,-9.99999940395355,18.25,-14.5779529993373,          51P     36
2.55935570447097,2.66833956876133,0.,0.,0.;                           51P     37
126,1,1,0,0,1,0,-0.3,-0.3,-0.1,-0.1,1.,1.,-9.99999940395355,          53P     38
18.25,-14.5779529993373,-9.99999940395355,16.25,                      53P     39
-14.5779529993373,-0.3,-0.1,0.,0.,0.;                                 53P     40
126,1,1,0,0,1,0,2.66833956876133,2.66833956876133,                    55P     41
2.77370286308775,2.77370286308775,1.,1.,-9.99999940395355,16.25,      55P     42
-14.5779529993373,-9.99999940395355,16.25,-15.6315859426015,          55P     43
2.66833956876133,2.77370286308775,0.,0.,0.;                           55P     44
126,1,1,0,0,1,0,0.,0.,0.124999988079071,0.124999988079071,1.,1.,      57P     45
-9.99999940395355,15.0000001192093,-15.6315859426015,                 57P     46
-9.99999940395355,16.25,-15.6315859426015,0.,0.124999988079071,       57P     47
0.,0.,0.;                                                             57P     48
126,1,1,0,0,1,0,1.34881143564337,1.34881143564337,                    59P     49
1.56315859426015,1.56315859426015,1.,1.,-9.99999940395355,            59P     50
15.0000001192093,-13.4881143564337,-9.99999940395355,                 59P     51
15.0000001192093,-15.6315859426015,1.34881143564337,                  59P     52
1.56315859426015,0.,0.,0.;                                            59P     53
126,1,1,0,0,1,0,-0.3,-0.3,0.024999988079071,0.024999988079071,        61P     54
1.,1.,40.0000005960464,18.25,-15.4126794884493,40.0000005960464,      61P     55
15.0000001192093,-15.4126794884493,-0.3,0.024999988079071,0.,0.,      61P     56
0.;                                                                   61P     57
126,1,1,0,0,1,0,1.54126794884493,1.54126794884493,                    63P     58
1.81013555646429,1.81013555646429,1.,1.,40.0000005960464,             63P     59
15.0000001192093,-15.4126794884493,40.0000005960464,                  63P     60
15.0000001192093,-18.1013555646429,1.54126794884493,                  63P     61
1.81013555646429,0.,0.,0.;                                            63P     62
126,1,1,0,0,1,0,0.,0.,0.124999988079071,0.124999988079071,1.,1.,      65P     63
40.0000005960464,15.0000001192093,-18.1013555646429,                  65P     64
40.0000005960464,16.25,-18.1013555646429,0.,0.124999988079071,        65P     65
0.,0.,0.;                                                             65P     66
126,1,1,0,0,1,0,-3.21796085104926,-3.21796085104926,                  67P     67
-3.08859274080002,-3.08859274080002,1.,1.,40.0000005960464,           67P     68
16.25,-18.1013555646429,40.0000005960464,16.25,                       67P     69
-16.8076744621504,-3.21796085104926,-3.08859274080002,0.,0.,0.;       67P     70
126,1,1,0,0,1,0,0.1,0.1,0.3,0.3,1.,1.,40.0000005960464,16.25,         69P     71
-16.8076744621504,40.0000005960464,18.25,-16.8076744621504,0.1,       69P     72
0.3,0.,0.,0.;                                                         69P     73
126,1,1,0,0,1,0,-3.08859274080002,-3.08859274080002,                  71P     74
-2.9490932434299,-2.9490932434299,1.,1.,40.0000005960464,18.25,       71P     75
-16.8076744621504,40.0000005960464,18.25,-15.4126794884493,           71P     76
-3.08859274080002,-2.9490932434299,0.,0.,0.;                          71P     77
126,2,2,0,0,0,0,0.,0.,0.,0.412815507117333,0.412815507117333,         73P     78
0.412815507117333,1.,0.978773442083655,1.,-9.99999940395355,          73P     79
16.25,-15.6315859426015,7.7248625488403,16.25,-23.1665851291812,      73P     80
26.9837113406002,16.25,-22.9575702888357,0.,0.412815507117333,        73P     81
0.,0.,0.;                                                             73P     82
126,1,1,0,0,1,0,0.,0.,0.124999988079071,0.124999988079071,1.,1.,      75P     83
26.9837113406002,15.0000001192093,-22.9575702888357,                  75P     84
26.9837113406002,16.25,-22.9575702888357,0.,0.124999988079071,        75P     85
0.,0.,0.;                                                             75P     86
126,2,2,0,0,0,0,3.1307401547283,3.1307401547283,3.1307401547283,      77P     87
3.54355566184564,3.54355566184564,3.54355566184564,1.,                77P     88
0.978773442083643,1.,26.9837113406002,15.0000001192093,               77P     89
-22.9575702888357,7.7248625488403,15.0000001192093,                   77P     90
-23.1665851291812,-9.99999940395354,15.0000001192093,                 77P     91
-15.6315859426015,3.1307401547283,3.54355566184564,0.,0.,0.;          77P     92
126,2,2,0,0,0,0,1.291824460929D-15,1.291824460929D-15,                79P     93
1.291824460929D-15,0.692480798861835,0.692480798861835,               79P     94
0.692480798861835,1.,0.940655229783195,1.,26.9837113406002,           79P     95
16.25,-22.9575702888357,34.3678533964994,16.25,                       79P     96
-22.8774307493652,40.0000005960464,16.25,-18.1013555646429,           79P     97
1.291824460929D-15,0.692480798861835,0.,0.,0.;                        79P     98
126,2,2,0,0,0,0,2.43825935586647,2.43825935586647,                    81P     99
2.43825935586647,3.1307401547283,3.1307401547283,                     81P    100
3.1307401547283,1.,0.940655229783186,1.,40.0000005960464,             81P    101
15.0000001192093,-18.1013555646429,34.3678533964994,                  81P    102
15.0000001192093,-22.8774307493652,26.9837113406002,                  81P    103
15.0000001192093,-22.9575702888357,2.43825935586647,                  81P    104
3.1307401547283,0.,0.,0.;                                             81P    105
126,2,2,0,0,0,0,-0.654409183367997,-0.654409183367997,                83P    106
-0.654409183367997,0.0809927815620295,0.0809927815620295,             83P    107
0.0809927815620295,1.,0.933156241194239,1.,26.9731985204513,          83P    108
16.25,-21.9889079044434,34.4845585807602,16.25,                       83P    109
-21.9073876775203,40.0000005960464,16.25,-16.8076744621504,           83P    110
-0.654409183367997,0.0809927815620295,0.,0.,0.;                       83P    111
126,1,1,0,0,1,0,-0.0999999999999999,-0.0999999999999999,0.1,0.1,      85P    112
1.,1.,26.9731985204513,16.25,-21.9889079044434,26.9731985204513,      85P    113
18.25,-21.9889079044434,-0.0999999999999999,0.1,0.,0.,0.;             85P    114
126,2,2,0,0,0,0,-0.0809927815620295,-0.0809927815620295,              87P    115
-0.0809927815620295,0.654409183367997,0.654409183367997,              87P    116
0.654409183367997,1.,0.933156241194239,1.,40.0000005960464,           87P    117
18.25,-16.8076744621504,34.4845585807602,18.25,                       87P    118
-21.9073876775203,26.9731985204513,18.25,-21.9889079044434,           87P    119
-0.0809927815620295,0.654409183367997,0.,0.,0.;                       87P    120
126,2,2,0,0,0,0,-0.561289108192464,-0.561289108192464,                89P    121
-0.561289108192464,-0.143944458498402,-0.143944458498402,             89P    122
-0.143944458498402,1.,0.978306819674407,1.,-9.99999940395354,         89P    123
16.25,-14.5779529993373,7.70194675390395,16.25,                       89P    124
-22.1980573533433,26.9731985204513,16.25,-21.9889079044435,           89P    125
-0.561289108192464,-0.143944458498402,0.,0.,0.;                       89P    126
126,2,2,0,0,0,0,0.143944458498402,0.143944458498402,                  91P    127
0.143944458498402,0.561289108192464,0.561289108192464,                91P    128
0.561289108192464,1.,0.978306819674407,1.,26.9731985204513,           91P    129
18.25,-21.9889079044435,7.70194675390395,18.25,                       91P    130
-22.1980573533433,-9.99999940395354,18.25,-14.5779529993373,          91P    131
0.143944458498402,0.561289108192464,0.,0.,0.;                         91P    132
126,2,2,0,0,0,0,-0.56607634976687,-0.56607634976687,                  93P    133
-0.56607634976687,-0.143944458498403,-0.143944458498403,              93P    134
-0.143944458498403,1.,0.977808152207169,1.,-9.99999940395357,         93P    135
18.25,-13.4881143564337,7.67761808536406,18.25,                       93P    136
-21.1982624993011,26.9623462346172,18.25,-20.9889667922312,           93P    137
-0.56607634976687,-0.143944458498403,0.,0.,0.;                        93P    138
126,2,2,0,0,0,0,-0.654409183367997,-0.654409183367997,                95P    139
-0.654409183367997,0.132207216127604,0.132207216127604,               95P    140
0.132207216127604,1.,0.923646261748859,1.,26.9623462346172,           95P    141
18.25,-20.9889667922312,34.6380505244867,18.25,                       95P    142
-20.9056629497205,40.0000005960464,18.25,-15.4126794884493,           95P    143
-0.654409183367997,0.132207216127604,0.,0.,0.;                        95P    144
126,2,2,0,0,0,0,-0.654409183367997,-0.654409183367997,                97P    145
-0.654409183367997,0.132207216127604,0.132207216127604,               97P    146
0.132207216127604,1.,0.923646261748862,1.,26.9623462346172,           97P    147
15.0000001192093,-20.9889667922312,34.6380505244867,                  97P    148
15.0000001192093,-20.9056629497205,40.0000005960464,                  97P    149
15.0000001192093,-15.4126794884493,-0.654409183367997,                97P    150
0.132207216127604,0.,0.,0.;                                           97P    151
126,2,2,0,0,0,0,-0.56607634976687,-0.56607634976687,                  99P    152
-0.56607634976687,-0.143944458498402,-0.143944458498402,              99P    153
-0.143944458498402,1.,0.977808152207166,1.,-9.99999940395357,         99P    154
15.0000001192093,-13.4881143564337,7.67761808536406,                  99P    155
15.0000001192093,-21.1982624993011,26.9623462346172,                  99P    156
15.0000001192093,-20.9889667922312,-0.56607634976687,                 99P    157
-0.143944458498402,0.,0.,0.;                                          99P    158
126,1,1,0,0,1,0,-0.024999988079071,-0.024999988079071,0.3,0.3,       101P    159
1.,1.,26.9623462346172,15.0000001192093,-20.9889667922312,           101P    160
26.9623462346172,18.25,-20.9889667922312,-0.024999988079071,0.3,     101P    161
0.,0.,0.;                                                            101P    162
128,1,1,1,1,0,0,1,0,0,-0.001,-0.001,0.215347158616777,               103P    163
0.215347158616777,-0.001,-0.001,0.325999988079071,                   103P    164
0.325999988079071,1.,1.,1.,1.,-9.99999940395355,                     103P    165
14.9900001192093,-15.6415859426015,-9.99999940395355,                103P    166
14.9900001192093,-13.4781143564337,-9.99999940395355,18.26,          103P    167
-15.6415859426015,-9.99999940395355,18.26,-13.4781143564337,         103P    168
-0.001,0.215347158616777,-0.001,0.325999988079071;                   103P    169
128,1,1,1,1,0,0,1,0,0,0.371671406099523,0.371671406099523,           105P    170
0.642539013718882,0.642539013718882,-0.001,-0.001,                   105P    171
0.325999988079071,0.325999988079071,1.,1.,1.,1.,                     105P    172
40.0000005960464,14.9900001192093,-15.4026794884493,                 105P    173
40.0000005960464,14.9900001192093,-18.1113555646429,                 105P    174
40.0000005960464,18.26,-15.4026794884493,40.0000005960464,18.26,     105P    175
-18.1113555646429,0.371671406099523,0.642539013718882,-0.001,        105P    176
0.325999988079071;                                                   105P    177
128,1,2,1,2,0,0,0,0,0,0.,0.,0.0135896953207516,                      107P    178
0.0135896953207516,-0.412815507117333,-0.412815507117333,            107P    179
-0.412815507117333,0.,0.,0.,1.,1.,0.978773442083651,                 107P    180
0.978773442083651,1.,1.,26.9837113406002,16.25,                      107P    181
-22.9575702888357,26.9837113406002,15.0000001192093,                 107P    182
-22.9575702888357,7.7248625488403,16.25,-23.1665851291812,           107P    183
7.7248625488403,15.0000001192093,-23.1665851291812,                  107P    184
-9.99999940395355,16.25,-15.6315859426015,-9.99999940395355,         107P    185
15.0000001192093,-15.6315859426015,0.,0.0135896953207516,            107P    186
-0.412815507117333,0.;                                               107P    187
128,1,2,1,2,0,0,0,0,0,0.,0.,0.0610687876717053,                      109P    188
0.0610687876717053,-0.692480798861835,-0.692480798861835,            109P    189
-0.692480798861835,-4.32224876484261D-16,-4.32224876484261D-16,      109P    190
-4.32224876484261D-16,1.,1.,0.94065522978319,0.94065522978319,       109P    191
1.,1.,40.0000005960464,16.25,-18.1013555646429,40.0000005960464,     109P    192
15.0000001192093,-18.1013555646429,34.3678533964994,16.25,           109P    193
-22.8774307493652,34.3678533964994,15.0000001192093,                 109P    194
-22.8774307493652,26.9837113406002,16.25,-22.9575702888357,          109P    195
26.9837113406002,15.0000001192093,-22.9575702888357,0.,              109P    196
0.0610687876717053,-0.692480798861835,-4.32224876484261D-16;         109P    197
128,1,2,1,2,0,0,0,0,0,0.0512820512820513,0.0512820512820513,         111P    198
0.153846153846154,0.153846153846154,-0.0809927815620296,             111P    199
-0.0809927815620296,-0.0809927815620296,0.654409183367997,           111P    200
0.654409183367997,0.654409183367997,1.,1.,0.933156241194245,         111P    201
0.933156241194245,1.,1.,40.0000005960464,18.25,                      111P    202
-16.8076744621504,40.0000005960464,16.25,-16.8076744621504,          111P    203
34.4845585807602,18.25,-21.9073876775203,34.4845585807602,16.25,     111P    204
-21.9073876775203,26.9731985204513,18.25,-21.9889079044434,          111P    205
26.9731985204513,16.25,-21.9889079044434,0.0512820512820513,         111P    206
0.153846153846154,-0.0809927815620296,0.654409183367997;             111P    207
128,1,1,1,1,0,0,1,0,0,5.44104243184908,5.44104243184908,             113P    208
6.30190564483347,6.30190564483347,2.51178533086724,                  113P    209
2.51178533086724,7.51378533086725,7.51378533086725,1.,1.,1.,1.,      113P    210
-10.0099994039536,16.25,-23.1765851291812,-10.0099994039536,         113P    211
16.25,-14.5679529993373,40.0100005960465,16.25,                      113P    212
-23.1765851291812,40.0100005960465,16.25,-14.5679529993373,          113P    213
5.44104243184908,6.30190564483347,2.51178533086724,                  113P    214
7.51378533086725;                                                    113P    215
128,1,1,1,1,0,0,1,0,0,5.33205856755872,5.33205856755872,             115P    216
6.20505286724968,6.20505286724968,2.51178533086724,                  115P    217
2.51178533086724,7.51378533086725,7.51378533086725,1.,1.,1.,1.,      115P    218
-10.0099994039536,18.25,-22.2080573533433,-10.0099994039536,         115P    219
18.25,-13.4781143564337,40.0100005960465,18.25,                      115P    220
-22.2080573533433,40.0100005960465,18.25,-13.4781143564337,          115P    221
5.33205856755872,6.20505286724968,2.51178533086724,                  115P    222
7.51378533086725;                                                    115P    223
128,1,1,1,1,0,0,1,0,0,-0.00100000000000178,-0.00100000000000178,     117P    224
5.001,5.001,1.34781143564337,1.34781143564337,2.31765851291812,      117P    225
2.31765851291812,1.,1.,1.,1.,40.0100005960465,15.0000001192093,      117P    226
-13.4781143564337,-10.0099994039536,15.0000001192093,                117P    227
-13.4781143564337,40.0100005960465,15.0000001192093,                 117P    228
-23.1765851291812,-10.0099994039536,15.0000001192093,                117P    229
-23.1765851291812,-0.00100000000000178,5.001,1.34781143564337,       117P    230
2.31765851291812;                                                    117P    231
128,1,2,1,2,0,0,0,0,0,-0.00274686716022188,-0.00274686716022188,     119P    232
0.0329624216403701,0.0329624216403701,0.143944458498402,             119P    233
0.143944458498402,0.143944458498402,0.56607634976687,                119P    234
0.56607634976687,0.56607634976687,1.,1.,0.977808152207157,           119P    235
0.977808152207157,1.,1.,26.9623462346172,15.0000001192093,           119P    236
-20.9889667922312,26.9623462346172,18.25,-20.9889667922312,          119P    237
7.6776180853641,15.0000001192093,-21.1982624993011,                  119P    238
7.6776180853641,18.25,-21.1982624993011,-9.99999940395357,           119P    239
15.0000001192093,-13.4881143564337,-9.99999940395357,18.25,          119P    240
-13.4881143564337,-0.00274686716022188,0.0329624216403701,           119P    241
0.143944458498402,0.56607634976687;                                  119P    242
128,1,2,1,2,0,0,0,0,0,-0.0128205067072159,-0.0128205067072159,       121P    243
0.153846153846154,0.153846153846154,-0.132207216127604,              121P    244
-0.132207216127604,-0.132207216127604,0.654409183367997,             121P    245
0.654409183367997,0.654409183367997,1.,1.,0.923646261748862,         121P    246
0.923646261748862,1.,1.,40.0000005960464,15.0000001192093,           121P    247
-15.4126794884493,40.0000005960464,18.25,-15.4126794884493,          121P    248
34.6380505244867,15.0000001192093,-20.9056629497205,                 121P    249
34.6380505244867,18.25,-20.9056629497205,26.9623462346172,           121P    250
15.0000001192093,-20.9889667922312,26.9623462346172,18.25,           121P    251
-20.9889667922312,-0.0128205067072159,0.153846153846154,             121P    252
-0.132207216127604,0.654409183367997;                                121P    253
128,1,2,1,2,0,0,0,0,0,0.0109874738801234,0.0109874738801234,         123P    254
0.0329624216403701,0.0329624216403701,0.143944458498402,             123P    255
0.143944458498402,0.143944458498402,0.561289108192464,               123P    256
0.561289108192464,0.561289108192464,1.,1.,0.978306819674412,         123P    257
0.978306819674412,1.,1.,26.9731985204513,18.25,                      123P    258
-21.9889079044435,26.9731985204513,16.25,-21.9889079044435,          123P    259
7.70194675390395,18.25,-22.1980573533433,7.70194675390395,16.25,     123P    260
-22.1980573533433,-9.99999940395355,18.25,-14.5779529993373,         123P    261
-9.99999940395355,16.25,-14.5779529993373,0.0109874738801234,        123P    262
0.0329624216403701,0.143944458498402,0.561289108192464;              123P    263
502,18,-9.99999940395355,15.0000001192093,-13.4881143564337,         125P    264
-9.99999940395355,18.25,-13.4881143564337,-9.99999940395355,         125P    265
18.25,-14.5779529993373,-9.99999940395355,16.25,                     125P    266
-14.5779529993373,-9.99999940395355,16.25,-15.6315859426015,         125P    267
-9.99999940395355,15.0000001192093,-15.6315859426015,                125P    268
40.0000005960464,18.25,-15.4126794884493,40.0000005960464,           125P    269
15.0000001192093,-15.4126794884493,40.0000005960464,                 125P    270
15.0000001192093,-18.1013555646429,40.0000005960464,16.25,           125P    271
-18.1013555646429,40.0000005960464,16.25,-16.8076744621504,          125P    272
40.0000005960464,18.25,-16.8076744621504,26.9837113406002,16.25,     125P    273
-22.9575702888357,26.9837113406002,15.0000001192093,                 125P    274
-22.9575702888357,26.9731985204513,16.25,-21.9889079044434,          125P    275
26.9731985204513,18.25,-21.9889079044434,26.9623462346172,18.25,     125P    276
-20.9889667922312,26.9623462346172,15.0000001192093,                 125P    277
-20.9889667922312;                                                   125P    278
504,27,49,125,1,125,2,51,125,2,125,3,53,125,3,125,4,55,125,4,        127P    279
125,5,57,125,6,125,5,59,125,1,125,6,61,125,7,125,8,63,125,8,125,     127P    280
9,65,125,9,125,10,67,125,10,125,11,69,125,11,125,12,71,125,12,       127P    281
125,7,73,125,5,125,13,75,125,14,125,13,77,125,14,125,6,79,125,       127P    282
13,125,10,81,125,9,125,14,83,125,15,125,11,85,125,15,125,16,87,      127P    283
125,12,125,16,89,125,4,125,15,91,125,16,125,3,93,125,2,125,17,       127P    284
95,125,17,125,7,97,125,18,125,8,99,125,1,125,18,101,125,18,125,      127P    285
17;                                                                  127P    286
406,1,5HBody1;                                                       129P    287
314,62.7450980392157,62.7450980392157,62.7450980392157,13HSteel      131P    288
- Satin;                                                             131P    289
S      1G      2D    132P    289                                        T      1
