                                                                        S      1
,,10Hold middle,10Hold middle,7Hunknown,7Hunknown,32,38,7,99,15,,1.,2,2HG      1
MM,1,0.08,15H20211012.212055,0.01,10000.,7Hunknown,7Hunknown,11,0,;     G      2
     186       1                                                00000000D      1
     186            -117       1       0                               0D      2
     514       2                                                00010000D      3
     514                       1       1                               0D      4
     510       3                                                00010000D      5
     510            -117       1       1                               0D      6
     510       4                                                00010000D      7
     510            -117       1       1                               0D      8
     510       5                                                00010000D      9
     510            -117       1       1                               0D     10
     510       6                                                00010000D     11
     510            -117       1       1                               0D     12
     510       7                                                00010000D     13
     510            -117       1       1                               0D     14
     510       8                                                00010000D     15
     510            -117       1       1                               0D     16
     510       9                                                00010000D     17
     510            -117       1       1                               0D     18
     510      10                                                00010000D     19
     510            -117       1       1                               0D     20
     510      11                                                00010000D     21
     510            -117       1       1                               0D     22
     510      12                                                00010000D     23
     510            -117       1       1                               0D     24
     508      13                                                00010000D     25
     508                       2       1                               0D     26
     508      15                                                00010000D     27
     508                       2       1                               0D     28
     508      17                                                00010000D     29
     508                       2       1                               0D     30
     508      19                                                00010000D     31
     508                       1       1                               0D     32
     508      20                                                00010000D     33
     508                       1       1                               0D     34
     508      21                                                00010000D     35
     508                       2       1                               0D     36
     508      23                                                00010000D     37
     508                       1       1                               0D     38
     508      24                                                00010000D     39
     508                       1       1                               0D     40
     508      25                                                00010000D     41
     508                       2       1                               0D     42
     508      27                                                00010000D     43
     508                       1       1                               0D     44
     126      28                                                00010000D     45
     126       0              17       0                               0D     46
     126      45                                                00010000D     47
     126       0               8       0                               0D     48
     126      53                                                00010000D     49
     126       0               9       0                               0D     50
     126      62                                                00010000D     51
     126       0              17       0                               0D     52
     126      79                                                00010000D     53
     126       0               4       0                               0D     54
     126      83                                                00010000D     55
     126       0               6       0                               0D     56
     126      89                                                00010000D     57
     126       0               6       0                               0D     58
     126      95                                                00010000D     59
     126       0               6       0                               0D     60
     126     101                                                00010000D     61
     126       0               6       0                               0D     62
     126     107                                                00010000D     63
     126       0               5       0                               0D     64
     126     112                                                00010000D     65
     126       0               8       0                               0D     66
     126     120                                                00010000D     67
     126       0              10       0                               0D     68
     126     130                                                00010000D     69
     126       0               6       0                               0D     70
     126     136                                                00010000D     71
     126       0               6       0                               0D     72
     126     142                                                00010000D     73
     126       0              11       0                               0D     74
     126     153                                                00010000D     75
     126       0               8       0                               0D     76
     126     161                                                00010000D     77
     126       0               6       0                               0D     78
     126     167                                                00010000D     79
     126       0               6       0                               0D     80
     126     173                                                00010000D     81
     126       0               6       0                               0D     82
     126     179                                                00010000D     83
     126       0               6       0                               0D     84
     126     185                                                00010000D     85
     126       0               6       0                               0D     86
     126     191                                                00010000D     87
     126       0               6       0                               0D     88
     126     197                                                00010000D     89
     126       0               5       0                               0D     90
     128     202                                                00010000D     91
     128       0    -117       7       0                               0D     92
     128     209                                                00010000D     93
     128       0    -117       6       0                               0D     94
     128     215                                                00010000D     95
     128       0    -117      15       0                               0D     96
     128     230                                                00010000D     97
     128       0    -117      22       0                               0D     98
     128     252                                                00010000D     99
     128       0    -117      22       0                               0D    100
     128     274                                                00010000D    101
     128       0    -117      15       0                               0D    102
     128     289                                                00010000D    103
     128       0    -117      15       0                               0D    104
     128     304                                                00010000D    105
     128       0    -117      15       0                               0D    106
     128     319                                                00010000D    107
     128       0    -117       7       0                               0D    108
     128     326                                                00010000D    109
     128       0    -117      15       0                               0D    110
     502     341                                                00010000D    111
     502                      11       1                               0D    112
     504     352                                                00010001D    113
     504                       6       1                               0D    114
     406     358                                                00000000D    115
     406                       1      15                               0D    116
     314     359                                                00000200D    117
     314                       2       0                               0D    118
186,3,1,0,0,1,115;                                                     1P      1
514,10,5,1,7,1,9,1,11,1,13,1,15,1,17,1,19,1,21,1,23,1;                 3P      2
510,91,1,1,25;                                                         5P      3
510,93,1,1,27;                                                         7P      4
510,95,1,1,29;                                                         9P      5
510,97,1,1,31;                                                        11P      6
510,99,1,1,33;                                                        13P      7
510,101,1,1,35;                                                       15P      8
510,103,1,1,37;                                                       17P      9
510,105,1,1,39;                                                       19P     10
510,107,1,1,41;                                                       21P     11
510,109,1,1,43;                                                       23P     12
508,5,0,113,1,0,0,0,113,2,0,0,0,113,3,0,0,0,113,4,0,0,0,113,5,0,      25P     13
0;                                                                    25P     14
508,6,0,113,5,1,0,0,113,6,1,0,0,113,7,1,0,0,113,8,1,0,0,113,9,1,      27P     15
0,0,113,10,1,0;                                                       27P     16
508,6,0,113,4,1,0,0,113,11,0,0,0,113,12,1,0,0,113,13,1,0,0,113,       29P     17
14,0,0,0,113,6,0,0;                                                   29P     18
508,3,0,113,3,1,0,0,113,15,0,0,0,113,11,1,0;                          31P     19
508,3,0,113,2,1,0,0,113,16,1,0,0,113,15,1,0;                          33P     20
508,6,0,113,1,1,0,0,113,10,0,0,0,113,17,0,0,0,113,18,1,0,0,113,       35P     21
12,0,0,0,113,16,0,0;                                                  35P     22
508,4,0,113,7,0,0,0,113,14,1,0,0,113,19,1,0,0,113,20,1,0;             37P     23
508,4,0,113,8,0,0,0,113,20,0,0,0,113,21,1,0,0,113,22,0,0;             39P     24
508,5,0,113,19,0,0,0,113,13,0,0,0,113,18,0,0,0,113,23,0,0,0,113,      41P     25
21,0,0;                                                               41P     26
508,4,0,113,9,0,0,0,113,22,1,0,0,113,23,1,0,0,113,17,1,0;             43P     27
126,13,3,0,0,1,0,8.93860967249359,8.93860967249359,                   45P     28
8.93860967249359,8.93860967249359,9.03015990372289,                   45P     29
9.03015990372289,9.35429962884204,9.35429962884204,                   45P     30
9.63874221173208,9.63874221173208,9.92318479462211,                   45P     31
9.92318479462211,10.183410930281,10.183410930281,                     45P     32
10.2756907094616,10.2756907094616,10.2756907094616,                   45P     33
10.2756907094616,1.,1.,1.,1.,1.,1.,1.,1.,1.,1.,1.,1.,1.,1.,-23.,      45P     34
3.34448213064287,0.700584704842271,-23.,3.49649062964777,             45P     35
0.406607335045627,-23.,3.65726047797039,0.114796431320948,-23.,       45P     36
4.42297986719496,-1.18859402740465,-23.,5.12449694509763,             45P     37
-2.14224367950756,-23.,6.48071580942917,-3.65085879464023,-23.,       45P     38
7.23983461293853,-4.36202572181199,-23.,8.89464470725453,             45P     39
-5.59863108274478,-23.,9.79089488589251,-6.12332144339664,-23.,       45P     40
11.4436638610699,-6.87473446259565,-23.,12.3425375147,                45P     41
-7.18532552426832,-23.,13.5917770492525,-7.46053446188567,-23.,       45P     42
13.9216552605459,-7.51971018378168,-23.,14.25,-7.56549569135151,      45P     43
8.93860967249359,10.2756907094616,0.,0.,0.;                           45P     44
126,5,3,0,0,1,0,-0.325512371491346,-0.325512371491346,                47P     45
-0.325512371491346,-0.325512371491346,-0.216212489438128,             47P     46
-0.216212489438128,0.,0.,0.,0.,1.,1.,1.,1.,1.,1.,-23.,                47P     47
2.44494389548489,3.79999991506337,-23.,2.47383211977368,              47P     48
3.43775140432646,-23.,2.52836469208696,3.07767790445471,-23.,         47P     49
2.76339628254698,2.01929844324376,-23.,3.01345599723447,              47P     50
1.34077385657004,-23.,3.34448213064287,0.700584704842267,             47P     51
-0.325512371491346,0.,0.,0.,0.;                                       47P     52
126,5,3,0,0,1,0,-0.385770130473,-0.385770130473,-0.385770130473,      49P     53
-0.385770130473,-0.164536950930454,-0.164536950930454,                49P     54
-0.0606413517205971,-0.0606413517205971,-0.0606413517205971,          49P     55
-0.0606413517205971,1.,1.,1.,1.,1.,1.,-23.,3.34448213064286,          49P     56
6.89941512528443,-23.,3.00534749929391,6.24354451552523,-23.,         49P     57
2.75123538671681,5.5475166445901,-23.,2.52316681446113,               49P     58
4.48760980873717,-23.,2.47243916479524,4.14478124396792,-23.,         49P     59
2.44494389548489,3.79999991506335,-0.385770130473,                    49P     60
-0.0606413517205971,0.,0.,0.;                                         49P     61
126,13,3,0,0,1,0,0.167946356478334,0.167946356478334,                 51P     62
0.167946356478334,0.167946356478334,0.26022613565891,                 51P     63
0.26022613565891,0.520452271317819,0.520452271317819,                 51P     64
0.804894854207856,0.804894854207856,1.08933743709789,                 51P     65
1.08933743709789,1.41347716221705,1.41347716221705,                   51P     66
1.50502739344634,1.50502739344634,1.50502739344634,                   51P     67
1.50502739344634,1.,1.,1.,1.,1.,1.,1.,1.,1.,1.,1.,1.,1.,1.,-23.,      51P     68
14.25,15.1654955214782,-23.,13.9216552605459,15.1197100139084,        51P     69
-23.,13.5917770492525,15.0605342920124,-23.,12.3425375147,            51P     70
14.785325354395,-23.,11.4436638610699,14.4747342927224,-23.,          51P     71
9.79089488589251,13.7233212735234,-23.,8.89464470725452,              51P     72
13.1986309128715,-23.,7.23983461293853,11.9620255519387,-23.,         51P     73
6.48071580942916,11.2508586247669,-23.,5.12449694509762,              51P     74
9.74224350963429,-23.,4.42297986719497,8.78859385753137,-23.,         51P     75
3.6572604779704,7.48520339880577,-23.,3.49649062964777,               51P     76
7.19339249508109,-23.,3.34448213064287,6.89941512528444,              51P     77
0.167946356478334,1.50502739344634,0.,0.,0.;                          51P     78
126,1,1,0,0,1,0,0.29569894643627,0.29569894643627,                    53P     79
2.56879806771924,2.56879806771924,1.,1.,-23.,14.25,                   53P     80
-7.56549569135152,-23.,14.25,15.1654955214782,0.29569894643627,       53P     81
2.56879806771924,0.,0.,0.;                                            53P     82
126,2,2,0,0,0,0,-0.569051632021608,-0.569051632021608,                55P     83
-0.569051632021608,0.0108524988614883,0.0108524988614883,             55P     84
0.0108524988614883,1.,0.958257581405457,1.,-23.,14.25,                55P     85
15.1654955214782,-0.150365305575701,14.25,29.7808386198745,           55P     86
26.9720868873387,14.25,29.4864806820675,-0.569051632021608,           55P     87
0.0108524988614883,0.,0.,0.;                                          55P     88
126,2,2,0,0,0,0,0.0108524988614877,0.0108524988614877,                57P     89
0.0108524988614877,1.31967086559748,1.31967086559748,                 57P     90
1.31967086559748,1.,0.793407691080864,1.,26.9720868873387,14.25,      57P     91
29.4864806820675,41.8527356509596,14.25,29.3249821179946,             57P     92
45.5507094524709,14.25,14.9102403868437,0.0108524988614877,           57P     93
1.31967086559748,0.,0.,0.;                                            57P     94
126,2,2,0,0,0,0,1.31967086559748,1.31967086559748,                    59P     95
1.31967086559748,1.82192178799231,1.82192178799231,                   59P     96
1.82192178799231,1.,0.968633364570559,1.,45.5507094524709,14.25,      59P     97
14.9102403868437,48.4009428426639,14.25,3.79999991506338,             59P     98
45.5507094524709,14.25,-7.31024055671697,1.31967086559748,            59P     99
1.82192178799231,0.,0.,0.;                                            59P    100
126,2,2,0,0,0,0,1.82192178799231,1.82192178799231,                    61P    101
1.82192178799231,3.1307401547283,3.1307401547283,                     61P    102
3.1307401547283,1.,0.793407691080864,1.,45.5507094524709,14.25,       61P    103
-7.31024055671698,41.8527356509596,14.25,-21.7249822878679,           61P    104
26.9720868873388,14.25,-21.8864808519408,1.82192178799231,            61P    105
3.1307401547283,0.,0.,0.;                                             61P    106
126,2,2,0,0,0,0,3.1307401547283,3.1307401547283,3.1307401547283,      63P    107
3.7106442856114,3.7106442856114,3.7106442856114,1.,                   63P    108
0.958257581405454,1.,26.9720868873388,14.25,-21.8864808519408,        63P    109
-0.150365305575693,14.25,-22.1808387897478,-23.,14.25,                63P    110
-7.56549569135153,3.1307401547283,3.7106442856114,0.,0.,0.;           63P    111
126,3,3,0,0,1,0,-1.05591364321309,-1.05591364321309,                  65P    112
-1.05591364321309,-1.05591364321309,-0.774224397196874,               65P    113
-0.774224397196874,-0.774224397196874,-0.774224397196874,1.,1.,       65P    114
1.,1.,-19.2754371048288,1.38402076296926,3.79999991506335,            65P    115
-20.5637210303351,1.76041419448877,4.89157365692608,                  65P    116
-21.8267931632186,2.41355500879496,5.94026184826029,-23.,             65P    117
3.34448213064287,6.89941512528445,-1.05591364321309,                  65P    118
-0.774224397196874,0.,0.,0.;                                          65P    119
126,5,3,0,0,1,0,-0.618059486390825,-0.618059486390825,                67P    120
-0.618059486390825,-0.618059486390825,0.,0.,0.00321869071697851,      67P    121
0.00321869071697851,0.00321869071697851,0.00321869071697851,1.,       67P    122
1.,1.,1.,1.,1.,-19.2754371048281,1.38402076296917,                    67P    123
3.79999991506337,-17.2279040333639,1.11466408086788,                  67P    124
3.79999991506338,-15.1515654409336,1.0011765808682,                   67P    125
3.79999991510821,-13.0806385164169,1.00000303715613,                  67P    126
3.79999991506241,-13.0699095460957,1.,3.79999991506335,               67P    127
-13.0591805770391,1.,3.79999991506335,-0.618059486390825,             67P    128
0.00321869071697851,0.,0.,0.;                                         67P    129
126,2,2,0,0,0,0,-0.246020848049072,-0.246020848049072,                69P    130
-0.246020848049072,0.304276536510056,0.304276536510056,               69P    131
0.304276536510056,1.,0.962384810056005,1.,-13.0591805770392,1.,       69P    132
3.79999991506335,5.35258843763293,1.,14.8226712240944,                69P    133
26.8104142329397,1.,14.5897910513871,-0.246020848049072,              69P    134
0.304276536510056,0.,0.,0.;                                           69P    135
126,2,2,0,0,0,0,0.116932961462379,0.116932961462379,                  71P    136
0.116932961462379,1.5707963267949,1.5707963267949,                    71P    137
1.5707963267949,1.,0.747217059048664,1.,26.9720868873387,14.25,       71P    138
29.4864806820675,26.9551957144911,1.00000000000001,                   71P    139
27.9301101236382,26.8104142329397,0.999999999999999,                  71P    140
14.5897910513871,0.116932961462379,1.5707963267949,0.,0.,0.;          71P    141
126,5,3,0,0,1,0,-0.656643800498392,-0.656643800498392,                73P    142
-0.656643800498392,-0.656643800498392,-0.487823683318192,             73P    143
-0.487823683318192,-0.267348486370221,-0.267348486370221,             73P    144
-0.267348486370221,-0.267348486370221,1.,1.,1.,1.,1.,1.,              73P    145
-19.2754371048288,1.38402076296926,3.79999991506336,                  73P    146
-19.8330866468554,1.45738056970888,3.79999991506336,                  73P    147
-20.3854336713692,1.56657657415035,3.79999991506336,                  73P    148
-21.6393489858524,1.89830969959685,3.79999991506336,                  73P    149
-22.3316575241299,2.14443156683259,3.79999991506336,                  73P    150
-22.9999999999998,2.4449438954848,3.79999991506336,                   73P    151
-0.656643800498392,-0.267348486370221,0.,0.,0.;                       73P    152
126,3,3,0,0,1,0,-0.471793995625588,-0.471793995625588,                75P    153
-0.471793995625588,-0.471793995625588,-0.19010474960706,              75P    154
-0.19010474960706,-0.19010474960706,-0.19010474960706,1.,1.,1.,       75P    155
1.,-23.,3.34448213064288,0.700584704842269,-21.8267931632978,         75P    156
2.41355500885783,1.65973798180164,-20.5637210303674,                  75P    157
1.76041419449821,2.70842617317325,-19.2754371048288,                  75P    158
1.38402076296925,3.79999991506337,-0.471793995625588,                 75P    159
-0.19010474960706,0.,0.,0.;                                           75P    160
126,2,2,0,0,0,0,7.86361665950152D-17,7.86361665950152D-17,            77P    161
7.86361665950152D-17,1.45386336533252,1.45386336533252,               77P    162
1.45386336533252,1.,0.747217059048663,1.,26.8104142329397,1.,         77P    163
-6.98979122126042,26.9551957144911,1.00000000000002,                  77P    164
-20.3301102935115,26.9720868873388,14.25,-21.8864808519408,           77P    165
7.86361665950152D-17,1.45386336533252,0.,0.,0.;                       77P    166
126,2,2,0,0,0,0,-0.278762921284828,-0.278762921284828,                79P    167
-0.278762921284828,0.2715344632743,0.2715344632743,                   79P    168
0.2715344632743,1.,0.962384810056006,1.,26.8104142329397,1.,          79P    169
-6.98979122126041,5.35258843763291,1.,-7.22267139396764,              79P    170
-13.0591805770391,1.,3.79999991506335,-0.278762921284828,             79P    171
0.2715344632743,0.,0.,0.;                                             79P    172
126,2,2,0,0,0,0,-0.654409183367997,-0.654409183367997,                81P    173
-0.654409183367997,0.654409183367999,0.654409183367999,               81P    174
0.654409183367999,1.,0.793407691080868,1.,26.8104142329397,1.,        81P    175
14.5897910513871,30.2625440659341,1.,14.5523253454305,                81P    176
31.1204290872538,1.,11.208280286947,-0.654409183367997,               81P    177
0.654409183367999,0.,0.,0.;                                           81P    178
126,2,2,0,0,0,0,-4.81482486096809D-33,-4.81482486096809D-33,          83P    179
-4.81482486096809D-33,1.45386336533252,1.45386336533252,              83P    180
1.45386336533252,1.,0.747217059048664,1.,31.1204290872537,1.,         83P    181
11.208280286947,44.0430682202841,0.999999999999998,                   83P    182
14.5234684361082,45.5507094524709,14.25,14.9102403868437,             83P    183
-4.81482486096809D-33,1.45386336533252,0.,0.,0.;                      83P    184
126,2,2,0,0,0,0,-0.251125461197413,-0.251125461197413,                85P    185
-0.251125461197413,0.251125461197413,0.251125461197413,               85P    186
0.251125461197413,1.,0.968633364570555,1.,31.1204290872537,1.,        85P    187
11.208280286947,33.0209575351741,1.,3.79999991506336,                 85P    188
31.1204290872537,1.,-3.60828045682025,-0.251125461197413,             85P    189
0.251125461197413,0.,0.,0.;                                           85P    190
126,2,2,0,0,0,0,0.116932961462379,0.116932961462379,                  87P    191
0.116932961462379,1.5707963267949,1.5707963267949,                    87P    192
1.5707963267949,1.,0.747217059048663,1.,45.5507094524709,14.25,       87P    193
-7.31024055671698,44.0430682202841,0.999999999999991,                 87P    194
-6.9234686059815,31.1204290872537,1.,-3.60828045682025,               87P    195
0.116932961462379,1.5707963267949,0.,0.,0.;                           87P    196
126,2,2,0,0,0,0,-0.654409183368,-0.654409183368,-0.654409183368,      89P    197
0.654409183367994,0.654409183367994,0.654409183367994,1.,             89P    198
0.793407691080868,1.,31.1204290872538,1.,-3.60828045682026,           89P    199
30.2625440659341,1.,-6.95232551530377,26.8104142329397,1.,            89P    200
-6.9897912212604,-0.654409183368,0.654409183367994,0.,0.,0.;          89P    201
128,1,1,1,1,0,0,1,0,0,-1.11960156472855,-1.11960156472855,            91P    202
1.15549755655442,1.15549755655442,-0.390341473403515,                 91P    203
-0.390341473403515,0.792164137047995,0.792164137047995,1.,1.,1.,      91P    204
1.,-23.,2.43494389548489,-7.57549569135152,-23.,                      91P    205
2.43494389548489,15.1754955214782,-23.,14.26,-7.57549569135152,       91P    206
-23.,14.26,15.1754955214782,-1.11960156472855,1.15549755655442,       91P    207
-0.390341473403515,0.792164137047995;                                 91P    208
128,1,1,1,1,0,0,1,0,0,0.28336113958733,0.28336113958733,              93P    209
5.48152888054957,5.48152888054957,1.199,1.199,8.34109428426639,       93P    210
8.34109428426639,1.,1.,1.,1.,-23.01,14.25,-22.1908387897478,          93P    211
-23.01,14.25,29.7908386198745,48.4109428426639,14.25,                 93P    212
-22.1908387897478,48.4109428426639,14.25,29.7908386198745,            93P    213
0.28336113958733,5.48152888054957,1.199,8.34109428426639;             93P    214
128,2,2,2,2,0,0,0,0,0,-1.5707963267949,-1.5707963267949,              95P    215
-1.5707963267949,-0.116932961462379,-0.116932961462379,               95P    216
-0.116932961462379,-0.622059785464137,-0.622059785464137,             95P    217
-0.622059785464137,0.0108524988614884,0.0108524988614884,             95P    218
0.0108524988614884,1.,0.747217059048663,1.,0.950344234236621,         95P    219
0.710113423790142,0.950344234236621,1.,0.747217059048663,1.,          95P    220
-26.9888681711846,14.25,12.4625102800888,-26.0819015418824,           95P    221
0.999999999999985,11.1976046866954,-18.3079018621493,1.,              95P    222
0.35555674332346,-2.79573350257752,14.25,29.8095486023522,            95P    223
-2.30297407546094,0.999999999999985,28.2476468442165,                 95P    224
1.92067815696685,1.,14.8599174887673,26.9720868873387,14.25,          95P    225
29.4864806820675,26.9551957144911,0.999999999999985,                  95P    226
27.9301101236382,26.8104142329397,1.,14.5897910513871,                95P    227
-1.5707963267949,-0.116932961462379,-0.622059785464137,               95P    228
0.0108524988614884;                                                   95P    229
128,3,3,3,3,0,0,1,0,0,0.196591102040885,0.196591102040885,            97P    230
0.196591102040885,0.196591102040885,1.,1.,1.,1.,                      97P    231
0.774224397196874,0.774224397196874,0.774224397196874,                97P    232
0.774224397196874,1.05591364321309,1.05591364321309,                  97P    233
1.05591364321309,1.05591364321309,1.,1.,1.,1.,1.,1.,1.,1.,1.,1.,      97P    234
1.,1.,1.,1.,1.,1.,-23.,3.34448213064287,6.89941512528445,             97P    235
-23.5476033631042,3.13212576789283,6.09608348866952,                  97P    236
-24.032219293458,3.08913379561295,5.20555688762038,                   97P    237
-24.4163455477758,3.21883316882634,4.29674916329042,                  97P    238
-21.8267931632186,2.41355500879496,5.94026184826029,                  97P    239
-22.2423267568704,2.26432473013924,5.25323266235168,                  97P    240
-22.6300834584808,2.23450227590634,4.5265665062989,                   97P    241
-22.9733511847792,2.32521559200263,3.79206806200791,                  97P    242
-20.5637210303351,1.76041419448877,4.89157365692608,                  97P    243
-20.8669903347375,1.67735972441821,4.35577156811846,                  97P    244
-21.1591476130791,1.66090968727908,3.80406648056981,                  97P    245
-21.4334602112476,1.71140821822399,3.24918235530822,                  97P    246
-19.2754371048288,1.38402076296926,3.79999991506335,                  97P    247
-19.4766008295536,1.34118599794983,3.43442344417157,                  97P    248
-19.6732406129122,1.33272067382732,3.06233687457056,                  97P    249
-19.8626002262483,1.35874344598538,2.68895560900473,                  97P    250
0.196591102040885,1.,0.774224397196874,1.05591364321309;              97P    251
128,3,3,3,3,0,0,1,0,0,0.196591102040882,0.196591102040882,            99P    252
0.196591102040882,0.196591102040882,1.,1.,1.,1.,                      99P    253
0.19010474960706,0.19010474960706,0.19010474960706,                   99P    254
0.19010474960706,0.471793995625588,0.471793995625588,                 99P    255
0.471793995625588,0.471793995625588,1.,1.,1.,1.,1.,1.,1.,1.,1.,       99P    256
1.,1.,1.,1.,1.,1.,1.,-19.2754371048288,1.38402076296925,              99P    257
3.79999991506337,-19.4766008295536,1.34118599794982,                  99P    258
4.16557638595515,-19.6732406129122,1.33272067382732,                  99P    259
4.53766295555617,-19.8626002262483,1.35874344598538,                  99P    260
4.911044221122,-20.5637210303674,1.76041419449821,                    99P    261
2.70842617317325,-20.8669903347724,1.67735972442664,                  99P    262
3.24422826198514,-21.1591476131164,1.66090968728731,                  99P    263
3.79593334953831,-21.433460211287,1.71140821823283,                   99P    264
4.35081747480446,-21.8267931632978,2.41355500885783,                  99P    265
1.65973798180164,-22.2423267569586,2.26432473019786,                  99P    266
2.34676716771811,-22.6300834585755,2.23450227596408,                  99P    267
3.07343332378195,-22.9733511848767,2.32521559206301,                  99P    268
3.80793176808471,-23.,3.34448213064288,0.700584704842269,             99P    269
-23.5476033631042,3.13212576789283,1.5039163414572,                   99P    270
-24.032219293458,3.08913379561295,2.39444294250635,                   99P    271
-24.4163455477758,3.21883316882634,3.30325066683631,                  99P    272
0.196591102040882,1.,0.19010474960706,0.471793995625588;              99P    273
128,2,2,2,2,0,0,0,0,0,-1.5707963267949,-1.5707963267949,             101P    274
-1.5707963267949,-0.116932961462379,-0.116932961462379,              101P    275
-0.116932961462379,-3.15244515245128,-3.15244515245128,              101P    276
-3.15244515245128,-2.51953286812566,-2.51953286812566,               101P    277
-2.51953286812566,1.,0.747217059048663,1.,0.950344234236621,         101P    278
0.710113423790142,0.950344234236621,1.,0.747217059048663,1.,         101P    279
26.9720868873387,14.25,-21.8864808519408,26.9551957144911,           101P    280
0.999999999999992,-20.3301102935115,26.8104142329397,1.,             101P    281
-6.9897912212604,-2.79573350257754,14.25,-22.2095487722255,          101P    282
-2.30297407546096,0.999999999999992,-20.6476470140897,               101P    283
1.92067815696684,1.,-7.25991765864054,-26.9888681711846,14.25,       101P    284
-4.86251044996209,-26.0819015418824,0.999999999999992,               101P    285
-3.59760485656869,-18.3079018621493,1.,7.24444308680327,             101P    286
-1.5707963267949,-0.116932961462379,-3.15244515245128,               101P    287
-2.51953286812566;                                                   101P    288
128,2,2,2,2,0,0,0,0,0,-1.5707963267949,-1.5707963267949,             103P    289
-1.5707963267949,-0.116932961462379,-0.116932961462379,              103P    290
-0.116932961462379,0.0108524988614875,0.0108524988614875,            103P    291
0.0108524988614875,1.31967086559748,1.31967086559748,                103P    292
1.31967086559748,1.,0.747217059048663,1.,0.793407691080865,          103P    293
0.592847761556034,0.793407691080865,1.,0.747217059048663,1.,         103P    294
26.9720868873387,14.25,29.4864806820675,26.9551957144911,            103P    295
0.999999999999996,27.9301101236382,26.8104142329397,1.,              103P    296
14.5897910513871,41.8527356509596,14.25,29.3249821179946,            103P    297
40.6418201122256,0.999999999999996,27.7815702163834,                 103P    298
30.2625440659341,1.,14.5523253454305,45.5507094524709,14.25,         103P    299
14.9102403868437,44.0430682202841,0.999999999999996,                 103P    300
14.5234684361082,31.1204290872537,1.,11.208280286947,                103P    301
-1.5707963267949,-0.116932961462379,0.0108524988614875,              103P    302
1.31967086559748;                                                    103P    303
128,2,2,2,2,0,0,0,0,0,-1.5707963267949,-1.5707963267949,             105P    304
-1.5707963267949,-0.116932961462378,-0.116932961462378,              105P    305
-0.116932961462378,1.31967086559748,1.31967086559748,                105P    306
1.31967086559748,1.82192178799231,1.82192178799231,                  105P    307
1.82192178799231,1.,0.747217059048662,1.,0.968633364570552,          105P    308
0.723779373970818,0.968633364570552,1.,0.747217059048662,1.,         105P    309
45.5507094524709,14.25,14.9102403868437,44.0430682202841,            105P    310
0.999999999999996,14.5234684361082,31.1204290872537,1.,              105P    311
11.208280286947,48.4009428426639,14.25,3.79999991506336,             105P    312
46.7940787060605,0.999999999999996,3.79999991506336,                 105P    313
33.0209575351741,1.,3.79999991506336,45.5507094524709,14.25,         105P    314
-7.31024055671698,44.0430682202841,0.999999999999996,                105P    315
-6.9234686059815,31.1204290872537,1.,-3.60828045682026,              105P    316
-1.5707963267949,-0.116932961462378,1.31967086559748,                105P    317
1.82192178799231;                                                    105P    318
128,1,1,1,1,0,0,1,0,0,-2.07830304998448,-2.07830304998448,           107P    319
2.53171076123684,2.53171076123684,-1.1032671309031,                  107P    320
-1.1032671309031,1.1032671309031,1.1032671309031,1.,1.,1.,1.,        107P    321
33.0309575351741,1.,14.8326712240944,-13.0691805770392,1.,           107P    322
14.8326712240944,33.0309575351741,1.,-7.23267139396764,              107P    323
-13.0691805770392,1.,-7.23267139396764,-2.07830304998448,            107P    324
2.53171076123684,-1.1032671309031,1.1032671309031;                   107P    325
128,2,2,2,2,0,0,0,0,0,-1.5707963267949,-1.5707963267949,             109P    326
-1.5707963267949,-0.116932961462379,-0.116932961462379,              109P    327
-0.116932961462379,1.82192178799231,1.82192178799231,                109P    328
1.82192178799231,3.1307401547283,3.1307401547283,                    109P    329
3.1307401547283,1.,0.747217059048663,1.,0.793407691080866,           109P    330
0.592847761556034,0.793407691080866,1.,0.747217059048663,1.,         109P    331
45.5507094524709,14.25,-7.31024055671698,44.0430682202841,           109P    332
0.999999999999992,-6.9234686059815,31.1204290872537,1.,              109P    333
-3.60828045682025,41.8527356509596,14.25,-21.7249822878679,          109P    334
40.6418201122256,0.999999999999992,-20.1815703862567,                109P    335
30.2625440659341,1.,-6.95232551530376,26.9720868873388,14.25,        109P    336
-21.8864808519408,26.9551957144911,0.999999999999992,                109P    337
-20.3301102935115,26.8104142329397,1.,-6.98979122126039,             109P    338
-1.5707963267949,-0.116932961462379,1.82192178799231,                109P    339
3.1307401547283;                                                     109P    340
502,15,-23.,3.34448213064287,0.700584704842271,-23.,14.25,           111P    341
-7.56549569135152,-22.9999999999999,2.44494389548481,                111P    342
3.79999991506336,-23.,3.34448213064287,6.89941512528445,-23.,        111P    343
14.25,15.1654955214782,26.9720868873387,14.25,29.4864806820675,      111P    344
45.5507094524709,14.25,14.9102403868437,45.550709452471,14.25,       111P    345
-7.31024055671698,26.9720868873388,14.25,-21.8864808519408,          111P    346
-19.2754371048288,1.38402076296926,3.79999991506336,                 111P    347
-13.0591805770392,1.,3.79999991506335,26.8104142329397,1.,           111P    348
14.5897910513871,26.8104142329397,1.,-6.98979122126042,              111P    349
31.1204290872537,1.,11.208280286947,31.1204290872537,1.,             111P    350
-3.60828045682025;                                                   111P    351
504,23,45,111,1,111,2,47,111,3,111,1,49,111,4,111,3,51,111,5,        113P    352
111,4,53,111,2,111,5,55,111,5,111,6,57,111,6,111,7,59,111,7,111,     113P    353
8,61,111,8,111,9,63,111,9,111,2,65,111,10,111,4,67,111,10,111,       113P    354
11,69,111,11,111,12,71,111,6,111,12,73,111,10,111,3,75,111,1,        113P    355
111,10,77,111,13,111,9,79,111,13,111,11,81,111,12,111,14,83,111,     113P    356
14,111,7,85,111,14,111,15,87,111,8,111,15,89,111,15,111,13;          113P    357
406,1,5HBody1;                                                       115P    358
314,62.7450980392157,62.7450980392157,62.7450980392157,13HSteel      117P    359
- Satin;                                                             117P    360
S      1G      2D    118P    360                                        T      1
