                                                                        S      1
,,10HComponent2,10HComponent2,7Hunknown,7Hunknown,32,38,7,99,15,,1.,2,2HG      1
MM,1,0.08,15H20211012.212147,0.01,10000.,7Hunknown,7Hunknown,11,0,;     G      2
     186       1                                                00000000D      1
     186            -251       1       0                               0D      2
     514       2                                                00010000D      3
     514                       2       1                               0D      4
     510       4                                                00010000D      5
     510            -251       1       1                               0D      6
     510       5                                                00010000D      7
     510            -251       1       1                               0D      8
     510       6                                                00010000D      9
     510            -251       1       1                               0D     10
     510       7                                                00010000D     11
     510            -251       1       1                               0D     12
     510       8                                                00010000D     13
     510            -251       1       1                               0D     14
     510       9                                                00010000D     15
     510            -251       1       1                               0D     16
     510      10                                                00010000D     17
     510            -251       1       1                               0D     18
     510      11                                                00010000D     19
     510            -251       1       1                               0D     20
     510      12                                                00010000D     21
     510            -251       1       1                               0D     22
     510      13                                                00010000D     23
     510            -251       1       1                               0D     24
     510      14                                                00010000D     25
     510            -251       1       1                               0D     26
     510      15                                                00010000D     27
     510            -251       1       1                               0D     28
     510      16                                                00010000D     29
     510            -251       1       1                               0D     30
     510      17                                                00010000D     31
     510            -251       1       1                               0D     32
     510      18                                                00010000D     33
     510            -251       1       1                               0D     34
     510      19                                                00010000D     35
     510            -251       1       1                               0D     36
     510      20                                                00010000D     37
     510            -251       1       1                               0D     38
     510      21                                                00010000D     39
     510            -251       1       1                               0D     40
     510      22                                                00010000D     41
     510            -251       1       1                               0D     42
     510      23                                                00010000D     43
     510            -251       1       1                               0D     44
     508      24                                                00010000D     45
     508                       1       1                               0D     46
     508      25                                                00010000D     47
     508                       1       1                               0D     48
     508      26                                                00010000D     49
     508                       1       1                               0D     50
     508      27                                                00010000D     51
     508                       1       1                               0D     52
     508      28                                                00010000D     53
     508                       1       1                               0D     54
     508      29                                                00010000D     55
     508                       1       1                               0D     56
     508      30                                                00010000D     57
     508                       1       1                               0D     58
     508      31                                                00010000D     59
     508                       1       1                               0D     60
     508      32                                                00010000D     61
     508                       1       1                               0D     62
     508      33                                                00010000D     63
     508                       1       1                               0D     64
     508      34                                                00010000D     65
     508                       2       1                               0D     66
     508      36                                                00010000D     67
     508                       1       1                               0D     68
     508      37                                                00010000D     69
     508                       1       1                               0D     70
     508      38                                                00010000D     71
     508                       1       1                               0D     72
     508      39                                                00010000D     73
     508                       1       1                               0D     74
     508      40                                                00010000D     75
     508                       2       1                               0D     76
     508      42                                                00010000D     77
     508                       1       1                               0D     78
     508      43                                                00010000D     79
     508                       1       1                               0D     80
     508      44                                                00010000D     81
     508                       1       1                               0D     82
     508      45                                                00010000D     83
     508                       1       1                               0D     84
     508      46                                                00010000D     85
     508                       1       1                               0D     86
     508      47                                                00010000D     87
     508                       1       1                               0D     88
     508      48                                                00010000D     89
     508                       1       1                               0D     90
     508      49                                                00010000D     91
     508                       1       1                               0D     92
     508      50                                                00010000D     93
     508                       1       1                               0D     94
     508      51                                                00010000D     95
     508                       3       1                               0D     96
     126      54                                                00010000D     97
     126       0              11       0                               0D     98
     126      65                                                00010000D     99
     126       0               3       0                               0D    100
     126      68                                                00010000D    101
     126       0              11       0                               0D    102
     126      79                                                00010000D    103
     126       0               8       0                               0D    104
     126      87                                                00010000D    105
     126       0               2       0                               0D    106
     126      89                                                00010000D    107
     126       0               8       0                               0D    108
     126      97                                                00010000D    109
     126       0               3       0                               0D    110
     126     100                                                00010000D    111
     126       0               3       0                               0D    112
     126     103                                                00010000D    113
     126       0               3       0                               0D    114
     126     106                                                00010000D    115
     126       0               4       0                               0D    116
     126     110                                                00010000D    117
     126       0               3       0                               0D    118
     126     113                                                00010000D    119
     126       0               3       0                               0D    120
     126     116                                                00010000D    121
     126       0               3       0                               0D    122
     126     119                                                00010000D    123
     126       0               4       0                               0D    124
     126     123                                                00010000D    125
     126       0               3       0                               0D    126
     126     126                                                00010000D    127
     126       0               2       0                               0D    128
     126     128                                                00010000D    129
     126       0               2       0                               0D    130
     126     130                                                00010000D    131
     126       0               2       0                               0D    132
     126     132                                                00010000D    133
     126       0               2       0                               0D    134
     126     134                                                00010000D    135
     126       0               3       0                               0D    136
     126     137                                                00010000D    137
     126       0               2       0                               0D    138
     126     139                                                00010000D    139
     126       0               3       0                               0D    140
     126     142                                                00010000D    141
     126       0               4       0                               0D    142
     126     146                                                00010000D    143
     126       0               2       0                               0D    144
     126     148                                                00010000D    145
     126       0               4       0                               0D    146
     126     152                                                00010000D    147
     126       0               3       0                               0D    148
     126     155                                                00010000D    149
     126       0               3       0                               0D    150
     126     158                                                00010000D    151
     126       0               3       0                               0D    152
     126     161                                                00010000D    153
     126       0               2       0                               0D    154
     126     163                                                00010000D    155
     126       0               3       0                               0D    156
     126     166                                                00010000D    157
     126       0               2       0                               0D    158
     126     168                                                00010000D    159
     126       0               2       0                               0D    160
     126     170                                                00010000D    161
     126       0               3       0                               0D    162
     126     173                                                00010000D    163
     126       0               4       0                               0D    164
     126     177                                                00010000D    165
     126       0               2       0                               0D    166
     126     179                                                00010000D    167
     126       0               2       0                               0D    168
     126     181                                                00010000D    169
     126       0               4       0                               0D    170
     126     185                                                00010000D    171
     126       0               2       0                               0D    172
     126     187                                                00010000D    173
     126       0               4       0                               0D    174
     126     191                                                00010000D    175
     126       0               3       0                               0D    176
     126     194                                                00010000D    177
     126       0               4       0                               0D    178
     126     198                                                00010000D    179
     126       0               2       0                               0D    180
     126     200                                                00010000D    181
     126       0               4       0                               0D    182
     126     204                                                00010000D    183
     126       0               2       0                               0D    184
     126     206                                                00010000D    185
     126       0               3       0                               0D    186
     126     209                                                00010000D    187
     126       0               3       0                               0D    188
     126     212                                                00010000D    189
     126       0               4       0                               0D    190
     126     216                                                00010000D    191
     126       0               3       0                               0D    192
     126     219                                                00010000D    193
     126       0               3       0                               0D    194
     126     222                                                00010000D    195
     126       0               4       0                               0D    196
     126     226                                                00010000D    197
     126       0               3       0                               0D    198
     126     229                                                00010000D    199
     126       0               2       0                               0D    200
     126     231                                                00010000D    201
     126       0               4       0                               0D    202
     126     235                                                00010000D    203
     126       0               3       0                               0D    204
     128     238                                                00010000D    205
     128       0    -251      17       0                               0D    206
     128     255                                                00010000D    207
     128       0    -251      12       0                               0D    208
     128     267                                                00010000D    209
     128       0    -251       5       0                               0D    210
     128     272                                                00010000D    211
     128       0    -251       6       0                               0D    212
     128     278                                                00010000D    213
     128       0    -251       3       0                               0D    214
     128     281                                                00010000D    215
     128       0    -251       4       0                               0D    216
     128     285                                                00010000D    217
     128       0    -251       6       0                               0D    218
     128     291                                                00010000D    219
     128       0    -251       6       0                               0D    220
     128     297                                                00010000D    221
     128       0    -251       3       0                               0D    222
     128     300                                                00010000D    223
     128       0    -251       3       0                               0D    224
     128     303                                                00010000D    225
     128       0    -251       5       0                               0D    226
     128     308                                                00010000D    227
     128       0    -251       6       0                               0D    228
     128     314                                                00010000D    229
     128       0    -251       5       0                               0D    230
     128     319                                                00010000D    231
     128       0    -251       4       0                               0D    232
     128     323                                                00010000D    233
     128       0    -251       5       0                               0D    234
     128     328                                                00010000D    235
     128       0    -251       6       0                               0D    236
     128     334                                                00010000D    237
     128       0    -251       5       0                               0D    238
     128     339                                                00010000D    239
     128       0    -251       5       0                               0D    240
     128     344                                                00010000D    241
     128       0    -251       7       0                               0D    242
     128     351                                                00010000D    243
     128       0    -251       7       0                               0D    244
     502     358                                                00010000D    245
     502                      16       1                               0D    246
     504     374                                                00010001D    247
     504                      16       1                               0D    248
     406     390                                                00000000D    249
     406                       1      15                               0D    250
     314     391                                                00000200D    251
     314                       2       0                               0D    252
186,3,1,0,0,1,249;                                                     1P      1
514,20,5,1,7,1,9,1,11,1,13,1,15,1,17,1,19,1,21,1,23,1,25,1,27,1,       3P      2
29,1,31,1,33,1,35,1,37,1,39,1,41,1,43,1;                               3P      3
510,205,1,1,45;                                                        5P      4
510,207,1,1,47;                                                        7P      5
510,209,2,1,49,51;                                                     9P      6
510,211,2,1,53,55;                                                    11P      7
510,213,1,1,57;                                                       13P      8
510,215,1,1,59;                                                       15P      9
510,217,1,1,61;                                                       17P     10
510,219,1,1,63;                                                       19P     11
510,221,1,1,65;                                                       21P     12
510,223,1,1,67;                                                       23P     13
510,225,1,1,69;                                                       25P     14
510,227,1,1,71;                                                       27P     15
510,229,1,1,73;                                                       29P     16
510,231,1,1,75;                                                       31P     17
510,233,1,1,77;                                                       33P     18
510,235,1,1,79;                                                       35P     19
510,237,1,1,81;                                                       37P     20
510,239,1,1,83;                                                       39P     21
510,241,4,1,85,87,89,91;                                              41P     22
510,243,2,1,93,95;                                                    43P     23
508,4,0,247,1,0,0,0,247,2,1,0,0,247,3,0,0,0,247,2,0,0;                45P     24
508,4,0,247,4,0,0,0,247,5,1,0,0,247,6,0,0,0,247,5,0,0;                47P     25
508,4,0,247,7,0,0,0,247,8,0,0,0,247,9,0,0,0,247,10,0,0;               49P     26
508,1,0,247,4,1,0;                                                    51P     27
508,4,0,247,11,0,0,0,247,12,0,0,0,247,13,0,0,0,247,14,0,0;            53P     28
508,1,0,247,1,1,0;                                                    55P     29
508,4,0,247,15,1,0,0,247,16,1,0,0,247,17,0,0,0,247,18,0,0;            57P     30
508,4,0,247,12,1,0,0,247,19,0,0,0,247,20,1,0,0,247,21,1,0;            59P     31
508,4,0,247,11,1,0,0,247,22,0,0,0,247,23,1,0,0,247,19,1,0;            61P     32
508,4,0,247,14,1,0,0,247,24,0,0,0,247,25,1,0,0,247,22,1,0;            63P     33
508,8,0,247,26,1,0,0,247,24,1,0,0,247,13,1,0,0,247,21,0,0,0,247,      65P     34
27,1,0,0,247,18,1,0,0,247,28,0,0,0,247,29,0,0;                        65P     35
508,4,0,247,30,1,0,0,247,29,1,0,0,247,31,0,0,0,247,32,0,0;            67P     36
508,4,0,247,8,1,0,0,247,33,0,0,0,247,34,1,0,0,247,35,1,0;             69P     37
508,4,0,247,7,1,0,0,247,36,0,0,0,247,37,1,0,0,247,33,1,0;             71P     38
508,4,0,247,10,1,0,0,247,38,0,0,0,247,39,1,0,0,247,36,1,0;            73P     39
508,8,0,247,40,1,0,0,247,38,1,0,0,247,9,1,0,0,247,35,0,0,0,247,       75P     40
41,1,0,0,247,32,1,0,0,247,42,0,0,0,247,16,0,0;                        75P     41
508,4,0,247,43,0,0,0,247,44,1,0,0,247,45,0,0,0,247,46,0,0;            77P     42
508,4,0,247,47,0,0,0,247,46,1,0,0,247,48,0,0,0,247,49,0,0;            79P     43
508,4,0,247,50,0,0,0,247,49,1,0,0,247,51,0,0,0,247,52,0,0;            81P     44
508,4,0,247,53,0,0,0,247,52,1,0,0,247,54,0,0,0,247,44,0,0;            83P     45
508,4,0,247,54,1,0,0,247,51,1,0,0,247,48,1,0,0,247,45,1,0;            85P     46
508,1,0,247,3,1,0;                                                    87P     47
508,1,0,247,6,1,0;                                                    89P     48
508,4,0,247,42,1,0,0,247,31,1,0,0,247,28,1,0,0,247,17,1,0;            91P     49
508,4,0,247,53,1,0,0,247,43,1,0,0,247,47,1,0,0,247,50,1,0;            93P     50
508,12,0,247,40,0,0,0,247,15,0,0,0,247,27,0,0,0,247,20,0,0,0,         95P     51
247,23,0,0,0,247,25,0,0,0,247,26,0,0,0,247,30,0,0,0,247,41,0,0,       95P     52
0,247,34,0,0,0,247,37,0,0,0,247,39,0,0;                               95P     53
126,8,2,0,1,0,0,-3.14159265358979,-3.14159265358979,                  97P     54
-3.14159265358979,-1.5707963267949,-1.5707963267949,0.,0.,            97P     55
1.5707963267949,1.5707963267949,3.14159265358979,                     97P     56
3.14159265358979,3.14159265358979,1.,0.707106781186548,1.,            97P     57
0.70710678118655,1.,0.70710678118655,1.,0.707106781186548,1.,         97P     58
7.50000008940697,25.,17.5,7.50000008940697,25.,19.,                   97P     59
9.00000008940697,25.,19.,10.500000089407,25.,19.,                     97P     60
10.500000089407,25.,17.5,10.500000089407,25.,16.,                     97P     61
9.00000008940697,25.,16.,7.50000008940697,25.,16.,                    97P     62
7.50000008940697,25.,17.5,-3.14159265358979,3.14159265358979,0.,      97P     63
0.,0.;                                                                97P     64
126,1,1,0,0,1,0,16.6666666666667,16.6666666666667,18.,18.,1.,1.,      99P     65
7.50000008940697,25.,17.5,7.50000008940697,27.,17.5,                  99P     66
16.6666666666667,18.,0.,0.,0.;                                        99P     67
126,8,2,0,1,0,0,-3.14159265358979,-3.14159265358979,                 101P     68
-3.14159265358979,-1.5707963267949,-1.5707963267949,0.,0.,           101P     69
1.5707963267949,1.5707963267949,3.14159265358979,                    101P     70
3.14159265358979,3.14159265358979,1.,0.707106781186548,1.,           101P     71
0.70710678118655,1.,0.70710678118655,1.,0.707106781186548,1.,        101P     72
7.50000008940697,27.,17.5,7.50000008940697,27.,16.,                  101P     73
9.00000008940697,27.,16.,10.500000089407,27.,16.,                    101P     74
10.500000089407,27.,17.5,10.500000089407,27.,19.,                    101P     75
9.00000008940697,27.,19.,7.50000008940697,27.,19.,                   101P     76
7.50000008940697,27.,17.5,-3.14159265358979,3.14159265358979,0.,     101P     77
0.,0.;                                                               101P     78
126,8,2,0,1,0,0,-3.14159265358979,-3.14159265358979,                 103P     79
-3.14159265358979,-1.5707963267949,-1.5707963267949,0.,0.,           103P     80
1.5707963267949,1.5707963267949,3.14159265358979,                    103P     81
3.14159265358979,3.14159265358979,1.,0.707106781186555,1.,           103P     82
0.707106781186555,1.,0.707106781186555,1.,0.707106781186555,1.,      103P     83
59.5,25.,17.5,59.5,25.,19.,61.,25.,19.,62.5,25.,19.,62.5,25.,        103P     84
17.5,62.5,25.,16.,61.,25.,16.,59.5,25.,16.,59.5,25.,17.5,            103P     85
-3.14159265358979,3.14159265358979,0.,0.,0.;                         103P     86
126,1,1,0,0,1,0,16.6666666666666,16.6666666666666,18.,18.,1.,1.,     105P     87
59.5,25.,17.5,59.5,27.,17.5,16.6666666666666,18.,0.,0.,0.;           105P     88
126,8,2,0,1,0,0,-3.14159265358979,-3.14159265358979,                 107P     89
-3.14159265358979,-1.5707963267949,-1.5707963267949,0.,0.,           107P     90
1.5707963267949,1.5707963267949,3.14159265358979,                    107P     91
3.14159265358979,3.14159265358979,1.,0.707106781186555,1.,           107P     92
0.707106781186555,1.,0.707106781186555,1.,0.707106781186555,1.,      107P     93
59.5,27.,17.5,59.5,27.,16.,61.,27.,16.,62.5,27.,16.,62.5,27.,        107P     94
17.5,62.5,27.,19.,61.,27.,19.,59.5,27.,19.,59.5,27.,17.5,            107P     95
-3.14159265358979,3.14159265358979,0.,0.,0.;                         107P     96
126,1,1,0,0,1,0,-3.54000005215406,-3.54000005215406,0.,0.,1.,1.,     109P     97
64.2000009536743,25.,35.2000005215406,64.2000009536743,25.,-0.2,     109P     98
-3.54000005215406,0.,0.,0.,0.;                                       109P     99
126,1,1,0,0,1,0,-0.62,-0.62,0.,0.,1.,1.,58.0000009536743,25.,        111P    100
35.2000005215406,64.2000009536743,25.,35.2000005215406,-0.62,0.,     111P    101
0.,0.,0.;                                                            111P    102
126,1,1,0,0,1,0,-3.54000005215406,-3.54000005215406,0.,0.,1.,1.,     113P    103
58.0000009536743,25.,-0.2,58.0000009536743,25.,35.2000005215406,     113P    104
-3.54000005215406,0.,0.,0.,0.;                                       113P    105
126,1,1,0,0,1,0,-0.310000047683715,-0.310000047683715,               115P    106
0.309999952316285,0.309999952316285,1.,1.,64.2000009536743,25.,      115P    107
-0.2,58.0000009536743,25.,-0.2,-0.310000047683715,                   115P    108
0.309999952316285,0.,0.,0.;                                          115P    109
126,1,1,0,0,1,0,-3.54000005170703,-3.54000005170703,0.,0.,1.,1.,     117P    110
5.80000008940697,25.,-0.199999995529652,5.80000008940697,25.,        117P    111
35.2000005215406,-3.54000005170703,0.,0.,0.,0.;                      117P    112
126,1,1,0,0,1,0,-0.62,-0.62,2.22044604925031D-16,                    119P    113
2.22044604925031D-16,1.,1.,12.000000089407,25.,-0.2,                 119P    114
5.80000008940697,25.,-0.2,-0.62,2.22044604925031D-16,0.,0.,0.;       119P    115
126,1,1,0,0,1,0,-3.54000005170703,-3.54000005170703,0.,0.,1.,1.,     121P    116
12.000000089407,25.,35.2000005215406,12.000000089407,25.,            121P    117
-0.199999995529653,-3.54000005170703,0.,0.,0.,0.;                    121P    118
126,1,1,0,0,1,0,-0.309999995529652,-0.309999995529652,               123P    119
0.310000004470349,0.310000004470349,1.,1.,5.80000008940697,25.,      123P    120
35.2000005215406,12.000000089407,25.,35.2000005215406,               123P    121
-0.309999995529652,0.310000004470349,0.,0.,0.;                       123P    122
126,1,1,0,0,1,0,-1.15000002607703,-1.15000002607703,                 125P    123
3.44999997392297,3.44999997392297,1.,1.,12.,10.,-1.,58.,10.,-1.,     125P    124
-1.15000002607703,3.44999997392297,0.,0.,0.;                         125P    125
126,1,1,0,0,1,0,1.,1.,2.7,2.7,1.,1.,58.,10.,-1.,58.,27.,-1.,1.,      127P    126
2.7,0.,0.,0.;                                                        127P    127
126,1,1,0,0,1,0,-4.6,-4.6,0.,0.,1.,1.,12.,27.,-1.,58.,27.,-1.,       129P    128
-4.6,0.,0.,0.,0.;                                                    129P    129
126,1,1,0,0,1,0,1.,1.,2.7,2.7,1.,1.,12.,10.,-1.,12.,27.,-1.,1.,      131P    130
2.7,0.,0.,0.;                                                        131P    131
126,1,1,0,0,1,0,1.,1.,2.5,2.5,1.,1.,5.80000008940697,10.,-0.2,       133P    132
5.80000008940697,25.,-0.2,1.,2.5,0.,0.,0.;                           133P    133
126,1,1,0,0,1,0,-1.46000002160668,-1.46000002160668,                 135P    134
-0.84000003054738,-0.84000003054738,1.,1.,5.80000008940697,10.,      135P    135
-0.2,12.,10.,-0.2,-1.46000002160668,-0.84000003054738,0.,0.,0.;      135P    136
126,1,1,0,0,1,0,1.,1.,2.5,2.5,1.,1.,12.,10.,-0.2,12.,25.,-0.2,       137P    137
1.,2.5,0.,0.,0.;                                                     137P    138
126,1,1,0,0,1,0,1.,1.,2.5,2.5,1.,1.,5.80000008940697,10.,            139P    139
35.2000005215406,5.80000008940697,25.,35.2000005215406,1.,2.5,       139P    140
0.,0.,0.;                                                            139P    141
126,1,1,0,0,1,0,-0.885000013038516,-0.885000013038516,               141P    142
2.65500003911555,2.65500003911555,1.,1.,5.80000008940697,10.,        141P    143
35.2000005215406,5.80000008940697,10.,-0.2,-0.885000013038516,       141P    144
2.65500003911555,0.,0.,0.;                                           141P    145
126,1,1,0,0,1,0,1.,1.,2.5,2.5,1.,1.,12.,10.,35.2000005215406,        143P    146
12.,25.,35.2000005215406,1.,2.5,0.,0.,0.;                            143P    147
126,1,1,0,0,1,0,1.15000002607703,1.15000002607703,                   145P    148
1.77000001713634,1.77000001713634,1.,1.,12.,10.,                     145P    149
35.2000005215406,5.80000008940697,10.,35.2000005215406,              145P    150
1.15000002607703,1.77000001713634,0.,0.,0.;                          145P    151
126,1,1,0,0,1,0,-0.924999986961484,-0.924999986961484,               147P    152
-0.845000039115548,-0.845000039115548,1.,1.,12.,10.,36.,12.,10.,     147P    153
35.2000005215406,-0.924999986961484,-0.845000039115548,0.,0.,0.;     147P    154
126,1,1,0,0,1,0,0.885000013038516,0.885000013038516,                 149P    155
0.965000013038516,0.965000013038516,1.,1.,12.,10.,-0.2,12.,10.,      149P    156
-1.,0.885000013038516,0.965000013038516,0.,0.,0.;                    149P    157
126,1,1,0,0,1,0,0.,0.,3.69999999955297,3.69999999955297,1.,1.,       151P    158
12.,27.,36.,12.,27.,-0.999999995529652,0.,3.69999999955297,0.,       151P    159
0.,0.;                                                               151P    160
126,1,1,0,0,1,0,1.,1.,2.7,2.7,1.,1.,12.,10.,36.,12.,27.,36.,1.,      153P    161
2.7,0.,0.,0.;                                                        153P    162
126,1,1,0,0,1,0,-1.14999997392297,-1.14999997392297,                 155P    163
3.45000002607703,3.45000002607703,1.,1.,58.,10.,36.,12.,10.,36.,     155P    164
-1.14999997392297,3.45000002607703,0.,0.,0.;                         155P    165
126,1,1,0,0,1,0,0.,0.,4.6,4.6,1.,1.,58.,27.,36.,12.,27.,36.,0.,      157P    166
4.6,0.,0.,0.;                                                        157P    167
126,1,1,0,0,1,0,1.,1.,2.7,2.7,1.,1.,58.,10.,36.,58.,27.,36.,1.,      159P    168
2.7,0.,0.,0.;                                                        159P    169
126,1,1,0,0,1,0,1.,1.,2.5,2.5,1.,1.,64.2000009536743,10.,            161P    170
35.2000005215406,64.2000009536743,25.,35.2000005215406,1.,2.5,       161P    171
0.,0.,0.;                                                            161P    172
126,1,1,0,0,1,0,-1.46000002160668,-1.46000002160668,                 163P    173
-0.839999926239253,-0.839999926239253,1.,1.,64.2000009536743,        163P    174
10.,35.2000005215406,58.,10.,35.2000005215406,-1.46000002160668,     163P    175
-0.839999926239253,0.,0.,0.;                                         163P    176
126,1,1,0,0,1,0,1.,1.,2.5,2.5,1.,1.,58.,10.,35.2000005215406,        165P    177
58.,25.,35.2000005215406,1.,2.5,0.,0.,0.;                            165P    178
126,1,1,0,0,1,0,1.,1.,2.5,2.5,1.,1.,64.2000009536743,10.,-0.2,       167P    179
64.2000009536743,25.,-0.2,1.,2.5,0.,0.,0.;                           167P    180
126,1,1,0,0,1,0,-0.885000013038516,-0.885000013038516,               169P    181
2.65500003911555,2.65500003911555,1.,1.,64.2000009536743,10.,        169P    182
-0.2,64.2000009536743,10.,35.2000005215406,-0.885000013038516,       169P    183
2.65500003911555,0.,0.,0.;                                           169P    184
126,1,1,0,0,1,0,1.,1.,2.5,2.5,1.,1.,58.,10.,-0.2,58.,25.,-0.2,       171P    185
1.,2.5,0.,0.,0.;                                                     171P    186
126,1,1,0,0,1,0,1.14999997392297,1.14999997392297,                   173P    187
1.7700000692904,1.7700000692904,1.,1.,58.,10.,-0.2,                  173P    188
64.2000009536743,10.,-0.2,1.14999997392297,1.7700000692904,0.,       173P    189
0.,0.;                                                               173P    190
126,1,1,0,0,1,0,-0.925000013038516,-0.925000013038516,               175P    191
-0.845000013038516,-0.845000013038516,1.,1.,58.,10.,-1.,58.,10.,     175P    192
-0.2,-0.925000013038516,-0.845000013038516,0.,0.,0.;                 175P    193
126,1,1,0,0,1,0,0.885000013038516,0.885000013038516,                 177P    194
0.964999960884452,0.964999960884452,1.,1.,58.,10.,                   177P    195
35.2000005215406,58.,10.,36.,0.885000013038516,                      177P    196
0.964999960884452,0.,0.,0.;                                          177P    197
126,1,1,0,0,1,0,-0.1,-0.1,3.6,3.6,1.,1.,58.,27.,-1.,58.,27.,36.,     179P    198
-0.1,3.6,0.,0.,0.;                                                   179P    199
126,1,1,0,0,1,0,-2.92500003911555,-2.92500003911555,                 181P    200
0.975000013038516,0.975000013038516,1.,1.,66.0000009536743,10.,      181P    201
-2.,66.0000009536743,10.,37.0000005215406,-2.92500003911555,         181P    202
0.975000013038516,0.,0.,0.;                                          181P    203
126,1,1,0,0,1,0,1.,1.,2.7,2.7,1.,1.,66.0000009536743,10.,-2.,        183P    204
66.0000009536743,27.,-2.,1.,2.7,0.,0.,0.;                            183P    205
126,1,1,0,0,1,0,-3.90000005215406,-3.90000005215406,0.,0.,1.,1.,     185P    206
66.0000009536743,27.,37.0000005215406,66.0000009536743,27.,-2.,      185P    207
-3.90000005215406,0.,0.,0.,0.;                                       185P    208
126,1,1,0,0,1,0,1.,1.,2.7,2.7,1.,1.,66.0000009536743,10.,            187P    209
37.0000005215406,66.0000009536743,27.,37.0000005215406,1.,2.7,       187P    210
0.,0.,0.;                                                            187P    211
126,1,1,0,0,1,0,-4.65000006482005,-4.65000006482005,                 189P    212
1.55000002160668,1.55000002160668,1.,1.,66.0000009536743,10.,        189P    213
37.0000005215406,4.00000008940697,10.,37.0000005215406,              189P    214
-4.65000006482005,1.55000002160668,0.,0.,0.;                         189P    215
126,1,1,0,0,1,0,-6.20000008642674,-6.20000008642674,0.,0.,1.,1.,     191P    216
4.00000008940697,27.,37.0000005215406,66.0000009536743,27.,          191P    217
37.0000005215406,-6.20000008642674,0.,0.,0.,0.;                      191P    218
126,1,1,0,0,1,0,1.,1.,2.7,2.7,1.,1.,4.00000008940697,10.,            193P    219
37.0000005215406,4.00000008940697,27.,37.0000005215406,1.,2.7,       193P    220
0.,0.,0.;                                                            193P    221
126,1,1,0,0,1,0,-2.92500003911555,-2.92500003911555,                 195P    222
0.975000013038516,0.975000013038516,1.,1.,4.00000008940697,10.,      195P    223
37.0000005215406,4.00000008940697,10.,-2.,-2.92500003911555,         195P    224
0.975000013038516,0.,0.,0.;                                          195P    225
126,1,1,0,0,1,0,-3.90000005215406,-3.90000005215406,0.,0.,1.,1.,     197P    226
4.00000008940697,27.,-2.,4.00000008940697,27.,37.0000005215406,      197P    227
-3.90000005215406,0.,0.,0.,0.;                                       197P    228
126,1,1,0,0,1,0,1.,1.,2.7,2.7,1.,1.,4.00000008940697,10.,-2.,        199P    229
4.00000008940697,27.,-2.,1.,2.7,0.,0.,0.;                            199P    230
126,1,1,0,0,1,0,-4.65000006482005,-4.65000006482005,                 201P    231
1.55000002160668,1.55000002160668,1.,1.,4.00000008940697,10.,        201P    232
-2.,66.0000009536743,10.,-2.,-4.65000006482005,1.55000002160668,     201P    233
0.,0.,0.;                                                            201P    234
126,1,1,0,0,1,0,-6.20000008642674,-6.20000008642674,0.,0.,1.,1.,     203P    235
66.0000009536743,27.,-2.,4.00000008940697,27.,-2.,                   203P    236
-6.20000008642674,0.,0.,0.,0.;                                       203P    237
128,1,8,1,2,0,1,0,0,1,16.6666666666667,16.6666666666667,18.,18.,     205P    238
-3.14159265358979,-3.14159265358979,-3.14159265358979,               205P    239
-1.5707963267949,-1.5707963267949,0.,0.,1.5707963267949,             205P    240
1.5707963267949,3.14159265358979,3.14159265358979,                   205P    241
3.14159265358979,1.,1.,0.707106781186548,0.707106781186548,1.,       205P    242
1.,0.707106781186548,0.707106781186548,1.,1.,0.707106781186548,      205P    243
0.707106781186548,1.,1.,0.707106781186548,0.707106781186548,1.,      205P    244
1.,7.50000008940697,25.,17.5,7.50000008940697,27.,17.5,              205P    245
7.50000008940697,25.,19.,7.50000008940697,27.,19.,                   205P    246
9.00000008940697,25.,19.,9.00000008940697,27.,19.,                   205P    247
10.500000089407,25.,19.,10.500000089407,27.,19.,10.500000089407,     205P    248
25.,17.5,10.500000089407,27.,17.5,10.500000089407,25.,16.,           205P    249
10.500000089407,27.,16.,9.00000008940697,25.,16.,                    205P    250
9.00000008940697,27.,16.,7.50000008940697,25.,16.,                   205P    251
7.50000008940697,27.,16.,7.50000008940697,25.,17.5,                  205P    252
7.50000008940697,27.,17.5,16.6666666666667,18.,                      205P    253
-3.14159265358979,3.14159265358979;                                  205P    254
128,1,8,1,2,0,1,0,0,1,16.6666666666666,16.6666666666666,18.,18.,     207P    255
-3.14159265358979,-3.14159265358979,-3.14159265358979,               207P    256
-1.5707963267949,-1.5707963267949,0.,0.,1.5707963267949,             207P    257
1.5707963267949,3.14159265358979,3.14159265358979,                   207P    258
3.14159265358979,1.,1.,0.707106781186548,0.707106781186548,1.,       207P    259
1.,0.707106781186548,0.707106781186548,1.,1.,0.707106781186548,      207P    260
0.707106781186548,1.,1.,0.707106781186548,0.707106781186548,1.,      207P    261
1.,59.5,25.,17.5,59.5,27.,17.5,59.5,25.,19.,59.5,27.,19.,61.,        207P    262
25.,19.,61.,27.,19.,62.5,25.,19.,62.5,27.,19.,62.5,25.,17.5,         207P    263
62.5,27.,17.5,62.5,25.,16.,62.5,27.,16.,61.,25.,16.,61.,27.,16.,     207P    264
59.5,25.,16.,59.5,27.,16.,59.5,25.,17.5,59.5,27.,17.5,               207P    265
16.6666666666666,18.,-3.14159265358979,3.14159265358979;             207P    266
128,1,1,1,1,0,0,1,0,0,-0.001,-0.001,3.54100005215406,                209P    267
3.54100005215406,-0.001,-0.001,0.621,0.621,1.,1.,1.,1.,              209P    268
64.2100009536743,25.,-0.21,64.2100009536743,25.,                     209P    269
35.2100005215406,57.9900009536743,25.,-0.21,57.9900009536743,        209P    270
25.,35.2100005215406,-0.001,3.54100005215406,-0.001,0.621;           209P    271
128,1,1,1,1,0,0,1,0,0,-0.00100000000000008,-0.00100000000000008,     211P    272
3.54100005215406,3.54100005215406,-0.001,-0.001,0.621,0.621,1.,      211P    273
1.,1.,1.,5.79000008940697,25.,35.2100005215406,5.79000008940697,     211P    274
25.,-0.209999999999999,12.010000089407,25.,35.2100005215406,         211P    275
12.010000089407,25.,-0.209999999999999,-0.00100000000000008,         211P    276
3.54100005215406,-0.001,0.621;                                       211P    277
128,1,1,1,1,0,0,1,0,0,-0.001,-0.001,4.601,4.601,0.999,0.999,         213P    278
2.701,2.701,1.,1.,1.,1.,11.99,9.99,-1.,58.01,9.99,-1.,11.99,         213P    279
27.01,-1.,58.01,27.01,-1.,-0.001,4.601,0.999,2.701;                  213P    280
128,1,1,1,1,0,0,1,0,0,-0.001,-0.001,0.621,0.621,0.999,0.999,         215P    281
2.501,2.501,1.,1.,1.,1.,5.79000008940697,9.99,-0.2,                  215P    282
12.010000089407,9.99,-0.2,5.79000008940697,25.01,-0.2,               215P    283
12.010000089407,25.01,-0.2,-0.001,0.621,0.999,2.501;                 215P    284
128,1,1,1,1,0,0,1,0,0,-0.001,-0.001,3.54100005215406,                217P    285
3.54100005215406,0.999,0.999,2.501,2.501,1.,1.,1.,1.,                217P    286
5.80000008940697,9.99,35.2100005215406,5.80000008940697,9.99,        217P    287
-0.209999999999999,5.80000008940697,25.01,35.2100005215406,          217P    288
5.80000008940697,25.01,-0.209999999999999,-0.001,                    217P    289
3.54100005215406,0.999,2.501;                                        217P    290
128,1,1,1,1,0,0,1,0,0,-0.00100000894069707,-0.00100000894069707,     219P    291
0.620999991059303,0.620999991059303,0.999,0.999,2.501,2.501,1.,      219P    292
1.,1.,1.,12.010000089407,9.99,35.2000005215406,5.79000008940697,     219P    293
9.99,35.2000005215406,12.010000089407,25.01,35.2000005215406,        219P    294
5.79000008940697,25.01,35.2000005215406,-0.00100000894069707,        219P    295
0.620999991059303,0.999,2.501;                                       219P    296
128,1,1,1,1,0,0,1,0,0,-0.001,-0.001,3.701,3.701,0.999,0.999,         221P    297
2.701,2.701,1.,1.,1.,1.,12.,9.99,36.01,12.,9.99,-1.01,12.,27.01,     221P    298
36.01,12.,27.01,-1.01,-0.001,3.701,0.999,2.701;                      221P    299
128,1,1,1,1,0,0,1,0,0,-0.001,-0.001,4.601,4.601,0.999,0.999,         223P    300
2.701,2.701,1.,1.,1.,1.,58.01,9.99,36.,11.99,9.99,36.,58.01,         223P    301
27.01,36.,11.99,27.01,36.,-0.001,4.601,0.999,2.701;                  223P    302
128,1,1,1,1,0,0,1,0,0,-0.001,-0.001,0.621000095367431,               225P    303
0.621000095367431,0.999,0.999,2.501,2.501,1.,1.,1.,1.,               225P    304
64.2100009536743,9.99,35.2000005215406,57.99,9.99,                   225P    305
35.2000005215406,64.2100009536743,25.01,35.2000005215406,57.99,      225P    306
25.01,35.2000005215406,-0.001,0.621000095367431,0.999,2.501;         225P    307
128,1,1,1,1,0,0,1,0,0,-0.00100000000000001,-0.00100000000000001,     227P    308
3.54100005215406,3.54100005215406,0.999,0.999,2.501,2.501,1.,1.,     227P    309
1.,1.,64.2000009536743,9.99,-0.21,64.2000009536743,9.99,             227P    310
35.2100005215406,64.2000009536743,25.01,-0.21,64.2000009536743,      227P    311
25.01,35.2100005215406,-0.00100000000000001,3.54100005215406,        227P    312
0.999,2.501;                                                         227P    313
128,1,1,1,1,0,0,1,0,0,-0.001,-0.001,0.621000095367431,               229P    314
0.621000095367431,0.999,0.999,2.501,2.501,1.,1.,1.,1.,57.99,         229P    315
9.99,-0.2,64.2100009536743,9.99,-0.2,57.99,25.01,-0.2,               229P    316
64.2100009536743,25.01,-0.2,-0.001,0.621000095367431,0.999,          229P    317
2.501;                                                               229P    318
128,1,1,1,1,0,0,1,0,0,-0.0010000000000001,-0.0010000000000001,       231P    319
3.701,3.701,0.999,0.999,2.701,2.701,1.,1.,1.,1.,58.,9.99,-1.01,      231P    320
58.,9.99,36.01,58.,27.01,-1.01,58.,27.01,36.01,                      231P    321
-0.0010000000000001,3.701,0.999,2.701;                               231P    322
128,1,1,1,1,0,0,1,0,0,-0.001,-0.001,3.90100005215406,                233P    323
3.90100005215406,0.999,0.999,2.701,2.701,1.,1.,1.,1.,                233P    324
66.0000009536743,9.99,37.0100005215406,66.0000009536743,9.99,        233P    325
-2.01,66.0000009536743,27.01,37.0100005215406,66.0000009536743,      233P    326
27.01,-2.01,-0.001,3.90100005215406,0.999,2.701;                     233P    327
128,1,1,1,1,0,0,1,0,0,-0.001,-0.001,6.20100008642674,                235P    328
6.20100008642674,0.999,0.999,2.701,2.701,1.,1.,1.,1.,                235P    329
3.99000008940697,9.99,37.0000005215406,66.0100009536743,9.99,        235P    330
37.0000005215406,3.99000008940697,27.01,37.0000005215406,            235P    331
66.0100009536743,27.01,37.0000005215406,-0.001,6.20100008642674,     235P    332
0.999,2.701;                                                         235P    333
128,1,1,1,1,0,0,1,0,0,-0.001,-0.001,3.90100005215406,                237P    334
3.90100005215406,0.999,0.999,2.701,2.701,1.,1.,1.,1.,                237P    335
4.00000008940697,9.99,-2.01,4.00000008940697,9.99,                   237P    336
37.0100005215406,4.00000008940697,27.01,-2.01,4.00000008940697,      237P    337
27.01,37.0100005215406,-0.001,3.90100005215406,0.999,2.701;          237P    338
128,1,1,1,1,0,0,1,0,0,-0.001,-0.001,6.20100008642674,                239P    339
6.20100008642674,0.999,0.999,2.701,2.701,1.,1.,1.,1.,                239P    340
66.0100009536743,9.99,-2.,3.99000008940696,9.99,-2.,                 239P    341
66.0100009536743,27.01,-2.,3.99000008940696,27.01,-2.,-0.001,        239P    342
6.20100008642674,0.999,2.701;                                        239P    343
128,1,1,1,1,0,0,1,0,0,-1.95100002607703,-1.95100002607703,           241P    344
1.95100002607703,1.95100002607703,-3.10100004321337,                 241P    345
-3.10100004321337,3.10100004321337,3.10100004321337,1.,1.,1.,1.,     241P    346
3.99000008940697,27.,-2.01,3.99000008940697,27.,                     241P    347
37.0100005215406,66.0100009536743,27.,-2.01,66.0100009536743,        241P    348
27.,37.0100005215406,-1.95100002607703,1.95100002607703,             241P    349
-3.10100004321337,3.10100004321337;                                  241P    350
128,1,1,1,1,0,0,1,0,0,-3.10100004321337,-3.10100004321337,           243P    351
3.10100004321337,3.10100004321337,-1.95100002607703,                 243P    352
-1.95100002607703,1.95100002607703,1.95100002607703,1.,1.,1.,1.,     243P    353
66.0100009536743,10.,37.0100005215406,3.99000008940697,10.,          243P    354
37.0100005215406,66.0100009536743,10.,-2.01,3.99000008940697,        243P    355
10.,-2.01,-3.10100004321337,3.10100004321337,-1.95100002607703,      243P    356
1.95100002607703;                                                    243P    357
502,36,7.50000008940697,25.,17.5,7.50000008940697,27.,17.5,59.5,     245P    358
25.,17.5,59.5,27.,17.5,64.2000009536743,25.,35.2000005215406,        245P    359
64.2000009536743,25.,-0.2,58.0000009536743,25.,35.2000005215406,     245P    360
58.0000009536743,25.,-0.2,5.80000008940697,25.,                      245P    361
-0.199999995529652,5.80000008940697,25.,35.2000005215406,            245P    362
12.000000089407,25.,-0.199999995529653,12.000000089407,25.,          245P    363
35.2000005215406,12.,10.,-1.,58.,10.,-1.,58.,27.,-1.,12.,27.,        245P    364
-1.,5.80000008940697,10.,-0.2,12.,10.,-0.2,5.80000008940697,10.,     245P    365
35.2000005215406,12.,10.,35.2000005215406,12.,10.,36.,12.,27.,       245P    366
36.,58.,10.,36.,58.,27.,36.,64.2000009536743,10.,                    245P    367
35.2000005215406,58.,10.,35.2000005215406,64.2000009536743,10.,      245P    368
-0.2,58.,10.,-0.2,66.0000009536743,10.,-2.,66.0000009536743,10.,     245P    369
37.0000005215406,66.0000009536743,27.,-2.,66.0000009536743,27.,      245P    370
37.0000005215406,4.00000008940697,10.,37.0000005215406,              245P    371
4.00000008940697,27.,37.0000005215406,4.00000008940697,10.,-2.,      245P    372
4.00000008940697,27.,-2.;                                            245P    373
504,54,97,245,1,245,1,99,245,1,245,2,101,245,2,245,2,103,245,3,      247P    374
245,3,105,245,3,245,4,107,245,4,245,4,109,245,5,245,6,111,245,7,     247P    375
245,5,113,245,8,245,7,115,245,6,245,8,117,245,9,245,10,119,245,      247P    376
11,245,9,121,245,12,245,11,123,245,10,245,12,125,245,13,245,14,      247P    377
127,245,14,245,15,129,245,16,245,15,131,245,13,245,16,133,245,       247P    378
17,245,9,135,245,17,245,18,137,245,18,245,11,139,245,19,245,10,      247P    379
141,245,19,245,17,143,245,20,245,12,145,245,20,245,19,147,245,       247P    380
21,245,20,149,245,18,245,13,151,245,22,245,16,153,245,21,245,22,     247P    381
155,245,23,245,21,157,245,24,245,22,159,245,23,245,24,161,245,       247P    382
25,245,5,163,245,25,245,26,165,245,26,245,7,167,245,27,245,6,        247P    383
169,245,27,245,25,171,245,28,245,8,173,245,28,245,27,175,245,14,     247P    384
245,28,177,245,26,245,23,179,245,15,245,24,181,245,29,245,30,        247P    385
183,245,29,245,31,185,245,32,245,31,187,245,30,245,32,189,245,       247P    386
30,245,33,191,245,34,245,32,193,245,33,245,34,195,245,33,245,35,     247P    387
197,245,36,245,34,199,245,35,245,36,201,245,35,245,29,203,245,       247P    388
31,245,36;                                                           247P    389
406,1,5HBody1;                                                       249P    390
314,62.7450980392157,62.7450980392157,62.7450980392157,13HSteel      251P    391
- Satin;                                                             251P    392
S      1G      2D    252P    392                                        T      1
