                                                                        S      1
,,14HUntitled v2 v1,14HUntitled v2 v1,7Hunknown,7Hunknown,32,38,7,99,15,G      1
,1.,2,2HMM,1,0.08,15H20211012.212239,0.01,10000.,7Hunknown,7Hunknown,11,G      2
0,15H20180621.005738;                                                   G      3
     186       1                                                00000000D      1
     186            -127       1       0                               0D      2
     514       2                                                00010000D      3
     514                       1       1                               0D      4
     510       3                                                00010000D      5
     510            -127       1       1                               0D      6
     510       4                                                00010000D      7
     510            -127       1       1                               0D      8
     510       5                                                00010000D      9
     510            -127       1       1                               0D     10
     510       6                                                00010000D     11
     510            -127       1       1                               0D     12
     510       7                                                00010000D     13
     510            -127       1       1                               0D     14
     510       8                                                00010000D     15
     510            -127       1       1                               0D     16
     510       9                                                00010000D     17
     510            -127       1       1                               0D     18
     510      10                                                00010000D     19
     510            -127       1       1                               0D     20
     510      11                                                00010000D     21
     510            -127       1       1                               0D     22
     510      12                                                00010000D     23
     510            -127       1       1                               0D     24
     510      13                                                00010000D     25
     510            -127       1       1                               0D     26
     508      14                                                00010000D     27
     508                       1       1                               0D     28
     508      15                                                00010000D     29
     508                       1       1                               0D     30
     508      16                                                00010000D     31
     508                       1       1                               0D     32
     508      17                                                00010000D     33
     508                       1       1                               0D     34
     508      18                                                00010000D     35
     508                       1       1                               0D     36
     508      19                                                00010000D     37
     508                       1       1                               0D     38
     508      20                                                00010000D     39
     508                       1       1                               0D     40
     508      21                                                00010000D     41
     508                       1       1                               0D     42
     508      22                                                00010000D     43
     508                       1       1                               0D     44
     508      23                                                00010000D     45
     508                       1       1                               0D     46
     508      24                                                00010000D     47
     508                       1       1                               0D     48
     508      25                                                00010000D     49
     508                       1       1                               0D     50
     126      26                                                00010000D     51
     126       0               3       0                               0D     52
     126      29                                                00010000D     53
     126       0               3       0                               0D     54
     126      32                                                00010000D     55
     126       0               3       0                               0D     56
     126      35                                                00010000D     57
     126       0               3       0                               0D     58
     126      38                                                00010000D     59
     126       0               3       0                               0D     60
     126      41                                                00010000D     61
     126       0               3       0                               0D     62
     126      44                                                00010000D     63
     126       0               3       0                               0D     64
     126      47                                                00010000D     65
     126       0               3       0                               0D     66
     126      50                                                00010000D     67
     126       0               3       0                               0D     68
     126      53                                                00010000D     69
     126       0               3       0                               0D     70
     126      56                                                00010000D     71
     126       0               3       0                               0D     72
     126      59                                                00010000D     73
     126       0               3       0                               0D     74
     126      62                                                00010000D     75
     126       0               3       0                               0D     76
     126      65                                                00010000D     77
     126       0               3       0                               0D     78
     126      68                                                00010000D     79
     126       0               3       0                               0D     80
     126      71                                                00010000D     81
     126       0               3       0                               0D     82
     126      74                                                00010000D     83
     126       0               3       0                               0D     84
     126      77                                                00010000D     85
     126       0               3       0                               0D     86
     126      80                                                00010000D     87
     126       0               3       0                               0D     88
     126      83                                                00010000D     89
     126       0               3       0                               0D     90
     126      86                                                00010000D     91
     126       0               3       0                               0D     92
     126      89                                                00010000D     93
     126       0               3       0                               0D     94
     126      92                                                00010000D     95
     126       0               3       0                               0D     96
     126      95                                                00010000D     97
     126       0               3       0                               0D     98
     128      98                                                00010000D     99
     128       0    -127       6       0                               0D    100
     128     104                                                00010000D    101
     128       0    -127       6       0                               0D    102
     128     110                                                00010000D    103
     128       0    -127       7       0                               0D    104
     128     117                                                00010000D    105
     128       0    -127       7       0                               0D    106
     128     124                                                00010000D    107
     128       0    -127       5       0                               0D    108
     128     129                                                00010000D    109
     128       0    -127       5       0                               0D    110
     128     134                                                00010000D    111
     128       0    -127       5       0                               0D    112
     128     139                                                00010000D    113
     128       0    -127       6       0                               0D    114
     128     145                                                00010000D    115
     128       0    -127       5       0                               0D    116
     128     150                                                00010000D    117
     128       0    -127       5       0                               0D    118
     128     155                                                00010000D    119
     128       0    -127       5       0                               0D    120
     502     160                                                00010000D    121
     502                      11       1                               0D    122
     504     171                                                00010001D    123
     504                       7       1                               0D    124
     406     178                                                00000000D    125
     406                       1      15                               0D    126
     314     179                                                00000200D    127
     314                       2       0                               0D    128
186,3,1,0,0,1,125;                                                     1P      1
514,11,5,1,7,1,9,1,11,1,13,1,15,1,17,1,19,1,21,1,23,1,25,1;            3P      2
510,99,1,1,27;                                                         5P      3
510,101,1,1,29;                                                        7P      4
510,103,1,1,31;                                                        9P      5
510,105,1,1,33;                                                       11P      6
510,107,1,1,35;                                                       13P      7
510,109,1,1,37;                                                       15P      8
510,111,1,1,39;                                                       17P      9
510,113,1,1,41;                                                       19P     10
510,115,2,1,43,45;                                                    21P     11
510,117,1,1,47;                                                       23P     12
510,119,1,1,49;                                                       25P     13
508,4,0,123,1,0,0,0,123,2,1,0,0,123,3,0,0,0,123,4,0,0;                27P     14
508,4,0,123,5,0,0,0,123,6,1,0,0,123,7,0,0,0,123,2,0,0;                29P     15
508,4,0,123,8,0,0,0,123,4,1,0,0,123,9,0,0,0,123,10,0,0;               31P     16
508,4,0,123,11,0,0,0,123,10,1,0,0,123,12,0,0,0,123,6,0,0;             33P     17
508,4,0,123,13,0,0,0,123,14,1,0,0,123,15,0,0,0,123,16,0,0;            35P     18
508,4,0,123,17,0,0,0,123,16,1,0,0,123,18,0,0,0,123,19,0,0;            37P     19
508,4,0,123,20,0,0,0,123,19,1,0,0,123,21,0,0,0,123,22,0,0;            39P     20
508,4,0,123,23,0,0,0,123,22,1,0,0,123,24,0,0,0,123,14,0,0;            41P     21
508,4,0,123,24,1,0,0,123,21,1,0,0,123,18,1,0,0,123,15,1,0;            43P     22
508,4,0,123,7,1,0,0,123,12,1,0,0,123,9,1,0,0,123,3,1,0;               45P     23
508,4,0,123,5,1,0,0,123,1,1,0,0,123,8,1,0,0,123,11,1,0;               47P     24
508,4,0,123,23,1,0,0,123,13,1,0,0,123,17,1,0,0,123,20,1,0;            49P     25
126,1,1,0,0,1,0,0.,0.,12.85,12.85,1.,1.,170.573844021118,1.,          51P     26
100.083533651003,170.573844021118,1.,-28.4164663489966,0.,12.85,      51P     27
0.,0.,0.;                                                             51P     28
126,1,1,0,0,1,0,0.1,0.1,10.6,10.6,1.,1.,170.573844021118,1.,          53P     29
100.083533651003,170.573844021118,106.,100.083533651003,0.1,          53P     30
10.6,0.,0.,0.;                                                        53P     31
126,1,1,0,0,1,0,-12.85,-12.85,0.,0.,1.,1.,170.573844021118,106.,      55P     32
-28.4164663489966,170.573844021118,106.,100.083533651003,-12.85,      55P     33
0.,0.,0.,0.;                                                          55P     34
126,1,1,0,0,1,0,0.1,0.1,10.6,10.6,1.,1.,170.573844021118,1.,          57P     35
-28.4164663489966,170.573844021118,106.,-28.4164663489966,0.1,        57P     36
10.6,0.,0.,0.;                                                        57P     37
126,1,1,0,0,1,0,0.,0.,21.336,21.336,1.,1.,-42.7861559788816,1.,       59P     38
100.083533651003,170.573844021118,1.,100.083533651003,0.,21.336,      59P     39
0.,0.,0.;                                                             59P     40
126,1,1,0,0,1,0,0.1,0.1,10.6,10.6,1.,1.,-42.7861559788816,1.,         61P     41
100.083533651003,-42.7861559788816,106.,100.083533651003,0.1,         61P     42
10.6,0.,0.,0.;                                                        61P     43
126,1,1,0,0,1,0,-21.336,-21.336,0.,0.,1.,1.,170.573844021118,         63P     44
106.,100.083533651003,-42.7861559788816,106.,100.083533651003,        63P     45
-21.336,0.,0.,0.,0.;                                                  63P     46
126,1,1,0,0,1,0,0.,0.,21.336,21.336,1.,1.,170.573844021118,1.,        65P     47
-28.4164663489966,-42.7861559788816,1.,-28.4164663489966,0.,          65P     48
21.336,0.,0.,0.;                                                      65P     49
126,1,1,0,0,1,0,-21.336,-21.336,0.,0.,1.,1.,-42.7861559788816,        67P     50
106.,-28.4164663489966,170.573844021118,106.,-28.4164663489966,       67P     51
-21.336,0.,0.,0.,0.;                                                  67P     52
126,1,1,0,0,1,0,0.1,0.1,10.6,10.6,1.,1.,-42.7861559788816,1.,         69P     53
-28.4164663489966,-42.7861559788816,106.,-28.4164663489966,0.1,       69P     54
10.6,0.,0.,0.;                                                        69P     55
126,1,1,0,0,1,0,0.,0.,12.85,12.85,1.,1.,-42.7861559788816,1.,         71P     56
-28.4164663489966,-42.7861559788816,1.,100.083533651003,0.,           71P     57
12.85,0.,0.,0.;                                                       71P     58
126,1,1,0,0,1,0,-12.85,-12.85,0.,0.,1.,1.,-42.7861559788816,          73P     59
106.,100.083533651003,-42.7861559788816,106.,-28.4164663489966,       73P     60
-12.85,0.,0.,0.,0.;                                                   73P     61
126,1,1,0,0,1,0,0.,0.,13.05,13.05,1.,1.,-43.7861559788816,0.,         75P     62
101.083533651003,-43.7861559788816,0.,-29.4164663489966,0.,           75P     63
13.05,0.,0.,0.;                                                       75P     64
126,1,1,0,0,1,0,0.,0.,10.6,10.6,1.,1.,-43.7861559788816,0.,           77P     65
101.083533651003,-43.7861559788816,106.,101.083533651003,0.,          77P     66
10.6,0.,0.,0.;                                                        77P     67
126,1,1,0,0,1,0,-13.05,-13.05,0.,0.,1.,1.,-43.7861559788816,          79P     68
106.,-29.4164663489966,-43.7861559788816,106.,101.083533651003,       79P     69
-13.05,0.,0.,0.,0.;                                                   79P     70
126,1,1,0,0,1,0,0.,0.,10.6,10.6,1.,1.,-43.7861559788816,0.,           81P     71
-29.4164663489966,-43.7861559788816,106.,-29.4164663489966,0.,        81P     72
10.6,0.,0.,0.;                                                        81P     73
126,1,1,0,0,1,0,0.,0.,21.536,21.536,1.,1.,-43.7861559788816,0.,       83P     74
-29.4164663489966,171.573844021118,0.,-29.4164663489966,0.,           83P     75
21.536,0.,0.,0.;                                                      83P     76
126,1,1,0,0,1,0,-21.536,-21.536,0.,0.,1.,1.,171.573844021118,         85P     77
106.,-29.4164663489966,-43.7861559788816,106.,-29.4164663489966,      85P     78
-21.536,0.,0.,0.,0.;                                                  85P     79
126,1,1,0,0,1,0,0.,0.,10.6,10.6,1.,1.,171.573844021118,0.,            87P     80
-29.4164663489966,171.573844021118,106.,-29.4164663489966,0.,         87P     81
10.6,0.,0.,0.;                                                        87P     82
126,1,1,0,0,1,0,0.,0.,13.05,13.05,1.,1.,171.573844021118,0.,          89P     83
-29.4164663489966,171.573844021118,0.,101.083533651003,0.,13.05,      89P     84
0.,0.,0.;                                                             89P     85
126,1,1,0,0,1,0,-13.05,-13.05,0.,0.,1.,1.,171.573844021118,106.,      91P     86
101.083533651003,171.573844021118,106.,-29.4164663489966,-13.05,      91P     87
0.,0.,0.,0.;                                                          91P     88
126,1,1,0,0,1,0,0.,0.,10.6,10.6,1.,1.,171.573844021118,0.,            93P     89
101.083533651003,171.573844021118,106.,101.083533651003,0.,10.6,      93P     90
0.,0.,0.;                                                             93P     91
126,1,1,0,0,1,0,0.,0.,21.536,21.536,1.,1.,171.573844021118,0.,        95P     92
101.083533651003,-43.7861559788816,0.,101.083533651003,0.,            95P     93
21.536,0.,0.,0.;                                                      95P     94
126,1,1,0,0,1,0,-21.536,-21.536,0.,0.,1.,1.,-43.7861559788816,        97P     95
106.,101.083533651003,171.573844021118,106.,101.083533651003,         97P     96
-21.536,0.,0.,0.,0.;                                                  97P     97
128,1,1,1,1,0,0,1,0,0,-0.001,-0.001,12.851,12.851,                    99P     98
0.0989999999999996,0.0989999999999996,10.601,10.601,1.,1.,1.,1.,      99P     99
170.573844021118,0.989999999999996,-28.4264663489966,                 99P    100
170.573844021118,0.989999999999996,100.093533651003,                  99P    101
170.573844021118,106.01,-28.4264663489966,170.573844021118,           99P    102
106.01,100.093533651003,-0.001,12.851,0.0989999999999996,10.601;      99P    103
128,1,1,1,1,0,0,1,0,0,-0.001,-0.001,21.337,21.337,                   101P    104
0.0989999999999996,0.0989999999999996,10.601,10.601,1.,1.,1.,1.,     101P    105
170.583844021118,0.989999999999996,100.083533651003,                 101P    106
-42.7961559788816,0.989999999999996,100.083533651003,                101P    107
170.583844021118,106.01,100.083533651003,-42.7961559788816,          101P    108
106.01,100.083533651003,-0.001,21.337,0.0989999999999996,10.601;     101P    109
128,1,1,1,1,0,0,1,0,0,-0.001,-0.001,21.337,21.337,                   103P    110
0.0989999999999996,0.0989999999999996,10.601,10.601,1.,1.,1.,1.,     103P    111
-42.7961559788816,0.989999999999996,-28.4164663489966,               103P    112
170.583844021118,0.989999999999996,-28.4164663489966,                103P    113
-42.7961559788816,106.01,-28.4164663489966,170.583844021118,         103P    114
106.01,-28.4164663489966,-0.001,21.337,0.0989999999999996,           103P    115
10.601;                                                              103P    116
128,1,1,1,1,0,0,1,0,0,-0.001,-0.001,12.851,12.851,                   105P    117
0.0989999999999996,0.0989999999999996,10.601,10.601,1.,1.,1.,1.,     105P    118
-42.7861559788816,0.989999999999996,100.093533651003,                105P    119
-42.7861559788816,0.989999999999996,-28.4264663489966,               105P    120
-42.7861559788816,106.01,100.093533651003,-42.7861559788816,         105P    121
106.01,-28.4264663489966,-0.001,12.851,0.0989999999999996,           105P    122
10.601;                                                              105P    123
128,1,1,1,1,0,0,1,0,0,-0.001,-0.001,13.051,13.051,-0.001,-0.001,     107P    124
10.601,10.601,1.,1.,1.,1.,-43.7861559788816,-0.01,                   107P    125
-29.4264663489966,-43.7861559788816,-0.01,101.093533651003,          107P    126
-43.7861559788816,106.01,-29.4264663489966,-43.7861559788816,        107P    127
106.01,101.093533651003,-0.001,13.051,-0.001,10.601;                 107P    128
128,1,1,1,1,0,0,1,0,0,-0.001,-0.001,21.537,21.537,-0.001,-0.001,     109P    129
10.601,10.601,1.,1.,1.,1.,171.583844021118,-0.01,                    109P    130
-29.4164663489966,-43.7961559788816,-0.01,-29.4164663489966,         109P    131
171.583844021118,106.01,-29.4164663489966,-43.7961559788816,         109P    132
106.01,-29.4164663489966,-0.001,21.537,-0.001,10.601;                109P    133
128,1,1,1,1,0,0,1,0,0,-0.001,-0.001,13.051,13.051,-0.001,-0.001,     111P    134
10.601,10.601,1.,1.,1.,1.,171.573844021118,-0.01,                    111P    135
101.093533651003,171.573844021118,-0.01,-29.4264663489966,           111P    136
171.573844021118,106.01,101.093533651003,171.573844021118,           111P    137
106.01,-29.4264663489966,-0.001,13.051,-0.001,10.601;                111P    138
128,1,1,1,1,0,0,1,0,0,-0.00100000000000178,-0.00100000000000178,     113P    139
21.537,21.537,-0.001,-0.001,10.601,10.601,1.,1.,1.,1.,               113P    140
-43.7961559788816,-0.01,101.083533651003,171.583844021118,-0.01,     113P    141
101.083533651003,-43.7961559788816,106.01,101.083533651003,          113P    142
171.583844021118,106.01,101.083533651003,-0.00100000000000178,       113P    143
21.537,-0.001,10.601;                                                113P    144
128,1,1,1,1,0,0,1,0,0,-6.526,-6.526,6.526,6.526,-10.769,-10.769,     115P    145
10.769,10.769,1.,1.,1.,1.,-43.7961559788816,106.,                    115P    146
-29.4264663489966,-43.7961559788816,106.,101.093533651003,           115P    147
171.583844021118,106.,-29.4264663489966,171.583844021118,106.,       115P    148
101.093533651003,-6.526,6.526,-10.769,10.769;                        115P    149
128,1,1,1,1,0,0,1,0,0,-6.426,-6.426,6.426,6.426,-10.669,-10.669,     117P    150
10.669,10.669,1.,1.,1.,1.,-42.7961559788816,1.,                      117P    151
-28.4264663489966,-42.7961559788816,1.,100.093533651003,             117P    152
170.583844021118,1.,-28.4264663489966,170.583844021118,1.,           117P    153
100.093533651003,-6.426,6.426,-10.669,10.669;                        117P    154
128,1,1,1,1,0,0,1,0,0,-10.769,-10.769,10.769,10.769,-6.526,          119P    155
-6.526,6.526,6.526,1.,1.,1.,1.,171.583844021118,0.,                  119P    156
101.093533651003,-43.7961559788816,0.,101.093533651003,              119P    157
171.583844021118,0.,-29.4264663489966,-43.7961559788816,0.,          119P    158
-29.4264663489966,-10.769,10.769,-6.526,6.526;                       119P    159
502,16,170.573844021118,1.,100.083533651003,170.573844021118,1.,     121P    160
-28.4164663489966,170.573844021118,106.,100.083533651003,            121P    161
170.573844021118,106.,-28.4164663489966,-42.7861559788816,1.,        121P    162
100.083533651003,-42.7861559788816,106.,100.083533651003,            121P    163
-42.7861559788816,1.,-28.4164663489966,-42.7861559788816,106.,       121P    164
-28.4164663489966,-43.7861559788816,0.,101.083533651003,             121P    165
-43.7861559788816,0.,-29.4164663489966,-43.7861559788816,106.,       121P    166
101.083533651003,-43.7861559788816,106.,-29.4164663489966,           121P    167
171.573844021118,0.,-29.4164663489966,171.573844021118,106.,         121P    168
-29.4164663489966,171.573844021118,0.,101.083533651003,              121P    169
171.573844021118,106.,101.083533651003;                              121P    170
504,24,51,121,1,121,2,53,121,1,121,3,55,121,4,121,3,57,121,2,        123P    171
121,4,59,121,5,121,1,61,121,5,121,6,63,121,3,121,6,65,121,2,121,     123P    172
7,67,121,8,121,4,69,121,7,121,8,71,121,7,121,5,73,121,6,121,8,       123P    173
75,121,9,121,10,77,121,9,121,11,79,121,12,121,11,81,121,10,121,      123P    174
12,83,121,10,121,13,85,121,14,121,12,87,121,13,121,14,89,121,13,     123P    175
121,15,91,121,16,121,14,93,121,15,121,16,95,121,15,121,9,97,121,     123P    176
11,121,16;                                                           123P    177
406,1,5HBody1;                                                       125P    178
314,62.7450980392157,62.7450980392157,62.7450980392157,13HSteel      127P    179
- Satin;                                                             127P    180
S      1G      3D    128P    180                                        T      1
