0
SECTION
2
HEADER
9
$INSUNITS
70
4
9
$ACADVER
1
AC1014
9
$HANDSEED
5
FFFF
0
ENDSEC
0
SECTION
2
TABLES
0
TABLE
2
VPORT
5
8
100
AcDbSymbolTable
0
ENDTAB
0
TABLE
2
LTYPE
5
5
100
AcDbSymbolTable
0
LTYPE
5
14
100
AcDbSymbolTableRecord
100
AcDbLinetypeTableRecord
2
BYBLOCK
70
0
0
LTYPE
5
15
100
AcDbSymbolTableRecord
100
AcDbLinetypeTableRecord
2
BYLAYER
70
0
0
ENDTAB
0
TABLE
2
LAYER
5
2
100
AcDbSymbolTable
70
2
0
LAYER
5
50
100
AcDbSymbolTableRecord
100
AcDbLayerTableRecord
2
0
70
0
6
CONTINUOUS
0
ENDTAB
0
TABLE
2
STYLE
5
3
100
AcDbSymbolTable
70
1
0
STYLE
5
11
100
AcDbSymbolTableRecord
100
AcDbTextStyleTableRecord
2
STANDARD
70
0
0
ENDTAB
0
TABLE
2
VIEW
5
6
100
AcDbSymbolTable
70
0
0
ENDTAB
0
TABLE
2
UCS
5
7
100
AcDbSymbolTable
70
0
0
ENDTAB
0
TABLE
2
APPID
5
9
100
AcDbSymbolTable
70
2
0
APPID
5
12
100
AcDbSymbolTableRecord
100
AcDbRegAppTableRecord
2
ACAD
70
0
0
ENDTAB
0
TABLE
2
DIMSTYLE
5
A
100
AcDbSymbolTable
70
1
0
ENDTAB
0
TABLE
2
BLOCK_RECORD
5
1
100
AcDbSymbolTable
70
1
0
BLOCK_RECORD
5
1F
100
AcDbSymbolTableRecord
100
AcDbBlockTableRecord
2
*MODEL_SPACE
0
BLOCK_RECORD
5
1B
100
AcDbSymbolTableRecord
100
AcDbBlockTableRecord
2
*PAPER_SPACE
0
ENDTAB
0
ENDSEC
0
SECTION
2
BLOCKS
0
BLOCK
5
20
100
AcDbEntity
100
AcDbBlockBegin
2
*MODEL_SPACE
0
ENDBLK
5
21
100
AcDbEntity
100
AcDbBlockEnd
0
BLOCK
5
1C
100
AcDbEntity
100
AcDbBlockBegin
2
*PAPER_SPACE
0
ENDBLK
5
1D
100
AcDbEntity
100
AcDbBlockEnd
0
ENDSEC
0
SECTION
2
ENTITIES
0
LINE
5
100
100
AcDbEntity
8
0
100
AcDbLine
10
0
20
0
30
0
11
30
21
0
31
0
0
LINE
5
101
100
AcDbEntity
8
0
100
AcDbLine
10
30
20
0
30
0
11
30
21
-36.5
31
0
0
LINE
5
102
100
AcDbEntity
8
0
100
AcDbLine
10
30
20
-36.5
30
0
11
0
21
-36.5
31
0
0
LINE
5
103
100
AcDbEntity
8
0
100
AcDbLine
10
0
20
-36.5
30
0
11
0
21
0
31
0
0
LINE
5
104
100
AcDbEntity
8
0
100
AcDbLine
10
0
20
0
30
0
11
6.5
21
0
31
0
0
LINE
5
105
100
AcDbEntity
8
0
100
AcDbLine
10
6.5
20
0
30
0
11
6.4999999999999982
21
-36.5
31
0
0
LINE
5
106
100
AcDbEntity
8
0
100
AcDbLine
10
6.5
20
0
30
0
11
7.75
21
0
31
0
0
LINE
5
107
100
AcDbEntity
8
0
100
AcDbLine
10
7.75
20
0
30
0
11
7.7499999999999982
21
-36.5
31
0
0
LINE
5
108
100
AcDbEntity
8
0
100
AcDbLine
10
7.75
20
0
30
0
11
15
21
0
31
0
0
LINE
5
109
100
AcDbEntity
8
0
100
AcDbLine
10
7.75
20
0
30
0
11
15
21
0
31
0
0
LINE
5
110
100
AcDbEntity
8
0
100
AcDbLine
10
0
20
-36.5
30
0
11
18.5
21
-36.5
31
0
0
LINE
5
111
100
AcDbEntity
8
0
100
AcDbLine
10
18.5
20
-36.5
30
0
11
18.5
21
0
31
0
0
LINE
5
112
100
AcDbEntity
8
0
100
AcDbLine
10
30
20
-18.25
30
0
11
30
21
-11.750000000000004
31
0
0
LINE
5
113
100
AcDbEntity
8
0
100
AcDbLine
10
30
20
-11.750000000000004
30
0
11
28.332876635676438
21
-11.750000000000004
31
0
0
LINE
5
114
100
AcDbEntity
8
0
100
AcDbLine
10
28.332876635676438
20
-11.750000000000004
30
0
11
28.332876635676438
21
-24.750000000000007
31
0
0
LINE
5
115
100
AcDbEntity
8
0
100
AcDbLine
10
28.332876635676438
20
-24.750000000000007
30
0
11
30
21
-24.750000000000007
31
0
0
LINE
5
116
100
AcDbEntity
8
0
100
AcDbLine
10
30
20
-24.750000000000007
30
0
11
30
21
-11.750000000000004
31
0
0
LINE
5
117
100
AcDbEntity
8
0
100
AcDbLine
10
28.332876635676438
20
-11.750000000000004
30
0
11
31.332876635676435
21
-11.750000000000004
31
0
0
LINE
5
118
100
AcDbEntity
8
0
100
AcDbLine
10
31.332876635676435
20
-11.750000000000004
30
0
11
31.332876635676435
21
-24.750000000000007
31
0
0
LINE
5
119
100
AcDbEntity
8
0
100
AcDbLine
10
31.332876635676435
20
-24.750000000000007
30
0
11
28.332876635676438
21
-24.750000000000007
31
0
0
LINE
5
120
100
AcDbEntity
8
0
100
AcDbLine
10
28.332876635676438
20
-24.750000000000007
30
0
11
28.332876635676438
21
-11.750000000000004
31
0
0
LINE
5
121
100
AcDbEntity
8
0
100
AcDbLine
10
6.5
20
0
30
0
11
7.75
21
0
31
0
0
LINE
5
122
100
AcDbEntity
8
0
100
AcDbLine
10
7.75
20
0
30
0
11
7.75
21
-1
31
0
0
LINE
5
123
100
AcDbEntity
8
0
100
AcDbLine
10
7.75
20
-1
30
0
11
6.5
21
-1
31
0
0
LINE
5
124
100
AcDbEntity
8
0
100
AcDbLine
10
6.5
20
-1
30
0
11
6.5
21
0
31
0
0
LINE
5
125
100
AcDbEntity
8
0
100
AcDbLine
10
7.7499999999999982
20
-36.5
30
0
11
6.4999999999999991
21
-36.5
31
0
0
LINE
5
126
100
AcDbEntity
8
0
100
AcDbLine
10
6.4999999999999991
20
-36.5
30
0
11
6.4999999999999991
21
-35.5
31
0
0
LINE
5
127
100
AcDbEntity
8
0
100
AcDbLine
10
6.4999999999999991
20
-35.5
30
0
11
7.7499999999999982
21
-35.5
31
0
0
LINE
5
128
100
AcDbEntity
8
0
100
AcDbLine
10
7.7499999999999982
20
-35.5
30
0
11
7.7499999999999982
21
-36.5
31
0
0
ARC
5
129
100
AcDbEntity
8
0
100
AcDbCircle
10
14.926630434782606
20
-15.000000000000002
30
0
40
15.419759078844976
210
-0
220
0
230
1
100
AcDbArc
50
-12.167394033025133
51
76.600486150176394
0
ARC
5
130
100
AcDbEntity
8
0
100
AcDbCircle
10
14.926630434782609
20
-21.500000000000004
30
0
40
15.419759078844972
210
0
220
0
230
1
100
AcDbArc
50
-76.60048615017638
51
12.167394033025142
0
ENDSEC
0
SECTION
2
OBJECTS
0
DICTIONARY
5
C
100
AcDbDictionary
3
ACAD_GROUP
350
D
3
ACAD_MLINESTYLE
350
17
0
DICTIONARY
5
D
100
AcDbDictionary
0
DICTIONARY
5
1A
330
C
100
AcDbDictionary
0
DICTIONARY
5
17
100
AcDbDictionary
0
ENDSEC
0
EOF
