0
SECTION
2
HEADER
9
$INSUNITS
70
4
9
$ACADVER
1
AC1014
9
$HANDSEED
5
FFFF
0
ENDSEC
0
SECTION
2
TABLES
0
TABLE
2
VPORT
5
8
100
AcDbSymbolTable
0
ENDTAB
0
TABLE
2
LTYPE
5
5
100
AcDbSymbolTable
0
LTYPE
5
14
100
AcDbSymbolTableRecord
100
AcDbLinetypeTableRecord
2
BYBLOCK
70
0
0
LTYPE
5
15
100
AcDbSymbolTableRecord
100
AcDbLinetypeTableRecord
2
BYLAYER
70
0
0
ENDTAB
0
TABLE
2
LAYER
5
2
100
AcDbSymbolTable
70
2
0
LAYER
5
50
100
AcDbSymbolTableRecord
100
AcDbLayerTableRecord
2
0
70
0
6
CONTINUOUS
0
ENDTAB
0
TABLE
2
STYLE
5
3
100
AcDbSymbolTable
70
1
0
STYLE
5
11
100
AcDbSymbolTableRecord
100
AcDbTextStyleTableRecord
2
STANDARD
70
0
0
ENDTAB
0
TABLE
2
VIEW
5
6
100
AcDbSymbolTable
70
0
0
ENDTAB
0
TABLE
2
UCS
5
7
100
AcDbSymbolTable
70
0
0
ENDTAB
0
TABLE
2
APPID
5
9
100
AcDbSymbolTable
70
2
0
APPID
5
12
100
AcDbSymbolTableRecord
100
AcDbRegAppTableRecord
2
ACAD
70
0
0
ENDTAB
0
TABLE
2
DIMSTYLE
5
A
100
AcDbSymbolTable
70
1
0
ENDTAB
0
TABLE
2
BLOCK_RECORD
5
1
100
AcDbSymbolTable
70
1
0
BLOCK_RECORD
5
1F
100
AcDbSymbolTableRecord
100
AcDbBlockTableRecord
2
*MODEL_SPACE
0
BLOCK_RECORD
5
1B
100
AcDbSymbolTableRecord
100
AcDbBlockTableRecord
2
*PAPER_SPACE
0
ENDTAB
0
ENDSEC
0
SECTION
2
BLOCKS
0
BLOCK
5
20
100
AcDbEntity
100
AcDbBlockBegin
2
*MODEL_SPACE
0
ENDBLK
5
21
100
AcDbEntity
100
AcDbBlockEnd
0
BLOCK
5
1C
100
AcDbEntity
100
AcDbBlockBegin
2
*PAPER_SPACE
0
ENDBLK
5
1D
100
AcDbEntity
100
AcDbBlockEnd
0
ENDSEC
0
SECTION
2
ENTITIES
0
LINE
5
100
100
AcDbEntity
8
0
100
AcDbLine
10
30
20
0
30
0
11
31.332876635676435
21
0
31
0
0
LINE
5
101
100
AcDbEntity
8
0
100
AcDbLine
10
31.332876635676435
20
0
30
0
11
31.332876635676435
21
100
31
0
0
LINE
5
102
100
AcDbEntity
8
0
100
AcDbLine
10
31.332876635676435
20
100
30
0
11
24.826573831649696
21
100
31
0
0
SPLINE
5
103
100
AcDbEntity
8
0
100
AcDbSpline
70
0
71
3
72
22
73
18
74
0
42
0.000000001
43
0.0000000001
44
0.0000000001
40
2.3094145548804872
40
2.3094145548804872
40
2.3094145548804872
40
2.3094145548804872
40
2.4073780871427908
40
2.4073780871427908
40
2.5053416194050944
40
2.5053416194050944
40
2.6000118665695
40
2.6000118665695
40
2.6946821137339056
40
2.6946821137339056
40
2.7874279965983257
40
2.7874279965983257
40
2.8801738794627454
40
2.8801738794627454
40
2.9718484092852293
40
2.9718484092852293
40
3.0635229391077137
40
3.0635229391077137
40
3.0635229391077137
40
3.0635229391077137
10
24.826573831649696
20
100
30
0
10
25.153118939190708
20
100
30
0
10
25.509993597606339
20
99.969226421472058
30
0
10
26.20942798244544
20
99.834346304591918
30
0
10
26.551970134343637
20
99.730148647736144
30
0
10
27.146734306181042
20
99.488148299547959
30
0
10
27.454617714845938
20
99.330040545526288
30
0
10
28.030127970323594
20
98.952649127521042
30
0
10
28.297721675728766
20
98.733314926334003
30
0
10
28.742633701243982
20
98.294761726030799
30
0
10
28.961797747813108
20
98.036097971125841
30
0
10
29.340104534961281
20
97.478154265467637
30
0
10
29.499219737854368
20
97.178855643625042
30
0
10
29.736844383852137
20
96.611904772728735
30
0
10
29.837861207391221
20
96.292410033083826
30
0
10
29.969444172395168
20
95.639249568629211
30
0
10
30
20
95.305581766074965
30
0
10
30
20
95
30
0
0
LINE
5
104
100
AcDbEntity
8
0
100
AcDbLine
10
29.999999999999996
20
94.999999999999986
30
0
11
30
21
0
31
0
0
LINE
5
105
100
AcDbEntity
8
0
100
AcDbLine
10
31.332876635676435
20
100
30
0
11
25
21
100
31
0
0
LINE
5
106
100
AcDbEntity
8
0
100
AcDbLine
10
25
20
100
30
0
11
25
21
94
31
0
0
LINE
5
107
100
AcDbEntity
8
0
100
AcDbLine
10
25
20
94
30
0
11
31.332876635676435
21
94
31
0
0
LINE
5
108
100
AcDbEntity
8
0
100
AcDbLine
10
31.332876635676435
20
94
30
0
11
31.332876635676435
21
100
31
0
0
LINE
5
109
100
AcDbEntity
8
0
100
AcDbLine
10
31.332876635676435
20
94
30
0
11
30.000000447034836
21
94
31
0
0
LINE
5
110
100
AcDbEntity
8
0
100
AcDbLine
10
30.000000447034836
20
94
30
0
11
30.000000447034836
21
95.5
31
0
0
LINE
5
111
100
AcDbEntity
8
0
100
AcDbLine
10
30.000000447034836
20
95.5
30
0
11
31.332876635676435
21
95.5
31
0
0
LINE
5
112
100
AcDbEntity
8
0
100
AcDbLine
10
31.332876635676435
20
95.5
30
0
11
31.332876635676435
21
94
31
0
0
ENDSEC
0
SECTION
2
OBJECTS
0
DICTIONARY
5
C
100
AcDbDictionary
3
ACAD_GROUP
350
D
3
ACAD_MLINESTYLE
350
17
0
DICTIONARY
5
D
100
AcDbDictionary
0
DICTIONARY
5
1A
330
C
100
AcDbDictionary
0
DICTIONARY
5
17
100
AcDbDictionary
0
ENDSEC
0
EOF
