0
SECTION
2
HEADER
9
$INSUNITS
70
4
9
$ACADVER
1
AC1014
9
$HANDSEED
5
FFFF
0
ENDSEC
0
SECTION
2
TABLES
0
TABLE
2
VPORT
5
8
100
AcDbSymbolTable
0
ENDTAB
0
TABLE
2
LTYPE
5
5
100
AcDbSymbolTable
0
LTYPE
5
14
100
AcDbSymbolTableRecord
100
AcDbLinetypeTableRecord
2
BYBLOCK
70
0
0
LTYPE
5
15
100
AcDbSymbolTableRecord
100
AcDbLinetypeTableRecord
2
BYLAYER
70
0
0
ENDTAB
0
TABLE
2
LAYER
5
2
100
AcDbSymbolTable
70
2
0
LAYER
5
50
100
AcDbSymbolTableRecord
100
AcDbLayerTableRecord
2
0
70
0
6
CONTINUOUS
0
ENDTAB
0
TABLE
2
STYLE
5
3
100
AcDbSymbolTable
70
1
0
STYLE
5
11
100
AcDbSymbolTableRecord
100
AcDbTextStyleTableRecord
2
STANDARD
70
0
0
ENDTAB
0
TABLE
2
VIEW
5
6
100
AcDbSymbolTable
70
0
0
ENDTAB
0
TABLE
2
UCS
5
7
100
AcDbSymbolTable
70
0
0
ENDTAB
0
TABLE
2
APPID
5
9
100
AcDbSymbolTable
70
2
0
APPID
5
12
100
AcDbSymbolTableRecord
100
AcDbRegAppTableRecord
2
ACAD
70
0
0
ENDTAB
0
TABLE
2
DIMSTYLE
5
A
100
AcDbSymbolTable
70
1
0
ENDTAB
0
TABLE
2
BLOCK_RECORD
5
1
100
AcDbSymbolTable
70
1
0
BLOCK_RECORD
5
1F
100
AcDbSymbolTableRecord
100
AcDbBlockTableRecord
2
*MODEL_SPACE
0
BLOCK_RECORD
5
1B
100
AcDbSymbolTableRecord
100
AcDbBlockTableRecord
2
*PAPER_SPACE
0
ENDTAB
0
ENDSEC
0
SECTION
2
BLOCKS
0
BLOCK
5
20
100
AcDbEntity
100
AcDbBlockBegin
2
*MODEL_SPACE
0
ENDBLK
5
21
100
AcDbEntity
100
AcDbBlockEnd
0
BLOCK
5
1C
100
AcDbEntity
100
AcDbBlockBegin
2
*PAPER_SPACE
0
ENDBLK
5
1D
100
AcDbEntity
100
AcDbBlockEnd
0
ENDSEC
0
SECTION
2
ENTITIES
0
SPLINE
5
100
100
AcDbEntity
8
0
100
AcDbSpline
70
0
71
3
72
14
73
10
74
0
42
0.000000001
43
0.0000000001
44
0.0000000001
40
0
40
0
40
0
40
0
40
0.39036557704650621
40
0.39036557704650621
40
0.78012814336545921
40
0.78012814336545921
40
1.070434119097686
40
1.070434119097686
40
1.3586679566333146
40
1.3586679566333146
40
1.3586679566333146
40
1.3586679566333146
10
27
20
11.9885580162967
30
0
10
27
20
10.68733942614168
30
0
10
26.747333460617035
20
9.3982958838649537
30
0
10
25.766383163211152
20
6.9899657011593277
30
0
10
25.047872763854805
20
5.8926092255817597
30
0
10
23.465232594466418
20
4.2698368823138413
30
0
10
22.693019158213925
20
3.6781246720686411
30
0
10
21.009256538761633
20
2.7384030238220762
30
0
10
20.107297463873618
20
2.3934695818700851
30
0
10
19.169872981077798
20
2.1833583046171556
30
0
0
LINE
5
101
100
AcDbEntity
8
0
100
AcDbLine
10
27
20
11.9885580162967
30
0
11
27
21
24.51144198370331
31
0
0
SPLINE
5
102
100
AcDbEntity
8
0
100
AcDbSpline
70
0
71
3
72
14
73
10
74
0
42
0.000000001
43
0.0000000001
44
0.0000000001
40
0
40
0
40
0
40
0
40
0.38780439703920866
40
0.38780439703920866
40
0.78310323424753892
40
0.78310323424753892
40
1.0692873137054049
40
1.0692873137054049
40
1.3585228868644292
40
1.3585228868644292
40
1.3585228868644292
40
1.3585228868644292
10
19.169872981077798
20
34.316641695382856
30
0
10
20.431258260762604
20
34.033918897881151
30
0
10
21.625418625684141
20
33.507766621257261
30
0
10
23.768266478359866
20
32.017091410743106
30
0
10
24.691474821661295
20
31.058454977698361
30
0
10
25.91917615596499
20
29.146866894460565
30
0
10
26.318082639381778
20
28.27477504979985
30
0
10
26.86125489297844
20
26.434963478997354
30
0
10
27
20
25.475681530790844
30
0
10
27
20
24.51144198370331
30
0
0
LINE
5
103
100
AcDbEntity
8
0
100
AcDbLine
10
19.169872981077798
20
34.316641695382856
30
0
11
19.169872981077802
21
2.1833583046171552
31
0
0
LINE
5
104
100
AcDbEntity
8
0
100
AcDbLine
10
27
20
18.250000000000007
30
0
11
26
21
18.250000000000007
31
0
0
LINE
5
105
100
AcDbEntity
8
0
100
AcDbLine
10
26
20
18.250000000000007
30
0
11
17.5
21
18.250000000000007
31
0
0
LINE
5
106
100
AcDbEntity
8
0
100
AcDbLine
10
17.5
20
18.250000000000007
30
0
11
17.5
21
24.850000000000009
31
0
0
LINE
5
107
100
AcDbEntity
8
0
100
AcDbLine
10
17.5
20
24.850000000000009
30
0
11
26
21
24.850000000000009
31
0
0
LINE
5
108
100
AcDbEntity
8
0
100
AcDbLine
10
26
20
24.850000000000009
30
0
11
26
21
18.250000000000007
31
0
0
LINE
5
109
100
AcDbEntity
8
0
100
AcDbLine
10
26
20
18.250000000000007
30
0
11
17.5
21
18.250000000000007
31
0
0
LINE
5
110
100
AcDbEntity
8
0
100
AcDbLine
10
17.5
20
18.250000000000007
30
0
11
17.5
21
11.650000000000006
31
0
0
LINE
5
111
100
AcDbEntity
8
0
100
AcDbLine
10
17.5
20
11.650000000000006
30
0
11
26
21
11.650000000000006
31
0
0
LINE
5
112
100
AcDbEntity
8
0
100
AcDbLine
10
26
20
11.650000000000006
30
0
11
26
21
18.250000000000007
31
0
0
ENDSEC
0
SECTION
2
OBJECTS
0
DICTIONARY
5
C
100
AcDbDictionary
3
ACAD_GROUP
350
D
3
ACAD_MLINESTYLE
350
17
0
DICTIONARY
5
D
100
AcDbDictionary
0
DICTIONARY
5
1A
330
C
100
AcDbDictionary
0
DICTIONARY
5
17
100
AcDbDictionary
0
ENDSEC
0
EOF
