0
SECTION
2
HEADER
9
$INSUNITS
70
4
9
$ACADVER
1
AC1014
9
$HANDSEED
5
FFFF
0
ENDSEC
0
SECTION
2
TABLES
0
TABLE
2
VPORT
5
8
100
AcDbSymbolTable
0
ENDTAB
0
TABLE
2
LTYPE
5
5
100
AcDbSymbolTable
0
LTYPE
5
14
100
AcDbSymbolTableRecord
100
AcDbLinetypeTableRecord
2
BYBLOCK
70
0
0
LTYPE
5
15
100
AcDbSymbolTableRecord
100
AcDbLinetypeTableRecord
2
BYLAYER
70
0
0
ENDTAB
0
TABLE
2
LAYER
5
2
100
AcDbSymbolTable
70
2
0
LAYER
5
50
100
AcDbSymbolTableRecord
100
AcDbLayerTableRecord
2
0
70
0
6
CONTINUOUS
0
ENDTAB
0
TABLE
2
STYLE
5
3
100
AcDbSymbolTable
70
1
0
STYLE
5
11
100
AcDbSymbolTableRecord
100
AcDbTextStyleTableRecord
2
STANDARD
70
0
0
ENDTAB
0
TABLE
2
VIEW
5
6
100
AcDbSymbolTable
70
0
0
ENDTAB
0
TABLE
2
UCS
5
7
100
AcDbSymbolTable
70
0
0
ENDTAB
0
TABLE
2
APPID
5
9
100
AcDbSymbolTable
70
2
0
APPID
5
12
100
AcDbSymbolTableRecord
100
AcDbRegAppTableRecord
2
ACAD
70
0
0
ENDTAB
0
TABLE
2
DIMSTYLE
5
A
100
AcDbSymbolTable
70
1
0
ENDTAB
0
TABLE
2
BLOCK_RECORD
5
1
100
AcDbSymbolTable
70
1
0
BLOCK_RECORD
5
1F
100
AcDbSymbolTableRecord
100
AcDbBlockTableRecord
2
*MODEL_SPACE
0
BLOCK_RECORD
5
1B
100
AcDbSymbolTableRecord
100
AcDbBlockTableRecord
2
*PAPER_SPACE
0
ENDTAB
0
ENDSEC
0
SECTION
2
BLOCKS
0
BLOCK
5
20
100
AcDbEntity
100
AcDbBlockBegin
2
*MODEL_SPACE
0
ENDBLK
5
21
100
AcDbEntity
100
AcDbBlockEnd
0
BLOCK
5
1C
100
AcDbEntity
100
AcDbBlockBegin
2
*PAPER_SPACE
0
ENDBLK
5
1D
100
AcDbEntity
100
AcDbBlockEnd
0
ENDSEC
0
SECTION
2
ENTITIES
0
CIRCLE
5
100
100
AcDbEntity
8
0
100
AcDbCircle
10
9.5
20
30
30
0
40
4
210
0
220
-0
230
1
0
LWPOLYLINE
5
101
100
AcDbEntity
8
0
100
AcDbPolyline
90
20
70
1
43
0.0
10
131.99999999999997
20
18.122498999199198
42
-2.0816659994661402
10
132
20
11.877501000800798
10
132
20
5.0000000000000009
10
139
20
5
10
139
20
37.999999999999993
10
5
20
37.999999999999993
10
5
20
5
10
12
20
5
10
12.000000000000002
20
11.877501000800802
42
-2.0816659994661331
10
12.000000000000002
20
18.122498999199198
10
12
20
25
10
18
20
25
10
18
20
5
10
69
20
5
10
69
20
25
10
75
20
25
10
75
20
5
10
126
20
5
10
126
20
25
10
132
20
25
0
CIRCLE
5
102
100
AcDbEntity
8
0
100
AcDbCircle
10
80.928571428571431
20
15
30
0
40
4.0000000000000036
210
0
220
0
230
1
0
CIRCLE
5
103
100
AcDbEntity
8
0
100
AcDbCircle
10
134.5
20
30
30
0
40
4.0000000000000036
210
0
220
0
230
1
0
CIRCLE
5
104
100
AcDbEntity
8
0
100
AcDbCircle
10
63.071428571428577
20
30
30
0
40
4.0000000000000036
210
0
220
0
230
1
0
CIRCLE
5
105
100
AcDbEntity
8
0
100
AcDbCircle
10
45.214285714285715
20
30
30
0
40
4.0000000000000036
210
0
220
0
230
1
0
CIRCLE
5
106
100
AcDbEntity
8
0
100
AcDbCircle
10
116.64285714285717
20
30
30
0
40
4.0000000000000036
210
0
220
0
230
1
0
CIRCLE
5
107
100
AcDbEntity
8
0
100
AcDbCircle
10
98.785714285714306
20
15
30
0
40
4.0000000000000036
210
0
220
0
230
1
0
CIRCLE
5
108
100
AcDbEntity
8
0
100
AcDbCircle
10
27.357142857142858
20
15
30
0
40
3.9999999999999991
210
0
220
0
230
1
0
CIRCLE
5
109
100
AcDbEntity
8
0
100
AcDbCircle
10
63.071428571428577
20
15
30
0
40
4.0000000000000036
210
0
220
0
230
1
0
CIRCLE
5
110
100
AcDbEntity
8
0
100
AcDbCircle
10
80.928571428571431
20
30
30
0
40
4.0000000000000036
210
0
220
0
230
1
0
CIRCLE
5
111
100
AcDbEntity
8
0
100
AcDbCircle
10
27.357142857142858
20
30
30
0
40
3.9999999999999991
210
0
220
0
230
1
0
CIRCLE
5
112
100
AcDbEntity
8
0
100
AcDbCircle
10
98.785714285714306
20
30
30
0
40
4.0000000000000036
210
0
220
0
230
1
0
CIRCLE
5
113
100
AcDbEntity
8
0
100
AcDbCircle
10
116.64285714285717
20
15
30
0
40
4.0000000000000036
210
0
220
0
230
1
0
CIRCLE
5
114
100
AcDbEntity
8
0
100
AcDbCircle
10
45.214285714285715
20
15
30
0
40
4.0000000000000036
210
0
220
0
230
1
0
LWPOLYLINE
5
115
100
AcDbEntity
8
0
100
AcDbPolyline
90
4
70
1
43
0.0
10
45.214285714285715
20
30
10
27.357142857142858
20
30
10
27.357142857142858
20
15
10
45.214285714285715
20
15
0
LINE
5
116
100
AcDbEntity
8
0
100
AcDbLine
10
36.285714285714285
20
30
30
0
11
34.285714285714285
21
30
31
0
0
LINE
5
117
100
AcDbEntity
8
0
100
AcDbLine
10
34.285714285714285
20
30
30
0
11
38.285714285714285
21
30
31
0
0
LINE
5
118
100
AcDbEntity
8
0
100
AcDbLine
10
38.285714285714285
20
30
30
0
11
38.285714285714285
21
15.000000223517418
31
0
0
LINE
5
119
100
AcDbEntity
8
0
100
AcDbLine
10
38.285714285714285
20
15.000000223517418
30
0
11
34.285714285714285
21
15.000000223517418
31
0
0
LINE
5
120
100
AcDbEntity
8
0
100
AcDbLine
10
34.285714285714285
20
15.000000223517418
30
0
11
34.285714285714285
21
30
31
0
0
LINE
5
121
100
AcDbEntity
8
0
100
AcDbLine
10
34.285714285714285
20
30
30
0
11
38.285714285714285
21
30
31
0
0
LINE
5
122
100
AcDbEntity
8
0
100
AcDbLine
10
38.285714285714285
20
30
30
0
11
38.285714285714285
21
5.000000074505806
31
0
0
LINE
5
123
100
AcDbEntity
8
0
100
AcDbLine
10
38.285714285714285
20
5.000000074505806
30
0
11
34.285714285714285
21
5.000000074505806
31
0
0
LINE
5
124
100
AcDbEntity
8
0
100
AcDbLine
10
34.285714285714285
20
5.000000074505806
30
0
11
34.285714285714285
21
30
31
0
0
ENDSEC
0
SECTION
2
OBJECTS
0
DICTIONARY
5
C
100
AcDbDictionary
3
ACAD_GROUP
350
D
3
ACAD_MLINESTYLE
350
17
0
DICTIONARY
5
D
100
AcDbDictionary
0
DICTIONARY
5
1A
330
C
100
AcDbDictionary
0
DICTIONARY
5
17
100
AcDbDictionary
0
ENDSEC
0
EOF
