                                                                        S      1
,,17Hfusion is shit v7,17Hfusion is shit v7,7Hunknown,7Hunknown,32,38,7,G      1
99,15,,1.,2,2HMM,1,0.08,15H20211012.212050,0.01,10000.,7Hunknown,7HunknoG      2
wn,11,0,15H20181017.164437;                                             G      3
     408       1                                                00000001D      1
     408       0               1       0                               0D      2
     308       2                                                00010200D      3
     308       0               1       0                               0D      4
     186       3                                                00010000D      5
     186            -141       1       0                               0D      6
     514       4                                                00010000D      7
     514                       1       1                               0D      8
     510       5                                                00010000D      9
     510            -141       1       1                               0D     10
     510       6                                                00010000D     11
     510            -141       1       1                               0D     12
     510       7                                                00010000D     13
     510            -141       1       1                               0D     14
     510       8                                                00010000D     15
     510            -141       1       1                               0D     16
     510       9                                                00010000D     17
     510            -141       1       1                               0D     18
     510      10                                                00010000D     19
     510            -141       1       1                               0D     20
     510      11                                                00010000D     21
     510            -141       1       1                               0D     22
     510      12                                                00010000D     23
     510            -141       1       1                               0D     24
     510      13                                                00010000D     25
     510            -141       1       1                               0D     26
     510      14                                                00010000D     27
     510            -141       1       1                               0D     28
     510      15                                                00010000D     29
     510            -141       1       1                               0D     30
     508      16                                                00010000D     31
     508                       1       1                               0D     32
     508      17                                                00010000D     33
     508                       1       1                               0D     34
     508      18                                                00010000D     35
     508                       1       1                               0D     36
     508      19                                                00010000D     37
     508                       2       1                               0D     38
     508      21                                                00010000D     39
     508                       1       1                               0D     40
     508      22                                                00010000D     41
     508                       1       1                               0D     42
     508      23                                                00010000D     43
     508                       2       1                               0D     44
     508      25                                                00010000D     45
     508                       1       1                               0D     46
     508      26                                                00010000D     47
     508                       1       1                               0D     48
     508      27                                                00010000D     49
     508                       1       1                               0D     50
     508      28                                                00010000D     51
     508                       1       1                               0D     52
     508      29                                                00010000D     53
     508                       1       1                               0D     54
     508      30                                                00010000D     55
     508                       1       1                               0D     56
     126      31                                                00010000D     57
     126       0              15       0                               0D     58
     126      46                                                00010000D     59
     126       0               4       0                               0D     60
     126      50                                                00010000D     61
     126       0              15       0                               0D     62
     126      65                                                00010000D     63
     126       0               7       0                               0D     64
     126      72                                                00010000D     65
     126       0               4       0                               0D     66
     126      76                                                00010000D     67
     126       0               7       0                               0D     68
     126      83                                                00010000D     69
     126       0               4       0                               0D     70
     126      87                                                00010000D     71
     126       0               7       0                               0D     72
     126      94                                                00010000D     73
     126       0               4       0                               0D     74
     126      98                                                00010000D     75
     126       0               7       0                               0D     76
     126     105                                                00010000D     77
     126       0               5       0                               0D     78
     126     110                                                00010000D     79
     126       0               7       0                               0D     80
     126     117                                                00010000D     81
     126       0               7       0                               0D     82
     126     124                                                00010000D     83
     126       0               7       0                               0D     84
     126     131                                                00010000D     85
     126       0               5       0                               0D     86
     126     136                                                00010000D     87
     126       0              10       0                               0D     88
     126     146                                                00010000D     89
     126       0               4       0                               0D     90
     126     150                                                00010000D     91
     126       0              10       0                               0D     92
     126     160                                                00010000D     93
     126       0               5       0                               0D     94
     126     165                                                00010000D     95
     126       0               7       0                               0D     96
     126     172                                                00010000D     97
     126       0               6       0                               0D     98
     126     178                                                00010000D     99
     126       0               7       0                               0D    100
     126     185                                                00010000D    101
     126       0               5       0                               0D    102
     126     190                                                00010000D    103
     126       0               4       0                               0D    104
     126     194                                                00010000D    105
     126       0               4       0                               0D    106
     126     198                                                00010000D    107
     126       0               4       0                               0D    108
     126     202                                                00010000D    109
     126       0               3       0                               0D    110
     128     205                                                00010000D    111
     128       0    -141      26       0                               0D    112
     128     231                                                00010000D    113
     128       0    -141      11       0                               0D    114
     128     242                                                00010000D    115
     128       0    -141      11       0                               0D    116
     128     253                                                00010000D    117
     128       0    -141       9       0                               0D    118
     128     262                                                00010000D    119
     128       0    -141      16       0                               0D    120
     128     278                                                00010000D    121
     128       0    -141       9       0                               0D    122
     128     287                                                00010000D    123
     128       0    -141       8       0                               0D    124
     128     295                                                00010000D    125
     128       0    -141      11       0                               0D    126
     128     306                                                00010000D    127
     128       0    -141      11       0                               0D    128
     128     317                                                00010000D    129
     128       0    -141      11       0                               0D    130
     128     328                                                00010000D    131
     128       0    -141       8       0                               0D    132
     502     336                                                00010000D    133
     502                      18       1                               0D    134
     504     354                                                00010001D    135
     504                       8       1                               0D    136
     406     362                                                00000000D    137
     406                       1      15                               0D    138
     406     363                                                00000000D    139
     406                       1      15                               0D    140
     314     364                                                00000200D    141
     314                       2       0                               0D    142
408,3,0.,0.,0.,1.,0,1,139;                                             1P      1
308,0,6Hbutton,1,5;                                                    3P      2
186,7,1,0,0,1,137;                                                     5P      3
514,11,9,1,11,1,13,1,15,1,17,1,19,1,21,1,23,1,25,1,27,1,29,1;          7P      4
510,111,1,1,31;                                                        9P      5
510,113,1,1,33;                                                       11P      6
510,115,1,1,35;                                                       13P      7
510,117,2,1,37,39;                                                    15P      8
510,119,1,1,41;                                                       17P      9
510,121,2,1,43,45;                                                    19P     10
510,123,1,1,47;                                                       21P     11
510,125,1,1,49;                                                       23P     12
510,127,1,1,51;                                                       25P     13
510,129,1,1,53;                                                       27P     14
510,131,1,1,55;                                                       29P     15
508,4,0,135,1,0,0,0,135,2,1,0,0,135,3,0,0,0,135,2,0,0;                31P     16
508,4,0,135,4,1,0,0,135,5,1,0,0,135,6,1,0,0,135,7,1,0;                33P     17
508,4,0,135,7,0,0,0,135,8,0,0,0,135,9,0,0,0,135,10,0,0;               35P     18
508,8,0,135,6,0,0,0,135,11,1,0,0,135,12,1,0,0,135,13,1,0,0,135,       37P     19
14,0,0,0,135,15,0,0,0,135,16,0,0,0,135,8,1,0;                         37P     20
508,1,0,135,3,1,0;                                                    39P     21
508,4,0,135,16,1,0,0,135,17,1,0,0,135,18,1,0,0,135,9,1,0;             41P     22
508,8,0,135,4,0,0,0,135,10,1,0,0,135,18,0,0,0,135,19,1,0,0,135,       43P     23
20,0,0,0,135,21,1,0,0,135,22,1,0,0,135,23,0,0;                        43P     24
508,1,0,135,1,1,0;                                                    45P     25
508,4,0,135,17,0,0,0,135,15,1,0,0,135,24,0,0,0,135,19,0,0;            47P     26
508,4,0,135,20,1,0,0,135,24,1,0,0,135,14,1,0,0,135,25,1,0;            49P     27
508,4,0,135,12,0,0,0,135,26,1,0,0,135,22,0,0,0,135,27,1,0;            51P     28
508,4,0,135,25,0,0,0,135,13,0,0,0,135,27,0,0,0,135,21,0,0;            53P     29
508,4,0,135,5,0,0,0,135,23,1,0,0,135,26,0,0,0,135,11,0,0;             55P     30
126,8,2,0,1,0,0,-3.14159265358979,-3.14159265358979,                  57P     31
-3.14159265358979,-1.5707963267949,-1.5707963267949,0.,0.,            57P     32
1.5707963267949,1.5707963267949,3.14159265358979,                     57P     33
3.14159265358979,3.14159265358979,1.,0.707106781186547,1.,            57P     34
0.707106781186547,1.,0.707106781186547,1.,0.707106781186547,1.,       57P     35
37.0000004917383,14.0000002086163,-11.0000001639128,                  57P     36
37.0000004917383,14.0000002086163,-7.00000016391277,                  57P     37
33.0000004917383,14.0000002086163,-7.00000016391277,                  57P     38
29.0000004917383,14.0000002086163,-7.00000016391277,                  57P     39
29.0000004917383,14.0000002086163,-11.0000001639128,                  57P     40
29.0000004917383,14.0000002086163,-15.0000001639128,                  57P     41
33.0000004917383,14.0000002086163,-15.0000001639128,                  57P     42
37.0000004917383,14.0000002086163,-15.0000001639128,                  57P     43
37.0000004917383,14.0000002086163,-11.0000001639128,                  57P     44
-3.14159265358979,3.14159265358979,0.,0.,0.;                          57P     45
126,1,1,0,0,1,0,0.,0.,2.00000002980232,2.00000002980232,1.,1.,        59P     46
37.0000004917383,14.0000002086163,-11.0000001639128,                  59P     47
37.0000004917383,6.00000008940697,-11.0000001639128,0.,               59P     48
2.00000002980232,0.,0.,0.;                                            59P     49
126,8,2,0,1,0,0,-3.14159265358979,-3.14159265358979,                  61P     50
-3.14159265358979,-1.5707963267949,-1.5707963267949,0.,0.,            61P     51
1.5707963267949,1.5707963267949,3.14159265358979,                     61P     52
3.14159265358979,3.14159265358979,1.,0.707106781186547,1.,            61P     53
0.707106781186547,1.,0.707106781186547,1.,0.707106781186547,1.,       61P     54
37.0000004917383,6.00000008940697,-11.0000001639128,                  61P     55
37.0000004917383,6.00000008940697,-15.0000001639128,                  61P     56
33.0000004917383,6.00000008940697,-15.0000001639128,                  61P     57
29.0000004917383,6.00000008940697,-15.0000001639128,                  61P     58
29.0000004917383,6.00000008940697,-11.0000001639128,                  61P     59
29.0000004917383,6.00000008940697,-7.00000016391277,                  61P     60
33.0000004917383,6.00000008940697,-7.00000016391277,                  61P     61
37.0000004917383,6.00000008940697,-7.00000016391277,                  61P     62
37.0000004917383,6.00000008940697,-11.0000001639128,                  61P     63
-3.14159265358979,3.14159265358979,0.,0.,0.;                          61P     64
126,2,2,0,0,0,0,-0.607951495516508,-0.607951495516508,                63P     65
-0.607951495516508,0.607951495516508,0.607951495516508,               63P     66
0.607951495516508,1.,0.820819818812358,1.,-7.04247118384137,          63P     67
14.0000002086163,-12.2569285116123,-9.00000013411045,                 63P     68
14.0000002086163,-12.9823570566671,-9.00000013411045,                 63P     69
14.0000002086163,-15.0699791884528,-0.607951495516508,                63P     70
0.607951495516508,0.,0.,0.;                                           63P     71
126,1,1,0,0,1,0,0.,0.,0.800000011920929,0.800000011920929,1.,1.,      65P     72
-9.00000013411045,14.0000002086163,-15.0699791884528,                 65P     73
-9.00000013411045,6.00000008940697,-15.0699791884528,0.,              65P     74
0.800000011920929,0.,0.,0.;                                           65P     75
126,2,2,0,0,0,0,-0.607951495516508,-0.607951495516508,                67P     76
-0.607951495516508,0.607951495516508,0.607951495516508,               67P     77
0.607951495516508,1.,0.820819818812358,1.,-9.00000013411045,          67P     78
6.00000008940697,-15.0699791884528,-9.00000013411045,                 67P     79
6.00000008940697,-12.9823570566671,-7.04247118384137,                 67P     80
6.00000008940697,-12.2569285116123,-0.607951495516508,                67P     81
0.607951495516508,0.,0.,0.;                                           67P     82
126,1,1,0,0,1,0,-0.800000011920929,-0.800000011920929,0.,0.,1.,       69P     83
1.,-7.04247118384137,6.00000008940697,-12.2569285116123,              69P     84
-7.04247118384137,14.0000002086163,-12.2569285116123,                 69P     85
-0.800000011920929,0.,0.,0.,0.;                                       69P     86
126,2,2,0,0,0,0,-0.288972311966317,-0.288972311966317,                71P     87
-0.288972311966317,-0.0158025666286889,-0.0158025666286889,           71P     88
-0.0158025666286889,1.,0.990686778305145,1.,28.1836740582398,         71P     89
6.00000008940697,-4.44222066999332,10.0335723362619,                  71P     90
6.00000008940697,-5.92882317024456,-7.04247118384137,                 71P     91
6.00000008940697,-12.2569285116123,-0.288972311966317,                71P     92
-0.0158025666286889,0.,0.,0.;                                         71P     93
126,1,1,0,0,1,0,0.,0.,0.800000011920929,0.800000011920929,1.,1.,      73P     94
28.1836740582398,14.0000002086163,-4.4422206699933,                   73P     95
28.1836740582398,6.00000008940697,-4.4422206699933,0.,                73P     96
0.800000011920929,0.,0.,0.;                                           73P     97
126,2,2,0,0,0,0,0.0158025666286889,0.0158025666286889,                75P     98
0.0158025666286889,0.288972311966317,0.288972311966317,               75P     99
0.288972311966317,1.,0.990686778305145,1.,-7.04247118384137,          75P    100
14.0000002086163,-12.2569285116123,10.0335723362619,                  75P    101
14.0000002086163,-5.92882317024456,28.1836740582398,                  75P    102
14.0000002086163,-4.44222066999332,0.0158025666286889,                75P    103
0.288972311966317,0.,0.,0.;                                           75P    104
126,1,1,0,0,1,0,1.50699791884528,1.50699791884528,                    77P    105
1.60497551445926,1.60497551445926,1.,1.,-9.00000013411045,            77P    106
6.00000008940697,-15.0699791884528,-9.00000013411045,                 77P    107
6.00000008940697,-16.0497551445926,1.50699791884528,                  77P    108
1.60497551445926,0.,0.,0.;                                            77P    109
126,2,2,0,0,0,0,-1.47059183404292,-1.47059183404292,                  79P    110
-1.47059183404292,-4.16299496401039D-17,-4.16299496401039D-17,        79P    111
-4.16299496401039D-17,1.,0.741632282771597,1.,-9.00000013411047,      79P    112
6.00000008940697,-16.0497551445926,-9.00000013411047,                 79P    113
6.00000008940697,-25.0951293244991,-4.16333634234434D-16,             79P    114
6.00000008940697,-26.0000003874302,-1.47059183404292,                 79P    115
-4.16299496401039D-17,0.,0.,0.;                                       79P    116
126,2,2,0,0,0,0,-0.734347667636438,-0.734347667636438,                81P    117
-0.734347667636438,-0.0224860999950828,-0.0224860999950828,           81P    118
-0.0224860999950828,1.,0.937322551208894,1.,0.,6.00000008940697,      81P    119
-26.0000003874302,19.7778552993844,6.00000008940697,                  81P    120
-30.8329349530692,37.9096890339773,6.00000008940697,                  81P    121
-21.5724046129529,-0.734347667636438,-0.0224860999950828,0.,0.,       81P    122
0.;                                                                   81P    123
126,2,2,0,0,0,0,-0.549299517378261,-0.549299517378261,                83P    124
-0.549299517378261,0.549299517378262,0.549299517378262,               83P    125
0.549299517378262,1.,0.852890446193432,1.,39.0000005811453,           83P    126
6.00000008940697,-19.7912625863913,39.0000005811453,                  83P    127
6.00000008940697,-21.0155462548562,37.9096890339773,                  83P    128
6.00000008940697,-21.5724046129529,-0.549299517378261,                83P    129
0.549299517378262,0.,0.,0.;                                           83P    130
126,1,1,0,0,1,0,1.44088455253795,1.44088455253795,                    85P    131
1.97912625863913,1.97912625863913,1.,1.,39.0000005811453,             85P    132
6.00000008940697,-14.4088455253795,39.0000005811453,                  85P    133
6.00000008940697,-19.7912625863913,1.44088455253795,                  85P    134
1.97912625863913,0.,0.,0.;                                            85P    135
126,4,2,0,0,0,0,-0.826259958609574,-0.826259958609574,                87P    136
-0.826259958609574,3.88578058618805D-16,3.88578058618805D-16,         87P    137
0.826259958609574,0.826259958609574,0.826259958609574,1.,             87P    138
0.915868693499035,1.,0.91586869349903,1.,28.1836740582398,            87P    139
6.00000008940697,-4.44222066999331,32.5526191304106,                  87P    140
6.00000008940697,-4.08437779025425,35.7763098557779,                  87P    141
6.00000008940697,-7.05482399872295,39.0000005811453,                  87P    142
6.00000008940697,-10.0252702071916,39.0000005811453,                  87P    143
6.00000008940697,-14.4088455253795,-0.826259958609574,                87P    144
0.826259958609574,0.,0.,0.;                                           87P    145
126,1,1,0,0,1,0,-0.800000011920929,-0.800000011920929,0.,0.,1.,       89P    146
1.,39.0000005811453,6.00000008940697,-14.4088455253795,               89P    147
39.0000005811453,14.0000002086163,-14.4088455253795,                  89P    148
-0.800000011920929,0.,0.,0.,0.;                                       89P    149
126,4,2,0,0,0,0,-0.826259958609574,-0.826259958609574,                91P    150
-0.826259958609574,-3.88578058618805D-16,-3.88578058618805D-16,       91P    151
0.826259958609574,0.826259958609574,0.826259958609574,1.,             91P    152
0.91586869349903,1.,0.915868693499035,1.,39.0000005811453,            91P    153
14.0000002086163,-14.4088455253795,39.0000005811453,                  91P    154
14.0000002086163,-10.0252702071916,35.7763098557779,                  91P    155
14.0000002086163,-7.05482399872295,32.5526191304106,                  91P    156
14.0000002086163,-4.08437779025425,28.1836740582398,                  91P    157
14.0000002086163,-4.44222066999331,-0.826259958609574,                91P    158
0.826259958609574,0.,0.,0.;                                           91P    159
126,1,1,0,0,1,0,1.44088455253795,1.44088455253795,                    93P    160
1.97912625863913,1.97912625863913,1.,1.,39.0000005811453,             93P    161
14.0000002086163,-14.4088455253795,39.0000005811453,                  93P    162
14.0000002086163,-19.7912625863913,1.44088455253795,                  93P    163
1.97912625863913,0.,0.,0.;                                            93P    164
126,2,2,0,0,0,0,-0.549299517378262,-0.549299517378262,                95P    165
-0.549299517378262,0.549299517378261,0.549299517378261,               95P    166
0.549299517378261,1.,0.852890446193432,1.,37.9096890339773,           95P    167
14.0000002086163,-21.5724046129529,39.0000005811453,                  95P    168
14.0000002086163,-21.0155462548562,39.0000005811453,                  95P    169
14.0000002086163,-19.7912625863913,-0.549299517378262,                95P    170
0.549299517378261,0.,0.,0.;                                           95P    171
126,2,2,0,0,0,0,0.0224860999950828,0.0224860999950828,                97P    172
0.0224860999950828,0.734347667636438,0.734347667636438,               97P    173
0.734347667636438,1.,0.937322551208894,1.,37.9096890339773,           97P    174
14.0000002086163,-21.5724046129529,19.7778552993844,                  97P    175
14.0000002086163,-30.8329349530692,0.,14.0000002086163,               97P    176
-26.0000003874302,0.0224860999950828,0.734347667636438,0.,0.,0.;      97P    177
126,2,2,0,0,0,0,4.16299496401039D-17,4.16299496401039D-17,            99P    178
4.16299496401039D-17,1.47059183404292,1.47059183404292,               99P    179
1.47059183404292,1.,0.741632282771597,1.,-4.16333634234434D-16,       99P    180
14.0000002086163,-26.0000003874302,-9.00000013411047,                 99P    181
14.0000002086163,-25.0951293244991,-9.00000013411047,                 99P    182
14.0000002086163,-16.0497551445926,4.16299496401039D-17,              99P    183
1.47059183404292,0.,0.,0.;                                            99P    184
126,1,1,0,0,1,0,1.50699791884528,1.50699791884528,                   101P    185
1.60497551445926,1.60497551445926,1.,1.,-9.00000013411045,           101P    186
14.0000002086163,-15.0699791884528,-9.00000013411045,                101P    187
14.0000002086163,-16.0497551445926,1.50699791884528,                 101P    188
1.60497551445926,0.,0.,0.;                                           101P    189
126,1,1,0,0,1,0,0.,0.,0.800000011920929,0.800000011920929,1.,1.,     103P    190
39.0000005811453,14.0000002086163,-19.7912625863913,                 103P    191
39.0000005811453,6.00000008940697,-19.7912625863913,0.,              103P    192
0.800000011920929,0.,0.,0.;                                          103P    193
126,1,1,0,0,1,0,-0.800000011920929,-0.800000011920929,0.,0.,1.,      105P    194
1.,37.9096890339773,6.00000008940697,-21.5724046129529,              105P    195
37.9096890339773,14.0000002086163,-21.5724046129529,                 105P    196
-0.800000011920929,0.,0.,0.,0.;                                      105P    197
126,1,1,0,0,1,0,-0.800000011920929,-0.800000011920929,0.,0.,1.,      107P    198
1.,-9.00000013411045,6.00000008940697,-16.0497551445926,             107P    199
-9.00000013411045,14.0000002086163,-16.0497551445926,                107P    200
-0.800000011920929,0.,0.,0.,0.;                                      107P    201
126,1,1,0,0,1,0,0.,0.,0.8,0.8,1.,1.,-1.5854834689577D-6,             109P    202
14.0000002086163,-26.,-1.5854834689577D-6,6.00000020861626,-26.,     109P    203
0.,0.8,0.,0.,0.;                                                     109P    204
128,1,8,1,2,0,1,0,0,1,0.,0.,2.00000002980232,2.00000002980232,       111P    205
-3.14159265358979,-3.14159265358979,-3.14159265358979,               111P    206
-1.5707963267949,-1.5707963267949,0.,0.,1.5707963267949,             111P    207
1.5707963267949,3.14159265358979,3.14159265358979,                   111P    208
3.14159265358979,1.,1.,0.707106781186548,0.707106781186548,1.,       111P    209
1.,0.707106781186548,0.707106781186548,1.,1.,0.707106781186548,      111P    210
0.707106781186548,1.,1.,0.707106781186548,0.707106781186548,1.,      111P    211
1.,37.0000004917383,14.0000002086163,-11.0000001639128,              111P    212
37.0000004917383,6.00000008940697,-11.0000001639128,                 111P    213
37.0000004917383,14.0000002086163,-7.00000016391277,                 111P    214
37.0000004917383,6.00000008940697,-7.00000016391277,                 111P    215
33.0000004917383,14.0000002086163,-7.00000016391277,                 111P    216
33.0000004917383,6.00000008940697,-7.00000016391277,                 111P    217
29.0000004917383,14.0000002086163,-7.00000016391277,                 111P    218
29.0000004917383,6.00000008940697,-7.00000016391277,                 111P    219
29.0000004917383,14.0000002086163,-11.0000001639128,                 111P    220
29.0000004917383,6.00000008940697,-11.0000001639128,                 111P    221
29.0000004917383,14.0000002086163,-15.0000001639128,                 111P    222
29.0000004917383,6.00000008940697,-15.0000001639128,                 111P    223
33.0000004917383,14.0000002086163,-15.0000001639128,                 111P    224
33.0000004917383,6.00000008940697,-15.0000001639128,                 111P    225
37.0000004917383,14.0000002086163,-15.0000001639128,                 111P    226
37.0000004917383,6.00000008940697,-15.0000001639128,                 111P    227
37.0000004917383,14.0000002086163,-11.0000001639128,                 111P    228
37.0000004917383,6.00000008940697,-11.0000001639128,0.,              111P    229
2.00000002980232,-3.14159265358979,3.14159265358979;                 111P    230
128,1,2,1,2,0,0,0,0,0,-2.6666667064031,-2.6666667064031,0.,0.,       113P    231
-0.607951495516508,-0.607951495516508,-0.607951495516508,            113P    232
0.607951495516508,0.607951495516508,0.607951495516508,1.,1.,         113P    233
0.820819818812358,0.820819818812358,1.,1.,-9.00000013411045,         113P    234
14.0000002086163,-15.0699791884528,-9.00000013411045,                113P    235
6.00000008940697,-15.0699791884528,-9.00000013411045,                113P    236
14.0000002086163,-12.9823570566671,-9.00000013411045,                113P    237
6.00000008940697,-12.9823570566671,-7.04247118384137,                113P    238
14.0000002086163,-12.2569285116123,-7.04247118384137,                113P    239
6.00000008940697,-12.2569285116123,-2.6666667064031,0.,              113P    240
-0.607951495516508,0.607951495516508;                                113P    241
128,1,2,1,2,0,0,0,0,0,0.,0.,0.0603773588632684,                      115P    242
0.0603773588632684,-0.288972311966317,-0.288972311966317,            115P    243
-0.288972311966317,-0.015802566628689,-0.015802566628689,            115P    244
-0.015802566628689,1.,1.,0.990686778305132,0.990686778305132,1.,     115P    245
1.,28.1836740582398,6.00000008940697,-4.4422206699933,               115P    246
28.1836740582398,14.0000002086163,-4.4422206699933,                  115P    247
10.0335723362618,6.00000008940697,-5.92882317024459,                 115P    248
10.0335723362618,14.0000002086163,-5.92882317024459,                 115P    249
-7.04247118384136,6.00000008940697,-12.2569285116123,                115P    250
-7.04247118384136,14.0000002086163,-12.2569285116123,0.,             115P    251
0.0603773588632684,-0.288972311966317,-0.015802566628689;            115P    252
128,1,1,1,1,0,0,1,0,0,-0.00100000000000002,-0.00100000000000002,     117P    253
4.80100007152558,4.80100007152558,0.407437779025425,                 117P    254
0.407437779025425,3.08429349530692,3.08429349530692,1.,1.,1.,1.,     117P    255
39.0100005811453,6.00000008940697,-4.07437779025425,                 117P    256
-9.01000013411047,6.00000008940697,-4.07437779025425,                117P    257
39.0100005811453,6.00000008940697,-30.8429349530692,                 117P    258
-9.01000013411047,6.00000008940697,-30.8429349530692,                117P    259
-0.00100000000000002,4.80100007152558,0.407437779025425,             117P    260
3.08429349530692;                                                    117P    261
128,1,4,1,2,0,0,0,0,0,0.,0.,0.800000011920929,0.800000011920929,     119P    262
-0.826259958609575,-0.826259958609575,-0.826259958609575,0.,0.,      119P    263
0.826259958609574,0.826259958609574,0.826259958609574,1.,1.,         119P    264
0.915868693499037,0.915868693499037,1.,1.,0.915868693499037,         119P    265
0.915868693499037,1.,1.,39.0000005811453,6.00000008940697,           119P    266
-14.4088455253795,39.0000005811453,14.0000002086163,                 119P    267
-14.4088455253795,39.0000005811453,6.00000008940697,                 119P    268
-10.0252702071916,39.0000005811453,14.0000002086163,                 119P    269
-10.0252702071916,35.7763098557779,6.00000008940697,                 119P    270
-7.05482399872294,35.7763098557779,14.0000002086163,                 119P    271
-7.05482399872294,32.5526191304106,6.00000008940697,                 119P    272
-4.08437779025425,32.5526191304106,14.0000002086163,                 119P    273
-4.08437779025425,28.1836740582398,6.00000008940697,                 119P    274
-4.44222066999331,28.1836740582398,14.0000002086163,                 119P    275
-4.44222066999331,0.,0.800000011920929,-0.826259958609575,           119P    276
0.826259958609574;                                                   119P    277
128,1,1,1,1,0,0,1,0,0,-0.00100000000000222,-0.00100000000000222,     121P    278
4.80100007152557,4.80100007152557,0.407437779025425,                 121P    279
0.407437779025425,3.08429349530692,3.08429349530692,1.,1.,1.,1.,     121P    280
-9.01000013411047,14.0000002086163,-4.07437779025425,                121P    281
39.0100005811453,14.0000002086163,-4.07437779025425,                 121P    282
-9.01000013411047,14.0000002086163,-30.8429349530692,                121P    283
39.0100005811453,14.0000002086163,-30.8429349530692,                 121P    284
-0.00100000000000222,4.80100007152557,0.407437779025425,             121P    285
3.08429349530692;                                                    121P    286
128,1,1,1,1,0,0,1,0,0,-0.001,-0.001,0.801000011920929,               123P    287
0.801000011920929,1.43988455253795,1.43988455253795,                 123P    288
1.98012625863913,1.98012625863913,1.,1.,1.,1.,39.0000005811453,      123P    289
14.0100002086163,-14.3988455253795,39.0000005811453,                 123P    290
5.99000008940697,-14.3988455253795,39.0000005811453,                 123P    291
14.0100002086163,-19.8012625863913,39.0000005811453,                 123P    292
5.99000008940697,-19.8012625863913,-0.001,0.801000011920929,         123P    293
1.43988455253795,1.98012625863913;                                   123P    294
128,1,2,1,2,0,0,0,0,0,-4.00000005960464,-4.00000005960464,0.,0.,     125P    295
-0.549299517378261,-0.549299517378261,-0.549299517378261,            125P    296
0.549299517378262,0.549299517378262,0.549299517378262,1.,1.,         125P    297
0.852890446193423,0.852890446193423,1.,1.,39.0000005811453,          125P    298
14.0000002086163,-19.7912625863913,39.0000005811453,                 125P    299
6.00000008940697,-19.7912625863913,39.0000005811453,                 125P    300
14.0000002086163,-21.0155462548562,39.0000005811453,                 125P    301
6.00000008940697,-21.0155462548562,37.9096890339773,                 125P    302
14.0000002086163,-21.5724046129529,37.9096890339773,                 125P    303
6.00000008940697,-21.5724046129529,-4.00000005960464,0.,             125P    304
-0.549299517378261,0.549299517378262;                                125P    305
128,1,2,1,2,0,0,0,0,0,0.,0.,0.799967212712872,0.799967212712872,     127P    306
-1.47059183404292,-1.47059183404292,-1.47059183404292,               127P    307
-4.16316564967825D-17,-4.16316564967825D-17,                         127P    308
-4.16316564967825D-17,1.,1.,0.741632282771596,0.741632282771596,     127P    309
1.,1.,-9.00000013411047,6.00000008940697,-16.0497551445926,          127P    310
-9.00000013411047,14.0000002086163,-16.0497551445926,                127P    311
-9.00000013411048,6.00000008940697,-25.0951293244991,                127P    312
-9.00000013411048,14.0000002086163,-25.0951293244991,0.,             127P    313
6.00000008940697,-26.0000003874302,0.,14.0000002086163,              127P    314
-26.0000003874302,0.,0.799967212712872,-1.47059183404292,            127P    315
-4.16316564967825D-17;                                               127P    316
128,1,2,1,2,0,0,0,0,0,0.,0.,0.146077853034779,0.146077853034779,     129P    317
-0.734347697438759,-0.734347697438759,-0.734347697438759,            129P    318
-0.0224860999950827,-0.0224860999950827,-0.0224860999950827,1.,      129P    319
1.,0.937322546016394,0.937322546016394,1.,1.,                        129P    320
-1.58548347117815D-6,6.00000008940697,-26.,-1.58548347117815D-6,     129P    321
14.0000002086163,-26.,19.7778544721738,6.00000008940697,             129P    322
-30.8329353755532,19.7778544721738,14.0000002086163,                 129P    323
-30.8329353755532,37.9096890339773,6.00000008940697,                 129P    324
-21.5724046129529,37.9096890339773,14.0000002086163,                 129P    325
-21.5724046129529,0.,0.146077853034779,-0.734347697438759,           129P    326
-0.0224860999950827;                                                 129P    327
128,1,1,1,1,0,0,1,0,0,-0.001,-0.001,0.801000011920929,               131P    328
0.801000011920929,1.50599791884528,1.50599791884528,                 131P    329
1.60597551445926,1.60597551445926,1.,1.,1.,1.,-9.00000013411045,     131P    330
5.99000008940697,-15.0599791884528,-9.00000013411045,                131P    331
14.0100002086163,-15.0599791884528,-9.00000013411045,                131P    332
5.99000008940697,-16.0597551445926,-9.00000013411045,                131P    333
14.0100002086163,-16.0597551445926,-0.001,0.801000011920929,         131P    334
1.50599791884528,1.60597551445926;                                   131P    335
502,18,37.0000004917383,14.0000002086163,-11.0000001639128,          133P    336
37.0000004917383,6.00000008940697,-11.0000001639128,                 133P    337
-7.04247118384136,14.0000002086163,-12.2569285116123,                133P    338
-9.00000013411045,14.0000002086163,-15.0699791884528,                133P    339
-9.00000013411045,6.00000008940697,-15.0699791884528,                133P    340
-7.04247118384136,6.00000008940697,-12.2569285116123,                133P    341
28.1836740582398,6.00000008940697,-4.44222066999332,                 133P    342
28.1836740582398,14.0000002086163,-4.44222066999332,                 133P    343
-9.00000013411047,6.00000008940697,-16.0497551445926,0.,             133P    344
6.00000020861626,-26.0000003874302,37.9096890339773,                 133P    345
6.00000008940697,-21.5724046129529,39.0000005811453,                 133P    346
6.00000008940697,-19.7912625863913,39.0000005811453,                 133P    347
6.00000008940697,-14.4088455253795,39.0000005811453,                 133P    348
14.0000002086163,-14.4088455253795,39.0000005811453,                 133P    349
14.0000002086163,-19.7912625863913,37.9096890339773,                 133P    350
14.0000002086163,-21.5724046129529,0.,14.0000002086163,              133P    351
-26.0000003874302,-9.00000013411047,14.0000002086163,                133P    352
-16.0497551445926;                                                   133P    353
504,27,57,133,1,133,1,59,133,1,133,2,61,133,2,133,2,63,133,3,        135P    354
133,4,65,133,4,133,5,67,133,5,133,6,69,133,6,133,3,71,133,7,133,     135P    355
6,73,133,8,133,7,75,133,3,133,8,77,133,5,133,9,79,133,9,133,10,      135P    356
81,133,10,133,11,83,133,12,133,11,85,133,13,133,12,87,133,7,133,     135P    357
13,89,133,13,133,14,91,133,14,133,8,93,133,14,133,15,95,133,16,      135P    358
133,15,97,133,16,133,17,99,133,17,133,18,101,133,4,133,18,103,       135P    359
133,15,133,12,105,133,11,133,16,107,133,9,133,18,109,133,17,133,     135P    360
10;                                                                  135P    361
406,1,5HBody1;                                                       137P    362
406,1,8Hbutton:1;                                                    139P    363
314,62.7450980392157,62.7450980392157,62.7450980392157,13HSteel      141P    364
- Satin;                                                             141P    365
S      1G      3D    142P    365                                        T      1
