                                                                        S      1
,,6Hrelief,6Hrelief,7Hunknown,7Hunknown,32,38,7,99,15,,1.,2,2HMM,1,0.08,G      1
15H20211012.212228,0.01,10000.,7Hunknown,7Hunknown,11,0,;               G      2
     186       1                                                00000000D      1
     186            -175       1       0                               0D      2
     514       2                                                00010000D      3
     514                       2       1                               0D      4
     510       4                                                00010000D      5
     510            -175       1       1                               0D      6
     510       5                                                00010000D      7
     510            -175       1       1                               0D      8
     510       6                                                00010000D      9
     510            -175       1       1                               0D     10
     510       7                                                00010000D     11
     510            -175       1       1                               0D     12
     510       8                                                00010000D     13
     510            -175       1       1                               0D     14
     510       9                                                00010000D     15
     510            -175       1       1                               0D     16
     510      10                                                00010000D     17
     510            -175       1       1                               0D     18
     510      11                                                00010000D     19
     510            -175       1       1                               0D     20
     510      12                                                00010000D     21
     510            -175       1       1                               0D     22
     510      13                                                00010000D     23
     510            -175       1       1                               0D     24
     510      14                                                00010000D     25
     510            -175       1       1                               0D     26
     510      15                                                00010000D     27
     510            -175       1       1                               0D     28
     510      16                                                00010000D     29
     510            -175       1       1                               0D     30
     510      17                                                00010000D     31
     510            -175       1       1                               0D     32
     508      18                                                00010000D     33
     508                       2       1                               0D     34
     508      20                                                00010000D     35
     508                       2       1                               0D     36
     508      22                                                00010000D     37
     508                       1       1                               0D     38
     508      23                                                00010000D     39
     508                       1       1                               0D     40
     508      24                                                00010000D     41
     508                       2       1                               0D     42
     508      26                                                00010000D     43
     508                       2       1                               0D     44
     508      28                                                00010000D     45
     508                       2       1                               0D     46
     508      30                                                00010000D     47
     508                       2       1                               0D     48
     508      32                                                00010000D     49
     508                       1       1                               0D     50
     508      33                                                00010000D     51
     508                       1       1                               0D     52
     508      34                                                00010000D     53
     508                       1       1                               0D     54
     508      35                                                00010000D     55
     508                       1       1                               0D     56
     508      36                                                00010000D     57
     508                       1       1                               0D     58
     508      37                                                00010000D     59
     508                       1       1                               0D     60
     508      38                                                00010000D     61
     508                       2       1                               0D     62
     508      40                                                00010000D     63
     508                       2       1                               0D     64
     126      42                                                00010000D     65
     126       0               6       0                               0D     66
     126      48                                                00010000D     67
     126       0               5       0                               0D     68
     126      53                                                00010000D     69
     126       0               6       0                               0D     70
     126      59                                                00010000D     71
     126       0               6       0                               0D     72
     126      65                                                00010000D     73
     126       0               6       0                               0D     74
     126      71                                                00010000D     75
     126       0               6       0                               0D     76
     126      77                                                00010000D     77
     126       0               6       0                               0D     78
     126      83                                                00010000D     79
     126       0               4       0                               0D     80
     126      87                                                00010000D     81
     126       0              11       0                               0D     82
     126      98                                                00010000D     83
     126       0               5       0                               0D     84
     126     103                                                00010000D     85
     126       0               6       0                               0D     86
     126     109                                                00010000D     87
     126       0               7       0                               0D     88
     126     116                                                00010000D     89
     126       0               6       0                               0D     90
     126     122                                                00010000D     91
     126       0               5       0                               0D     92
     126     127                                                00010000D     93
     126       0               6       0                               0D     94
     126     133                                                00010000D     95
     126       0               6       0                               0D     96
     126     139                                                00010000D     97
     126       0               6       0                               0D     98
     126     145                                                00010000D     99
     126       0               2       0                               0D    100
     126     147                                                00010000D    101
     126       0               5       0                               0D    102
     126     152                                                00010000D    103
     126       0               5       0                               0D    104
     126     157                                                00010000D    105
     126       0               2       0                               0D    106
     126     159                                                00010000D    107
     126       0               2       0                               0D    108
     126     161                                                00010000D    109
     126       0               3       0                               0D    110
     126     164                                                00010000D    111
     126       0               2       0                               0D    112
     126     166                                                00010000D    113
     126       0               2       0                               0D    114
     126     168                                                00010000D    115
     126       0               2       0                               0D    116
     126     170                                                00010000D    117
     126       0               2       0                               0D    118
     126     172                                                00010000D    119
     126       0               2       0                               0D    120
     126     174                                                00010000D    121
     126       0               2       0                               0D    122
     126     176                                                00010000D    123
     126       0               2       0                               0D    124
     126     178                                                00010000D    125
     126       0               2       0                               0D    126
     126     180                                                00010000D    127
     126       0               2       0                               0D    128
     126     182                                                00010000D    129
     126       0               2       0                               0D    130
     126     184                                                00010000D    131
     126       0               2       0                               0D    132
     126     186                                                00010000D    133
     126       0               2       0                               0D    134
     126     188                                                00010000D    135
     126       0               2       0                               0D    136
     126     190                                                00010000D    137
     126       0               7       0                               0D    138
     126     197                                                00010000D    139
     126       0               4       0                               0D    140
     128     201                                                00010000D    141
     128       0    -175      27       0                               0D    142
     128     228                                                00010000D    143
     128       0    -175      18       0                               0D    144
     128     246                                                00010000D    145
     128       0    -175       4       0                               0D    146
     128     250                                                00010000D    147
     128       0    -175      27       0                               0D    148
     128     277                                                00010000D    149
     128       0    -175      27       0                               0D    150
     128     304                                                00010000D    151
     128       0    -175      17       0                               0D    152
     128     321                                                00010000D    153
     128       0    -175       5       0                               0D    154
     128     326                                                00010000D    155
     128       0    -175       4       0                               0D    156
     128     330                                                00010000D    157
     128       0    -175       4       0                               0D    158
     128     334                                                00010000D    159
     128       0    -175       5       0                               0D    160
     128     339                                                00010000D    161
     128       0    -175       4       0                               0D    162
     128     343                                                00010000D    163
     128       0    -175       5       0                               0D    164
     128     348                                                00010000D    165
     128       0    -175      18       0                               0D    166
     128     366                                                00010000D    167
     128       0    -175       5       0                               0D    168
     502     371                                                00010000D    169
     502                      14       1                               0D    170
     504     385                                                00010001D    171
     504                      11       1                               0D    172
     406     396                                                00000000D    173
     406                       1      15                               0D    174
     314     397                                                00000200D    175
     314                       2       0                               0D    176
186,3,1,0,0,1,173;                                                     1P      1
514,14,5,1,7,1,9,1,11,1,13,1,15,1,17,1,19,1,21,1,23,1,25,1,27,1,       3P      2
29,1,31,1;                                                             3P      3
510,141,1,1,33;                                                        5P      4
510,143,1,1,35;                                                        7P      5
510,145,2,1,37,39;                                                     9P      6
510,147,1,1,41;                                                       11P      7
510,149,1,1,43;                                                       13P      8
510,151,1,1,45;                                                       15P      9
510,153,2,1,47,49;                                                    17P     10
510,155,1,1,51;                                                       19P     11
510,157,1,1,53;                                                       21P     12
510,159,1,1,55;                                                       23P     13
510,161,1,1,57;                                                       25P     14
510,163,1,1,59;                                                       27P     15
510,165,1,1,61;                                                       29P     16
510,167,1,1,63;                                                       31P     17
508,6,0,171,1,1,0,0,171,2,1,0,0,171,3,1,0,0,171,4,1,0,0,171,2,0,      33P     18
0,0,171,5,1,0;                                                        33P     19
508,6,0,171,6,0,0,0,171,7,0,0,0,171,8,1,0,0,171,3,0,0,0,171,4,0,      35P     20
0,0,171,8,0,0;                                                        35P     21
508,1,0,171,9,1,0;                                                    37P     22
508,2,0,171,1,0,0,0,171,5,0,0;                                        39P     23
508,6,0,171,6,1,0,0,171,7,1,0,0,171,10,1,0,0,171,11,0,0,0,171,        41P     24
12,0,0,0,171,10,0,0;                                                  41P     25
508,6,0,171,13,1,0,0,171,14,1,0,0,171,15,1,0,0,171,16,1,0,0,171,      43P     26
14,0,0,0,171,17,1,0;                                                  43P     27
508,6,0,171,16,0,0,0,171,18,1,0,0,171,12,1,0,0,171,11,1,0,0,171,      45P     28
18,0,0,0,171,15,0,0;                                                  45P     29
508,7,0,171,19,1,0,0,171,20,1,0,0,171,21,1,0,0,171,22,1,0,0,171,      47P     30
23,1,0,0,171,24,1,0,0,171,25,1,0;                                     47P     31
508,2,0,171,13,0,0,0,171,17,0,0;                                      49P     32
508,4,0,171,26,0,0,0,171,27,1,0,0,171,25,0,0,0,171,28,0,0;            51P     33
508,4,0,171,29,0,0,0,171,28,1,0,0,171,24,0,0,0,171,30,0,0;            53P     34
508,4,0,171,31,0,0,0,171,30,1,0,0,171,23,0,0,0,171,32,0,0;            55P     35
508,4,0,171,33,1,0,0,171,32,1,0,0,171,22,0,0,0,171,34,0,0;            57P     36
508,4,0,171,35,1,0,0,171,34,1,0,0,171,21,0,0,0,171,36,0,0;            59P     37
508,8,0,171,37,0,0,0,171,36,1,0,0,171,20,0,0,0,171,38,1,0,0,171,      61P     38
9,0,0,0,171,38,0,0,0,171,19,0,0,0,171,27,0,0;                         61P     39
508,6,0,171,37,1,0,0,171,26,1,0,0,171,29,1,0,0,171,31,1,0,0,171,      63P     40
33,0,0,0,171,35,0,0;                                                  63P     41
126,4,2,0,0,0,0,-3.14159265358979,-3.14159265358979,                  65P     42
-3.14159265358979,-1.5707963267949,-1.5707963267949,0.,0.,0.,1.,      65P     43
0.707106781186547,1.,0.707106781186547,1.,-43.7861559788816,          65P     44
-20.,63.,-43.7861559788816,-27.,63.,-43.7861559788816,-27.,70.,       65P     45
-43.7861559788816,-27.,77.,-43.7861559788816,-20.,77.,                65P     46
-3.14159265358979,0.,0.,0.,0.;                                        65P     47
126,2,2,0,0,0,0,1.5707963267949,1.5707963267949,1.5707963267949,      67P     48
3.14159265358979,3.14159265358979,3.14159265358979,1.,                67P     49
0.707106781186541,1.,-43.7861559788816,-20.,77.,                      67P     50
-43.7861559788816,-20.,73.,-39.7861559788816,-20.,73.,                67P     51
1.5707963267949,3.14159265358979,0.,0.,0.;                            67P     52
126,4,2,0,0,0,0,0.,0.,0.,1.5707963267949,1.5707963267949,             69P     53
3.14159265358979,3.14159265358979,3.14159265358979,1.,                69P     54
0.707106781186546,1.,0.707106781186546,1.,-39.7861559788816,          69P     55
-20.,73.,-39.7861559788816,-23.,73.,-39.7861559788816,-23.,70.,       69P     56
-39.7861559788816,-23.,67.,-39.7861559788816,-20.,67.,0.,             69P     57
3.14159265358979,0.,0.,0.;                                            69P     58
126,4,2,0,0,0,0,-3.14159265358979,-3.14159265358979,                  71P     59
-3.14159265358979,-1.5707963267949,-1.5707963267949,0.,0.,0.,1.,      71P     60
0.707106781186544,1.,0.707106781186544,1.,-39.7861559788816,          71P     61
-20.,67.,-39.7861559788816,-17.,67.,-39.7861559788816,-17.,70.,       71P     62
-39.7861559788816,-17.,73.,-39.7861559788816,-20.,73.,                71P     63
-3.14159265358979,0.,0.,0.,0.;                                        71P     64
126,4,2,0,0,0,0,0.,0.,0.,1.5707963267949,1.5707963267949,             73P     65
3.14159265358979,3.14159265358979,3.14159265358979,1.,                73P     66
0.707106781186547,1.,0.707106781186547,1.,-43.7861559788816,          73P     67
-20.,77.,-43.7861559788816,-13.,77.,-43.7861559788816,-13.,70.,       73P     68
-43.7861559788816,-13.,63.,-43.7861559788816,-20.,63.,0.,             73P     69
3.14159265358979,0.,0.,0.;                                            73P     70
126,4,2,0,0,0,0,-3.14159265358979,-3.14159265358979,                  75P     71
-3.14159265358979,-1.5707963267949,-1.5707963267949,0.,0.,0.,1.,      75P     72
0.707106781186544,1.,0.707106781186544,1.,-36.6145831036277,          75P     73
-20.,73.,-36.6145831036277,-17.,73.,-36.6145831036277,-17.,70.,       75P     74
-36.6145831036277,-17.,67.,-36.6145831036277,-20.,67.,                75P     75
-3.14159265358979,0.,0.,0.,0.;                                        75P     76
126,4,2,0,0,0,0,0.,0.,0.,1.5707963267949,1.5707963267949,             77P     77
3.14159265358979,3.14159265358979,3.14159265358979,1.,                77P     78
0.707106781186546,1.,0.707106781186546,1.,-36.6145831036277,          77P     79
-20.,67.,-36.6145831036277,-23.,67.,-36.6145831036277,-23.,70.,       77P     80
-36.6145831036277,-23.,73.,-36.6145831036277,-20.,73.,0.,             77P     81
3.14159265358979,0.,0.,0.;                                            77P     82
126,1,1,0,0,1,0,-2.39052429175127,-2.39052429175127,                  79P     83
-1.33333333333333,-1.33333333333333,1.,1.,-36.6145831036277,          79P     84
-20.,67.,-39.7861559788816,-20.,67.,-2.39052429175127,                79P     85
-1.33333333333333,0.,0.,0.;                                           79P     86
126,8,2,0,1,0,0,-3.14159265358979,-3.14159265358979,                  81P     87
-3.14159265358979,-1.5707963267949,-1.5707963267949,0.,0.,            81P     88
1.5707963267949,1.5707963267949,3.14159265358979,                     81P     89
3.14159265358979,3.14159265358979,1.,0.707106781186548,1.,            81P     90
0.707106781186549,1.,0.707106781186548,1.,0.707106781186548,1.,       81P     91
-43.7861559788816,-20.,79.5,-43.7861559788816,-10.5,79.5,             81P     92
-43.7861559788816,-10.5,70.,-43.7861559788816,-10.5,60.5,             81P     93
-43.7861559788816,-20.,60.5,-43.7861559788816,-29.5,60.5,             81P     94
-43.7861559788816,-29.5,70.,-43.7861559788816,-29.5,79.5,             81P     95
-43.7861559788816,-20.,79.5,-3.14159265358979,3.14159265358979,       81P     96
0.,0.,0.;                                                             81P     97
126,2,2,0,0,0,0,-3.14159265358979,-3.14159265358979,                  83P     98
-3.14159265358979,-1.91063323624902,-1.91063323624902,                83P     99
-1.91063323624902,1.,0.816496580927726,1.,-36.6145831036277,          83P    100
-20.,73.,-34.4932627600681,-20.,73.,-33.7861559788816,-20.,75.,       83P    101
-3.14159265358979,-1.91063323624902,0.,0.,0.;                         83P    102
126,4,2,0,0,0,0,0.,0.,0.,1.5707963267949,1.5707963267949,             85P    103
3.14159265358979,3.14159265358979,3.14159265358979,1.,                85P    104
0.70710678118655,1.,0.70710678118655,1.,-33.7861559788816,-20.,       85P    105
65.,-33.7861559788816,-25.,65.,-33.7861559788816,-25.,70.,            85P    106
-33.7861559788816,-25.,75.,-33.7861559788816,-20.,75.,0.,             85P    107
3.14159265358979,0.,0.,0.;                                            85P    108
126,4,2,0,0,0,0,3.14159265358979,3.14159265358979,                    87P    109
3.14159265358979,4.71238898038469,4.71238898038469,                   87P    110
6.28318530717959,6.28318530717959,6.28318530717959,1.,                87P    111
0.707106781186548,1.,0.707106781186549,1.,-33.7861559788816,          87P    112
-20.,75.,-33.7861559788816,-15.,75.,-33.7861559788816,-15.,70.,       87P    113
-33.7861559788816,-15.,65.,-33.7861559788816,-20.,65.,                87P    114
3.14159265358979,6.28318530717959,0.,0.,0.;                           87P    115
126,4,2,0,0,0,0,-3.14159265358979,-3.14159265358979,                  89P    116
-3.14159265358979,-1.5707963267949,-1.5707963267949,0.,0.,0.,1.,      89P    117
0.707106781186549,1.,0.707106781186549,1.,-22.1061559788816,          89P    118
-20.,78.,-22.1061559788816,-28.,78.,-22.1061559788816,-28.,70.,       89P    119
-22.1061559788816,-28.,62.,-22.1061559788816,-20.,62.,                89P    120
-3.14159265358979,0.,0.,0.,0.;                                        89P    121
126,2,2,0,0,0,0,1.5707963267949,1.5707963267949,1.5707963267949,      91P    122
3.14159265358979,3.14159265358979,3.14159265358979,1.,                91P    123
0.707106781186555,1.,-22.1061559788816,-20.,62.,                      91P    124
-22.1061559788816,-20.,65.,-25.1061559788816,-20.,65.,                91P    125
1.5707963267949,3.14159265358979,0.,0.,0.;                            91P    126
126,4,2,0,0,0,0,0.,0.,0.,1.5707963267949,1.5707963267949,             93P    127
3.14159265358979,3.14159265358979,3.14159265358979,1.,                93P    128
0.70710678118655,1.,0.70710678118655,1.,-25.1061559788816,-20.,       93P    129
65.,-25.1061559788816,-25.,65.,-25.1061559788816,-25.,70.,            93P    130
-25.1061559788816,-25.,75.,-25.1061559788816,-20.,75.,0.,             93P    131
3.14159265358979,0.,0.,0.;                                            93P    132
126,4,2,0,0,0,0,-3.14159265358979,-3.14159265358979,                  95P    133
-3.14159265358979,-1.5707963267949,-1.5707963267949,0.,0.,0.,1.,      95P    134
0.707106781186548,1.,0.707106781186548,1.,-25.1061559788816,          95P    135
-20.,75.,-25.1061559788816,-15.,75.,-25.1061559788816,-15.,70.,       95P    136
-25.1061559788816,-15.,65.,-25.1061559788816,-20.,65.,                95P    137
-3.14159265358979,0.,0.,0.,0.;                                        95P    138
126,4,2,0,0,0,0,0.,0.,0.,1.5707963267949,1.5707963267949,             97P    139
3.14159265358979,3.14159265358979,3.14159265358979,1.,                97P    140
0.707106781186548,1.,0.707106781186548,1.,-22.1061559788816,          97P    141
-20.,62.,-22.1061559788816,-12.,62.,-22.1061559788816,-12.,70.,       97P    142
-22.1061559788816,-12.,78.,-22.1061559788816,-20.,78.,0.,             97P    143
3.14159265358979,0.,0.,0.;                                            97P    144
126,1,1,0,0,1,0,0.6,0.6,2.336,2.336,1.,1.,-25.1061559788816,          99P    145
-20.,75.,-33.7861559788816,-20.,75.,0.6,2.336,0.,0.,0.;               99P    146
126,2,2,0,0,0,0,1.5707963267949,1.5707963267949,1.5707963267949,     101P    147
3.14159265358979,3.14159265358979,3.14159265358979,1.,               101P    148
0.707106781186548,1.,-22.1061559788816,-10.5,70.,                    101P    149
-22.1061559788816,-10.5,79.5,-22.1061559788816,-20.,79.5,            101P    150
1.5707963267949,3.14159265358979,0.,0.,0.;                           101P    151
126,2,2,0,0,0,0,3.14159265358979,3.14159265358979,                   103P    152
3.14159265358979,4.71238898038469,4.71238898038469,                  103P    153
4.71238898038469,1.,0.707106781186548,1.,-22.1061559788816,-20.,     103P    154
79.5,-22.1061559788816,-29.5,79.5,-22.1061559788816,-29.5,70.,       103P    155
3.14159265358979,4.71238898038469,0.,0.,0.;                          103P    156
126,1,1,0,0,1,0,0.,0.,6.95,6.95,1.,1.,-22.1061559788816,-29.5,       105P    157
70.,-22.1061559788816,-29.5,0.499999999999998,0.,6.95,0.,0.,0.;      105P    158
126,1,1,0,0,1,0,0.,0.,1.43,1.43,1.,1.,-22.1061559788816,-29.5,       107P    159
0.5,-22.1061559788816,-15.2,0.5,0.,1.43,0.,0.,0.;                    107P    160
126,1,1,0,0,1,0,-3.97,-3.97,0.,0.,1.,1.,-22.1061559788816,-15.2,     109P    161
0.499999999999998,-22.1061559788816,-15.2,40.2,-3.97,0.,0.,0.,       109P    162
0.;                                                                  109P    163
126,1,1,0,0,1,0,-0.52,-0.52,-0.05,-0.05,1.,1.,-22.1061559788816,     111P    164
-15.2,40.2,-22.1061559788816,-10.5,40.2,-0.52,-0.05,0.,0.,0.;        111P    165
126,1,1,0,0,1,0,-2.98,-2.98,0.,0.,1.,1.,-22.1061559788816,-10.5,     113P    166
40.2,-22.1061559788816,-10.5,70.,-2.98,0.,0.,0.,0.;                  113P    167
126,1,1,0,0,1,0,0.,0.,2.98,2.98,1.,1.,-27.1061559788816,-10.5,       115P    168
70.,-27.1061559788816,-10.5,40.2,0.,2.98,0.,0.,0.;                   115P    169
126,1,1,0,0,1,0,0.,0.,0.5,0.5,1.,1.,-27.1061559788816,-10.5,70.,     117P    170
-22.1061559788816,-10.5,70.,0.,0.5,0.,0.,0.;                         117P    171
126,1,1,0,0,1,0,0.,0.,0.5,0.5,1.,1.,-27.1061559788816,-10.5,         119P    172
40.2,-22.1061559788816,-10.5,40.2,0.,0.5,0.,0.,0.;                   119P    173
126,1,1,0,0,1,0,0.05,0.05,0.52,0.52,1.,1.,-27.1061559788816,         121P    174
-10.5,40.2,-27.1061559788816,-15.2,40.2,0.05,0.52,0.,0.,0.;          121P    175
126,1,1,0,0,1,0,0.,0.,0.5,0.5,1.,1.,-27.1061559788816,-15.2,         123P    176
40.2,-22.1061559788816,-15.2,40.2,0.,0.5,0.,0.,0.;                   123P    177
126,1,1,0,0,1,0,0.,0.,3.97,3.97,1.,1.,-27.1061559788816,-15.2,       125P    178
40.2,-27.1061559788816,-15.2,0.499999999999998,0.,3.97,0.,0.,0.;     125P    179
126,1,1,0,0,1,0,0.,0.,0.5,0.5,1.,1.,-27.1061559788816,-15.2,0.5,     127P    180
-22.1061559788816,-15.2,0.5,0.,0.5,0.,0.,0.;                         127P    181
126,1,1,0,0,1,0,0.,0.,1.43,1.43,1.,1.,-27.1061559788816,-29.5,       129P    182
0.5,-27.1061559788816,-15.2,0.5,0.,1.43,0.,0.,0.;                    129P    183
126,1,1,0,0,1,0,0.,0.,0.5,0.5,1.,1.,-27.1061559788816,-29.5,0.5,     131P    184
-22.1061559788816,-29.5,0.5,0.,0.5,0.,0.,0.;                         131P    185
126,1,1,0,0,1,0,0.,0.,6.95,6.95,1.,1.,-27.1061559788816,-29.5,       133P    186
70.,-27.1061559788816,-29.5,0.499999999999998,0.,6.95,0.,0.,0.;      133P    187
126,1,1,0,0,1,0,0.,0.,0.5,0.5,1.,1.,-27.1061559788816,-29.5,70.,     135P    188
-22.1061559788816,-29.5,70.,0.,0.5,0.,0.,0.;                         135P    189
126,4,2,0,0,0,0,-1.5707963267949,-1.5707963267949,                   137P    190
-1.5707963267949,0.,0.,1.5707963267949,1.5707963267949,              137P    191
1.5707963267949,1.,0.707106781186548,1.,0.707106781186549,1.,        137P    192
-27.1061559788816,-29.5,70.,-27.1061559788816,-29.5,60.5,            137P    193
-27.1061559788816,-20.,60.5,-27.1061559788816,-10.5,60.5,            137P    194
-27.1061559788816,-10.5,70.,-1.5707963267949,1.5707963267949,0.,     137P    195
0.,0.;                                                               137P    196
126,1,1,0,0,1,0,-0.526315789473684,-0.526315789473684,               139P    197
1.75578947368421,1.75578947368421,1.,1.,-22.1061559788816,-20.,      139P    198
79.5,-43.7861559788816,-20.,79.5,-0.526315789473684,                 139P    199
1.75578947368421,0.,0.,0.;                                           139P    200
128,2,8,2,2,0,1,0,0,1,-3.14159265358979,-3.14159265358979,           141P    201
-3.14159265358979,-1.5707963267949,-1.5707963267949,                 141P    202
-1.5707963267949,-3.14159265358979,-3.14159265358979,                141P    203
-3.14159265358979,-1.5707963267949,-1.5707963267949,0.,0.,           141P    204
1.5707963267949,1.5707963267949,3.14159265358979,                    141P    205
3.14159265358979,3.14159265358979,1.,0.707106781186541,1.,           141P    206
0.707106781186548,0.499999999999996,0.707106781186548,1.,            141P    207
0.707106781186541,1.,0.707106781186548,0.499999999999996,            141P    208
0.707106781186548,1.,0.707106781186541,1.,0.707106781186548,         141P    209
0.499999999999996,0.707106781186548,1.,0.707106781186541,1.,         141P    210
0.707106781186548,0.499999999999996,0.707106781186548,1.,            141P    211
0.707106781186541,1.,-43.7861559788816,-20.,77.,                     141P    212
-43.7861559788816,-20.,73.,-39.7861559788816,-20.,73.,               141P    213
-43.7861559788816,-27.,77.,-43.7861559788816,-23.,73.,               141P    214
-39.7861559788816,-23.,73.,-43.7861559788816,-27.,70.,               141P    215
-43.7861559788816,-23.,70.,-39.7861559788816,-23.,70.,               141P    216
-43.7861559788816,-27.,63.,-43.7861559788816,-23.,67.,               141P    217
-39.7861559788816,-23.,67.,-43.7861559788816,-20.,63.,               141P    218
-43.7861559788816,-20.,67.,-39.7861559788816,-20.,67.,               141P    219
-43.7861559788816,-13.,63.,-43.7861559788816,-17.,67.,               141P    220
-39.7861559788816,-17.,67.,-43.7861559788816,-13.,70.,               141P    221
-43.7861559788816,-17.,70.,-39.7861559788816,-17.,70.,               141P    222
-43.7861559788816,-13.,77.,-43.7861559788816,-17.,73.,               141P    223
-39.7861559788816,-17.,73.,-43.7861559788816,-20.,77.,               141P    224
-43.7861559788816,-20.,73.,-39.7861559788816,-20.,73.,               141P    225
-3.14159265358979,-1.5707963267949,-3.14159265358979,                141P    226
3.14159265358979;                                                    141P    227
128,1,8,1,2,0,1,0,0,1,1.33333333333333,1.33333333333333,             143P    228
2.39052429175127,2.39052429175127,-3.14159265358979,                 143P    229
-3.14159265358979,-3.14159265358979,-1.5707963267949,                143P    230
-1.5707963267949,0.,0.,1.5707963267949,1.5707963267949,              143P    231
3.14159265358979,3.14159265358979,3.14159265358979,1.,1.,            143P    232
0.707106781186548,0.707106781186548,1.,1.,0.707106781186548,         143P    233
0.707106781186548,1.,1.,0.707106781186548,0.707106781186548,1.,      143P    234
1.,0.707106781186548,0.707106781186548,1.,1.,-39.7861559788816,      143P    235
-20.,67.,-36.6145831036277,-20.,67.,-39.7861559788816,-17.,67.,      143P    236
-36.6145831036277,-17.,67.,-39.7861559788816,-17.,70.,               143P    237
-36.6145831036277,-17.,70.,-39.7861559788816,-17.,73.,               143P    238
-36.6145831036277,-17.,73.,-39.7861559788816,-20.,73.,               143P    239
-36.6145831036277,-20.,73.,-39.7861559788816,-23.,73.,               143P    240
-36.6145831036277,-23.,73.,-39.7861559788816,-23.,70.,               143P    241
-36.6145831036277,-23.,70.,-39.7861559788816,-23.,67.,               143P    242
-36.6145831036277,-23.,67.,-39.7861559788816,-20.,67.,               143P    243
-36.6145831036277,-20.,67.,1.33333333333333,2.39052429175127,        143P    244
-3.14159265358979,3.14159265358979;                                  143P    245
128,1,1,1,1,0,0,1,0,0,-0.951,-0.951,0.951,0.951,-0.951,-0.951,       145P    246
0.951,0.951,1.,1.,1.,1.,-43.7861559788816,-29.51,60.49,              145P    247
-43.7861559788816,-29.51,79.51,-43.7861559788816,-10.49,60.49,       145P    248
-43.7861559788816,-10.49,79.51,-0.951,0.951,-0.951,0.951;            145P    249
128,2,8,2,2,0,1,0,0,1,1.91063323624902,1.91063323624902,             147P    250
1.91063323624902,3.14159265358979,3.14159265358979,                  147P    251
3.14159265358979,-3.14159265358979,-3.14159265358979,                147P    252
-3.14159265358979,-1.5707963267949,-1.5707963267949,0.,0.,           147P    253
1.5707963267949,1.5707963267949,3.14159265358979,                    147P    254
3.14159265358979,3.14159265358979,1.,0.816496580927726,1.,           147P    255
0.707106781186548,0.577350269189626,0.707106781186548,1.,            147P    256
0.816496580927726,1.,0.707106781186548,0.577350269189626,            147P    257
0.707106781186548,1.,0.816496580927726,1.,0.707106781186548,         147P    258
0.577350269189626,0.707106781186548,1.,0.816496580927726,1.,         147P    259
0.707106781186548,0.577350269189626,0.707106781186548,1.,            147P    260
0.816496580927726,1.,-33.7861559788816,-20.,75.,                     147P    261
-34.4932627600681,-20.,73.,-36.6145831036277,-20.,73.,               147P    262
-33.7861559788816,-15.,75.,-34.4932627600681,-17.,73.,               147P    263
-36.6145831036277,-17.,73.,-33.7861559788816,-15.,70.,               147P    264
-34.4932627600681,-17.,70.,-36.6145831036277,-17.,70.,               147P    265
-33.7861559788816,-15.,65.,-34.4932627600681,-17.,67.,               147P    266
-36.6145831036277,-17.,67.,-33.7861559788816,-20.,65.,               147P    267
-34.4932627600681,-20.,67.,-36.6145831036277,-20.,67.,               147P    268
-33.7861559788816,-25.,65.,-34.4932627600681,-23.,67.,               147P    269
-36.6145831036277,-23.,67.,-33.7861559788816,-25.,70.,               147P    270
-34.4932627600681,-23.,70.,-36.6145831036277,-23.,70.,               147P    271
-33.7861559788816,-25.,75.,-34.4932627600681,-23.,73.,               147P    272
-36.6145831036277,-23.,73.,-33.7861559788816,-20.,75.,               147P    273
-34.4932627600681,-20.,73.,-36.6145831036277,-20.,73.,               147P    274
1.91063323624902,3.14159265358979,-3.14159265358979,                 147P    275
3.14159265358979;                                                    147P    276
128,2,8,2,2,0,1,0,0,1,-3.14159265358979,-3.14159265358979,           149P    277
-3.14159265358979,-1.5707963267949,-1.5707963267949,                 149P    278
-1.5707963267949,-3.14159265358979,-3.14159265358979,                149P    279
-3.14159265358979,-1.5707963267949,-1.5707963267949,0.,0.,           149P    280
1.5707963267949,1.5707963267949,3.14159265358979,                    149P    281
3.14159265358979,3.14159265358979,1.,0.707106781186555,1.,           149P    282
0.707106781186548,0.500000000000005,0.707106781186548,1.,            149P    283
0.707106781186555,1.,0.707106781186548,0.500000000000005,            149P    284
0.707106781186548,1.,0.707106781186555,1.,0.707106781186548,         149P    285
0.500000000000005,0.707106781186548,1.,0.707106781186555,1.,         149P    286
0.707106781186548,0.500000000000005,0.707106781186548,1.,            149P    287
0.707106781186555,1.,-22.1061559788816,-20.,62.,                     149P    288
-22.1061559788816,-20.,65.,-25.1061559788816,-20.,65.,               149P    289
-22.1061559788816,-28.,62.,-22.1061559788816,-25.,65.,               149P    290
-25.1061559788816,-25.,65.,-22.1061559788816,-28.,70.,               149P    291
-22.1061559788816,-25.,70.,-25.1061559788816,-25.,70.,               149P    292
-22.1061559788816,-28.,78.,-22.1061559788816,-25.,75.,               149P    293
-25.1061559788816,-25.,75.,-22.1061559788816,-20.,78.,               149P    294
-22.1061559788816,-20.,75.,-25.1061559788816,-20.,75.,               149P    295
-22.1061559788816,-12.,78.,-22.1061559788816,-15.,75.,               149P    296
-25.1061559788816,-15.,75.,-22.1061559788816,-12.,70.,               149P    297
-22.1061559788816,-15.,70.,-25.1061559788816,-15.,70.,               149P    298
-22.1061559788816,-12.,62.,-22.1061559788816,-15.,65.,               149P    299
-25.1061559788816,-15.,65.,-22.1061559788816,-20.,62.,               149P    300
-22.1061559788816,-20.,65.,-25.1061559788816,-20.,65.,               149P    301
-3.14159265358979,-1.5707963267949,-3.14159265358979,                149P    302
3.14159265358979;                                                    149P    303
128,1,8,1,2,0,1,0,0,1,0.6,0.6,2.336,2.336,-3.14159265358979,         151P    304
-3.14159265358979,-3.14159265358979,-1.5707963267949,                151P    305
-1.5707963267949,0.,0.,1.5707963267949,1.5707963267949,              151P    306
3.14159265358979,3.14159265358979,3.14159265358979,1.,1.,            151P    307
0.707106781186548,0.707106781186548,1.,1.,0.707106781186548,         151P    308
0.707106781186548,1.,1.,0.707106781186548,0.707106781186548,1.,      151P    309
1.,0.707106781186548,0.707106781186548,1.,1.,-25.1061559788816,      151P    310
-20.,75.,-33.7861559788816,-20.,75.,-25.1061559788816,-15.,75.,      151P    311
-33.7861559788816,-15.,75.,-25.1061559788816,-15.,70.,               151P    312
-33.7861559788816,-15.,70.,-25.1061559788816,-15.,65.,               151P    313
-33.7861559788816,-15.,65.,-25.1061559788816,-20.,65.,               151P    314
-33.7861559788816,-20.,65.,-25.1061559788816,-25.,65.,               151P    315
-33.7861559788816,-25.,65.,-25.1061559788816,-25.,70.,               151P    316
-33.7861559788816,-25.,70.,-25.1061559788816,-25.,75.,               151P    317
-33.7861559788816,-25.,75.,-25.1061559788816,-20.,75.,               151P    318
-33.7861559788816,-20.,75.,0.6,2.336,-3.14159265358979,              151P    319
3.14159265358979;                                                    151P    320
128,1,1,1,1,0,0,1,0,0,-3.951,-3.951,3.951,3.951,-0.951,-0.951,       153P    321
0.951,0.951,1.,1.,1.,1.,-22.1061559788816,-29.51,79.51,              153P    322
-22.1061559788816,-29.51,0.489999999999999,-22.1061559788816,        153P    323
-10.49,79.51,-22.1061559788816,-10.49,0.489999999999995,-3.951,      153P    324
3.951,-0.951,0.951;                                                  153P    325
128,1,1,1,1,0,0,1,0,0,-0.001,-0.001,2.981,2.981,-0.001,-0.001,       155P    326
0.501,0.501,1.,1.,1.,1.,-27.1161559788816,-10.5,40.19,               155P    327
-27.1161559788816,-10.5,70.01,-22.0961559788816,-10.5,40.19,         155P    328
-22.0961559788816,-10.5,70.01,-0.001,2.981,-0.001,0.501;             155P    329
128,1,1,1,1,0,0,1,0,0,-0.001,-0.001,0.471,0.471,-0.001,-0.001,       157P    330
0.501,0.501,1.,1.,1.,1.,-27.1161559788816,-15.21,40.2,               157P    331
-27.1161559788816,-10.49,40.2,-22.0961559788816,-15.21,40.2,         157P    332
-22.0961559788816,-10.49,40.2,-0.001,0.471,-0.001,0.501;             157P    333
128,1,1,1,1,0,0,1,0,0,-0.001,-0.001,3.971,3.971,-0.001,-0.001,       159P    334
0.501,0.501,1.,1.,1.,1.,-27.1161559788816,-15.2,                     159P    335
0.489999999999998,-27.1161559788816,-15.2,40.21,                     159P    336
-22.0961559788816,-15.2,0.489999999999998,-22.0961559788816,         159P    337
-15.2,40.21,-0.001,3.971,-0.001,0.501;                               159P    338
128,1,1,1,1,0,0,1,0,0,-0.001,-0.001,1.431,1.431,-0.001,-0.001,       161P    339
0.501,0.501,1.,1.,1.,1.,-27.1161559788816,-29.51,0.5,                161P    340
-27.1161559788816,-15.19,0.5,-22.0961559788816,-29.51,0.5,           161P    341
-22.0961559788816,-15.19,0.5,-0.001,1.431,-0.001,0.501;              161P    342
128,1,1,1,1,0,0,1,0,0,-0.001,-0.001,6.951,6.951,-0.001,-0.001,       163P    343
0.501,0.501,1.,1.,1.,1.,-27.1161559788816,-29.5,70.01,               163P    344
-27.1161559788816,-29.5,0.489999999999995,-22.0961559788816,         163P    345
-29.5,70.01,-22.0961559788816,-29.5,0.489999999999995,-0.001,        163P    346
6.951,-0.001,0.501;                                                  163P    347
128,1,8,1,2,0,1,0,0,1,-1.75578947368421,-1.75578947368421,           165P    348
0.526315789473684,0.526315789473684,-3.14159265358979,               165P    349
-3.14159265358979,-3.14159265358979,-1.5707963267949,                165P    350
-1.5707963267949,0.,0.,1.5707963267949,1.5707963267949,              165P    351
3.14159265358979,3.14159265358979,3.14159265358979,1.,1.,            165P    352
0.707106781186548,0.707106781186548,1.,1.,0.707106781186548,         165P    353
0.707106781186548,1.,1.,0.707106781186548,0.707106781186548,1.,      165P    354
1.,0.707106781186548,0.707106781186548,1.,1.,-22.1061559788816,      165P    355
-20.,79.5,-43.7861559788816,-20.,79.5,-22.1061559788816,-29.5,       165P    356
79.5,-43.7861559788816,-29.5,79.5,-22.1061559788816,-29.5,70.,       165P    357
-43.7861559788816,-29.5,70.,-22.1061559788816,-29.5,60.5,            165P    358
-43.7861559788816,-29.5,60.5,-22.1061559788816,-20.,60.5,            165P    359
-43.7861559788816,-20.,60.5,-22.1061559788816,-10.5,60.5,            165P    360
-43.7861559788816,-10.5,60.5,-22.1061559788816,-10.5,70.,            165P    361
-43.7861559788816,-10.5,70.,-22.1061559788816,-10.5,79.5,            165P    362
-43.7861559788816,-10.5,79.5,-22.1061559788816,-20.,79.5,            165P    363
-43.7861559788816,-20.,79.5,-1.75578947368421,0.526315789473684,     165P    364
-3.14159265358979,3.14159265358979;                                  165P    365
128,1,1,1,1,0,0,1,0,0,-3.001,-3.001,3.951,3.951,-0.951,-0.951,       167P    366
0.951,0.951,1.,1.,1.,1.,-27.1061559788816,-29.51,                    167P    367
0.489999999999999,-27.1061559788816,-29.51,70.01,                    167P    368
-27.1061559788816,-10.49,0.489999999999995,-27.1061559788816,        167P    369
-10.49,70.01,-3.001,3.951,-0.951,0.951;                              167P    370
502,26,-43.7861559788816,-20.,63.,-43.7861559788816,-20.,77.,        169P    371
-39.7861559788816,-20.,73.,-39.7861559788816,-20.,67.,               169P    372
-36.6145831036277,-20.,73.,-36.6145831036277,-20.,67.,               169P    373
-43.7861559788816,-20.,79.5,-33.7861559788816,-20.,75.,              169P    374
-33.7861559788816,-20.,65.,-22.1061559788816,-20.,78.,               169P    375
-22.1061559788816,-20.,62.,-25.1061559788816,-20.,65.,               169P    376
-25.1061559788816,-20.,75.,-22.1061559788816,-10.5,70.,              169P    377
-22.1061559788816,-20.,79.5,-22.1061559788816,-29.5,70.,             169P    378
-22.1061559788816,-29.5,0.499999999999998,-22.1061559788816,         169P    379
-15.2,0.499999999999998,-22.1061559788816,-15.2,40.2,                169P    380
-22.1061559788816,-10.5,40.2,-27.1061559788816,-10.5,70.,            169P    381
-27.1061559788816,-10.5,40.2,-27.1061559788816,-15.2,40.2,           169P    382
-27.1061559788816,-15.2,0.5,-27.1061559788816,-29.5,0.5,             169P    383
-27.1061559788816,-29.5,70.;                                         169P    384
504,38,65,169,1,169,2,67,169,2,169,3,69,169,3,169,4,71,169,4,        171P    385
169,3,73,169,2,169,1,75,169,5,169,6,77,169,6,169,5,79,169,6,169,     171P    386
4,81,169,7,169,7,83,169,5,169,8,85,169,9,169,8,87,169,8,169,9,       171P    387
89,169,10,169,11,91,169,11,169,12,93,169,12,169,13,95,169,13,        171P    388
169,12,97,169,11,169,10,99,169,13,169,8,101,169,14,169,15,103,       171P    389
169,15,169,16,105,169,16,169,17,107,169,17,169,18,109,169,18,        171P    390
169,19,111,169,19,169,20,113,169,20,169,14,115,169,21,169,22,        171P    391
117,169,21,169,14,119,169,22,169,20,121,169,22,169,23,123,169,       171P    392
23,169,19,125,169,23,169,24,127,169,24,169,18,129,169,25,169,24,     171P    393
131,169,25,169,17,133,169,26,169,25,135,169,26,169,16,137,169,       171P    394
26,169,21,139,169,15,169,7;                                          171P    395
406,1,5HBody1;                                                       173P    396
314,62.7450980392157,62.7450980392157,62.7450980392157,13HSteel      175P    397
- Satin;                                                             175P    398
S      1G      2D    176P    398                                        T      1
