                                                                        S      1
,,10HComponent1,10HComponent1,7Hunknown,7Hunknown,32,38,7,99,15,,1.,2,2HG      1
MM,1,0.08,15H20211012.212028,0.01,10000.,7Hunknown,7Hunknown,11,0,;     G      2
     186       1                                                00000000D      1
     186            -179       1       0                               0D      2
     514       2                                                00010000D      3
     514                       2       1                               0D      4
     510       4                                                00010000D      5
     510            -179       1       1                               0D      6
     510       5                                                00010000D      7
     510            -179       1       1                               0D      8
     510       6                                                00010000D      9
     510            -179       1       1                               0D     10
     510       7                                                00010000D     11
     510            -179       1       1                               0D     12
     510       8                                                00010000D     13
     510            -179       1       1                               0D     14
     510       9                                                00010000D     15
     510            -179       1       1                               0D     16
     510      10                                                00010000D     17
     510            -179       1       1                               0D     18
     510      11                                                00010000D     19
     510            -179       1       1                               0D     20
     510      12                                                00010000D     21
     510            -179       1       1                               0D     22
     510      13                                                00010000D     23
     510            -179       1       1                               0D     24
     510      14                                                00010000D     25
     510            -179       1       1                               0D     26
     510      15                                                00010000D     27
     510            -179       1       1                               0D     28
     510      16                                                00010000D     29
     510            -179       1       1                               0D     30
     510      17                                                00010000D     31
     510            -179       1       1                               0D     32
     510      18                                                00010000D     33
     510            -179       1       1                               0D     34
     508      19                                                00010000D     35
     508                       1       1                               0D     36
     508      20                                                00010000D     37
     508                       1       1                               0D     38
     508      21                                                00010000D     39
     508                       1       1                               0D     40
     508      22                                                00010000D     41
     508                       1       1                               0D     42
     508      23                                                00010000D     43
     508                       1       1                               0D     44
     508      24                                                00010000D     45
     508                       1       1                               0D     46
     508      25                                                00010000D     47
     508                       1       1                               0D     48
     508      26                                                00010000D     49
     508                       1       1                               0D     50
     508      27                                                00010000D     51
     508                       1       1                               0D     52
     508      28                                                00010000D     53
     508                       1       1                               0D     54
     508      29                                                00010000D     55
     508                       1       1                               0D     56
     508      30                                                00010000D     57
     508                       1       1                               0D     58
     508      31                                                00010000D     59
     508                       1       1                               0D     60
     508      32                                                00010000D     61
     508                       1       1                               0D     62
     508      33                                                00010000D     63
     508                       1       1                               0D     64
     508      34                                                00010000D     65
     508                       1       1                               0D     66
     508      35                                                00010000D     67
     508                       1       1                               0D     68
     508      36                                                00010000D     69
     508                       1       1                               0D     70
     126      37                                                00010000D     71
     126       0               4       0                               0D     72
     126      41                                                00010000D     73
     126       0               3       0                               0D     74
     126      44                                                00010000D     75
     126       0               3       0                               0D     76
     126      47                                                00010000D     77
     126       0               3       0                               0D     78
     126      50                                                00010000D     79
     126       0               4       0                               0D     80
     126      54                                                00010000D     81
     126       0               3       0                               0D     82
     126      57                                                00010000D     83
     126       0               3       0                               0D     84
     126      60                                                00010000D     85
     126       0               4       0                               0D     86
     126      64                                                00010000D     87
     126       0               3       0                               0D     88
     126      67                                                00010000D     89
     126       0               3       0                               0D     90
     126      70                                                00010000D     91
     126       0               4       0                               0D     92
     126      74                                                00010000D     93
     126       0               3       0                               0D     94
     126      77                                                00010000D     95
     126       0               2       0                               0D     96
     126      79                                                00010000D     97
     126       0               2       0                               0D     98
     126      81                                                00010000D     99
     126       0               2       0                               0D    100
     126      83                                                00010000D    101
     126       0               2       0                               0D    102
     126      85                                                00010000D    103
     126       0               2       0                               0D    104
     126      87                                                00010000D    105
     126       0               2       0                               0D    106
     126      89                                                00010000D    107
     126       0               2       0                               0D    108
     126      91                                                00010000D    109
     126       0               2       0                               0D    110
     126      93                                                00010000D    111
     126       0               2       0                               0D    112
     126      95                                                00010000D    113
     126       0               2       0                               0D    114
     126      97                                                00010000D    115
     126       0               2       0                               0D    116
     126      99                                                00010000D    117
     126       0               2       0                               0D    118
     126     101                                                00010000D    119
     126       0               2       0                               0D    120
     126     103                                                00010000D    121
     126       0               2       0                               0D    122
     126     105                                                00010000D    123
     126       0               2       0                               0D    124
     126     107                                                00010000D    125
     126       0               2       0                               0D    126
     126     109                                                00010000D    127
     126       0               2       0                               0D    128
     126     111                                                00010000D    129
     126       0               2       0                               0D    130
     126     113                                                00010000D    131
     126       0               2       0                               0D    132
     126     115                                                00010000D    133
     126       0               2       0                               0D    134
     126     117                                                00010000D    135
     126       0               2       0                               0D    136
     126     119                                                00010000D    137
     126       0               2       0                               0D    138
     126     121                                                00010000D    139
     126       0               2       0                               0D    140
     126     123                                                00010000D    141
     126       0               2       0                               0D    142
     128     125                                                00010000D    143
     128       0    -179       6       0                               0D    144
     128     131                                                00010000D    145
     128       0    -179       6       0                               0D    146
     128     137                                                00010000D    147
     128       0    -179       6       0                               0D    148
     128     143                                                00010000D    149
     128       0    -179       6       0                               0D    150
     128     149                                                00010000D    151
     128       0    -179       4       0                               0D    152
     128     153                                                00010000D    153
     128       0    -179       4       0                               0D    154
     128     157                                                00010000D    155
     128       0    -179       4       0                               0D    156
     128     161                                                00010000D    157
     128       0    -179       3       0                               0D    158
     128     164                                                00010000D    159
     128       0    -179       3       0                               0D    160
     128     167                                                00010000D    161
     128       0    -179       4       0                               0D    162
     128     171                                                00010000D    163
     128       0    -179       3       0                               0D    164
     128     174                                                00010000D    165
     128       0    -179       4       0                               0D    166
     128     178                                                00010000D    167
     128       0    -179       3       0                               0D    168
     128     181                                                00010000D    169
     128       0    -179       7       0                               0D    170
     128     188                                                00010000D    171
     128       0    -179       4       0                               0D    172
     502     192                                                00010000D    173
     502                      10       1                               0D    174
     504     202                                                00010001D    175
     504                      10       1                               0D    176
     406     212                                                00000000D    177
     406                       1      15                               0D    178
     314     213                                                00000200D    179
     314                       2       0                               0D    180
186,3,1,0,0,1,177;                                                     1P      1
514,15,5,1,7,1,9,1,11,1,13,1,15,1,17,1,19,1,21,1,23,1,25,1,27,1,       3P      2
29,1,31,1,33,1;                                                        3P      3
510,143,1,1,35;                                                        5P      4
510,145,1,1,37;                                                        7P      5
510,147,1,1,39;                                                        9P      6
510,149,1,1,41;                                                       11P      7
510,151,2,1,43,45;                                                    13P      8
510,153,1,1,47;                                                       15P      9
510,155,1,1,49;                                                       17P     10
510,157,1,1,51;                                                       19P     11
510,159,1,1,53;                                                       21P     12
510,161,1,1,55;                                                       23P     13
510,163,1,1,57;                                                       25P     14
510,165,1,1,59;                                                       27P     15
510,167,1,1,61;                                                       29P     16
510,169,2,1,63,65;                                                    31P     17
510,171,2,1,67,69;                                                    33P     18
508,4,0,175,1,0,0,0,175,2,1,0,0,175,3,0,0,0,175,4,0,0;                35P     19
508,4,0,175,5,0,0,0,175,6,1,0,0,175,7,0,0,0,175,2,0,0;                37P     20
508,4,0,175,8,0,0,0,175,4,1,0,0,175,9,0,0,0,175,10,0,0;               39P     21
508,4,0,175,11,0,0,0,175,10,1,0,0,175,12,0,0,0,175,6,0,0;             41P     22
508,4,0,175,13,1,0,0,175,14,1,0,0,175,15,1,0,0,175,16,1,0;            43P     23
508,4,0,175,12,1,0,0,175,9,1,0,0,175,3,1,0,0,175,7,1,0;               45P     24
508,4,0,175,17,0,0,0,175,18,1,0,0,175,16,0,0,0,175,19,0,0;            47P     25
508,4,0,175,20,0,0,0,175,19,1,0,0,175,15,0,0,0,175,21,0,0;            49P     26
508,4,0,175,22,0,0,0,175,21,1,0,0,175,14,0,0,0,175,23,0,0;            51P     27
508,4,0,175,24,0,0,0,175,23,1,0,0,175,13,0,0,0,175,18,0,0;            53P     28
508,4,0,175,25,1,0,0,175,26,0,0,0,175,27,1,0,0,175,28,0,0;            55P     29
508,4,0,175,28,1,0,0,175,29,0,0,0,175,30,1,0,0,175,31,0,0;            57P     30
508,4,0,175,32,1,0,0,175,30,0,0,0,175,33,1,0,0,175,34,0,0;            59P     31
508,4,0,175,26,1,0,0,175,35,0,0,0,175,34,1,0,0,175,36,0,0;            61P     32
508,4,0,175,5,1,0,0,175,1,1,0,0,175,8,1,0,0,175,11,1,0;               63P     33
508,4,0,175,35,1,0,0,175,25,0,0,0,175,31,1,0,0,175,32,0,0;            65P     34
508,4,0,175,24,1,0,0,175,17,1,0,0,175,20,1,0,0,175,22,1,0;            67P     35
508,4,0,175,36,1,0,0,175,33,0,0,0,175,29,1,0,0,175,27,0,0;            69P     36
126,1,1,0,0,1,0,-8.77500000223517,-8.77500000223517,                  71P     37
2.92500000074506,2.92500000074506,1.,1.,186.000000014901,0.,          71P     38
116.000000014901,186.000000014901,0.,-1.00000001490116,               71P     39
-8.77500000223517,2.92500000074506,0.,0.,0.;                          71P     40
126,1,1,0,0,1,0,0.35,0.35,0.75,0.75,1.,1.,186.000000014901,0.,        73P     41
116.000000014901,186.000000014901,4.,116.000000014901,0.35,0.75,      73P     42
0.,0.,0.;                                                             73P     43
126,1,1,0,0,1,0,0.,0.,11.7000000029802,11.7000000029802,1.,1.,        75P     44
186.000000014901,4.,-1.00000001490116,186.000000014901,4.,            75P     45
116.000000014901,0.,11.7000000029802,0.,0.,0.;                        75P     46
126,1,1,0,0,1,0,0.35,0.35,0.75,0.75,1.,1.,186.000000014901,0.,        77P     47
-1.00000001490116,186.000000014901,4.,-1.00000001490116,0.35,         77P     48
0.75,0.,0.,0.;                                                        77P     49
126,1,1,0,0,1,0,-14.0250000022352,-14.0250000022352,                  79P     50
4.67500000074506,4.67500000074506,1.,1.,-1.00000001490116,0.,         79P     51
116.000000014901,186.000000014901,0.,116.000000014901,                79P     52
-14.0250000022352,4.67500000074506,0.,0.,0.;                          79P     53
126,1,1,0,0,1,0,0.35,0.35,0.75,0.75,1.,1.,-1.00000001490116,0.,       81P     54
116.000000014901,-1.00000001490116,4.,116.000000014901,0.35,          81P     55
0.75,0.,0.,0.;                                                        81P     56
126,1,1,0,0,1,0,0.,0.,18.7000000029802,18.7000000029802,1.,1.,        83P     57
186.000000014901,4.,116.000000014901,-1.00000001490116,4.,            83P     58
116.000000014901,0.,18.7000000029802,0.,0.,0.;                        83P     59
126,1,1,0,0,1,0,-14.0250000022352,-14.0250000022352,                  85P     60
4.67500000074506,4.67500000074506,1.,1.,186.000000014901,0.,          85P     61
-1.00000001490116,-1.00000001490116,0.,-1.00000001490116,             85P     62
-14.0250000022352,4.67500000074506,0.,0.,0.;                          85P     63
126,1,1,0,0,1,0,0.,0.,18.7000000029802,18.7000000029802,1.,1.,        87P     64
-1.00000001490116,4.,-1.00000001490116,186.000000014901,4.,           87P     65
-1.00000001490116,0.,18.7000000029802,0.,0.,0.;                       87P     66
126,1,1,0,0,1,0,0.35,0.35,0.75,0.75,1.,1.,-1.00000001490116,0.,       89P     67
-1.00000001490116,-1.00000001490116,4.,-1.00000001490116,0.35,        89P     68
0.75,0.,0.,0.;                                                        89P     69
126,1,1,0,0,1,0,-8.77500000223517,-8.77500000223517,                  91P     70
2.92500000074506,2.92500000074506,1.,1.,-1.00000001490116,0.,         91P     71
-1.00000001490116,-1.00000001490116,0.,116.000000014901,              91P     72
-8.77500000223517,2.92500000074506,0.,0.,0.;                          91P     73
126,1,1,0,0,1,0,0.,0.,11.7000000029802,11.7000000029802,1.,1.,        93P     74
-1.00000001490116,4.,116.000000014901,-1.00000001490116,4.,           93P     75
-1.00000001490116,0.,11.7000000029802,0.,0.,0.;                       93P     76
126,1,1,0,0,1,0,-12.5,-12.5,0.,0.,1.,1.,-5.,4.,-5.,-5.,4.,120.,       95P     77
-12.5,0.,0.,0.,0.;                                                    95P     78
126,1,1,0,0,1,0,-19.5,-19.5,0.,0.,1.,1.,-5.,4.,120.,190.,4.,          97P     79
120.,-19.5,0.,0.,0.,0.;                                               97P     80
126,1,1,0,0,1,0,-12.5,-12.5,0.,0.,1.,1.,190.,4.,120.,190.,4.,         99P     81
-5.,-12.5,0.,0.,0.,0.;                                                99P     82
126,1,1,0,0,1,0,-19.5,-19.5,0.,0.,1.,1.,190.,4.,-5.,-5.,4.,-5.,      101P     83
-19.5,0.,0.,0.,0.;                                                   101P     84
126,1,1,0,0,1,0,0.,0.,19.5,19.5,1.,1.,-5.,-3.5,-5.,190.,-3.5,        103P     85
-5.,0.,19.5,0.,0.,0.;                                                103P     86
126,1,1,0,0,1,0,0.,0.,0.75,0.75,1.,1.,-5.,-3.5,-5.,-5.,4.,-5.,       105P     87
0.,0.75,0.,0.,0.;                                                    105P     88
126,1,1,0,0,1,0,0.,0.,0.75,0.75,1.,1.,190.,-3.5,-5.,190.,4.,-5.,     107P     89
0.,0.75,0.,0.,0.;                                                    107P     90
126,1,1,0,0,1,0,0.,0.,12.5,12.5,1.,1.,190.,-3.5,-5.,190.,-3.5,       109P     91
120.,0.,12.5,0.,0.,0.;                                               109P     92
126,1,1,0,0,1,0,0.,0.,0.75,0.75,1.,1.,190.,-3.5,120.,190.,4.,        111P     93
120.,0.,0.75,0.,0.,0.;                                               111P     94
126,1,1,0,0,1,0,0.,0.,19.5,19.5,1.,1.,190.,-3.5,120.,-5.,-3.5,       113P     95
120.,0.,19.5,0.,0.,0.;                                               113P     96
126,1,1,0,0,1,0,0.,0.,0.75,0.75,1.,1.,-5.,-3.5,120.,-5.,4.,120.,     115P     97
0.,0.75,0.,0.,0.;                                                    115P     98
126,1,1,0,0,1,0,0.,0.,12.5,12.5,1.,1.,-5.,-3.5,120.,-5.,-3.5,        117P     99
-5.,0.,12.5,0.,0.,0.;                                                117P    100
126,1,1,0,0,1,0,-11.1,-11.1,0.,0.,1.,1.,162.,0.,113.,162.,0.,2.,     119P    101
-11.1,0.,0.,0.,0.;                                                   119P    102
126,1,1,0,0,1,0,-0.35,-0.35,0.,0.,1.,1.,162.,-3.5,2.,162.,0.,2.,     121P    103
-0.35,0.,0.,0.,0.;                                                   121P    104
126,1,1,0,0,1,0,0.,0.,11.1,11.1,1.,1.,162.,-3.5,2.,162.,-3.5,        123P    105
113.,0.,11.1,0.,0.,0.;                                               123P    106
126,1,1,0,0,1,0,0.,0.,0.35,0.35,1.,1.,162.,0.,113.,162.,-3.5,        125P    107
113.,0.,0.35,0.,0.,0.;                                               125P    108
126,1,1,0,0,1,0,-12.8,-12.8,-2.1,-2.1,1.,1.,55.,-3.5,113.,162.,      127P    109
-3.5,113.,-12.8,-2.1,0.,0.,0.;                                       127P    110
126,1,1,0,0,1,0,-0.35,-0.35,0.,0.,1.,1.,55.,-3.5,113.,55.,0.,        129P    111
113.,-0.35,0.,0.,0.,0.;                                              129P    112
126,1,1,0,0,1,0,2.1,2.1,12.8,12.8,1.,1.,162.,0.,113.,55.,0.,         131P    113
113.,2.1,12.8,0.,0.,0.;                                              131P    114
126,1,1,0,0,1,0,-11.1,-11.1,0.,0.,1.,1.,55.,0.,1.99999999999999,     133P    115
55.,0.,113.,-11.1,0.,0.,0.,0.;                                       133P    116
126,1,1,0,0,1,0,0.,0.,11.1,11.1,1.,1.,55.,-3.5,113.,55.,-3.5,        135P    117
1.99999999999999,0.,11.1,0.,0.,0.;                                   135P    118
126,1,1,0,0,1,0,0.,0.,0.35,0.35,1.,1.,55.,0.,2.,55.,-3.5,2.,0.,      137P    119
0.35,0.,0.,0.;                                                       137P    120
126,1,1,0,0,1,0,5.3,5.3,16.,16.,1.,1.,55.,0.,2.,162.,0.,2.,5.3,      139P    121
16.,0.,0.,0.;                                                        139P    122
126,1,1,0,0,1,0,-16.,-16.,-5.3,-5.3,1.,1.,162.,-3.5,2.,55.,-3.5,     141P    123
2.,-16.,-5.3,0.,0.,0.;                                               141P    124
128,1,1,1,1,0,0,1,0,0,-0.001,-0.001,11.7010000029802,                143P    125
11.7010000029802,0.349,0.349,0.751,0.751,1.,1.,1.,1.,                143P    126
186.000000014901,-0.01,-1.01000001490116,186.000000014901,-0.01,     143P    127
116.010000014901,186.000000014901,4.01,-1.01000001490116,            143P    128
186.000000014901,4.01,116.010000014901,-0.001,11.7010000029802,      143P    129
0.349,0.751;                                                         143P    130
128,1,1,1,1,0,0,1,0,0,-0.001,-0.001,18.7010000029802,                145P    131
18.7010000029802,0.349,0.349,0.751,0.751,1.,1.,1.,1.,                145P    132
186.010000014901,-0.01,116.000000014901,-1.01000001490117,-0.01,     145P    133
116.000000014901,186.010000014901,4.01,116.000000014901,             145P    134
-1.01000001490117,4.01,116.000000014901,-0.001,18.7010000029802,     145P    135
0.349,0.751;                                                         145P    136
128,1,1,1,1,0,0,1,0,0,-0.001,-0.001,18.7010000029802,                147P    137
18.7010000029802,0.349,0.349,0.751,0.751,1.,1.,1.,1.,                147P    138
-1.01000001490116,-0.01,-1.00000001490116,186.010000014901,          147P    139
-0.01,-1.00000001490116,-1.01000001490116,4.01,                      147P    140
-1.00000001490116,186.010000014901,4.01,-1.00000001490116,           147P    141
-0.001,18.7010000029802,0.349,0.751;                                 147P    142
128,1,1,1,1,0,0,1,0,0,-0.001,-0.001,11.7010000029802,                149P    143
11.7010000029802,0.349,0.349,0.751,0.751,1.,1.,1.,1.,                149P    144
-1.00000001490116,-0.01,116.010000014901,-1.00000001490116,          149P    145
-0.01,-1.01000001490116,-1.00000001490116,4.01,116.010000014901,     149P    146
-1.00000001490116,4.01,-1.01000001490116,-0.001,                     149P    147
11.7010000029802,0.349,0.751;                                        149P    148
128,1,1,1,1,0,0,1,0,0,-6.251,-6.251,6.251,6.251,-9.751,-9.751,       151P    149
9.751,9.751,1.,1.,1.,1.,-5.00999999999999,4.,-5.01,                  151P    150
-5.00999999999999,4.,120.01,190.01,4.,-5.01,190.01,4.,120.01,        151P    151
-6.251,6.251,-9.751,9.751;                                           151P    152
128,1,1,1,1,0,0,1,0,0,-0.001,-0.001,19.501,19.501,-0.001,-0.001,     153P    153
0.751,0.751,1.,1.,1.,1.,190.01,-3.51,-5.,-5.01000000000001,          153P    154
-3.51,-5.,190.01,4.01,-5.,-5.01000000000001,4.01,-5.,-0.001,         153P    155
19.501,-0.001,0.751;                                                 153P    156
128,1,1,1,1,0,0,1,0,0,-0.001,-0.001,12.501,12.501,-0.001,-0.001,     155P    157
0.751,0.751,1.,1.,1.,1.,190.,-3.51,120.01,190.,-3.51,                155P    158
-5.00999999999999,190.,4.01,120.01,190.,4.01,-5.00999999999999,      155P    159
-0.001,12.501,-0.001,0.751;                                          155P    160
128,1,1,1,1,0,0,1,0,0,-0.001,-0.001,19.501,19.501,-0.001,-0.001,     157P    161
0.751,0.751,1.,1.,1.,1.,-5.01,-3.51,120.,190.01,-3.51,120.,          157P    162
-5.01,4.01,120.,190.01,4.01,120.,-0.001,19.501,-0.001,0.751;         157P    163
128,1,1,1,1,0,0,1,0,0,-0.001,-0.001,12.501,12.501,-0.001,-0.001,     159P    164
0.751,0.751,1.,1.,1.,1.,-5.,-3.51,-5.01,-5.,-3.51,120.01,-5.,        159P    165
4.01,-5.01,-5.,4.01,120.01,-0.001,12.501,-0.001,0.751;               159P    166
128,1,1,1,1,0,0,1,0,0,-11.101,-11.101,0.000999999999999446,          161P    167
0.000999999999999446,-0.351,-0.351,0.001,0.001,1.,1.,1.,1.,162.,     161P    168
-3.51,1.99,162.,-3.51,113.01,162.,0.01,1.99,162.,0.01,113.01,        161P    169
-11.101,0.000999999999999446,-0.351,0.001;                           161P    170
128,1,1,1,1,0,0,1,0,0,5.299,5.299,16.001,16.001,-0.001,-0.001,       163P    171
0.351,0.351,1.,1.,1.,1.,54.99,0.01,113.,162.01,0.01,113.,54.99,      163P    172
-3.51,113.,162.01,-3.51,113.,5.299,16.001,-0.001,0.351;              163P    173
128,1,1,1,1,0,0,1,0,0,-11.101,-11.101,0.000999999999999446,          165P    174
0.000999999999999446,-0.351,-0.351,0.001,0.001,1.,1.,1.,1.,55.,      165P    175
-3.51,113.01,55.,-3.51,1.98999999999999,55.,0.01,113.01,55.,         165P    176
0.01,1.99,-11.101,0.000999999999999446,-0.351,0.001;                 165P    177
128,1,1,1,1,0,0,1,0,0,2.099,2.099,12.801,12.801,-0.001,-0.001,       167P    178
0.351,0.351,1.,1.,1.,1.,162.01,0.01,2.,54.99,0.01,2.,162.01,         167P    179
-3.51,2.,54.99,-3.51,2.,2.099,12.801,-0.001,0.351;                   167P    180
128,1,1,1,1,0,0,1,0,0,-9.35100000149012,-9.35100000149012,           169P    181
9.35100000149012,9.35100000149012,-5.85100000149012,                 169P    182
-5.85100000149012,5.85100000149012,5.85100000149012,1.,1.,1.,1.,     169P    183
-1.01000001490116,0.,116.010000014901,186.010000014901,0.,           169P    184
116.010000014901,-1.01000001490116,0.,-1.01000001490116,             169P    185
186.010000014901,0.,-1.01000001490117,-9.35100000149012,             169P    186
9.35100000149012,-5.85100000149012,5.85100000149012;                 169P    187
128,1,1,1,1,0,0,1,0,0,-6.251,-6.251,6.251,6.251,-9.751,-9.751,       171P    188
9.751,9.751,1.,1.,1.,1.,-5.00999999999999,-3.5,120.01,               171P    189
-5.00999999999999,-3.5,-5.01,190.01,-3.5,120.01,190.01,-3.5,         171P    190
-5.01000000000001,-6.251,6.251,-9.751,9.751;                         171P    191
502,24,186.000000014901,0.,116.000000014901,186.000000014901,0.,     173P    192
-1.00000001490116,186.000000014901,4.,116.000000014901,              173P    193
186.000000014901,4.,-1.00000001490116,-1.00000001490116,0.,          173P    194
116.000000014901,-1.00000001490116,4.,116.000000014901,              173P    195
-1.00000001490116,0.,-1.00000001490116,-1.00000001490116,4.,         173P    196
-1.00000001490116,-5.,4.,-5.,-5.,4.,120.,190.,4.,120.,190.,4.,       173P    197
-5.,-5.,-3.5,-5.,190.,-3.5,-5.,190.,-3.5,120.,-5.,-3.5,120.,         173P    198
162.,0.,113.,162.,0.,2.,162.,-3.5,2.,162.,-3.5,113.,55.,-3.5,        173P    199
113.,55.,0.,113.,55.,0.,1.99999999999999,55.,-3.5,                   173P    200
1.99999999999999;                                                    173P    201
504,36,71,173,1,173,2,73,173,1,173,3,75,173,4,173,3,77,173,2,        175P    202
173,4,79,173,5,173,1,81,173,5,173,6,83,173,3,173,6,85,173,2,173,     175P    203
7,87,173,8,173,4,89,173,7,173,8,91,173,7,173,5,93,173,6,173,8,       175P    204
95,173,9,173,10,97,173,10,173,11,99,173,11,173,12,101,173,12,        175P    205
173,9,103,173,13,173,14,105,173,13,173,9,107,173,14,173,12,109,      175P    206
173,14,173,15,111,173,15,173,11,113,173,15,173,16,115,173,16,        175P    207
173,10,117,173,16,173,13,119,173,17,173,18,121,173,19,173,18,        175P    208
123,173,19,173,20,125,173,17,173,20,127,173,21,173,20,129,173,       175P    209
21,173,22,131,173,17,173,22,133,173,23,173,22,135,173,21,173,24,     175P    210
137,173,23,173,24,139,173,23,173,18,141,173,19,173,24;               175P    211
406,1,5HBody1;                                                       177P    212
314,62.7450980392157,62.7450980392157,62.7450980392157,13HSteel      179P    213
- Satin;                                                             179P    214
S      1G      2D    180P    214                                        T      1
