                                                                        S      1
,,19Htablet attempt 1 v2,19Htablet attempt 1 v2,7Hunknown,7Hunknown,32, G      1
38,7,99,15,,1.,2,2HMM,1,0.08,15H20211012.212028,0.01,10000.,7Hunknown,7HG      2
unknown,11,0,15H20200101.220729;                                        G      3
     408       1                                                00000001D      1
     408       0               1       0                               0D      2
     308       2                                                00010200D      3
     308       0               1       0                               0D      4
     186       3                                                00010000D      5
     186            -185       1       0                               0D      6
     514       4                                                00010000D      7
     514                       2       1                               0D      8
     510       6                                                00010000D      9
     510            -185       1       1                               0D     10
     510       7                                                00010000D     11
     510            -185       1       1                               0D     12
     510       8                                                00010000D     13
     510            -185       1       1                               0D     14
     510       9                                                00010000D     15
     510            -185       1       1                               0D     16
     510      10                                                00010000D     17
     510            -185       1       1                               0D     18
     510      11                                                00010000D     19
     510            -185       1       1                               0D     20
     510      12                                                00010000D     21
     510            -185       1       1                               0D     22
     510      13                                                00010000D     23
     510            -185       1       1                               0D     24
     510      14                                                00010000D     25
     510            -185       1       1                               0D     26
     510      15                                                00010000D     27
     510            -185       1       1                               0D     28
     510      16                                                00010000D     29
     510            -185       1       1                               0D     30
     510      17                                                00010000D     31
     510            -185       1       1                               0D     32
     510      18                                                00010000D     33
     510            -185       1       1                               0D     34
     510      19                                                00010000D     35
     510            -185       1       1                               0D     36
     510      20                                                00010000D     37
     510            -185       1       1                               0D     38
     508      21                                                00010000D     39
     508                       1       1                               0D     40
     508      22                                                00010000D     41
     508                       1       1                               0D     42
     508      23                                                00010000D     43
     508                       1       1                               0D     44
     508      24                                                00010000D     45
     508                       1       1                               0D     46
     508      25                                                00010000D     47
     508                       1       1                               0D     48
     508      26                                                00010000D     49
     508                       1       1                               0D     50
     508      27                                                00010000D     51
     508                       1       1                               0D     52
     508      28                                                00010000D     53
     508                       1       1                               0D     54
     508      29                                                00010000D     55
     508                       1       1                               0D     56
     508      30                                                00010000D     57
     508                       1       1                               0D     58
     508      31                                                00010000D     59
     508                       1       1                               0D     60
     508      32                                                00010000D     61
     508                       1       1                               0D     62
     508      33                                                00010000D     63
     508                       1       1                               0D     64
     508      34                                                00010000D     65
     508                       1       1                               0D     66
     508      35                                                00010000D     67
     508                       1       1                               0D     68
     508      36                                                00010000D     69
     508                       1       1                               0D     70
     508      37                                                00010000D     71
     508                       1       1                               0D     72
     508      38                                                00010000D     73
     508                       1       1                               0D     74
     126      39                                                00010000D     75
     126       0               4       0                               0D     76
     126      43                                                00010000D     77
     126       0               3       0                               0D     78
     126      46                                                00010000D     79
     126       0               3       0                               0D     80
     126      49                                                00010000D     81
     126       0               3       0                               0D     82
     126      52                                                00010000D     83
     126       0               4       0                               0D     84
     126      56                                                00010000D     85
     126       0               3       0                               0D     86
     126      59                                                00010000D     87
     126       0               3       0                               0D     88
     126      62                                                00010000D     89
     126       0               4       0                               0D     90
     126      66                                                00010000D     91
     126       0               3       0                               0D     92
     126      69                                                00010000D     93
     126       0               3       0                               0D     94
     126      72                                                00010000D     95
     126       0               4       0                               0D     96
     126      76                                                00010000D     97
     126       0               3       0                               0D     98
     126      79                                                00010000D     99
     126       0               2       0                               0D    100
     126      81                                                00010000D    101
     126       0               2       0                               0D    102
     126      83                                                00010000D    103
     126       0               2       0                               0D    104
     126      85                                                00010000D    105
     126       0               2       0                               0D    106
     126      87                                                00010000D    107
     126       0               2       0                               0D    108
     126      89                                                00010000D    109
     126       0               2       0                               0D    110
     126      91                                                00010000D    111
     126       0               2       0                               0D    112
     126      93                                                00010000D    113
     126       0               2       0                               0D    114
     126      95                                                00010000D    115
     126       0               2       0                               0D    116
     126      97                                                00010000D    117
     126       0               2       0                               0D    118
     126      99                                                00010000D    119
     126       0               2       0                               0D    120
     126     101                                                00010000D    121
     126       0               2       0                               0D    122
     126     103                                                00010000D    123
     126       0               2       0                               0D    124
     126     105                                                00010000D    125
     126       0               2       0                               0D    126
     126     107                                                00010000D    127
     126       0               2       0                               0D    128
     126     109                                                00010000D    129
     126       0               2       0                               0D    130
     126     111                                                00010000D    131
     126       0               2       0                               0D    132
     126     113                                                00010000D    133
     126       0               2       0                               0D    134
     126     115                                                00010000D    135
     126       0               2       0                               0D    136
     126     117                                                00010000D    137
     126       0               2       0                               0D    138
     126     119                                                00010000D    139
     126       0               2       0                               0D    140
     126     121                                                00010000D    141
     126       0               2       0                               0D    142
     126     123                                                00010000D    143
     126       0               2       0                               0D    144
     126     125                                                00010000D    145
     126       0               2       0                               0D    146
     128     127                                                00010000D    147
     128       0    -185       6       0                               0D    148
     128     133                                                00010000D    149
     128       0    -185       6       0                               0D    150
     128     139                                                00010000D    151
     128       0    -185       6       0                               0D    152
     128     145                                                00010000D    153
     128       0    -185       6       0                               0D    154
     128     151                                                00010000D    155
     128       0    -185       4       0                               0D    156
     128     155                                                00010000D    157
     128       0    -185       4       0                               0D    158
     128     159                                                00010000D    159
     128       0    -185       4       0                               0D    160
     128     163                                                00010000D    161
     128       0    -185       3       0                               0D    162
     128     166                                                00010000D    163
     128       0    -185       3       0                               0D    164
     128     169                                                00010000D    165
     128       0    -185       4       0                               0D    166
     128     173                                                00010000D    167
     128       0    -185       3       0                               0D    168
     128     176                                                00010000D    169
     128       0    -185       4       0                               0D    170
     128     180                                                00010000D    171
     128       0    -185       3       0                               0D    172
     128     183                                                00010000D    173
     128       0    -185       7       0                               0D    174
     128     190                                                00010000D    175
     128       0    -185       4       0                               0D    176
     502     194                                                00010000D    177
     502                      10       1                               0D    178
     504     204                                                00010001D    179
     504                      10       1                               0D    180
     406     214                                                00000000D    181
     406                       1      15                               0D    182
     406     215                                                00000000D    183
     406                       1      15                               0D    184
     314     216                                                00000200D    185
     314                       2       0                               0D    186
408,3,0.,0.,0.,1.,0,1,183;                                             1P      1
308,0,10HComponent1,1,5;                                               3P      2
186,7,1,0,0,1,181;                                                     5P      3
514,15,9,1,11,1,13,1,15,1,17,1,19,1,21,1,23,1,25,1,27,1,29,1,31,       7P      4
1,33,1,35,1,37,1;                                                      7P      5
510,147,1,1,39;                                                        9P      6
510,149,1,1,41;                                                       11P      7
510,151,1,1,43;                                                       13P      8
510,153,1,1,45;                                                       15P      9
510,155,2,1,47,49;                                                    17P     10
510,157,1,1,51;                                                       19P     11
510,159,1,1,53;                                                       21P     12
510,161,1,1,55;                                                       23P     13
510,163,1,1,57;                                                       25P     14
510,165,1,1,59;                                                       27P     15
510,167,1,1,61;                                                       29P     16
510,169,1,1,63;                                                       31P     17
510,171,1,1,65;                                                       33P     18
510,173,2,1,67,69;                                                    35P     19
510,175,2,1,71,73;                                                    37P     20
508,4,0,179,1,0,0,0,179,2,1,0,0,179,3,0,0,0,179,4,0,0;                39P     21
508,4,0,179,5,0,0,0,179,6,1,0,0,179,7,0,0,0,179,2,0,0;                41P     22
508,4,0,179,8,0,0,0,179,4,1,0,0,179,9,0,0,0,179,10,0,0;               43P     23
508,4,0,179,11,0,0,0,179,10,1,0,0,179,12,0,0,0,179,6,0,0;             45P     24
508,4,0,179,13,1,0,0,179,14,1,0,0,179,15,1,0,0,179,16,1,0;            47P     25
508,4,0,179,12,1,0,0,179,9,1,0,0,179,3,1,0,0,179,7,1,0;               49P     26
508,4,0,179,17,0,0,0,179,18,1,0,0,179,16,0,0,0,179,19,0,0;            51P     27
508,4,0,179,20,0,0,0,179,19,1,0,0,179,15,0,0,0,179,21,0,0;            53P     28
508,4,0,179,22,0,0,0,179,21,1,0,0,179,14,0,0,0,179,23,0,0;            55P     29
508,4,0,179,24,0,0,0,179,23,1,0,0,179,13,0,0,0,179,18,0,0;            57P     30
508,4,0,179,25,1,0,0,179,26,0,0,0,179,27,1,0,0,179,28,0,0;            59P     31
508,4,0,179,28,1,0,0,179,29,0,0,0,179,30,1,0,0,179,31,0,0;            61P     32
508,4,0,179,32,1,0,0,179,30,0,0,0,179,33,1,0,0,179,34,0,0;            63P     33
508,4,0,179,26,1,0,0,179,35,0,0,0,179,34,1,0,0,179,36,0,0;            65P     34
508,4,0,179,5,1,0,0,179,1,1,0,0,179,8,1,0,0,179,11,1,0;               67P     35
508,4,0,179,35,1,0,0,179,25,0,0,0,179,31,1,0,0,179,32,0,0;            69P     36
508,4,0,179,24,1,0,0,179,17,1,0,0,179,20,1,0,0,179,22,1,0;            71P     37
508,4,0,179,36,1,0,0,179,33,0,0,0,179,29,1,0,0,179,27,0,0;            73P     38
126,1,1,0,0,1,0,-8.77500000223517,-8.77500000223517,                  75P     39
2.92500000074506,2.92500000074506,1.,1.,186.000000014901,0.,          75P     40
116.000000014901,186.000000014901,0.,-1.00000001490116,               75P     41
-8.77500000223517,2.92500000074506,0.,0.,0.;                          75P     42
126,1,1,0,0,1,0,0.35,0.35,0.75,0.75,1.,1.,186.000000014901,0.,        77P     43
116.000000014901,186.000000014901,4.,116.000000014901,0.35,0.75,      77P     44
0.,0.,0.;                                                             77P     45
126,1,1,0,0,1,0,0.,0.,11.7000000029802,11.7000000029802,1.,1.,        79P     46
186.000000014901,4.,-1.00000001490116,186.000000014901,4.,            79P     47
116.000000014901,0.,11.7000000029802,0.,0.,0.;                        79P     48
126,1,1,0,0,1,0,0.35,0.35,0.75,0.75,1.,1.,186.000000014901,0.,        81P     49
-1.00000001490116,186.000000014901,4.,-1.00000001490116,0.35,         81P     50
0.75,0.,0.,0.;                                                        81P     51
126,1,1,0,0,1,0,-14.0250000022352,-14.0250000022352,                  83P     52
4.67500000074506,4.67500000074506,1.,1.,-1.00000001490116,0.,         83P     53
116.000000014901,186.000000014901,0.,116.000000014901,                83P     54
-14.0250000022352,4.67500000074506,0.,0.,0.;                          83P     55
126,1,1,0,0,1,0,0.35,0.35,0.75,0.75,1.,1.,-1.00000001490116,0.,       85P     56
116.000000014901,-1.00000001490116,4.,116.000000014901,0.35,          85P     57
0.75,0.,0.,0.;                                                        85P     58
126,1,1,0,0,1,0,0.,0.,18.7000000029802,18.7000000029802,1.,1.,        87P     59
186.000000014901,4.,116.000000014901,-1.00000001490116,4.,            87P     60
116.000000014901,0.,18.7000000029802,0.,0.,0.;                        87P     61
126,1,1,0,0,1,0,-14.0250000022352,-14.0250000022352,                  89P     62
4.67500000074506,4.67500000074506,1.,1.,186.000000014901,0.,          89P     63
-1.00000001490116,-1.00000001490116,0.,-1.00000001490116,             89P     64
-14.0250000022352,4.67500000074506,0.,0.,0.;                          89P     65
126,1,1,0,0,1,0,0.,0.,18.7000000029802,18.7000000029802,1.,1.,        91P     66
-1.00000001490116,4.,-1.00000001490116,186.000000014901,4.,           91P     67
-1.00000001490116,0.,18.7000000029802,0.,0.,0.;                       91P     68
126,1,1,0,0,1,0,0.35,0.35,0.75,0.75,1.,1.,-1.00000001490116,0.,       93P     69
-1.00000001490116,-1.00000001490116,4.,-1.00000001490116,0.35,        93P     70
0.75,0.,0.,0.;                                                        93P     71
126,1,1,0,0,1,0,-8.77500000223517,-8.77500000223517,                  95P     72
2.92500000074506,2.92500000074506,1.,1.,-1.00000001490116,0.,         95P     73
-1.00000001490116,-1.00000001490116,0.,116.000000014901,              95P     74
-8.77500000223517,2.92500000074506,0.,0.,0.;                          95P     75
126,1,1,0,0,1,0,0.,0.,11.7000000029802,11.7000000029802,1.,1.,        97P     76
-1.00000001490116,4.,116.000000014901,-1.00000001490116,4.,           97P     77
-1.00000001490116,0.,11.7000000029802,0.,0.,0.;                       97P     78
126,1,1,0,0,1,0,-12.5,-12.5,0.,0.,1.,1.,-5.,4.,-5.,-5.,4.,120.,       99P     79
-12.5,0.,0.,0.,0.;                                                    99P     80
126,1,1,0,0,1,0,-19.5,-19.5,0.,0.,1.,1.,-5.,4.,120.,190.,4.,         101P     81
120.,-19.5,0.,0.,0.,0.;                                              101P     82
126,1,1,0,0,1,0,-12.5,-12.5,0.,0.,1.,1.,190.,4.,120.,190.,4.,        103P     83
-5.,-12.5,0.,0.,0.,0.;                                               103P     84
126,1,1,0,0,1,0,-19.5,-19.5,0.,0.,1.,1.,190.,4.,-5.,-5.,4.,-5.,      105P     85
-19.5,0.,0.,0.,0.;                                                   105P     86
126,1,1,0,0,1,0,0.,0.,19.5,19.5,1.,1.,-5.,-3.5,-5.,190.,-3.5,        107P     87
-5.,0.,19.5,0.,0.,0.;                                                107P     88
126,1,1,0,0,1,0,0.,0.,0.75,0.75,1.,1.,-5.,-3.5,-5.,-5.,4.,-5.,       109P     89
0.,0.75,0.,0.,0.;                                                    109P     90
126,1,1,0,0,1,0,0.,0.,0.75,0.75,1.,1.,190.,-3.5,-5.,190.,4.,-5.,     111P     91
0.,0.75,0.,0.,0.;                                                    111P     92
126,1,1,0,0,1,0,0.,0.,12.5,12.5,1.,1.,190.,-3.5,-5.,190.,-3.5,       113P     93
120.,0.,12.5,0.,0.,0.;                                               113P     94
126,1,1,0,0,1,0,0.,0.,0.75,0.75,1.,1.,190.,-3.5,120.,190.,4.,        115P     95
120.,0.,0.75,0.,0.,0.;                                               115P     96
126,1,1,0,0,1,0,0.,0.,19.5,19.5,1.,1.,190.,-3.5,120.,-5.,-3.5,       117P     97
120.,0.,19.5,0.,0.,0.;                                               117P     98
126,1,1,0,0,1,0,0.,0.,0.75,0.75,1.,1.,-5.,-3.5,120.,-5.,4.,120.,     119P     99
0.,0.75,0.,0.,0.;                                                    119P    100
126,1,1,0,0,1,0,0.,0.,12.5,12.5,1.,1.,-5.,-3.5,120.,-5.,-3.5,        121P    101
-5.,0.,12.5,0.,0.,0.;                                                121P    102
126,1,1,0,0,1,0,-11.1,-11.1,0.,0.,1.,1.,162.,0.,113.,162.,0.,2.,     123P    103
-11.1,0.,0.,0.,0.;                                                   123P    104
126,1,1,0,0,1,0,-0.35,-0.35,0.,0.,1.,1.,162.,-3.5,2.,162.,0.,2.,     125P    105
-0.35,0.,0.,0.,0.;                                                   125P    106
126,1,1,0,0,1,0,0.,0.,11.1,11.1,1.,1.,162.,-3.5,2.,162.,-3.5,        127P    107
113.,0.,11.1,0.,0.,0.;                                               127P    108
126,1,1,0,0,1,0,0.,0.,0.35,0.35,1.,1.,162.,0.,113.,162.,-3.5,        129P    109
113.,0.,0.35,0.,0.,0.;                                               129P    110
126,1,1,0,0,1,0,-12.8,-12.8,-2.1,-2.1,1.,1.,55.,-3.5,113.,162.,      131P    111
-3.5,113.,-12.8,-2.1,0.,0.,0.;                                       131P    112
126,1,1,0,0,1,0,-0.35,-0.35,0.,0.,1.,1.,55.,-3.5,113.,55.,0.,        133P    113
113.,-0.35,0.,0.,0.,0.;                                              133P    114
126,1,1,0,0,1,0,2.1,2.1,12.8,12.8,1.,1.,162.,0.,113.,55.,0.,         135P    115
113.,2.1,12.8,0.,0.,0.;                                              135P    116
126,1,1,0,0,1,0,-11.1,-11.1,0.,0.,1.,1.,55.,0.,1.99999999999999,     137P    117
55.,0.,113.,-11.1,0.,0.,0.,0.;                                       137P    118
126,1,1,0,0,1,0,0.,0.,11.1,11.1,1.,1.,55.,-3.5,113.,55.,-3.5,        139P    119
1.99999999999999,0.,11.1,0.,0.,0.;                                   139P    120
126,1,1,0,0,1,0,0.,0.,0.35,0.35,1.,1.,55.,0.,2.,55.,-3.5,2.,0.,      141P    121
0.35,0.,0.,0.;                                                       141P    122
126,1,1,0,0,1,0,5.3,5.3,16.,16.,1.,1.,55.,0.,2.,162.,0.,2.,5.3,      143P    123
16.,0.,0.,0.;                                                        143P    124
126,1,1,0,0,1,0,-16.,-16.,-5.3,-5.3,1.,1.,162.,-3.5,2.,55.,-3.5,     145P    125
2.,-16.,-5.3,0.,0.,0.;                                               145P    126
128,1,1,1,1,0,0,1,0,0,-0.001,-0.001,11.7010000029802,                147P    127
11.7010000029802,0.349,0.349,0.751,0.751,1.,1.,1.,1.,                147P    128
186.000000014901,-0.01,-1.01000001490116,186.000000014901,-0.01,     147P    129
116.010000014901,186.000000014901,4.01,-1.01000001490116,            147P    130
186.000000014901,4.01,116.010000014901,-0.001,11.7010000029802,      147P    131
0.349,0.751;                                                         147P    132
128,1,1,1,1,0,0,1,0,0,-0.001,-0.001,18.7010000029802,                149P    133
18.7010000029802,0.349,0.349,0.751,0.751,1.,1.,1.,1.,                149P    134
186.010000014901,-0.01,116.000000014901,-1.01000001490117,-0.01,     149P    135
116.000000014901,186.010000014901,4.01,116.000000014901,             149P    136
-1.01000001490117,4.01,116.000000014901,-0.001,18.7010000029802,     149P    137
0.349,0.751;                                                         149P    138
128,1,1,1,1,0,0,1,0,0,-0.001,-0.001,18.7010000029802,                151P    139
18.7010000029802,0.349,0.349,0.751,0.751,1.,1.,1.,1.,                151P    140
-1.01000001490116,-0.01,-1.00000001490116,186.010000014901,          151P    141
-0.01,-1.00000001490116,-1.01000001490116,4.01,                      151P    142
-1.00000001490116,186.010000014901,4.01,-1.00000001490116,           151P    143
-0.001,18.7010000029802,0.349,0.751;                                 151P    144
128,1,1,1,1,0,0,1,0,0,-0.001,-0.001,11.7010000029802,                153P    145
11.7010000029802,0.349,0.349,0.751,0.751,1.,1.,1.,1.,                153P    146
-1.00000001490116,-0.01,116.010000014901,-1.00000001490116,          153P    147
-0.01,-1.01000001490116,-1.00000001490116,4.01,116.010000014901,     153P    148
-1.00000001490116,4.01,-1.01000001490116,-0.001,                     153P    149
11.7010000029802,0.349,0.751;                                        153P    150
128,1,1,1,1,0,0,1,0,0,-6.251,-6.251,6.251,6.251,-9.751,-9.751,       155P    151
9.751,9.751,1.,1.,1.,1.,-5.00999999999999,4.,-5.01,                  155P    152
-5.00999999999999,4.,120.01,190.01,4.,-5.01,190.01,4.,120.01,        155P    153
-6.251,6.251,-9.751,9.751;                                           155P    154
128,1,1,1,1,0,0,1,0,0,-0.001,-0.001,19.501,19.501,-0.001,-0.001,     157P    155
0.751,0.751,1.,1.,1.,1.,190.01,-3.51,-5.,-5.01000000000001,          157P    156
-3.51,-5.,190.01,4.01,-5.,-5.01000000000001,4.01,-5.,-0.001,         157P    157
19.501,-0.001,0.751;                                                 157P    158
128,1,1,1,1,0,0,1,0,0,-0.001,-0.001,12.501,12.501,-0.001,-0.001,     159P    159
0.751,0.751,1.,1.,1.,1.,190.,-3.51,120.01,190.,-3.51,                159P    160
-5.00999999999999,190.,4.01,120.01,190.,4.01,-5.00999999999999,      159P    161
-0.001,12.501,-0.001,0.751;                                          159P    162
128,1,1,1,1,0,0,1,0,0,-0.001,-0.001,19.501,19.501,-0.001,-0.001,     161P    163
0.751,0.751,1.,1.,1.,1.,-5.01,-3.51,120.,190.01,-3.51,120.,          161P    164
-5.01,4.01,120.,190.01,4.01,120.,-0.001,19.501,-0.001,0.751;         161P    165
128,1,1,1,1,0,0,1,0,0,-0.001,-0.001,12.501,12.501,-0.001,-0.001,     163P    166
0.751,0.751,1.,1.,1.,1.,-5.,-3.51,-5.01,-5.,-3.51,120.01,-5.,        163P    167
4.01,-5.01,-5.,4.01,120.01,-0.001,12.501,-0.001,0.751;               163P    168
128,1,1,1,1,0,0,1,0,0,-11.101,-11.101,0.000999999999999446,          165P    169
0.000999999999999446,-0.351,-0.351,0.001,0.001,1.,1.,1.,1.,162.,     165P    170
-3.51,1.99,162.,-3.51,113.01,162.,0.01,1.99,162.,0.01,113.01,        165P    171
-11.101,0.000999999999999446,-0.351,0.001;                           165P    172
128,1,1,1,1,0,0,1,0,0,5.299,5.299,16.001,16.001,-0.001,-0.001,       167P    173
0.351,0.351,1.,1.,1.,1.,54.99,0.01,113.,162.01,0.01,113.,54.99,      167P    174
-3.51,113.,162.01,-3.51,113.,5.299,16.001,-0.001,0.351;              167P    175
128,1,1,1,1,0,0,1,0,0,-11.101,-11.101,0.000999999999999446,          169P    176
0.000999999999999446,-0.351,-0.351,0.001,0.001,1.,1.,1.,1.,55.,      169P    177
-3.51,113.01,55.,-3.51,1.98999999999999,55.,0.01,113.01,55.,         169P    178
0.01,1.99,-11.101,0.000999999999999446,-0.351,0.001;                 169P    179
128,1,1,1,1,0,0,1,0,0,2.099,2.099,12.801,12.801,-0.001,-0.001,       171P    180
0.351,0.351,1.,1.,1.,1.,162.01,0.01,2.,54.99,0.01,2.,162.01,         171P    181
-3.51,2.,54.99,-3.51,2.,2.099,12.801,-0.001,0.351;                   171P    182
128,1,1,1,1,0,0,1,0,0,-9.35100000149012,-9.35100000149012,           173P    183
9.35100000149012,9.35100000149012,-5.85100000149012,                 173P    184
-5.85100000149012,5.85100000149012,5.85100000149012,1.,1.,1.,1.,     173P    185
-1.01000001490116,0.,116.010000014901,186.010000014901,0.,           173P    186
116.010000014901,-1.01000001490116,0.,-1.01000001490116,             173P    187
186.010000014901,0.,-1.01000001490117,-9.35100000149012,             173P    188
9.35100000149012,-5.85100000149012,5.85100000149012;                 173P    189
128,1,1,1,1,0,0,1,0,0,-6.251,-6.251,6.251,6.251,-9.751,-9.751,       175P    190
9.751,9.751,1.,1.,1.,1.,-5.00999999999999,-3.5,120.01,               175P    191
-5.00999999999999,-3.5,-5.01,190.01,-3.5,120.01,190.01,-3.5,         175P    192
-5.01000000000001,-6.251,6.251,-9.751,9.751;                         175P    193
502,24,186.000000014901,0.,116.000000014901,186.000000014901,0.,     177P    194
-1.00000001490116,186.000000014901,4.,116.000000014901,              177P    195
186.000000014901,4.,-1.00000001490116,-1.00000001490116,0.,          177P    196
116.000000014901,-1.00000001490116,4.,116.000000014901,              177P    197
-1.00000001490116,0.,-1.00000001490116,-1.00000001490116,4.,         177P    198
-1.00000001490116,-5.,4.,-5.,-5.,4.,120.,190.,4.,120.,190.,4.,       177P    199
-5.,-5.,-3.5,-5.,190.,-3.5,-5.,190.,-3.5,120.,-5.,-3.5,120.,         177P    200
162.,0.,113.,162.,0.,2.,162.,-3.5,2.,162.,-3.5,113.,55.,-3.5,        177P    201
113.,55.,0.,113.,55.,0.,1.99999999999999,55.,-3.5,                   177P    202
1.99999999999999;                                                    177P    203
504,36,75,177,1,177,2,77,177,1,177,3,79,177,4,177,3,81,177,2,        179P    204
177,4,83,177,5,177,1,85,177,5,177,6,87,177,3,177,6,89,177,2,177,     179P    205
7,91,177,8,177,4,93,177,7,177,8,95,177,7,177,5,97,177,6,177,8,       179P    206
99,177,9,177,10,101,177,10,177,11,103,177,11,177,12,105,177,12,      179P    207
177,9,107,177,13,177,14,109,177,13,177,9,111,177,14,177,12,113,      179P    208
177,14,177,15,115,177,15,177,11,117,177,15,177,16,119,177,16,        179P    209
177,10,121,177,16,177,13,123,177,17,177,18,125,177,19,177,18,        179P    210
127,177,19,177,20,129,177,17,177,20,131,177,21,177,20,133,177,       179P    211
21,177,22,135,177,17,177,22,137,177,23,177,22,139,177,21,177,24,     179P    212
141,177,23,177,24,143,177,23,177,18,145,177,19,177,24;               179P    213
406,1,5HBody1;                                                       181P    214
406,1,12HComponent1:1;                                               183P    215
314,62.7450980392157,62.7450980392157,62.7450980392157,13HSteel      185P    216
- Satin;                                                             185P    217
S      1G      3D    186P    217                                        T      1
