0
SECTION
2
HEADER
9
$INSUNITS
70
4
9
$ACADVER
1
AC1014
9
$HANDSEED
5
FFFF
0
ENDSEC
0
SECTION
2
TABLES
0
TABLE
2
VPORT
5
8
100
AcDbSymbolTable
0
ENDTAB
0
TABLE
2
LTYPE
5
5
100
AcDbSymbolTable
0
LTYPE
5
14
100
AcDbSymbolTableRecord
100
AcDbLinetypeTableRecord
2
BYBLOCK
70
0
0
LTYPE
5
15
100
AcDbSymbolTableRecord
100
AcDbLinetypeTableRecord
2
BYLAYER
70
0
0
ENDTAB
0
TABLE
2
LAYER
5
2
100
AcDbSymbolTable
70
2
0
LAYER
5
50
100
AcDbSymbolTableRecord
100
AcDbLayerTableRecord
2
0
70
0
6
CONTINUOUS
0
ENDTAB
0
TABLE
2
STYLE
5
3
100
AcDbSymbolTable
70
1
0
STYLE
5
11
100
AcDbSymbolTableRecord
100
AcDbTextStyleTableRecord
2
STANDARD
70
0
0
ENDTAB
0
TABLE
2
VIEW
5
6
100
AcDbSymbolTable
70
0
0
ENDTAB
0
TABLE
2
UCS
5
7
100
AcDbSymbolTable
70
0
0
ENDTAB
0
TABLE
2
APPID
5
9
100
AcDbSymbolTable
70
2
0
APPID
5
12
100
AcDbSymbolTableRecord
100
AcDbRegAppTableRecord
2
ACAD
70
0
0
ENDTAB
0
TABLE
2
DIMSTYLE
5
A
100
AcDbSymbolTable
70
1
0
ENDTAB
0
TABLE
2
BLOCK_RECORD
5
1
100
AcDbSymbolTable
70
1
0
BLOCK_RECORD
5
1F
100
AcDbSymbolTableRecord
100
AcDbBlockTableRecord
2
*MODEL_SPACE
0
BLOCK_RECORD
5
1B
100
AcDbSymbolTableRecord
100
AcDbBlockTableRecord
2
*PAPER_SPACE
0
ENDTAB
0
ENDSEC
0
SECTION
2
BLOCKS
0
BLOCK
5
20
100
AcDbEntity
100
AcDbBlockBegin
2
*MODEL_SPACE
0
ENDBLK
5
21
100
AcDbEntity
100
AcDbBlockEnd
0
BLOCK
5
1C
100
AcDbEntity
100
AcDbBlockBegin
2
*PAPER_SPACE
0
ENDBLK
5
1D
100
AcDbEntity
100
AcDbBlockEnd
0
ENDSEC
0
SECTION
2
ENTITIES
0
LWPOLYLINE
5
100
100
AcDbEntity
8
0
100
AcDbPolyline
90
55
70
1
43
0.0
10
-14.81666666666667
20
-17.991666666666688
10
-6.3499999999999996
20
-17.991666666666688
10
-6.3499999999999979
20
-26.458333333333364
10
-48.683333333333337
20
-26.458333333333364
10
-82.973333333333386
20
30.691666666666649
10
-57.573333333333345
20
73.025000000000034
10
-48.683333333333337
20
58.208333333333336
10
-48.683333333333337
20
134.40833333333336
10
-6.3499999999999996
20
134.40833333333336
10
-6.3499999999999996
20
125.94166666666669
10
-14.81666666666667
20
125.94166666666669
10
-14.81666666666667
20
121.70833333333337
10
-6.3499999999999996
20
121.70833333333337
10
-6.3499999999999996
20
113.24166666666667
10
-23.283333333333331
20
113.24166666666667
10
-23.283333333333349
20
109.00833333333338
10
-6.3500000000000068
20
109.00833333333338
10
-6.3499999999999996
20
100.54166666666669
10
-14.81666666666667
20
100.54166666666669
10
-14.81666666666667
20
96.308333333333366
10
-6.3499999999999996
20
96.308333333333337
10
-6.3499999999999996
20
87.841666666666669
10
-14.81666666666667
20
87.841666666666697
10
-14.81666666666667
20
83.608333333333377
10
-6.3499999999999996
20
83.608333333333348
10
-6.3499999999999996
20
75.141666666666652
10
-23.283333333333331
20
75.141666666666708
10
-23.283333333333349
20
70.908333333333346
10
-6.3500000000000068
20
70.908333333333346
10
-6.3499999999999996
20
62.441666666666656
10
-14.81666666666667
20
62.441666666666713
10
-14.81666666666667
20
58.208333333333336
10
-6.3499999999999996
20
58.208333333333336
10
-6.3499999999999996
20
49.74166666666666
10
-14.81666666666667
20
49.74166666666666
10
-14.81666666666667
20
45.508333333333333
10
-6.3499999999999996
20
45.508333333333333
10
-6.3499999999999996
20
37.041666666666643
10
-23.283333333333331
20
37.041666666666671
10
-23.283333333333349
20
32.808333333333323
10
-6.3500000000000068
20
32.808333333333323
10
-6.3499999999999996
20
24.341666666666654
10
-14.81666666666667
20
24.341666666666665
10
-14.81666666666667
20
20.108333333333334
10
-6.3499999999999996
20
20.108333333333334
10
-6.3499999999999996
20
11.641666666666648
10
-14.81666666666667
20
11.641666666666648
10
-14.81666666666667
20
7.4083333333333119
10
-6.3499999999999996
20
7.4083333333333119
10
-6.3499999999999996
20
-1.0583333333333589
10
-23.283333333333331
20
-1.0583333333333433
10
-23.283333333333349
20
-5.2916666666666767
10
-6.3500000000000068
20
-5.2916666666666767
10
-6.3499999999999996
20
-13.758333333333347
10
-14.81666666666667
20
-13.758333333333347
0
LWPOLYLINE
5
101
100
AcDbEntity
8
0
100
AcDbPolyline
90
4
70
1
43
0.0
10
-167.2166666666667
20
134.40833333333336
10
-6.3499999999999996
20
134.40833333333336
10
-6.3500000000000156
20
144.40833333333336
10
-167.2166666666667
20
144.40833333333336
0
ENDSEC
0
SECTION
2
OBJECTS
0
DICTIONARY
5
C
100
AcDbDictionary
3
ACAD_GROUP
350
D
3
ACAD_MLINESTYLE
350
17
0
DICTIONARY
5
D
100
AcDbDictionary
0
DICTIONARY
5
1A
330
C
100
AcDbDictionary
0
DICTIONARY
5
17
100
AcDbDictionary
0
ENDSEC
0
EOF
