0
SECTION
2
HEADER
9
$INSUNITS
70
4
9
$ACADVER
1
AC1014
9
$HANDSEED
5
FFFF
0
ENDSEC
0
SECTION
2
TABLES
0
TABLE
2
VPORT
5
8
100
AcDbSymbolTable
0
ENDTAB
0
TABLE
2
LTYPE
5
5
100
AcDbSymbolTable
0
LTYPE
5
14
100
AcDbSymbolTableRecord
100
AcDbLinetypeTableRecord
2
BYBLOCK
70
0
0
LTYPE
5
15
100
AcDbSymbolTableRecord
100
AcDbLinetypeTableRecord
2
BYLAYER
70
0
0
ENDTAB
0
TABLE
2
LAYER
5
2
100
AcDbSymbolTable
70
2
0
LAYER
5
50
100
AcDbSymbolTableRecord
100
AcDbLayerTableRecord
2
0
70
0
6
CONTINUOUS
0
ENDTAB
0
TABLE
2
STYLE
5
3
100
AcDbSymbolTable
70
1
0
STYLE
5
11
100
AcDbSymbolTableRecord
100
AcDbTextStyleTableRecord
2
STANDARD
70
0
0
ENDTAB
0
TABLE
2
VIEW
5
6
100
AcDbSymbolTable
70
0
0
ENDTAB
0
TABLE
2
UCS
5
7
100
AcDbSymbolTable
70
0
0
ENDTAB
0
TABLE
2
APPID
5
9
100
AcDbSymbolTable
70
2
0
APPID
5
12
100
AcDbSymbolTableRecord
100
AcDbRegAppTableRecord
2
ACAD
70
0
0
ENDTAB
0
TABLE
2
DIMSTYLE
5
A
100
AcDbSymbolTable
70
1
0
ENDTAB
0
TABLE
2
BLOCK_RECORD
5
1
100
AcDbSymbolTable
70
1
0
BLOCK_RECORD
5
1F
100
AcDbSymbolTableRecord
100
AcDbBlockTableRecord
2
*MODEL_SPACE
0
BLOCK_RECORD
5
1B
100
AcDbSymbolTableRecord
100
AcDbBlockTableRecord
2
*PAPER_SPACE
0
ENDTAB
0
ENDSEC
0
SECTION
2
BLOCKS
0
BLOCK
5
20
100
AcDbEntity
100
AcDbBlockBegin
2
*MODEL_SPACE
0
ENDBLK
5
21
100
AcDbEntity
100
AcDbBlockEnd
0
BLOCK
5
1C
100
AcDbEntity
100
AcDbBlockBegin
2
*PAPER_SPACE
0
ENDBLK
5
1D
100
AcDbEntity
100
AcDbBlockEnd
0
ENDSEC
0
SECTION
2
ENTITIES
0
LWPOLYLINE
5
100
100
AcDbEntity
8
0
100
AcDbPolyline
90
8
70
1
43
0.0
10
-62.000001790063152
20
21.999998087229628
42
-0.41421356237308854
10
-60.000001864743844
20
23.999998161910334
10
84.99999813525605
20
24.00000357626109
42
-0.41421356237309631
10
86.999998209936749
20
22.0000036509418
10
87.000000637059543
20
-42.999996349058179
42
-0.41421356237308593
10
85.000000711740256
20
-44.999996423738899
10
-59.99999928825968
20
-45.000001838089652
42
-0.41421356237308721
10
-61.999999362940379
20
-43.000001912770351
0
LWPOLYLINE
5
101
100
AcDbEntity
8
0
100
AcDbPolyline
90
4
70
1
43
0.0
10
-67.000002051445563
20
28.99999797412644
10
92.000004829697332
20
29.000003911242374
10
92.000007779584962
20
-49.999996108013036
10
-66.999999101557918
20
-50.000002045128973
0
LINE
5
102
100
AcDbEntity
8
0
100
AcDbLine
10
90.000000637059514
20
-42.999996120199796
30
0
11
89.999998209936763
21
22.000003879800161
31
0
0
LWPOLYLINE
5
103
100
AcDbEntity
8
0
100
AcDbPolyline
90
4
70
1
43
0.0
10
-63.359375576501868
20
-10.499996120199796
10
89.999999423498139
20
-10.499996120199814
10
89.999999423498139
20
-50.49999612019981
10
-63.359375576501868
20
-50.499996120199796
0
LINE
5
104
100
AcDbEntity
8
0
100
AcDbLine
10
65.966561923498134
20
-19.387183620199814
30
0
11
81.904061923498134
21
-19.387183620199814
31
0
0
SPLINE
5
105
100
AcDbEntity
8
0
100
AcDbSpline
70
0
71
3
72
9
73
5
74
0
42
0.000000001
43
0.0000000001
44
0.0000000001
40
0
40
0
40
0
40
0
40
0.17096050770128593
40
0.3067457203632733
40
0.3067457203632733
40
0.3067457203632733
40
0.3067457203632733
10
81.904061923498134
20
-19.387183620199817
30
0
10
81.826209305618931
20
-18.813620774540418
30
0
10
81.68652232366837
20
-17.784506211001499
30
0
10
81.119781357962466
20
-16.918826259071345
30
0
10
80.868905673498134
20
-16.535621120199817
30
0
0
SPLINE
5
106
100
AcDbEntity
8
0
100
AcDbSpline
70
0
71
3
72
9
73
5
74
0
42
0.000000001
43
0.0000000001
44
0.0000000001
40
0
40
0
40
0
40
0
40
0.16689864544738778
40
0.33821301096197343
40
0.33821301096197343
40
0.33821301096197343
40
0.33821301096197343
10
80.868905673498134
20
-16.535621120199817
30
0
10
80.451550914939304
20
-16.142573610688721
30
0
10
79.605799236409396
20
-15.346079539172983
30
0
10
78.447701913236472
20
-15.241126516549418
30
0
10
77.861093173498134
20
-15.187964870199817
30
0
0
SPLINE
5
107
100
AcDbEntity
8
0
100
AcDbSpline
70
0
71
3
72
9
73
5
74
0
42
0.000000001
43
0.0000000001
44
0.0000000001
40
0
40
0
40
0
40
0
40
0.11519298780080567
40
0.23216055485750758
40
0.23216055485750758
40
0.23216055485750758
40
0.23216055485750758
10
77.861093173498134
20
-15.187964870199817
30
0
10
77.474028307732425
20
-15.213116899782788
30
0
10
76.693935736842548
20
-15.263808432794095
30
0
10
75.989460640490023
20
-15.603006807557689
30
0
10
75.634530673498134
20
-15.773902370199817
30
0
0
SPLINE
5
108
100
AcDbEntity
8
0
100
AcDbSpline
70
0
71
3
72
9
73
5
74
0
42
0.000000001
43
0.0000000001
44
0.0000000001
40
0
40
0
40
0
40
0
40
0.084281926566446938
40
0.19145715833179036
40
0.19145715833179036
40
0.19145715833179036
40
0.19145715833179036
10
75.634530673498134
20
-15.773902370199817
30
0
10
75.403882387675964
20
-15.936495881578207
30
0
10
74.879935354467136
20
-16.305847804580967
30
0
10
74.474672697697386
20
-16.803767268317603
30
0
10
74.247811923498134
20
-17.082496120199817
30
0
0
LINE
5
109
100
AcDbEntity
8
0
100
AcDbLine
10
74.247811923498134
20
-17.082496120199817
30
0
11
66.415780673498134
21
-16.359839870199817
31
0
0
SPLINE
5
110
100
AcDbEntity
8
0
100
AcDbSpline
70
0
71
3
72
9
73
5
74
0
42
0.000000001
43
0.0000000001
44
0.0000000001
40
0
40
0
40
0
40
0
40
0.33360232983171256
40
0.62985518343686442
40
0.62985518343686442
40
0.62985518343686442
40
0.62985518343686442
10
66.415780673498134
20
-16.359839870199814
30
0
10
67.017637257162107
20
-15.407479738801179
30
0
10
68.153967717136965
20
-13.609383887484316
30
0
10
69.920723349061518
20
-12.43145685180548
30
0
10
70.751718173498134
20
-11.877417995199817
30
0
0
SPLINE
5
111
100
AcDbEntity
8
0
100
AcDbSpline
70
0
71
3
72
9
73
5
74
0
42
0.000000001
43
0.0000000001
44
0.0000000001
40
0
40
0
40
0
40
0
40
0.32541710790456896
40
0.7462212914718731
40
0.7462212914718731
40
0.7462212914718731
40
0.7462212914718731
10
70.751718173498134
20
-11.877417995199817
30
0
10
71.770889449725075
20
-11.483142115735161
30
0
10
74.107974032875291
20
-10.579019225992674
30
0
10
76.620197789992929
20
-10.541278577503448
30
0
10
78.036874423498134
20
-10.519996120199817
30
0
0
SPLINE
5
112
100
AcDbEntity
8
0
100
AcDbSpline
70
0
71
3
72
9
73
5
74
0
42
0.000000001
43
0.0000000001
44
0.0000000001
40
0
40
0
40
0
40
0
40
0.36930859493270424
40
0.66282137513153172
40
0.66282137513153172
40
0.66282137513153172
40
0.66282137513153172
10
78.036874423498134
20
-10.519996120199817
30
0
10
79.278494414183768
20
-10.54197916560156
30
0
10
81.506907943977239
20
-10.581433520530474
30
0
10
83.596104438148132
20
-11.344293351221202
30
0
10
84.521249423498134
20
-11.682105495199817
30
0
0
SPLINE
5
113
100
AcDbEntity
8
0
100
AcDbSpline
70
0
71
3
72
9
73
5
74
0
42
0.000000001
43
0.0000000001
44
0.0000000001
40
0
40
0
40
0
40
0
40
0.26325118801649489
40
0.54372371656025575
40
0.54372371656025575
40
0.54372371656025575
40
0.54372371656025575
10
84.521249423498134
20
-11.682105495199817
30
0
10
85.282864708158542
20
-12.139084127345789
30
0
10
86.855918551846031
20
-13.082935975199392
30
0
10
87.899135624766217
20
-14.594032850641137
30
0
10
88.437265048498134
20
-15.373511745199817
30
0
0
SPLINE
5
114
100
AcDbEntity
8
0
100
AcDbSpline
70
0
71
3
72
9
73
5
74
0
42
0.000000001
43
0.0000000001
44
0.0000000001
40
0
40
0
40
0
40
0
40
0.29877646005838876
40
0.62070547608357984
40
0.62070547608357984
40
0.62070547608357984
40
0.62070547608357984
10
88.437265048498134
20
-15.373511745199817
30
0
10
88.889972352480555
20
-16.273458462307886
30
0
10
89.830467807142554
20
-18.143089876319717
30
0
10
89.935516103920733
20
-20.235531904747091
30
0
10
89.989999423498134
20
-21.320777370199817
30
0
0
SPLINE
5
115
100
AcDbEntity
8
0
100
AcDbSpline
70
0
71
3
72
9
73
5
74
0
42
0.000000001
43
0.0000000001
44
0.0000000001
40
0
40
0
40
0
40
0
40
0.44678167955973314
40
0.8652484677746376
40
0.8652484677746376
40
0.8652484677746376
40
0.8652484677746376
10
89.989999423498134
20
-21.320777370199817
30
0
10
89.878051020878587
20
-22.846873824615113
30
0
10
89.661248971314109
20
-25.802350020864559
30
0
10
87.783105875759276
20
-28.086951628585521
30
0
10
86.874765048498134
20
-29.191871120199817
30
0
0
SPLINE
5
116
100
AcDbEntity
8
0
100
AcDbSpline
70
0
71
3
72
9
73
5
74
0
42
0.000000001
43
0.0000000001
44
0.0000000001
40
0
40
0
40
0
40
0
40
0.43407193870526117
40
0.92931581512895045
40
0.92931581512895045
40
0.92931581512895045
40
0.92931581512895045
10
86.874765048498134
20
-29.191871120199817
30
0
10
85.683899122011468
20
-30.068130795673564
30
0
10
83.134343528799747
20
-31.944137747439342
30
0
10
79.961889408894478
20
-32.110843868955669
30
0
10
78.271249423498134
20
-32.199683620199821
30
0
0
SPLINE
5
117
100
AcDbEntity
8
0
100
AcDbSpline
70
0
71
3
72
9
73
5
74
0
42
0.000000001
43
0.0000000001
44
0.0000000001
40
0
40
0
40
0
40
0
40
0.39985941562173138
40
0.72087416661017567
40
0.72087416661017567
40
0.72087416661017567
40
0.72087416661017567
10
78.271249423498134
20
-32.199683620199821
30
0
10
76.92563747400834
20
-32.172622951843422
30
0
10
74.49974263504123
20
-32.123837463776333
30
0
10
72.244353762683943
20
-31.243882772054977
30
0
10
71.239999423498134
20
-30.852027370199814
30
0
0
SPLINE
5
118
100
AcDbEntity
8
0
100
AcDbSpline
70
0
71
3
72
9
73
5
74
0
42
0.000000001
43
0.0000000001
44
0.0000000001
40
0
40
0
40
0
40
0
40
0.28069547452197063
40
0.56049596902954746
40
0.56049596902954746
40
0.56049596902954746
40
0.56049596902954746
10
71.239999423498134
20
-30.852027370199814
30
0
10
70.432254012046783
20
-30.353035723227542
30
0
10
68.81933863501186
20
-29.3566434330288
30
0
10
67.815390637859451
20
-27.748543472215282
30
0
10
67.314218173498134
20
-26.945777370199814
30
0
0
SPLINE
5
119
100
AcDbEntity
8
0
100
AcDbSpline
70
0
71
3
72
9
73
5
74
0
42
0.000000001
43
0.0000000001
44
0.0000000001
40
0
40
0
40
0
40
0
40
0.31129911471840532
40
0.68440542236138602
40
0.68440542236138602
40
0.68440542236138602
40
0.68440542236138602
10
67.314218173498134
20
-26.945777370199814
30
0
10
66.921991807110061
20
-25.976153317219726
30
0
10
66.059664099586911
20
-23.84439023748245
30
0
10
65.999409794749525
20
-21.541209278165397
30
0
10
65.966561923498134
20
-20.285621120199814
30
0
0
LINE
5
120
100
AcDbEntity
8
0
100
AcDbLine
10
65.966561923498134
20
-20.285621120199814
30
0
11
65.966561923498134
21
-19.387183620199814
31
0
0
SPLINE
5
121
100
AcDbEntity
8
0
100
AcDbSpline
70
0
71
3
72
9
73
5
74
0
42
0.000000001
43
0.0000000001
44
0.0000000001
40
0
40
0
40
0
40
0
40
0.20231658281856219
40
0.35762015110434286
40
0.35762015110434286
40
0.35762015110434286
40
0.35762015110434286
10
74.052499423498134
20
-23.195777370199817
30
0
10
74.135338902728662
20
-23.878880767957369
30
0
10
74.281768160613041
20
-25.086352429066952
30
0
10
74.986632588820115
20
-26.069574947535887
30
0
10
75.292733798498134
20
-26.496558620199817
30
0
0
SPLINE
5
122
100
AcDbEntity
8
0
100
AcDbSpline
70
0
71
3
72
9
73
5
74
0
42
0.000000001
43
0.0000000001
44
0.0000000001
40
0
40
0
40
0
40
0
40
0.13835796232703174
40
0.28862904566341774
40
0.28862904566341774
40
0.28862904566341774
40
0.28862904566341774
10
75.292733798498134
20
-26.496558620199817
30
0
10
75.664946727360302
20
-26.786950156176353
30
0
10
76.441421464586767
20
-27.392736989748904
30
0
10
77.426400976158277
20
-27.458443238166655
30
0
10
77.939218173498134
20
-27.492652370199817
30
0
0
SPLINE
5
123
100
AcDbEntity
8
0
100
AcDbSpline
70
0
71
3
72
9
73
5
74
0
42
0.000000001
43
0.0000000001
44
0.0000000001
40
0
40
0
40
0
40
0
40
0.17450846715458415
40
0.34838184828935226
40
0.34838184828935226
40
0.34838184828935226
40
0.34838184828935226
10
77.939218173498134
20
-27.492652370199817
30
0
10
78.538644661884319
20
-27.430447788215233
30
0
10
79.73531615492189
20
-27.306265004438561
30
0
10
80.556645750851487
20
-26.427385027394866
30
0
10
80.966561923498134
20
-25.988746120199817
30
0
0
SPLINE
5
124
100
AcDbEntity
8
0
100
AcDbSpline
70
0
71
3
72
9
73
5
74
0
42
0.000000001
43
0.0000000001
44
0.0000000001
40
0
40
0
40
0
40
0
40
0.13080288251214622
40
0.29665902143856671
40
0.29665902143856671
40
0.29665902143856671
40
0.29665902143856671
10
80.966561923498134
20
-25.988746120199817
30
0
10
81.187959404344525
20
-25.608224567458638
30
0
10
81.690085647707363
20
-24.745207260007472
30
0
10
81.814803442966593
20
-23.751396906774346
30
0
10
81.884530673498134
20
-23.195777370199817
30
0
0
LINE
5
125
100
AcDbEntity
8
0
100
AcDbLine
10
81.884530673498134
20
-23.195777370199817
30
0
11
74.052499423498134
21
-23.195777370199817
31
0
0
LINE
5
126
100
AcDbEntity
8
0
100
AcDbLine
10
62.040780673498134
20
-39.621558620199814
30
0
11
54.072030673498134
21
-39.621558620199814
31
0
0
LINE
5
127
100
AcDbEntity
8
0
100
AcDbLine
10
54.072030673498134
20
-39.621558620199814
30
0
11
54.072030673498134
21
-10.988746120199814
31
0
0
LINE
5
128
100
AcDbEntity
8
0
100
AcDbLine
10
54.072030673498134
20
-10.988746120199808
30
0
11
62.040780673498134
21
-10.988746120199808
31
0
0
LINE
5
129
100
AcDbEntity
8
0
100
AcDbLine
10
62.040780673498134
20
-10.988746120199817
30
0
11
62.040780673498134
21
-39.621558620199821
31
0
0
LINE
5
130
100
AcDbEntity
8
0
100
AcDbLine
10
25.966561923498137
20
-19.387183620199806
30
0
11
41.904061923498134
21
-19.38718362019981
31
0
0
SPLINE
5
131
100
AcDbEntity
8
0
100
AcDbSpline
70
0
71
3
72
9
73
5
74
0
42
0.000000001
43
0.0000000001
44
0.0000000001
40
0
40
0
40
0
40
0
40
0.17096050770128593
40
0.3067457203632733
40
0.3067457203632733
40
0.3067457203632733
40
0.3067457203632733
10
41.904061923498134
20
-19.387183620199814
30
0
10
41.826209305618924
20
-18.813620774540411
30
0
10
41.686522323668378
20
-17.784506211001492
30
0
10
41.119781357962466
20
-16.918826259071341
30
0
10
40.868905673498148
20
-16.535621120199814
30
0
0
SPLINE
5
132
100
AcDbEntity
8
0
100
AcDbSpline
70
0
71
3
72
9
73
5
74
0
42
0.000000001
43
0.0000000001
44
0.0000000001
40
0
40
0
40
0
40
0
40
0.16689864544738778
40
0.33821301096197343
40
0.33821301096197343
40
0.33821301096197343
40
0.33821301096197343
10
40.868905673498148
20
-16.535621120199814
30
0
10
40.45155091493929
20
-16.142573610688714
30
0
10
39.605799236409396
20
-15.34607953917298
30
0
10
38.447701913236479
20
-15.241126516549413
30
0
10
37.861093173498148
20
-15.187964870199814
30
0
0
SPLINE
5
133
100
AcDbEntity
8
0
100
AcDbSpline
70
0
71
3
72
9
73
5
74
0
42
0.000000001
43
0.0000000001
44
0.0000000001
40
0
40
0
40
0
40
0
40
0.11519298780080567
40
0.23216055485750758
40
0.23216055485750758
40
0.23216055485750758
40
0.23216055485750758
10
37.861093173498148
20
-15.187964870199814
30
0
10
37.474028307732425
20
-15.213116899782783
30
0
10
36.693935736842562
20
-15.263808432794086
30
0
10
35.98946064049003
20
-15.60300680755768
30
0
10
35.634530673498148
20
-15.773902370199808
30
0
0
SPLINE
5
134
100
AcDbEntity
8
0
100
AcDbSpline
70
0
71
3
72
9
73
5
74
0
42
0.000000001
43
0.0000000001
44
0.0000000001
40
0
40
0
40
0
40
0
40
0.084281926566446938
40
0.19145715833179036
40
0.19145715833179036
40
0.19145715833179036
40
0.19145715833179036
10
35.634530673498148
20
-15.773902370199808
30
0
10
35.403882387675964
20
-15.9364958815782
30
0
10
34.879935354467136
20
-16.305847804580957
30
0
10
34.474672697697386
20
-16.803767268317596
30
0
10
34.247811923498148
20
-17.082496120199806
30
0
0
LINE
5
135
100
AcDbEntity
8
0
100
AcDbLine
10
34.247811923498148
20
-17.082496120199806
30
0
11
26.415780673498148
21
-16.359839870199806
31
0
0
SPLINE
5
136
100
AcDbEntity
8
0
100
AcDbSpline
70
0
71
3
72
9
73
5
74
0
42
0.000000001
43
0.0000000001
44
0.0000000001
40
0
40
0
40
0
40
0
40
0.33360232983171256
40
0.62985518343686442
40
0.62985518343686442
40
0.62985518343686442
40
0.62985518343686442
10
26.415780673498148
20
-16.359839870199806
30
0
10
27.017637257162114
20
-15.407479738801175
30
0
10
28.153967717136972
20
-13.609383887484308
30
0
10
29.920723349061518
20
-12.431456851805471
30
0
10
30.751718173498148
20
-11.877417995199808
30
0
0
SPLINE
5
137
100
AcDbEntity
8
0
100
AcDbSpline
70
0
71
3
72
9
73
5
74
0
42
0.000000001
43
0.0000000001
44
0.0000000001
40
0
40
0
40
0
40
0
40
0.32541710790456896
40
0.7462212914718731
40
0.7462212914718731
40
0.7462212914718731
40
0.7462212914718731
10
30.751718173498148
20
-11.877417995199808
30
0
10
31.770889449725075
20
-11.483142115735152
30
0
10
34.107974032875291
20
-10.579019225992665
30
0
10
36.620197789992936
20
-10.541278577503439
30
0
10
38.036874423498148
20
-10.519996120199808
30
0
0
SPLINE
5
138
100
AcDbEntity
8
0
100
AcDbSpline
70
0
71
3
72
9
73
5
74
0
42
0.000000001
43
0.0000000001
44
0.0000000001
40
0
40
0
40
0
40
0
40
0.36930859493270424
40
0.66282137513153172
40
0.66282137513153172
40
0.66282137513153172
40
0.66282137513153172
10
38.036874423498148
20
-10.519996120199808
30
0
10
39.278494414183776
20
-10.541979165601552
30
0
10
41.506907943977247
20
-10.581433520530465
30
0
10
43.596104438148132
20
-11.344293351221193
30
0
10
44.521249423498148
20
-11.682105495199808
30
0
0
SPLINE
5
139
100
AcDbEntity
8
0
100
AcDbSpline
70
0
71
3
72
9
73
5
74
0
42
0.000000001
43
0.0000000001
44
0.0000000001
40
0
40
0
40
0
40
0
40
0.26325118801649489
40
0.54372371656025575
40
0.54372371656025575
40
0.54372371656025575
40
0.54372371656025575
10
44.521249423498148
20
-11.682105495199808
30
0
10
45.282864708158542
20
-12.139084127345781
30
0
10
46.855918551846038
20
-13.082935975199383
30
0
10
47.899135624766217
20
-14.594032850641128
30
0
10
48.437265048498148
20
-15.373511745199814
30
0
0
SPLINE
5
140
100
AcDbEntity
8
0
100
AcDbSpline
70
0
71
3
72
9
73
5
74
0
42
0.000000001
43
0.0000000001
44
0.0000000001
40
0
40
0
40
0
40
0
40
0.29877646005838876
40
0.62070547608357984
40
0.62070547608357984
40
0.62070547608357984
40
0.62070547608357984
10
48.437265048498148
20
-15.373511745199814
30
0
10
48.889972352480562
20
-16.273458462307882
30
0
10
49.830467807142568
20
-18.143089876319713
30
0
10
49.935516103920719
20
-20.235531904747084
30
0
10
49.989999423498134
20
-21.320777370199814
30
0
0
SPLINE
5
141
100
AcDbEntity
8
0
100
AcDbSpline
70
0
71
3
72
9
73
5
74
0
42
0.000000001
43
0.0000000001
44
0.0000000001
40
0
40
0
40
0
40
0
40
0.44678167955973314
40
0.8652484677746376
40
0.8652484677746376
40
0.8652484677746376
40
0.8652484677746376
10
49.989999423498134
20
-21.320777370199814
30
0
10
49.878051020878573
20
-22.846873824615109
30
0
10
49.661248971314116
20
-25.802350020864555
30
0
10
47.783105875759261
20
-28.086951628585517
30
0
10
46.874765048498134
20
-29.191871120199814
30
0
0
SPLINE
5
142
100
AcDbEntity
8
0
100
AcDbSpline
70
0
71
3
72
9
73
5
74
0
42
0.000000001
43
0.0000000001
44
0.0000000001
40
0
40
0
40
0
40
0
40
0.43407193870526117
40
0.92931581512895045
40
0.92931581512895045
40
0.92931581512895045
40
0.92931581512895045
10
46.874765048498134
20
-29.191871120199814
30
0
10
45.683899122011468
20
-30.068130795673561
30
0
10
43.134343528799739
20
-31.944137747439338
30
0
10
39.961889408894464
20
-32.110843868955669
30
0
10
38.271249423498134
20
-32.199683620199814
30
0
0
SPLINE
5
143
100
AcDbEntity
8
0
100
AcDbSpline
70
0
71
3
72
9
73
5
74
0
42
0.000000001
43
0.0000000001
44
0.0000000001
40
0
40
0
40
0
40
0
40
0.39985941562173138
40
0.72087416661017567
40
0.72087416661017567
40
0.72087416661017567
40
0.72087416661017567
10
38.271249423498134
20
-32.199683620199814
30
0
10
36.925637474008326
20
-32.172622951843415
30
0
10
34.499742635041208
20
-32.123837463776319
30
0
10
32.244353762683929
20
-31.243882772054974
30
0
10
31.239999423498137
20
-30.852027370199806
30
0
0
SPLINE
5
144
100
AcDbEntity
8
0
100
AcDbSpline
70
0
71
3
72
9
73
5
74
0
42
0.000000001
43
0.0000000001
44
0.0000000001
40
0
40
0
40
0
40
0
40
0.28069547452197063
40
0.56049596902954746
40
0.56049596902954746
40
0.56049596902954746
40
0.56049596902954746
10
31.239999423498137
20
-30.852027370199806
30
0
10
30.432254012046762
20
-30.353035723227539
30
0
10
28.819338635011835
20
-29.356643433028793
30
0
10
27.815390637859458
20
-27.748543472215278
30
0
10
27.314218173498137
20
-26.945777370199806
30
0
0
SPLINE
5
145
100
AcDbEntity
8
0
100
AcDbSpline
70
0
71
3
72
9
73
5
74
0
42
0.000000001
43
0.0000000001
44
0.0000000001
40
0
40
0
40
0
40
0
40
0.31129911471840532
40
0.68440542236138602
40
0.68440542236138602
40
0.68440542236138602
40
0.68440542236138602
10
27.314218173498137
20
-26.945777370199806
30
0
10
26.921991807110057
20
-25.976153317219723
30
0
10
26.059664099586914
20
-23.844390237482447
30
0
10
25.999409794749511
20
-21.541209278165393
30
0
10
25.966561923498137
20
-20.285621120199806
30
0
0
LINE
5
146
100
AcDbEntity
8
0
100
AcDbLine
10
25.966561923498137
20
-20.285621120199806
30
0
11
25.966561923498137
21
-19.387183620199806
31
0
0
SPLINE
5
147
100
AcDbEntity
8
0
100
AcDbSpline
70
0
71
3
72
9
73
5
74
0
42
0.000000001
43
0.0000000001
44
0.0000000001
40
0
40
0
40
0
40
0
40
0.20231658281856219
40
0.35762015110434286
40
0.35762015110434286
40
0.35762015110434286
40
0.35762015110434286
10
34.052499423498134
20
-23.195777370199806
30
0
10
34.135338902728662
20
-23.878880767957362
30
0
10
34.281768160613026
20
-25.086352429066942
30
0
10
34.986632588820108
20
-26.069574947535877
30
0
10
35.292733798498134
20
-26.496558620199806
30
0
0
SPLINE
5
148
100
AcDbEntity
8
0
100
AcDbSpline
70
0
71
3
72
9
73
5
74
0
42
0.000000001
43
0.0000000001
44
0.0000000001
40
0
40
0
40
0
40
0
40
0.13835796232703174
40
0.28862904566341774
40
0.28862904566341774
40
0.28862904566341774
40
0.28862904566341774
10
35.292733798498134
20
-26.496558620199806
30
0
10
35.664946727360302
20
-26.786950156176346
30
0
10
36.441421464586774
20
-27.392736989748894
30
0
10
37.42640097615827
20
-27.458443238166652
30
0
10
37.939218173498134
20
-27.492652370199814
30
0
0
SPLINE
5
149
100
AcDbEntity
8
0
100
AcDbSpline
70
0
71
3
72
9
73
5
74
0
42
0.000000001
43
0.0000000001
44
0.0000000001
40
0
40
0
40
0
40
0
40
0.17450846715458415
40
0.34838184828935226
40
0.34838184828935226
40
0.34838184828935226
40
0.34838184828935226
10
37.939218173498134
20
-27.492652370199814
30
0
10
38.538644661884319
20
-27.430447788215226
30
0
10
39.735316154921883
20
-27.306265004438558
30
0
10
40.556645750851487
20
-26.427385027394863
30
0
10
40.966561923498134
20
-25.988746120199814
30
0
0
SPLINE
5
150
100
AcDbEntity
8
0
100
AcDbSpline
70
0
71
3
72
9
73
5
74
0
42
0.000000001
43
0.0000000001
44
0.0000000001
40
0
40
0
40
0
40
0
40
0.13080288251214622
40
0.29665902143856671
40
0.29665902143856671
40
0.29665902143856671
40
0.29665902143856671
10
40.966561923498134
20
-25.988746120199814
30
0
10
41.187959404344532
20
-25.608224567458635
30
0
10
41.690085647707363
20
-24.745207260007469
30
0
10
41.814803442966593
20
-23.751396906774342
30
0
10
41.884530673498134
20
-23.195777370199814
30
0
0
LINE
5
151
100
AcDbEntity
8
0
100
AcDbLine
10
41.884530673498134
20
-23.195777370199814
30
0
11
34.052499423498134
21
-23.195777370199814
31
0
0
LINE
5
152
100
AcDbEntity
8
0
100
AcDbLine
10
6.8454681734981371
20
-19.113746120199806
30
0
11
-0.71312557650186292
21
-18.254371120199806
31
0
0
SPLINE
5
153
100
AcDbEntity
8
0
100
AcDbSpline
70
0
71
3
72
9
73
5
74
0
42
0.000000001
43
0.0000000001
44
0.0000000001
40
0
40
0
40
0
40
0
40
0.23539676469606846
40
0.46042145820762936
40
0.46042145820762936
40
0.46042145820762936
40
0.46042145820762936
10
-0.71312557650186292
20
-18.254371120199803
30
0
10
-0.47699163306285541
20
-17.499875679400652
30
0
10
-0.015128298998430267
20
-16.024129436616562
30
0
10
0.89355105924814993
20
-14.773703048465778
30
0
10
1.3376556734981371
20
-14.162574245199808
30
0
0
SPLINE
5
154
100
AcDbEntity
8
0
100
AcDbSpline
70
0
71
3
72
9
73
5
74
0
42
0.000000001
43
0.0000000001
44
0.0000000001
40
0
40
0
40
0
40
0
40
0.22347417143682946
40
0.45582756413468867
40
0.45582756413468867
40
0.45582756413468867
40
0.45582756413468867
10
1.3376556734981371
20
-14.162574245199808
30
0
10
1.8528215398021608
20
-13.615583158412319
30
0
10
2.9036221779827542
20
-12.499867578886379
30
0
10
4.2790987982456308
20
-11.822373155078791
30
0
10
4.9802337984981371
20
-11.477027370199808
30
0
0
SPLINE
5
155
100
AcDbEntity
8
0
100
AcDbSpline
70
0
71
3
72
9
73
5
74
0
42
0.000000001
43
0.0000000001
44
0.0000000001
40
0
40
0
40
0
40
0
40
0.26174300351852703
40
0.57442729442286855
40
0.57442729442286855
40
0.57442729442286855
40
0.57442729442286855
10
4.9802337984981371
20
-11.477027370199808
30
0
10
5.8122263552460396
20
-11.19846937644839
30
0
10
7.6381366066305745
20
-10.587139512652568
30
0
10
9.5657309273952507
20
-10.543662459818472
30
0
10
10.614999423498137
20
-10.519996120199808
30
0
0
SPLINE
5
156
100
AcDbEntity
8
0
100
AcDbSpline
70
0
71
3
72
9
73
5
74
0
42
0.000000001
43
0.0000000001
44
0.0000000001
40
0
40
0
40
0
40
0
40
0.30288024625849902
40
0.55445400056688654
40
0.55445400056688654
40
0.55445400056688654
40
0.55445400056688654
10
10.614999423498137
20
-10.519996120199808
30
0
10
11.627613843432032
20
-10.534676514437953
30
0
10
13.481310553929582
20
-10.561550513042333
30
0
10
15.291640785345395
20
-10.955756230357796
30
0
10
16.113046298498148
20
-11.134620143637308
30
0
0
SPLINE
5
157
100
AcDbEntity
8
0
100
AcDbSpline
70
0
71
3
72
9
73
5
74
0
42
0.000000001
43
0.0000000001
44
0.0000000001
40
0
40
0
40
0
40
0
40
0.21962655705645398
40
0.42982751529018615
40
0.42982751529018615
40
0.42982751529018615
40
0.42982751529018615
10
16.113046298498148
20
-11.134620143637308
30
0
10
16.813766924617404
20
-11.365985364993536
30
0
10
18.185135713866359
20
-11.818786426727383
30
0
10
19.331654612343108
20
-12.695991887342828
30
0
10
19.892343173498148
20
-13.124976588949808
30
0
0
SPLINE
5
158
100
AcDbEntity
8
0
100
AcDbSpline
70
0
71
3
72
9
73
5
74
0
42
0.000000001
43
0.0000000001
44
0.0000000001
40
0
40
0
40
0
40
0
40
0.20559812908235514
40
0.40934287035636829
40
0.40934287035636829
40
0.40934287035636829
40
0.40934287035636829
10
19.892343173498148
20
-13.124976588949808
30
0
10
20.390518532004371
20
-13.602062329915849
30
0
10
21.38237839036946
20
-14.551933067965743
30
0
10
22.043665452213599
20
-15.755460294721368
30
0
10
22.372811923498148
20
-16.354499294027931
30
0
0
SPLINE
5
159
100
AcDbEntity
8
0
100
AcDbSpline
70
0
71
3
72
9
73
5
74
0
42
0.000000001
43
0.0000000001
44
0.0000000001
40
0
40
0
40
0
40
0
40
0.22590908141026866
40
0.50294035056918596
40
0.50294035056918596
40
0.50294035056918596
40
0.50294035056918596
10
22.372811923498148
20
-16.354499294027931
30
0
10
22.634154011479907
20
-17.066110238510728
30
0
10
23.215978701870839
20
-18.650366416495352
30
0
10
23.251618301323347
20
-20.34081226550509
30
0
10
23.271249423498137
20
-21.271949245199806
30
0
0
SPLINE
5
160
100
AcDbEntity
8
0
100
AcDbSpline
70
0
71
3
72
9
73
5
74
0
42
0.000000001
43
0.0000000001
44
0.0000000001
40
0
40
0
40
0
40
0
40
0.29447751336441619
40
0.54767424622516558
40
0.54767424622516558
40
0.54767424622516558
40
0.54767424622516558
10
23.271249423498137
20
-21.271949245199806
30
0
10
23.241096818246305
20
-22.262393641395274
30
0
10
23.185018494423382
20
-24.104438834988798
30
0
10
22.496028304822239
20
-25.810615705681023
30
0
10
22.177499423498137
20
-26.599402858481056
30
0
0
SPLINE
5
161
100
AcDbEntity
8
0
100
AcDbSpline
70
0
71
3
72
9
73
5
74
0
42
0.000000001
43
0.0000000001
44
0.0000000001
40
0
40
0
40
0
40
0
40
0.1757628521049874
40
0.3568587815164882
40
0.3568587815164882
40
0.3568587815164882
40
0.3568587815164882
10
22.177499423498137
20
-26.599402858481056
30
0
10
21.882795278178648
20
-27.10930856486268
30
0
10
21.284444938803453
20
-28.144591771116954
30
0
10
20.425758807893864
20
-28.977079046932456
30
0
10
19.989999423498137
20
-29.399543239340431
30
0
0
SPLINE
5
162
100
AcDbEntity
8
0
100
AcDbSpline
70
0
71
3
72
9
73
5
74
0
42
0.000000001
43
0.0000000001
44
0.0000000001
40
0
40
0
40
0
40
0
40
0.17734746363409012
40
0.34080271063797696
40
0.34080271063797696
40
0.34080271063797696
40
0.34080271063797696
10
19.989999423498137
20
-29.399543239340431
30
0
10
19.535291139104132
20
-29.781619014554245
30
0
10
18.661493382454228
20
-30.515841298841508
30
0
10
17.632135765384014
20
-31.007675277229914
30
0
10
17.138436923498137
20
-31.243567897543556
30
0
0
SPLINE
5
163
100
AcDbEntity
8
0
100
AcDbSpline
70
0
71
3
72
9
73
5
74
0
42
0.000000001
43
0.0000000001
44
0.0000000001
40
0
40
0
40
0
40
0
40
0.27466272827235416
40
0.60609220378408968
40
0.60609220378408968
40
0.60609220378408968
40
0.60609220378408968
10
17.138436923498137
20
-31.243567897543556
30
0
10
16.261302483483931
20
-31.521795900104777
30
0
10
14.325749199253925
20
-32.135755516276504
30
0
10
12.292983302671141
20
-32.17708397432316
30
0
10
11.181405673498137
20
-32.199683620199806
30
0
0
SPLINE
5
164
100
AcDbEntity
8
0
100
AcDbSpline
70
0
71
3
72
9
73
5
74
0
42
0.000000001
43
0.0000000001
44
0.0000000001
40
0
40
0
40
0
40
0
40
0.44980781742916814
40
0.80396196456171665
40
0.80396196456171665
40
0.80396196456171665
40
0.80396196456171665
10
11.181405673498137
20
-32.199683620199806
30
0
10
9.6595763682975999
20
-32.167314941906241
30
0
10
6.939541654518333
20
-32.109460931409281
30
0
10
4.508268009170866
20
-30.911147642222893
30
0
10
3.4372650484981371
20
-30.383277370199806
30
0
0
SPLINE
5
165
100
AcDbEntity
8
0
100
AcDbSpline
70
0
71
3
72
9
73
5
74
0
42
0.000000001
43
0.0000000001
44
0.0000000001
40
0
40
0
40
0
40
0
40
0.31851669824085843
40
0.6595461974451724
40
0.6595461974451724
40
0.6595461974451724
40
0.6595461974451724
10
3.4372650484981371
20
-30.383277370199806
30
0
10
2.6093597295968429
20
-29.689087759277268
30
0
10
0.89503263798212274
20
-28.251643126959483
30
0
10
0.10534961564498957
20
-26.154922287667162
30
0
10
-0.30296932650186292
20
-25.070777370199803
30
0
0
LINE
5
166
100
AcDbEntity
8
0
100
AcDbLine
10
-0.30296932650186292
20
-25.070777370199803
30
0
11
7.1774994234981371
21
-24.074683620199803
31
0
0
SPLINE
5
167
100
AcDbEntity
8
0
100
AcDbSpline
70
0
71
3
72
9
73
5
74
0
42
0.000000001
43
0.0000000001
44
0.0000000001
40
0
40
0
40
0
40
0
40
0.12656236813385299
40
0.24125390686047815
40
0.24125390686047815
40
0.24125390686047815
40
0.24125390686047815
10
7.1774994234981371
20
-24.074683620199806
30
0
10
7.3104207373269858
20
-24.483892877013584
30
0
10
7.5637961026829892
20
-25.263929892640434
30
0
10
8.1690567928773028
20
-25.814769089329218
30
0
10
8.4567962984981371
20
-26.076636745199806
30
0
0
SPLINE
5
168
100
AcDbEntity
8
0
100
AcDbSpline
70
0
71
3
72
9
73
5
74
0
42
0.000000001
43
0.0000000001
44
0.0000000001
40
0
40
0
40
0
40
0
40
0.11982157237170375
40
0.26120956122733163
40
0.26120956122733163
40
0.26120956122733163
40
0.26120956122733163
10
8.4567962984981371
20
-26.076636745199806
30
0
10
8.8110440789410482
20
-26.272816364587783
30
0
10
9.5832999045297562
20
-26.700485533734643
30
0
10
10.468102893820284
20
-26.732912657411401
30
0
10
10.947030673498137
20
-26.750464870199806
30
0
0
SPLINE
5
169
100
AcDbEntity
8
0
100
AcDbSpline
70
0
71
3
72
9
73
5
74
0
42
0.000000001
43
0.0000000001
44
0.0000000001
40
0
40
0
40
0
40
0
40
0.18193130029886487
40
0.35823081463439876
40
0.35823081463439876
40
0.35823081463439876
40
0.35823081463439876
10
10.947030673498137
20
-26.750464870199806
30
0
10
11.569935000767799
20
-26.695364456204111
30
0
10
12.796461300698239
20
-26.586869292590457
30
0
10
13.697133655553593
20
-25.749262554597045
30
0
10
14.140390048498137
20
-25.337043239340431
30
0
0
SPLINE
5
170
100
AcDbEntity
8
0
100
AcDbSpline
70
0
71
3
72
9
73
5
74
0
42
0.000000001
43
0.0000000001
44
0.0000000001
40
0
40
0
40
0
40
0
40
0.19986408475190626
40
0.4520189854282774
40
0.4520189854282774
40
0.4520189854282774
40
0.4520189854282774
10
14.140390048498137
20
-25.337043239340431
30
0
10
14.495208275292573
20
-24.760115731896004
30
0
10
15.2976764880591
20
-23.45531808951613
30
0
10
15.338384538126029
20
-21.916068055020972
30
0
10
15.361093173498137
20
-21.057410670981056
30
0
0
SPLINE
5
171
100
AcDbEntity
8
0
100
AcDbSpline
70
0
71
3
72
9
73
5
74
0
42
0.000000001
43
0.0000000001
44
0.0000000001
40
0
40
0
40
0
40
0
40
0.22672353062023456
40
0.41355928977951317
40
0.41355928977951317
40
0.41355928977951317
40
0.41355928977951317
10
15.361093173498137
20
-21.057410670981056
30
0
10
15.333220086688097
20
-20.284166279270295
30
0
10
15.282377662200508
20
-18.873715407289428
30
0
10
14.502489616241236
20
-17.705487264352268
30
0
10
14.150155673498146
20
-17.177710963949806
30
0
0
SPLINE
5
172
100
AcDbEntity
8
0
100
AcDbSpline
70
0
71
3
72
9
73
5
74
0
42
0.000000001
43
0.0000000001
44
0.0000000001
40
0
40
0
40
0
40
0
40
0.16983987210715107
40
0.34392224932883486
40
0.34392224932883486
40
0.34392224932883486
40
0.34392224932883486
10
14.150155673498146
20
-17.177710963949806
30
0
10
13.715071306283333
20
-16.791069854848892
30
0
10
12.834034407445269
20
-16.008129557760753
30
0
10
11.65898857024672
20
-15.904487596435771
30
0
10
11.064218173498137
20
-15.852027370199808
30
0
0
SPLINE
5
173
100
AcDbEntity
8
0
100
AcDbSpline
70
0
71
3
72
9
73
5
74
0
42
0.000000001
43
0.0000000001
44
0.0000000001
40
0
40
0
40
0
40
0
40
0.14518569007169066
40
0.27839007693624612
40
0.27839007693624612
40
0.27839007693624612
40
0.27839007693624612
10
11.064218173498137
20
-15.852027370199808
30
0
10
10.572539187237364
20
-15.879261785835489
30
0
10
9.6297565290740472
20
-15.931483124318561
30
0
10
8.8231912707424343
20
-16.4193659263371
30
0
10
8.4372650484981371
20
-16.652808620199806
30
0
0
SPLINE
5
174
100
AcDbEntity
8
0
100
AcDbSpline
70
0
71
3
72
9
73
5
74
0
42
0.000000001
43
0.0000000001
44
0.0000000001
40
0
40
0
40
0
40
0
40
0.13772149885363025
40
0.2966765457804641
40
0.2966765457804641
40
0.2966765457804641
40
0.2966765457804641
10
8.4372650484981371
20
-16.652808620199806
30
0
10
8.0995906997122269
20
-16.973043250428521
30
0
10
7.3721802356209132
20
-17.662885466250685
30
0
10
7.0292208848809956
20
-18.60758801566088
30
0
10
6.8454681734981371
20
-19.113746120199806
30
0
0
LINE
5
175
100
AcDbEntity
8
0
100
AcDbLine
10
-13.955313076501863
20
-39.621558620199806
30
0
11
-13.955313076501863
21
-31.730933620199803
31
0
0
LINE
5
176
100
AcDbEntity
8
0
100
AcDbLine
10
-13.955313076501863
20
-31.730933620199803
30
0
11
-18.330313076501863
21
-31.730933620199803
31
0
0
LINE
5
177
100
AcDbEntity
8
0
100
AcDbLine
10
-18.330313076501863
20
-31.730933620199803
30
0
11
-18.330313076501863
21
-25.910621120199803
31
0
0
LINE
5
178
100
AcDbEntity
8
0
100
AcDbLine
10
-18.330313076501863
20
-25.910621120199803
30
0
11
-13.955313076501863
21
-25.910621120199803
31
0
0
LINE
5
179
100
AcDbEntity
8
0
100
AcDbLine
10
-13.955313076501863
20
-25.910621120199803
30
0
11
-13.955313076501863
21
-18.561988307699803
31
0
0
SPLINE
5
180
100
AcDbEntity
8
0
100
AcDbSpline
70
0
71
3
72
9
73
5
74
0
42
0.000000001
43
0.0000000001
44
0.0000000001
40
0
40
0
40
0
40
0
40
0.11030547373774
40
0.17831816905297865
40
0.17831816905297865
40
0.17831816905297865
40
0.17831816905297865
10
-13.955313076501863
20
-18.561988307699803
30
0
10
-13.951174851932286
20
-18.190552537978505
30
0
10
-13.944485060361895
20
-17.590095061725222
30
0
10
-14.136125396398302
20
-17.023821476316282
30
0
10
-14.209219326501863
20
-16.807837917074803
30
0
0
SPLINE
5
181
100
AcDbEntity
8
0
100
AcDbSpline
70
0
71
3
72
9
73
5
74
0
42
0.000000001
43
0.0000000001
44
0.0000000001
40
0
40
0
40
0
40
0
40
0.073186478090929472
40
0.15783218953479386
40
0.15783218953479386
40
0.15783218953479386
40
0.15783218953479386
10
-14.209219326501863
20
-16.807837917074803
30
0
10
-14.37429895399303
20
-16.614780521768978
30
0
10
-14.730305688217147
20
-16.198437609774441
30
0
10
-15.281044517134674
20
-16.163651811656248
30
0
10
-15.576406826501863
20
-16.144996120199803
30
0
0
SPLINE
5
182
100
AcDbEntity
8
0
100
AcDbSpline
70
0
71
3
72
9
73
5
74
0
42
0.000000001
43
0.0000000001
44
0.0000000001
40
0
40
0
40
0
40
0
40
0.10622733906399776
40
0.25190061618610893
40
0.25190061618610893
40
0.25190061618610893
40
0.25190061618610893
10
-15.576406826501863
20
-16.144996120199803
30
0
10
-15.930023511994325
20
-16.176659531688319
30
0
10
-16.768567165201844
20
-16.251744090284927
30
0
10
-17.572457345401773
20
-16.505276281433559
30
0
10
-18.037344326501863
20
-16.651893092856053
30
0
0
LINE
5
183
100
AcDbEntity
8
0
100
AcDbLine
10
-18.037344326501863
20
-16.651893092856053
30
0
11
-18.623281826501863
21
-11.164527370199803
31
0
0
SPLINE
5
184
100
AcDbEntity
8
0
100
AcDbSpline
70
0
71
3
72
9
73
5
74
0
42
0.000000001
43
0.0000000001
44
0.0000000001
40
0
40
0
40
0
40
0
40
0.28922452767328866
40
0.55533780892328866
40
0.55533780892328866
40
0.55533780892328866
40
0.55533780892328866
10
-18.623281826501863
20
-11.164527370199799
30
0
10
-17.675831670497271
20
-10.976636152390311
30
0
10
-15.856639854601315
20
-10.615867658605751
30
0
10
-14.0034855363829
20
-10.551054195316985
30
0
10
-13.115469326501863
20
-10.519996120199808
30
0
0
SPLINE
5
185
100
AcDbEntity
8
0
100
AcDbSpline
70
0
71
3
72
9
73
5
74
0
42
0.000000001
43
0.0000000001
44
0.0000000001
40
0
40
0
40
0
40
0
40
0.25851314980287288
40
0.44704290564800003
40
0.44704290564800003
40
0.44704290564800003
40
0.44704290564800003
10
-13.115469326501863
20
-10.519996120199808
30
0
10
-12.24508408676801
20
-10.526319551258405
30
0
10
-10.739939969726127
20
-10.537254565574914
30
0
10
-9.3335717914520977
20
-11.060241845950181
30
0
10
-8.7404693265018629
20
-11.280799342856058
30
0
0
SPLINE
5
186
100
AcDbEntity
8
0
100
AcDbSpline
70
0
71
3
72
9
73
5
74
0
42
0.000000001
43
0.0000000001
44
0.0000000001
40
0
40
0
40
0
40
0
40
0.15538347596420793
40
0.31556019853318451
40
0.31556019853318451
40
0.31556019853318451
40
0.31556019853318451
10
-8.7404693265018629
20
-11.280799342856058
30
0
10
-8.3005959558738951
20
-11.571138268057046
30
0
10
-7.4072800655999771
20
-12.160772450905659
30
0
10
-6.9118625611292472
20
-13.110351758851815
30
0
10
-6.6603912015018629
20
-13.592353297934183
30
0
0
SPLINE
5
187
100
AcDbEntity
8
0
100
AcDbSpline
70
0
71
3
72
9
73
5
74
0
42
0.000000001
43
0.0000000001
44
0.0000000001
40
0
40
0
40
0
40
0
40
0.20929886958356414
40
0.50894040606088298
40
0.50894040606088298
40
0.50894040606088298
40
0.50894040606088298
10
-6.6603912015018629
20
-13.592353297934183
30
0
10
-6.4653606377296313
20
-14.265355248598075
30
0
10
-5.9911156763592288
20
-15.901856614955872
30
0
10
-5.9882501634184138
20
-17.60962853639521
30
0
10
-5.9865630765018629
20
-18.615088893637303
30
0
0
LINE
5
188
100
AcDbEntity
8
0
100
AcDbLine
10
-5.9865630765018629
20
-18.615088893637303
30
0
11
-5.9865630765018638
21
-25.910621120199803
31
0
0
LINE
5
189
100
AcDbEntity
8
0
100
AcDbLine
10
-5.9865630765018629
20
-25.910621120199803
30
0
11
-3.0568755765018629
21
-25.910621120199803
31
0
0
LINE
5
190
100
AcDbEntity
8
0
100
AcDbLine
10
-3.0568755765018629
20
-25.910621120199803
30
0
11
-3.0568755765018634
21
-31.730933620199803
31
0
0
LINE
5
191
100
AcDbEntity
8
0
100
AcDbLine
10
-3.0568755765018629
20
-31.730933620199803
30
0
11
-5.9865630765018629
21
-31.730933620199803
31
0
0
LINE
5
192
100
AcDbEntity
8
0
100
AcDbLine
10
-5.9865630765018629
20
-31.730933620199803
30
0
11
-5.9865630765018629
21
-35.539527370199806
31
0
0
LINE
5
193
100
AcDbEntity
8
0
100
AcDbLine
10
-5.9865630765018629
20
-35.539527370199806
30
0
11
-13.955313076501863
21
-39.621558620199806
31
0
0
LINE
5
194
100
AcDbEntity
8
0
100
AcDbLine
10
-22.197500576501863
20
-31.730933620199803
30
0
11
-29.638906826501863
21
-31.730933620199803
31
0
0
LINE
5
195
100
AcDbEntity
8
0
100
AcDbLine
10
-29.638906826501863
20
-31.730933620199803
30
0
11
-29.638906826501863
21
-28.332496120199803
31
0
0
SPLINE
5
196
100
AcDbEntity
8
0
100
AcDbSpline
70
0
71
3
72
9
73
5
74
0
42
0.000000001
43
0.0000000001
44
0.0000000001
40
0
40
0
40
0
40
0
40
0.21589238270992891
40
0.37854978011991436
40
0.37854978011991436
40
0.37854978011991436
40
0.37854978011991436
10
-29.638906826501863
20
-28.332496120199803
30
0
10
-29.964414654250735
20
-28.982336619343929
30
0
10
-30.535166225357369
20
-30.121779220218571
30
0
10
-31.458822067314465
20
-30.994576887422273
30
0
10
-31.855703701501863
20
-31.369605495199803
30
0
0
SPLINE
5
197
100
AcDbEntity
8
0
100
AcDbSpline
70
0
71
3
72
9
73
5
74
0
42
0.000000001
43
0.0000000001
44
0.0000000001
40
0
40
0
40
0
40
0
40
0.1420541829982053
40
0.29798227241415592
40
0.29798227241415592
40
0.29798227241415592
40
0.29798227241415592
10
-31.855703701501863
20
-31.369605495199803
30
0
10
-32.27090984297169
20
-31.611568333377921
30
0
10
-33.141873773383082
20
-32.119125624816533
30
0
10
-34.150287068285863
20
-32.17201019530453
30
0
10
-34.677969326501866
20
-32.199683620199806
30
0
0
SPLINE
5
198
100
AcDbEntity
8
0
100
AcDbSpline
70
0
71
3
72
9
73
5
74
0
42
0.000000001
43
0.0000000001
44
0.0000000001
40
0
40
0
40
0
40
0
40
0.18610178637828406
40
0.40290361011825526
40
0.40290361011825526
40
0.40290361011825526
40
0.40290361011825526
10
-34.677969326501866
20
-32.199683620199806
30
0
10
-35.30067252907152
20
-32.141695798555716
30
0
10
-36.648802352164921
20
-32.016154270244918
30
0
10
-37.869025398994211
20
-31.424371197399918
30
0
10
-38.525625576501866
20
-31.105933620199799
30
0
0
LINE
5
199
100
AcDbEntity
8
0
100
AcDbLine
10
-38.525625576501866
20
-31.105933620199799
30
0
11
-36.064688076501866
21
-25.441871120199799
31
0
0
SPLINE
5
200
100
AcDbEntity
8
0
100
AcDbSpline
70
0
71
3
72
9
73
5
74
0
42
0.000000001
43
0.0000000001
44
0.0000000001
40
0
40
0
40
0
40
0
40
0.13342145550862147
40
0.23120457622119162
40
0.23120457622119162
40
0.23120457622119162
40
0.23120457622119162
10
-36.064688076501866
20
-25.441871120199799
30
0
10
-35.650478530320925
20
-25.61139799855691
30
0
10
-34.93269935285312
20
-25.90516926584851
30
0
10
-34.163459443693029
20
-25.991357230368472
30
0
10
-33.838125576501866
20
-26.027808620199803
30
0
0
SPLINE
5
201
100
AcDbEntity
8
0
100
AcDbSpline
70
0
71
3
72
9
73
5
74
0
42
0.000000001
43
0.0000000001
44
0.0000000001
40
0
40
0
40
0
40
0
40
0.14236727238583322
40
0.28400923860431759
40
0.28400923860431759
40
0.28400923860431759
40
0.28400923860431759
10
-33.838125576501866
20
-26.027808620199803
30
0
10
-33.346957154691843
20
-25.974648460404019
30
0
10
-32.367122624135618
20
-25.868598971257605
30
0
10
-31.732667832985637
20
-25.114721983883804
30
0
10
-31.416250576501863
20
-24.738746120199803
30
0
0
SPLINE
5
202
100
AcDbEntity
8
0
100
AcDbSpline
70
0
71
3
72
9
73
5
74
0
42
0.000000001
43
0.0000000001
44
0.0000000001
40
0
40
0
40
0
40
0
40
0.27659182635495949
40
0.69666498451455527
40
0.69666498451455527
40
0.69666498451455527
40
0.69666498451455527
10
-31.416250576501863
20
-24.738746120199803
30
0
10
-31.060970484759398
20
-23.879601880930103
30
0
10
-30.166109624719155
20
-21.715634434623588
30
0
10
-30.17838191454846
20
-19.361413099701593
30
0
10
-30.185781826501863
20
-17.941871120199803
30
0
0
LINE
5
203
100
AcDbEntity
8
0
100
AcDbLine
10
-30.185781826501863
20
-17.941871120199803
30
0
11
-30.185781826501863
21
-10.988746120199803
31
0
0
LINE
5
204
100
AcDbEntity
8
0
100
AcDbLine
10
-30.185781826501863
20
-10.988746120199799
30
0
11
-22.197500576501863
21
-10.988746120199799
31
0
0
LINE
5
205
100
AcDbEntity
8
0
100
AcDbLine
10
-22.197500576501863
20
-10.988746120199799
30
0
11
-22.197500576501866
21
-31.730933620199799
31
0
0
SPLINE
5
206
100
AcDbEntity
8
0
100
AcDbSpline
70
0
71
3
72
9
73
5
74
0
42
0.000000001
43
0.0000000001
44
0.0000000001
40
0
40
0
40
0
40
0
40
0.44020612840992407
40
0.86419742775643105
40
0.86419742775643105
40
0.86419742775643105
40
0.86419742775643105
10
-39.541250576501866
20
-21.301246120199799
30
0
10
-39.664410176650051
20
-22.803659839295626
30
0
10
-39.906192838867923
20
-25.753146426768836
30
0
10
-41.810223024632748
20
-28.014197915193147
30
0
10
-42.744375576501866
20
-29.123511745199799
30
0
0
SPLINE
5
207
100
AcDbEntity
8
0
100
AcDbSpline
70
0
71
3
72
9
73
5
74
0
42
0.000000001
43
0.0000000001
44
0.0000000001
40
0
40
0
40
0
40
0
40
0.44153620064526433
40
0.93631890603843271
40
0.93631890603843271
40
0.93631890603843271
40
0.93631890603843271
10
-42.744375576501866
20
-29.123511745199799
30
0
10
-43.952333405360058
20
-30.019944131822545
30
0
10
-46.513921223536997
20
-31.920913045251176
30
0
10
-49.708562429762146
20
-32.103302721628168
30
0
10
-51.396719326501866
20
-32.199683620199799
30
0
0
SPLINE
5
208
100
AcDbEntity
8
0
100
AcDbSpline
70
0
71
3
72
9
73
5
74
0
42
0.000000001
43
0.0000000001
44
0.0000000001
40
0
40
0
40
0
40
0
40
0.55428525282091978
40
1.0329226835075735
40
1.0329226835075735
40
1.0329226835075735
40
1.0329226835075735
10
-51.396719326501866
20
-32.199683620199799
30
0
10
-53.300118695532618
20
-32.09846228662272
30
0
10
-56.847145021851034
20
-31.909834119132164
30
0
10
-59.555691196272832
20
-29.638771256116986
30
0
10
-60.810781826501866
20
-28.586402370199799
30
0
0
SPLINE
5
209
100
AcDbEntity
8
0
100
AcDbSpline
70
0
71
3
72
9
73
5
74
0
42
0.000000001
43
0.0000000001
44
0.0000000001
40
0
40
0
40
0
40
0
40
0.37717127046853094
40
0.77444440926331692
40
0.77444440926331692
40
0.77444440926331692
40
0.77444440926331692
10
-60.810781826501866
20
-28.586402370199799
30
0
10
-61.556898319040982
20
-27.542636567099557
30
0
10
-63.088896622061966
20
-25.39947600827152
30
0
10
-63.27427863545077
20
-22.76821387040215
30
0
10
-63.369375576501866
20
-21.418433620199799
30
0
0
SPLINE
5
210
100
AcDbEntity
8
0
100
AcDbSpline
70
0
71
3
72
9
73
5
74
0
42
0.000000001
43
0.0000000001
44
0.0000000001
40
0
40
0
40
0
40
0
40
0.44247509665375795
40
0.86482186633643132
40
0.86482186633643132
40
0.86482186633643132
40
0.86482186633643132
10
-63.369375576501866
20
-21.418433620199799
30
0
10
-63.249884361418665
20
-19.907904974415437
30
0
10
-63.016337623035966
20
-16.955562091208822
30
0
10
-61.121107307112226
20
-14.6853323464999
30
0
10
-60.195547451501866
20
-13.576636745199799
30
0
0
SPLINE
5
211
100
AcDbEntity
8
0
100
AcDbSpline
70
0
71
3
72
9
73
5
74
0
42
0.000000001
43
0.0000000001
44
0.0000000001
40
0
40
0
40
0
40
0
40
0.44223309608702877
40
0.9477974603609014
40
0.9477974603609014
40
0.9477974603609014
40
0.9477974603609014
10
-60.195547451501866
20
-13.576636745199799
30
0
10
-58.980832594854448
20
-12.686182612758952
30
0
10
-56.377446131064119
20
-10.777754291217825
30
0
10
-53.142044961675658
20
-10.609659508668026
30
0
10
-51.416250576501866
20
-10.519996120199799
30
0
0
SPLINE
5
212
100
AcDbEntity
8
0
100
AcDbSpline
70
0
71
3
72
9
73
5
74
0
42
0.000000001
43
0.0000000001
44
0.0000000001
40
0
40
0
40
0
40
0
40
0.45658239510575505
40
0.86070703761666445
40
0.86070703761666445
40
0.86070703761666445
40
0.86070703761666445
10
-51.416250576501866
20
-10.519996120199799
30
0
10
-49.865383015223458
20
-10.597487983569938
30
0
10
-46.941830467616938
20
-10.743568500198837
30
0
10
-44.484224065242358
20
-12.31923953463693
30
0
10
-43.330313076501866
20
-13.059058620199799
30
0
0
SPLINE
5
213
100
AcDbEntity
8
0
100
AcDbSpline
70
0
71
3
72
9
73
5
74
0
42
0.000000001
43
0.0000000001
44
0.0000000001
40
0
40
0
40
0
40
0
40
0.46122810125702463
40
0.9317985003997209
40
0.9317985003997209
40
0.9317985003997209
40
0.9317985003997209
10
-43.330313076501866
20
-13.059058620199799
30
0
10
-42.225201272773006
20
-14.196981258452066
30
0
10
-39.992593331751856
20
-16.495875460701619
30
0
10
-39.692700412958914
20
-19.688785097991953
30
0
10
-39.541250576501866
20
-21.301246120199799
30
0
0
SPLINE
5
214
100
AcDbEntity
8
0
100
AcDbSpline
70
0
71
3
72
9
73
5
74
0
42
0.000000001
43
0.0000000001
44
0.0000000001
40
0
40
0
40
0
40
0
40
0.24283942801115194
40
0.431616972915501
40
0.431616972915501
40
0.431616972915501
40
0.431616972915501
10
-47.510000576501866
20
-21.320777370199799
30
0
10
-47.528314301435742
20
-20.49434528264484
30
0
10
-47.560864676733146
20
-19.02546471875911
30
0
10
-48.306796934942113
20
-17.768831931764311
30
0
10
-48.633047451501866
20
-17.219214870199799
30
0
0
SPLINE
5
215
100
AcDbEntity
8
0
100
AcDbSpline
70
0
71
3
72
9
73
5
74
0
42
0.000000001
43
0.0000000001
44
0.0000000001
40
0
40
0
40
0
40
0
40
0.16117442200682655
40
0.32019695064862341
40
0.32019695064862341
40
0.32019695064862341
40
0.32019695064862341
10
-48.633047451501866
20
-17.219214870199799
30
0
10
-49.029476724199696
20
-16.831850111144057
30
0
10
-49.817042410399694
20
-16.06229242888892
30
0
10
-50.911675025083326
20
-15.947901133032861
30
0
10
-51.455313076501866
20
-15.891089870199799
30
0
0
SPLINE
5
216
100
AcDbEntity
8
0
100
AcDbSpline
70
0
71
3
72
9
73
5
74
0
42
0.000000001
43
0.0000000001
44
0.0000000001
40
0
40
0
40
0
40
0
40
0.15987706856064191
40
0.31937939119211711
40
0.31937939119211711
40
0.31937939119211711
40
0.31937939119211711
10
-51.455313076501866
20
-15.891089870199799
30
0
10
-52.002378596954472
20
-15.945358250986423
30
0
10
-53.095227336535174
20
-16.053767809484416
30
0
10
-53.883769993767089
20
-16.818010593076099
30
0
10
-54.277578701501866
20
-17.199683620199799
30
0
0
SPLINE
5
217
100
AcDbEntity
8
0
100
AcDbSpline
70
0
71
3
72
9
73
5
74
0
42
0.000000001
43
0.0000000001
44
0.0000000001
40
0
40
0
40
0
40
0
40
0.18944510216783669
40
0.44047735010167499
40
0.44047735010167499
40
0.44047735010167499
40
0.44047735010167499
10
-54.277578701501866
20
-17.199683620199799
30
0
10
-54.597860198095788
20
-17.754895433858707
30
0
10
-55.342544242665653
20
-19.045814151878435
30
0
10
-55.367099850892352
20
-20.544682809531448
30
0
10
-55.381094326501866
20
-21.398902370199799
30
0
0
SPLINE
5
218
100
AcDbEntity
8
0
100
AcDbSpline
70
0
71
3
72
9
73
5
74
0
42
0.000000001
43
0.0000000001
44
0.0000000001
40
0
40
0
40
0
40
0
40
0.23674906923620673
40
0.42279720101180052
40
0.42279720101180052
40
0.42279720101180052
40
0.42279720101180052
10
-55.381094326501866
20
-21.398902370199799
30
0
10
-55.361505668285332
20
-22.20456222402828
30
0
10
-55.326523356032752
20
-23.643346048037351
30
0
10
-54.591328851348294
20
-24.871941701857764
30
0
10
-54.267813076501866
20
-25.412574245199799
30
0
0
SPLINE
5
219
100
AcDbEntity
8
0
100
AcDbSpline
70
0
71
3
72
9
73
5
74
0
42
0.000000001
43
0.0000000001
44
0.0000000001
40
0
40
0
40
0
40
0
40
0.15899628915595027
40
0.31343313386027521
40
0.31343313386027521
40
0.31343313386027521
40
0.31343313386027521
10
-54.267813076501866
20
-25.412574245199799
30
0
10
-53.878832302224509
20
-25.797072138343793
30
0
10
-53.112025329933715
20
-26.555041901352485
30
0
10
-52.041421714058451
20
-26.672874408639068
30
0
10
-51.513906826501866
20
-26.730933620199799
30
0
0
SPLINE
5
220
100
AcDbEntity
8
0
100
AcDbSpline
70
0
71
3
72
9
73
5
74
0
42
0.000000001
43
0.0000000001
44
0.0000000001
40
0
40
0
40
0
40
0
40
0.16217793313330839
40
0.32514925238298414
40
0.32514925238298414
40
0.32514925238298414
40
0.32514925238298414
10
-51.513906826501866
20
-26.730933620199799
30
0
10
-50.959249460363111
20
-26.674646073503339
30
0
10
-49.84722130434703
20
-26.561795617382515
30
0
10
-49.044935029999067
20
-25.783260428725583
30
0
10
-48.642813076501866
20
-25.393042995199799
30
0
0
SPLINE
5
221
100
AcDbEntity
8
0
100
AcDbSpline
70
0
71
3
72
9
73
5
74
0
42
0.000000001
43
0.0000000001
44
0.0000000001
40
0
40
0
40
0
40
0
40
0.18888739050788222
40
0.42908814419717956
40
0.42908814419717956
40
0.42908814419717956
40
0.42908814419717956
10
-48.642813076501866
20
-25.393042995199799
30
0
10
-48.313615262850256
20
-24.844549339083496
30
0
10
-47.565789383347493
20
-23.59855761685127
30
0
10
-47.530022593143798
20
-22.138248769638849
30
0
10
-47.510000576501866
20
-21.320777370199799
30
0
0
ENDSEC
0
SECTION
2
OBJECTS
0
DICTIONARY
5
C
100
AcDbDictionary
3
ACAD_GROUP
350
D
3
ACAD_MLINESTYLE
350
17
0
DICTIONARY
5
D
100
AcDbDictionary
0
DICTIONARY
5
1A
330
C
100
AcDbDictionary
0
DICTIONARY
5
17
100
AcDbDictionary
0
ENDSEC
0
EOF
