0
SECTION
2
HEADER
9
$INSUNITS
70
4
9
$ACADVER
1
AC1014
9
$HANDSEED
5
FFFF
0
ENDSEC
0
SECTION
2
TABLES
0
TABLE
2
VPORT
5
8
100
AcDbSymbolTable
0
ENDTAB
0
TABLE
2
LTYPE
5
5
100
AcDbSymbolTable
0
LTYPE
5
14
100
AcDbSymbolTableRecord
100
AcDbLinetypeTableRecord
2
BYBLOCK
70
0
0
LTYPE
5
15
100
AcDbSymbolTableRecord
100
AcDbLinetypeTableRecord
2
BYLAYER
70
0
0
ENDTAB
0
TABLE
2
LAYER
5
2
100
AcDbSymbolTable
70
2
0
LAYER
5
50
100
AcDbSymbolTableRecord
100
AcDbLayerTableRecord
2
0
70
0
6
CONTINUOUS
0
ENDTAB
0
TABLE
2
STYLE
5
3
100
AcDbSymbolTable
70
1
0
STYLE
5
11
100
AcDbSymbolTableRecord
100
AcDbTextStyleTableRecord
2
STANDARD
70
0
0
ENDTAB
0
TABLE
2
VIEW
5
6
100
AcDbSymbolTable
70
0
0
ENDTAB
0
TABLE
2
UCS
5
7
100
AcDbSymbolTable
70
0
0
ENDTAB
0
TABLE
2
APPID
5
9
100
AcDbSymbolTable
70
2
0
APPID
5
12
100
AcDbSymbolTableRecord
100
AcDbRegAppTableRecord
2
ACAD
70
0
0
ENDTAB
0
TABLE
2
DIMSTYLE
5
A
100
AcDbSymbolTable
70
1
0
ENDTAB
0
TABLE
2
BLOCK_RECORD
5
1
100
AcDbSymbolTable
70
1
0
BLOCK_RECORD
5
1F
100
AcDbSymbolTableRecord
100
AcDbBlockTableRecord
2
*MODEL_SPACE
0
BLOCK_RECORD
5
1B
100
AcDbSymbolTableRecord
100
AcDbBlockTableRecord
2
*PAPER_SPACE
0
ENDTAB
0
ENDSEC
0
SECTION
2
BLOCKS
0
BLOCK
5
20
100
AcDbEntity
100
AcDbBlockBegin
2
*MODEL_SPACE
0
ENDBLK
5
21
100
AcDbEntity
100
AcDbBlockEnd
0
BLOCK
5
1C
100
AcDbEntity
100
AcDbBlockBegin
2
*PAPER_SPACE
0
ENDBLK
5
1D
100
AcDbEntity
100
AcDbBlockEnd
0
ENDSEC
0
SECTION
2
ENTITIES
0
CIRCLE
5
100
100
AcDbEntity
8
0
100
AcDbCircle
10
0
20
0
30
0
40
57.500000000000007
210
0
220
0
230
1
0
SPLINE
5
101
100
AcDbEntity
8
0
100
AcDbSpline
70
2
71
3
72
91
73
87
74
0
42
0.000000001
43
0.0000000001
44
0.0000000001
40
-20.916832429890771
40
-20.916832429890771
40
-20.916832429890771
40
-20.916832429890771
40
-19.860504350429103
40
-19.860504350429103
40
-18.505874150755314
40
-18.505874150755314
40
-17.096823962985393
40
-17.096823962985393
40
-16.198882731288219
40
-16.198882731288219
40
-15.502982203455193
40
-15.502982203455193
40
-14.80708167562217
40
-14.80708167562217
40
-13.710999208130236
40
-13.710999208130236
40
-13.321920659860591
40
-13.321920659860591
40
-12.264151441693196
40
-12.264151441693196
40
-11.206377251617814
40
-11.206377251617814
40
-10.72994391441323
40
-10.72994391441323
40
-9.6542414729466852
40
-9.6542414729466852
40
-8.5785340578535703
40
-8.5785340578535703
40
-8.1379671689658721
40
-8.1379671689658721
40
-6.8419812962421913
40
-6.8419812962421913
40
-5.5459904235185107
40
-5.5459904235185107
40
-3.8300520173346166
40
-3.8300520173346166
40
-2.9540136780711492
40
-2.9540136780711492
40
-2.0094794331585666
40
-2.0094794331585666
40
-1.4770068390355746
40
-1.4770068390355746
40
0
40
0
40
0
40
1.2959908727236789
40
1.2959908727236789
40
2.1506535780311453
40
2.1506535780311453
40
3.0053162833386118
40
3.0053162833386118
40
3.9912371710607952
40
3.9912371710607952
40
4.7716034250142769
40
4.7716034250142769
40
5.5519696789677582
40
5.5519696789677582
40
6.4553803601254947
40
6.4553803601254947
40
7.7759302363420746
40
7.7759302363420746
40
9.1916665283726715
40
9.1916665283726715
40
9.9501248289405098
40
9.9501248289405098
40
10.708583129508346
40
10.708583129508346
40
11.720980265177113
40
11.720980265177113
40
12.959883727236791
40
12.959883727236791
40
14.255874599960471
40
14.255874599960471
40
15.551860472684149
40
15.551860472684149
40
16.847851345407825
40
16.847851345407825
40
17.685794261589315
40
17.685794261589315
40
18.523737177770801
40
18.523737177770801
40
19.548764246751759
40
19.548764246751759
40
20.232798338321267
40
20.232798338321267
40
20.916832429890771
40
20.916832429890771
40
20.916832429890771
40
20.916832429890771
10
66.982625698949576
20
-0.054378449971405625
30
0
10
66.979760351526849
20
-3.5838739397294344
30
0
10
66.696190601057111
20
-7.1365436586620001
30
0
10
65.406618942852106
20
-15.146990277109078
30
0
10
64.217744175877385
20
-19.574104825036095
30
0
10
60.94516410258813
20
-28.185498475113178
30
0
10
58.792513627853651
20
-32.443781434636485
30
0
10
54.571012770803485
20
-38.959086610494843
30
0
10
52.756687127414715
20
-41.381533463783128
30
0
10
49.281151921742037
20
-45.425359595195907
30
0
10
47.680276278794878
20
-47.103091380091684
30
0
10
44.290096703562739
20
-50.304048520696
30
0
10
42.505167876993625
20
-51.821505201744543
30
0
10
37.712534709704819
20
-55.480096088615312
30
0
10
34.591712980607888
20
-57.476649846381171
30
0
10
30.195853013932428
20
-59.80454586830411
30
0
10
29.028767682727448
20
-60.379531075380086
30
0
10
24.64254905975271
20
-62.38470830909872
30
0
10
21.294845254259155
20
-63.607141877534957
30
0
10
14.435389065138612
20
-65.505408889796755
30
0
10
10.924671401203499
20
-66.180809979605797
30
0
10
5.8132370498295725
20
-66.749022880055065
30
0
10
4.2232307618189431
20
-66.86824000537213
30
0
10
-0.94654623846122055
20
-67.071873513166963
30
0
10
-4.5687561479742769
20
-66.9245823634933
30
0
10
-11.753123519693723
20
-66.042694266059613
30
0
10
-15.314063513304692
20
-65.308104090506092
30
0
10
-20.191446516684231
20
-63.883958709265599
30
0
10
-21.591818942958383
20
-63.424168223724344
30
0
10
-27.029288341259186
20
-61.439032116750752
30
0
10
-30.980957590761427
20
-59.547278104898886
30
0
10
-38.441394833866738
20
-55.026878640837666
30
0
10
-41.947547361152786
20
-52.399814026965899
30
0
10
-49.365199305470078
20
-45.634068976338824
30
0
10
-53.142374624847264
20
-41.180602610449064
30
0
10
-57.869186223401442
20
-33.860098031863927
30
0
10
-59.299211112509688
20
-31.285872376032636
30
0
10
-61.894540003848284
20
-25.800266312712683
30
0
10
-63.044624436672137
20
-22.847739969755708
30
0
10
-64.50642925678406
20
-18.131845091107909
30
0
10
-64.965212430279678
20
-16.411781656343788
30
0
10
-66.433214786849092
20
-9.8763612332554125
30
0
10
-66.982647771952102
20
-4.923356130118564
30
0
10
-66.982647771952102
20
8.2030085192335729e-15
30
0
10
-66.982647771952102
20
4.3199695757456045
30
0
10
-66.560816834855984
20
8.6807760023781952
30
0
10
-65.160427258053289
20
15.781853479868342
30
0
10
-64.421434413622322
20
18.56761716110514
30
0
10
-62.601406007119557
20
23.998782987513842
30
0
10
-61.52541099165682
20
26.636382047735239
30
0
10
-58.836191911460503
20
32.185198324211996
30
0
10
-57.167305283814009
20
35.065399695237943
30
0
10
-53.812624604590901
20
39.972151346763802
30
0
10
-52.203361972388464
20
42.05137992132159
30
0
10
-48.767093349166977
20
45.992174995113857
30
0
10
-46.946523406693082
20
47.849004439980817
30
0
10
-42.771091368840317
20
51.637777435208712
30
0
10
-40.381559824091966
20
53.528015171263313
30
0
10
-34.208342589425399
20
57.759978971553956
30
0
10
-30.290960358961321
20
59.904164764523564
30
0
10
-21.899058975263969
20
63.477369363429268
30
0
10
-17.314597193390636
20
64.881251483617973
30
0
10
-10.129520162206042
20
66.261468481615935
30
0
10
-7.5969243247501765
20
66.598938803584403
30
0
10
-2.5294145141757296
20
66.983087202479979
30
0
10
-0.0024446687012036339
20
67.03075036837933
30
0
10
5.921333686457154
20
66.806426029945825
30
0
10
9.3171651269947233
20
66.418925553920189
30
0
10
16.756964887980995
20
64.98663450567723
30
0
10
20.773887321315581
20
63.813595339825085
30
0
10
28.632333337540985
20
60.708539163158164
30
0
10
32.533011091469334
20
58.713724111565654
30
0
10
39.87224697498749
20
53.999092437820913
30
0
10
43.308235645410022
20
51.280930383132656
30
0
10
49.536651146891202
20
45.293017484243322
30
0
10
52.387953051564367
20
41.966660396007214
30
0
10
56.50423954384506
20
36.081831531041665
30
0
10
57.973989793996132
20
33.668663457063204
30
0
10
60.588866525213511
20
28.697589529596609
30
0
10
61.731475648322764
20
26.149090373879105
30
0
10
63.922354384607871
20
20.307426439265114
30
0
10
64.885812956600532
20
16.982482911930582
30
0
10
66.053970345385778
20
11.351071745899773
30
0
10
66.404793994060384
20
9.0740769272720385
30
0
10
66.869948956766393
20
4.5105946387484259
30
0
10
66.984481178662222
20
2.2311759038101244
30
0
10
66.982625698949576
20
-0.054378449971405625
30
0
0
CIRCLE
5
102
100
AcDbEntity
8
0
100
AcDbCircle
10
-62.5
20
0
30
0
40
2.5000007823110248
210
0
220
-0
230
1
0
ENDSEC
0
SECTION
2
OBJECTS
0
DICTIONARY
5
C
100
AcDbDictionary
3
ACAD_GROUP
350
D
3
ACAD_MLINESTYLE
350
17
0
DICTIONARY
5
D
100
AcDbDictionary
0
DICTIONARY
5
1A
330
C
100
AcDbDictionary
0
DICTIONARY
5
17
100
AcDbDictionary
0
ENDSEC
0
EOF
