0
SECTION
2
HEADER
9
$INSUNITS
70
4
9
$ACADVER
1
AC1014
9
$HANDSEED
5
FFFF
0
ENDSEC
0
SECTION
2
TABLES
0
TABLE
2
VPORT
5
8
100
AcDbSymbolTable
0
ENDTAB
0
TABLE
2
LTYPE
5
5
100
AcDbSymbolTable
0
LTYPE
5
14
100
AcDbSymbolTableRecord
100
AcDbLinetypeTableRecord
2
BYBLOCK
70
0
0
LTYPE
5
15
100
AcDbSymbolTableRecord
100
AcDbLinetypeTableRecord
2
BYLAYER
70
0
0
ENDTAB
0
TABLE
2
LAYER
5
2
100
AcDbSymbolTable
70
2
0
LAYER
5
50
100
AcDbSymbolTableRecord
100
AcDbLayerTableRecord
2
0
70
0
6
CONTINUOUS
0
ENDTAB
0
TABLE
2
STYLE
5
3
100
AcDbSymbolTable
70
1
0
STYLE
5
11
100
AcDbSymbolTableRecord
100
AcDbTextStyleTableRecord
2
STANDARD
70
0
0
ENDTAB
0
TABLE
2
VIEW
5
6
100
AcDbSymbolTable
70
0
0
ENDTAB
0
TABLE
2
UCS
5
7
100
AcDbSymbolTable
70
0
0
ENDTAB
0
TABLE
2
APPID
5
9
100
AcDbSymbolTable
70
2
0
APPID
5
12
100
AcDbSymbolTableRecord
100
AcDbRegAppTableRecord
2
ACAD
70
0
0
ENDTAB
0
TABLE
2
DIMSTYLE
5
A
100
AcDbSymbolTable
70
1
0
ENDTAB
0
TABLE
2
BLOCK_RECORD
5
1
100
AcDbSymbolTable
70
1
0
BLOCK_RECORD
5
1F
100
AcDbSymbolTableRecord
100
AcDbBlockTableRecord
2
*MODEL_SPACE
0
BLOCK_RECORD
5
1B
100
AcDbSymbolTableRecord
100
AcDbBlockTableRecord
2
*PAPER_SPACE
0
ENDTAB
0
ENDSEC
0
SECTION
2
BLOCKS
0
BLOCK
5
20
100
AcDbEntity
100
AcDbBlockBegin
2
*MODEL_SPACE
0
ENDBLK
5
21
100
AcDbEntity
100
AcDbBlockEnd
0
BLOCK
5
1C
100
AcDbEntity
100
AcDbBlockBegin
2
*PAPER_SPACE
0
ENDBLK
5
1D
100
AcDbEntity
100
AcDbBlockEnd
0
ENDSEC
0
SECTION
2
ENTITIES
0
LWPOLYLINE
5
100
100
AcDbEntity
8
0
100
AcDbPolyline
90
4
70
1
43
0.0
10
-185
20
115
10
0
20
115
10
0
20
0
10
-185
20
0
0
LWPOLYLINE
5
101
100
AcDbEntity
8
0
100
AcDbPolyline
90
4
70
1
43
0.0
10
3.7132088828402816
20
47.744186887477213
10
3.7132088828402843
20
61.069382199977213
10
13.713208882840286
20
61.069382199977213
10
13.713208882840284
20
47.744186887477213
0
LINE
5
102
100
AcDbEntity
8
0
100
AcDbLine
10
6.5066463828402785
20
58.657038449977208
30
0
11
5.7302791953402785
21
58.530085324977208
31
0
0
SPLINE
5
103
100
AcDbEntity
8
0
100
AcDbSpline
70
0
71
3
72
9
73
5
74
0
42
0.000000001
43
0.0000000001
44
0.0000000001
40
0
40
0
40
0
40
0
40
0.035641186700966131
40
0.066952162368703244
40
0.066952162368703244
40
0.066952162368703244
40
0.066952162368703244
10
5.7302791953402785
20
58.530085324977208
30
0
10
5.7075218532746907
20
58.646904155747919
30
0
10
5.6647720628752012
20
58.866348962429143
30
0
10
5.6561748052175878
20
59.089696629806255
30
0
10
5.6521541953402803
20
59.194147824977208
30
0
0
SPLINE
5
104
100
AcDbEntity
8
0
100
AcDbSpline
70
0
71
3
72
9
73
5
74
0
42
0.000000001
43
0.0000000001
44
0.0000000001
40
0
40
0
40
0
40
0
40
0.042648683931945826
40
0.07635622967276906
40
0.07635622967276906
40
0.07635622967276906
40
0.07635622967276906
10
5.6521541953402803
20
59.194147824977208
30
0
10
5.6549193366986099
20
59.33791228324462
30
0
10
5.6598699177991039
20
59.59530151503813
30
0
10
5.7595274501370248
20
59.831892126436259
30
0
10
5.8035213828402803
20
59.936335324977208
30
0
0
SPLINE
5
105
100
AcDbEntity
8
0
100
AcDbSpline
70
0
71
3
72
9
73
5
74
0
42
0.000000001
43
0.0000000001
44
0.0000000001
40
0
40
0
40
0
40
0
40
0.028484068353606295
40
0.055146373602852745
40
0.055146373602852745
40
0.055146373602852745
40
0.055146373602852745
10
5.8035213828402803
20
59.936335324977208
30
0
10
5.8565029465875558
20
60.017068978200655
30
0
10
5.9590775181761249
20
60.173372781004147
30
0
10
6.1224721570367606
20
60.263738724752216
30
0
10
6.2014706015902803
20
60.307429074977208
30
0
0
SPLINE
5
106
100
AcDbEntity
8
0
100
AcDbSpline
70
0
71
3
72
9
73
5
74
0
42
0.000000001
43
0.0000000001
44
0.0000000001
40
0
40
0
40
0
40
0
40
0.039107916179520918
40
0.10465367817872022
40
0.10465367817872022
40
0.10465367817872022
40
0.10465367817872022
10
6.2014706015902803
20
60.307429074977208
30
0
10
6.3285320682709507
20
60.338304382036291
30
0
10
6.6685514592779889
20
60.420927409911201
30
0
10
7.019355676788205
20
60.417191064587541
30
0
10
7.2390682578402803
20
60.414850949977208
30
0
0
LINE
5
107
100
AcDbEntity
8
0
100
AcDbLine
10
7.2390682578402803
20
60.414850949977208
30
0
11
10.22246669534028
21
60.414850949977208
31
0
0
LINE
5
108
100
AcDbEntity
8
0
100
AcDbLine
10
10.222466695340282
20
60.414850949977208
30
0
11
10.222466695340282
21
61.059382199977208
31
0
0
LINE
5
109
100
AcDbEntity
8
0
100
AcDbLine
10
10.222466695340282
20
61.059382199977208
30
0
11
10.906060445340282
21
61.059382199977208
31
0
0
LINE
5
110
100
AcDbEntity
8
0
100
AcDbLine
10
10.906060445340282
20
61.059382199977208
30
0
11
10.906060445340282
21
60.414850949977208
31
0
0
LINE
5
111
100
AcDbEntity
8
0
100
AcDbLine
10
10.906060445340282
20
60.414850949977208
30
0
11
12.190240132840282
21
60.414850949977208
31
0
0
LINE
5
112
100
AcDbEntity
8
0
100
AcDbLine
10
12.190240132840282
20
60.414850949977208
30
0
11
12.717583882840282
21
59.540827512477208
31
0
0
LINE
5
113
100
AcDbEntity
8
0
100
AcDbLine
10
12.717583882840282
20
59.540827512477208
30
0
11
10.906060445340282
21
59.540827512477208
31
0
0
LINE
5
114
100
AcDbEntity
8
0
100
AcDbLine
10
10.90606044534028
20
59.540827512477208
30
0
11
10.90606044534028
21
58.657038449977208
31
0
0
LINE
5
115
100
AcDbEntity
8
0
100
AcDbLine
10
10.90606044534028
20
58.657038449977208
30
0
11
10.22246669534028
21
58.657038449977208
31
0
0
LINE
5
116
100
AcDbEntity
8
0
100
AcDbLine
10
10.22246669534028
20
58.657038449977208
30
0
11
10.22246669534028
21
59.540827512477208
31
0
0
LINE
5
117
100
AcDbEntity
8
0
100
AcDbLine
10
10.22246669534028
20
59.540827512477208
30
0
11
7.1902401328402803
21
59.540827512477208
31
0
0
SPLINE
5
118
100
AcDbEntity
8
0
100
AcDbSpline
70
0
71
3
72
9
73
5
74
0
42
0.000000001
43
0.0000000001
44
0.0000000001
40
0
40
0
40
0
40
0
40
0.030905553815693699
40
0.048704916541159278
40
0.048704916541159278
40
0.048704916541159278
40
0.048704916541159278
10
7.1902401328402803
20
59.540827512477208
30
0
10
7.0866867693419326
20
59.542124021451734
30
0
10
6.9234941614106562
20
59.544167225782445
30
0
10
6.7648270741982754
20
59.50774969371011
30
0
10
6.7068416953402803
20
59.494440793727208
30
0
0
SPLINE
5
119
100
AcDbEntity
8
0
100
AcDbSpline
70
0
71
3
72
9
73
5
74
0
42
0.000000001
43
0.0000000001
44
0.0000000001
40
0
40
0
40
0
40
0
40
0.011412758211555275
40
0.023119422104390712
40
0.023119422104390712
40
0.023119422104390712
40
0.023119422104390712
10
6.7068416953402803
20
59.494440793727208
30
0
10
6.6727349282870927
20
59.476319525537569
30
0
10
6.6036430637700292
20
59.439610323381793
30
0
10
6.5587003047760994
20
59.375524077438257
30
0
10
6.5359432578402803
20
59.343073606227208
30
0
0
SPLINE
5
120
100
AcDbEntity
8
0
100
AcDbSpline
70
0
71
3
72
9
73
5
74
0
42
0.000000001
43
0.0000000001
44
0.0000000001
40
0
40
0
40
0
40
0
40
0.01361576555699154
40
0.03096145870991214
40
0.03096145870991214
40
0.03096145870991214
40
0.03096145870991214
10
6.5359432578402803
20
59.343073606227208
30
0
10
6.5174977761111696
20
59.301140498510073
30
0
10
6.4755538238192631
20
59.205787051233983
30
0
10
6.4735751933836374
20
59.101311499387919
30
0
10
6.4724666953402803
20
59.042780637477208
30
0
0
SPLINE
5
121
100
AcDbEntity
8
0
100
AcDbSpline
70
0
71
3
72
9
73
5
74
0
42
0.000000001
43
0.0000000001
44
0.0000000001
40
0
40
0
40
0
40
0
40
0.016989275803424617
40
0.038747260340797098
40
0.038747260340797098
40
0.038747260340797098
40
0.038747260340797098
10
6.4724666953402803
20
59.042780637477208
30
0
10
6.4744766991520075
20
58.986150636352804
30
0
10
6.4790608934331653
20
58.856995196058847
30
0
10
6.4967265047671567
20
58.728943882277292
30
0
10
6.5066463828402785
20
58.657038449977208
30
0
0
SPLINE
5
122
100
AcDbEntity
8
0
100
AcDbSpline
70
0
71
3
72
9
73
5
74
0
42
0.000000001
43
0.0000000001
44
0.0000000001
40
0
40
0
40
0
40
0
40
0.12695459218277796
40
0.2335063130482736
40
0.2335063130482736
40
0.2335063130482736
40
0.2335063130482736
10
8.3132870078402803
20
58.124811887477208
30
0
10
8.7497508911516348
20
58.10478226603415
30
0
10
9.5525345511868309
20
58.067941983422031
30
0
10
10.166785858830076
20
57.557123304542053
30
0
10
10.44707607034028
20
57.324030637477208
30
0
0
SPLINE
5
123
100
AcDbEntity
8
0
100
AcDbSpline
70
0
71
3
72
9
73
5
74
0
42
0.000000001
43
0.0000000001
44
0.0000000001
40
0
40
0
40
0
40
0
40
0.085882342584088334
40
0.17590934288190616
40
0.17590934288190616
40
0.17590934288190616
40
0.17590934288190616
10
10.44707607034028
20
57.324030637477208
30
0
10
10.61510015961996
20
57.085225165904561
30
0
10
10.959257133500584
20
56.596089537823403
30
0
10
11.001585239266834
20
55.998834726415872
30
0
10
11.02324794534028
20
55.693171262477208
30
0
0
SPLINE
5
124
100
AcDbEntity
8
0
100
AcDbSpline
70
0
71
3
72
9
73
5
74
0
42
0.000000001
43
0.0000000001
44
0.0000000001
40
0
40
0
40
0
40
0
40
0.098734302993412501
40
0.19248448180717631
40
0.19248448180717631
40
0.19248448180717631
40
0.19248448180717631
10
11.02324794534028
20
55.693171262477208
30
0
10
10.997197241289353
20
55.356109166647769
30
0
10
10.946410877098486
20
54.698999926134888
30
0
10
10.526892238338391
20
54.192040558981944
30
0
10
10.32256435159028
20
53.945124387477208
30
0
0
SPLINE
5
125
100
AcDbEntity
8
0
100
AcDbSpline
70
0
71
3
72
9
73
5
74
0
42
0.000000001
43
0.0000000001
44
0.0000000001
40
0
40
0
40
0
40
0
40
0.097737183412350645
40
0.20920464171329473
40
0.20920464171329473
40
0.20920464171329473
40
0.20920464171329473
10
10.32256435159028
20
53.945124387477208
30
0
10
10.054696842878974
20
53.747395649882847
30
0
10
9.4813313720309527
20
53.324160927327668
30
0
10
8.7670887013672498
20
53.28648680379645
30
0
10
8.3865291953402785
20
53.266413449977208
30
0
0
SPLINE
5
126
100
AcDbEntity
8
0
100
AcDbSpline
70
0
71
3
72
9
73
5
74
0
42
0.000000001
43
0.0000000001
44
0.0000000001
40
0
40
0
40
0
40
0
40
0.08973110434928265
40
0.16141522590792481
40
0.16141522590792481
40
0.16141522590792481
40
0.16141522590792481
10
8.3865291953402785
20
53.266413449977208
30
0
10
8.0845558300479521
20
53.272273395510481
30
0
10
7.5413428680509362
20
53.282814717150544
30
0
10
7.0361687844932472
20
53.479402325144399
30
0
10
6.8118221640902776
20
53.566706418727208
30
0
0
SPLINE
5
127
100
AcDbEntity
8
0
100
AcDbSpline
70
0
71
3
72
9
73
5
74
0
42
0.000000001
43
0.0000000001
44
0.0000000001
40
0
40
0
40
0
40
0
40
0.062900008218352316
40
0.12621818054523964
40
0.12621818054523964
40
0.12621818054523964
40
0.12621818054523964
10
6.8118221640902776
20
53.566706418727208
30
0
10
6.6310859683477661
20
53.678512258563984
30
0
10
6.2684120286863063
20
53.902867232088667
30
0
10
6.0368656378567307
20
54.261046762154102
30
0
10
5.9207088828402785
20
54.440729856227208
30
0
0
SPLINE
5
128
100
AcDbEntity
8
0
100
AcDbSpline
70
0
71
3
72
9
73
5
74
0
42
0.000000001
43
0.0000000001
44
0.0000000001
40
0
40
0
40
0
40
0
40
0.064547065708725454
40
0.13027433457640808
40
0.13027433457640808
40
0.13027433457640808
40
0.13027433457640808
10
5.9207088828402785
20
54.440729856227208
30
0
10
5.8281410470634345
20
54.637354624549332
30
0
10
5.6413128299075224
20
55.034199323423714
30
0
10
5.6160645679628285
20
55.472191305918926
30
0
10
5.6033260703402785
20
55.693171262477208
30
0
0
SPLINE
5
129
100
AcDbEntity
8
0
100
AcDbSpline
70
0
71
3
72
9
73
5
74
0
42
0.000000001
43
0.0000000001
44
0.0000000001
40
0
40
0
40
0
40
0
40
0.099985292217365379
40
0.19358236104067056
40
0.19358236104067056
40
0.19358236104067056
40
0.19358236104067056
10
5.6033260703402785
20
55.693171262477208
30
0
10
5.6283825754534398
20
56.034748131834007
30
0
10
5.6768946847013577
20
56.696077967258411
30
0
10
6.097975627807978
20
57.206591758087072
30
0
10
6.3015682578402785
20
57.453425168727208
30
0
0
SPLINE
5
130
100
AcDbEntity
8
0
100
AcDbSpline
70
0
71
3
72
9
73
5
74
0
42
0.000000001
43
0.0000000001
44
0.0000000001
40
0
40
0
40
0
40
0
40
0.098971869981717503
40
0.21614705104097037
40
0.21614705104097037
40
0.21614705104097037
40
0.21614705104097037
10
6.3015682578402785
20
57.453425168727208
30
0
10
6.5758579453724639
20
57.648880298187493
30
0
10
7.1748858014893848
20
58.075739463842105
30
0
10
7.9130965776018023
20
58.107561102588875
30
0
10
8.3132870078402803
20
58.124811887477208
30
0
0
SPLINE
5
131
100
AcDbEntity
8
0
100
AcDbSpline
70
0
71
3
72
9
73
5
74
0
42
0.000000001
43
0.0000000001
44
0.0000000001
40
0
40
0
40
0
40
0
40
0.087772141172430776
40
0.15788145337740167
40
0.15788145337740167
40
0.15788145337740167
40
0.15788145337740167
10
8.3132870078402803
20
57.221491574977208
30
0
10
8.0142661687182102
20
57.213018361722959
30
0
10
7.4763979563206417
20
57.197777042490145
30
0
10
7.022948095645134
20
56.913263292508844
30
0
10
6.8215877890902785
20
56.786921262477208
30
0
0
SPLINE
5
132
100
AcDbEntity
8
0
100
AcDbSpline
70
0
71
3
72
9
73
5
74
0
42
0.000000001
43
0.0000000001
44
0.0000000001
40
0
40
0
40
0
40
0
40
0.061560755719487471
40
0.12312320580889768
40
0.12312320580889768
40
0.12312320580889768
40
0.12312320580889768
10
6.8215877890902785
20
56.786921262477208
30
0
10
6.6770361940460177
20
56.632704255831207
30
0
10
6.3879290253858869
20
56.324265997941254
30
0
10
6.3466314114622957
20
55.903538104258828
30
0
10
6.3259823203402785
20
55.693171262477208
30
0
0
SPLINE
5
133
100
AcDbEntity
8
0
100
AcDbSpline
70
0
71
3
72
9
73
5
74
0
42
0.000000001
43
0.0000000001
44
0.0000000001
40
0
40
0
40
0
40
0
40
0.061216162268103495
40
0.12279056239249786
40
0.12279056239249786
40
0.12279056239249786
40
0.12279056239249786
10
6.3259823203402785
20
55.693171262477208
30
0
10
6.3469753896028589
20
55.484017654676535
30
0
10
6.3890843798693062
20
55.064486469173829
30
0
10
6.6787658777650272
20
54.757996265096402
30
0
10
6.8240291953402785
20
54.604304074977208
30
0
0
SPLINE
5
134
100
AcDbEntity
8
0
100
AcDbSpline
70
0
71
3
72
9
73
5
74
0
42
0.000000001
43
0.0000000001
44
0.0000000001
40
0
40
0
40
0
40
0
40
0.070812776799010296
40
0.16046276343501631
40
0.16046276343501631
40
0.16046276343501631
40
0.16046276343501631
10
6.8240291953402785
20
54.604304074977208
30
0
10
7.0281223445853485
20
54.478001040346527
30
0
10
7.4906003352306278
20
54.191796560262503
30
0
10
8.0372003562683112
20
54.177641914005036
30
0
10
8.3425838828402803
20
54.169733762477208
30
0
0
SPLINE
5
135
100
AcDbEntity
8
0
100
AcDbSpline
70
0
71
3
72
9
73
5
74
0
42
0.000000001
43
0.0000000001
44
0.0000000001
40
0
40
0
40
0
40
0
40
0.085236770288532895
40
0.15467691578047821
40
0.15467691578047821
40
0.15467691578047821
40
0.15467691578047821
10
8.3425838828402803
20
54.169733762477208
30
0
10
8.6329862269460484
20
54.179235065986042
30
0
10
9.1599716907271009
20
54.196476830516367
30
0
10
9.6017658143021194
20
54.479628363795818
30
0
10
9.8001034140902803
20
54.606745481227208
30
0
0
SPLINE
5
136
100
AcDbEntity
8
0
100
AcDbSpline
70
0
71
3
72
9
73
5
74
0
42
0.000000001
43
0.0000000001
44
0.0000000001
40
0
40
0
40
0
40
0
40
0.06151211346755029
40
0.12241706491823179
40
0.12241706491823179
40
0.12241706491823179
40
0.12241706491823179
10
9.8001034140902803
20
54.606745481227208
30
0
10
9.9446539881100797
20
54.760724412350314
30
0
10
10.232328333962046
20
55.067162408783005
30
0
10
10.274652005282388
20
55.485192757782954
30
0
10
10.29570888284028
20
55.693171262477208
30
0
0
SPLINE
5
137
100
AcDbEntity
8
0
100
AcDbSpline
70
0
71
3
72
9
73
5
74
0
42
0.000000001
43
0.0000000001
44
0.0000000001
40
0
40
0
40
0
40
0
40
0.061550195112934018
40
0.12300056501919671
40
0.12300056501919671
40
0.12300056501919671
40
0.12300056501919671
10
10.29570888284028
20
55.693171262477208
30
0
10
10.275227168797549
20
55.903480211520993
30
0
10
10.234296958987571
20
56.323757019961896
30
0
10
9.946384311522138
20
56.632616736770025
30
0
10
9.8025448203402803
20
56.786921262477208
30
0
0
SPLINE
5
138
100
AcDbEntity
8
0
100
AcDbSpline
70
0
71
3
72
9
73
5
74
0
42
0.000000001
43
0.0000000001
44
0.0000000001
40
0
40
0
40
0
40
0
40
0.069947247723306114
40
0.15765882342897683
40
0.15765882342897683
40
0.15765882342897683
40
0.15765882342897683
10
9.8025448203402803
20
56.786921262477208
30
0
10
9.6018057844594171
20
56.913257726612834
30
0
10
9.1493465206090878
20
57.198016011464752
30
0
10
8.6121498597054149
20
57.213099859132434
30
0
10
8.3132870078402803
20
57.221491574977208
30
0
0
LINE
5
139
100
AcDbEntity
8
0
100
AcDbLine
10
3.7332088828402776
20
52.236140012477208
30
0
11
10.906060445340277
21
52.236140012477208
31
0
0
LINE
5
140
100
AcDbEntity
8
0
100
AcDbLine
10
10.906060445340277
20
52.236140012477208
30
0
11
10.906060445340277
21
51.435358762477208
31
0
0
LINE
5
141
100
AcDbEntity
8
0
100
AcDbLine
10
10.906060445340277
20
51.435358762477208
30
0
11
10.232232320340277
21
51.435358762477208
31
0
0
SPLINE
5
142
100
AcDbEntity
8
0
100
AcDbSpline
70
0
71
3
72
9
73
5
74
0
42
0.000000001
43
0.0000000001
44
0.0000000001
40
0
40
0
40
0
40
0
40
0.045899289711690244
40
0.08778475184890383
40
0.08778475184890383
40
0.08778475184890383
40
0.08778475184890383
10
10.232232320340277
20
51.435358762477208
30
0
10
10.354140993758241
20
51.340869215058163
30
0
10
10.587297600569503
20
51.160153096691239
30
0
10
10.74855294675932
20
50.913430913588584
30
0
10
10.825494039090277
20
50.795710324977208
30
0
0
SPLINE
5
143
100
AcDbEntity
8
0
100
AcDbSpline
70
0
71
3
72
9
73
5
74
0
42
0.000000001
43
0.0000000001
44
0.0000000001
40
0
40
0
40
0
40
0
40
0.042125976701161597
40
0.089382365132846447
40
0.089382365132846447
40
0.089382365132846447
40
0.089382365132846447
10
10.825494039090277
20
50.795710324977208
30
0
10
10.88312091583134
20
50.666218413696306
30
0
10
11.005392894826024
20
50.391464112378458
30
0
10
11.017072792387275
20
50.090547105196457
30
0
10
11.023247945340277
20
49.931452512477208
30
0
0
SPLINE
5
144
100
AcDbEntity
8
0
100
AcDbSpline
70
0
71
3
72
9
73
5
74
0
42
0.000000001
43
0.0000000001
44
0.0000000001
40
0
40
0
40
0
40
0
40
0.063081421114697903
40
0.12347896961543328
40
0.12347896961543328
40
0.12347896961543328
40
0.12347896961543328
10
11.023247945340277
20
49.931452512477208
30
0
10
11.010285860190287
20
49.718536386040228
30
0
10
10.984913176916745
20
49.301762898024712
30
0
10
10.781128655536383
20
48.937668050929247
30
0
10
10.681451070340277
20
48.759577512477208
30
0
0
SPLINE
5
145
100
AcDbEntity
8
0
100
AcDbSpline
70
0
71
3
72
9
73
5
74
0
42
0.000000001
43
0.0000000001
44
0.0000000001
40
0
40
0
40
0
40
0
40
0.060683956630126414
40
0.1245729565073746
40
0.1245729565073746
40
0.1245729565073746
40
0.1245729565073746
10
10.681451070340277
20
48.759577512477208
30
0
10
10.553269638881114
20
48.599642018681749
30
0
10
10.290136831250564
20
48.271323985070289
30
0
10
9.9113577845462189
20
48.087336519723181
30
0
10
9.7170956015902767
20
47.992975949977208
30
0
0
SPLINE
5
146
100
AcDbEntity
8
0
100
AcDbSpline
70
0
71
3
72
9
73
5
74
0
42
0.000000001
43
0.0000000001
44
0.0000000001
40
0
40
0
40
0
40
0
40
0.068072261038563259
40
0.13959351131479597
40
0.13959351131479597
40
0.13959351131479597
40
0.13959351131479597
10
9.7170956015902767
20
47.992975949977208
30
0
10
9.5016767252675276
20
47.917508654230232
30
0
10
9.0599244330622639
20
47.762750392318182
30
0
10
8.5920610416742953
20
47.74386360341645
30
0
10
8.3523495078402767
20
47.734186887477208
30
0
0
SPLINE
5
147
100
AcDbEntity
8
0
100
AcDbSpline
70
0
71
3
72
9
73
5
74
0
42
0.000000001
43
0.0000000001
44
0.0000000001
40
0
40
0
40
0
40
0
40
0.075958981477905543
40
0.14695632824258009
40
0.14695632824258009
40
0.14695632824258009
40
0.14695632824258009
10
8.3523495078402767
20
47.734186887477208
30
0
10
8.0975139858466321
20
47.744397143216048
30
0
10
7.6044887781710884
20
47.764150721589587
30
0
10
7.1424591711937824
20
47.936544678482477
30
0
10
6.9192440390902767
20
48.019831418727208
30
0
0
SPLINE
5
148
100
AcDbEntity
8
0
100
AcDbSpline
70
0
71
3
72
9
73
5
74
0
42
0.000000001
43
0.0000000001
44
0.0000000001
40
0
40
0
40
0
40
0
40
0.06628878807501111
40
0.12964433866678438
40
0.12964433866678438
40
0.12964433866678438
40
0.12964433866678438
10
6.9192440390902767
20
48.019831418727208
30
0
10
6.7206040911511398
20
48.123692393326358
30
0
10
6.3321138889432991
20
48.326818559246895
30
0
10
6.0705194411635421
20
48.678195883897359
30
0
10
5.9426815390902776
20
48.849909543727208
30
0
0
SPLINE
5
149
100
AcDbEntity
8
0
100
AcDbSpline
70
0
71
3
72
9
73
5
74
0
42
0.000000001
43
0.0000000001
44
0.0000000001
40
0
40
0
40
0
40
0
40
0.061373391423637493
40
0.12063855957139885
40
0.12063855957139885
40
0.12063855957139885
40
0.12063855957139885
10
5.9426815390902776
20
48.849909543727208
30
0
10
5.8437116507509916
20
49.031917057813104
30
0
10
5.6491715659807191
20
49.389679987662177
30
0
10
5.6184288202521078
20
49.79554360706183
30
0
10
5.6033260703402776
20
49.994929074977208
30
0
0
SPLINE
5
150
100
AcDbEntity
8
0
100
AcDbSpline
70
0
71
3
72
9
73
5
74
0
42
0.000000001
43
0.0000000001
44
0.0000000001
40
0
40
0
40
0
40
0
40
0.041944299050086842
40
0.081634283706913016
40
0.081634283706913016
40
0.081634283706913016
40
0.081634283706913016
10
5.6033260703402776
20
49.994929074977208
30
0
10
5.6101668388097004
20
50.13594562954529
30
0
10
5.623480715704849
20
50.410399743303067
30
0
10
5.734766581089163
20
50.661446310475142
30
0
10
5.7888729453402776
20
50.783503293727208
30
0
0
SPLINE
5
151
100
AcDbEntity
8
0
100
AcDbSpline
70
0
71
3
72
9
73
5
74
0
42
0.000000001
43
0.0000000001
44
0.0000000001
40
0
40
0
40
0
40
0
40
0.038105543909824846
40
0.074488692190100986
40
0.074488692190100986
40
0.074488692190100986
40
0.074488692190100986
10
5.7888729453402776
20
50.783503293727208
30
0
10
5.8536522866029994
20
50.893776742350852
30
0
10
5.9802829003272233
20
51.109339207243266
30
0
10
6.1666124241929845
20
51.275885925887806
30
0
10
6.2576229453402776
20
51.357233762477208
30
0
0
LINE
5
152
100
AcDbEntity
8
0
100
AcDbLine
10
6.2576229453402776
20
51.357233762477208
30
0
11
3.7332088828402772
21
51.357233762477208
31
0
0
LINE
5
153
100
AcDbEntity
8
0
100
AcDbLine
10
3.7332088828402776
20
51.357233762477208
30
0
11
3.7332088828402776
21
52.236140012477208
31
0
0
SPLINE
5
154
100
AcDbEntity
8
0
100
AcDbSpline
70
0
71
3
72
9
73
5
74
0
42
0.000000001
43
0.0000000001
44
0.0000000001
40
0
40
0
40
0
40
0
40
0.08762386954717051
40
0.15569949612239203
40
0.15569949612239203
40
0.15569949612239203
40
0.15569949612239203
10
8.2839901328402785
20
51.440241574977208
30
0
10
7.9857736368719276
20
51.433661997905375
30
0
10
7.4558705591191066
20
51.421970699175048
30
0
10
7.0026549088238976
20
51.152699910143447
30
0
10
6.8044979453402776
20
51.034968137477208
30
0
0
SPLINE
5
155
100
AcDbEntity
8
0
100
AcDbSpline
70
0
71
3
72
9
73
5
74
0
42
0.000000001
43
0.0000000001
44
0.0000000001
40
0
40
0
40
0
40
0
40
0.05740225839624747
40
0.1120719081494113
40
0.1120719081494113
40
0.1120719081494113
40
0.1120719081494113
10
6.8044979453402776
20
51.034968137477208
30
0
10
6.664955187512895
20
50.895206010792464
30
0
10
6.3925125419606736
20
50.622335070481114
30
0
10
6.3477956220734457
20
50.240019620546185
30
0
10
6.3259823203402776
20
50.053522824977208
30
0
0
SPLINE
5
156
100
AcDbEntity
8
0
100
AcDbSpline
70
0
71
3
72
9
73
5
74
0
42
0.000000001
43
0.0000000001
44
0.0000000001
40
0
40
0
40
0
40
0
40
0.055775914831964521
40
0.11488524165966951
40
0.11488524165966951
40
0.11488524165966951
40
0.11488524165966951
10
6.3259823203402776
20
50.053522824977208
30
0
10
6.3489278569740559
20
49.863335829501089
30
0
10
6.3961902556119634
20
49.47159543399836
30
0
10
6.6770720030133459
20
49.193293373735905
30
0
10
6.8215877890902776
20
49.050104856227208
30
0
0
SPLINE
5
157
100
AcDbEntity
8
0
100
AcDbSpline
70
0
71
3
72
9
73
5
74
0
42
0.000000001
43
0.0000000001
44
0.0000000001
40
0
40
0
40
0
40
0
40
0.070505354566343312
40
0.16149896790234644
40
0.16149896790234644
40
0.16149896790234644
40
0.16149896790234644
10
6.8215877890902776
20
49.050104856227208
30
0
10
7.0271613582180734
20
48.928836602761791
30
0
10
7.4980464342005071
20
48.651060568665599
30
0
10
8.047597764252659
20
48.639268443053894
30
0
10
8.3572323203402767
20
48.632624387477208
30
0
0
SPLINE
5
158
100
AcDbEntity
8
0
100
AcDbSpline
70
0
71
3
72
9
73
5
74
0
42
0.000000001
43
0.0000000001
44
0.0000000001
40
0
40
0
40
0
40
0
40
0.087267233134507072
40
0.15618954663044404
40
0.15618954663044404
40
0.15618954663044404
40
0.15618954663044404
10
8.3572323203402767
20
48.632624387477208
30
0
10
8.6540117664588738
20
48.640038030010835
30
0
10
9.1851830374335304
20
48.653306852965542
30
0
10
9.6406304362816382
20
48.921841845560138
30
0
10
9.8416073203402767
20
49.040339231227208
30
0
0
SPLINE
5
159
100
AcDbEntity
8
0
100
AcDbSpline
70
0
71
3
72
9
73
5
74
0
42
0.000000001
43
0.0000000001
44
0.0000000001
40
0
40
0
40
0
40
0
40
0.058048412615818036
40
0.11214543171699977
40
0.11214543171699977
40
0.11214543171699977
40
0.11214543171699977
10
9.8416073203402767
20
49.040339231227208
30
0
10
9.9853939543835519
20
49.179304207203181
30
0
10
10.263179571996176
20
49.447774722107873
30
0
10
10.311474664465035
20
49.830054947578653
30
0
10
10.334771382840277
20
50.014460324977208
30
0
0
SPLINE
5
160
100
AcDbEntity
8
0
100
AcDbSpline
70
0
71
3
72
9
73
5
74
0
42
0.000000001
43
0.0000000001
44
0.0000000001
40
0
40
0
40
0
40
0
40
0.054520283227501118
40
0.11540712695710481
40
0.11540712695710481
40
0.11540712695710481
40
0.11540712695710481
10
10.334771382840277
20
50.014460324977208
30
0
10
10.308452795782269
20
50.199769962434281
30
0
10
10.252742290661425
20
50.59202861536798
30
0
10
9.9628246640353524
20
50.864409258811484
30
0
10
9.8098690390902785
20
51.008112668727208
30
0
0
SPLINE
5
161
100
AcDbEntity
8
0
100
AcDbSpline
70
0
71
3
72
9
73
5
74
0
42
0.000000001
43
0.0000000001
44
0.0000000001
40
0
40
0
40
0
40
0
40
0.072088333399310825
40
0.16094332141465217
40
0.16094332141465217
40
0.16094332141465217
40
0.16094332141465217
10
9.8098690390902785
20
51.008112668727208
30
0
10
9.6005748916623439
20
51.133796317830821
30
0
10
9.1333079477434875
20
51.414395729419425
30
0
10
8.5860983594197293
20
51.431048028781781
30
0
10
8.2839901328402785
20
51.440241574977208
30
0
0
ENDSEC
0
SECTION
2
OBJECTS
0
DICTIONARY
5
C
100
AcDbDictionary
3
ACAD_GROUP
350
D
3
ACAD_MLINESTYLE
350
17
0
DICTIONARY
5
D
100
AcDbDictionary
0
DICTIONARY
5
1A
330
C
100
AcDbDictionary
0
DICTIONARY
5
17
100
AcDbDictionary
0
ENDSEC
0
EOF
