                                                                        S      1
,,14Hcrossfader1 v8,14Hcrossfader1 v8,7Hunknown,7Hunknown,32,38,7,99,15,G      1
,1.,2,2HMM,1,0.08,15H20211012.212145,0.01,10000.,7Hunknown,7Hunknown,11,G      2
0,15H20180728.165408;                                                   G      3
     408       1                                                00000001D      1
     408       0               1       0                               0D      2
     308       2                                                00010200D      3
     308       0               1       0                               0D      4
     186       3                                                00010000D      5
     186            -259       1       0                               0D      6
     514       4                                                00010000D      7
     514                       2       1                               0D      8
     510       6                                                00010000D      9
     510            -259       1       1                               0D     10
     510       7                                                00010000D     11
     510            -259       1       1                               0D     12
     510       8                                                00010000D     13
     510            -259       1       1                               0D     14
     510       9                                                00010000D     15
     510            -259       1       1                               0D     16
     510      10                                                00010000D     17
     510            -259       1       1                               0D     18
     510      11                                                00010000D     19
     510            -259       1       1                               0D     20
     510      12                                                00010000D     21
     510            -259       1       1                               0D     22
     510      13                                                00010000D     23
     510            -259       1       1                               0D     24
     510      14                                                00010000D     25
     510            -259       1       1                               0D     26
     510      15                                                00010000D     27
     510            -259       1       1                               0D     28
     510      16                                                00010000D     29
     510            -259       1       1                               0D     30
     510      17                                                00010000D     31
     510            -259       1       1                               0D     32
     510      18                                                00010000D     33
     510            -259       1       1                               0D     34
     510      19                                                00010000D     35
     510            -259       1       1                               0D     36
     510      20                                                00010000D     37
     510            -259       1       1                               0D     38
     510      21                                                00010000D     39
     510            -259       1       1                               0D     40
     510      22                                                00010000D     41
     510            -259       1       1                               0D     42
     510      23                                                00010000D     43
     510            -259       1       1                               0D     44
     510      24                                                00010000D     45
     510            -259       1       1                               0D     46
     510      25                                                00010000D     47
     510            -259       1       1                               0D     48
     508      26                                                00010000D     49
     508                       1       1                               0D     50
     508      27                                                00010000D     51
     508                       1       1                               0D     52
     508      28                                                00010000D     53
     508                       1       1                               0D     54
     508      29                                                00010000D     55
     508                       1       1                               0D     56
     508      30                                                00010000D     57
     508                       1       1                               0D     58
     508      31                                                00010000D     59
     508                       1       1                               0D     60
     508      32                                                00010000D     61
     508                       1       1                               0D     62
     508      33                                                00010000D     63
     508                       1       1                               0D     64
     508      34                                                00010000D     65
     508                       1       1                               0D     66
     508      35                                                00010000D     67
     508                       1       1                               0D     68
     508      36                                                00010000D     69
     508                       2       1                               0D     70
     508      38                                                00010000D     71
     508                       1       1                               0D     72
     508      39                                                00010000D     73
     508                       1       1                               0D     74
     508      40                                                00010000D     75
     508                       1       1                               0D     76
     508      41                                                00010000D     77
     508                       1       1                               0D     78
     508      42                                                00010000D     79
     508                       2       1                               0D     80
     508      44                                                00010000D     81
     508                       1       1                               0D     82
     508      45                                                00010000D     83
     508                       1       1                               0D     84
     508      46                                                00010000D     85
     508                       1       1                               0D     86
     508      47                                                00010000D     87
     508                       1       1                               0D     88
     508      48                                                00010000D     89
     508                       1       1                               0D     90
     508      49                                                00010000D     91
     508                       1       1                               0D     92
     508      50                                                00010000D     93
     508                       1       1                               0D     94
     508      51                                                00010000D     95
     508                       1       1                               0D     96
     508      52                                                00010000D     97
     508                       1       1                               0D     98
     508      53                                                00010000D     99
     508                       3       1                               0D    100
     126      56                                                00010000D    101
     126       0              11       0                               0D    102
     126      67                                                00010000D    103
     126       0               3       0                               0D    104
     126      70                                                00010000D    105
     126       0              11       0                               0D    106
     126      81                                                00010000D    107
     126       0               8       0                               0D    108
     126      89                                                00010000D    109
     126       0               2       0                               0D    110
     126      91                                                00010000D    111
     126       0               8       0                               0D    112
     126      99                                                00010000D    113
     126       0               3       0                               0D    114
     126     102                                                00010000D    115
     126       0               3       0                               0D    116
     126     105                                                00010000D    117
     126       0               3       0                               0D    118
     126     108                                                00010000D    119
     126       0               4       0                               0D    120
     126     112                                                00010000D    121
     126       0               3       0                               0D    122
     126     115                                                00010000D    123
     126       0               3       0                               0D    124
     126     118                                                00010000D    125
     126       0               3       0                               0D    126
     126     121                                                00010000D    127
     126       0               4       0                               0D    128
     126     125                                                00010000D    129
     126       0               3       0                               0D    130
     126     128                                                00010000D    131
     126       0               2       0                               0D    132
     126     130                                                00010000D    133
     126       0               2       0                               0D    134
     126     132                                                00010000D    135
     126       0               2       0                               0D    136
     126     134                                                00010000D    137
     126       0               2       0                               0D    138
     126     136                                                00010000D    139
     126       0               3       0                               0D    140
     126     139                                                00010000D    141
     126       0               2       0                               0D    142
     126     141                                                00010000D    143
     126       0               3       0                               0D    144
     126     144                                                00010000D    145
     126       0               4       0                               0D    146
     126     148                                                00010000D    147
     126       0               2       0                               0D    148
     126     150                                                00010000D    149
     126       0               4       0                               0D    150
     126     154                                                00010000D    151
     126       0               3       0                               0D    152
     126     157                                                00010000D    153
     126       0               3       0                               0D    154
     126     160                                                00010000D    155
     126       0               3       0                               0D    156
     126     163                                                00010000D    157
     126       0               2       0                               0D    158
     126     165                                                00010000D    159
     126       0               3       0                               0D    160
     126     168                                                00010000D    161
     126       0               2       0                               0D    162
     126     170                                                00010000D    163
     126       0               2       0                               0D    164
     126     172                                                00010000D    165
     126       0               3       0                               0D    166
     126     175                                                00010000D    167
     126       0               4       0                               0D    168
     126     179                                                00010000D    169
     126       0               2       0                               0D    170
     126     181                                                00010000D    171
     126       0               2       0                               0D    172
     126     183                                                00010000D    173
     126       0               4       0                               0D    174
     126     187                                                00010000D    175
     126       0               2       0                               0D    176
     126     189                                                00010000D    177
     126       0               4       0                               0D    178
     126     193                                                00010000D    179
     126       0               3       0                               0D    180
     126     196                                                00010000D    181
     126       0               4       0                               0D    182
     126     200                                                00010000D    183
     126       0               2       0                               0D    184
     126     202                                                00010000D    185
     126       0               4       0                               0D    186
     126     206                                                00010000D    187
     126       0               2       0                               0D    188
     126     208                                                00010000D    189
     126       0               3       0                               0D    190
     126     211                                                00010000D    191
     126       0               3       0                               0D    192
     126     214                                                00010000D    193
     126       0               4       0                               0D    194
     126     218                                                00010000D    195
     126       0               3       0                               0D    196
     126     221                                                00010000D    197
     126       0               3       0                               0D    198
     126     224                                                00010000D    199
     126       0               4       0                               0D    200
     126     228                                                00010000D    201
     126       0               3       0                               0D    202
     126     231                                                00010000D    203
     126       0               2       0                               0D    204
     126     233                                                00010000D    205
     126       0               4       0                               0D    206
     126     237                                                00010000D    207
     126       0               3       0                               0D    208
     128     240                                                00010000D    209
     128       0    -259      17       0                               0D    210
     128     257                                                00010000D    211
     128       0    -259      12       0                               0D    212
     128     269                                                00010000D    213
     128       0    -259       5       0                               0D    214
     128     274                                                00010000D    215
     128       0    -259       6       0                               0D    216
     128     280                                                00010000D    217
     128       0    -259       3       0                               0D    218
     128     283                                                00010000D    219
     128       0    -259       4       0                               0D    220
     128     287                                                00010000D    221
     128       0    -259       6       0                               0D    222
     128     293                                                00010000D    223
     128       0    -259       6       0                               0D    224
     128     299                                                00010000D    225
     128       0    -259       3       0                               0D    226
     128     302                                                00010000D    227
     128       0    -259       3       0                               0D    228
     128     305                                                00010000D    229
     128       0    -259       5       0                               0D    230
     128     310                                                00010000D    231
     128       0    -259       6       0                               0D    232
     128     316                                                00010000D    233
     128       0    -259       5       0                               0D    234
     128     321                                                00010000D    235
     128       0    -259       4       0                               0D    236
     128     325                                                00010000D    237
     128       0    -259       5       0                               0D    238
     128     330                                                00010000D    239
     128       0    -259       6       0                               0D    240
     128     336                                                00010000D    241
     128       0    -259       5       0                               0D    242
     128     341                                                00010000D    243
     128       0    -259       5       0                               0D    244
     128     346                                                00010000D    245
     128       0    -259       7       0                               0D    246
     128     353                                                00010000D    247
     128       0    -259       7       0                               0D    248
     502     360                                                00010000D    249
     502                      16       1                               0D    250
     504     376                                                00010001D    251
     504                      16       1                               0D    252
     406     392                                                00000000D    253
     406                       1      15                               0D    254
     406     393                                                00000000D    255
     406                       1      15                               0D    256
     314     394                                                00000200D    257
     314                       2       0                               0D    258
     314     396                                                00000200D    259
     314                       2       0                               0D    260
408,3,0.,0.,0.,1.,0,1,255;                                             1P      1
308,0,10HComponent2,1,5;                                               3P      2
186,7,1,0,0,1,253;                                                     5P      3
514,20,9,1,11,1,13,1,15,1,17,1,19,1,21,1,23,1,25,1,27,1,29,1,31,       7P      4
1,33,1,35,1,37,1,39,1,41,1,43,1,45,1,47,1;                             7P      5
510,209,1,1,49;                                                        9P      6
510,211,1,1,51;                                                       11P      7
510,213,2,1,53,55;                                                    13P      8
510,215,2,1,57,59;                                                    15P      9
510,217,1,1,61;                                                       17P     10
510,219,1,1,63;                                                       19P     11
510,221,1,1,65;                                                       21P     12
510,223,1,1,67;                                                       23P     13
510,225,1,1,69;                                                       25P     14
510,227,1,1,71;                                                       27P     15
510,229,1,1,73;                                                       29P     16
510,231,1,1,75;                                                       31P     17
510,233,1,1,77;                                                       33P     18
510,235,1,1,79;                                                       35P     19
510,237,1,1,81;                                                       37P     20
510,239,1,1,83;                                                       39P     21
510,241,1,1,85;                                                       41P     22
510,243,1,1,87;                                                       43P     23
510,245,4,1,89,91,93,95;                                              45P     24
510,247,2,1,97,99;                                                    47P     25
508,4,0,251,1,0,0,0,251,2,1,0,0,251,3,0,0,0,251,2,0,0;                49P     26
508,4,0,251,4,0,0,0,251,5,1,0,0,251,6,0,0,0,251,5,0,0;                51P     27
508,4,0,251,7,0,0,0,251,8,0,0,0,251,9,0,0,0,251,10,0,0;               53P     28
508,1,0,251,4,1,0;                                                    55P     29
508,4,0,251,11,0,0,0,251,12,0,0,0,251,13,0,0,0,251,14,0,0;            57P     30
508,1,0,251,1,1,0;                                                    59P     31
508,4,0,251,15,1,0,0,251,16,1,0,0,251,17,0,0,0,251,18,0,0;            61P     32
508,4,0,251,12,1,0,0,251,19,0,0,0,251,20,1,0,0,251,21,1,0;            63P     33
508,4,0,251,11,1,0,0,251,22,0,0,0,251,23,1,0,0,251,19,1,0;            65P     34
508,4,0,251,14,1,0,0,251,24,0,0,0,251,25,1,0,0,251,22,1,0;            67P     35
508,8,0,251,26,1,0,0,251,24,1,0,0,251,13,1,0,0,251,21,0,0,0,251,      69P     36
27,1,0,0,251,18,1,0,0,251,28,0,0,0,251,29,0,0;                        69P     37
508,4,0,251,30,1,0,0,251,29,1,0,0,251,31,0,0,0,251,32,0,0;            71P     38
508,4,0,251,8,1,0,0,251,33,0,0,0,251,34,1,0,0,251,35,1,0;             73P     39
508,4,0,251,7,1,0,0,251,36,0,0,0,251,37,1,0,0,251,33,1,0;             75P     40
508,4,0,251,10,1,0,0,251,38,0,0,0,251,39,1,0,0,251,36,1,0;            77P     41
508,8,0,251,40,1,0,0,251,38,1,0,0,251,9,1,0,0,251,35,0,0,0,251,       79P     42
41,1,0,0,251,32,1,0,0,251,42,0,0,0,251,16,0,0;                        79P     43
508,4,0,251,43,0,0,0,251,44,1,0,0,251,45,0,0,0,251,46,0,0;            81P     44
508,4,0,251,47,0,0,0,251,46,1,0,0,251,48,0,0,0,251,49,0,0;            83P     45
508,4,0,251,50,0,0,0,251,49,1,0,0,251,51,0,0,0,251,52,0,0;            85P     46
508,4,0,251,53,0,0,0,251,52,1,0,0,251,54,0,0,0,251,44,0,0;            87P     47
508,4,0,251,54,1,0,0,251,51,1,0,0,251,48,1,0,0,251,45,1,0;            89P     48
508,1,0,251,3,1,0;                                                    91P     49
508,1,0,251,6,1,0;                                                    93P     50
508,4,0,251,42,1,0,0,251,31,1,0,0,251,28,1,0,0,251,17,1,0;            95P     51
508,4,0,251,53,1,0,0,251,43,1,0,0,251,47,1,0,0,251,50,1,0;            97P     52
508,12,0,251,40,0,0,0,251,15,0,0,0,251,27,0,0,0,251,20,0,0,0,         99P     53
251,23,0,0,0,251,25,0,0,0,251,26,0,0,0,251,30,0,0,0,251,41,0,0,       99P     54
0,251,34,0,0,0,251,37,0,0,0,251,39,0,0;                               99P     55
126,8,2,0,1,0,0,-3.14159265358979,-3.14159265358979,                 101P     56
-3.14159265358979,-1.5707963267949,-1.5707963267949,0.,0.,           101P     57
1.5707963267949,1.5707963267949,3.14159265358979,                    101P     58
3.14159265358979,3.14159265358979,1.,0.707106781186548,1.,           101P     59
0.70710678118655,1.,0.70710678118655,1.,0.707106781186548,1.,        101P     60
7.50000008940697,25.,17.5,7.50000008940697,25.,19.,                  101P     61
9.00000008940697,25.,19.,10.500000089407,25.,19.,                    101P     62
10.500000089407,25.,17.5,10.500000089407,25.,16.,                    101P     63
9.00000008940697,25.,16.,7.50000008940697,25.,16.,                   101P     64
7.50000008940697,25.,17.5,-3.14159265358979,3.14159265358979,0.,     101P     65
0.,0.;                                                               101P     66
126,1,1,0,0,1,0,16.6666666666667,16.6666666666667,18.,18.,1.,1.,     103P     67
7.50000008940697,25.,17.5,7.50000008940697,27.,17.5,                 103P     68
16.6666666666667,18.,0.,0.,0.;                                       103P     69
126,8,2,0,1,0,0,-3.14159265358979,-3.14159265358979,                 105P     70
-3.14159265358979,-1.5707963267949,-1.5707963267949,0.,0.,           105P     71
1.5707963267949,1.5707963267949,3.14159265358979,                    105P     72
3.14159265358979,3.14159265358979,1.,0.707106781186548,1.,           105P     73
0.70710678118655,1.,0.70710678118655,1.,0.707106781186548,1.,        105P     74
7.50000008940697,27.,17.5,7.50000008940697,27.,16.,                  105P     75
9.00000008940697,27.,16.,10.500000089407,27.,16.,                    105P     76
10.500000089407,27.,17.5,10.500000089407,27.,19.,                    105P     77
9.00000008940697,27.,19.,7.50000008940697,27.,19.,                   105P     78
7.50000008940697,27.,17.5,-3.14159265358979,3.14159265358979,0.,     105P     79
0.,0.;                                                               105P     80
126,8,2,0,1,0,0,-3.14159265358979,-3.14159265358979,                 107P     81
-3.14159265358979,-1.5707963267949,-1.5707963267949,0.,0.,           107P     82
1.5707963267949,1.5707963267949,3.14159265358979,                    107P     83
3.14159265358979,3.14159265358979,1.,0.707106781186555,1.,           107P     84
0.707106781186555,1.,0.707106781186555,1.,0.707106781186555,1.,      107P     85
59.5,25.,17.5,59.5,25.,19.,61.,25.,19.,62.5,25.,19.,62.5,25.,        107P     86
17.5,62.5,25.,16.,61.,25.,16.,59.5,25.,16.,59.5,25.,17.5,            107P     87
-3.14159265358979,3.14159265358979,0.,0.,0.;                         107P     88
126,1,1,0,0,1,0,16.6666666666666,16.6666666666666,18.,18.,1.,1.,     109P     89
59.5,25.,17.5,59.5,27.,17.5,16.6666666666666,18.,0.,0.,0.;           109P     90
126,8,2,0,1,0,0,-3.14159265358979,-3.14159265358979,                 111P     91
-3.14159265358979,-1.5707963267949,-1.5707963267949,0.,0.,           111P     92
1.5707963267949,1.5707963267949,3.14159265358979,                    111P     93
3.14159265358979,3.14159265358979,1.,0.707106781186555,1.,           111P     94
0.707106781186555,1.,0.707106781186555,1.,0.707106781186555,1.,      111P     95
59.5,27.,17.5,59.5,27.,16.,61.,27.,16.,62.5,27.,16.,62.5,27.,        111P     96
17.5,62.5,27.,19.,61.,27.,19.,59.5,27.,19.,59.5,27.,17.5,            111P     97
-3.14159265358979,3.14159265358979,0.,0.,0.;                         111P     98
126,1,1,0,0,1,0,-3.54000005215406,-3.54000005215406,0.,0.,1.,1.,     113P     99
64.2000009536743,25.,35.2000005215406,64.2000009536743,25.,-0.2,     113P    100
-3.54000005215406,0.,0.,0.,0.;                                       113P    101
126,1,1,0,0,1,0,-0.62,-0.62,0.,0.,1.,1.,58.0000009536743,25.,        115P    102
35.2000005215406,64.2000009536743,25.,35.2000005215406,-0.62,0.,     115P    103
0.,0.,0.;                                                            115P    104
126,1,1,0,0,1,0,-3.54000005215406,-3.54000005215406,0.,0.,1.,1.,     117P    105
58.0000009536743,25.,-0.2,58.0000009536743,25.,35.2000005215406,     117P    106
-3.54000005215406,0.,0.,0.,0.;                                       117P    107
126,1,1,0,0,1,0,-0.310000047683715,-0.310000047683715,               119P    108
0.309999952316285,0.309999952316285,1.,1.,64.2000009536743,25.,      119P    109
-0.2,58.0000009536743,25.,-0.2,-0.310000047683715,                   119P    110
0.309999952316285,0.,0.,0.;                                          119P    111
126,1,1,0,0,1,0,-3.54000005170703,-3.54000005170703,0.,0.,1.,1.,     121P    112
5.80000008940697,25.,-0.199999995529652,5.80000008940697,25.,        121P    113
35.2000005215406,-3.54000005170703,0.,0.,0.,0.;                      121P    114
126,1,1,0,0,1,0,-0.62,-0.62,2.22044604925031D-16,                    123P    115
2.22044604925031D-16,1.,1.,12.000000089407,25.,-0.2,                 123P    116
5.80000008940697,25.,-0.2,-0.62,2.22044604925031D-16,0.,0.,0.;       123P    117
126,1,1,0,0,1,0,-3.54000005170703,-3.54000005170703,0.,0.,1.,1.,     125P    118
12.000000089407,25.,35.2000005215406,12.000000089407,25.,            125P    119
-0.199999995529653,-3.54000005170703,0.,0.,0.,0.;                    125P    120
126,1,1,0,0,1,0,-0.309999995529652,-0.309999995529652,               127P    121
0.310000004470349,0.310000004470349,1.,1.,5.80000008940697,25.,      127P    122
35.2000005215406,12.000000089407,25.,35.2000005215406,               127P    123
-0.309999995529652,0.310000004470349,0.,0.,0.;                       127P    124
126,1,1,0,0,1,0,-1.15000002607703,-1.15000002607703,                 129P    125
3.44999997392297,3.44999997392297,1.,1.,12.,10.,-1.,58.,10.,-1.,     129P    126
-1.15000002607703,3.44999997392297,0.,0.,0.;                         129P    127
126,1,1,0,0,1,0,1.,1.,2.7,2.7,1.,1.,58.,10.,-1.,58.,27.,-1.,1.,      131P    128
2.7,0.,0.,0.;                                                        131P    129
126,1,1,0,0,1,0,-4.6,-4.6,0.,0.,1.,1.,12.,27.,-1.,58.,27.,-1.,       133P    130
-4.6,0.,0.,0.,0.;                                                    133P    131
126,1,1,0,0,1,0,1.,1.,2.7,2.7,1.,1.,12.,10.,-1.,12.,27.,-1.,1.,      135P    132
2.7,0.,0.,0.;                                                        135P    133
126,1,1,0,0,1,0,1.,1.,2.5,2.5,1.,1.,5.80000008940697,10.,-0.2,       137P    134
5.80000008940697,25.,-0.2,1.,2.5,0.,0.,0.;                           137P    135
126,1,1,0,0,1,0,-1.46000002160668,-1.46000002160668,                 139P    136
-0.84000003054738,-0.84000003054738,1.,1.,5.80000008940697,10.,      139P    137
-0.2,12.,10.,-0.2,-1.46000002160668,-0.84000003054738,0.,0.,0.;      139P    138
126,1,1,0,0,1,0,1.,1.,2.5,2.5,1.,1.,12.,10.,-0.2,12.,25.,-0.2,       141P    139
1.,2.5,0.,0.,0.;                                                     141P    140
126,1,1,0,0,1,0,1.,1.,2.5,2.5,1.,1.,5.80000008940697,10.,            143P    141
35.2000005215406,5.80000008940697,25.,35.2000005215406,1.,2.5,       143P    142
0.,0.,0.;                                                            143P    143
126,1,1,0,0,1,0,-0.885000013038516,-0.885000013038516,               145P    144
2.65500003911555,2.65500003911555,1.,1.,5.80000008940697,10.,        145P    145
35.2000005215406,5.80000008940697,10.,-0.2,-0.885000013038516,       145P    146
2.65500003911555,0.,0.,0.;                                           145P    147
126,1,1,0,0,1,0,1.,1.,2.5,2.5,1.,1.,12.,10.,35.2000005215406,        147P    148
12.,25.,35.2000005215406,1.,2.5,0.,0.,0.;                            147P    149
126,1,1,0,0,1,0,1.15000002607703,1.15000002607703,                   149P    150
1.77000001713634,1.77000001713634,1.,1.,12.,10.,                     149P    151
35.2000005215406,5.80000008940697,10.,35.2000005215406,              149P    152
1.15000002607703,1.77000001713634,0.,0.,0.;                          149P    153
126,1,1,0,0,1,0,-0.924999986961484,-0.924999986961484,               151P    154
-0.845000039115548,-0.845000039115548,1.,1.,12.,10.,36.,12.,10.,     151P    155
35.2000005215406,-0.924999986961484,-0.845000039115548,0.,0.,0.;     151P    156
126,1,1,0,0,1,0,0.885000013038516,0.885000013038516,                 153P    157
0.965000013038516,0.965000013038516,1.,1.,12.,10.,-0.2,12.,10.,      153P    158
-1.,0.885000013038516,0.965000013038516,0.,0.,0.;                    153P    159
126,1,1,0,0,1,0,0.,0.,3.69999999955297,3.69999999955297,1.,1.,       155P    160
12.,27.,36.,12.,27.,-0.999999995529652,0.,3.69999999955297,0.,       155P    161
0.,0.;                                                               155P    162
126,1,1,0,0,1,0,1.,1.,2.7,2.7,1.,1.,12.,10.,36.,12.,27.,36.,1.,      157P    163
2.7,0.,0.,0.;                                                        157P    164
126,1,1,0,0,1,0,-1.14999997392297,-1.14999997392297,                 159P    165
3.45000002607703,3.45000002607703,1.,1.,58.,10.,36.,12.,10.,36.,     159P    166
-1.14999997392297,3.45000002607703,0.,0.,0.;                         159P    167
126,1,1,0,0,1,0,0.,0.,4.6,4.6,1.,1.,58.,27.,36.,12.,27.,36.,0.,      161P    168
4.6,0.,0.,0.;                                                        161P    169
126,1,1,0,0,1,0,1.,1.,2.7,2.7,1.,1.,58.,10.,36.,58.,27.,36.,1.,      163P    170
2.7,0.,0.,0.;                                                        163P    171
126,1,1,0,0,1,0,1.,1.,2.5,2.5,1.,1.,64.2000009536743,10.,            165P    172
35.2000005215406,64.2000009536743,25.,35.2000005215406,1.,2.5,       165P    173
0.,0.,0.;                                                            165P    174
126,1,1,0,0,1,0,-1.46000002160668,-1.46000002160668,                 167P    175
-0.839999926239253,-0.839999926239253,1.,1.,64.2000009536743,        167P    176
10.,35.2000005215406,58.,10.,35.2000005215406,-1.46000002160668,     167P    177
-0.839999926239253,0.,0.,0.;                                         167P    178
126,1,1,0,0,1,0,1.,1.,2.5,2.5,1.,1.,58.,10.,35.2000005215406,        169P    179
58.,25.,35.2000005215406,1.,2.5,0.,0.,0.;                            169P    180
126,1,1,0,0,1,0,1.,1.,2.5,2.5,1.,1.,64.2000009536743,10.,-0.2,       171P    181
64.2000009536743,25.,-0.2,1.,2.5,0.,0.,0.;                           171P    182
126,1,1,0,0,1,0,-0.885000013038516,-0.885000013038516,               173P    183
2.65500003911555,2.65500003911555,1.,1.,64.2000009536743,10.,        173P    184
-0.2,64.2000009536743,10.,35.2000005215406,-0.885000013038516,       173P    185
2.65500003911555,0.,0.,0.;                                           173P    186
126,1,1,0,0,1,0,1.,1.,2.5,2.5,1.,1.,58.,10.,-0.2,58.,25.,-0.2,       175P    187
1.,2.5,0.,0.,0.;                                                     175P    188
126,1,1,0,0,1,0,1.14999997392297,1.14999997392297,                   177P    189
1.7700000692904,1.7700000692904,1.,1.,58.,10.,-0.2,                  177P    190
64.2000009536743,10.,-0.2,1.14999997392297,1.7700000692904,0.,       177P    191
0.,0.;                                                               177P    192
126,1,1,0,0,1,0,-0.925000013038516,-0.925000013038516,               179P    193
-0.845000013038516,-0.845000013038516,1.,1.,58.,10.,-1.,58.,10.,     179P    194
-0.2,-0.925000013038516,-0.845000013038516,0.,0.,0.;                 179P    195
126,1,1,0,0,1,0,0.885000013038516,0.885000013038516,                 181P    196
0.964999960884452,0.964999960884452,1.,1.,58.,10.,                   181P    197
35.2000005215406,58.,10.,36.,0.885000013038516,                      181P    198
0.964999960884452,0.,0.,0.;                                          181P    199
126,1,1,0,0,1,0,-0.1,-0.1,3.6,3.6,1.,1.,58.,27.,-1.,58.,27.,36.,     183P    200
-0.1,3.6,0.,0.,0.;                                                   183P    201
126,1,1,0,0,1,0,-2.92500003911555,-2.92500003911555,                 185P    202
0.975000013038516,0.975000013038516,1.,1.,66.0000009536743,10.,      185P    203
-2.,66.0000009536743,10.,37.0000005215406,-2.92500003911555,         185P    204
0.975000013038516,0.,0.,0.;                                          185P    205
126,1,1,0,0,1,0,1.,1.,2.7,2.7,1.,1.,66.0000009536743,10.,-2.,        187P    206
66.0000009536743,27.,-2.,1.,2.7,0.,0.,0.;                            187P    207
126,1,1,0,0,1,0,-3.90000005215406,-3.90000005215406,0.,0.,1.,1.,     189P    208
66.0000009536743,27.,37.0000005215406,66.0000009536743,27.,-2.,      189P    209
-3.90000005215406,0.,0.,0.,0.;                                       189P    210
126,1,1,0,0,1,0,1.,1.,2.7,2.7,1.,1.,66.0000009536743,10.,            191P    211
37.0000005215406,66.0000009536743,27.,37.0000005215406,1.,2.7,       191P    212
0.,0.,0.;                                                            191P    213
126,1,1,0,0,1,0,-4.65000006482005,-4.65000006482005,                 193P    214
1.55000002160668,1.55000002160668,1.,1.,66.0000009536743,10.,        193P    215
37.0000005215406,4.00000008940697,10.,37.0000005215406,              193P    216
-4.65000006482005,1.55000002160668,0.,0.,0.;                         193P    217
126,1,1,0,0,1,0,-6.20000008642674,-6.20000008642674,0.,0.,1.,1.,     195P    218
4.00000008940697,27.,37.0000005215406,66.0000009536743,27.,          195P    219
37.0000005215406,-6.20000008642674,0.,0.,0.,0.;                      195P    220
126,1,1,0,0,1,0,1.,1.,2.7,2.7,1.,1.,4.00000008940697,10.,            197P    221
37.0000005215406,4.00000008940697,27.,37.0000005215406,1.,2.7,       197P    222
0.,0.,0.;                                                            197P    223
126,1,1,0,0,1,0,-2.92500003911555,-2.92500003911555,                 199P    224
0.975000013038516,0.975000013038516,1.,1.,4.00000008940697,10.,      199P    225
37.0000005215406,4.00000008940697,10.,-2.,-2.92500003911555,         199P    226
0.975000013038516,0.,0.,0.;                                          199P    227
126,1,1,0,0,1,0,-3.90000005215406,-3.90000005215406,0.,0.,1.,1.,     201P    228
4.00000008940697,27.,-2.,4.00000008940697,27.,37.0000005215406,      201P    229
-3.90000005215406,0.,0.,0.,0.;                                       201P    230
126,1,1,0,0,1,0,1.,1.,2.7,2.7,1.,1.,4.00000008940697,10.,-2.,        203P    231
4.00000008940697,27.,-2.,1.,2.7,0.,0.,0.;                            203P    232
126,1,1,0,0,1,0,-4.65000006482005,-4.65000006482005,                 205P    233
1.55000002160668,1.55000002160668,1.,1.,4.00000008940697,10.,        205P    234
-2.,66.0000009536743,10.,-2.,-4.65000006482005,1.55000002160668,     205P    235
0.,0.,0.;                                                            205P    236
126,1,1,0,0,1,0,-6.20000008642674,-6.20000008642674,0.,0.,1.,1.,     207P    237
66.0000009536743,27.,-2.,4.00000008940697,27.,-2.,                   207P    238
-6.20000008642674,0.,0.,0.,0.;                                       207P    239
128,1,8,1,2,0,1,0,0,1,16.6666666666667,16.6666666666667,18.,18.,     209P    240
-3.14159265358979,-3.14159265358979,-3.14159265358979,               209P    241
-1.5707963267949,-1.5707963267949,0.,0.,1.5707963267949,             209P    242
1.5707963267949,3.14159265358979,3.14159265358979,                   209P    243
3.14159265358979,1.,1.,0.707106781186548,0.707106781186548,1.,       209P    244
1.,0.707106781186548,0.707106781186548,1.,1.,0.707106781186548,      209P    245
0.707106781186548,1.,1.,0.707106781186548,0.707106781186548,1.,      209P    246
1.,7.50000008940697,25.,17.5,7.50000008940697,27.,17.5,              209P    247
7.50000008940697,25.,19.,7.50000008940697,27.,19.,                   209P    248
9.00000008940697,25.,19.,9.00000008940697,27.,19.,                   209P    249
10.500000089407,25.,19.,10.500000089407,27.,19.,10.500000089407,     209P    250
25.,17.5,10.500000089407,27.,17.5,10.500000089407,25.,16.,           209P    251
10.500000089407,27.,16.,9.00000008940697,25.,16.,                    209P    252
9.00000008940697,27.,16.,7.50000008940697,25.,16.,                   209P    253
7.50000008940697,27.,16.,7.50000008940697,25.,17.5,                  209P    254
7.50000008940697,27.,17.5,16.6666666666667,18.,                      209P    255
-3.14159265358979,3.14159265358979;                                  209P    256
128,1,8,1,2,0,1,0,0,1,16.6666666666666,16.6666666666666,18.,18.,     211P    257
-3.14159265358979,-3.14159265358979,-3.14159265358979,               211P    258
-1.5707963267949,-1.5707963267949,0.,0.,1.5707963267949,             211P    259
1.5707963267949,3.14159265358979,3.14159265358979,                   211P    260
3.14159265358979,1.,1.,0.707106781186548,0.707106781186548,1.,       211P    261
1.,0.707106781186548,0.707106781186548,1.,1.,0.707106781186548,      211P    262
0.707106781186548,1.,1.,0.707106781186548,0.707106781186548,1.,      211P    263
1.,59.5,25.,17.5,59.5,27.,17.5,59.5,25.,19.,59.5,27.,19.,61.,        211P    264
25.,19.,61.,27.,19.,62.5,25.,19.,62.5,27.,19.,62.5,25.,17.5,         211P    265
62.5,27.,17.5,62.5,25.,16.,62.5,27.,16.,61.,25.,16.,61.,27.,16.,     211P    266
59.5,25.,16.,59.5,27.,16.,59.5,25.,17.5,59.5,27.,17.5,               211P    267
16.6666666666666,18.,-3.14159265358979,3.14159265358979;             211P    268
128,1,1,1,1,0,0,1,0,0,-0.001,-0.001,3.54100005215406,                213P    269
3.54100005215406,-0.001,-0.001,0.621,0.621,1.,1.,1.,1.,              213P    270
64.2100009536743,25.,-0.21,64.2100009536743,25.,                     213P    271
35.2100005215406,57.9900009536743,25.,-0.21,57.9900009536743,        213P    272
25.,35.2100005215406,-0.001,3.54100005215406,-0.001,0.621;           213P    273
128,1,1,1,1,0,0,1,0,0,-0.00100000000000008,-0.00100000000000008,     215P    274
3.54100005215406,3.54100005215406,-0.001,-0.001,0.621,0.621,1.,      215P    275
1.,1.,1.,5.79000008940697,25.,35.2100005215406,5.79000008940697,     215P    276
25.,-0.209999999999999,12.010000089407,25.,35.2100005215406,         215P    277
12.010000089407,25.,-0.209999999999999,-0.00100000000000008,         215P    278
3.54100005215406,-0.001,0.621;                                       215P    279
128,1,1,1,1,0,0,1,0,0,-0.001,-0.001,4.601,4.601,0.999,0.999,         217P    280
2.701,2.701,1.,1.,1.,1.,11.99,9.99,-1.,58.01,9.99,-1.,11.99,         217P    281
27.01,-1.,58.01,27.01,-1.,-0.001,4.601,0.999,2.701;                  217P    282
128,1,1,1,1,0,0,1,0,0,-0.001,-0.001,0.621,0.621,0.999,0.999,         219P    283
2.501,2.501,1.,1.,1.,1.,5.79000008940697,9.99,-0.2,                  219P    284
12.010000089407,9.99,-0.2,5.79000008940697,25.01,-0.2,               219P    285
12.010000089407,25.01,-0.2,-0.001,0.621,0.999,2.501;                 219P    286
128,1,1,1,1,0,0,1,0,0,-0.001,-0.001,3.54100005215406,                221P    287
3.54100005215406,0.999,0.999,2.501,2.501,1.,1.,1.,1.,                221P    288
5.80000008940697,9.99,35.2100005215406,5.80000008940697,9.99,        221P    289
-0.209999999999999,5.80000008940697,25.01,35.2100005215406,          221P    290
5.80000008940697,25.01,-0.209999999999999,-0.001,                    221P    291
3.54100005215406,0.999,2.501;                                        221P    292
128,1,1,1,1,0,0,1,0,0,-0.00100000894069707,-0.00100000894069707,     223P    293
0.620999991059303,0.620999991059303,0.999,0.999,2.501,2.501,1.,      223P    294
1.,1.,1.,12.010000089407,9.99,35.2000005215406,5.79000008940697,     223P    295
9.99,35.2000005215406,12.010000089407,25.01,35.2000005215406,        223P    296
5.79000008940697,25.01,35.2000005215406,-0.00100000894069707,        223P    297
0.620999991059303,0.999,2.501;                                       223P    298
128,1,1,1,1,0,0,1,0,0,-0.001,-0.001,3.701,3.701,0.999,0.999,         225P    299
2.701,2.701,1.,1.,1.,1.,12.,9.99,36.01,12.,9.99,-1.01,12.,27.01,     225P    300
36.01,12.,27.01,-1.01,-0.001,3.701,0.999,2.701;                      225P    301
128,1,1,1,1,0,0,1,0,0,-0.001,-0.001,4.601,4.601,0.999,0.999,         227P    302
2.701,2.701,1.,1.,1.,1.,58.01,9.99,36.,11.99,9.99,36.,58.01,         227P    303
27.01,36.,11.99,27.01,36.,-0.001,4.601,0.999,2.701;                  227P    304
128,1,1,1,1,0,0,1,0,0,-0.001,-0.001,0.621000095367431,               229P    305
0.621000095367431,0.999,0.999,2.501,2.501,1.,1.,1.,1.,               229P    306
64.2100009536743,9.99,35.2000005215406,57.99,9.99,                   229P    307
35.2000005215406,64.2100009536743,25.01,35.2000005215406,57.99,      229P    308
25.01,35.2000005215406,-0.001,0.621000095367431,0.999,2.501;         229P    309
128,1,1,1,1,0,0,1,0,0,-0.00100000000000001,-0.00100000000000001,     231P    310
3.54100005215406,3.54100005215406,0.999,0.999,2.501,2.501,1.,1.,     231P    311
1.,1.,64.2000009536743,9.99,-0.21,64.2000009536743,9.99,             231P    312
35.2100005215406,64.2000009536743,25.01,-0.21,64.2000009536743,      231P    313
25.01,35.2100005215406,-0.00100000000000001,3.54100005215406,        231P    314
0.999,2.501;                                                         231P    315
128,1,1,1,1,0,0,1,0,0,-0.001,-0.001,0.621000095367431,               233P    316
0.621000095367431,0.999,0.999,2.501,2.501,1.,1.,1.,1.,57.99,         233P    317
9.99,-0.2,64.2100009536743,9.99,-0.2,57.99,25.01,-0.2,               233P    318
64.2100009536743,25.01,-0.2,-0.001,0.621000095367431,0.999,          233P    319
2.501;                                                               233P    320
128,1,1,1,1,0,0,1,0,0,-0.0010000000000001,-0.0010000000000001,       235P    321
3.701,3.701,0.999,0.999,2.701,2.701,1.,1.,1.,1.,58.,9.99,-1.01,      235P    322
58.,9.99,36.01,58.,27.01,-1.01,58.,27.01,36.01,                      235P    323
-0.0010000000000001,3.701,0.999,2.701;                               235P    324
128,1,1,1,1,0,0,1,0,0,-0.001,-0.001,3.90100005215406,                237P    325
3.90100005215406,0.999,0.999,2.701,2.701,1.,1.,1.,1.,                237P    326
66.0000009536743,9.99,37.0100005215406,66.0000009536743,9.99,        237P    327
-2.01,66.0000009536743,27.01,37.0100005215406,66.0000009536743,      237P    328
27.01,-2.01,-0.001,3.90100005215406,0.999,2.701;                     237P    329
128,1,1,1,1,0,0,1,0,0,-0.001,-0.001,6.20100008642674,                239P    330
6.20100008642674,0.999,0.999,2.701,2.701,1.,1.,1.,1.,                239P    331
3.99000008940697,9.99,37.0000005215406,66.0100009536743,9.99,        239P    332
37.0000005215406,3.99000008940697,27.01,37.0000005215406,            239P    333
66.0100009536743,27.01,37.0000005215406,-0.001,6.20100008642674,     239P    334
0.999,2.701;                                                         239P    335
128,1,1,1,1,0,0,1,0,0,-0.001,-0.001,3.90100005215406,                241P    336
3.90100005215406,0.999,0.999,2.701,2.701,1.,1.,1.,1.,                241P    337
4.00000008940697,9.99,-2.01,4.00000008940697,9.99,                   241P    338
37.0100005215406,4.00000008940697,27.01,-2.01,4.00000008940697,      241P    339
27.01,37.0100005215406,-0.001,3.90100005215406,0.999,2.701;          241P    340
128,1,1,1,1,0,0,1,0,0,-0.001,-0.001,6.20100008642674,                243P    341
6.20100008642674,0.999,0.999,2.701,2.701,1.,1.,1.,1.,                243P    342
66.0100009536743,9.99,-2.,3.99000008940696,9.99,-2.,                 243P    343
66.0100009536743,27.01,-2.,3.99000008940696,27.01,-2.,-0.001,        243P    344
6.20100008642674,0.999,2.701;                                        243P    345
128,1,1,1,1,0,0,1,0,0,-1.95100002607703,-1.95100002607703,           245P    346
1.95100002607703,1.95100002607703,-3.10100004321337,                 245P    347
-3.10100004321337,3.10100004321337,3.10100004321337,1.,1.,1.,1.,     245P    348
3.99000008940697,27.,-2.01,3.99000008940697,27.,                     245P    349
37.0100005215406,66.0100009536743,27.,-2.01,66.0100009536743,        245P    350
27.,37.0100005215406,-1.95100002607703,1.95100002607703,             245P    351
-3.10100004321337,3.10100004321337;                                  245P    352
128,1,1,1,1,0,0,1,0,0,-3.10100004321337,-3.10100004321337,           247P    353
3.10100004321337,3.10100004321337,-1.95100002607703,                 247P    354
-1.95100002607703,1.95100002607703,1.95100002607703,1.,1.,1.,1.,     247P    355
66.0100009536743,10.,37.0100005215406,3.99000008940697,10.,          247P    356
37.0100005215406,66.0100009536743,10.,-2.01,3.99000008940697,        247P    357
10.,-2.01,-3.10100004321337,3.10100004321337,-1.95100002607703,      247P    358
1.95100002607703;                                                    247P    359
502,36,7.50000008940697,25.,17.5,7.50000008940697,27.,17.5,59.5,     249P    360
25.,17.5,59.5,27.,17.5,64.2000009536743,25.,35.2000005215406,        249P    361
64.2000009536743,25.,-0.2,58.0000009536743,25.,35.2000005215406,     249P    362
58.0000009536743,25.,-0.2,5.80000008940697,25.,                      249P    363
-0.199999995529652,5.80000008940697,25.,35.2000005215406,            249P    364
12.000000089407,25.,-0.199999995529653,12.000000089407,25.,          249P    365
35.2000005215406,12.,10.,-1.,58.,10.,-1.,58.,27.,-1.,12.,27.,        249P    366
-1.,5.80000008940697,10.,-0.2,12.,10.,-0.2,5.80000008940697,10.,     249P    367
35.2000005215406,12.,10.,35.2000005215406,12.,10.,36.,12.,27.,       249P    368
36.,58.,10.,36.,58.,27.,36.,64.2000009536743,10.,                    249P    369
35.2000005215406,58.,10.,35.2000005215406,64.2000009536743,10.,      249P    370
-0.2,58.,10.,-0.2,66.0000009536743,10.,-2.,66.0000009536743,10.,     249P    371
37.0000005215406,66.0000009536743,27.,-2.,66.0000009536743,27.,      249P    372
37.0000005215406,4.00000008940697,10.,37.0000005215406,              249P    373
4.00000008940697,27.,37.0000005215406,4.00000008940697,10.,-2.,      249P    374
4.00000008940697,27.,-2.;                                            249P    375
504,54,101,249,1,249,1,103,249,1,249,2,105,249,2,249,2,107,249,      251P    376
3,249,3,109,249,3,249,4,111,249,4,249,4,113,249,5,249,6,115,249,     251P    377
7,249,5,117,249,8,249,7,119,249,6,249,8,121,249,9,249,10,123,        251P    378
249,11,249,9,125,249,12,249,11,127,249,10,249,12,129,249,13,249,     251P    379
14,131,249,14,249,15,133,249,16,249,15,135,249,13,249,16,137,        251P    380
249,17,249,9,139,249,17,249,18,141,249,18,249,11,143,249,19,249,     251P    381
10,145,249,19,249,17,147,249,20,249,12,149,249,20,249,19,151,        251P    382
249,21,249,20,153,249,18,249,13,155,249,22,249,16,157,249,21,        251P    383
249,22,159,249,23,249,21,161,249,24,249,22,163,249,23,249,24,        251P    384
165,249,25,249,5,167,249,25,249,26,169,249,26,249,7,171,249,27,      251P    385
249,6,173,249,27,249,25,175,249,28,249,8,177,249,28,249,27,179,      251P    386
249,14,249,28,181,249,26,249,23,183,249,15,249,24,185,249,29,        251P    387
249,30,187,249,29,249,31,189,249,32,249,31,191,249,30,249,32,        251P    388
193,249,30,249,33,195,249,34,249,32,197,249,33,249,34,199,249,       251P    389
33,249,35,201,249,36,249,34,203,249,35,249,36,205,249,35,249,29,     251P    390
207,249,31,249,36;                                                   251P    391
406,1,5HBody1;                                                       253P    392
406,1,12HComponent2:1;                                               255P    393
314,9.80392156862745,9.80392156862745,9.80392156862745,24HPlasti     257P    394
c - Glossy (Black);                                                  257P    395
314,62.7450980392157,62.7450980392157,62.7450980392157,13HSteel      259P    396
- Satin;                                                             259P    397
S      1G      3D    260P    397                                        T      1
