                                                                        S      1
,,3Hbed,3Hbed,7Hunknown,7Hunknown,32,38,7,99,15,,1.,6,1HM,1,0.08,15H2021G      1
1012.212323,1D-5,10000.,7Hunknown,7Hunknown,11,0,;                      G      2
     186       1                                                00000000D      1
     186             -71       1       0                               0D      2
     514       2                                                00010000D      3
     514                       1       1                               0D      4
     510       3                                                00010000D      5
     510             -71       1       1                               0D      6
     510       4                                                00010000D      7
     510             -71       1       1                               0D      8
     510       5                                                00010000D      9
     510             -71       1       1                               0D     10
     510       6                                                00010000D     11
     510             -71       1       1                               0D     12
     510       7                                                00010000D     13
     510             -71       1       1                               0D     14
     510       8                                                00010000D     15
     510             -71       1       1                               0D     16
     508       9                                                00010000D     17
     508                       1       1                               0D     18
     508      10                                                00010000D     19
     508                       1       1                               0D     20
     508      11                                                00010000D     21
     508                       1       1                               0D     22
     508      12                                                00010000D     23
     508                       1       1                               0D     24
     508      13                                                00010000D     25
     508                       1       1                               0D     26
     508      14                                                00010000D     27
     508                       1       1                               0D     28
     126      15                                                00010000D     29
     126       0               3       0                               0D     30
     126      18                                                00010000D     31
     126       0               3       0                               0D     32
     126      21                                                00010000D     33
     126       0               3       0                               0D     34
     126      24                                                00010000D     35
     126       0               3       0                               0D     36
     126      27                                                00010000D     37
     126       0               3       0                               0D     38
     126      30                                                00010000D     39
     126       0               3       0                               0D     40
     126      33                                                00010000D     41
     126       0               3       0                               0D     42
     126      36                                                00010000D     43
     126       0               3       0                               0D     44
     126      39                                                00010000D     45
     126       0               3       0                               0D     46
     126      42                                                00010000D     47
     126       0               3       0                               0D     48
     126      45                                                00010000D     49
     126       0               3       0                               0D     50
     126      48                                                00010000D     51
     126       0               3       0                               0D     52
     128      51                                                00010000D     53
     128       0     -71       7       0                               0D     54
     128      58                                                00010000D     55
     128       0     -71       7       0                               0D     56
     128      65                                                00010000D     57
     128       0     -71       6       0                               0D     58
     128      71                                                00010000D     59
     128       0     -71       7       0                               0D     60
     128      78                                                00010000D     61
     128       0     -71       5       0                               0D     62
     128      83                                                00010000D     63
     128       0     -71       7       0                               0D     64
     502      90                                                00010000D     65
     502                       7       1                               0D     66
     504      97                                                00010001D     67
     504                       3       1                               0D     68
     406     100                                                00000000D     69
     406                       1      15                               0D     70
     314     101                                                00000200D     71
     314                       2       0                               0D     72
     314     103                                                00000200D     73
     314                       2       0                               0D     74
186,3,1,0,0,1,69;                                                      1P      1
514,6,5,1,7,1,9,1,11,1,13,1,15,1;                                      3P      2
510,53,1,1,17;                                                         5P      3
510,55,1,1,19;                                                         7P      4
510,57,1,1,21;                                                         9P      5
510,59,1,1,23;                                                        11P      6
510,61,1,1,25;                                                        13P      7
510,63,1,1,27;                                                        15P      8
508,4,0,67,1,0,0,0,67,2,1,0,0,67,3,0,0,0,67,4,0,0;                    17P      9
508,4,0,67,5,0,0,0,67,4,1,0,0,67,6,0,0,0,67,7,0,0;                    19P     10
508,4,0,67,8,0,0,0,67,7,1,0,0,67,9,0,0,0,67,10,0,0;                   21P     11
508,4,0,67,11,0,0,0,67,10,1,0,0,67,12,0,0,0,67,2,0,0;                 23P     12
508,4,0,67,12,1,0,0,67,9,1,0,0,67,6,1,0,0,67,3,1,0;                   25P     13
508,4,0,67,11,1,0,0,67,1,1,0,0,67,5,1,0,0,67,8,1,0;                   27P     14
126,1,1,0,0,1,0,0.,0.,190.,190.,1.,1.,-0.14600000000003,              29P     15
-4.8627768478602D-17,1.90400000000001,-0.146000000000062,             29P     16
-4.8627768478602D-17,0.00400000000000887,0.,190.,0.,0.,0.;            29P     17
126,1,1,0,0,1,0,0.,0.,80.,80.,1.,1.,-0.14600000000003,                31P     18
-4.8627768478602D-17,1.90400000000001,-0.146000000000031,0.8,         31P     19
1.90400000000001,0.,80.,0.,0.,0.;                                     31P     20
126,1,1,0,0,1,0,-190.,-190.,0.,0.,1.,1.,-0.146000000000062,0.8,       33P     21
0.00400000000000887,-0.146000000000031,0.8,1.90400000000001,          33P     22
-190.,0.,0.,0.,0.;                                                    33P     23
126,1,1,0,0,1,0,0.,0.,80.,80.,1.,1.,-0.146000000000062,               35P     24
-4.8627768478602D-17,0.00400000000000899,-0.146000000000062,0.8,      35P     25
0.00400000000000899,0.,80.,0.,0.,0.;                                  35P     26
126,1,1,0,0,1,0,0.,0.,91.,91.,1.,1.,-0.146000000000062,               37P     27
-4.8627768478602D-17,0.00400000000000899,0.763999999999938,           37P     28
2.54463117244065D-16,0.00399999999999406,0.,91.,0.,0.,0.;             37P     29
126,1,1,0,0,1,0,-91.,-91.,0.,0.,1.,1.,0.763999999999938,0.8,          39P     30
0.00399999999999406,-0.146000000000062,0.8,0.00400000000000899,       39P     31
-91.,0.,0.,0.,0.;                                                     39P     32
126,1,1,0,0,1,0,0.,0.,80.,80.,1.,1.,0.763999999999938,                41P     33
2.54463117244065D-16,0.00399999999999406,0.763999999999938,0.8,       41P     34
0.00399999999999406,0.,80.,0.,0.,0.;                                  41P     35
126,1,1,0,0,1,0,0.,0.,190.,190.,1.,1.,0.763999999999938,              43P     36
2.54463117244065D-16,0.00399999999999406,0.763999999999969,           43P     37
2.54463117244065D-16,1.90399999999999,0.,190.,0.,0.,0.;               43P     38
126,1,1,0,0,1,0,-190.,-190.,0.,0.,1.,1.,0.763999999999969,0.8,        45P     39
1.90399999999999,0.763999999999938,0.8,0.00399999999999406,           45P     40
-190.,0.,0.,0.,0.;                                                    45P     41
126,1,1,0,0,1,0,0.,0.,80.,80.,1.,1.,0.763999999999969,                47P     42
2.54463117244065D-16,1.90399999999999,0.763999999999969,0.8,          47P     43
1.90399999999999,0.,80.,0.,0.,0.;                                     47P     44
126,1,1,0,0,1,0,0.,0.,91.,91.,1.,1.,0.763999999999969,                49P     45
2.54463117244065D-16,1.90399999999999,-0.14600000000003,              49P     46
-4.8627768478602D-17,1.90400000000001,0.,91.,0.,0.,0.;                49P     47
126,1,1,0,0,1,0,-91.,-91.,0.,0.,1.,1.,-0.146000000000031,0.8,         51P     48
1.90400000000001,0.763999999999969,0.8,1.90399999999999,-91.,0.,      51P     49
0.,0.,0.;                                                             51P     50
128,1,1,1,1,0,0,1,0,0,-0.0010000000000121,-0.0010000000000121,        53P     51
190.001,190.001,-0.001,-0.001,80.001,80.001,1.,1.,1.,1.,              53P     52
-0.146000000000062,-1.00000000000486D-5,0.00399000000000887,          53P     53
-0.14600000000003,-1.00000000000486D-5,1.90401000000001,              53P     54
-0.146000000000062,0.80001,0.00399000000000887,                       53P     55
-0.146000000000031,0.80001,1.90401000000001,-0.0010000000000121,      53P     56
190.001,-0.001,80.001;                                                53P     57
128,1,1,1,1,0,0,1,0,0,-0.00100000000000666,-0.00100000000000666,      55P     58
91.001,91.001,-0.001,-0.001,80.001,80.001,1.,1.,1.,1.,                55P     59
0.764009999999938,-9.99999999974553D-6,0.00399999999999406,           55P     60
-0.146010000000062,-1.00000000000486D-5,0.00400000000000899,          55P     61
0.764009999999938,0.80001,0.00399999999999406,                        55P     62
-0.146010000000062,0.80001,0.00400000000000899,                       55P     63
-0.00100000000000666,91.001,-0.001,80.001;                            55P     64
128,1,1,1,1,0,0,1,0,0,-0.001,-0.001,190.001,190.001,-0.001,           57P     65
-0.001,80.001,80.001,1.,1.,1.,1.,0.763999999999969,                   57P     66
-9.99999999974554D-6,1.90400999999999,0.763999999999938,              57P     67
-9.99999999974554D-6,0.00398999999999404,0.763999999999969,           57P     68
0.80001,1.90400999999999,0.763999999999938,0.80001,                   57P     69
0.00398999999999404,-0.001,190.001,-0.001,80.001;                     57P     70
128,1,1,1,1,0,0,1,0,0,-0.00100000000003375,-0.00100000000003375,      59P     71
91.001,91.001,-0.001,-0.001,80.001,80.001,1.,1.,1.,1.,                59P     72
-0.146010000000031,-1.00000000000486D-5,1.90400000000001,             59P     73
0.76400999999997,-9.99999999974553D-6,1.90399999999999,               59P     74
-0.146010000000031,0.80001,1.90400000000001,0.764009999999969,        59P     75
0.800010000000001,1.90399999999999,-0.00100000000003375,91.001,       59P     76
-0.001,80.001;                                                        59P     77
128,1,1,1,1,0,0,1,0,0,-95.001,-95.001,95.001,95.001,-45.501,          61P     78
-45.501,45.501,45.501,1.,1.,1.,1.,-0.146010000000062,0.8,             61P     79
0.00399000000000875,-0.146010000000031,0.8,1.90401000000001,          61P     80
0.764009999999938,0.8,0.00398999999999382,0.764009999999969,0.8,      61P     81
1.90400999999999,-95.001,95.001,-45.501,45.501;                       61P     82
128,1,1,1,1,0,0,1,0,0,-45.501,-45.501,45.501,45.501,-95.001,          63P     83
-95.001,95.001,95.001,1.,1.,1.,1.,0.76400999999997,                   63P     84
2.54466447913139D-16,1.90400999999999,-0.146010000000031,             63P     85
-4.86310991476759D-17,1.90401000000001,0.764009999999938,             63P     86
2.54466447913139D-16,0.00398999999999404,-0.146010000000062,          63P     87
-4.86310991476759D-17,0.00399000000000882,-45.501,45.501,             63P     88
-95.001,95.001;                                                       63P     89
502,8,-0.14600000000003,-4.8627768478602D-17,1.90400000000001,        65P     90
-0.146000000000062,-4.8627768478602D-17,0.00400000000000899,          65P     91
-0.146000000000031,0.8,1.90400000000001,-0.146000000000062,0.8,       65P     92
0.00400000000000899,0.763999999999938,2.54463117244065D-16,           65P     93
0.00399999999999406,0.763999999999938,0.8,0.00399999999999406,        65P     94
0.763999999999969,2.54463117244065D-16,1.90399999999999,              65P     95
0.763999999999969,0.8,1.90399999999999;                               65P     96
504,12,29,65,1,65,2,31,65,1,65,3,33,65,4,65,3,35,65,2,65,4,37,        67P     97
65,2,65,5,39,65,6,65,4,41,65,5,65,6,43,65,5,65,7,45,65,8,65,6,        67P     98
47,65,7,65,8,49,65,7,65,1,51,65,3,65,8;                               67P     99
406,1,5HBody1;                                                        69P    100
314,90.5882352941177,89.4117647058824,86.2745098039216,15HSurfac      71P    101
e - Matte;                                                            71P    102
314,62.7450980392157,62.7450980392157,62.7450980392157,13HSteel       73P    103
- Satin;                                                              73P    104
S      1G      2D     74P    104                                        T      1
