                                                                        S      1
,,14Hcomputer table,14Hcomputer table,7Hunknown,7Hunknown,32,38,7,99,15,G      1
,1.,6,1HM,1,0.08,15H20211012.212323,1D-5,10000.,7Hunknown,7Hunknown,11, G      2
0,;                                                                     G      3
     186       1                                                00000000D      1
     186             -71       1       0                               0D      2
     514       2                                                00010000D      3
     514                       1       1                               0D      4
     510       3                                                00010000D      5
     510             -71       1       1                               0D      6
     510       4                                                00010000D      7
     510             -71       1       1                               0D      8
     510       5                                                00010000D      9
     510             -71       1       1                               0D     10
     510       6                                                00010000D     11
     510             -71       1       1                               0D     12
     510       7                                                00010000D     13
     510             -71       1       1                               0D     14
     510       8                                                00010000D     15
     510             -71       1       1                               0D     16
     508       9                                                00010000D     17
     508                       1       1                               0D     18
     508      10                                                00010000D     19
     508                       1       1                               0D     20
     508      11                                                00010000D     21
     508                       1       1                               0D     22
     508      12                                                00010000D     23
     508                       1       1                               0D     24
     508      13                                                00010000D     25
     508                       1       1                               0D     26
     508      14                                                00010000D     27
     508                       1       1                               0D     28
     126      15                                                00010000D     29
     126       0               2       0                               0D     30
     126      17                                                00010000D     31
     126       0               2       0                               0D     32
     126      19                                                00010000D     33
     126       0               2       0                               0D     34
     126      21                                                00010000D     35
     126       0               2       0                               0D     36
     126      23                                                00010000D     37
     126       0               2       0                               0D     38
     126      25                                                00010000D     39
     126       0               2       0                               0D     40
     126      27                                                00010000D     41
     126       0               2       0                               0D     42
     126      29                                                00010000D     43
     126       0               2       0                               0D     44
     126      31                                                00010000D     45
     126       0               2       0                               0D     46
     126      33                                                00010000D     47
     126       0               2       0                               0D     48
     126      35                                                00010000D     49
     126       0               2       0                               0D     50
     126      37                                                00010000D     51
     126       0               2       0                               0D     52
     128      39                                                00010000D     53
     128       0     -71       4       0                               0D     54
     128      43                                                00010000D     55
     128       0     -71       4       0                               0D     56
     128      47                                                00010000D     57
     128       0     -71       4       0                               0D     58
     128      51                                                00010000D     59
     128       0     -71       4       0                               0D     60
     128      55                                                00010000D     61
     128       0     -71       4       0                               0D     62
     128      59                                                00010000D     63
     128       0     -71       4       0                               0D     64
     502      63                                                00010000D     65
     502                       2       1                               0D     66
     504      65                                                00010001D     67
     504                       3       1                               0D     68
     406      68                                                00000000D     69
     406                       1      15                               0D     70
     314      69                                                00000200D     71
     314                       1       0                               0D     72
186,3,1,0,0,1,69;                                                      1P      1
514,6,5,1,7,1,9,1,11,1,13,1,15,1;                                      3P      2
510,53,1,1,17;                                                         5P      3
510,55,1,1,19;                                                         7P      4
510,57,1,1,21;                                                         9P      5
510,59,1,1,23;                                                        11P      6
510,61,1,1,25;                                                        13P      7
510,63,1,1,27;                                                        15P      8
508,4,0,67,1,1,0,0,67,2,1,0,0,67,3,0,0,0,67,4,0,0;                    17P      9
508,4,0,67,5,1,0,0,67,4,1,0,0,67,6,0,0,0,67,7,0,0;                    19P     10
508,4,0,67,8,1,0,0,67,7,1,0,0,67,9,0,0,0,67,10,0,0;                   21P     11
508,4,0,67,11,1,0,0,67,10,1,0,0,67,12,0,0,0,67,2,0,0;                 23P     12
508,4,0,67,12,1,0,0,67,9,1,0,0,67,6,1,0,0,67,3,1,0;                   25P     13
508,4,0,67,11,0,0,0,67,1,0,0,0,67,5,0,0,0,67,8,0,0;                   27P     14
126,1,1,0,0,1,0,0.,0.,73.,73.,1.,1.,2.179,0.,1.8,2.909,0.,1.8,        29P     15
0.,73.,0.,0.,0.;                                                      29P     16
126,1,1,0,0,1,0,0.,0.,73.,73.,1.,1.,2.909,0.,1.8,2.909,0.73,1.8,      31P     17
0.,73.,0.,0.,0.;                                                      31P     18
126,1,1,0,0,1,0,0.,0.,73.,73.,1.,1.,2.179,0.73,1.8,2.909,0.73,        33P     19
1.8,0.,73.,0.,0.,0.;                                                  33P     20
126,1,1,0,0,1,0,0.,0.,73.,73.,1.,1.,2.179,0.,1.8,2.179,0.73,1.8,      35P     21
0.,73.,0.,0.,0.;                                                      35P     22
126,1,1,0,0,1,0,0.,0.,85.6,85.6,1.,1.,2.179,0.,0.944,2.179,0.,        37P     23
1.8,0.,85.6,0.,0.,0.;                                                 37P     24
126,1,1,0,0,1,0,0.,0.,85.6,85.6,1.,1.,2.179,0.73,0.944,2.179,         39P     25
0.73,1.8,0.,85.6,0.,0.,0.;                                            39P     26
126,1,1,0,0,1,0,0.,0.,73.,73.,1.,1.,2.179,0.,0.944,2.179,0.73,        41P     27
0.944,0.,73.,0.,0.,0.;                                                41P     28
126,1,1,0,0,1,0,0.,0.,73.,73.,1.,1.,2.909,0.,0.944,2.179,0.,          43P     29
0.944,0.,73.,0.,0.,0.;                                                43P     30
126,1,1,0,0,1,0,0.,0.,73.,73.,1.,1.,2.909,0.73,0.944,2.179,0.73,      45P     31
0.944,0.,73.,0.,0.,0.;                                                45P     32
126,1,1,0,0,1,0,0.,0.,73.,73.,1.,1.,2.909,0.,0.944,2.909,0.73,        47P     33
0.944,0.,73.,0.,0.,0.;                                                47P     34
126,1,1,0,0,1,0,0.,0.,85.6,85.6,1.,1.,2.909,0.,1.8,2.909,0.,          49P     35
0.944,0.,85.6,0.,0.,0.;                                               49P     36
126,1,1,0,0,1,0,0.,0.,85.6,85.6,1.,1.,2.909,0.73,1.8,2.909,0.73,      51P     37
0.944,0.,85.6,0.,0.,0.;                                               51P     38
128,1,1,1,1,0,0,1,0,0,-0.001,-0.001,73.001,73.001,-0.001,-0.001,      53P     39
73.001,73.001,1.,1.,1.,1.,2.17899,-1D-5,1.8,2.90901,-1D-5,1.8,        53P     40
2.17899,0.73001,1.8,2.90901,0.73001,1.8,-0.001,73.001,-0.001,         53P     41
73.001;                                                               53P     42
128,1,1,1,1,0,0,1,0,0,-0.001,-0.001,85.601,85.601,-0.001,-0.001,      55P     43
73.001,73.001,1.,1.,1.,1.,2.179,-1D-5,0.94399,2.179,-1D-5,            55P     44
1.80001,2.179,0.73001,0.94399,2.179,0.73001,1.80001,-0.001,           55P     45
85.601,-0.001,73.001;                                                 55P     46
128,1,1,1,1,0,0,1,0,0,-0.001,-0.001,73.001,73.001,-0.001,-0.001,      57P     47
73.001,73.001,1.,1.,1.,1.,2.90901,-1D-5,0.944,2.17899,-1D-5,          57P     48
0.944,2.90901,0.73001,0.944,2.17899,0.73001,0.944,-0.001,73.001,      57P     49
-0.001,73.001;                                                        57P     50
128,1,1,1,1,0,0,1,0,0,-0.001,-0.001,85.601,85.601,-0.001,-0.001,      59P     51
73.001,73.001,1.,1.,1.,1.,2.909,-1D-5,1.80001,2.909,-1D-5,            59P     52
0.94399,2.909,0.73001,1.80001,2.909,0.73001,0.94399,-0.001,           59P     53
85.601,-0.001,73.001;                                                 59P     54
128,1,1,1,1,0,0,1,0,0,-42.801,-42.801,42.801,42.801,-36.501,          61P     55
-36.501,36.501,36.501,1.,1.,1.,1.,2.17899,0.73,0.94399,2.17899,       61P     56
0.73,1.80001,2.90901,0.73,0.94399,2.90901,0.73,1.80001,-42.801,       61P     57
42.801,-36.501,36.501;                                                61P     58
128,1,1,1,1,0,0,1,0,0,-36.501,-36.501,36.501,36.501,-42.801,          63P     59
-42.801,42.801,42.801,1.,1.,1.,1.,2.90901,0.,1.80001,2.17899,0.,      63P     60
1.80001,2.90901,0.,0.94399,2.17899,0.,0.94399,-36.501,36.501,         63P     61
-42.801,42.801;                                                       63P     62
502,8,2.179,0.,1.8,2.909,0.,1.8,2.909,0.73,1.8,2.179,0.73,1.8,        65P     63
2.179,0.,0.944,2.179,0.73,0.944,2.909,0.,0.944,2.909,0.73,0.944;      65P     64
504,12,29,65,1,65,2,31,65,2,65,3,33,65,4,65,3,35,65,1,65,4,37,        67P     65
65,5,65,1,39,65,6,65,4,41,65,5,65,6,43,65,7,65,5,45,65,8,65,6,        67P     66
47,65,7,65,8,49,65,2,65,7,51,65,3,65,8;                               67P     67
406,1,5HBody1;                                                        69P     68
314,0.,0.,0.,15HSurface - Matte;                                      71P     69
S      1G      3D     72P     69                                        T      1
