                                                                        S      1
,,12Hhollow stand,12Hhollow stand,7Hunknown,7Hunknown,32,38,7,99,15,,1.,G      1
6,1HM,1,0.08,15H20211012.212328,1D-5,10000.,7Hunknown,7Hunknown,11,0,;  G      2
     186       1                                                00000000D      1
     186             -71       1       0                               0D      2
     514       2                                                00010000D      3
     514                       1       1                               0D      4
     510       3                                                00010000D      5
     510             -71       1       1                               0D      6
     510       4                                                00010000D      7
     510             -71       1       1                               0D      8
     510       5                                                00010000D      9
     510             -71       1       1                               0D     10
     510       6                                                00010000D     11
     510             -71       1       1                               0D     12
     510       7                                                00010000D     13
     510             -71       1       1                               0D     14
     510       8                                                00010000D     15
     510             -71       1       1                               0D     16
     508       9                                                00010000D     17
     508                       1       1                               0D     18
     508      10                                                00010000D     19
     508                       1       1                               0D     20
     508      11                                                00010000D     21
     508                       1       1                               0D     22
     508      12                                                00010000D     23
     508                       1       1                               0D     24
     508      13                                                00010000D     25
     508                       1       1                               0D     26
     508      14                                                00010000D     27
     508                       1       1                               0D     28
     126      15                                                00010000D     29
     126       0               2       0                               0D     30
     126      17                                                00010000D     31
     126       0               2       0                               0D     32
     126      19                                                00010000D     33
     126       0               2       0                               0D     34
     126      21                                                00010000D     35
     126       0               2       0                               0D     36
     126      23                                                00010000D     37
     126       0               2       0                               0D     38
     126      25                                                00010000D     39
     126       0               2       0                               0D     40
     126      27                                                00010000D     41
     126       0               2       0                               0D     42
     126      29                                                00010000D     43
     126       0               2       0                               0D     44
     126      31                                                00010000D     45
     126       0               2       0                               0D     46
     126      33                                                00010000D     47
     126       0               2       0                               0D     48
     126      35                                                00010000D     49
     126       0               2       0                               0D     50
     126      37                                                00010000D     51
     126       0               2       0                               0D     52
     128      39                                                00010000D     53
     128       0     -71       5       0                               0D     54
     128      44                                                00010000D     55
     128       0     -71       5       0                               0D     56
     128      49                                                00010000D     57
     128       0     -71       5       0                               0D     58
     128      54                                                00010000D     59
     128       0     -71       4       0                               0D     60
     128      58                                                00010000D     61
     128       0     -71       4       0                               0D     62
     128      62                                                00010000D     63
     128       0     -71       5       0                               0D     64
     502      67                                                00010000D     65
     502                       4       1                               0D     66
     504      71                                                00010001D     67
     504                       3       1                               0D     68
     406      74                                                00000000D     69
     406                       1      15                               0D     70
     314      75                                                00000200D     71
     314                       1       0                               0D     72
     314      76                                                00000200D     73
     314                       2       0                               0D     74
186,3,1,0,0,1,69;                                                      1P      1
514,6,5,1,7,1,9,1,11,1,13,1,15,1;                                      3P      2
510,53,1,1,17;                                                         5P      3
510,55,1,1,19;                                                         7P      4
510,57,1,1,21;                                                         9P      5
510,59,1,1,23;                                                        11P      6
510,61,1,1,25;                                                        13P      7
510,63,1,1,27;                                                        15P      8
508,4,0,67,1,0,0,0,67,2,1,0,0,67,3,0,0,0,67,4,0,0;                    17P      9
508,4,0,67,5,0,0,0,67,4,1,0,0,67,6,0,0,0,67,7,0,0;                    19P     10
508,4,0,67,8,0,0,0,67,7,1,0,0,67,9,0,0,0,67,10,0,0;                   21P     11
508,4,0,67,11,0,0,0,67,10,1,0,0,67,12,0,0,0,67,2,0,0;                 23P     12
508,4,0,67,12,1,0,0,67,9,1,0,0,67,6,1,0,0,67,3,1,0;                   25P     13
508,4,0,67,11,1,0,0,67,1,1,0,0,67,5,1,0,0,67,8,1,0;                   27P     14
126,1,1,0,0,1,0,0.,0.,110.,110.,1.,1.,0.,2.55216392942309D-16,        29P     15
2.458,0.,-1.42059028701092D-17,1.358,0.,110.,0.,0.,0.;                29P     16
126,1,1,0,0,1,0,0.,0.,91.,91.,1.,1.,0.,2.55216392942309D-16,          31P     17
2.458,0.,0.91,2.458,0.,91.,0.,0.,0.;                                  31P     18
126,1,1,0,0,1,0,-110.,-110.,0.,0.,1.,1.,0.,0.91,1.358,0.,0.91,        33P     19
2.458,-110.,0.,0.,0.,0.;                                              33P     20
126,1,1,0,0,1,0,0.,0.,91.,91.,1.,1.,0.,-1.42059028701093D-17,         35P     21
1.358,0.,0.91,1.358,0.,91.,0.,0.,0.;                                  35P     22
126,1,1,0,0,1,0,0.,0.,50.,50.,1.,1.,0.,-1.42059028701093D-17,         37P     23
1.358,0.5,-1.42059028701093D-17,1.358,0.,50.,0.,0.,0.;                37P     24
126,1,1,0,0,1,0,-50.,-50.,0.,0.,1.,1.,0.5,0.91,1.358,0.,0.91,         39P     25
1.358,-50.,0.,0.,0.,0.;                                               39P     26
126,1,1,0,0,1,0,0.,0.,91.,91.,1.,1.,0.5,-1.42059028701093D-17,        41P     27
1.358,0.5,0.91,1.358,0.,91.,0.,0.,0.;                                 41P     28
126,1,1,0,0,1,0,0.,0.,110.,110.,1.,1.,0.5,-1.42059028701093D-17,      43P     29
1.358,0.5,2.55216392942308D-16,2.458,0.,110.,0.,0.,0.;                43P     30
126,1,1,0,0,1,0,-110.,-110.,0.,0.,1.,1.,0.5,0.91,2.458,0.5,0.91,      45P     31
1.358,-110.,0.,0.,0.,0.;                                              45P     32
126,1,1,0,0,1,0,0.,0.,91.,91.,1.,1.,0.5,2.55216392942309D-16,         47P     33
2.458,0.5,0.91,2.458,0.,91.,0.,0.,0.;                                 47P     34
126,1,1,0,0,1,0,0.,0.,50.,50.,1.,1.,0.5,2.55216392942309D-16,         49P     35
2.458,0.,2.55216392942309D-16,2.458,0.,50.,0.,0.,0.;                  49P     36
126,1,1,0,0,1,0,-50.,-50.,0.,0.,1.,1.,0.,0.91,2.458,0.5,0.91,         51P     37
2.458,-50.,0.,0.,0.,0.;                                               51P     38
128,1,1,1,1,0,0,1,0,0,-0.00100000000001171,-0.00100000000001171,      53P     39
110.001,110.001,-0.001,-0.001,91.001,91.001,1.,1.,1.,1.,0.,           53P     40
-1.00000000000142D-5,1.35799,0.,-9.99999999974478D-6,2.45801,0.,      53P     41
0.91001,1.35799,0.,0.910010000000001,2.45801,                         53P     42
-0.00100000000001171,110.001,-0.001,91.001;                           53P     43
128,1,1,1,1,0,0,1,0,0,-0.001,-0.001,50.001,50.001,-0.001,-0.001,      55P     44
91.001,91.001,1.,1.,1.,1.,0.50001,-1.00000000000142D-5,1.358,         55P     45
-9.99999999997669D-6,-1.00000000000142D-5,1.358,0.50001,0.91001,      55P     46
1.358,-9.99999999997669D-6,0.91001,1.358,-0.001,50.001,-0.001,        55P     47
91.001;                                                               55P     48
128,1,1,1,1,0,0,1,0,0,-0.00100000000001114,-0.00100000000001114,      57P     49
110.001,110.001,-0.001,-0.001,91.001,91.001,1.,1.,1.,1.,0.5,          57P     50
-9.99999999974478D-6,2.45801,0.5,-1.00000000000142D-5,1.35799,        57P     51
0.5,0.91001,2.45801,0.5,0.91001,1.35799,-0.00100000000001114,         57P     52
110.001,-0.001,91.001;                                                57P     53
128,1,1,1,1,0,0,1,0,0,-0.001,-0.001,50.001,50.001,-0.001,-0.001,      59P     54
91.001,91.001,1.,1.,1.,1.,-1D-5,-9.99999999974478D-6,2.458,           59P     55
0.50001,-9.99999999974478D-6,2.458,-1D-5,0.91001,2.458,0.50001,       59P     56
0.91001,2.458,-0.001,50.001,-0.001,91.001;                            59P     57
128,1,1,1,1,0,0,1,0,0,-55.001,-55.001,55.001,55.001,-25.001,          61P     58
-25.001,25.001,25.001,1.,1.,1.,1.,-1.00000000000122D-5,0.91,          61P     59
1.35799,-1.00000000000122D-5,0.91,2.45801,0.50001,0.91,1.35799,       61P     60
0.50001,0.91,2.45801,-55.001,55.001,-25.001,25.001;                   61P     61
128,1,1,1,1,0,0,1,0,0,-25.001,-25.001,25.001,25.001,-55.001,          63P     62
-55.001,55.001,55.001,1.,1.,1.,1.,0.50001,2.55218842235907D-16,       63P     63
2.45801,-1.00000000000122D-5,2.55218842235907D-16,2.45801,            63P     64
0.50001,-1.42083521637076D-17,1.35799,-1.00000000000122D-5,           63P     65
-1.42083521637076D-17,1.35799,-25.001,25.001,-55.001,55.001;          63P     66
502,8,0.,2.55216392942309D-16,2.458,0.,-1.42059028701093D-17,         65P     67
1.358,0.,0.91,2.458,0.,0.91,1.358,0.5,-1.42059028701093D-17,          65P     68
1.358,0.5,0.91,1.358,0.5,2.55216392942309D-16,2.458,0.5,0.91,         65P     69
2.458;                                                                65P     70
504,12,29,65,1,65,2,31,65,1,65,3,33,65,4,65,3,35,65,2,65,4,37,        67P     71
65,2,65,5,39,65,6,65,4,41,65,5,65,6,43,65,5,65,7,45,65,8,65,6,        67P     72
47,65,7,65,8,49,65,7,65,1,51,65,3,65,8;                               67P     73
406,1,5HBody1;                                                        69P     74
314,0.,0.,0.,15HSurface - Matte;                                      71P     75
314,62.7450980392157,62.7450980392157,62.7450980392157,13HSteel       73P     76
- Satin;                                                              73P     77
S      1G      2D     74P     77                                        T      1
