                                                                        S      1
,,10Hjunk boxes,10Hjunk boxes,7Hunknown,7Hunknown,32,38,7,99,15,,1.,6,1HG      1
M,1,0.08,15H20211012.212322,1D-5,10000.,7Hunknown,7Hunknown,11,0,;      G      2
     186       1                                                00000000D      1
     186             -71       1       0                               0D      2
     514       2                                                00010000D      3
     514                       1       1                               0D      4
     510       3                                                00010000D      5
     510             -71       1       1                               0D      6
     510       4                                                00010000D      7
     510             -71       1       1                               0D      8
     510       5                                                00010000D      9
     510             -71       1       1                               0D     10
     510       6                                                00010000D     11
     510             -71       1       1                               0D     12
     510       7                                                00010000D     13
     510             -71       1       1                               0D     14
     510       8                                                00010000D     15
     510             -71       1       1                               0D     16
     508       9                                                00010000D     17
     508                       1       1                               0D     18
     508      10                                                00010000D     19
     508                       1       1                               0D     20
     508      11                                                00010000D     21
     508                       1       1                               0D     22
     508      12                                                00010000D     23
     508                       1       1                               0D     24
     508      13                                                00010000D     25
     508                       1       1                               0D     26
     508      14                                                00010000D     27
     508                       1       1                               0D     28
     126      15                                                00010000D     29
     126       0               2       0                               0D     30
     126      17                                                00010000D     31
     126       0               2       0                               0D     32
     126      19                                                00010000D     33
     126       0               2       0                               0D     34
     126      21                                                00010000D     35
     126       0               2       0                               0D     36
     126      23                                                00010000D     37
     126       0               2       0                               0D     38
     126      25                                                00010000D     39
     126       0               2       0                               0D     40
     126      27                                                00010000D     41
     126       0               2       0                               0D     42
     126      29                                                00010000D     43
     126       0               2       0                               0D     44
     126      31                                                00010000D     45
     126       0               2       0                               0D     46
     126      33                                                00010000D     47
     126       0               2       0                               0D     48
     126      35                                                00010000D     49
     126       0               2       0                               0D     50
     126      37                                                00010000D     51
     126       0               2       0                               0D     52
     128      39                                                00010000D     53
     128       0     -71       4       0                               0D     54
     128      43                                                00010000D     55
     128       0     -71       4       0                               0D     56
     128      47                                                00010000D     57
     128       0     -71       4       0                               0D     58
     128      51                                                00010000D     59
     128       0     -71       4       0                               0D     60
     128      55                                                00010000D     61
     128       0     -71       4       0                               0D     62
     128      59                                                00010000D     63
     128       0     -71       4       0                               0D     64
     502      63                                                00010000D     65
     502                       3       1                               0D     66
     504      66                                                00010001D     67
     504                       3       1                               0D     68
     406      69                                                00000000D     69
     406                       1      15                               0D     70
     314      70                                                00000200D     71
     314                       2       0                               0D     72
186,3,1,0,0,1,69;                                                      1P      1
514,6,5,1,7,1,9,1,11,1,13,1,15,1;                                      3P      2
510,53,1,1,17;                                                         5P      3
510,55,1,1,19;                                                         7P      4
510,57,1,1,21;                                                         9P      5
510,59,1,1,23;                                                        11P      6
510,61,1,1,25;                                                        13P      7
510,63,1,1,27;                                                        15P      8
508,4,0,67,1,0,0,0,67,2,1,0,0,67,3,0,0,0,67,4,0,0;                    17P      9
508,4,0,67,5,0,0,0,67,4,1,0,0,67,6,0,0,0,67,7,0,0;                    19P     10
508,4,0,67,8,0,0,0,67,7,1,0,0,67,9,0,0,0,67,10,0,0;                   21P     11
508,4,0,67,11,0,0,0,67,10,1,0,0,67,12,0,0,0,67,2,0,0;                 23P     12
508,4,0,67,12,1,0,0,67,9,1,0,0,67,6,1,0,0,67,3,1,0;                   25P     13
508,4,0,67,11,1,0,0,67,1,1,0,0,67,5,1,0,0,67,8,1,0;                   27P     14
126,1,1,0,0,1,0,0.,0.,45.,45.,1.,1.,2.909,0.,2.251,2.909,0.,          29P     15
2.701,0.,45.,0.,0.,0.;                                                29P     16
126,1,1,0,0,1,0,0.,0.,100.,100.,1.,1.,2.909,0.,2.251,2.909,1.,        31P     17
2.251,0.,100.,0.,0.,0.;                                               31P     18
126,1,1,0,0,1,0,-45.,-45.,0.,0.,1.,1.,2.909,1.,2.701,2.909,1.,        33P     19
2.251,-45.,0.,0.,0.,0.;                                               33P     20
126,1,1,0,0,1,0,0.,0.,100.,100.,1.,1.,2.909,0.,2.701,2.909,1.,        35P     21
2.701,0.,100.,0.,0.,0.;                                               35P     22
126,1,1,0,0,1,0,0.,0.,90.,90.,1.,1.,2.909,0.,2.701,2.009,0.,          37P     23
2.701,0.,90.,0.,0.,0.;                                                37P     24
126,1,1,0,0,1,0,-90.,-90.,0.,0.,1.,1.,2.009,1.,2.701,2.909,1.,        39P     25
2.701,-90.,0.,0.,0.,0.;                                               39P     26
126,1,1,0,0,1,0,0.,0.,100.,100.,1.,1.,2.009,0.,2.701,2.009,1.,        41P     27
2.701,0.,100.,0.,0.,0.;                                               41P     28
126,1,1,0,0,1,0,95.,95.,140.,140.,1.,1.,2.009,0.,2.701,2.009,0.,      43P     29
2.251,95.,140.,0.,0.,0.;                                              43P     30
126,1,1,0,0,1,0,-140.,-140.,-95.,-95.,1.,1.,2.009,1.,2.251,           45P     31
2.009,1.,2.701,-140.,-95.,0.,0.,0.;                                   45P     32
126,1,1,0,0,1,0,0.,0.,100.,100.,1.,1.,2.009,0.,2.251,2.009,1.,        47P     33
2.251,0.,100.,0.,0.,0.;                                               47P     34
126,1,1,0,0,1,0,100.,100.,190.,190.,1.,1.,2.009,0.,2.251,2.909,       49P     35
0.,2.251,100.,190.,0.,0.,0.;                                          49P     36
126,1,1,0,0,1,0,-190.,-190.,-100.,-100.,1.,1.,2.909,1.,2.251,         51P     37
2.009,1.,2.251,-190.,-100.,0.,0.,0.;                                  51P     38
128,1,1,1,1,0,0,1,0,0,94.999,94.999,140.001,140.001,-0.001,           53P     39
-0.001,100.001,100.001,1.,1.,1.,1.,2.909,-1D-5,2.70101,2.909,         53P     40
-1D-5,2.25099,2.909,1.00001,2.70101,2.909,1.00001,2.25099,            53P     41
94.999,140.001,-0.001,100.001;                                        53P     42
128,1,1,1,1,0,0,1,0,0,99.999,99.999,190.001,190.001,-0.001,           55P     43
-0.001,100.001,100.001,1.,1.,1.,1.,2.00899,-1D-5,2.701,2.90901,       55P     44
-1D-5,2.701,2.00899,1.00001,2.701,2.90901,1.00001,2.701,99.999,       55P     45
190.001,-0.001,100.001;                                               55P     46
128,1,1,1,1,0,0,1,0,0,-0.001,-0.001,45.001,45.001,-0.001,-0.001,      57P     47
100.001,100.001,1.,1.,1.,1.,2.009,-1D-5,2.25099,2.009,-1D-5,          57P     48
2.70101,2.009,1.00001,2.25099,2.009,1.00001,2.70101,-0.001,           57P     49
45.001,-0.001,100.001;                                                57P     50
128,1,1,1,1,0,0,1,0,0,-0.001,-0.001,90.001,90.001,-0.001,-0.001,      59P     51
100.001,100.001,1.,1.,1.,1.,2.90901,-1D-5,2.251,2.00899,-1D-5,        59P     52
2.251,2.90901,1.00001,2.251,2.00899,1.00001,2.251,-0.001,90.001,      59P     53
-0.001,100.001;                                                       59P     54
128,1,1,1,1,0,0,1,0,0,-70.001,-70.001,-24.999,-24.999,                61P     55
4.99899999999997,4.99899999999997,95.001,95.001,1.,1.,1.,1.,          61P     56
2.00899,1.,2.25099,2.00899,1.,2.70101,2.90901,1.,2.25099,             61P     57
2.90901,1.,2.70101,-70.001,-24.999,4.99899999999997,95.001;           61P     58
128,1,1,1,1,0,0,1,0,0,4.99899999999997,4.99899999999997,95.001,       63P     59
95.001,24.999,24.999,70.001,70.001,1.,1.,1.,1.,2.90901,0.,            63P     60
2.70101,2.00899,0.,2.70101,2.90901,0.,2.25099,2.00899,0.,             63P     61
2.25099,4.99899999999997,95.001,24.999,70.001;                        63P     62
502,8,2.909,0.,2.251,2.909,0.,2.701,2.909,1.,2.251,2.909,1.,          65P     63
2.701,2.009,0.,2.701,2.009,1.,2.701,2.009,0.,2.251,2.009,1.,          65P     64
2.251;                                                                65P     65
504,12,29,65,1,65,2,31,65,1,65,3,33,65,4,65,3,35,65,2,65,4,37,        67P     66
65,2,65,5,39,65,6,65,4,41,65,5,65,6,43,65,5,65,7,45,65,8,65,6,        67P     67
47,65,7,65,8,49,65,7,65,1,51,65,3,65,8;                               67P     68
406,1,5HBody1;                                                        69P     69
314,62.7450980392157,62.7450980392157,62.7450980392157,13HSteel       71P     70
- Satin;                                                              71P     71
S      1G      2D     72P     71                                        T      1
