                                                                        S      1
,,8Hshelving,8Hshelving,7Hunknown,7Hunknown,32,38,7,99,15,,1.,6,1HM,1,  G      1
0.08,15H20211012.212328,1D-5,10000.,7Hunknown,7Hunknown,11,0,;          G      2
     186       1                                                00000000D      1
     186             -71       1       0                               0D      2
     514       2                                                00010000D      3
     514                       1       1                               0D      4
     510       3                                                00010000D      5
     510             -71       1       1                               0D      6
     510       4                                                00010000D      7
     510             -71       1       1                               0D      8
     510       5                                                00010000D      9
     510             -71       1       1                               0D     10
     510       6                                                00010000D     11
     510             -71       1       1                               0D     12
     510       7                                                00010000D     13
     510             -71       1       1                               0D     14
     510       8                                                00010000D     15
     510             -71       1       1                               0D     16
     508       9                                                00010000D     17
     508                       1       1                               0D     18
     508      10                                                00010000D     19
     508                       1       1                               0D     20
     508      11                                                00010000D     21
     508                       1       1                               0D     22
     508      12                                                00010000D     23
     508                       1       1                               0D     24
     508      13                                                00010000D     25
     508                       1       1                               0D     26
     508      14                                                00010000D     27
     508                       1       1                               0D     28
     126      15                                                00010000D     29
     126       0               3       0                               0D     30
     126      18                                                00010000D     31
     126       0               3       0                               0D     32
     126      21                                                00010000D     33
     126       0               2       0                               0D     34
     126      23                                                00010000D     35
     126       0               3       0                               0D     36
     126      26                                                00010000D     37
     126       0               3       0                               0D     38
     126      29                                                00010000D     39
     126       0               3       0                               0D     40
     126      32                                                00010000D     41
     126       0               3       0                               0D     42
     126      35                                                00010000D     43
     126       0               3       0                               0D     44
     126      38                                                00010000D     45
     126       0               3       0                               0D     46
     126      41                                                00010000D     47
     126       0               3       0                               0D     48
     126      44                                                00010000D     49
     126       0               3       0                               0D     50
     126      47                                                00010000D     51
     126       0               2       0                               0D     52
     128      49                                                00010000D     53
     128       0     -71       6       0                               0D     54
     128      55                                                00010000D     55
     128       0     -71       7       0                               0D     56
     128      62                                                00010000D     57
     128       0     -71       6       0                               0D     58
     128      68                                                00010000D     59
     128       0     -71       6       0                               0D     60
     128      74                                                00010000D     61
     128       0     -71       5       0                               0D     62
     128      79                                                00010000D     63
     128       0     -71       7       0                               0D     64
     502      86                                                00010000D     65
     502                       6       1                               0D     66
     504      92                                                00010001D     67
     504                       3       1                               0D     68
     406      95                                                00000000D     69
     406                       1      15                               0D     70
     314      96                                                00000200D     71
     314                       2       0                               0D     72
186,3,1,0,0,1,69;                                                      1P      1
514,6,5,1,7,1,9,1,11,1,13,1,15,1;                                      3P      2
510,53,1,1,17;                                                         5P      3
510,55,1,1,19;                                                         7P      4
510,57,1,1,21;                                                         9P      5
510,59,1,1,23;                                                        11P      6
510,61,1,1,25;                                                        13P      7
510,63,1,1,27;                                                        15P      8
508,4,0,67,1,0,0,0,67,2,1,0,0,67,3,0,0,0,67,4,0,0;                    17P      9
508,4,0,67,5,0,0,0,67,4,1,0,0,67,6,0,0,0,67,7,0,0;                    19P     10
508,4,0,67,8,0,0,0,67,7,1,0,0,67,9,0,0,0,67,10,0,0;                   21P     11
508,4,0,67,11,0,0,0,67,10,1,0,0,67,12,0,0,0,67,2,0,0;                 23P     12
508,4,0,67,12,1,0,0,67,9,1,0,0,67,6,1,0,0,67,3,1,0;                   25P     13
508,4,0,67,11,1,0,0,67,1,1,0,0,67,5,1,0,0,67,8,1,0;                   27P     14
126,1,1,0,0,1,0,0.,0.,91.,91.,1.,1.,-0.0310000000000275,              29P     15
-3.7964050773673D-18,0.91,-0.0310000000000275,                        29P     16
-3.79640507736017D-18,0.,0.,91.,0.,0.,0.;                             29P     17
126,1,1,0,0,1,0,0.,0.,183.,183.,1.,1.,-0.0310000000000275,            31P     18
-3.7964050773673D-18,0.91,-0.0310000000000277,1.83,0.91,0.,183.,      31P     19
0.,0.,0.;                                                             31P     20
126,1,1,0,0,1,0,-91.,-91.,0.,0.,1.,1.,-0.0310000000000277,1.83,       33P     21
0.,-0.0310000000000277,1.83,0.91,-91.,0.,0.,0.,0.;                    33P     22
126,1,1,0,0,1,0,0.,0.,183.,183.,1.,1.,-0.0310000000000275,            35P     23
-3.79640507736017D-18,0.,-0.0310000000000277,1.83,                    35P     24
1.43315944258102D-29,0.,183.,0.,0.,0.;                                35P     25
126,1,1,0,0,1,0,0.,0.,41.,41.,1.,1.,-0.0310000000000275,              37P     26
-3.79640507736017D-18,0.,0.378999999999972,4.64141136876813D-17,      37P     27
0.,0.,41.,0.,0.,0.;                                                   37P     28
126,1,1,0,0,1,0,-41.,-41.,0.,0.,1.,1.,0.378999999999972,1.83,         39P     29
1.43315944258102D-29,-0.0310000000000277,1.83,                        39P     30
1.43315944258102D-29,-41.,0.,0.,0.,0.;                                39P     31
126,1,1,0,0,1,0,0.,0.,183.,183.,1.,1.,0.378999999999972,              41P     32
4.64141136876813D-17,0.,0.378999999999972,1.83,                       41P     33
1.43315944258102D-29,0.,183.,0.,0.,0.;                                41P     34
126,1,1,0,0,1,0,0.,0.,91.,91.,1.,1.,0.378999999999972,                43P     35
4.64141136876813D-17,0.,0.378999999999972,4.64141136876742D-17,       43P     36
0.91,0.,91.,0.,0.,0.;                                                 43P     37
126,1,1,0,0,1,0,-91.,-91.,0.,0.,1.,1.,0.378999999999972,1.83,         45P     38
0.91,0.378999999999972,1.83,1.43315944258102D-29,-91.,0.,0.,0.,       45P     39
0.;                                                                   45P     40
126,1,1,0,0,1,0,0.,0.,183.,183.,1.,1.,0.378999999999972,              47P     41
4.64141136876742D-17,0.91,0.378999999999972,1.83,0.91,0.,183.,        47P     42
0.,0.,0.;                                                             47P     43
126,1,1,0,0,1,0,0.,0.,41.,41.,1.,1.,0.378999999999972,                49P     44
4.64141136876742D-17,0.91,-0.0310000000000275,                        49P     45
-3.7964050773673D-18,0.91,0.,41.,0.,0.,0.;                            49P     46
126,1,1,0,0,1,0,-41.,-41.,0.,0.,1.,1.,-0.0310000000000277,1.83,       51P     47
0.91,0.378999999999972,1.83,0.91,-41.,0.,0.,0.,0.;                    51P     48
128,1,1,1,1,0,0,1,0,0,-0.001,-0.001,91.001,91.001,-0.001,-0.001,      53P     49
183.001,183.001,1.,1.,1.,1.,-0.0310000000000275,                      53P     50
-1.00000000000038D-5,-1D-5,-0.0310000000000275,                       53P     51
-1.00000000000038D-5,0.91001,-0.0310000000000277,1.83001,-1D-5,       53P     52
-0.0310000000000277,1.83001,0.91001,-0.001,91.001,-0.001,             53P     53
183.001;                                                              53P     54
128,1,1,1,1,0,0,1,0,0,-0.0010000000000026,-0.0010000000000026,        55P     55
41.001,41.001,-0.001,-0.001,183.001,183.001,1.,1.,1.,1.,              55P     56
0.379009999999973,-9.99999999995359D-6,-7.83147236383072D-35,         55P     57
-0.0310100000000275,-1.00000000000038D-5,-7.83147236383072D-35,       55P     58
0.379009999999972,1.83001,1.43316727405339D-29,                       55P     59
-0.0310100000000277,1.83001,1.43316727405339D-29,                     55P     60
-0.0010000000000026,41.001,-0.001,183.001;                            55P     61
128,1,1,1,1,0,0,1,0,0,-0.001,-0.001,91.001,91.001,-0.001,-0.001,      57P     62
183.001,183.001,1.,1.,1.,1.,0.378999999999972,                        57P     63
-9.99999999995359D-6,0.91001,0.378999999999972,                       57P     64
-9.99999999995359D-6,-1.00000000000477D-5,0.378999999999972,          57P     65
1.83001,0.91001,0.378999999999972,1.83001,-1.00000000000477D-5,       57P     66
-0.001,91.001,-0.001,183.001;                                         57P     67
128,1,1,1,1,0,0,1,0,0,-0.0010000000000222,-0.0010000000000222,        59P     68
41.001,41.001,-0.001,-0.001,183.001,183.001,1.,1.,1.,1.,              59P     69
-0.0310100000000277,-1.00000000000038D-5,0.91,0.379009999999972,      59P     70
-9.99999999995359D-6,0.91,-0.031010000000028,1.83001,0.91,            59P     71
0.379009999999972,1.83001,0.91,-0.0010000000000222,41.001,            59P     72
-0.001,183.001;                                                       59P     73
128,1,1,1,1,0,0,1,0,0,-45.501,-45.501,45.501,45.501,-20.501,          61P     74
-20.501,20.501,20.501,1.,1.,1.,1.,-0.0310100000000277,1.83,           61P     75
-9.99999999997669D-6,-0.0310100000000277,1.83,0.91001,                61P     76
0.379009999999972,1.83,-9.99999999997669D-6,0.379009999999972,        61P     77
1.83,0.91001,-45.501,45.501,-20.501,20.501;                           61P     78
128,1,1,1,1,0,0,1,0,0,-20.501,-20.501,20.501,20.501,-45.501,          63P     79
-45.501,45.501,45.501,1.,1.,1.,1.,0.379009999999973,                  63P     80
4.64153383344733D-17,0.91001,-0.0310100000000275,                     63P     81
-3.79762972416645D-18,0.91001,0.379009999999973,                      63P     82
4.64153383344805D-17,-1.00000000000477D-5,-0.0310100000000275,        63P     83
-3.79762972415932D-18,-9.99999999997669D-6,-20.501,20.501,            63P     84
-45.501,45.501;                                                       63P     85
502,8,-0.0310000000000275,-3.7964050773673D-18,0.91,                  65P     86
-0.0310000000000275,-3.79640507736017D-18,0.,                         65P     87
-0.0310000000000277,1.83,0.91,-0.0310000000000277,1.83,               65P     88
1.43315944258102D-29,0.378999999999972,4.64141136876813D-17,0.,       65P     89
0.378999999999972,1.83,1.43315944258102D-29,0.378999999999972,        65P     90
4.64141136876742D-17,0.91,0.378999999999972,1.83,0.91;                65P     91
504,12,29,65,1,65,2,31,65,1,65,3,33,65,4,65,3,35,65,2,65,4,37,        67P     92
65,2,65,5,39,65,6,65,4,41,65,5,65,6,43,65,5,65,7,45,65,8,65,6,        67P     93
47,65,7,65,8,49,65,7,65,1,51,65,3,65,8;                               67P     94
406,1,5HBody1;                                                        69P     95
314,62.7450980392157,62.7450980392157,62.7450980392157,13HSteel       71P     96
- Satin;                                                              71P     97
S      1G      2D     72P     97                                        T      1
