                                                                        S      1
,,20Hsmall chest of draws,20Hsmall chest of draws,7Hunknown,7Hunknown,  G      1
32,38,7,99,15,,1.,6,1HM,1,0.08,15H20211012.212325,1D-5,10000.,7Hunknown,G      2
7Hunknown,11,0,;                                                        G      3
     186       1                                                00000000D      1
     186             -71       1       0                               0D      2
     514       2                                                00010000D      3
     514                       1       1                               0D      4
     510       3                                                00010000D      5
     510             -71       1       1                               0D      6
     510       4                                                00010000D      7
     510             -71       1       1                               0D      8
     510       5                                                00010000D      9
     510             -71       1       1                               0D     10
     510       6                                                00010000D     11
     510             -71       1       1                               0D     12
     510       7                                                00010000D     13
     510             -71       1       1                               0D     14
     510       8                                                00010000D     15
     510             -71       1       1                               0D     16
     508       9                                                00010000D     17
     508                       1       1                               0D     18
     508      10                                                00010000D     19
     508                       1       1                               0D     20
     508      11                                                00010000D     21
     508                       1       1                               0D     22
     508      12                                                00010000D     23
     508                       1       1                               0D     24
     508      13                                                00010000D     25
     508                       1       1                               0D     26
     508      14                                                00010000D     27
     508                       1       1                               0D     28
     126      15                                                00010000D     29
     126       0               2       0                               0D     30
     126      17                                                00010000D     31
     126       0               2       0                               0D     32
     126      19                                                00010000D     33
     126       0               2       0                               0D     34
     126      21                                                00010000D     35
     126       0               2       0                               0D     36
     126      23                                                00010000D     37
     126       0               2       0                               0D     38
     126      25                                                00010000D     39
     126       0               3       0                               0D     40
     126      28                                                00010000D     41
     126       0               2       0                               0D     42
     126      30                                                00010000D     43
     126       0               2       0                               0D     44
     126      32                                                00010000D     45
     126       0               2       0                               0D     46
     126      34                                                00010000D     47
     126       0               2       0                               0D     48
     126      36                                                00010000D     49
     126       0               2       0                               0D     50
     126      38                                                00010000D     51
     126       0               2       0                               0D     52
     128      40                                                00010000D     53
     128       0     -71       5       0                               0D     54
     128      45                                                00010000D     55
     128       0     -71       4       0                               0D     56
     128      49                                                00010000D     57
     128       0     -71       4       0                               0D     58
     128      53                                                00010000D     59
     128       0     -71       4       0                               0D     60
     128      57                                                00010000D     61
     128       0     -71       5       0                               0D     62
     128      62                                                00010000D     63
     128       0     -71       5       0                               0D     64
     502      67                                                00010000D     65
     502                       3       1                               0D     66
     504      70                                                00010001D     67
     504                       3       1                               0D     68
     406      73                                                00000000D     69
     406                       1      15                               0D     70
     314      74                                                00000200D     71
     314                       1       0                               0D     72
     314      75                                                00000200D     73
     314                       2       0                               0D     74
186,3,1,0,0,1,69;                                                      1P      1
514,6,5,1,7,1,9,1,11,1,13,1,15,1;                                      3P      2
510,53,1,1,17;                                                         5P      3
510,55,1,1,19;                                                         7P      4
510,57,1,1,21;                                                         9P      5
510,59,1,1,23;                                                        11P      6
510,61,1,1,25;                                                        13P      7
510,63,1,1,27;                                                        15P      8
508,4,0,67,1,1,0,0,67,2,1,0,0,67,3,0,0,0,67,4,0,0;                    17P      9
508,4,0,67,5,1,0,0,67,4,1,0,0,67,6,0,0,0,67,7,0,0;                    19P     10
508,4,0,67,8,1,0,0,67,7,1,0,0,67,9,0,0,0,67,10,0,0;                   21P     11
508,4,0,67,11,1,0,0,67,10,1,0,0,67,12,0,0,0,67,2,0,0;                 23P     12
508,4,0,67,12,1,0,0,67,9,1,0,0,67,6,1,0,0,67,3,1,0;                   25P     13
508,4,0,67,11,0,0,0,67,1,0,0,0,67,5,0,0,0,67,8,0,0;                   27P     14
126,1,1,0,0,1,0,0.,0.,63.48984,63.48984,1.,1.,0.6348984,0.,           29P     15
3.2145264,0.,0.,3.2145264,0.,63.48984,0.,0.,0.;                       29P     16
126,1,1,0,0,1,0,0.,0.,66.69024,66.69024,1.,1.,0.,0.,3.2145264,        31P     17
0.,0.6669024,3.2145264,0.,66.69024,0.,0.,0.;                          31P     18
126,1,1,0,0,1,0,0.,0.,63.48984,63.48984,1.,1.,0.6348984,              33P     19
0.6669024,3.2145264,0.,0.6669024,3.2145264,0.,63.48984,0.,0.,0.;      33P     20
126,1,1,0,0,1,0,0.,0.,66.69024,66.69024,1.,1.,0.6348984,0.,           35P     21
3.2145264,0.6348984,0.6669024,3.2145264,0.,66.69024,0.,0.,0.;         35P     22
126,1,1,0,0,1,0,0.,0.,43.64736,43.64736,1.,1.,0.6348984,0.,           37P     23
3.651,0.6348984,0.,3.2145264,0.,43.64736,0.,0.,0.;                    37P     24
126,1,1,0,0,1,0,0.,0.,43.64736,43.64736,1.,1.,0.6348984,              39P     25
0.6669024,3.651,0.6348984,0.6669024,3.2145264,0.,43.64736,0.,0.,      39P     26
0.;                                                                   39P     27
126,1,1,0,0,1,0,0.,0.,66.69024,66.69024,1.,1.,0.6348984,0.,           41P     28
3.651,0.6348984,0.6669024,3.651,0.,66.69024,0.,0.,0.;                 41P     29
126,1,1,0,0,1,0,0.,0.,63.48984,63.48984,1.,1.,0.,0.,3.651,            43P     30
0.6348984,0.,3.651,0.,63.48984,0.,0.,0.;                              43P     31
126,1,1,0,0,1,0,0.,0.,63.48984,63.48984,1.,1.,0.,0.6669024,           45P     32
3.651,0.6348984,0.6669024,3.651,0.,63.48984,0.,0.,0.;                 45P     33
126,1,1,0,0,1,0,0.,0.,66.69024,66.69024,1.,1.,0.,0.,3.651,0.,         47P     34
0.6669024,3.651,0.,66.69024,0.,0.,0.;                                 47P     35
126,1,1,0,0,1,0,0.,0.,43.64736,43.64736,1.,1.,0.,0.,3.2145264,        49P     36
0.,0.,3.651,0.,43.64736,0.,0.,0.;                                     49P     37
126,1,1,0,0,1,0,0.,0.,43.64736,43.64736,1.,1.,0.,0.6669024,           51P     38
3.2145264,0.,0.6669024,3.651,0.,43.64736,0.,0.,0.;                    51P     39
128,1,1,1,1,0,0,1,0,0,-0.001,-0.001,63.49084,63.49084,-0.001,         53P     40
-0.001,66.69124,66.69124,1.,1.,1.,1.,0.6349084,-1D-5,3.2145264,       53P     41
-9.99999999997669D-6,-1D-5,3.2145264,0.6349084,0.6669124,             53P     42
3.2145264,-9.99999999997669D-6,0.6669124,3.2145264,-0.001,            53P     43
63.49084,-0.001,66.69124;                                             53P     44
128,1,1,1,1,0,0,1,0,0,-0.001,-0.001,43.64836,43.64836,-0.001,         55P     45
-0.001,66.69124,66.69124,1.,1.,1.,1.,0.6348984,-1D-5,3.65101,         55P     46
0.6348984,-1D-5,3.2145164,0.6348984,0.6669124,3.65101,0.6348984,      55P     47
0.6669124,3.2145164,-0.001,43.64836,-0.001,66.69124;                  55P     48
128,1,1,1,1,0,0,1,0,0,-0.001,-0.001,63.49084,63.49084,-0.001,         57P     49
-0.001,66.69124,66.69124,1.,1.,1.,1.,-1D-5,-1D-5,3.651,               57P     50
0.6349084,-1D-5,3.651,-1D-5,0.6669124,3.651,0.6349084,0.6669124,      57P     51
3.651,-0.001,63.49084,-0.001,66.69124;                                57P     52
128,1,1,1,1,0,0,1,0,0,-0.001,-0.001,43.64836,43.64836,-0.001,         59P     53
-0.001,66.69124,66.69124,1.,1.,1.,1.,0.,-1D-5,3.2145164,0.,           59P     54
-1D-5,3.65101,0.,0.6669124,3.2145164,0.,0.6669124,3.65101,            59P     55
-0.001,43.64836,-0.001,66.69124;                                      59P     56
128,1,1,1,1,0,0,1,0,0,-21.82468,-21.82468,21.82468,21.82468,          61P     57
-31.74592,-31.74592,31.74592,31.74592,1.,1.,1.,1.,                    61P     58
-1.00000000000122D-5,0.6669024,3.2145164,-1.00000000000122D-5,        61P     59
0.6669024,3.65101,0.6349084,0.6669024,3.2145164,0.6349084,            61P     60
0.6669024,3.65101,-21.82468,21.82468,-31.74592,31.74592;              61P     61
128,1,1,1,1,0,0,1,0,0,-31.74592,-31.74592,31.74592,31.74592,          63P     62
-21.82468,-21.82468,21.82468,21.82468,1.,1.,1.,1.,0.6349084,0.,       63P     63
3.65101,-1.00000000000122D-5,0.,3.65101,0.6349084,0.,3.2145164,       63P     64
-1.00000000000122D-5,0.,3.2145164,-31.74592,31.74592,-21.82468,       63P     65
21.82468;                                                             63P     66
502,8,0.6348984,0.,3.2145264,0.,0.,3.2145264,0.,0.6669024,            65P     67
3.2145264,0.6348984,0.6669024,3.2145264,0.6348984,0.,3.651,           65P     68
0.6348984,0.6669024,3.651,0.,0.,3.651,0.,0.6669024,3.651;             65P     69
504,12,29,65,1,65,2,31,65,2,65,3,33,65,4,65,3,35,65,1,65,4,37,        67P     70
65,5,65,1,39,65,6,65,4,41,65,5,65,6,43,65,7,65,5,45,65,8,65,6,        67P     71
47,65,7,65,8,49,65,2,65,7,51,65,3,65,8;                               67P     72
406,1,5HBody1;                                                        69P     73
314,0.,0.,0.,4HPine;                                                  71P     74
314,62.7450980392157,62.7450980392157,62.7450980392157,13HSteel       73P     75
- Satin;                                                              73P     76
S      1G      3D     74P     76                                        T      1
