0
SECTION
2
HEADER
9
$INSUNITS
70
4
9
$ACADVER
1
AC1014
9
$HANDSEED
5
FFFF
0
ENDSEC
0
SECTION
2
TABLES
0
TABLE
2
VPORT
5
8
100
AcDbSymbolTable
0
ENDTAB
0
TABLE
2
LTYPE
5
5
100
AcDbSymbolTable
0
LTYPE
5
14
100
AcDbSymbolTableRecord
100
AcDbLinetypeTableRecord
2
BYBLOCK
70
0
0
LTYPE
5
15
100
AcDbSymbolTableRecord
100
AcDbLinetypeTableRecord
2
BYLAYER
70
0
0
ENDTAB
0
TABLE
2
LAYER
5
2
100
AcDbSymbolTable
70
2
0
LAYER
5
50
100
AcDbSymbolTableRecord
100
AcDbLayerTableRecord
2
0
70
0
6
CONTINUOUS
0
ENDTAB
0
TABLE
2
STYLE
5
3
100
AcDbSymbolTable
70
1
0
STYLE
5
11
100
AcDbSymbolTableRecord
100
AcDbTextStyleTableRecord
2
STANDARD
70
0
0
ENDTAB
0
TABLE
2
VIEW
5
6
100
AcDbSymbolTable
70
0
0
ENDTAB
0
TABLE
2
UCS
5
7
100
AcDbSymbolTable
70
0
0
ENDTAB
0
TABLE
2
APPID
5
9
100
AcDbSymbolTable
70
2
0
APPID
5
12
100
AcDbSymbolTableRecord
100
AcDbRegAppTableRecord
2
ACAD
70
0
0
ENDTAB
0
TABLE
2
DIMSTYLE
5
A
100
AcDbSymbolTable
70
1
0
ENDTAB
0
TABLE
2
BLOCK_RECORD
5
1
100
AcDbSymbolTable
70
1
0
BLOCK_RECORD
5
1F
100
AcDbSymbolTableRecord
100
AcDbBlockTableRecord
2
*MODEL_SPACE
0
BLOCK_RECORD
5
1B
100
AcDbSymbolTableRecord
100
AcDbBlockTableRecord
2
*PAPER_SPACE
0
ENDTAB
0
ENDSEC
0
SECTION
2
BLOCKS
0
BLOCK
5
20
100
AcDbEntity
100
AcDbBlockBegin
2
*MODEL_SPACE
0
ENDBLK
5
21
100
AcDbEntity
100
AcDbBlockEnd
0
BLOCK
5
1C
100
AcDbEntity
100
AcDbBlockBegin
2
*PAPER_SPACE
0
ENDBLK
5
1D
100
AcDbEntity
100
AcDbBlockEnd
0
ENDSEC
0
SECTION
2
ENTITIES
0
LWPOLYLINE
5
100
100
AcDbEntity
8
0
100
AcDbPolyline
90
20
70
1
43
0.0
10
25.127852712626002
20
8.1301269339855544
10
25.127852712626002
20
6.9224989142625626
10
32.488090350572058
20
6.9224989143145441
42
0.18859373176538591
10
29.228434565333945
20
12.186996807462611
42
0.16508544104652198
10
-26.984050806285367
20
30.588848846782351
42
0.33940447236849919
10
-46.618562920382594
20
15.184188697666091
42
0.12622679272945994
10
-46.618562920382594
20
-7.5841888675394085
42
0.33940447236849935
10
-26.984050806285325
20
-22.988849016655664
42
0.16508544104652192
10
29.228434565333991
20
-4.5869969773358612
42
0.18859373176554334
10
32.488090350573003
20
0.6775009158173062
10
25.127852712626002
20
0.67750091586416539
10
25.127852712626002
20
-0.53012710385883066
10
31.108370693294766
20
-0.53012710385884343
42
-0.13909500330262706
10
28.6283661120742
20
-3.7870483218570161
42
-0.16508544104652195
10
-26.973198520451263
20
-21.988907904443423
42
-0.33940447236849919
10
-45.649929555812051
20
-7.3356945918694478
42
-0.12622679272946
10
-45.649929555812037
20
14.935694421996173
42
-0.3394044723684993
10
-26.973198520451209
20
29.588907734570164
42
-0.16508544104652184
10
28.628366112074211
20
11.387048151983727
42
-0.13909500330262548
10
31.10837069329472
20
8.1301269339855562
0
LWPOLYLINE
5
101
100
AcDbEntity
8
0
100
AcDbPolyline
90
20
70
1
43
0.0
10
33.612772571002772
20
5.9224989142625617
10
24.127852712625998
20
5.9224989142625617
10
24.127852712625998
20
9.1301269339855562
10
29.442195934723419
20
9.1301269339855615
42
0.078568204644214268
10
28.028297658814427
20
10.587099496504884
42
0.16508544104652201
10
-26.962346234617165
20
28.588966622357937
42
0.33940447236849919
10
-44.681296191241515
20
14.687200146326202
42
0.12622679272946005
10
-44.681296191241493
20
-7.0872003161995227
42
0.3394044723684993
10
-26.962346234617122
20
-20.988966792231274
42
0.16508544104652192
10
28.028297658814463
20
-2.9870996663781391
42
0.078568204644213172
10
29.442195934723436
20
-1.5301271038588289
10
24.127852712625998
20
-1.5301271038588282
10
24.127852712625998
20
1.6775009158641652
10
33.612772571002758
20
1.6775009158641714
42
-0.22122062580960594
10
29.828503018593707
20
-5.3869456328147542
42
-0.16508544104652184
10
-26.994903092119461
20
-23.988790128867834
42
-0.3394044723684988
10
-47.587196284953151
20
-7.8326831432093318
42
-0.12622679272946
10
-47.587196284953137
20
15.432682973336068
42
-0.33940447236849941
10
-26.994903092119422
20
31.588789958994571
42
-0.16508544104652184
10
29.82850301859375
20
12.986945462941444
42
-0.2212206258096043
0
LWPOLYLINE
5
102
100
AcDbEntity
8
0
100
AcDbPolyline
90
4
70
1
43
0.0
10
31.354688109722911
20
-5.1797647963835747
10
35.592725831657582
20
-5.1797647963835747
10
35.592725831657582
20
16.093301830473216
10
31.354688109722911
20
16.093301830473216
0
LWPOLYLINE
5
103
100
AcDbEntity
8
0
100
AcDbPolyline
90
4
70
1
43
0.0
10
39.366218803162106
20
-0.53012710385883066
10
24.127852712625998
20
-0.53012710385883066
10
24.127852712625998
20
8.1301269339855544
10
39.366218803162106
20
8.1301269339855544
0
ENDSEC
0
SECTION
2
OBJECTS
0
DICTIONARY
5
C
100
AcDbDictionary
3
ACAD_GROUP
350
D
3
ACAD_MLINESTYLE
350
17
0
DICTIONARY
5
D
100
AcDbDictionary
0
DICTIONARY
5
1A
330
C
100
AcDbDictionary
0
DICTIONARY
5
17
100
AcDbDictionary
0
ENDSEC
0
EOF
