0
SECTION
2
HEADER
9
$INSUNITS
70
4
9
$ACADVER
1
AC1014
9
$HANDSEED
5
FFFF
0
ENDSEC
0
SECTION
2
TABLES
0
TABLE
2
VPORT
5
8
100
AcDbSymbolTable
0
ENDTAB
0
TABLE
2
LTYPE
5
5
100
AcDbSymbolTable
0
LTYPE
5
14
100
AcDbSymbolTableRecord
100
AcDbLinetypeTableRecord
2
BYBLOCK
70
0
0
LTYPE
5
15
100
AcDbSymbolTableRecord
100
AcDbLinetypeTableRecord
2
BYLAYER
70
0
0
ENDTAB
0
TABLE
2
LAYER
5
2
100
AcDbSymbolTable
70
2
0
LAYER
5
50
100
AcDbSymbolTableRecord
100
AcDbLayerTableRecord
2
0
70
0
6
CONTINUOUS
0
ENDTAB
0
TABLE
2
STYLE
5
3
100
AcDbSymbolTable
70
1
0
STYLE
5
11
100
AcDbSymbolTableRecord
100
AcDbTextStyleTableRecord
2
STANDARD
70
0
0
ENDTAB
0
TABLE
2
VIEW
5
6
100
AcDbSymbolTable
70
0
0
ENDTAB
0
TABLE
2
UCS
5
7
100
AcDbSymbolTable
70
0
0
ENDTAB
0
TABLE
2
APPID
5
9
100
AcDbSymbolTable
70
2
0
APPID
5
12
100
AcDbSymbolTableRecord
100
AcDbRegAppTableRecord
2
ACAD
70
0
0
ENDTAB
0
TABLE
2
DIMSTYLE
5
A
100
AcDbSymbolTable
70
1
0
ENDTAB
0
TABLE
2
BLOCK_RECORD
5
1
100
AcDbSymbolTable
70
1
0
BLOCK_RECORD
5
1F
100
AcDbSymbolTableRecord
100
AcDbBlockTableRecord
2
*MODEL_SPACE
0
BLOCK_RECORD
5
1B
100
AcDbSymbolTableRecord
100
AcDbBlockTableRecord
2
*PAPER_SPACE
0
ENDTAB
0
ENDSEC
0
SECTION
2
BLOCKS
0
BLOCK
5
20
100
AcDbEntity
100
AcDbBlockBegin
2
*MODEL_SPACE
0
ENDBLK
5
21
100
AcDbEntity
100
AcDbBlockEnd
0
BLOCK
5
1C
100
AcDbEntity
100
AcDbBlockBegin
2
*PAPER_SPACE
0
ENDBLK
5
1D
100
AcDbEntity
100
AcDbBlockEnd
0
ENDSEC
0
SECTION
2
ENTITIES
0
LWPOLYLINE
5
100
100
AcDbEntity
8
0
100
AcDbPolyline
90
4
70
1
43
0.0
10
-39.813191358040207
20
124.98924637062373
10
-37.438729468773239
20
124.27832985145869
10
-37.467165652702683
20
127.776040079425
10
-39.813191358040207
20
128.43008423073115
0
LWPOLYLINE
5
101
100
AcDbEntity
8
0
100
AcDbPolyline
90
4
70
1
43
0.0
10
-39.827410046051355
20
111.48182535393062
10
-37.438729468773218
20
110.8562197707397
10
-37.438729468773232
20
119.21660089714351
10
-39.827410046051369
20
120.75218105537715
0
LINE
5
102
100
AcDbEntity
8
0
100
AcDbLine
10
-40.737383429001106
20
37.034608366320754
30
0
11
-40.964877072761787
21
37.091485502551222
31
0
0
SPLINE
5
103
100
AcDbEntity
8
0
100
AcDbSpline
70
0
71
3
72
9
73
5
74
0
42
0.000000001
43
0.0000000001
44
0.0000000001
40
0
40
0
40
0
40
0
40
0.10898429396282884
40
0.28124226820775211
40
0.28124226820775211
40
0.28124226820775211
40
0.28124226820775211
10
-40.964877072761787
20
37.091485502551222
30
0
10
-41.313035651623821
20
37.195223357912255
30
0
10
-42.211485371805885
20
37.462926791864817
30
0
10
-43.113739646287144
20
37.717540591820615
30
0
10
-43.666361037681831
20
37.873488905261169
30
0
0
SPLINE
5
104
100
AcDbEntity
8
0
100
AcDbSpline
70
0
71
3
72
9
73
5
74
0
42
0.000000001
43
0.0000000001
44
0.0000000001
40
0
40
0
40
0
40
0
40
0.12237728859583166
40
0.23615608185254811
40
0.23615608185254811
40
0.23615608185254811
40
0.23615608185254811
10
-43.666361037681831
20
37.873488905261169
30
0
10
-44.056583480640171
20
38.003187904560946
30
0
10
-44.809610486200988
20
38.253472968450467
30
0
10
-45.439001063806124
20
38.735883899493082
30
0
10
-45.742238227318062
20
38.968307020495544
30
0
0
SPLINE
5
105
100
AcDbEntity
8
0
100
AcDbSpline
70
0
71
3
72
9
73
5
74
0
42
0.000000001
43
0.0000000001
44
0.0000000001
40
0
40
0
40
0
40
0
40
0.19297295880897455
40
0.39835913544497054
40
0.39835913544497054
40
0.39835913544497054
40
0.39835913544497054
10
-45.742238227318062
20
38.968307020495544
30
0
10
-46.18170361876011
20
39.462763502629429
30
0
10
-47.088903541865079
20
40.483482975211075
30
0
10
-47.194789482308899
20
41.847874570967903
30
0
10
-47.249382201622268
20
42.551328184435974
30
0
0
LINE
5
106
100
AcDbEntity
8
0
100
AcDbLine
10
-47.249382201622268
20
42.551328184435981
30
0
11
-47.249382201622268
21
44.24330854637445
31
0
0
SPLINE
5
107
100
AcDbEntity
8
0
100
AcDbSpline
70
0
71
3
72
9
73
5
74
0
42
0.000000001
43
0.0000000001
44
0.0000000001
40
0
40
0
40
0
40
0
40
0.12294502521534376
40
0.2243352932749168
40
0.2243352932749168
40
0.2243352932749168
40
0.2243352932749168
10
-47.249382201622268
20
44.24330854637445
30
0
10
-47.237558305239943
20
44.658650312675618
30
0
10
-47.215983481387283
20
45.416516007438744
30
0
10
-46.886455538395488
20
46.096962857304732
30
0
10
-46.737522546242019
20
46.404496671984802
30
0
0
SPLINE
5
108
100
AcDbEntity
8
0
100
AcDbSpline
70
0
71
3
72
9
73
5
74
0
42
0.000000001
43
0.0000000001
44
0.0000000001
40
0
40
0
40
0
40
0
40
0.10711629182729941
40
0.22104613534746473
40
0.22104613534746473
40
0.22104613534746473
40
0.22104613534746473
10
-46.737522546242019
20
46.404496671984802
30
0
10
-46.499649723113883
20
46.690564937683149
30
0
10
-46.008773243358206
20
47.280897962654947
30
0
10
-45.241793529206014
20
47.349963370676861
30
0
10
-44.846482936332961
20
47.385560514758239
30
0
0
SPLINE
5
109
100
AcDbEntity
8
0
100
AcDbSpline
70
0
71
3
72
9
73
5
74
0
42
0.000000001
43
0.0000000001
44
0.0000000001
40
0
40
0
40
0
40
0
40
0.07058249169284854
40
0.14692338296958313
40
0.14692338296958313
40
0.14692338296958313
40
0.14692338296958313
10
-44.846482936332961
20
47.385560514758239
30
0
10
-44.61078721365557
20
47.375359489393283
30
0
10
-44.120166776537566
20
47.354125198559544
30
0
10
-43.64375464766561
20
47.234458961423101
30
0
10
-43.396212521980544
20
47.172280790637146
30
0
0
LINE
5
110
100
AcDbEntity
8
0
100
AcDbLine
10
-43.396212521980544
20
47.172280790637146
30
0
11
-40.765820208977004
21
46.461364271472107
31
0
0
LINE
5
111
100
AcDbEntity
8
0
100
AcDbLine
10
-40.765820208977004
20
46.461364271472107
30
0
11
-40.765820208977004
21
43.148499967883254
31
0
0
LINE
5
112
100
AcDbEntity
8
0
100
AcDbLine
10
-40.765820208977004
20
43.148499967883254
30
0
11
-44.220876161049148
21
44.129563810656691
31
0
0
SPLINE
5
113
100
AcDbEntity
8
0
100
AcDbSpline
70
0
71
3
72
9
73
5
74
0
42
0.000000001
43
0.0000000001
44
0.0000000001
40
0
40
0
40
0
40
0
40
0.021749790758271933
40
0.037454434863309544
40
0.037454434863309544
40
0.037454434863309544
40
0.037454434863309544
10
-44.220876161049148
20
44.129563810656677
30
0
10
-44.291645818473917
20
44.146001639239842
30
0
10
-44.413515382819348
20
44.17430855891574
30
0
10
-44.538251328191024
20
44.182849988724087
30
0
10
-44.590553108642837
20
44.186431410143982
30
0
0
SPLINE
5
114
100
AcDbEntity
8
0
100
AcDbSpline
70
0
71
3
72
9
73
5
74
0
42
0.000000001
43
0.0000000001
44
0.0000000001
40
0
40
0
40
0
40
0
40
0.023974380213926918
40
0.046848213223686763
40
0.046848213223686763
40
0.046848213223686763
40
0.046848213223686763
10
-44.590553108642837
20
44.186431410143982
30
0
10
-44.676153989774477
20
44.176805934116388
30
0
10
-44.843426231876521
20
44.15799684085529
30
0
10
-44.912356484566914
20
44.005137549173696
30
0
10
-44.946011964271804
20
43.9305033705932
30
0
0
LINE
5
115
100
AcDbEntity
8
0
100
AcDbLine
10
-44.946011964271804
20
43.9305033705932
30
0
11
-44.946011964271804
21
41.868840696643005
31
0
0
SPLINE
5
116
100
AcDbEntity
8
0
100
AcDbSpline
70
0
71
3
72
9
73
5
74
0
42
0.000000001
43
0.0000000001
44
0.0000000001
40
0
40
0
40
0
40
0
40
0.04062340212353667
40
0.095318986075903819
40
0.095318986075903819
40
0.095318986075903819
40
0.095318986075903819
10
-44.946011964271804
20
41.868840696643005
30
0
10
-44.878649959710977
20
41.746107536814478
30
0
10
-44.720591361978272
20
41.458125739594003
30
0
10
-44.403073228437613
20
41.357721224498043
30
0
10
-44.220876161049148
20
41.300107481310974
30
0
0
LINE
5
117
100
AcDbEntity
8
0
100
AcDbLine
10
-44.220876161049148
20
41.300107481310981
30
0
11
-40.751602117012283
21
40.276395323107849
31
0
0
LINE
5
118
100
AcDbEntity
8
0
100
AcDbLine
10
-40.751602117012283
20
40.276395323107849
30
0
11
-40.737383429001106
21
37.034608366320754
31
0
0
LINE
5
119
100
AcDbEntity
8
0
100
AcDbLine
10
-39.827410046051313
20
68.144332411120544
30
0
11
-39.82741004605132
21
77.514215948413025
31
0
0
SPLINE
5
120
100
AcDbEntity
8
0
100
AcDbSpline
70
0
71
3
72
9
73
5
74
0
42
0.000000001
43
0.0000000001
44
0.0000000001
40
0
40
0
40
0
40
0
40
0.097128567137368477
40
0.19156087577892245
40
0.19156087577892245
40
0.19156087577892245
40
0.19156087577892245
10
-39.82741004605132
20
77.514215948413025
30
0
10
-39.519186025010221
20
77.40448035870385
30
0
10
-38.911294184875999
20
77.188055404765421
30
0
10
-38.429705816626083
20
76.758919335412187
30
0
10
-38.192300859878834
20
76.547371389697219
30
0
0
SPLINE
5
121
100
AcDbEntity
8
0
100
AcDbSpline
70
0
71
3
72
9
73
5
74
0
42
0.000000001
43
0.0000000001
44
0.0000000001
40
0
40
0
40
0
40
0
40
0.10474928697435285
40
0.1952015499804361
40
0.1952015499804361
40
0.1952015499804361
40
0.1952015499804361
10
-38.192300859878834
20
76.547371389697219
30
0
10
-37.956311935740523
20
76.278010130930198
30
0
10
-37.516543751148561
20
75.776052201337052
30
0
10
-37.424504806137094
20
75.117768088178224
30
0
10
-37.3818559088214
20
74.81273317558589
30
0
0
LINE
5
122
100
AcDbEntity
8
0
100
AcDbLine
10
-37.3818559088214
20
74.81273317558589
30
0
11
-37.3818559088214
21
69.978500845263625
31
0
0
SPLINE
5
123
100
AcDbEntity
8
0
100
AcDbSpline
70
0
71
3
72
9
73
5
74
0
42
0.000000001
43
0.0000000001
44
0.0000000001
40
0
40
0
40
0
40
0
40
0.14592756818165484
40
0.29904818236206515
40
0.29904818236206515
40
0.29904818236206515
40
0.29904818236206515
10
-37.381855908821393
20
69.978500845263625
30
0
10
-37.4705526807778
20
69.443623165387308
30
0
10
-37.652318256436033
20
68.347502672555322
30
0
10
-38.761723121913391
20
68.213133167501724
30
0
10
-39.329767886589337
20
68.144332411120544
30
0
0
LINE
5
124
100
AcDbEntity
8
0
100
AcDbLine
10
-39.329767886589345
20
68.144332411120558
30
0
11
-39.827410046051313
21
68.144332411120544
31
0
0
LINE
5
125
100
AcDbEntity
8
0
100
AcDbLine
10
-44.60477179665407
20
102.70911121589961
30
0
11
-47.249382201622332
21
103.44846391899409
31
0
0
LINE
5
126
100
AcDbEntity
8
0
100
AcDbLine
10
-47.249382201622332
20
103.44846391899409
30
0
11
-47.249382201622339
21
107.95567655784906
31
0
0
SPLINE
5
127
100
AcDbEntity
8
0
100
AcDbSpline
70
0
71
3
72
9
73
5
74
0
42
0.000000001
43
0.0000000001
44
0.0000000001
40
0
40
0
40
0
40
0
40
0.19552654403925729
40
0.34997021267117467
40
0.34997021267117467
40
0.34997021267117467
40
0.34997021267117467
10
-47.249382201622339
20
107.95567655784906
30
0
10
-47.222274098020662
20
108.64852483894433
30
0
10
-47.173753684440968
20
109.88864423795079
30
0
10
-46.192723233414
20
110.61915162614096
30
0
10
-45.759789411018701
20
110.94152832252801
30
0
0
SPLINE
5
128
100
AcDbEntity
8
0
100
AcDbSpline
70
0
71
3
72
9
73
5
74
0
42
0.000000001
43
0.0000000001
44
0.0000000001
40
0
40
0
40
0
40
0
40
0.055844856985445883
40
0.12784826459947679
40
0.12784826459947679
40
0.12784826459947679
40
0.12784826459947679
10
-45.759789411018701
20
110.94152832252801
30
0
10
-45.580018847369992
20
110.99514335112687
30
0
10
-45.168461618482347
20
111.11788676444783
30
0
10
-44.73893193598677
20
111.08692808985217
30
0
10
-44.497023288200708
20
111.06949234230342
30
0
0
SPLINE
5
129
100
AcDbEntity
8
0
100
AcDbSpline
70
0
71
3
72
9
73
5
74
0
42
0.000000001
43
0.0000000001
44
0.0000000001
40
0
40
0
40
0
40
0
40
0.022086114845622149
40
0.057024541407549076
40
0.057024541407549076
40
0.057024541407549076
40
0.057024541407549076
10
-44.497023288200708
20
111.06949234230342
30
0
10
-44.423739572171769
20
111.06245731200779
30
0
10
-44.234527013584504
20
111.04429343940282
30
0
10
-44.045461550924799
20
111.02465330757678
30
0
10
-43.929622832725855
20
111.01261997444453
30
0
0
LINE
5
130
100
AcDbEntity
8
0
100
AcDbLine
10
-43.929622832725855
20
111.01261997444453
30
0
11
-40.765820208977075
21
110.17373705131831
31
0
0
LINE
5
131
100
AcDbEntity
8
0
100
AcDbLine
10
-40.765820208977075
20
110.17373705131831
30
0
11
-40.751602117012354
21
106.64759063942256
31
0
0
LINE
5
132
100
AcDbEntity
8
0
100
AcDbLine
10
-40.751602117012354
20
106.64759063942256
30
0
11
-43.882301513145777
21
107.67130995018306
31
0
0
SPLINE
5
133
100
AcDbEntity
8
0
100
AcDbSpline
70
0
71
3
72
9
73
5
74
0
42
0.000000001
43
0.0000000001
44
0.0000000001
40
0
40
0
40
0
40
0
40
0.019251121586870625
40
0.039196261378200224
40
0.039196261378200224
40
0.039196261378200224
40
0.039196261378200224
10
-43.882301513145777
20
107.67130995018306
30
0
10
-43.944850034926723
20
107.65697114125958
30
0
10
-44.072202002316409
20
107.62777659797646
30
0
10
-44.199889968997738
20
107.60008829400124
30
0
10
-44.264864388893457
20
107.58599901420894
30
0
0
SPLINE
5
134
100
AcDbEntity
8
0
100
AcDbSpline
70
0
71
3
72
9
73
5
74
0
42
0.000000001
43
0.0000000001
44
0.0000000001
40
0
40
0
40
0
40
0
40
0.028866794255326303
40
0.064298602827576504
40
0.064298602827576504
40
0.064298602827576504
40
0.064298602827576504
10
-44.264864388893457
20
107.58599901420894
30
0
10
-44.343777494348359
20
107.52635487479506
30
0
10
-44.519550473524909
20
107.39350206137756
30
0
10
-44.574494717025068
20
107.17843447350461
30
0
10
-44.604771796654077
20
107.05992126686397
30
0
0
LINE
5
135
100
AcDbEntity
8
0
100
AcDbLine
10
-44.604771796654077
20
107.05992126686395
30
0
11
-44.60477179665407
21
102.70911121589961
31
0
0
LWPOLYLINE
5
136
100
AcDbEntity
8
0
100
AcDbPolyline
90
6
70
1
43
0.0
10
-47.249382201622353
20
123.59584951622308
10
-44.832264844368325
20
121.60528207046808
10
-44.832264844368332
20
126.35420704109492
10
-40.751602117012382
20
125.21674061043086
10
-40.751602117012382
20
128.67179537041008
10
-47.249382201622367
20
130.50596142036736
0
LWPOLYLINE
5
137
100
AcDbEntity
8
0
100
AcDbPolyline
90
4
70
1
43
0.0
10
-47.249382201622325
20
95.386668684313918
10
-40.751602117012339
20
93.666249754260207
10
-40.751602117012347
20
96.879593374560486
10
-47.249382201622325
20
98.642665388415466
0
LINE
5
138
100
AcDbEntity
8
0
100
AcDbLine
10
-37.438729468773211
20
100.69010639412227
30
0
11
-39.827410046051348
21
101.38680601341548
31
0
0
LINE
5
139
100
AcDbEntity
8
0
100
AcDbLine
10
-39.827410046051348
20
101.38680601341548
30
0
11
-39.827410046051355
21
109.90358972770991
31
0
0
SPLINE
5
140
100
AcDbEntity
8
0
100
AcDbSpline
70
0
71
3
72
9
73
5
74
0
42
0.000000001
43
0.0000000001
44
0.0000000001
40
0
40
0
40
0
40
0
40
0.093874089291483664
40
0.19063783863166933
40
0.19063783863166933
40
0.19063783863166933
40
0.19063783863166933
10
-39.827410046051355
20
109.90358972770991
30
0
10
-39.531268450011531
20
109.79279598447718
30
0
10
-38.929869339521446
20
109.56779801215902
30
0
10
-38.459491512162685
20
109.13034576060453
30
0
10
-38.220737639854761
20
108.90830421669307
30
0
0
SPLINE
5
141
100
AcDbEntity
8
0
100
AcDbSpline
70
0
71
3
72
9
73
5
74
0
42
0.000000001
43
0.0000000001
44
0.0000000001
40
0
40
0
40
0
40
0
40
0.10119582778694068
40
0.18871727411449474
40
0.18871727411449474
40
0.18871727411449474
40
0.18871727411449474
10
-38.220737639854761
20
108.90830421669307
30
0
10
-37.993020806840406
20
108.64786994670709
30
0
10
-37.568358042216012
20
108.16219334726043
30
0
10
-37.479800033446182
20
107.52571871610719
30
0
10
-37.438729468773218
20
107.23054075462642
30
0
0
LINE
5
142
100
AcDbEntity
8
0
100
AcDbLine
10
-37.438729468773218
20
107.23054075462643
30
0
11
-37.438729468773211
21
100.69010639412227
31
0
0
LINE
5
143
100
AcDbEntity
8
0
100
AcDbLine
10
-39.798973266075429
20
78.708559515307556
30
0
11
-39.798973266075443
21
89.727770330737258
31
0
0
LINE
5
144
100
AcDbEntity
8
0
100
AcDbLine
10
-39.798973266075443
20
89.727770330737258
30
0
11
-37.438729468773197
21
88.220626356433058
31
0
0
LINE
5
145
100
AcDbEntity
8
0
100
AcDbLine
10
-37.438729468773197
20
88.220626356433058
30
0
11
-37.43872946877319
21
80.13039732200923
31
0
0
SPLINE
5
146
100
AcDbEntity
8
0
100
AcDbSpline
70
0
71
3
72
9
73
5
74
0
42
0.000000001
43
0.0000000001
44
0.0000000001
40
0
40
0
40
0
40
0
40
0.033368081470773164
40
0.070727322522345759
40
0.070727322522345759
40
0.070727322522345759
40
0.070727322522345759
10
-37.43872946877319
20
80.13039732200923
30
0
10
-37.450176495191975
20
80.018285716987435
30
0
10
-37.4744397280108
20
79.780652826591236
30
0
10
-37.599934356448536
20
79.576879618137184
30
0
10
-37.666222516487423
20
79.469243528674269
30
0
0
SPLINE
5
147
100
AcDbEntity
8
0
100
AcDbSpline
70
0
71
3
72
9
73
5
74
0
42
0.000000001
43
0.0000000001
44
0.0000000001
40
0
40
0
40
0
40
0
40
0.038459113108990292
40
0.074471463462496348
40
0.074471463462496348
40
0.074471463462496348
40
0.074471463462496348
10
-37.666222516487423
20
79.469243528674269
30
0
10
-37.743787001459793
20
79.365691660253162
30
0
10
-37.893981331012782
20
79.165175877069572
30
0
10
-38.104647288268453
20
79.029905402317667
30
0
10
-38.206519547890011
20
78.964492323229933
30
0
0
SPLINE
5
148
100
AcDbEntity
8
0
100
AcDbSpline
70
0
71
3
72
9
73
5
74
0
42
0.000000001
43
0.0000000001
44
0.0000000001
40
0
40
0
40
0
40
0
40
0.066119166612010116
40
0.16230599150878353
40
0.16230599150878353
40
0.16230599150878353
40
0.16230599150878353
10
-38.206519547890011
20
78.964492323229933
30
0
10
-38.415590864439814
20
78.890462258460744
30
0
10
-38.928808575240474
20
78.708736993616867
30
0
10
-39.475179437246631
20
78.708625556117894
30
0
10
-39.798973266075429
20
78.708559515307556
30
0
0
LWPOLYLINE
5
149
100
AcDbEntity
8
0
100
AcDbPolyline
90
8
70
1
43
0.0
10
-43.339338962028862
20
131.23109662754359
10
-40.751602117012382
20
130.54861569626155
10
-40.751602117012389
20
138.93743568880379
10
-47.249382201622375
20
140.67207290407165
10
-47.249382201622367
20
132.32590878231346
10
-44.690081540535324
20
131.64342844707787
10
-44.690081540535331
20
136.2217333338958
10
-43.339338962028869
20
135.85205668432533
0
LWPOLYLINE
5
150
100
AcDbEntity
8
0
100
AcDbPolyline
90
4
70
1
43
0.0
10
-39.798973266075443
20
90.637742521594191
10
-37.438729468773197
20
89.983698370288039
10
-37.438729468773211
20
98.600012304614211
10
-39.798973266075457
20
100.10715627891841
0
SPLINE
5
151
100
AcDbEntity
8
0
100
AcDbSpline
70
0
71
3
72
9
73
5
74
0
42
0.000000001
43
0.0000000001
44
0.0000000001
40
0
40
0
40
0
40
0
40
0.089795893633417445
40
0.19498673976159325
40
0.19498673976159325
40
0.19498673976159325
40
0.19498673976159325
10
-40.751602117012318
20
78.879181387255798
30
0
10
-41.045803021899388
20
78.959358661425611
30
0
10
-41.684643763470802
20
79.133459109238572
30
0
10
-42.142995011686679
20
79.61479494118889
30
0
10
-42.390264932106312
20
79.874464514086853
30
0
0
SPLINE
5
152
100
AcDbEntity
8
0
100
AcDbSpline
70
0
71
3
72
9
73
5
74
0
42
0.000000001
43
0.0000000001
44
0.0000000001
40
0
40
0
40
0
40
0
40
0.046618346763600181
40
0.080488794305934419
40
0.080488794305934419
40
0.080488794305934419
40
0.080488794305934419
10
-42.390264932106312
20
79.874464514086853
30
0
10
-42.493981385950946
20
79.991703035197716
30
0
10
-42.673052779494213
20
80.194120921406238
30
0
10
-42.78486893767748
20
80.439478960864861
30
0
10
-42.831922236870113
20
80.542727949450637
30
0
0
SPLINE
5
153
100
AcDbEntity
8
0
100
AcDbSpline
70
0
71
3
72
9
73
5
74
0
42
0.000000001
43
0.0000000001
44
0.0000000001
40
0
40
0
40
0
40
0
40
0.058160071796359132
40
0.11432653331224651
40
0.11432653331224651
40
0.11432653331224651
40
0.11432653331224651
10
-42.831922236870113
20
80.542727949450637
30
0
10
-43.00363344687652
20
80.44735545536949
30
0
10
-43.34116995198297
20
80.259879644476086
30
0
10
-43.725933193470219
20
80.230256687557571
30
0
10
-43.91496009011108
20
80.215703489611769
30
0
0
SPLINE
5
154
100
AcDbEntity
8
0
100
AcDbSpline
70
0
71
3
72
9
73
5
74
0
42
0.000000001
43
0.0000000001
44
0.0000000001
40
0
40
0
40
0
40
0
40
0.039617368221251899
40
0.093219612899331117
40
0.093219612899331117
40
0.093219612899331117
40
0.093219612899331117
10
-43.91496009011108
20
80.215703489611769
30
0
10
-44.046975341292054
20
80.221851679125507
30
0
10
-44.357607045628662
20
80.236318360589564
30
0
10
-44.664616870137756
20
80.286423014024734
30
0
10
-44.841150704811398
20
80.315233709643508
30
0
0
SPLINE
5
155
100
AcDbEntity
8
0
100
AcDbSpline
70
0
71
3
72
9
73
5
74
0
42
0.000000001
43
0.0000000001
44
0.0000000001
40
0
40
0
40
0
40
0
40
0.08157150950676624
40
0.25198404504934607
40
0.25198404504934607
40
0.25198404504934607
40
0.25198404504934607
10
-44.841150704811398
20
80.315233709643508
30
0
10
-45.104216189235501
20
80.384245913106525
30
0
10
-45.916856598599892
20
80.597432775670867
30
0
10
-46.711785362253394
20
80.870149997337251
30
0
10
-47.249382201622311
20
81.054584028552185
30
0
0
LINE
5
156
100
AcDbEntity
8
0
100
AcDbLine
10
-47.249382201622304
20
81.054584028552199
30
0
11
-47.249382201622311
21
84.239493849108825
31
0
0
LINE
5
157
100
AcDbEntity
8
0
100
AcDbLine
10
-47.249382201622311
20
84.239493849108825
30
0
11
-43.325120870064083
21
83.102027418444763
31
0
0
LINE
5
158
100
AcDbEntity
8
0
100
AcDbLine
10
-43.325120870064083
20
83.102027418444763
30
0
11
-43.325120870064083
21
86.457554342578078
31
0
0
LINE
5
159
100
AcDbEntity
8
0
100
AcDbLine
10
-43.325120870064083
20
86.457554342578078
30
0
11
-47.249382201622311
21
87.666112425158644
31
0
0
LINE
5
160
100
AcDbEntity
8
0
100
AcDbLine
10
-47.249382201622311
20
87.666112425158644
30
0
11
-47.249382201622311
21
90.978986265490661
31
0
0
LINE
5
161
100
AcDbEntity
8
0
100
AcDbLine
10
-47.249382201622311
20
90.978986265490661
30
0
11
-40.751602117012339
21
89.073730947802673
31
0
0
LINE
5
162
100
AcDbEntity
8
0
100
AcDbLine
10
-40.751602117012339
20
89.073730947802673
30
0
11
-40.751602117012318
21
78.879181387255798
31
0
0
LINE
5
163
100
AcDbEntity
8
0
100
AcDbLine
10
-40.737383429001142
20
68.343392851184021
30
0
11
-40.964877072761823
21
68.400265219042907
31
0
0
SPLINE
5
164
100
AcDbEntity
8
0
100
AcDbSpline
70
0
71
3
72
9
73
5
74
0
42
0.000000001
43
0.0000000001
44
0.0000000001
40
0
40
0
40
0
40
0
40
0.10898442926853523
40
0.28124240351345847
40
0.28124240351345847
40
0.28124240351345847
40
0.28124240351345847
10
-40.964877072761823
20
68.400265219042907
30
0
10
-41.313035567447159
20
68.504004948342043
30
0
10
-42.211484387210817
20
68.771713014565265
30
0
10
-43.113739437177038
20
69.026325783313979
30
0
10
-43.666361037681867
20
69.18227339012445
30
0
0
SPLINE
5
165
100
AcDbEntity
8
0
100
AcDbSpline
70
0
71
3
72
9
73
5
74
0
42
0.000000001
43
0.0000000001
44
0.0000000001
40
0
40
0
40
0
40
0
40
0.12237728859583166
40
0.23615554257945981
40
0.23615554257945981
40
0.23615554257945981
40
0.23615554257945981
10
-43.666361037681867
20
69.18227339012445
30
0
10
-44.056583092737789
20
69.311972944615675
30
0
10
-44.80960763017913
20
69.562258508339411
30
0
10
-45.439000637818658
20
70.044662676693676
30
0
10
-45.742238227318097
20
70.277081968615661
30
0
0
SPLINE
5
166
100
AcDbEntity
8
0
100
AcDbSpline
70
0
71
3
72
9
73
5
74
0
42
0.000000001
43
0.0000000001
44
0.0000000001
40
0
40
0
40
0
40
0
40
0.19297295880897455
40
0.39835913544497054
40
0.39835913544497054
40
0.39835913544497054
40
0.39835913544497054
10
-45.742238227318097
20
70.277081968615661
30
0
10
-46.181703618760146
20
70.771538450749546
30
0
10
-47.088903541865115
20
71.792257923331192
30
0
10
-47.194789482308934
20
73.15664951908802
30
0
10
-47.249382201622304
20
73.860103132556091
30
0
0
LINE
5
167
100
AcDbEntity
8
0
100
AcDbLine
10
-47.249382201622304
20
73.860103132556091
30
0
11
-47.249382201622304
21
75.55208826286615
31
0
0
SPLINE
5
168
100
AcDbEntity
8
0
100
AcDbSpline
70
0
71
3
72
9
73
5
74
0
42
0.000000001
43
0.0000000001
44
0.0000000001
40
0
40
0
40
0
40
0
40
0.12294549946261174
40
0.22433532618670077
40
0.22433532618670077
40
0.22433532618670077
40
0.22433532618670077
10
-47.249382201622304
20
75.55208826286615
30
0
10
-47.237558768742872
20
75.967431757717833
30
0
10
-47.215984870688466
20
76.725297794330331
30
0
10
-46.886455509312654
20
77.405744171291474
30
0
10
-46.737522546242054
20
77.713276388476501
30
0
0
SPLINE
5
169
100
AcDbEntity
8
0
100
AcDbSpline
70
0
71
3
72
9
73
5
74
0
42
0.000000001
43
0.0000000001
44
0.0000000001
40
0
40
0
40
0
40
0
40
0.10711629182729941
40
0.22104613534746473
40
0.22104613534746473
40
0.22104613534746473
40
0.22104613534746473
10
-46.737522546242054
20
77.713276388476501
30
0
10
-46.499649723113919
20
77.999344654174848
30
0
10
-46.008773243358249
20
78.589677679146646
30
0
10
-45.241793529206049
20
78.65874308716856
30
0
10
-44.846482936332997
20
78.694340231249939
30
0
0
SPLINE
5
170
100
AcDbEntity
8
0
100
AcDbSpline
70
0
71
3
72
9
73
5
74
0
42
0.000000001
43
0.0000000001
44
0.0000000001
40
0
40
0
40
0
40
0
40
0.07058249169284854
40
0.14692328305761598
40
0.14692328305761598
40
0.14692328305761598
40
0.14692328305761598
10
-44.846482936332997
20
78.694340231249939
30
0
10
-44.610787285233187
20
78.684138873539496
30
0
10
-44.120167330745289
20
78.662903905341068
30
0
10
-43.643754734745492
20
78.543241444857884
30
0
10
-43.39621252198058
20
78.481065275500427
30
0
0
LINE
5
171
100
AcDbEntity
8
0
100
AcDbLine
10
-43.39621252198058
20
78.481065275500427
30
0
11
-40.76582020897704
21
77.770148756335388
31
0
0
LINE
5
172
100
AcDbEntity
8
0
100
AcDbLine
10
-40.76582020897704
20
77.770148756335388
30
0
11
-40.76582020897704
21
74.457274916003357
31
0
0
LINE
5
173
100
AcDbEntity
8
0
100
AcDbLine
10
-40.76582020897704
20
74.457274916003357
30
0
11
-44.220876161049183
21
75.438338758776794
31
0
0
SPLINE
5
174
100
AcDbEntity
8
0
100
AcDbSpline
70
0
71
3
72
9
73
5
74
0
42
0.000000001
43
0.0000000001
44
0.0000000001
40
0
40
0
40
0
40
0
40
0.021749977780648844
40
0.037454621885686448
40
0.037454621885686448
40
0.037454621885686448
40
0.037454621885686448
10
-44.220876161049183
20
75.438338758776794
30
0
10
-44.291645637048617
20
75.454780680897088
30
0
10
-44.413514449575175
20
75.483094547803077
30
0
10
-44.53825123649181
20
75.491634930515602
30
0
10
-44.590553108642872
20
75.495215895007263
30
0
0
SPLINE
5
175
100
AcDbEntity
8
0
100
AcDbSpline
70
0
71
3
72
9
73
5
74
0
42
0.000000001
43
0.0000000001
44
0.0000000001
40
0
40
0
40
0
40
0
40
0.023974380213926918
40
0.046848613363600272
40
0.046848613363600272
40
0.046848613363600272
40
0.046848613363600272
10
-44.590553108642872
20
75.495215895007263
30
0
10
-44.676154111000656
20
75.485590445128793
30
0
10
-44.843428018697615
20
75.466781242313758
30
0
10
-44.912356868333788
20
75.313919251614337
30
0
10
-44.94601196427184
20
75.2392830870849
30
0
0
LINE
5
176
100
AcDbEntity
8
0
100
AcDbLine
10
-44.94601196427184
20
75.2392830870849
30
0
11
-44.94601196427184
21
73.177625181506286
31
0
0
SPLINE
5
177
100
AcDbEntity
8
0
100
AcDbSpline
70
0
71
3
72
9
73
5
74
0
42
0.000000001
43
0.0000000001
44
0.0000000001
40
0
40
0
40
0
40
0
40
0.04062340212353667
40
0.095318986075903819
40
0.095318986075903819
40
0.095318986075903819
40
0.095318986075903819
10
-44.946011964271833
20
73.177625181506286
30
0
10
-44.878649959711012
20
73.054892021677787
30
0
10
-44.720591361978308
20
72.766910224457305
30
0
10
-44.403073228437648
20
72.666505709361317
30
0
10
-44.220876161049176
20
72.608891966174255
30
0
0
LINE
5
178
100
AcDbEntity
8
0
100
AcDbLine
10
-44.220876161049176
20
72.608891966174269
30
0
11
-40.751602117012311
21
71.585170271227966
31
0
0
LINE
5
179
100
AcDbEntity
8
0
100
AcDbLine
10
-40.751602117012311
20
71.585170271227966
30
0
11
-40.737383429001142
21
68.343392851184021
31
0
0
LINE
5
180
100
AcDbEntity
8
0
100
AcDbLine
10
-40.737383429001113
20
47.428218366931105
30
0
11
-40.964877072761794
21
47.485095503161574
31
0
0
SPLINE
5
181
100
AcDbEntity
8
0
100
AcDbSpline
70
0
71
3
72
9
73
5
74
0
42
0.000000001
43
0.0000000001
44
0.0000000001
40
0
40
0
40
0
40
0
40
0.10898429396282884
40
0.28124226820775211
40
0.28124226820775211
40
0.28124226820775211
40
0.28124226820775211
10
-40.964877072761794
20
47.485095503161574
30
0
10
-41.313035651623828
20
47.588833358522606
30
0
10
-42.211485371805892
20
47.856536792475168
30
0
10
-43.113739646287158
20
48.111150592430967
30
0
10
-43.666361037681853
20
48.267098905871521
30
0
0
SPLINE
5
182
100
AcDbEntity
8
0
100
AcDbSpline
70
0
71
3
72
9
73
5
74
0
42
0.000000001
43
0.0000000001
44
0.0000000001
40
0
40
0
40
0
40
0
40
0.12237728859583166
40
0.23615608185254811
40
0.23615608185254811
40
0.23615608185254811
40
0.23615608185254811
10
-43.666361037681853
20
48.267098905871521
30
0
10
-44.056583480640185
20
48.396797905171297
30
0
10
-44.809610486200995
20
48.647082969060818
30
0
10
-45.439001063806131
20
49.129493900103455
30
0
10
-45.742238227318083
20
49.361917021105896
30
0
0
SPLINE
5
183
100
AcDbEntity
8
0
100
AcDbSpline
70
0
71
3
72
9
73
5
74
0
42
0.000000001
43
0.0000000001
44
0.0000000001
40
0
40
0
40
0
40
0
40
0.19297295880897455
40
0.39835913544497054
40
0.39835913544497054
40
0.39835913544497054
40
0.39835913544497054
10
-45.742238227318083
20
49.361917021105896
30
0
10
-46.181703618760125
20
49.85637350323978
30
0
10
-47.088903541865086
20
50.877092975821441
30
0
10
-47.194789482308906
20
52.241484571578255
30
0
10
-47.249382201622282
20
52.944938185046325
30
0
0
LINE
5
184
100
AcDbEntity
8
0
100
AcDbLine
10
-47.249382201622282
20
52.944938185046333
30
0
11
-47.249382201622282
21
54.636918546984802
31
0
0
SPLINE
5
185
100
AcDbEntity
8
0
100
AcDbSpline
70
0
71
3
72
9
73
5
74
0
42
0.000000001
43
0.0000000001
44
0.0000000001
40
0
40
0
40
0
40
0
40
0.12294502521534376
40
0.2243352932749168
40
0.2243352932749168
40
0.2243352932749168
40
0.2243352932749168
10
-47.249382201622282
20
54.636918546984802
30
0
10
-47.237558305239951
20
55.05226031328597
30
0
10
-47.215983481387298
20
55.810126008049096
30
0
10
-46.886455538395495
20
56.490572857915083
30
0
10
-46.737522546242033
20
56.798106672595154
30
0
0
SPLINE
5
186
100
AcDbEntity
8
0
100
AcDbSpline
70
0
71
3
72
9
73
5
74
0
42
0.000000001
43
0.0000000001
44
0.0000000001
40
0
40
0
40
0
40
0
40
0.10711629182729941
40
0.22104613534746473
40
0.22104613534746473
40
0.22104613534746473
40
0.22104613534746473
10
-46.737522546242033
20
56.798106672595154
30
0
10
-46.49964972311389
20
57.084174938293501
30
0
10
-46.00877324335822
20
57.674507963265285
30
0
10
-45.241793529206021
20
57.743573371287212
30
0
10
-44.846482936332983
20
57.779170515368591
30
0
0
SPLINE
5
187
100
AcDbEntity
8
0
100
AcDbSpline
70
0
71
3
72
9
73
5
74
0
42
0.000000001
43
0.0000000001
44
0.0000000001
40
0
40
0
40
0
40
0
40
0.07058249169284854
40
0.14692338296958313
40
0.14692338296958313
40
0.14692338296958313
40
0.14692338296958313
10
-44.846482936332983
20
57.779170515368591
30
0
10
-44.610787213655591
20
57.768969490003613
30
0
10
-44.120166776537587
20
57.747735199169895
30
0
10
-43.643754647665617
20
57.628068962033439
30
0
10
-43.396212521980566
20
57.565890791247497
30
0
0
LINE
5
188
100
AcDbEntity
8
0
100
AcDbLine
10
-43.396212521980566
20
57.565890791247497
30
0
11
-40.765820208977026
21
56.854974272082458
31
0
0
LINE
5
189
100
AcDbEntity
8
0
100
AcDbLine
10
-40.765820208977026
20
56.854974272082458
30
0
11
-40.765820208977019
21
53.542109968493605
31
0
0
LINE
5
190
100
AcDbEntity
8
0
100
AcDbLine
10
-40.765820208977019
20
53.542109968493605
30
0
11
-44.220876161049162
21
54.523173811267043
31
0
0
SPLINE
5
191
100
AcDbEntity
8
0
100
AcDbSpline
70
0
71
3
72
9
73
5
74
0
42
0.000000001
43
0.0000000001
44
0.0000000001
40
0
40
0
40
0
40
0
40
0.021749977780648844
40
0.037454535566915428
40
0.037454535566915428
40
0.037454535566915428
40
0.037454535566915428
10
-44.220876161049162
20
54.523173811267029
30
0
10
-44.291645521078699
20
54.53961700634423
30
0
10
-44.413513853037742
20
54.567933000092083
30
0
10
-44.538251177877854
20
54.576464276101539
30
0
10
-44.590553108642851
20
54.580041410754333
30
0
0
SPLINE
5
192
100
AcDbEntity
8
0
100
AcDbSpline
70
0
71
3
72
9
73
5
74
0
42
0.000000001
43
0.0000000001
44
0.0000000001
40
0
40
0
40
0
40
0
40
0.023974380213926918
40
0.046848213223686763
40
0.046848213223686763
40
0.046848213223686763
40
0.046848213223686763
10
-44.590553108642851
20
54.580041410754333
30
0
10
-44.676153989774491
20
54.570415934726725
30
0
10
-44.843426231876542
20
54.551606841465613
30
0
10
-44.912356484566928
20
54.398747549784048
30
0
10
-44.946011964271818
20
54.324113371203552
30
0
0
LINE
5
193
100
AcDbEntity
8
0
100
AcDbLine
10
-44.946011964271818
20
54.324113371203552
30
0
11
-44.946011964271818
21
52.262460233996521
31
0
0
SPLINE
5
194
100
AcDbEntity
8
0
100
AcDbSpline
70
0
71
3
72
9
73
5
74
0
42
0.000000001
43
0.0000000001
44
0.0000000001
40
0
40
0
40
0
40
0
40
0.04062340212353667
40
0.095318986075903819
40
0.095318986075903819
40
0.095318986075903819
40
0.095318986075903819
10
-44.946011964271818
20
52.262460233996521
30
0
10
-44.878649959710998
20
52.139727074167993
30
0
10
-44.720591361978286
20
51.851745276947497
30
0
10
-44.403073228437634
20
51.751340761851537
30
0
10
-44.220876161049162
20
51.693727018664489
30
0
0
LINE
5
195
100
AcDbEntity
8
0
100
AcDbLine
10
-44.220876161049162
20
51.693727018664497
30
0
11
-40.751602117012297
21
50.6700053237182
31
0
0
LINE
5
196
100
AcDbEntity
8
0
100
AcDbLine
10
-40.751602117012297
20
50.6700053237182
30
0
11
-40.737383429001113
21
47.428218366931105
31
0
0
LINE
5
197
100
AcDbEntity
8
0
100
AcDbLine
10
-39.827410046051277
20
36.835557463000441
30
0
11
-39.827410046051284
21
46.20543623192134
31
0
0
SPLINE
5
198
100
AcDbEntity
8
0
100
AcDbSpline
70
0
71
3
72
9
73
5
74
0
42
0.000000001
43
0.0000000001
44
0.0000000001
40
0
40
0
40
0
40
0
40
0.097128567137368477
40
0.19156087577892245
40
0.19156087577892245
40
0.19156087577892245
40
0.19156087577892245
10
-39.827410046051284
20
46.20543623192134
30
0
10
-39.519186025010185
20
46.095700642212165
30
0
10
-38.911294184875963
20
45.879275688273715
30
0
10
-38.429705816626047
20
45.450139618920474
30
0
10
-38.192300859878799
20
45.238591673205519
30
0
0
SPLINE
5
199
100
AcDbEntity
8
0
100
AcDbSpline
70
0
71
3
72
9
73
5
74
0
42
0.000000001
43
0.0000000001
44
0.0000000001
40
0
40
0
40
0
40
0
40
0.10474928697435285
40
0.1952015499804361
40
0.1952015499804361
40
0.1952015499804361
40
0.1952015499804361
10
-38.192300859878799
20
45.238591673205519
30
0
10
-37.956311935740487
20
44.969230414438499
30
0
10
-37.516543751148525
20
44.467272484845353
30
0
10
-37.424504806137058
20
43.808988371686524
30
0
10
-37.381855908821365
20
43.503953459094191
30
0
0
LINE
5
200
100
AcDbEntity
8
0
100
AcDbLine
10
-37.381855908821365
20
43.503953459094191
30
0
11
-37.381855908821365
21
38.669721128771926
31
0
0
SPLINE
5
201
100
AcDbEntity
8
0
100
AcDbSpline
70
0
71
3
72
9
73
5
74
0
42
0.000000001
43
0.0000000001
44
0.0000000001
40
0
40
0
40
0
40
0
40
0.14592711867925845
40
0.29904773285966879
40
0.29904773285966879
40
0.29904773285966879
40
0.29904773285966879
10
-37.381855908821358
20
38.669721128771926
30
0
10
-37.470553145703413
20
38.134845437079704
30
0
10
-37.652319960813323
20
37.038727289815547
30
0
10
-38.761723134381768
20
36.904358140598745
30
0
10
-39.329767886589302
20
36.835557463000441
30
0
0
LINE
5
202
100
AcDbEntity
8
0
100
AcDbLine
10
-39.329767886589302
20
36.835557463000441
30
0
11
-39.827410046051277
21
36.835557463000441
31
0
0
LWPOLYLINE
5
203
100
AcDbEntity
8
0
100
AcDbPolyline
90
7
70
1
43
0.0
10
-39.813191358040129
20
57.978221418688918
10
-37.438729468773161
20
57.267304899523879
10
-37.438729468773168
20
60.779234411547797
10
-39.443515006492895
20
61.291095259020949
10
-37.438729468773168
20
63.395406248400832
10
-37.438729468773175
20
66.622969152758728
10
-39.813191358040136
20
67.291232588122512
0
LWPOLYLINE
5
204
100
AcDbEntity
8
0
100
AcDbPolyline
90
8
70
1
43
0.0
10
-43.339338962028833
20
112.46288919670405
10
-40.751602117012354
20
111.78041124565425
10
-40.751602117012375
20
120.16922855598749
10
-47.24938220162236
20
121.90386677009882
10
-47.249382201622353
20
113.55770254356683
10
-44.690081540535303
20
112.87522220833124
10
-44.690081540535317
20
117.45352649910274
10
-43.339338962028854
20
117.08385133964839
0
LINE
5
205
100
AcDbEntity
8
0
100
AcDbLine
10
-39.82741004605127
20
26.271325590441847
30
0
11
-39.827410046051284
21
36.48009443504634
31
0
0
LINE
5
206
100
AcDbEntity
8
0
100
AcDbLine
10
-39.827410046051284
20
36.48009443504634
30
0
11
-37.396074000786079
21
34.432660581896933
31
0
0
LINE
5
207
100
AcDbEntity
8
0
100
AcDbLine
10
-37.396074000786079
20
34.432660581896933
30
0
11
-37.396074000786072
21
28.105498792956496
31
0
0
SPLINE
5
208
100
AcDbEntity
8
0
100
AcDbSpline
70
0
71
3
72
9
73
5
74
0
42
0.000000001
43
0.0000000001
44
0.0000000001
40
0
40
0
40
0
40
0
40
0.14841400874615981
40
0.30581834721603851
40
0.30581834721603851
40
0.30581834721603851
40
0.30581834721603851
10
-37.396074000786072
20
28.105498792956496
30
0
10
-37.489008563923605
20
27.562370118714234
30
0
10
-37.68050729600472
20
26.443212197668551
30
0
10
-38.816279523856593
20
26.310964362208846
30
0
10
-39.400860134552239
20
26.242896559069777
30
0
0
SPLINE
5
209
100
AcDbEntity
8
0
100
AcDbSpline
70
0
71
3
72
9
73
5
74
0
42
0.000000001
43
0.0000000001
44
0.0000000001
40
0
40
0
40
0
40
0
40
0.020628829724393515
40
0.042770154870283392
40
0.042770154870283392
40
0.042770154870283392
40
0.042770154870283392
10
-39.400860134552239
20
26.242896559069777
30
0
10
-39.469649351965344
20
26.244238910151587
30
0
10
-39.612271377619336
20
26.247022032821459
30
0
10
-39.754026182241383
20
26.263035639706764
30
0
10
-39.82741004605127
20
26.271325590441847
30
0
0
LWPOLYLINE
5
210
100
AcDbEntity
8
0
100
AcDbPolyline
90
20
70
1
43
0.0
10
-87.363731379126875
20
19.499999999999989
10
-87.363731379126875
20
22.499999999999993
42
0.99999999999999989
10
-92.563731379126878
20
22.499999999999993
10
-92.563731379126878
20
19.499999999999989
10
-96.743731379126885
20
19.499999999999993
10
-96.743731379126885
20
148
10
-92.563731379126878
20
148
10
-92.563731379126878
20
145
42
0.99999999999999989
10
-87.363731379126875
20
145
10
-87.363731379126875
20
148
10
-46.843731379126879
20
148
10
-46.843731379126893
20
145
42
0.99999999999999989
10
-41.643731379126891
20
145
10
-41.643731379126891
20
148
10
-36.743731379126885
20
148
10
-36.743731379126885
20
19.499999999999993
10
-41.643731379126891
20
19.499999999999989
10
-41.643731379126891
20
22.499999999999993
42
0.99999999999999989
10
-46.843731379126879
20
22.499999999999993
10
-46.843731379126879
20
19.499999999999989
0
LWPOLYLINE
5
211
100
AcDbEntity
8
0
100
AcDbPolyline
90
4
70
1
43
0.0
10
-39.827410046051376
20
130.25003099663081
10
-37.438729468773239
20
129.624424221347
10
-37.438729468773253
20
137.98480713589015
10
-39.827410046051391
20
139.52038759214702
0
LWPOLYLINE
5
212
100
AcDbEntity
8
0
100
AcDbPolyline
90
8
70
1
43
0.0
10
-47.249382201622289
20
59.897691252062934
10
-40.751602117012304
20
58.163062574694777
10
-40.751602117012311
20
67.575599195788513
10
-47.249382201622296
20
69.352890493701111
10
-47.249382201622296
20
66.096889021227966
10
-41.405645672272009
20
64.447566511462341
10
-43.30134934563474
20
62.371684553454529
10
-47.249382201622289
20
63.466497900317322
0
LINE
5
213
100
AcDbEntity
8
0
100
AcDbLine
10
-39.827410046051291
20
47.229167463610793
30
0
11
-39.827410046051298
21
56.599046232531691
31
0
0
SPLINE
5
214
100
AcDbEntity
8
0
100
AcDbSpline
70
0
71
3
72
9
73
5
74
0
42
0.000000001
43
0.0000000001
44
0.0000000001
40
0
40
0
40
0
40
0
40
0.097128567137368477
40
0.19156087577892245
40
0.19156087577892245
40
0.19156087577892245
40
0.19156087577892245
10
-39.827410046051298
20
56.599046232531691
30
0
10
-39.519186025010193
20
56.489310642822517
30
0
10
-38.911294184875977
20
56.272885688884102
30
0
10
-38.429705816626054
20
55.843749619530847
30
0
10
-38.192300859878813
20
55.632201673815871
30
0
0
SPLINE
5
215
100
AcDbEntity
8
0
100
AcDbSpline
70
0
71
3
72
9
73
5
74
0
42
0.000000001
43
0.0000000001
44
0.0000000001
40
0
40
0
40
0
40
0
40
0.10474928697435285
40
0.1952015499804361
40
0.1952015499804361
40
0.1952015499804361
40
0.1952015499804361
10
-38.192300859878813
20
55.632201673815871
30
0
10
-37.956311935740501
20
55.362840415048851
30
0
10
-37.516543751148539
20
54.860882485455704
30
0
10
-37.424504806137065
20
54.202598372296876
30
0
10
-37.381855908821379
20
53.897563459704543
30
0
0
LINE
5
216
100
AcDbEntity
8
0
100
AcDbLine
10
-37.381855908821379
20
53.897563459704543
30
0
11
-37.381855908821372
21
49.063331129382277
31
0
0
SPLINE
5
217
100
AcDbEntity
8
0
100
AcDbSpline
70
0
71
3
72
9
73
5
74
0
42
0.000000001
43
0.0000000001
44
0.0000000001
40
0
40
0
40
0
40
0
40
0.14592711867925845
40
0.29904773285966879
40
0.29904773285966879
40
0.29904773285966879
40
0.29904773285966879
10
-37.381855908821372
20
49.063331129382277
30
0
10
-37.470553145703427
20
48.528455437690035
30
0
10
-37.652319960813337
20
47.432337290425878
30
0
10
-38.761723134381775
20
47.297968141209083
30
0
10
-39.329767886589316
20
47.229167463610793
30
0
0
LINE
5
218
100
AcDbEntity
8
0
100
AcDbLine
10
-39.329767886589316
20
47.229167463610793
30
0
11
-39.827410046051291
21
47.229167463610793
31
0
0
SPLINE
5
219
100
AcDbEntity
8
0
100
AcDbSpline
70
0
71
3
72
9
73
5
74
0
42
0.000000001
43
0.0000000001
44
0.0000000001
40
0
40
0
40
0
40
0
40
0.083640642265389184
40
0.1832149447191494
40
0.1832149447191494
40
0.1832149447191494
40
0.1832149447191494
10
-40.76582020897699
20
26.356641294787551
30
0
10
-41.053915116983418
20
26.416994150761344
30
0
10
-41.684987418852955
20
26.549197166799807
30
0
10
-41.955386601043514
20
27.142965730355328
30
0
10
-42.10234409947229
20
27.465669157336379
30
0
0
SPLINE
5
220
100
AcDbEntity
8
0
100
AcDbSpline
70
0
71
3
72
9
73
5
74
0
42
0.000000001
43
0.0000000001
44
0.0000000001
40
0
40
0
40
0
40
0
40
0.061997950280370515
40
0.086077234342464837
40
0.086077234342464837
40
0.086077234342464837
40
0.086077234342464837
10
-42.10234409947229
20
27.465669157336379
30
0
10
-42.280357383012529
20
27.360689573590626
30
0
10
-42.527508959057734
20
27.214937138382762
30
0
10
-42.773018460728693
20
27.066440482704479
30
0
10
-42.841697398613221
20
27.02489996177972
30
0
0
SPLINE
5
221
100
AcDbEntity
8
0
100
AcDbSpline
70
0
71
3
72
9
73
5
74
0
42
0.000000001
43
0.0000000001
44
0.0000000001
40
0
40
0
40
0
40
0
40
0.042185869492688668
40
0.092812210461712938
40
0.092812210461712938
40
0.092812210461712938
40
0.092812210461712938
10
-42.841697398613221
20
27.02489996177972
30
0
10
-42.975606618161983
20
26.979381346569227
30
0
10
-43.270217368562115
20
26.879236835014861
30
0
10
-43.58174279216157
20
26.872287844549518
30
0
10
-43.75167078156305
20
26.868497373889095
30
0
0
LINE
5
222
100
AcDbEntity
8
0
100
AcDbLine
10
-43.75167078156305
20
26.868497373889092
30
0
11
-44.036037985275513
21
26.868497373889095
31
0
0
SPLINE
5
223
100
AcDbEntity
8
0
100
AcDbSpline
70
0
71
3
72
9
73
5
74
0
42
0.000000001
43
0.0000000001
44
0.0000000001
40
0
40
0
40
0
40
0
40
0.13138891891093379
40
0.26029227228614937
40
0.26029227228614937
40
0.26029227228614937
40
0.26029227228614937
10
-44.036037985275513
20
26.868497373889095
30
0
10
-44.481319422512001
20
26.935521342241113
30
0
10
-45.363458632316267
20
27.068301345034254
30
0
10
-45.997150909825621
20
27.695405752517903
30
0
10
-46.310971442650086
20
28.005963804553158
30
0
0
SPLINE
5
224
100
AcDbEntity
8
0
100
AcDbSpline
70
0
71
3
72
9
73
5
74
0
42
0.000000001
43
0.0000000001
44
0.0000000001
40
0
40
0
40
0
40
0
40
0.10273946082149596
40
0.20109547283878237
40
0.20109547283878237
40
0.20109547283878237
40
0.20109547283878237
10
-46.310971442650086
20
28.005963804553158
30
0
10
-46.523310507621154
20
28.278428864346612
30
0
10
-46.938929047285221
20
28.811734077291078
30
0
10
-47.147412648212111
20
29.454609517597508
30
0
10
-47.249382201622254
20
29.76904058677972
30
0
0
LINE
5
225
100
AcDbEntity
8
0
100
AcDbLine
10
-47.24938220162224
20
29.76904058677972
30
0
11
-47.235164109657539
21
37.532254698107849
31
0
0
LINE
5
226
100
AcDbEntity
8
0
100
AcDbLine
10
-47.235164109657539
20
37.532254698107849
30
0
11
-40.765820208976997
21
35.641213896105903
31
0
0
LINE
5
227
100
AcDbEntity
8
0
100
AcDbLine
10
-40.765820208976997
20
35.641213896105903
30
0
11
-40.76582020897699
21
26.356641294787551
31
0
0
CIRCLE
5
228
100
AcDbEntity
8
0
100
AcDbCircle
10
-66.743731379126885
20
129.23109556939897
30
0
40
4.9999999999999964
210
0
220
0
230
1
0
ENDSEC
0
SECTION
2
OBJECTS
0
DICTIONARY
5
C
100
AcDbDictionary
3
ACAD_GROUP
350
D
3
ACAD_MLINESTYLE
350
17
0
DICTIONARY
5
D
100
AcDbDictionary
0
DICTIONARY
5
1A
330
C
100
AcDbDictionary
0
DICTIONARY
5
17
100
AcDbDictionary
0
ENDSEC
0
EOF
