0
SECTION
2
HEADER
9
$INSUNITS
70
4
9
$ACADVER
1
AC1014
9
$HANDSEED
5
FFFF
0
ENDSEC
0
SECTION
2
TABLES
0
TABLE
2
VPORT
5
8
100
AcDbSymbolTable
0
ENDTAB
0
TABLE
2
LTYPE
5
5
100
AcDbSymbolTable
0
LTYPE
5
14
100
AcDbSymbolTableRecord
100
AcDbLinetypeTableRecord
2
BYBLOCK
70
0
0
LTYPE
5
15
100
AcDbSymbolTableRecord
100
AcDbLinetypeTableRecord
2
BYLAYER
70
0
0
ENDTAB
0
TABLE
2
LAYER
5
2
100
AcDbSymbolTable
70
2
0
LAYER
5
50
100
AcDbSymbolTableRecord
100
AcDbLayerTableRecord
2
0
70
0
6
CONTINUOUS
0
ENDTAB
0
TABLE
2
STYLE
5
3
100
AcDbSymbolTable
70
1
0
STYLE
5
11
100
AcDbSymbolTableRecord
100
AcDbTextStyleTableRecord
2
STANDARD
70
0
0
ENDTAB
0
TABLE
2
VIEW
5
6
100
AcDbSymbolTable
70
0
0
ENDTAB
0
TABLE
2
UCS
5
7
100
AcDbSymbolTable
70
0
0
ENDTAB
0
TABLE
2
APPID
5
9
100
AcDbSymbolTable
70
2
0
APPID
5
12
100
AcDbSymbolTableRecord
100
AcDbRegAppTableRecord
2
ACAD
70
0
0
ENDTAB
0
TABLE
2
DIMSTYLE
5
A
100
AcDbSymbolTable
70
1
0
ENDTAB
0
TABLE
2
BLOCK_RECORD
5
1
100
AcDbSymbolTable
70
1
0
BLOCK_RECORD
5
1F
100
AcDbSymbolTableRecord
100
AcDbBlockTableRecord
2
*MODEL_SPACE
0
BLOCK_RECORD
5
1B
100
AcDbSymbolTableRecord
100
AcDbBlockTableRecord
2
*PAPER_SPACE
0
ENDTAB
0
ENDSEC
0
SECTION
2
BLOCKS
0
BLOCK
5
20
100
AcDbEntity
100
AcDbBlockBegin
2
*MODEL_SPACE
0
ENDBLK
5
21
100
AcDbEntity
100
AcDbBlockEnd
0
BLOCK
5
1C
100
AcDbEntity
100
AcDbBlockBegin
2
*PAPER_SPACE
0
ENDBLK
5
1D
100
AcDbEntity
100
AcDbBlockEnd
0
ENDSEC
0
SECTION
2
ENTITIES
0
LWPOLYLINE
5
100
100
AcDbEntity
8
0
100
AcDbPolyline
90
4
70
1
43
0.0
10
47.279382201622262
20
-28.020077741108622
10
47.279382201622376
20
-140.69207290407167
10
33.061044416847665
20
-140.69207290407169
10
33.061044416847565
20
-28.020077741108622
0
LINE
5
101
100
AcDbEntity
8
0
100
AcDbLine
10
44.718409968803776
20
-135.21828778471695
30
0
11
44.878088427971257
21
-133.92697401728378
31
0
0
SPLINE
5
102
100
AcDbEntity
8
0
100
AcDbSpline
70
0
71
3
72
9
73
5
74
0
42
0.000000001
43
0.0000000001
44
0.0000000001
40
0
40
0
40
0
40
0
40
0.10952977337691168
40
0.21196031382474601
40
0.21196031382474601
40
0.21196031382474601
40
0.21196031382474601
10
44.878088427971257
20
-133.92697401728378
30
0
10
45.230404278633401
20
-134.04561248580762
30
0
10
45.912200432952147
20
-134.27519980480503
30
0
10
46.399205716242129
20
-134.80336951971128
30
0
10
46.634552670906437
20
-135.05860932554947
30
0
0
SPLINE
5
103
100
AcDbEntity
8
0
100
AcDbSpline
70
0
71
3
72
9
73
5
74
0
42
0.000000001
43
0.0000000001
44
0.0000000001
40
0
40
0
40
0
40
0
40
0.10509766164937688
40
0.22311793088373369
40
0.22311793088373369
40
0.22311793088373369
40
0.22311793088373369
10
46.634552670906437
20
-135.05860932554947
30
0
10
46.816629656197506
20
-135.36425062926963
30
0
10
47.203171464855636
20
-136.01311430719005
30
0
10
47.239935519061547
20
-136.76920359377701
30
0
10
47.25938220162238
20
-137.16914393391357
30
0
0
SPLINE
5
104
100
AcDbEntity
8
0
100
AcDbSpline
70
0
71
3
72
9
73
5
74
0
42
0.000000001
43
0.0000000001
44
0.0000000001
40
0
40
0
40
0
40
0
40
0.14713580294807502
40
0.28136872116670253
40
0.28136872116670253
40
0.28136872116670253
40
0.28136872116670253
10
47.25938220162238
20
-137.16914393391357
30
0
10
47.226034785231697
20
-137.67237153587456
30
0
10
47.162264311179442
20
-138.63469684339694
30
0
10
46.553534025277884
20
-139.37922313045146
30
0
10
46.263126326988598
20
-139.73441519226776
30
0
0
SPLINE
5
105
100
AcDbEntity
8
0
100
AcDbSpline
70
0
71
3
72
9
73
5
74
0
42
0.000000001
43
0.0000000001
44
0.0000000001
40
0
40
0
40
0
40
0
40
0.13918678901216938
40
0.30069930753607133
40
0.30069930753607133
40
0.30069930753607133
40
0.30069930753607133
10
46.263126326988598
20
-139.73441519226776
30
0
10
45.878112854725273
20
-140.0104101220434
30
0
10
45.04632928299911
20
-140.60666990255851
30
0
10
44.020010399774705
20
-140.65572453306078
30
0
10
43.468750907371899
20
-140.68207290407167
30
0
0
SPLINE
5
106
100
AcDbEntity
8
0
100
AcDbSpline
70
0
71
3
72
9
73
5
74
0
42
0.000000001
43
0.0000000001
44
0.0000000001
40
0
40
0
40
0
40
0
40
0.16695957542062992
40
0.3099090652961165
40
0.3099090652961165
40
0.3099090652961165
40
0.3099090652961165
10
43.468750907371899
20
-140.68207290407167
30
0
10
42.899210513977991
20
-140.65608269720022
30
0
10
41.842034065604743
20
-140.60783987735539
30
0
10
40.978819863295691
20
-140.00299414006147
30
0
10
40.580651356171032
20
-139.72400136675583
30
0
0
SPLINE
5
107
100
AcDbEntity
8
0
100
AcDbSpline
70
0
71
3
72
9
73
5
74
0
42
0.000000001
43
0.0000000001
44
0.0000000001
40
0
40
0
40
0
40
0
40
0.13434011048408104
40
0.27520582814780092
40
0.27520582814780092
40
0.27520582814780092
40
0.27520582814780092
10
40.580651356171032
20
-139.72400136675583
30
0
10
40.281011596065916
20
-139.37514129137421
30
0
10
39.667176993514296
20
-138.66047516815053
30
0
10
39.591757971762561
20
-137.7199716045734
30
0
10
39.55315430302467
20
-137.23856933798538
30
0
0
SPLINE
5
108
100
AcDbEntity
8
0
100
AcDbSpline
70
0
71
3
72
9
73
5
74
0
42
0.000000001
43
0.0000000001
44
0.0000000001
40
0
40
0
40
0
40
0
40
0.13667534282392876
40
0.26784506259292951
40
0.26784506259292951
40
0.26784506259292951
40
0.26784506259292951
10
39.55315430302467
20
-137.23856933798538
30
0
10
39.591541647246345
20
-136.77157677114073
30
0
10
39.666769997901199
20
-135.85640326059701
30
0
10
40.266246600497773
20
-135.16242103695521
30
0
10
40.55982370514716
20
-134.82256241526352
30
0
0
SPLINE
5
109
100
AcDbEntity
8
0
100
AcDbSpline
70
0
71
3
72
9
73
5
74
0
42
0.000000001
43
0.0000000001
44
0.0000000001
40
0
40
0
40
0
40
0
40
0.14006367048186738
40
0.3038568217634689
40
0.3038568217634689
40
0.3038568217634689
40
0.3038568217634689
10
40.55982370514716
20
-134.82256241526352
30
0
10
40.950222544969307
20
-134.54964163902983
30
0
10
41.797161299896914
20
-133.95756205569259
30
0
10
42.833660903514769
20
-133.91062175185431
30
0
10
43.39238305229987
20
-133.88531871523605
30
0
0
SPLINE
5
110
100
AcDbEntity
8
0
100
AcDbSpline
70
0
71
3
72
9
73
5
74
0
42
0.000000001
43
0.0000000001
44
0.0000000001
40
0
40
0
40
0
40
0
40
0.013886225209106515
40
0.03333229753907771
40
0.03333229753907771
40
0.03333229753907771
40
0.03333229753907771
10
43.39238305229987
20
-133.88531871523605
30
0
10
43.438669556875254
20
-133.88575964753173
30
0
10
43.549775024294789
20
-133.88681805514449
30
0
10
43.660833765768373
20
-133.89025547591177
30
0
10
43.725625468681706
20
-133.89226086821304
30
0
0
LINE
5
111
100
AcDbEntity
8
0
100
AcDbLine
10
43.725625468681706
20
-133.89226086821304
30
0
11
43.725625468681713
21
-139.39075895037399
31
0
0
SPLINE
5
112
100
AcDbEntity
8
0
100
AcDbSpline
70
0
71
3
72
9
73
5
74
0
42
0.000000001
43
0.0000000001
44
0.0000000001
40
0
40
0
40
0
40
0
40
0.10923281453328991
40
0.20153950887250757
40
0.20153950887250757
40
0.20153950887250757
40
0.20153950887250757
10
43.725625468681713
20
-139.39075895037399
30
0
10
44.095827099226419
20
-139.35464731474303
30
0
10
44.778865938082326
20
-139.28801970525831
30
0
10
45.332609580455966
20
-138.88708022715454
30
0
10
45.586228562782665
20
-138.70344676460968
30
0
0
SPLINE
5
113
100
AcDbEntity
8
0
100
AcDbSpline
70
0
71
3
72
9
73
5
74
0
42
0.000000001
43
0.0000000001
44
0.0000000001
40
0
40
0
40
0
40
0
40
0.084645131392851042
40
0.17086857275965131
40
0.17086857275965131
40
0.17086857275965131
40
0.17086857275965131
10
45.586228562782665
20
-138.70344676460968
30
0
10
45.774540518242112
20
-138.48335906169021
30
0
10
46.154675731377985
20
-138.03907985672021
30
0
10
46.20599067769389
20
-137.45628868475293
30
0
10
46.231885148476017
20
-137.16220148291336
30
0
0
SPLINE
5
114
100
AcDbEntity
8
0
100
AcDbSpline
70
0
71
3
72
9
73
5
74
0
42
0.000000001
43
0.0000000001
44
0.0000000001
40
0
40
0
40
0
40
0
40
0.064334095930357937
40
0.12441244315995253
40
0.12441244315995253
40
0.12441244315995253
40
0.12441244315995253
10
46.231885148476017
20
-137.16220148291336
30
0
10
46.219010343308078
20
-136.94447354259972
30
0
10
46.194112410991018
20
-136.52342052853507
30
0
10
45.976133975817383
20
-136.16297081694208
30
0
10
45.870872928093327
20
-135.98891087259994
30
0
0
SPLINE
5
115
100
AcDbEntity
8
0
100
AcDbSpline
70
0
71
3
72
9
73
5
74
0
42
0.000000001
43
0.0000000001
44
0.0000000001
40
0
40
0
40
0
40
0
40
0.063983869002234836
40
0.14013163176979845
40
0.14013163176979845
40
0.14013163176979845
40
0.14013163176979845
10
45.870872928093327
20
-135.98891087259994
30
0
10
45.72273056559375
20
-135.83196308885911
30
0
10
45.398282680290443
20
-135.48823037339162
30
0
10
44.957779909972558
20
-135.3133293130476
30
0
10
44.718409968803776
20
-135.21828778471695
30
0
0
LINE
5
116
100
AcDbEntity
8
0
100
AcDbLine
10
42.698128415535351
20
-139.32133354630218
30
0
11
42.698128415535344
21
-135.20440288271652
31
0
0
SPLINE
5
117
100
AcDbEntity
8
0
100
AcDbSpline
70
0
71
3
72
9
73
5
74
0
42
0.000000001
43
0.0000000001
44
0.0000000001
40
0
40
0
40
0
40
0
40
0.08295270687566407
40
0.14895829474922229
40
0.14895829474922229
40
0.14895829474922229
40
0.14895829474922229
10
42.698128415535344
20
-135.20440288271652
30
0
10
42.419060185855272
20
-135.23600798887588
30
0
10
41.917936965438429
20
-135.29276132335025
30
0
10
41.491594807019951
20
-135.55866868577345
30
0
10
41.302676392982853
20
-135.67649610724197
30
0
0
SPLINE
5
118
100
AcDbEntity
8
0
100
AcDbSpline
70
0
71
3
72
9
73
5
74
0
42
0.000000001
43
0.0000000001
44
0.0000000001
40
0
40
0
40
0
40
0
40
0.087364631470367451
40
0.17549417393354899
40
0.17549417393354899
40
0.17549417393354899
40
0.17549417393354899
10
41.302676392982853
20
-135.67649610724197
30
0
10
41.092086821051048
20
-135.89095415770592
30
0
10
40.669063884386709
20
-136.32174792145383
30
0
10
40.610207709317706
20
-136.92283229996858
30
0
10
40.580651356171025
20
-137.22468443598495
30
0
0
SPLINE
5
119
100
AcDbEntity
8
0
100
AcDbSpline
70
0
71
3
72
9
73
5
74
0
42
0.000000001
43
0.0000000001
44
0.0000000001
40
0
40
0
40
0
40
0
40
0.08053076813220468
40
0.15902056517878732
40
0.15902056517878732
40
0.15902056517878732
40
0.15902056517878732
10
40.580651356171025
20
-137.22468443598495
30
0
10
40.603404342053359
20
-137.49892535057489
30
0
10
40.648333662342125
20
-138.04045682040575
30
0
10
40.988823130798473
20
-138.46343204320507
30
0
10
41.156882835815807
20
-138.67220528807388
30
0
0
SPLINE
5
120
100
AcDbEntity
8
0
100
AcDbSpline
70
0
71
3
72
9
73
5
74
0
42
0.000000001
43
0.0000000001
44
0.0000000001
40
0
40
0
40
0
40
0
40
0.081306803607705966
40
0.17022026963931217
40
0.17022026963931217
40
0.17022026963931217
40
0.17022026963931217
10
41.156882835815807
20
-138.67220528807388
30
0
10
41.371793539398752
20
-138.84625571750371
30
0
10
41.821720929101183
20
-139.21063987373412
30
0
10
42.397417174395109
20
-139.28335254753216
30
0
10
42.698128415535351
20
-139.32133354630218
30
0
0
LINE
5
121
100
AcDbEntity
8
0
100
AcDbLine
10
47.092760993431462
20
-132.38572843756424
30
0
11
36.914986564110173
21
-132.38572843756424
31
0
0
LINE
5
122
100
AcDbEntity
8
0
100
AcDbLine
10
36.914986564110173
20
-132.38572843756424
30
0
11
36.914986564110173
21
-131.1360699721788
31
0
0
LINE
5
123
100
AcDbEntity
8
0
100
AcDbLine
10
36.914986564110173
20
-131.1360699721788
30
0
11
47.092760993431462
21
-131.1360699721788
31
0
0
LINE
5
124
100
AcDbEntity
8
0
100
AcDbLine
10
47.092760993431462
20
-131.1360699721788
30
0
11
47.092760993431462
21
-132.38572843756424
31
0
0
LINE
5
125
100
AcDbEntity
8
0
100
AcDbLine
10
44.718409968803769
20
-124.1518671103929
30
0
11
44.87808842797125
21
-122.86055274691329
31
0
0
SPLINE
5
126
100
AcDbEntity
8
0
100
AcDbSpline
70
0
71
3
72
9
73
5
74
0
42
0.000000001
43
0.0000000001
44
0.0000000001
40
0
40
0
40
0
40
0
40
0.10952979708414551
40
0.21196033753197985
40
0.21196033753197985
40
0.21196033753197985
40
0.21196033753197985
10
44.87808842797125
20
-122.86055274691329
30
0
10
45.230404265466476
20
-122.97919144880026
30
0
10
45.91220032299028
20
-123.20877919538395
30
0
10
46.399205698162632
20
-123.73694888577988
30
0
10
46.63455267090643
20
-123.99218865122542
30
0
0
SPLINE
5
127
100
AcDbEntity
8
0
100
AcDbSpline
70
0
71
3
72
9
73
5
74
0
42
0.000000001
43
0.0000000001
44
0.0000000001
40
0
40
0
40
0
40
0
40
0.10509766164937688
40
0.22311796042386201
40
0.22311796042386201
40
0.22311796042386201
40
0.22311796042386201
10
46.63455267090643
20
-123.99218865122542
30
0
10
46.816629655505828
20
-124.29782995563056
30
0
10
47.203171513872547
20
-124.94669372091268
30
0
10
47.239935534519887
20
-125.70278311399269
30
0
10
47.259382201622373
20
-126.10272355761275
30
0
0
SPLINE
5
128
100
AcDbEntity
8
0
100
AcDbSpline
70
0
71
3
72
9
73
5
74
0
42
0.000000001
43
0.0000000001
44
0.0000000001
40
0
40
0
40
0
40
0
40
0.14713571483135157
40
0.28136865780840614
40
0.28136865780840614
40
0.28136865780840614
40
0.28136865780840614
10
47.259382201622373
20
-126.10272355761275
30
0
10
47.226034710754035
20
-126.6059508311878
30
0
10
47.162264070446511
20
-127.56827587035785
30
0
10
46.553534028060959
20
-128.31280205937858
30
0
10
46.263126326988591
20
-128.6679942199205
30
0
0
SPLINE
5
129
100
AcDbEntity
8
0
100
AcDbSpline
70
0
71
3
72
9
73
5
74
0
42
0.000000001
43
0.0000000001
44
0.0000000001
40
0
40
0
40
0
40
0
40
0.13918680803499206
40
0.30069932273379019
40
0.30069932273379019
40
0.30069932273379019
40
0.30069932273379019
10
46.263126326988591
20
-128.6679942199205
30
0
10
45.878112872954055
20
-128.9439893207886
30
0
10
45.046329412250827
20
-129.54024941957627
30
0
10
44.020010418320545
20
-129.58930380569299
30
0
10
43.468750907371891
20
-129.61565204348312
30
0
0
SPLINE
5
130
100
AcDbEntity
8
0
100
AcDbSpline
70
0
71
3
72
9
73
5
74
0
42
0.000000001
43
0.0000000001
44
0.0000000001
40
0
40
0
40
0
40
0
40
0.16695957274850623
40
0.30990909258502952
40
0.30990909258502952
40
0.30990909258502952
40
0.30990909258502952
10
43.468750907371891
20
-129.61565204348312
30
0
10
42.899210486694159
20
-129.58966195532892
30
0
10
41.842033877667937
20
-129.54141935082603
30
0
10
40.978819837088238
20
-128.93657312769676
30
0
10
40.580651356171018
20
-128.65758009638535
30
0
0
SPLINE
5
131
100
AcDbEntity
8
0
100
AcDbSpline
70
0
71
3
72
9
73
5
74
0
42
0.000000001
43
0.0000000001
44
0.0000000001
40
0
40
0
40
0
40
0
40
0.13434008607268957
40
0.27520577443378325
40
0.27520577443378325
40
0.27520577443378325
40
0.27520577443378325
10
40.580651356171018
20
-128.65758009638535
30
0
10
40.281011596014366
20
-128.30872012453634
30
0
10
39.667177001622001
20
-127.59405422302945
30
0
10
39.591757974179636
20
-126.65355083447929
30
0
10
39.553154303024655
20
-126.17214866366135
30
0
0
SPLINE
5
132
100
AcDbEntity
8
0
100
AcDbSpline
70
0
71
3
72
9
73
5
74
0
42
0.000000001
43
0.0000000001
44
0.0000000001
40
0
40
0
40
0
40
0
40
0.136675401409389
40
0.26784512117838971
40
0.26784512117838971
40
0.26784512117838971
40
0.26784512117838971
10
39.553154303024655
20
-126.17214866366135
30
0
10
39.59154160901597
20
-125.70515588415653
30
0
10
39.666769868958355
20
-124.78998214897032
30
0
10
40.266246601214419
20
-124.09599976886938
30
0
10
40.559823705147153
20
-123.75614114489304
30
0
0
SPLINE
5
133
100
AcDbEntity
8
0
100
AcDbSpline
70
0
71
3
72
9
73
5
74
0
42
0.000000001
43
0.0000000001
44
0.0000000001
40
0
40
0
40
0
40
0
40
0.14006364056830936
40
0.30385678332329075
40
0.30385678332329075
40
0.30385678332329075
40
0.30385678332329075
10
40.559823705147153
20
-123.75614114489304
30
0
10
40.950222563339082
20
-123.48322057485085
30
0
10
41.797161431856011
20
-122.89114138728088
30
0
10
42.833660922705292
20
-122.84420146810783
30
0
10
43.392383052299863
20
-122.81889863695845
30
0
0
SPLINE
5
134
100
AcDbEntity
8
0
100
AcDbSpline
70
0
71
3
72
9
73
5
74
0
42
0.000000001
43
0.0000000001
44
0.0000000001
40
0
40
0
40
0
40
0
40
0.013886225209106515
40
0.033332295943322106
40
0.033332295943322106
40
0.033332295943322106
40
0.033332295943322106
10
43.392383052299863
20
-122.81889863695845
30
0
10
43.438669556084463
20
-122.81933959877927
30
0
10
43.549775016286731
20
-122.82039807721307
30
0
10
43.660833764216697
20
-122.82383505821531
30
0
10
43.725625468681699
20
-122.82584019388899
30
0
0
LINE
5
135
100
AcDbEntity
8
0
100
AcDbLine
10
43.725625468681699
20
-122.82584019388899
30
0
11
43.725625468681706
21
-128.32433768000351
31
0
0
SPLINE
5
136
100
AcDbEntity
8
0
100
AcDbSpline
70
0
71
3
72
9
73
5
74
0
42
0.000000001
43
0.0000000001
44
0.0000000001
40
0
40
0
40
0
40
0
40
0.10923281453328991
40
0.20153949335023152
40
0.20153949335023152
40
0.20153949335023152
40
0.20153949335023152
10
43.725625468681699
20
-128.32433768000351
30
0
10
44.095827086037069
20
-128.28822602367842
30
0
10
44.778865847951423
20
-128.22159838114368
30
0
10
45.332609567996833
20
-127.82065913282658
30
0
10
45.586228562782651
20
-127.63702579226241
30
0
0
SPLINE
5
137
100
AcDbEntity
8
0
100
AcDbSpline
70
0
71
3
72
9
73
5
74
0
42
0.000000001
43
0.0000000001
44
0.0000000001
40
0
40
0
40
0
40
0
40
0.084645155836540517
40
0.17086853865244922
40
0.17086853865244922
40
0.17086853865244922
40
0.17086853865244922
10
45.586228562782651
20
-127.63702579226241
30
0
10
45.774540518716478
20
-127.41693798906138
30
0
10
46.154675547156067
20
-126.97265879863951
30
0
10
46.205990624160933
20
-126.38986778801332
30
0
10
46.23188514847601
20
-126.09578080858931
30
0
0
SPLINE
5
138
100
AcDbEntity
8
0
100
AcDbSpline
70
0
71
3
72
9
73
5
74
0
42
0.000000001
43
0.0000000001
44
0.0000000001
40
0
40
0
40
0
40
0
40
0.064334154945552988
40
0.12441250217514759
40
0.12441250217514759
40
0.12441250217514759
40
0.12441250217514759
10
46.23188514847601
20
-126.09578080858931
30
0
10
46.219010373853578
20
-125.87805266123465
30
0
10
46.194112511636035
20
-125.45699943329873
30
0
10
45.976133974920764
20
-125.09654954792445
30
0
10
45.87087292809332
20
-124.92248960222945
30
0
0
SPLINE
5
139
100
AcDbEntity
8
0
100
AcDbSpline
70
0
71
3
72
9
73
5
74
0
42
0.000000001
43
0.0000000001
44
0.0000000001
40
0
40
0
40
0
40
0
40
0.06398382841942013
40
0.14013159118698376
40
0.14013159118698376
40
0.14013159118698376
40
0.14013159118698376
10
45.87087292809332
20
-124.92248960222945
30
0
10
45.72273053507935
20
-124.76554205298781
30
0
10
45.398282471121462
20
-124.42180973262771
30
0
10
44.957779881243752
20
-124.24690866837309
30
0
10
44.718409968803769
20
-124.1518671103929
30
0
0
LINE
5
140
100
AcDbEntity
8
0
100
AcDbLine
10
42.698128415535336
20
-128.25491257395493
30
0
11
42.698128415535322
21
-124.13798280443892
31
0
0
SPLINE
5
141
100
AcDbEntity
8
0
100
AcDbSpline
70
0
71
3
72
9
73
5
74
0
42
0.000000001
43
0.0000000001
44
0.0000000001
40
0
40
0
40
0
40
0
40
0.08295270687566407
40
0.14895826653743305
40
0.14895826653743305
40
0.14895826653743305
40
0.14895826653743305
10
42.698128415535336
20
-124.13798280443892
30
0
10
42.419060213379183
20
-124.16958796045337
30
0
10
41.917937137296747
20
-124.22634137370382
30
0
10
41.491594828630348
20
-124.49224825339871
30
0
10
41.302676392982846
20
-124.61007543291792
30
0
0
SPLINE
5
142
100
AcDbEntity
8
0
100
AcDbSpline
70
0
71
3
72
9
73
5
74
0
42
0.000000001
43
0.0000000001
44
0.0000000001
40
0
40
0
40
0
40
0
40
0.087364701630717023
40
0.17549409824136028
40
0.17549409824136028
40
0.17549409824136028
40
0.17549409824136028
10
41.302676392982846
20
-124.61007543291792
30
0
10
41.092086820410643
20
-124.82453378638513
30
0
10
40.669064404632145
20
-125.25532762702733
30
0
10
40.610207859159345
20
-125.85641160174433
30
0
10
40.580651356171018
20
-126.15826316561447
30
0
0
SPLINE
5
143
100
AcDbEntity
8
0
100
AcDbSpline
70
0
71
3
72
9
73
5
74
0
42
0.000000001
43
0.0000000001
44
0.0000000001
40
0
40
0
40
0
40
0
40
0.080530826775421185
40
0.15902062382200383
40
0.15902062382200383
40
0.15902062382200383
40
0.15902062382200383
10
40.580651356171018
20
-126.15826316561447
30
0
10
40.603404305718477
20
-126.43250429151956
30
0
10
40.648333538109412
20
-126.97403598398182
30
0
10
40.988823131238696
20
-127.39701136685983
30
0
10
41.156882835815793
20
-127.60578461374985
30
0
0
SPLINE
5
144
100
AcDbEntity
8
0
100
AcDbSpline
70
0
71
3
72
9
73
5
74
0
42
0.000000001
43
0.0000000001
44
0.0000000001
40
0
40
0
40
0
40
0
40
0.081306803607705966
40
0.17022026315273059
40
0.17022026315273059
40
0.17022026315273059
40
0.17022026315273059
10
41.156882835815793
20
-127.60578461374985
30
0
10
41.371793534425308
20
-127.7798350646929
30
0
10
41.821720896570213
20
-128.14421925207682
30
0
10
42.397417170116505
20
-128.21693169638232
30
0
10
42.698128415535336
20
-128.25491257395493
30
0
0
LINE
5
145
100
AcDbEntity
8
0
100
AcDbLine
10
44.392110301445356
20
-116.48035236086592
30
0
11
44.551788760612837
21
-115.25152154650435
31
0
0
SPLINE
5
146
100
AcDbEntity
8
0
100
AcDbSpline
70
0
71
3
72
9
73
5
74
0
42
0.000000001
43
0.0000000001
44
0.0000000001
40
0
40
0
40
0
40
0
40
0.11878634947766573
40
0.22768959068148509
40
0.22768959068148509
40
0.22768959068148509
40
0.22768959068148509
10
44.551788760612837
20
-115.25152154650435
30
0
10
44.946526170798613
20
-115.33836893725922
30
0
10
45.703158559512346
20
-115.5048379544458
30
0
10
46.269803422527445
20
-116.03088463374463
30
0
10
46.540827943275801
20
-116.28249116625533
30
0
0
SPLINE
5
147
100
AcDbEntity
8
0
100
AcDbSpline
70
0
71
3
72
9
73
5
74
0
42
0.000000001
43
0.0000000001
44
0.0000000001
40
0
40
0
40
0
40
0
40
0.10698718571264633
40
0.21976803250080162
40
0.21976803250080162
40
0.21976803250080162
40
0.21976803250080162
10
46.540827943275801
20
-116.28249116625533
30
0
10
46.750365575549779
20
-116.57985805221918
30
0
10
47.180787900176675
20
-117.19069508867224
30
0
10
47.232727678267125
20
-117.93709164005973
30
0
10
47.259382201622358
20
-118.32012839998946
30
0
0
SPLINE
5
148
100
AcDbEntity
8
0
100
AcDbSpline
70
0
71
3
72
9
73
5
74
0
42
0.000000001
43
0.0000000001
44
0.0000000001
40
0
40
0
40
0
40
0
40
0.13873023634762316
40
0.26879842256878073
40
0.26879842256878073
40
0.26879842256878073
40
0.26879842256878073
10
47.259382201622358
20
-118.32012839998946
30
0
10
47.223739661877659
20
-118.79456430136102
30
0
10
47.154680034272644
20
-119.71381323552359
30
0
10
46.558535797258457
20
-120.41445745479416
30
0
10
46.270069076012007
20
-120.75349040713057
30
0
0
SPLINE
5
149
100
AcDbEntity
8
0
100
AcDbSpline
70
0
71
3
72
9
73
5
74
0
42
0.000000001
43
0.0000000001
44
0.0000000001
40
0
40
0
40
0
40
0
40
0.13873685929505863
40
0.30358547906969924
40
0.30358547906969924
40
0.30358547906969924
40
0.30358547906969924
10
46.270069076012007
20
-120.75349040713057
30
0
10
45.881806203170029
20
-121.02126860581195
30
0
10
45.032205232990705
20
-121.60722372360962
30
0
10
43.996456002345084
20
-121.65009764606238
30
0
10
43.434038354347578
20
-121.67337842669234
30
0
0
SPLINE
5
150
100
AcDbEntity
8
0
100
AcDbSpline
70
0
71
3
72
9
73
5
74
0
42
0.000000001
43
0.0000000001
44
0.0000000001
40
0
40
0
40
0
40
0
40
0.11238490167903793
40
0.21384494414158348
40
0.21384494414158348
40
0.21384494414158348
40
0.21384494414158348
10
43.434038354347578
20
-121.67337842669234
30
0
10
43.056952647417781
20
-121.66053114222345
30
0
10
42.339437476516181
20
-121.63608544899799
30
0
10
41.664540632832797
20
-121.39299120504629
30
0
10
41.344331695030561
20
-121.27765365328536
30
0
0
SPLINE
5
151
100
AcDbEntity
8
0
100
AcDbSpline
70
0
71
3
72
9
73
5
74
0
42
0.000000001
43
0.0000000001
44
0.0000000001
40
0
40
0
40
0
40
0
40
0.092902437472460783
40
0.18296329800633915
40
0.18296329800633915
40
0.18296329800633915
40
0.18296329800633915
10
41.344331695030561
20
-121.27765365328536
30
0
10
41.065665041490064
20
-121.13068576172037
30
0
10
40.516855221604814
20
-120.84124523816315
30
0
10
40.171127593014873
20
-120.32649856729932
30
0
10
40.000948502014509
20
-120.07312246050583
30
0
0
SPLINE
5
152
100
AcDbEntity
8
0
100
AcDbSpline
70
0
71
3
72
9
73
5
74
0
42
0.000000001
43
0.0000000001
44
0.0000000001
40
0
40
0
40
0
40
0
40
0.090872636615632593
40
0.18310939820501154
40
0.18310939820501154
40
0.18310939820501154
40
0.18310939820501154
10
40.000948502014509
20
-120.07312246050583
30
0
10
39.870343768070775
20
-119.79642571866135
30
0
10
39.607173741032618
20
-119.23887863109599
30
0
10
39.571249990389433
20
-118.62327867269899
30
0
10
39.553154303024641
20
-118.31318565096603
30
0
0
SPLINE
5
153
100
AcDbEntity
8
0
100
AcDbSpline
70
0
71
3
72
9
73
5
74
0
42
0.000000001
43
0.0000000001
44
0.0000000001
40
0
40
0
40
0
40
0
40
0.11022265107598174
40
0.20869859027393478
40
0.20869859027393478
40
0.20869859027393478
40
0.20869859027393478
10
39.553154303024641
20
-118.31318565096603
30
0
10
39.572257341392039
20
-117.93919806922321
30
0
10
39.608427558115238
20
-117.23107972578143
30
0
10
39.983599409662538
20
-116.63140551241248
30
0
10
40.16062696118199
20
-116.34844489779221
30
0
0
SPLINE
5
154
100
AcDbEntity
8
0
100
AcDbSpline
70
0
71
3
72
9
73
5
74
0
42
0.000000001
43
0.0000000001
44
0.0000000001
40
0
40
0
40
0
40
0
40
0.096585207793810829
40
0.20168507874011132
40
0.20168507874011132
40
0.20168507874011132
40
0.20168507874011132
10
40.16062696118199
20
-116.34844489779221
30
0
10
40.391680013292003
20
-116.11542429878448
30
0
10
40.874155063792799
20
-115.62884070143623
30
0
10
41.539259067285244
20
-115.45837636359359
30
0
10
41.885850621651045
20
-115.369545895717
30
0
0
LINE
5
155
100
AcDbEntity
8
0
100
AcDbLine
10
41.885850621651045
20
-115.369545895717
30
0
11
42.07329888481938
21
-116.58449121203169
31
0
0
SPLINE
5
156
100
AcDbEntity
8
0
100
AcDbSpline
70
0
71
3
72
9
73
5
74
0
42
0.000000001
43
0.0000000001
44
0.0000000001
40
0
40
0
40
0
40
0
40
0.069383621393190709
40
0.12920670593951003
40
0.12920670593951003
40
0.12920670593951003
40
0.12920670593951003
10
42.07329888481938
20
-116.58449121203169
30
0
10
41.846556421278798
20
-116.64730890787749
30
0
10
41.424314886138013
20
-116.7642884974689
30
0
10
41.103901441198204
20
-117.06136030652812
30
0
10
40.955549074600569
20
-117.19890542711958
30
0
0
SPLINE
5
157
100
AcDbEntity
8
0
100
AcDbSpline
70
0
71
3
72
9
73
5
74
0
42
0.000000001
43
0.0000000001
44
0.0000000001
40
0
40
0
40
0
40
0
40
0.05622074789700237
40
0.11485836842249228
40
0.11485836842249228
40
0.11485836842249228
40
0.11485836842249228
10
40.955549074600569
20
-117.19890542711958
30
0
10
40.846217601530924
20
-117.35562910474785
30
0
10
40.622854606840534
20
-117.67581385110756
30
0
10
40.594915076114674
20
-118.0655965169064
30
0
10
40.580651356171003
20
-118.26458879198775
30
0
0
SPLINE
5
158
100
AcDbEntity
8
0
100
AcDbSpline
70
0
71
3
72
9
73
5
74
0
42
0.000000001
43
0.0000000001
44
0.0000000001
40
0
40
0
40
0
40
0
40
0.087224069902402446
40
0.17197535840391856
40
0.17197535840391856
40
0.17197535840391856
40
0.17197535840391856
10
40.580651356171003
20
-118.26458879198775
30
0
10
40.607197579136816
20
-118.56310242886794
30
0
10
40.659537446032786
20
-119.1516669128271
30
0
10
41.06013230352044
20
-119.58522766813579
30
0
10
41.257549716423384
20
-119.79889102663741
30
0
0
SPLINE
5
159
100
AcDbEntity
8
0
100
AcDbSpline
70
0
71
3
72
9
73
5
74
0
42
0.000000001
43
0.0000000001
44
0.0000000001
40
0
40
0
40
0
40
0
40
0.097957862241620175
40
0.22560154413659866
40
0.22560154413659866
40
0.22560154413659866
40
0.22560154413659866
10
41.257549716423384
20
-119.79889102663741
30
0
10
41.541674419285087
20
-119.97025629312718
30
0
10
42.19602691561505
20
-120.36491852693659
30
0
10
42.964518792273452
20
-120.3803033726378
30
0
10
43.399325801323286
20
-120.38900800432906
30
0
0
SPLINE
5
160
100
AcDbEntity
8
0
100
AcDbSpline
70
0
71
3
72
9
73
5
74
0
42
0.000000001
43
0.0000000001
44
0.0000000001
40
0
40
0
40
0
40
0
40
0.12905077898873329
40
0.22654672230881259
40
0.22654672230881259
40
0.22654672230881259
40
0.22654672230881259
10
43.399325801323286
20
-120.38900800432906
30
0
10
43.838497502602834
20
-120.38171161822454
30
0
10
44.609456889561294
20
-120.36890292098435
30
0
10
45.272928140962243
20
-119.9849542363423
30
0
10
45.558457566688887
20
-119.81971927370772
30
0
0
SPLINE
5
161
100
AcDbEntity
8
0
100
AcDbSpline
70
0
71
3
72
9
73
5
74
0
42
0.000000001
43
0.0000000001
44
0.0000000001
40
0
40
0
40
0
40
0
40
0.082796447611470717
40
0.16745090549812019
40
0.16745090549812019
40
0.16745090549812019
40
0.16745090549812019
10
45.558457566688887
20
-119.81971927370772
30
0
10
45.754867111283311
20
-119.61383163731452
30
0
10
46.15209376821845
20
-119.19743610176339
30
0
10
46.205092001559009
20
-118.62394243268736
30
0
10
46.231885148475996
20
-118.33401389803633
30
0
0
SPLINE
5
162
100
AcDbEntity
8
0
100
AcDbSpline
70
0
71
3
72
9
73
5
74
0
42
0.000000001
43
0.0000000001
44
0.0000000001
40
0
40
0
40
0
40
0
40
0.068452150573348511
40
0.13334424871303052
40
0.13334424871303052
40
0.13334424871303052
40
0.13334424871303052
10
46.231885148475996
20
-118.33401389803633
30
0
10
46.21517318568258
20
-118.10116454946431
30
0
10
46.182618414144457
20
-117.64757585738391
30
0
10
45.912212739081923
20
-117.28273379856932
30
0
10
45.780619574974409
20
-117.10518308367476
30
0
0
SPLINE
5
163
100
AcDbEntity
8
0
100
AcDbSpline
70
0
71
3
72
9
73
5
74
0
42
0.000000001
43
0.0000000001
44
0.0000000001
40
0
40
0
40
0
40
0
40
0.070013946585825521
40
0.15455998098964249
40
0.15455998098964249
40
0.15455998098964249
40
0.15455998098964249
10
45.780619574974409
20
-117.10518308367476
30
0
10
45.597458865264421
20
-116.95444984552749
30
0
10
45.193120627080347
20
-116.62169719325426
30
0
10
44.675341346208114
20
-116.53033079843155
30
0
10
44.392110301445356
20
-116.48035236086592
30
0
0
LINE
5
164
100
AcDbEntity
8
0
100
AcDbLine
10
45.975010587166175
20
-111.45394750323042
30
0
11
47.078875495384558
21
-111.27344079699263
31
0
0
SPLINE
5
165
100
AcDbEntity
8
0
100
AcDbSpline
70
0
71
3
72
9
73
5
74
0
42
0.000000001
43
0.0000000001
44
0.0000000001
40
0
40
0
40
0
40
0
40
0.050675862096836728
40
0.095194727898824077
40
0.095194727898824077
40
0.095194727898824077
40
0.095194727898824077
10
47.078875495384558
20
-111.27344079699263
30
0
10
47.111232582596472
20
-111.43953782339972
30
0
10
47.172015448151882
20
-111.75155148393522
30
0
10
47.184240101452552
20
-112.0691142972445
30
0
10
47.189957095573774
20
-112.21762605395064
30
0
0
SPLINE
5
166
100
AcDbEntity
8
0
100
AcDbSpline
70
0
71
3
72
9
73
5
74
0
42
0.000000001
43
0.0000000001
44
0.0000000001
40
0
40
0
40
0
40
0
40
0.060639424540958338
40
0.10856583360670666
40
0.10856583360670666
40
0.10856583360670666
40
0.10856583360670666
10
47.189957095573774
20
-112.21762605395064
30
0
10
47.186025454327435
20
-112.42203551094995
30
0
10
47.178986437836379
20
-112.78800011671947
30
0
10
47.037289831609428
20
-113.12439244858579
30
0
10
46.974737836311689
20
-113.27289291109786
30
0
0
SPLINE
5
167
100
AcDbEntity
8
0
100
AcDbSpline
70
0
71
3
72
9
73
5
74
0
42
0.000000001
43
0.0000000001
44
0.0000000001
40
0
40
0
40
0
40
0
40
0.040499592809347965
40
0.078408999260821066
40
0.078408999260821066
40
0.078408999260821066
40
0.078408999260821066
10
46.974737836311689
20
-113.27289291109786
30
0
10
46.89940674896156
20
-113.38768253558813
30
0
10
46.753562438867903
20
-113.60992031521661
30
0
10
46.521242962712805
20
-113.73840661117192
30
0
10
46.40892048020207
20
-113.80052753176436
30
0
0
SPLINE
5
168
100
AcDbEntity
8
0
100
AcDbSpline
70
0
71
3
72
9
73
5
74
0
42
0.000000001
43
0.0000000001
44
0.0000000001
40
0
40
0
40
0
40
0
40
0.055605002722176014
40
0.14880025289422516
40
0.14880025289422516
40
0.14880025289422516
40
0.14880025289422516
10
46.40892048020207
20
-113.80052753176436
30
0
10
46.228260115953709
20
-113.84442750451046
30
0
10
45.744808869265832
20
-113.96190483077388
30
0
10
45.246023100077906
20
-113.95659121712282
30
0
10
44.933628035972944
20
-113.9532632419084
30
0
0
LINE
5
169
100
AcDbEntity
8
0
100
AcDbLine
10
44.933628035972944
20
-113.9532632419084
30
0
11
40.691731168220869
21
-113.9532632419084
31
0
0
LINE
5
170
100
AcDbEntity
8
0
100
AcDbLine
10
40.691731168220869
20
-113.9532632419084
30
0
11
40.691731168220869
21
-114.86967988695845
31
0
0
LINE
5
171
100
AcDbEntity
8
0
100
AcDbLine
10
40.691731168220869
20
-114.86967988695845
30
0
11
39.719774915169111
21
-114.86967988695845
31
0
0
LINE
5
172
100
AcDbEntity
8
0
100
AcDbLine
10
39.719774915169111
20
-114.86967988695847
30
0
11
39.719774915169111
21
-113.95326324190842
31
0
0
LINE
5
173
100
AcDbEntity
8
0
100
AcDbLine
10
39.719774915169111
20
-113.95326324190842
30
0
11
37.893884374092451
21
-113.95326324190842
31
0
0
LINE
5
174
100
AcDbEntity
8
0
100
AcDbLine
10
37.893884374092451
20
-113.95326324190842
30
0
11
37.144089533279768
21
-112.71054692949997
31
0
0
LINE
5
175
100
AcDbEntity
8
0
100
AcDbLine
10
37.144089533279768
20
-112.71054692949997
30
0
11
39.719774915169111
21
-112.71054692949997
31
0
0
LINE
5
176
100
AcDbEntity
8
0
100
AcDbLine
10
39.719774915169111
20
-112.71054692949997
30
0
11
39.719774915169111
21
-111.45394750323044
31
0
0
LINE
5
177
100
AcDbEntity
8
0
100
AcDbLine
10
39.719774915169104
20
-111.45394750323044
30
0
11
40.691731168220862
21
-111.45394750323044
31
0
0
LINE
5
178
100
AcDbEntity
8
0
100
AcDbLine
10
40.691731168220862
20
-111.45394750323042
30
0
11
40.691731168220862
21
-112.71054692949996
31
0
0
LINE
5
179
100
AcDbEntity
8
0
100
AcDbLine
10
40.691731168220869
20
-112.71054692949996
30
0
11
45.003054334114424
21
-112.71054692949996
31
0
0
SPLINE
5
180
100
AcDbEntity
8
0
100
AcDbSpline
70
0
71
3
72
9
73
5
74
0
42
0.000000001
43
0.0000000001
44
0.0000000001
40
0
40
0
40
0
40
0
40
0.043942515007203489
40
0.069250282422732429
40
0.069250282422732429
40
0.069250282422732429
40
0.069250282422732429
10
45.003054334114424
20
-112.71054692949996
30
0
10
45.150289932853482
20
-112.71239142293291
30
0
10
45.38232277834922
20
-112.71529821356924
30
0
10
45.607920657088989
20
-112.66351687599085
30
0
10
45.690366221855513
20
-112.64459319796309
30
0
0
SPLINE
5
181
100
AcDbEntity
8
0
100
AcDbSpline
70
0
71
3
72
9
73
5
74
0
42
0.000000001
43
0.0000000001
44
0.0000000001
40
0
40
0
40
0
40
0
40
0.016227085887908967
40
0.032871903191788648
40
0.032871903191788648
40
0.032871903191788648
40
0.032871903191788648
10
45.690366221855513
20
-112.64459319796309
30
0
10
45.738860515996876
20
-112.61882773877375
30
0
10
45.837097485553869
20
-112.56663354407888
30
0
10
45.90099866957955
20
-112.47551391360665
30
0
10
45.933355285118452
20
-112.4293751307939
30
0
0
SPLINE
5
182
100
AcDbEntity
8
0
100
AcDbSpline
70
0
71
3
72
9
73
5
74
0
42
0.000000001
43
0.0000000001
44
0.0000000001
40
0
40
0
40
0
40
0
40
0.01935916317920933
40
0.044022095793646437
40
0.044022095793646437
40
0.044022095793646437
40
0.044022095793646437
10
45.933355285118452
20
-112.4293751307939
30
0
10
45.959581470147185
20
-112.36975384024147
30
0
10
46.019218946155256
20
-112.23417700049156
30
0
10
46.022032418753589
20
-112.0856299596004
30
0
10
46.023608638237341
20
-112.00240798678145
30
0
0
SPLINE
5
183
100
AcDbEntity
8
0
100
AcDbSpline
70
0
71
3
72
9
73
5
74
0
42
0.000000001
43
0.0000000001
44
0.0000000001
40
0
40
0
40
0
40
0
40
0.024155906186911283
40
0.05509209341899185
40
0.05509209341899185
40
0.05509209341899185
40
0.05509209341899185
10
46.023608638237341
20
-112.00240798678145
30
0
10
46.020751150723378
20
-111.92188958046636
30
0
10
46.01423411228793
20
-111.73825219057355
30
0
10
45.989115557158435
20
-111.55618484857827
30
0
10
45.975010587166175
20
-111.45394750323042
30
0
0
LINE
5
184
100
AcDbEntity
8
0
100
AcDbLine
10
47.092760993431433
20
-110.24594255175337
30
0
11
39.719775511215552
21
-110.24594255175337
31
0
0
LINE
5
185
100
AcDbEntity
8
0
100
AcDbLine
10
39.719775511215552
20
-110.24594255175339
30
0
11
39.719775511215552
21
-109.12125058855759
31
0
0
LINE
5
186
100
AcDbEntity
8
0
100
AcDbLine
10
39.719775511215552
20
-109.12125058855759
30
0
11
40.837525321434363
21
-109.12125058855759
31
0
0
SPLINE
5
187
100
AcDbEntity
8
0
100
AcDbSpline
70
0
71
3
72
9
73
5
74
0
42
0.000000001
43
0.0000000001
44
0.0000000001
40
0
40
0
40
0
40
0
40
0.077134795489511701
40
0.13119691324476448
40
0.13119691324476448
40
0.13119691324476448
40
0.13119691324476448
10
40.837525321434363
20
-109.12125058855757
30
0
10
40.610420588209699
20
-108.99596837818173
30
0
10
40.224143036123586
20
-108.78287856337791
30
0
10
39.925958553495313
20
-108.45955765214271
30
0
10
39.803086115311011
20
-108.32632728304611
30
0
0
SPLINE
5
188
100
AcDbEntity
8
0
100
AcDbSpline
70
0
71
3
72
9
73
5
74
0
42
0.000000001
43
0.0000000001
44
0.0000000001
40
0
40
0
40
0
40
0
40
0.042614764312975735
40
0.084993571985380129
40
0.084993571985380129
40
0.084993571985380129
40
0.084993571985380129
10
39.803086115311011
20
-108.32632728304611
30
0
10
39.730189497695612
20
-108.20199915006555
30
0
10
39.584799888796645
20
-107.9540312851565
30
0
10
39.563683290523464
20
-107.66738757959118
30
0
10
39.553154303024634
20
-107.52446361269699
30
0
0
SPLINE
5
189
100
AcDbEntity
8
0
100
AcDbSpline
70
0
71
3
72
9
73
5
74
0
42
0.000000001
43
0.0000000001
44
0.0000000001
40
0
40
0
40
0
40
0
40
0.064488369779536953
40
0.13592513501535569
40
0.13592513501535569
40
0.13592513501535569
40
0.13592513501535569
10
39.553154303024634
20
-107.52446361269699
30
0
10
39.573112528332821
20
-107.30798183079671
30
0
10
39.615179407662481
20
-106.85169311495915
30
0
10
39.83846954232235
20
-106.4507911062999
30
0
10
39.955821825455054
20
-106.24009319033371
30
0
0
LINE
5
190
100
AcDbEntity
8
0
100
AcDbLine
10
39.955821825455054
20
-106.24009319033371
30
0
11
41.115227533768042
21
-106.67053170885788
31
0
0
SPLINE
5
191
100
AcDbEntity
8
0
100
AcDbSpline
70
0
71
3
72
9
73
5
74
0
42
0.000000001
43
0.0000000001
44
0.0000000001
40
0
40
0
40
0
40
0
40
0.050118980173103317
40
0.096436971471878657
40
0.096436971471878657
40
0.096436971471878657
40
0.096436971471878657
10
41.115227533768042
20
-106.67053170885787
30
0
10
41.036292283874602
20
-106.82001043116639
30
0
10
40.884408178974468
20
-107.10763151262353
30
0
10
40.857426958631237
20
-107.43142855426852
30
0
10
40.8444680704578
20
-107.58694596972212
30
0
0
SPLINE
5
192
100
AcDbEntity
8
0
100
AcDbSpline
70
0
71
3
72
9
73
5
74
0
42
0.000000001
43
0.0000000001
44
0.0000000001
40
0
40
0
40
0
40
0
40
0.039363655579527049
40
0.078690990748874728
40
0.078690990748874728
40
0.078690990748874728
40
0.078690990748874728
10
40.8444680704578
20
-107.58694596972212
30
0
10
40.854718282959119
20
-107.71998722038109
30
0
10
40.875209250203895
20
-107.98594696600662
30
0
10
41.019044218254891
20
-108.21058748919144
30
0
10
41.090928508232459
20
-108.32285590853438
30
0
0
SPLINE
5
193
100
AcDbEntity
8
0
100
AcDbSpline
70
0
71
3
72
9
73
5
74
0
42
0.000000001
43
0.0000000001
44
0.0000000001
40
0
40
0
40
0
40
0
40
0.040575116583569396
40
0.083739579717877821
40
0.083739579717877821
40
0.083739579717877821
40
0.083739579717877821
10
41.090928508232459
20
-108.32285590853438
30
0
10
41.183170680763425
20
-108.42447063432815
30
0
10
41.373541563471733
20
-108.63418474355547
30
0
10
41.638298050821604
20
-108.73568749298661
30
0
10
41.774769617508277
20
-108.78800817217574
30
0
0
SPLINE
5
194
100
AcDbEntity
8
0
100
AcDbSpline
70
0
71
3
72
9
73
5
74
0
42
0.000000001
43
0.0000000001
44
0.0000000001
40
0
40
0
40
0
40
0
40
0.071499748835520072
40
0.14769880897760079
40
0.14769880897760079
40
0.14769880897760079
40
0.14769880897760079
10
41.774769617508277
20
-108.78800817217574
30
0
10
42.006086047505406
20
-108.84873840367885
30
0
10
42.483922148526133
20
-108.97419035292378
30
0
10
42.977871803726117
20
-108.98876454290178
30
0
10
43.232704593132361
20
-108.99628349032149
30
0
0
LINE
5
195
100
AcDbEntity
8
0
100
AcDbLine
10
43.232704593132361
20
-108.99628349032149
30
0
11
47.092760993431433
21
-108.99628349032149
31
0
0
LINE
5
196
100
AcDbEntity
8
0
100
AcDbLine
10
47.092760993431433
20
-108.99628349032149
30
0
11
47.092760993431433
21
-110.24594255175337
31
0
0
SPLINE
5
197
100
AcDbEntity
8
0
100
AcDbSpline
70
0
71
3
72
9
73
5
74
0
42
0.000000001
43
0.0000000001
44
0.0000000001
40
0
40
0
40
0
40
0
40
0.18050834850861286
40
0.33200722947904859
40
0.33200722947904859
40
0.33200722947904859
40
0.33200722947904859
10
43.406268550346716
20
-105.96239276613936
30
0
10
42.785689250022344
20
-105.93391459492715
30
0
10
41.644263848510199
20
-105.88153497479922
30
0
10
40.770900855107321
20
-105.15523479041607
30
0
10
40.372374845932342
20
-104.82381530489668
30
0
0
SPLINE
5
198
100
AcDbEntity
8
0
100
AcDbSpline
70
0
71
3
72
9
73
5
74
0
42
0.000000001
43
0.0000000001
44
0.0000000001
40
0
40
0
40
0
40
0
40
0.12211037762510178
40
0.25011389310059562
40
0.25011389310059562
40
0.25011389310059562
40
0.25011389310059562
10
40.372374845932342
20
-104.82381530489668
30
0
10
40.133472548305789
20
-104.48427375027737
30
0
10
39.64413835008142
20
-103.78880411250422
30
0
10
39.583954995114723
20
-102.9396068400072
30
0
10
39.553154303024627
20
-102.50500388827072
30
0
0
SPLINE
5
199
100
AcDbEntity
8
0
100
AcDbSpline
70
0
71
3
72
9
73
5
74
0
42
0.000000001
43
0.0000000001
44
0.0000000001
40
0
40
0
40
0
40
0
40
0.14038372135395261
40
0.27368078989386602
40
0.27368078989386602
40
0.27368078989386602
40
0.27368078989386602
10
39.553154303024627
20
-102.50500388827072
30
0
10
39.590194044452673
20
-102.02575773088249
30
0
10
39.662403739378298
20
-101.09145804397713
30
0
10
40.258889807695809
20
-100.37064691829696
30
0
10
40.549410177658416
20
-100.0195736476396
30
0
0
SPLINE
5
200
100
AcDbEntity
8
0
100
AcDbSpline
70
0
71
3
72
9
73
5
74
0
42
0.000000001
43
0.0000000001
44
0.0000000001
40
0
40
0
40
0
40
0
40
0.1389660622119894
40
0.29745430473622381
40
0.29745430473622381
40
0.29745430473622381
40
0.29745430473622381
10
40.549410177658416
20
-100.0195736476396
30
0
10
40.930272928929682
20
-99.738435616501022
30
0
10
41.745502655353818
20
-99.136664822566729
30
0
10
42.761037217410589
20
-99.083097089716006
30
0
10
43.302129699180938
20
-99.054555375239701
30
0
0
SPLINE
5
201
100
AcDbEntity
8
0
100
AcDbSpline
70
0
71
3
72
9
73
5
74
0
42
0.000000001
43
0.0000000001
44
0.0000000001
40
0
40
0
40
0
40
0
40
0.12758273146554711
40
0.22950568920356113
40
0.22950568920356113
40
0.22950568920356113
40
0.22950568920356113
10
43.302129699180938
20
-99.054555375239701
30
0
10
43.731485557920337
20
-99.062888610305478
30
0
10
44.503844098466104
20
-99.077879078334306
30
0
10
45.222118048704665
20
-99.357393278870177
30
0
10
45.541101886223174
20
-99.481524903437943
30
0
0
SPLINE
5
202
100
AcDbEntity
8
0
100
AcDbSpline
70
0
71
3
72
9
73
5
74
0
42
0.000000001
43
0.0000000001
44
0.0000000001
40
0
40
0
40
0
40
0
40
0.089433189296677193
40
0.17946118776089612
40
0.17946118776089612
40
0.17946118776089612
40
0.17946118776089612
10
45.541101886223174
20
-99.481524903437943
30
0
10
45.798079206105598
20
-99.64049265055931
30
0
10
46.313742970490949
20
-99.959485419780961
30
0
10
46.642961686235012
20
-100.46875838008994
30
0
10
46.808116628120757
20
-100.7242388316606
30
0
0
SPLINE
5
203
100
AcDbEntity
8
0
100
AcDbSpline
70
0
71
3
72
9
73
5
74
0
42
0.000000001
43
0.0000000001
44
0.0000000001
40
0
40
0
40
0
40
0
40
0.091775291218045396
40
0.18522860504225852
40
0.18522860504225852
40
0.18522860504225852
40
0.18522860504225852
10
46.808116628120757
20
-100.7242388316606
30
0
10
46.939732843307596
20
-101.00380685839798
30
0
10
47.205371749122442
20
-101.56805454336534
30
0
10
47.241270313388654
20
-102.19080689435384
30
0
10
47.259382201622344
20
-102.50500388827071
30
0
0
SPLINE
5
204
100
AcDbEntity
8
0
100
AcDbSpline
70
0
71
3
72
9
73
5
74
0
42
0.000000001
43
0.0000000001
44
0.0000000001
40
0
40
0
40
0
40
0
40
0.14216247163012471
40
0.27524203439496053
40
0.27524203439496053
40
0.27524203439496053
40
0.27524203439496053
10
47.259382201622344
20
-102.50500388827071
30
0
10
47.223755952972766
20
-102.9906694078776
30
0
10
47.15477965392752
20
-103.93097076954692
30
0
10
46.556072631816974
20
-104.65683697304749
30
0
10
46.266597701500274
20
-105.0077933856462
30
0
0
SPLINE
5
205
100
AcDbEntity
8
0
100
AcDbSpline
70
0
71
3
72
9
73
5
74
0
42
0.000000001
43
0.0000000001
44
0.0000000001
40
0
40
0
40
0
40
0
40
0.14072155972857758
40
0.30732508066388659
40
0.30732508066388659
40
0.30732508066388659
40
0.30732508066388659
10
46.266597701500274
20
-105.0077933856462
30
0
10
45.8766031477385
20
-105.28569782316669
30
0
10
45.024884989380318
20
-105.89261977487452
30
0
10
43.975272397923803
20
-105.93786496601993
30
0
10
43.406268550346716
20
-105.96239276613936
30
0
0
SPLINE
5
206
100
AcDbEntity
8
0
100
AcDbSpline
70
0
71
3
72
9
73
5
74
0
42
0.000000001
43
0.0000000001
44
0.0000000001
40
0
40
0
40
0
40
0
40
0.12479728713816904
40
0.22448119480998691
40
0.22448119480998691
40
0.22448119480998691
40
0.22448119480998691
10
43.406268550346709
20
-104.67802234377608
30
0
10
43.831426167383739
20
-104.66597499510189
30
0
10
44.596185498645241
20
-104.64430462640486
30
0
10
45.240915375139792
20
-104.23977237994052
30
0
10
45.527216388176299
20
-104.06013436999068
30
0
0
SPLINE
5
207
100
AcDbEntity
8
0
100
AcDbSpline
70
0
71
3
72
9
73
5
74
0
42
0.000000001
43
0.0000000001
44
0.0000000001
40
0
40
0
40
0
40
0
40
0.087529053349335514
40
0.17506073070174732
40
0.17506073070174732
40
0.17506073070174732
40
0.17506073070174732
10
45.527216388176299
20
-104.06013436999068
30
0
10
45.732744627573723
20
-103.84086382586042
30
0
10
46.143807267828251
20
-103.40231616416446
30
0
10
46.202525561548583
20
-102.8041109690881
30
0
10
46.231885148475982
20
-102.50500388827071
30
0
0
SPLINE
5
208
100
AcDbEntity
8
0
100
AcDbSpline
70
0
71
3
72
9
73
5
74
0
42
0.000000001
43
0.0000000001
44
0.0000000001
40
0
40
0
40
0
40
0
40
0.087039065955361108
40
0.17458770971195897
40
0.17458770971195897
40
0.17458770971195897
40
0.17458770971195897
10
46.231885148475982
20
-102.50500388827071
30
0
10
46.202036183974755
20
-102.20762281773679
30
0
10
46.142163501606873
20
-101.61111963326057
30
0
10
45.730285232817536
20
-101.17534129075175
30
0
10
45.52374501366458
20
-100.95681615557417
30
0
0
SPLINE
5
209
100
AcDbEntity
8
0
100
AcDbSpline
70
0
71
3
72
9
73
5
74
0
42
0.000000001
43
0.0000000001
44
0.0000000001
40
0
40
0
40
0
40
0
40
0.10068403612851856
40
0.22815126650836207
40
0.22815126650836207
40
0.22815126650836207
40
0.22815126650836207
10
45.52374501366458
20
-100.95681615557417
30
0
10
45.233558157190117
20
-100.77723456388838
30
0
10
44.575991164700682
20
-100.37030046430182
30
0
10
43.798817288016217
20
-100.3501747337894
30
0
10
43.36461324829898
20
-100.33893056597456
30
0
0
SPLINE
5
210
100
AcDbEntity
8
0
100
AcDbSpline
70
0
71
3
72
9
73
5
74
0
42
0.000000001
43
0.0000000001
44
0.0000000001
40
0
40
0
40
0
40
0
40
0.1211925430813945
40
0.21992486776173276
40
0.21992486776173276
40
0.21992486776173276
40
0.21992486776173276
10
43.36461324829898
20
-100.33893056597456
30
0
10
42.951709328510645
20
-100.35243978950075
30
0
10
42.202423624548125
20
-100.37695461625506
30
0
10
41.574265464588507
20
-100.77954842859663
30
0
10
41.292262269447662
20
-100.96028753008589
30
0
0
SPLINE
5
211
100
AcDbEntity
8
0
100
AcDbSpline
70
0
71
3
72
9
73
5
74
0
42
0.000000001
43
0.0000000001
44
0.0000000001
40
0
40
0
40
0
40
0
40
0.087460080149607378
40
0.17405663110084046
40
0.17405663110084046
40
0.17405663110084046
40
0.17405663110084046
10
41.292262269447662
20
-100.96028753008589
30
0
10
41.086735432687753
20
-101.17922036420364
30
0
10
40.677711009819063
20
-101.61492441888443
30
0
10
40.617533556005867
20
-102.20929365939671
30
0
10
40.587594105194427
20
-102.50500388827071
30
0
0
SPLINE
5
212
100
AcDbEntity
8
0
100
AcDbSpline
70
0
71
3
72
9
73
5
74
0
42
0.000000001
43
0.0000000001
44
0.0000000001
40
0
40
0
40
0
40
0
40
0.087514240357106476
40
0.17488637461894446
40
0.17488637461894446
40
0.17488637461894446
40
0.17488637461894446
10
40.587594105194427
20
-102.50500388827071
30
0
10
40.616715436899227
20
-102.80402868077149
30
0
10
40.674910812933412
20
-103.40159270770303
30
0
10
41.08427547641287
20
-103.84073942726809
30
0
10
41.288791490982391
20
-104.06013436999068
30
0
0
SPLINE
5
213
100
AcDbEntity
8
0
100
AcDbSpline
70
0
71
3
72
9
73
5
74
0
42
0.000000001
43
0.0000000001
44
0.0000000001
40
0
40
0
40
0
40
0
40
0.099453419632429221
40
0.22416470853750003
40
0.22416470853750003
40
0.22416470853750003
40
0.22416470853750003
10
41.288791490982391
20
-104.06013436999068
30
0
10
41.574208936048322
20
-104.2397644586415
30
0
10
42.217530388655852
20
-104.64464471932835
30
0
10
42.981335137323605
20
-104.6660909796353
30
0
10
43.406268550346709
20
-104.67802234377608
30
0
0
LINE
5
214
100
AcDbEntity
8
0
100
AcDbLine
10
47.092760993431426
20
-97.589683015010209
30
0
11
39.719775511215545
21
-97.589683015010209
31
0
0
LINE
5
215
100
AcDbEntity
8
0
100
AcDbLine
10
39.719775511215538
20
-97.589683015010209
30
0
11
39.719775511215538
21
-96.464991051814408
31
0
0
LINE
5
216
100
AcDbEntity
8
0
100
AcDbLine
10
39.719775511215538
20
-96.464991051814408
30
0
11
40.768100215385772
21
-96.464991051814408
31
0
0
SPLINE
5
217
100
AcDbEntity
8
0
100
AcDbSpline
70
0
71
3
72
9
73
5
74
0
42
0.000000001
43
0.0000000001
44
0.0000000001
40
0
40
0
40
0
40
0
40
0.13475622317163846
40
0.27350147699157856
40
0.27350147699157856
40
0.27350147699157856
40
0.27350147699157856
10
40.768100215385765
20
-96.464991051814408
30
0
10
40.413762144840447
20
-96.160512301381758
30
0
10
39.694596948847561
20
-95.542541672672314
30
0
10
39.600758066326847
20
-94.597713105204406
30
0
10
39.55315430302462
20
-94.118408639094682
30
0
0
SPLINE
5
218
100
AcDbEntity
8
0
100
AcDbSpline
70
0
71
3
72
9
73
5
74
0
42
0.000000001
43
0.0000000001
44
0.0000000001
40
0
40
0
40
0
40
0
40
0.06423786040756406
40
0.12550797524337404
40
0.12550797524337404
40
0.12550797524337404
40
0.12550797524337404
10
39.55315430302462
20
-94.118408639094682
30
0
10
39.562155981543015
20
-93.903045208840183
30
0
10
39.579743467139011
20
-93.482267992706056
30
0
10
39.722823568169048
20
-93.086336336712691
30
0
10
39.79267199177584
20
-92.893051583430619
30
0
0
SPLINE
5
219
100
AcDbEntity
8
0
100
AcDbSpline
70
0
71
3
72
9
73
5
74
0
42
0.000000001
43
0.0000000001
44
0.0000000001
40
0
40
0
40
0
40
0
40
0.056155970622355826
40
0.10561603268460198
40
0.10561603268460198
40
0.10561603268460198
40
0.10561603268460198
10
39.79267199177584
20
-92.893051583430619
30
0
10
39.874119954184394
20
-92.72190767020723
30
0
10
40.027304211610641
20
-92.400026649677301
30
0
10
40.29541597191276
20
-92.166047001191131
30
0
10
40.420972897003502
20
-92.056474167964311
30
0
0
SPLINE
5
220
100
AcDbEntity
8
0
100
AcDbSpline
70
0
71
3
72
9
73
5
74
0
42
0.000000001
43
0.0000000001
44
0.0000000001
40
0
40
0
40
0
40
0
40
0.048635406128515551
40
0.1007371948779231
40
0.1007371948779231
40
0.1007371948779231
40
0.1007371948779231
10
40.420972897003502
20
-92.056474167964311
30
0
10
40.559517506740747
20
-91.970269754625519
30
0
10
40.846481191458551
20
-91.791716896181242
30
0
10
41.174617783368177
20
-91.709969781982608
30
0
10
41.34433169503054
20
-91.667689759394975
30
0
0
SPLINE
5
221
100
AcDbEntity
8
0
100
AcDbSpline
70
0
71
3
72
9
73
5
74
0
42
0.000000001
43
0.0000000001
44
0.0000000001
40
0
40
0
40
0
40
0
40
0.048013158981118971
40
0.12179813920625943
40
0.12179813920625943
40
0.12179813920625943
40
0.12179813920625943
10
41.34433169503054
20
-91.667689759394975
30
0
10
41.503254263715235
20
-91.647653871851404
30
0
10
41.906403599323163
20
-91.596827517744757
30
0
10
42.312976349326881
20
-91.597721000030845
30
0
10
42.559277011345237
20
-91.5982622691606
30
0
0
LINE
5
222
100
AcDbEntity
8
0
100
AcDbLine
10
42.559277011345237
20
-91.5982622691606
30
0
11
47.092760993431419
21
-91.5982622691606
31
0
0
LINE
5
223
100
AcDbEntity
8
0
100
AcDbLine
10
47.092760993431419
20
-91.5982622691606
30
0
11
47.092760993431419
21
-92.847923714778275
31
0
0
LINE
5
224
100
AcDbEntity
8
0
100
AcDbLine
10
47.092760993431419
20
-92.847923714778275
30
0
11
42.607875062416404
21
-92.847923714778275
31
0
0
SPLINE
5
225
100
AcDbEntity
8
0
100
AcDbSpline
70
0
71
3
72
9
73
5
74
0
42
0.000000001
43
0.0000000001
44
0.0000000001
40
0
40
0
40
0
40
0
40
0.066834707167849047
40
0.11554748719492633
40
0.11554748719492633
40
0.11554748719492633
40
0.11554748719492633
10
42.607875062416404
20
-92.847923714778275
30
0
10
42.383875744927451
20
-92.849122206886278
30
0
10
41.996613506997306
20
-92.851194225413352
30
0
10
41.623235711410977
20
-92.951450430404236
30
0
10
41.46582622666201
20
-92.993716675898881
30
0
0
SPLINE
5
226
100
AcDbEntity
8
0
100
AcDbSpline
70
0
71
3
72
9
73
5
74
0
42
0.000000001
43
0.0000000001
44
0.0000000001
40
0
40
0
40
0
40
0
40
0.039574223662703571
40
0.080663809955757088
40
0.080663809955757088
40
0.080663809955757088
40
0.080663809955757088
10
41.46582622666201
20
-92.993716675898881
30
0
10
41.345391135951324
20
-93.052842932579125
30
0
10
41.099909295248871
20
-93.173359488327606
30
0
10
40.942173744430619
20
-93.397010762485991
30
0
10
40.861824346969932
20
-93.510937173030229
30
0
0
SPLINE
5
227
100
AcDbEntity
8
0
100
AcDbSpline
70
0
71
3
72
9
73
5
74
0
42
0.000000001
43
0.0000000001
44
0.0000000001
40
0
40
0
40
0
40
0
40
0.043757956964860845
40
0.090872666089888976
40
0.090872666089888976
40
0.090872666089888976
40
0.090872666089888976
10
40.861824346969932
20
-93.510937173030229
30
0
10
40.796039453712268
20
-93.642968355490481
30
0
10
40.659423188845011
20
-93.917159071633733
30
0
10
40.644123817960136
20
-94.223434074595104
30
0
10
40.636191560219139
20
-94.382228333613725
30
0
0
SPLINE
5
228
100
AcDbEntity
8
0
100
AcDbSpline
70
0
71
3
72
9
73
5
74
0
42
0.000000001
43
0.0000000001
44
0.0000000001
40
0
40
0
40
0
40
0
40
0.075443354668269402
40
0.14939677247733005
40
0.14939677247733005
40
0.14939677247733005
40
0.14939677247733005
10
40.636191560219139
20
-94.382228333613725
30
0
10
40.656453365356001
20
-94.638261535101293
30
0
10
40.6965768236158
20
-95.145271517855548
30
0
10
40.995183567330855
20
-95.556672207873831
30
0
10
41.14299793381533
20
-95.76032109942183
30
0
0
SPLINE
5
229
100
AcDbEntity
8
0
100
AcDbSpline
70
0
71
3
72
9
73
5
74
0
42
0.000000001
43
0.0000000001
44
0.0000000001
40
0
40
0
40
0
40
0
40
0.085325344345674209
40
0.20509656427262057
40
0.20509656427262057
40
0.20509656427262057
40
0.20509656427262057
10
41.14299793381533
20
-95.76032109942183
30
0
10
41.379900762787699
20
-95.928233476188623
30
0
10
41.949344187379751
20
-96.331844523267449
30
0
10
42.654367534563242
20
-96.337009892455796
30
0
10
43.066083384941429
20
-96.340026337764115
30
0
0
LINE
5
230
100
AcDbEntity
8
0
100
AcDbLine
10
43.066083384941429
20
-96.340026337764115
30
0
11
47.092760993431419
21
-96.340026337764115
31
0
0
LINE
5
231
100
AcDbEntity
8
0
100
AcDbLine
10
47.092760993431426
20
-96.340026337764115
30
0
11
47.092760993431426
21
-97.589683015010209
31
0
0
SPLINE
5
232
100
AcDbEntity
8
0
100
AcDbSpline
70
0
71
3
72
9
73
5
74
0
42
0.000000001
43
0.0000000001
44
0.0000000001
40
0
40
0
40
0
40
0
40
0.18050842370156184
40
0.33200703589983177
40
0.33200703589983177
40
0.33200703589983177
40
0.33200703589983177
10
43.406268550346702
20
-90.1472706386064
30
0
10
42.785689519594214
20
-90.118790199375965
30
0
10
41.644265754892984
20
-90.066406460068265
30
0
10
40.77090112651063
20
-89.340110390510546
30
0
10
40.372374845932328
20
-89.008693177363725
30
0
0
SPLINE
5
233
100
AcDbEntity
8
0
100
AcDbSpline
70
0
71
3
72
9
73
5
74
0
42
0.000000001
43
0.0000000001
44
0.0000000001
40
0
40
0
40
0
40
0
40
0.12211058366434389
40
0.25011386379279266
40
0.25011386379279266
40
0.25011386379279266
40
0.25011386379279266
10
40.372374845932328
20
-89.008693177363725
30
0
10
40.133472542831811
20
-88.669150816811353
30
0
10
39.644139216396191
20
-87.97368078325124
30
0
10
39.583955253314741
20
-87.124483810788291
30
0
10
39.553154303024613
20
-86.689881760737748
30
0
0
SPLINE
5
234
100
AcDbEntity
8
0
100
AcDbSpline
70
0
71
3
72
9
73
5
74
0
42
0.000000001
43
0.0000000001
44
0.0000000001
40
0
40
0
40
0
40
0
40
0.1403834867176888
40
0.2736809501377
40
0.2736809501377
40
0.2736809501377
40
0.2736809501377
10
39.553154303024613
20
-86.689881760737748
30
0
10
39.590194459962859
20
-86.210636612945635
30
0
10
39.662405127906275
20
-85.276336785641888
30
0
10
40.258889798115135
20
-84.55552403330924
30
0
10
40.549410177658402
20
-84.204449135920854
30
0
0
SPLINE
5
235
100
AcDbEntity
8
0
100
AcDbSpline
70
0
71
3
72
9
73
5
74
0
42
0.000000001
43
0.0000000001
44
0.0000000001
40
0
40
0
40
0
40
0
40
0.1389660622119894
40
0.29745423215128075
40
0.29745423215128075
40
0.29745423215128075
40
0.29745423215128075
10
40.549410177658402
20
-84.204449135920854
30
0
10
40.930272876395136
20
-83.923310777042133
30
0
10
41.745502291437361
20
-83.32153942843064
30
0
10
42.761037166441199
20
-83.267975378138431
30
0
10
43.302129699180924
20
-83.239435631892533
30
0
0
SPLINE
5
236
100
AcDbEntity
8
0
100
AcDbSpline
70
0
71
3
72
9
73
5
74
0
42
0.000000001
43
0.0000000001
44
0.0000000001
40
0
40
0
40
0
40
0
40
0.12758269157085173
40
0.22950564930886574
40
0.22950564930886574
40
0.22950564930886574
40
0.22950564930886574
10
43.302129699180924
20
-83.239435631892533
30
0
10
43.73148559223754
20
-83.247766851106704
30
0
10
44.503844301771622
20
-83.262753694946866
30
0
10
45.222118072829716
20
-83.542268484148536
30
0
10
45.54110188622316
20
-83.666400391719193
30
0
0
SPLINE
5
237
100
AcDbEntity
8
0
100
AcDbSpline
70
0
71
3
72
9
73
5
74
0
42
0.000000001
43
0.0000000001
44
0.0000000001
40
0
40
0
40
0
40
0
40
0.0894337482384608
40
0.17946136611715943
40
0.17946136611715943
40
0.17946136611715943
40
0.17946136611715943
10
45.54110188622316
20
-83.666400391719193
30
0
10
45.798078818352685
20
-83.825371799331378
30
0
10
46.313739094354951
20
-84.144370237231783
30
0
10
46.642960965585885
20
-84.653641048664099
30
0
10
46.808116628120743
20
-84.909119088313432
30
0
0
SPLINE
5
238
100
AcDbEntity
8
0
100
AcDbSpline
70
0
71
3
72
9
73
5
74
0
42
0.000000001
43
0.0000000001
44
0.0000000001
40
0
40
0
40
0
40
0
40
0.091775291218045396
40
0.18522836836731171
40
0.18522836836731171
40
0.18522836836731171
40
0.18522836836731171
10
46.808116628120743
20
-84.909119088313432
30
0
10
46.939732844158769
20
-85.188687111751364
30
0
10
47.20537141227274
20
-85.752934069094692
30
0
10
47.241270215535053
20
-86.375685583271959
30
0
10
47.25938220162233
20
-86.689881760737748
30
0
0
SPLINE
5
239
100
AcDbEntity
8
0
100
AcDbSpline
70
0
71
3
72
9
73
5
74
0
42
0.000000001
43
0.0000000001
44
0.0000000001
40
0
40
0
40
0
40
0
40
0.14216223687321161
40
0.27524199724567444
40
0.27524199724567444
40
0.27524199724567444
40
0.27524199724567444
10
47.25938220162233
20
-86.689881760737748
30
0
10
47.223755666803491
20
-87.175546350323359
30
0
10
47.154778709109564
20
-88.115847337204059
30
0
10
46.556072639964256
20
-88.841714037038713
30
0
10
46.26659770150026
20
-89.192671258113236
30
0
0
SPLINE
5
240
100
AcDbEntity
8
0
100
AcDbSpline
70
0
71
3
72
9
73
5
74
0
42
0.000000001
43
0.0000000001
44
0.0000000001
40
0
40
0
40
0
40
0
40
0.14072168102902502
40
0.30732516781242758
40
0.30732516781242758
40
0.30732516781242758
40
0.30732516781242758
10
46.26659770150026
20
-89.192671258113236
30
0
10
45.876603269141647
20
-89.470576832288131
30
0
10
45.024885868567083
20
-90.077500915306175
30
0
10
43.97527252672262
20
-90.122743995068376
30
0
10
43.406268550346702
20
-90.1472706386064
30
0
0
SPLINE
5
241
100
AcDbEntity
8
0
100
AcDbSpline
70
0
71
3
72
9
73
5
74
0
42
0.000000001
43
0.0000000001
44
0.0000000001
40
0
40
0
40
0
40
0
40
0.12479728713816904
40
0.22448108397274
40
0.22448108397274
40
0.22448108397274
40
0.22448108397274
10
43.406268550346695
20
-88.862900216243119
30
0
10
43.831426059656941
20
-88.850852670250973
30
0
10
44.596184819544469
20
-88.829181957324835
30
0
10
45.240915288862467
20
-88.424651660007555
30
0
10
45.527216388176285
20
-88.24501462664351
30
0
0
SPLINE
5
242
100
AcDbEntity
8
0
100
AcDbSpline
70
0
71
3
72
9
73
5
74
0
42
0.000000001
43
0.0000000001
44
0.0000000001
40
0
40
0
40
0
40
0
40
0.087529243401275117
40
0.1750609207536869
40
0.1750609207536869
40
0.1750609207536869
40
0.1750609207536869
10
45.527216388176285
20
-88.24501462664351
30
0
10
45.732744627575443
20
-88.025743258683079
30
0
10
46.143806821557305
20
-87.587194425419483
30
0
10
46.202525434039273
20
-86.988988754673002
30
0
10
46.231885148475968
20
-86.689881760737748
30
0
0
SPLINE
5
243
100
AcDbEntity
8
0
100
AcDbSpline
70
0
71
3
72
9
73
5
74
0
42
0.000000001
43
0.0000000001
44
0.0000000001
40
0
40
0
40
0
40
0
40
0.087038832520641776
40
0.17458747627723964
40
0.17458747627723964
40
0.17458747627723964
40
0.17458747627723964
10
46.231885148475968
20
-86.689881760737748
30
0
10
46.20203602708952
20
-86.392501546748122
30
0
10
46.142162949509853
20
-85.795999278143739
30
0
10
45.73028523235331
20
-85.360221537683486
30
0
10
45.523745013664566
20
-85.141696412227006
30
0
0
SPLINE
5
244
100
AcDbEntity
8
0
100
AcDbSpline
70
0
71
3
72
9
73
5
74
0
42
0.000000001
43
0.0000000001
44
0.0000000001
40
0
40
0
40
0
40
0
40
0.1006842556012483
40
0.22815148598109181
40
0.22815148598109181
40
0.22815148598109181
40
0.22815148598109181
10
45.523745013664566
20
-85.141696412227006
30
0
10
45.233558326880157
20
-84.962112869348431
30
0
10
44.575992519729567
20
-84.555174843926011
30
0
10
43.798817505737688
20
-84.535049817746511
30
0
10
43.364613248298966
20
-84.523806054255815
30
0
0
SPLINE
5
245
100
AcDbEntity
8
0
100
AcDbSpline
70
0
71
3
72
9
73
5
74
0
42
0.000000001
43
0.0000000001
44
0.0000000001
40
0
40
0
40
0
40
0
40
0.1211925430813945
40
0.21992486776173276
40
0.21992486776173276
40
0.21992486776173276
40
0.21992486776173276
10
43.364613248298966
20
-84.523806054255815
30
0
10
42.951709328510631
20
-84.537315277782
30
0
10
42.202423624548111
20
-84.561830104536313
30
0
10
41.574265464588493
20
-84.964423916877877
30
0
10
41.292262269447647
20
-85.145163018367143
30
0
0
SPLINE
5
246
100
AcDbEntity
8
0
100
AcDbSpline
70
0
71
3
72
9
73
5
74
0
42
0.000000001
43
0.0000000001
44
0.0000000001
40
0
40
0
40
0
40
0
40
0.087460080149607378
40
0.17405686453377792
40
0.17405686453377792
40
0.17405686453377792
40
0.17405686453377792
10
41.292262269447647
20
-85.145163018367143
30
0
10
41.086735431896713
20
-85.364095862048117
30
0
10
40.677710458898005
20
-85.799800520097733
30
0
10
40.617533400053901
20
-86.394170675932017
30
0
10
40.587594105194412
20
-86.689881760737748
30
0
0
SPLINE
5
247
100
AcDbEntity
8
0
100
AcDbSpline
70
0
71
3
72
9
73
5
74
0
42
0.000000001
43
0.0000000001
44
0.0000000001
40
0
40
0
40
0
40
0
40
0.087514240357106476
40
0.17488656501221386
40
0.17488656501221386
40
0.17488656501221386
40
0.17488656501221386
10
40.587594105194412
20
-86.689881760737748
30
0
10
40.616715564541707
20
-86.988906466687084
30
0
10
40.674911259009335
20
-87.586470971205102
30
0
10
41.084275476309472
20
-88.025618860362698
30
0
10
41.288791490982376
20
-88.24501462664351
30
0
0
SPLINE
5
248
100
AcDbEntity
8
0
100
AcDbSpline
70
0
71
3
72
9
73
5
74
0
42
0.000000001
43
0.0000000001
44
0.0000000001
40
0
40
0
40
0
40
0
40
0.099453308538311427
40
0.22416459744338224
40
0.22416459744338224
40
0.22416459744338224
40
0.22416459744338224
10
41.288791490982376
20
-88.24501462664351
30
0
10
41.574209022475479
20
-88.424643738810786
30
0
10
42.217531069683069
20
-88.829522050150004
30
0
10
42.981335245454261
20
-88.850968654683143
30
0
10
43.406268550346695
20
-88.862900216243119
30
0
0
SPLINE
5
249
100
AcDbEntity
8
0
100
AcDbSpline
70
0
71
3
72
9
73
5
74
0
42
0.000000001
43
0.0000000001
44
0.0000000001
40
0
40
0
40
0
40
0
40
0.18050842370156184
40
0.33200703589983177
40
0.33200703589983177
40
0.33200703589983177
40
0.33200703589983177
10
43.406268550346695
20
-82.239708382747025
30
0
10
42.785689519594207
20
-82.211227943516604
30
0
10
41.644265754892977
20
-82.158844204208918
30
0
10
40.770901126510623
20
-81.432548134651171
30
0
10
40.372374845932328
20
-81.10113092150435
30
0
0
SPLINE
5
250
100
AcDbEntity
8
0
100
AcDbSpline
70
0
71
3
72
9
73
5
74
0
42
0.000000001
43
0.0000000001
44
0.0000000001
40
0
40
0
40
0
40
0
40
0.12211017158597751
40
0.25011392240852776
40
0.25011392240852776
40
0.25011392240852776
40
0.25011392240852776
10
40.372374845932328
20
-81.10113092150435
30
0
10
40.133472553780123
20
-80.761590172818032
30
0
10
39.644137483765071
20
-80.066120930833833
30
0
10
39.583954736913412
20
-79.216923358301585
30
0
10
39.553154303024598
20
-78.782319504878387
30
0
0
SPLINE
5
251
100
AcDbEntity
8
0
100
AcDbSpline
70
0
71
3
72
9
73
5
74
0
42
0.000000001
43
0.0000000001
44
0.0000000001
40
0
40
0
40
0
40
0
40
0.1403834867176888
40
0.2736809501377
40
0.2736809501377
40
0.2736809501377
40
0.2736809501377
10
39.553154303024598
20
-78.782319504878387
30
0
10
39.590194459962852
20
-78.303074357086274
30
0
10
39.662405127906268
20
-77.368774529782527
30
0
10
40.258889798115128
20
-76.647961777449851
30
0
10
40.549410177658388
20
-76.296886880061493
30
0
0
SPLINE
5
252
100
AcDbEntity
8
0
100
AcDbSpline
70
0
71
3
72
9
73
5
74
0
42
0.000000001
43
0.0000000001
44
0.0000000001
40
0
40
0
40
0
40
0
40
0.1389660622119894
40
0.29745423215128075
40
0.29745423215128075
40
0.29745423215128075
40
0.29745423215128075
10
40.549410177658388
20
-76.296886880061493
30
0
10
40.930272876395136
20
-76.015748521182772
30
0
10
41.745502291437347
20
-75.413977172571279
30
0
10
42.761037166441191
20
-75.360413122279041
30
0
10
43.302129699180909
20
-75.331873376033172
30
0
0
SPLINE
5
253
100
AcDbEntity
8
0
100
AcDbSpline
70
0
71
3
72
9
73
5
74
0
42
0.000000001
43
0.0000000001
44
0.0000000001
40
0
40
0
40
0
40
0
40
0.12758269157085173
40
0.22950564930886574
40
0.22950564930886574
40
0.22950564930886574
40
0.22950564930886574
10
43.302129699180909
20
-75.331873376033172
30
0
10
43.731485592237533
20
-75.340204595247329
30
0
10
44.503844301771608
20
-75.355191439087491
30
0
10
45.222118072829716
20
-75.634706228289176
30
0
10
45.541101886223146
20
-75.758838135859833
30
0
0
SPLINE
5
254
100
AcDbEntity
8
0
100
AcDbSpline
70
0
71
3
72
9
73
5
74
0
42
0.000000001
43
0.0000000001
44
0.0000000001
40
0
40
0
40
0
40
0
40
0.0894337482384608
40
0.17946136611715943
40
0.17946136611715943
40
0.17946136611715943
40
0.17946136611715943
10
45.541101886223146
20
-75.758838135859833
30
0
10
45.798078818352664
20
-75.917809543472003
30
0
10
46.313739094354943
20
-76.236807981372408
30
0
10
46.642960965585878
20
-76.746078792804724
30
0
10
46.808116628120729
20
-77.001556832454057
30
0
0
SPLINE
5
255
100
AcDbEntity
8
0
100
AcDbSpline
70
0
71
3
72
9
73
5
74
0
42
0.000000001
43
0.0000000001
44
0.0000000001
40
0
40
0
40
0
40
0
40
0.091775291218045396
40
0.18522836836731171
40
0.18522836836731171
40
0.18522836836731171
40
0.18522836836731171
10
46.808116628120729
20
-77.001556832454057
30
0
10
46.939732844158755
20
-77.281124855891989
30
0
10
47.205371412272726
20
-77.845371813235317
30
0
10
47.241270215535039
20
-78.468123327412599
30
0
10
47.259382201622316
20
-78.782319504878373
30
0
0
SPLINE
5
256
100
AcDbEntity
8
0
100
AcDbSpline
70
0
71
3
72
9
73
5
74
0
42
0.000000001
43
0.0000000001
44
0.0000000001
40
0
40
0
40
0
40
0
40
0.14216223687321161
40
0.27524199724567444
40
0.27524199724567444
40
0.27524199724567444
40
0.27524199724567444
10
47.259382201622316
20
-78.782319504878373
30
0
10
47.223755666803484
20
-79.267984094463998
30
0
10
47.154778709109557
20
-80.208285081344656
30
0
10
46.556072639964242
20
-80.934151781179338
30
0
10
46.26659770150026
20
-81.285109002253861
30
0
0
SPLINE
5
257
100
AcDbEntity
8
0
100
AcDbSpline
70
0
71
3
72
9
73
5
74
0
42
0.000000001
43
0.0000000001
44
0.0000000001
40
0
40
0
40
0
40
0
40
0.14072168102902502
40
0.30732516781242758
40
0.30732516781242758
40
0.30732516781242758
40
0.30732516781242758
10
46.26659770150026
20
-81.285109002253861
30
0
10
45.87660326914164
20
-81.563014576428756
30
0
10
45.024885868567075
20
-82.1699386594468
30
0
10
43.975272526722613
20
-82.215181739209001
30
0
10
43.406268550346695
20
-82.239708382747025
30
0
0
SPLINE
5
258
100
AcDbEntity
8
0
100
AcDbSpline
70
0
71
3
72
9
73
5
74
0
42
0.000000001
43
0.0000000001
44
0.0000000001
40
0
40
0
40
0
40
0
40
0.12479728713816904
40
0.22448108397274
40
0.22448108397274
40
0.22448108397274
40
0.22448108397274
10
43.406268550346695
20
-80.955337960383744
30
0
10
43.831426059656934
20
-80.943290414391598
30
0
10
44.596184819544447
20
-80.92161970146546
30
0
10
45.240915288862453
20
-80.517089404148194
30
0
10
45.527216388176285
20
-80.337452370784135
30
0
0
SPLINE
5
259
100
AcDbEntity
8
0
100
AcDbSpline
70
0
71
3
72
9
73
5
74
0
42
0.000000001
43
0.0000000001
44
0.0000000001
40
0
40
0
40
0
40
0
40
0.087529243401275117
40
0.1750609207536869
40
0.1750609207536869
40
0.1750609207536869
40
0.1750609207536869
10
45.527216388176285
20
-80.337452370784135
30
0
10
45.732744627575428
20
-80.118181002823718
30
0
10
46.143806821557298
20
-79.679632169560136
30
0
10
46.202525434039259
20
-79.081426498813613
30
0
10
46.231885148475953
20
-78.782319504878373
30
0
0
SPLINE
5
260
100
AcDbEntity
8
0
100
AcDbSpline
70
0
71
3
72
9
73
5
74
0
42
0.000000001
43
0.0000000001
44
0.0000000001
40
0
40
0
40
0
40
0
40
0.087038832520641776
40
0.17458747627723964
40
0.17458747627723964
40
0.17458747627723964
40
0.17458747627723964
10
46.231885148475953
20
-78.782319504878373
30
0
10
46.202036027089513
20
-78.484939290888718
30
0
10
46.142162949509846
20
-77.888437022284364
30
0
10
45.730285232353303
20
-77.452659281824111
30
0
10
45.523745013664552
20
-77.234134156367645
30
0
0
SPLINE
5
261
100
AcDbEntity
8
0
100
AcDbSpline
70
0
71
3
72
9
73
5
74
0
42
0.000000001
43
0.0000000001
44
0.0000000001
40
0
40
0
40
0
40
0
40
0.1006842556012483
40
0.22815148598109181
40
0.22815148598109181
40
0.22815148598109181
40
0.22815148598109181
10
45.523745013664552
20
-77.234134156367645
30
0
10
45.23355832688015
20
-77.054550613489042
30
0
10
44.575992519729567
20
-76.647612588066622
30
0
10
43.798817505737674
20
-76.627487561887136
30
0
10
43.364613248298951
20
-76.616243798396454
30
0
0
SPLINE
5
262
100
AcDbEntity
8
0
100
AcDbSpline
70
0
71
3
72
9
73
5
74
0
42
0.000000001
43
0.0000000001
44
0.0000000001
40
0
40
0
40
0
40
0
40
0.1211925430813945
40
0.21992486776173276
40
0.21992486776173276
40
0.21992486776173276
40
0.21992486776173276
10
43.364613248298951
20
-76.616243798396454
30
0
10
42.951709328510617
20
-76.62975302192261
30
0
10
42.202423624548103
20
-76.654267848676938
30
0
10
41.574265464588478
20
-77.056861661018502
30
0
10
41.292262269447633
20
-77.237600762507782
30
0
0
SPLINE
5
263
100
AcDbEntity
8
0
100
AcDbSpline
70
0
71
3
72
9
73
5
74
0
42
0.000000001
43
0.0000000001
44
0.0000000001
40
0
40
0
40
0
40
0
40
0.087460080149607378
40
0.17405686453377792
40
0.17405686453377792
40
0.17405686453377792
40
0.17405686453377792
10
41.292262269447633
20
-77.237600762507782
30
0
10
41.086735431896706
20
-77.456533606188756
30
0
10
40.677710458897998
20
-77.892238264238372
30
0
10
40.617533400053894
20
-78.486608420072642
30
0
10
40.587594105194398
20
-78.782319504878387
30
0
0
SPLINE
5
264
100
AcDbEntity
8
0
100
AcDbSpline
70
0
71
3
72
9
73
5
74
0
42
0.000000001
43
0.0000000001
44
0.0000000001
40
0
40
0
40
0
40
0
40
0.087514240357106476
40
0.17488656501221386
40
0.17488656501221386
40
0.17488656501221386
40
0.17488656501221386
10
40.587594105194398
20
-78.782319504878387
30
0
10
40.616715564541686
20
-79.081344210827709
30
0
10
40.674911259009328
20
-79.678908715345727
30
0
10
41.084275476309465
20
-80.118056604503323
30
0
10
41.288791490982362
20
-80.337452370784135
30
0
0
SPLINE
5
265
100
AcDbEntity
8
0
100
AcDbSpline
70
0
71
3
72
9
73
5
74
0
42
0.000000001
43
0.0000000001
44
0.0000000001
40
0
40
0
40
0
40
0
40
0.099453308538311427
40
0.22416459744338224
40
0.22416459744338224
40
0.22416459744338224
40
0.22416459744338224
10
41.288791490982362
20
-80.337452370784135
30
0
10
41.574209022475472
20
-80.517081482951411
30
0
10
42.217531069683062
20
-80.921959794290643
30
0
10
42.981335245454247
20
-80.943406398823782
30
0
10
43.406268550346695
20
-80.955337960383744
30
0
0
LINE
5
266
100
AcDbEntity
8
0
100
AcDbLine
10
47.092760993431391
20
-72.714533288142533
30
0
11
47.092760993431391
21
-73.873938996455522
31
0
0
LINE
5
267
100
AcDbEntity
8
0
100
AcDbLine
10
47.092760993431391
20
-73.873938996455522
30
0
11
36.914986564110102
21
-73.873938996455536
31
0
0
LINE
5
268
100
AcDbEntity
8
0
100
AcDbLine
10
36.914986564110109
20
-73.873938996455536
30
0
11
36.914986564110109
21
-72.624282319209442
31
0
0
LINE
5
269
100
AcDbEntity
8
0
100
AcDbLine
10
36.914986564110109
20
-72.624282319209442
30
0
11
40.545938803146662
21
-72.624282319209442
31
0
0
SPLINE
5
270
100
AcDbEntity
8
0
100
AcDbSpline
70
0
71
3
72
9
73
5
74
0
42
0.000000001
43
0.0000000001
44
0.0000000001
40
0
40
0
40
0
40
0
40
0.11686915817704289
40
0.23153643499430407
40
0.23153643499430407
40
0.23153643499430407
40
0.23153643499430407
10
40.545938803146662
20
-72.624282319209442
30
0
10
40.256384211203894
20
-72.34422443041106
30
0
10
39.682730400391804
20
-71.789385102603333
30
0
10
39.59607163094104
20
-70.996615036720257
30
0
10
39.553154303024591
20
-70.603999573848114
30
0
0
SPLINE
5
271
100
AcDbEntity
8
0
100
AcDbSpline
70
0
71
3
72
9
73
5
74
0
42
0.000000001
43
0.0000000001
44
0.0000000001
40
0
40
0
40
0
40
0
40
0.066568535729984404
40
0.13243180978466157
40
0.13243180978466157
40
0.13243180978466157
40
0.13243180978466157
10
39.553154303024591
20
-70.603999573848114
30
0
10
39.564335306589889
20
-70.380792041537617
30
0
10
39.586578856355899
20
-69.936741753555495
30
0
10
39.747401865404655
20
-69.522283373897665
30
0
10
39.827385140846552
20
-69.316157776973114
30
0
0
SPLINE
5
272
100
AcDbEntity
8
0
100
AcDbSpline
70
0
71
3
72
9
73
5
74
0
42
0.000000001
43
0.0000000001
44
0.0000000001
40
0
40
0
40
0
40
0
40
0.064443722028876008
40
0.12715872289333574
40
0.12715872289333574
40
0.12715872289333574
40
0.12715872289333574
10
39.827385140846552
20
-69.316157776973114
30
0
10
39.926899846872814
20
-69.123550050278254
30
0
10
40.123259748644699
20
-68.743501353914439
30
0
10
40.441199131914196
20
-68.457491369197044
30
0
10
40.5980076326831
20
-68.316430527827606
30
0
0
SPLINE
5
273
100
AcDbEntity
8
0
100
AcDbSpline
70
0
71
3
72
9
73
5
74
0
42
0.000000001
43
0.0000000001
44
0.0000000001
40
0
40
0
40
0
40
0
40
0.064974694204923175
40
0.1351567085402563
40
0.1351567085402563
40
0.1351567085402563
40
0.1351567085402563
10
40.5980076326831
20
-68.316430527827606
30
0
10
40.776198344788092
20
-68.191465542842622
30
0
10
41.146860653172304
20
-67.931520401737629
30
0
10
41.573867816817227
20
-67.780457724269411
30
0
10
41.795597268532099
20
-67.702016312739715
30
0
0
SPLINE
5
274
100
AcDbEntity
8
0
100
AcDbSpline
70
0
71
3
72
9
73
5
74
0
42
0.000000001
43
0.0000000001
44
0.0000000001
40
0
40
0
40
0
40
0
40
0.074438515494920546
40
0.15204687181994442
40
0.15204687181994442
40
0.15204687181994442
40
0.15204687181994442
10
41.795597268532099
20
-67.702016312739715
30
0
10
42.036043879634818
20
-67.637224831077901
30
0
10
42.527176122329408
20
-67.50488282987385
30
0
10
43.03565021832685
20
-67.488311509982466
30
0
10
43.295187546203913
20
-67.479853112361297
30
0
0
SPLINE
5
275
100
AcDbEntity
8
0
100
AcDbSpline
70
0
71
3
72
9
73
5
74
0
42
0.000000001
43
0.0000000001
44
0.0000000001
40
0
40
0
40
0
40
0
40
0.1696356229358536
40
0.3130147583510634
40
0.3130147583510634
40
0.3130147583510634
40
0.3130147583510634
10
43.295187546203913
20
-67.479853112361297
30
0
10
43.873427919958985
20
-67.504003458928722
30
0
10
44.940407648198111
20
-67.548566120733298
30
0
10
45.821397381516825
20
-68.144241380940841
30
0
10
46.224942399452509
20
-68.417095620295854
30
0
0
SPLINE
5
276
100
AcDbEntity
8
0
100
AcDbSpline
70
0
71
3
72
9
73
5
74
0
42
0.000000001
43
0.0000000001
44
0.0000000001
40
0
40
0
40
0
40
0
40
0.12902789176028032
40
0.25358360954512371
40
0.25358360954512371
40
0.25358360954512371
40
0.25358360954512371
10
46.224942399452509
20
-68.417095620295854
30
0
10
46.526626564922964
20
-68.741148392616708
30
0
10
47.119538365456279
20
-69.378022099279264
30
0
10
47.213318890740481
20
-70.242076366649442
30
0
10
47.259382201622309
20
-70.666484315059037
30
0
0
SPLINE
5
277
100
AcDbEntity
8
0
100
AcDbSpline
70
0
71
3
72
9
73
5
74
0
42
0.000000001
43
0.0000000001
44
0.0000000001
40
0
40
0
40
0
40
0
40
0.1196062594334646
40
0.23997026730638632
40
0.23997026730638632
40
0.23997026730638632
40
0.23997026730638632
10
47.259382201622309
20
-70.666484315059037
30
0
10
47.213395119942092
20
-71.078505591730334
30
0
10
47.12112961196857
20
-71.905158447250301
30
0
10
46.487311401154436
20
-72.444174328610259
30
0
10
46.169401599357904
20
-72.714533288142547
30
0
0
LINE
5
278
100
AcDbEntity
8
0
100
AcDbLine
10
46.169401599357904
20
-72.714533288142547
30
0
11
47.092760993431391
21
-72.714533288142547
31
0
0
SPLINE
5
279
100
AcDbEntity
8
0
100
AcDbSpline
70
0
71
3
72
9
73
5
74
0
42
0.000000001
43
0.0000000001
44
0.0000000001
40
0
40
0
40
0
40
0
40
0.11456093490546122
40
0.19656919426609643
40
0.19656919426609643
40
0.19656919426609643
40
0.19656919426609643
10
43.350727750252069
20
-72.728418786189422
30
0
10
43.737304912098182
20
-72.726308557835566
30
0
10
44.400612707975291
20
-72.722687725938741
30
0
10
45.011860384164954
20
-72.47199419419519
30
0
10
45.266871644447626
20
-72.367405373713837
30
0
0
SPLINE
5
280
100
AcDbEntity
8
0
100
AcDbSpline
70
0
71
3
72
9
73
5
74
0
42
0.000000001
43
0.0000000001
44
0.0000000001
40
0
40
0
40
0
40
0
40
0.10029057178099185
40
0.19371226942920894
40
0.19371226942920894
40
0.19371226942920894
40
0.19371226942920894
10
45.266871644447626
20
-72.367405373713837
30
0
10
45.548229085781045
20
-72.159684263810448
30
0
10
46.091673873397873
20
-71.758468806632592
30
0
10
46.186266110503745
20
-71.092026293254932
30
0
10
46.231885148475946
20
-70.770620782039018
30
0
0
SPLINE
5
281
100
AcDbEntity
8
0
100
AcDbSpline
70
0
71
3
72
9
73
5
74
0
42
0.000000001
43
0.0000000001
44
0.0000000001
40
0
40
0
40
0
40
0
40
0.078412656416624815
40
0.16271748886535786
40
0.16271748886535786
40
0.16271748886535786
40
0.16271748886535786
10
46.231885148475946
20
-70.770620782039018
30
0
10
46.198164941689768
20
-70.503476571632902
30
0
10
46.128190684688249
20
-69.949114086433568
30
0
10
45.727746163878336
20
-69.557328947568351
30
0
10
45.520273639152826
20
-69.35434289660202
30
0
0
SPLINE
5
282
100
AcDbEntity
8
0
100
AcDbSpline
70
0
71
3
72
9
73
5
74
0
42
0.000000001
43
0.0000000001
44
0.0000000001
40
0
40
0
40
0
40
0
40
0.099277167315769826
40
0.22366643672182679
40
0.22366643672182679
40
0.22366643672182679
40
0.22366643672182679
10
45.520273639152826
20
-69.35434289660202
30
0
10
45.232290641345266
20
-69.180763110154103
30
0
10
44.583479512888992
20
-68.789696630605434
30
0
10
43.822522469134839
20
-68.768865664770289
30
0
10
43.399325801323236
20
-68.757280785701141
30
0
0
SPLINE
5
283
100
AcDbEntity
8
0
100
AcDbSpline
70
0
71
3
72
9
73
5
74
0
42
0.000000001
43
0.0000000001
44
0.0000000001
40
0
40
0
40
0
40
0
40
0.12630091844817257
40
0.22391126459089233
40
0.22391126459089233
40
0.22391126459089233
40
0.22391126459089233
10
43.399325801323236
20
-68.757280785701141
30
0
10
42.969685982452297
20
-68.766217098808667
30
0
10
42.208003515341268
20
-68.782059748199288
30
0
10
41.553349316513675
20
-69.163681637270557
30
0
10
41.26796383995849
20
-69.330043275019989
30
0
0
SPLINE
5
284
100
AcDbEntity
8
0
100
AcDbSpline
70
0
71
3
72
9
73
5
74
0
42
0.000000001
43
0.0000000001
44
0.0000000001
40
0
40
0
40
0
40
0
40
0.081605757075019589
40
0.15878300428824182
40
0.15878300428824182
40
0.15878300428824182
40
0.15878300428824182
10
41.26796383995849
20
-69.330043275019989
30
0
10
41.067543606374656
20
-69.526964227349225
30
0
10
40.677579369178261
20
-69.91011979797149
30
0
10
40.612354311114217
20
-70.451794958284466
30
0
10
40.580651356170954
20
-70.715078789851532
30
0
0
SPLINE
5
285
100
AcDbEntity
8
0
100
AcDbSpline
70
0
71
3
72
9
73
5
74
0
42
0.000000001
43
0.0000000001
44
0.0000000001
40
0
40
0
40
0
40
0
40
0.078412642893503415
40
0.16271784445994752
40
0.16271784445994752
40
0.16271784445994752
40
0.16271784445994752
10
40.580651356170954
20
-70.715078789851532
30
0
10
40.614371558154957
20
-70.982222836233944
30
0
10
40.68434597017729
20
-71.536586288141734
30
0
10
41.084789699701901
20
-71.928373746037238
30
0
10
41.292262269447626
20
-72.131361443660126
30
0
0
SPLINE
5
286
100
AcDbEntity
8
0
100
AcDbSpline
70
0
71
3
72
9
73
5
74
0
42
0.000000001
43
0.0000000001
44
0.0000000001
40
0
40
0
40
0
40
0
40
0.097885302904791541
40
0.2176236366784477
40
0.2176236366784477
40
0.2176236366784477
40
0.2176236366784477
10
41.292262269447626
20
-72.131361443660126
30
0
10
41.574846812448207
20
-72.305047248309918
30
0
10
42.203103293165412
20
-72.691194456579581
30
0
10
42.943406675783308
20
-72.715206925951136
30
0
10
43.350727750252069
20
-72.728418786189422
30
0
0
ENDSEC
0
SECTION
2
OBJECTS
0
DICTIONARY
5
C
100
AcDbDictionary
3
ACAD_GROUP
350
D
3
ACAD_MLINESTYLE
350
17
0
DICTIONARY
5
D
100
AcDbDictionary
0
DICTIONARY
5
1A
330
C
100
AcDbDictionary
0
DICTIONARY
5
17
100
AcDbDictionary
0
ENDSEC
0
EOF
