0
SECTION
2
HEADER
9
$INSUNITS
70
4
9
$ACADVER
1
AC1014
9
$HANDSEED
5
FFFF
0
ENDSEC
0
SECTION
2
TABLES
0
TABLE
2
VPORT
5
8
100
AcDbSymbolTable
0
ENDTAB
0
TABLE
2
LTYPE
5
5
100
AcDbSymbolTable
0
LTYPE
5
14
100
AcDbSymbolTableRecord
100
AcDbLinetypeTableRecord
2
BYBLOCK
70
0
0
LTYPE
5
15
100
AcDbSymbolTableRecord
100
AcDbLinetypeTableRecord
2
BYLAYER
70
0
0
ENDTAB
0
TABLE
2
LAYER
5
2
100
AcDbSymbolTable
70
2
0
LAYER
5
50
100
AcDbSymbolTableRecord
100
AcDbLayerTableRecord
2
0
70
0
6
CONTINUOUS
0
ENDTAB
0
TABLE
2
STYLE
5
3
100
AcDbSymbolTable
70
1
0
STYLE
5
11
100
AcDbSymbolTableRecord
100
AcDbTextStyleTableRecord
2
STANDARD
70
0
0
ENDTAB
0
TABLE
2
VIEW
5
6
100
AcDbSymbolTable
70
0
0
ENDTAB
0
TABLE
2
UCS
5
7
100
AcDbSymbolTable
70
0
0
ENDTAB
0
TABLE
2
APPID
5
9
100
AcDbSymbolTable
70
2
0
APPID
5
12
100
AcDbSymbolTableRecord
100
AcDbRegAppTableRecord
2
ACAD
70
0
0
ENDTAB
0
TABLE
2
DIMSTYLE
5
A
100
AcDbSymbolTable
70
1
0
ENDTAB
0
TABLE
2
BLOCK_RECORD
5
1
100
AcDbSymbolTable
70
1
0
BLOCK_RECORD
5
1F
100
AcDbSymbolTableRecord
100
AcDbBlockTableRecord
2
*MODEL_SPACE
0
BLOCK_RECORD
5
1B
100
AcDbSymbolTableRecord
100
AcDbBlockTableRecord
2
*PAPER_SPACE
0
ENDTAB
0
ENDSEC
0
SECTION
2
BLOCKS
0
BLOCK
5
20
100
AcDbEntity
100
AcDbBlockBegin
2
*MODEL_SPACE
0
ENDBLK
5
21
100
AcDbEntity
100
AcDbBlockEnd
0
BLOCK
5
1C
100
AcDbEntity
100
AcDbBlockBegin
2
*PAPER_SPACE
0
ENDBLK
5
1D
100
AcDbEntity
100
AcDbBlockEnd
0
ENDSEC
0
SECTION
2
ENTITIES
0
LWPOLYLINE
5
100
100
AcDbEntity
8
0
100
AcDbPolyline
90
59
70
1
43
0.0
10
4.1071101148923246
20
-14.291522081693016
10
3.3072101652622226
20
-13.488035313288373
10
3.2693599541982055
20
-3.5843661626180019
10
29.351507027943935
20
-3.5905521949132302
10
29.336823654174808
20
-17.124108187357589
10
29.221550893783572
20
-17.335787773132324
10
27.210845136642462
20
-18.025167528788252
10
23.672676897048955
20
-18.06229179700216
10
23.647567399342858
20
-18.112508773803711
10
23.5040885925293
20
-18.342077287038169
10
23.052125708262132
20
-18.342077287038169
10
23.052125708262125
20
-18.564471658070886
10
23.206367746988935
20
-18.564471658070886
10
23.206367746988935
20
-18.722300767898563
10
21.172540823618572
20
-18.722300767898563
10
21.172540823618572
20
-18.525015894571943
10
21.387761052449545
20
-18.525015894571943
10
21.387761052449545
20
-18.34925344785055
10
20.986017163594568
20
-18.34925344785055
10
20.84612542788188
20
-18.08381624221802
10
19.544044860204064
20
-18.08381624221802
10
19.407740195592247
20
-18.245230404535931
10
19.407740195592247
20
-18.654148435592653
10
17.664459975560508
20
-18.654148435592653
10
17.596935431162521
20
-18.644866863886516
10
17.346952708562217
20
-18.401866515477501
10
17.039336633682254
20
-18.10085331598918
10
17.033147573471073
20
-16.319013595581058
10
16.896840890248619
20
-16.16477256615957
10
15.343672410647077
20
-16.16477256615957
10
15.226797882715864
20
-16.318176881472272
10
15.178670167922977
20
-17.778921254475915
10
14.903968548774722
20
-18.043522755304974
10
14.925489966074627
20
-18.520593118667605
10
12.464810665448507
20
-18.520593118667605
10
11.959043733278914
20
-18.699942636489869
10
10.969032295544942
20
-18.699942636489869
10
10.958272091547652
20
-18.183414491017661
10
10.922402389844262
20
-18.190586614608769
10
10.578050629297893
20
-18.531350294748947
10
10.057936422030131
20
-18.531350294748947
10
10.057936422030131
20
-18.714286883672081
10
8.4617230892181396
20
-18.714286883672081
10
8.4617230892181396
20
-18.520589081446332
10
7.988239796956381
20
-18.520589081446332
10
7.9810671687126176
20
-17.925147390365602
10
8.0671553611755371
20
-17.849820915857954
10
8.0276980837186187
20
-14.65739425023397
10
7.6438895503679918
20
-14.280759859085085
10
7.2780158678690601
20
-14.284344911575317
10
7.2816009203592946
20
-14.395542097091676
10
7.1058379689852416
20
-14.391957044601442
10
7.116598677635193
20
-14.539023931821189
10
7.0125761389732366
20
-14.646633036931359
10
5.1186424652735409
20
-14.61793747742971
10
5.0002716422081006
20
-14.521088576316835
10
5.0038592179616304
20
-14.370434617996217
10
4.824509195486705
20
-14.359674413998924
10
4.8137484868367517
20
-14.277173797289533
0
CIRCLE
5
101
100
AcDbEntity
8
0
100
AcDbCircle
10
-19.79097541458334
20
-16.395454466666671
30
0
40
0.19327223802083338
210
0
220
0
230
-1
0
CIRCLE
5
102
100
AcDbEntity
8
0
100
AcDbCircle
10
-28.939667006250005
20
-16.964239709375001
30
0
40
0.19327223802083338
210
0
220
0
230
-1
0
CIRCLE
5
103
100
AcDbEntity
8
0
100
AcDbCircle
10
-10.390976890178594
20
-16.455270005818605
30
0
40
0.19327223802083338
210
0
220
0
230
-1
0
LWPOLYLINE
5
104
100
AcDbEntity
8
0
100
AcDbPolyline
90
4
70
1
43
0.0
10
28.413821918750006
20
-14.694613316666668
10
26.297155252083336
20
-14.694613316666668
10
26.297155252083332
20
-17.07586331666667
10
28.413821918750003
20
-17.07586331666667
0
LWPOLYLINE
5
105
100
AcDbEntity
8
0
100
AcDbPolyline
90
4
70
1
43
0.0
10
29.366974910416669
20
-3.5892232000000006
10
3.2742161041666673
20
-3.5892232000000002
10
3.2742161041666673
20
-18.705304272916671
10
29.366974910416669
20
-18.705304272916671
0
LWPOLYLINE
5
106
100
AcDbEntity
8
0
100
AcDbPolyline
90
4
70
1
43
0.0
10
31.570909484238257
20
-1.4305295145031049
10
1.5709094842382587
20
-1.4305295145031049
10
1.5709094842382587
20
-19.930529514503107
10
31.570909484238257
20
-19.930529514503107
0
ENDSEC
0
SECTION
2
OBJECTS
0
DICTIONARY
5
C
100
AcDbDictionary
3
ACAD_GROUP
350
D
3
ACAD_MLINESTYLE
350
17
0
DICTIONARY
5
D
100
AcDbDictionary
0
DICTIONARY
5
1A
330
C
100
AcDbDictionary
0
DICTIONARY
5
17
100
AcDbDictionary
0
ENDSEC
0
EOF
