0
SECTION
2
HEADER
9
$INSUNITS
70
4
9
$ACADVER
1
AC1014
9
$HANDSEED
5
FFFF
0
ENDSEC
0
SECTION
2
TABLES
0
TABLE
2
VPORT
5
8
100
AcDbSymbolTable
0
ENDTAB
0
TABLE
2
LTYPE
5
5
100
AcDbSymbolTable
0
LTYPE
5
14
100
AcDbSymbolTableRecord
100
AcDbLinetypeTableRecord
2
BYBLOCK
70
0
0
LTYPE
5
15
100
AcDbSymbolTableRecord
100
AcDbLinetypeTableRecord
2
BYLAYER
70
0
0
ENDTAB
0
TABLE
2
LAYER
5
2
100
AcDbSymbolTable
70
2
0
LAYER
5
50
100
AcDbSymbolTableRecord
100
AcDbLayerTableRecord
2
0
70
0
6
CONTINUOUS
0
ENDTAB
0
TABLE
2
STYLE
5
3
100
AcDbSymbolTable
70
1
0
STYLE
5
11
100
AcDbSymbolTableRecord
100
AcDbTextStyleTableRecord
2
STANDARD
70
0
0
ENDTAB
0
TABLE
2
VIEW
5
6
100
AcDbSymbolTable
70
0
0
ENDTAB
0
TABLE
2
UCS
5
7
100
AcDbSymbolTable
70
0
0
ENDTAB
0
TABLE
2
APPID
5
9
100
AcDbSymbolTable
70
2
0
APPID
5
12
100
AcDbSymbolTableRecord
100
AcDbRegAppTableRecord
2
ACAD
70
0
0
ENDTAB
0
TABLE
2
DIMSTYLE
5
A
100
AcDbSymbolTable
70
1
0
ENDTAB
0
TABLE
2
BLOCK_RECORD
5
1
100
AcDbSymbolTable
70
1
0
BLOCK_RECORD
5
1F
100
AcDbSymbolTableRecord
100
AcDbBlockTableRecord
2
*MODEL_SPACE
0
BLOCK_RECORD
5
1B
100
AcDbSymbolTableRecord
100
AcDbBlockTableRecord
2
*PAPER_SPACE
0
ENDTAB
0
ENDSEC
0
SECTION
2
BLOCKS
0
BLOCK
5
20
100
AcDbEntity
100
AcDbBlockBegin
2
*MODEL_SPACE
0
ENDBLK
5
21
100
AcDbEntity
100
AcDbBlockEnd
0
BLOCK
5
1C
100
AcDbEntity
100
AcDbBlockBegin
2
*PAPER_SPACE
0
ENDBLK
5
1D
100
AcDbEntity
100
AcDbBlockEnd
0
ENDSEC
0
SECTION
2
ENTITIES
0
LWPOLYLINE
5
100
100
AcDbEntity
8
0
100
AcDbPolyline
90
4
70
1
43
0.0
10
72.509590000000003
20
6.5200600000000009
10
72.509590000000003
20
74.815719999999999
10
62.422269999999997
20
74.815719999999999
10
62.422269999999997
20
6.5200600000000009
0
LWPOLYLINE
5
101
100
AcDbEntity
8
0
100
AcDbPolyline
90
4
70
1
43
0.0
10
47.407299999999999
20
74.815719999999999
10
47.407299999999999
20
6.5200600000000009
10
57.494620000000005
20
6.5200600000000009
10
57.494620000000005
20
74.815719999999999
0
LWPOLYLINE
5
102
100
AcDbEntity
8
0
100
AcDbPolyline
90
4
70
1
43
0.0
10
32.392319999999998
20
74.815719999999999
10
32.392319999999998
20
6.5200600000000009
10
42.479639999999996
20
6.5200600000000009
10
42.479639999999996
20
74.815719999999999
0
LWPOLYLINE
5
103
100
AcDbEntity
8
0
100
AcDbPolyline
90
4
70
1
43
0.0
10
87.524580000000014
20
74.815719999999999
10
77.437259999999995
20
74.815719999999999
10
77.437259999999995
20
6.5200600000000009
10
87.524580000000014
20
6.5200600000000009
0
LWPOLYLINE
5
104
100
AcDbEntity
8
0
100
AcDbPolyline
90
4
70
1
43
0.0
10
102.53954999999999
20
74.815719999999999
10
92.452229999999986
20
74.815719999999999
10
92.452229999999986
20
6.5200600000000009
10
102.53954999999999
20
6.5200600000000009
0
LWPOLYLINE
5
105
100
AcDbEntity
8
0
100
AcDbPolyline
90
4
70
1
43
0.0
10
117.55453
20
74.815719999999999
10
107.46721000000001
20
74.815719999999999
10
107.46721000000001
20
6.5200600000000009
10
117.55453
20
6.5200600000000009
0
LWPOLYLINE
5
106
100
AcDbEntity
8
0
100
AcDbPolyline
90
4
70
1
43
0.0
10
132.56951000000001
20
74.815719999999999
10
122.48219
20
74.815719999999999
10
122.48219
20
6.5200600000000009
10
132.56951000000001
20
6.5200600000000009
0
LWPOLYLINE
5
107
100
AcDbEntity
8
0
100
AcDbPolyline
90
4
70
1
43
0.0
10
147.58448999999999
20
74.815719999999999
10
137.49717000000001
20
74.815719999999999
10
137.49717000000001
20
6.5200600000000009
10
147.58448999999999
20
6.5200600000000009
0
LWPOLYLINE
5
108
100
AcDbEntity
8
0
100
AcDbPolyline
90
4
70
1
43
0.0
10
162.59945999999999
20
74.815719999999999
10
152.51214000000002
20
74.815719999999999
10
152.51214000000002
20
6.5200600000000009
10
162.59945999999999
20
6.5200600000000009
0
LWPOLYLINE
5
109
100
AcDbEntity
8
0
100
AcDbPolyline
90
4
70
1
43
0.0
10
177.61444
20
74.815719999999999
10
167.52712
20
74.815719999999999
10
167.52712
20
6.5200600000000009
10
177.61444
20
6.5200600000000009
0
LWPOLYLINE
5
110
100
AcDbEntity
8
0
100
AcDbPolyline
90
4
70
1
43
0.0
10
192.62941000000001
20
74.815719999999999
10
182.54209
20
74.815719999999999
10
182.54209
20
6.5200600000000009
10
192.62941000000001
20
6.5200600000000009
0
LWPOLYLINE
5
111
100
AcDbEntity
8
0
100
AcDbPolyline
90
4
70
1
43
0.0
10
207.64440000000002
20
74.815719999999999
10
197.55707999999998
20
74.815719999999999
10
197.55707999999998
20
6.5200600000000009
10
207.64440000000002
20
6.5200600000000009
0
LWPOLYLINE
5
112
100
AcDbEntity
8
0
100
AcDbPolyline
90
4
70
1
43
0.0
10
222.65938000000003
20
74.815719999999999
10
212.57204999999999
20
74.815719999999999
10
212.57204999999999
20
6.5200600000000009
10
222.65938000000003
20
6.5200600000000009
0
LWPOLYLINE
5
113
100
AcDbEntity
8
0
100
AcDbPolyline
90
4
70
1
43
0.0
10
237.67437000000001
20
74.815719999999999
10
227.58704999999998
20
74.815719999999999
10
227.58704999999998
20
6.5200600000000009
10
237.67437000000001
20
6.5200600000000009
0
LWPOLYLINE
5
114
100
AcDbEntity
8
0
100
AcDbPolyline
90
4
70
1
43
0.0
10
252.68933999999999
20
74.815719999999999
10
242.60201999999998
20
74.815719999999999
10
242.60201999999998
20
6.5200600000000009
10
252.68933999999999
20
6.5200600000000009
0
LWPOLYLINE
5
115
100
AcDbEntity
8
0
100
AcDbPolyline
90
4
70
1
43
0.0
10
267.70430999999996
20
74.815719999999999
10
257.61698999999999
20
74.815719999999999
10
257.61698999999999
20
6.5200600000000009
10
267.70430999999996
20
6.5200600000000009
0
LWPOLYLINE
5
116
100
AcDbEntity
8
0
100
AcDbPolyline
90
4
70
1
43
0.0
10
282.71931000000001
20
74.815719999999999
10
272.63198
20
74.815719999999999
10
272.63198
20
6.5200600000000009
10
282.71931000000001
20
6.5200600000000009
0
LWPOLYLINE
5
117
100
AcDbEntity
8
0
100
AcDbPolyline
90
4
70
1
43
0.0
10
297.73428000000001
20
74.815719999999999
10
287.64696000000004
20
74.815719999999999
10
287.64696000000004
20
6.5200600000000009
10
297.73428000000001
20
6.5200600000000009
0
LWPOLYLINE
5
118
100
AcDbEntity
8
0
100
AcDbPolyline
90
4
70
1
43
0.0
10
312.74925000000002
20
74.815719999999999
10
302.66192999999998
20
74.815719999999999
10
302.66192999999998
20
6.5200600000000009
10
312.74925000000002
20
6.5200600000000009
0
LWPOLYLINE
5
119
100
AcDbEntity
8
0
100
AcDbPolyline
90
4
70
1
43
0.0
10
327.76421999999997
20
74.815719999999999
10
317.67690000000005
20
74.815719999999999
10
317.67690000000005
20
6.5200600000000009
10
327.76421999999997
20
6.5200600000000009
0
LWPOLYLINE
5
120
100
AcDbEntity
8
0
100
AcDbPolyline
90
4
70
1
43
0.0
10
342.77918999999997
20
74.815719999999999
10
332.69186999999999
20
74.815719999999999
10
332.69186999999999
20
6.5200600000000009
10
342.77918999999997
20
6.5200600000000009
0
LWPOLYLINE
5
121
100
AcDbEntity
8
0
100
AcDbPolyline
90
4
70
1
43
0.0
10
357.79416999999995
20
74.815719999999999
10
347.70684000000006
20
74.815719999999999
10
347.70684000000006
20
6.5200600000000009
10
357.79416999999995
20
6.5200600000000009
0
LWPOLYLINE
5
122
100
AcDbEntity
8
0
100
AcDbPolyline
90
4
70
1
43
0.0
10
372.80915999999996
20
74.815719999999999
10
362.72184000000004
20
74.815719999999999
10
362.72184000000004
20
6.5200600000000009
10
372.80915999999996
20
6.5200600000000009
0
LWPOLYLINE
5
123
100
AcDbEntity
8
0
100
AcDbPolyline
90
4
70
1
43
0.0
10
387.82416000000001
20
74.815719999999999
10
377.73684000000003
20
74.815719999999999
10
377.73684000000003
20
6.5200600000000009
10
387.82416000000001
20
6.5200600000000009
0
LWPOLYLINE
5
124
100
AcDbEntity
8
0
100
AcDbPolyline
90
4
70
1
43
0.0
10
402.83910999999995
20
74.815719999999999
10
392.75179000000003
20
74.815719999999999
10
392.75179000000003
20
6.5200600000000009
10
402.83910999999995
20
6.5200600000000009
0
LWPOLYLINE
5
125
100
AcDbEntity
8
0
100
AcDbPolyline
90
4
70
1
43
0.0
10
417.85410999999999
20
74.815719999999999
10
407.76678000000004
20
74.815719999999999
10
407.76678000000004
20
6.5200600000000009
10
417.85410999999999
20
6.5200600000000009
0
LWPOLYLINE
5
126
100
AcDbEntity
8
0
100
AcDbPolyline
90
4
70
1
43
0.0
10
432.86908000000005
20
74.815719999999999
10
422.78176000000002
20
74.815719999999999
10
422.78176000000002
20
6.5200600000000009
10
432.86908000000005
20
6.5200600000000009
0
LWPOLYLINE
5
127
100
AcDbEntity
8
0
100
AcDbPolyline
90
4
70
1
43
0.0
10
447.88405
20
74.815719999999999
10
437.79672999999997
20
74.815719999999999
10
437.79672999999997
20
6.5200600000000009
10
447.88405
20
6.5200600000000009
0
LWPOLYLINE
5
128
100
AcDbEntity
8
0
100
AcDbPolyline
90
4
70
1
43
0.0
10
462.89902000000006
20
74.815719999999999
10
452.81170000000003
20
74.815719999999999
10
452.81170000000003
20
6.5200600000000009
10
462.89902000000006
20
6.5200600000000009
0
LWPOLYLINE
5
129
100
AcDbEntity
8
0
100
AcDbPolyline
90
4
70
1
43
0.0
10
477.91402000000005
20
74.815719999999999
10
467.82670000000002
20
74.815719999999999
10
467.82670000000002
20
6.5200600000000009
10
477.91402000000005
20
6.5200600000000009
0
LWPOLYLINE
5
130
100
AcDbEntity
8
0
100
AcDbPolyline
90
4
70
1
43
0.0
10
498.7167
20
74.815719999999999
10
482.84170000000006
20
74.815719999999999
10
482.84170000000006
20
6.5200600000000009
10
498.7167
20
6.5200600000000009
0
LWPOLYLINE
5
131
100
AcDbEntity
8
0
100
AcDbPolyline
90
4
70
1
43
0.0
10
27.78125
20
74.815640000000002
10
13.22917
20
74.815640000000002
10
13.22917
20
6.51999
10
27.78125
20
6.51999
0
ENDSEC
0
SECTION
2
OBJECTS
0
DICTIONARY
5
C
100
AcDbDictionary
3
ACAD_GROUP
350
D
3
ACAD_MLINESTYLE
350
17
0
DICTIONARY
5
D
100
AcDbDictionary
0
DICTIONARY
5
1A
330
C
100
AcDbDictionary
0
DICTIONARY
5
17
100
AcDbDictionary
0
ENDSEC
0
EOF
