                                                                        S      1
,,3Hcap,3Hcap,7Hunknown,7Hunknown,32,38,7,99,15,,1.,2,2HMM,1,0.08,15H202G      1
11012.212253,0.01,10000.,7Hunknown,7Hunknown,11,0,;                     G      2
     186       1                                                00000000D      1
     186             -61       1       0                               0D      2
     514       2                                                00010000D      3
     514                       1       1                               0D      4
     510       3                                                00010000D      5
     510             -61       1       1                               0D      6
     510       4                                                00010000D      7
     510             -61       1       1                               0D      8
     510       5                                                00010000D      9
     510             -61       1       1                               0D     10
     510       6                                                00010000D     11
     510             -61       1       1                               0D     12
     510       7                                                00010000D     13
     510             -61       1       1                               0D     14
     508       8                                                00010000D     15
     508                       1       1                               0D     16
     508       9                                                00010000D     17
     508                       1       1                               0D     18
     508      10                                                00010000D     19
     508                       1       1                               0D     20
     508      11                                                00010000D     21
     508                       1       1                               0D     22
     508      12                                                00010000D     23
     508                       1       1                               0D     24
     508      13                                                00010000D     25
     508                       1       1                               0D     26
     508      14                                                00010000D     27
     508                       1       1                               0D     28
     126      15                                                00010000D     29
     126       0               9       0                               0D     30
     126      24                                                00010000D     31
     126       0               3       0                               0D     32
     126      27                                                00010000D     33
     126       0               9       0                               0D     34
     126      36                                                00010000D     35
     126       0               2       0                               0D     36
     126      38                                                00010000D     37
     126       0               9       0                               0D     38
     126      47                                                00010000D     39
     126       0               9       0                               0D     40
     126      56                                                00010000D     41
     126       0               2       0                               0D     42
     126      58                                                00010000D     43
     126       0               9       0                               0D     44
     128      67                                                00010000D     45
     128       0     -61      13       0                               0D     46
     128      80                                                00010000D     47
     128       0     -61      12       0                               0D     48
     128      92                                                00010000D     49
     128       0     -61       3       0                               0D     50
     128      95                                                00010000D     51
     128       0     -61      11       0                               0D     52
     128     106                                                00010000D     53
     128       0     -61       3       0                               0D     54
     502     109                                                00010000D     55
     502                       3       1                               0D     56
     504     112                                                00010001D     57
     504                       2       1                               0D     58
     406     114                                                00000000D     59
     406                       1      15                               0D     60
     314     115                                                00000200D     61
     314                       2       0                               0D     62
     314     117                                                00000200D     63
     314                       2       0                               0D     64
186,3,1,0,0,1,59;                                                      1P      1
514,5,5,1,7,1,9,1,11,1,13,1;                                           3P      2
510,45,1,1,15;                                                         5P      3
510,47,1,1,17;                                                         7P      4
510,49,2,1,19,21;                                                      9P      5
510,51,1,1,23;                                                        11P      6
510,53,2,1,25,27;                                                     13P      7
508,4,0,57,1,1,0,0,57,2,1,0,0,57,3,1,0,0,57,2,0,0;                    15P      8
508,4,0,57,3,0,0,0,57,4,1,0,0,57,5,1,0,0,57,4,0,0;                    17P      9
508,1,0,57,1,0,0;                                                     19P     10
508,1,0,57,6,1,0;                                                     21P     11
508,4,0,57,6,0,0,0,57,7,1,0,0,57,8,1,0,0,57,7,0,0;                    23P     12
508,1,0,57,5,0,0;                                                     25P     13
508,1,0,57,8,0,0;                                                     27P     14
126,8,2,0,1,0,0,-3.14159265358979,-3.14159265358979,                  29P     15
-3.14159265358979,-1.5707963267949,-1.5707963267949,0.,0.,            29P     16
1.5707963267949,1.5707963267949,3.14159265358979,                     29P     17
3.14159265358979,3.14159265358979,1.,0.707106781186548,1.,            29P     18
0.707106781186548,1.,0.707106781186548,1.,0.707106781186548,1.,       29P     19
-11.,7.,-1.34711147906209D-15,-11.,7.,-11.,6.73555739531045D-16,      29P     20
7.,-11.,11.,7.,-11.,11.,7.,0.,11.,7.,11.,6.73555739531045D-16,        29P     21
7.,11.,-11.,7.,11.,-11.,7.,1.34711147906209D-15,                      29P     22
-3.14159265358979,3.14159265358979,0.,0.,0.;                          29P     23
126,1,1,0,0,1,0,-0.620269106303989,-0.620269106303989,                31P     24
0.620269106303989,0.620269106303989,1.,1.,-11.,7.,0.,-46.,2.,0.,      31P     25
-0.620269106303989,0.620269106303989,0.,0.,0.;                        31P     26
126,8,2,0,1,0,0,-3.14159265358979,-3.14159265358979,                  33P     27
-3.14159265358979,-1.5707963267949,-1.5707963267949,0.,0.,            33P     28
1.5707963267949,1.5707963267949,3.14159265358979,                     33P     29
3.14159265358979,3.14159265358979,1.,0.707106781186548,1.,            33P     30
0.707106781186548,1.,0.707106781186548,1.,0.707106781186548,1.,       33P     31
-46.,2.,5.63337527607782D-15,-46.,2.,46.,2.81668763803891D-15,        33P     32
2.,46.,46.,2.,46.,46.,2.,0.,46.,2.,-46.,2.81668763803891D-15,2.,      33P     33
-46.,-46.,2.,-46.,-46.,2.,-5.63337527607782D-15,                      33P     34
-3.14159265358979,3.14159265358979,0.,0.,0.;                          33P     35
126,1,1,0,0,1,0,-0.0434782608695652,-0.0434782608695652,0.,0.,        35P     36
1.,1.,-46.,2.,0.,-46.,0.,0.,-0.0434782608695652,0.,0.,0.,0.;          35P     37
126,8,2,0,1,0,0,-3.14159265358979,-3.14159265358979,                  37P     38
-3.14159265358979,-1.5707963267949,-1.5707963267949,0.,0.,            37P     39
1.5707963267949,1.5707963267949,3.14159265358979,                     37P     40
3.14159265358979,3.14159265358979,1.,0.707106781186548,1.,            37P     41
0.707106781186548,1.,0.707106781186548,1.,0.707106781186548,1.,       37P     42
-46.,0.,5.63337527607782D-15,-46.,0.,46.,2.81668763803891D-15,        37P     43
0.,46.,46.,0.,46.,46.,0.,0.,46.,0.,-46.,2.81668763803891D-15,0.,      37P     44
-46.,-46.,0.,-46.,-46.,0.,-5.63337527607782D-15,                      37P     45
-3.14159265358979,3.14159265358979,0.,0.,0.;                          37P     46
126,8,2,0,1,0,0,-3.14159265358979,-3.14159265358979,                  39P     47
-3.14159265358979,-1.5707963267949,-1.5707963267949,0.,0.,            39P     48
1.5707963267949,1.5707963267949,3.14159265358979,                     39P     49
3.14159265358979,3.14159265358979,1.,0.707106781186548,1.,            39P     50
0.707106781186548,1.,0.707106781186548,1.,0.707106781186548,1.,       39P     51
-3.5,7.,-4.28626379701574D-16,-3.5,7.,-3.5,2.14313189850787D-16,      39P     52
7.,-3.5,3.5,7.,-3.5,3.5,7.,0.,3.5,7.,3.5,2.14313189850787D-16,        39P     53
7.,3.5,-3.5,7.,3.5,-3.5,7.,4.28626379701574D-16,                      39P     54
-3.14159265358979,3.14159265358979,0.,0.,0.;                          39P     55
126,1,1,0,0,1,0,-2.,-2.,0.,0.,1.,1.,-3.5,7.,0.,-3.5,0.,0.,-2.,        41P     56
0.,0.,0.,0.;                                                          41P     57
126,8,2,0,1,0,0,-3.14159265358979,-3.14159265358979,                  43P     58
-3.14159265358979,-1.5707963267949,-1.5707963267949,0.,0.,            43P     59
1.5707963267949,1.5707963267949,3.14159265358979,                     43P     60
3.14159265358979,3.14159265358979,1.,0.707106781186548,1.,            43P     61
0.707106781186548,1.,0.707106781186548,1.,0.707106781186548,1.,       43P     62
-3.5,0.,-4.28626379701574D-16,-3.5,0.,-3.5,2.14313189850787D-16,      43P     63
0.,-3.5,3.5,0.,-3.5,3.5,0.,0.,3.5,0.,3.5,2.14313189850787D-16,        43P     64
0.,3.5,-3.5,0.,3.5,-3.5,0.,4.28626379701574D-16,                      43P     65
-3.14159265358979,3.14159265358979,0.,0.,0.;                          43P     66
128,1,8,1,2,0,1,0,0,1,-0.620269106303989,-0.620269106303989,          45P     67
0.620269106303989,0.620269106303989,-3.14159265358979,                45P     68
-3.14159265358979,-3.14159265358979,-1.5707963267949,                 45P     69
-1.5707963267949,0.,0.,1.5707963267949,1.5707963267949,               45P     70
3.14159265358979,3.14159265358979,3.14159265358979,1.,1.,             45P     71
0.707106781186548,0.707106781186548,1.,1.,0.707106781186548,          45P     72
0.707106781186548,1.,1.,0.707106781186548,0.707106781186548,1.,       45P     73
1.,0.707106781186548,0.707106781186548,1.,1.,-11.,7.,0.,-46.,2.,      45P     74
0.,-11.,7.,11.,-46.,2.,46.,0.,7.,11.,0.,2.,46.,11.,7.,11.,46.,        45P     75
2.,46.,11.,7.,0.,46.,2.,0.,11.,7.,-11.,46.,2.,-46.,0.,7.,-11.,        45P     76
0.,2.,-46.,-11.,7.,-11.,-46.,2.,-46.,-11.,7.,0.,-46.,2.,0.,           45P     77
-0.620269106303989,0.620269106303989,-3.14159265358979,               45P     78
3.14159265358979;                                                     45P     79
128,1,8,1,2,0,1,0,0,1,0.,0.,0.0434782608695652,                       47P     80
0.0434782608695652,-3.14159265358979,-3.14159265358979,               47P     81
-3.14159265358979,-1.5707963267949,-1.5707963267949,0.,0.,            47P     82
1.5707963267949,1.5707963267949,3.14159265358979,                     47P     83
3.14159265358979,3.14159265358979,1.,1.,0.707106781186548,            47P     84
0.707106781186548,1.,1.,0.707106781186548,0.707106781186548,1.,       47P     85
1.,0.707106781186548,0.707106781186548,1.,1.,0.707106781186548,       47P     86
0.707106781186548,1.,1.,-46.,2.,0.,-46.,0.,0.,-46.,2.,46.,-46.,       47P     87
0.,46.,0.,2.,46.,0.,0.,46.,46.,2.,46.,46.,0.,46.,46.,2.,0.,46.,       47P     88
0.,0.,46.,2.,-46.,46.,0.,-46.,0.,2.,-46.,0.,0.,-46.,-46.,2.,          47P     89
-46.,-46.,0.,-46.,-46.,2.,0.,-46.,0.,0.,0.,0.0434782608695652,        47P     90
-3.14159265358979,3.14159265358979;                                   47P     91
128,1,1,1,1,0,0,1,0,0,-1.101,-1.101,1.101,1.101,-1.101,-1.101,        49P     92
1.101,1.101,1.,1.,1.,1.,-11.01,7.,11.01,11.01,7.,11.01,-11.01,        49P     93
7.,-11.01,11.01,7.,-11.01,-1.101,1.101,-1.101,1.101;                  49P     94
128,1,8,1,2,0,1,0,0,1,0.,0.,2.,2.,-3.14159265358979,                  51P     95
-3.14159265358979,-3.14159265358979,-1.5707963267949,                 51P     96
-1.5707963267949,0.,0.,1.5707963267949,1.5707963267949,               51P     97
3.14159265358979,3.14159265358979,3.14159265358979,1.,1.,             51P     98
0.707106781186548,0.707106781186548,1.,1.,0.707106781186548,          51P     99
0.707106781186548,1.,1.,0.707106781186548,0.707106781186548,1.,       51P    100
1.,0.707106781186548,0.707106781186548,1.,1.,-3.5,0.,0.,-3.5,7.,      51P    101
0.,-3.5,0.,3.5,-3.5,7.,3.5,0.,0.,3.5,0.,7.,3.5,3.5,0.,3.5,3.5,        51P    102
7.,3.5,3.5,0.,0.,3.5,7.,0.,3.5,0.,-3.5,3.5,7.,-3.5,0.,0.,-3.5,        51P    103
0.,7.,-3.5,-3.5,0.,-3.5,-3.5,7.,-3.5,-3.5,0.,0.,-3.5,7.,0.,0.,        51P    104
2.,-3.14159265358979,3.14159265358979;                                51P    105
128,1,1,1,1,0,0,1,0,0,-4.601,-4.601,4.601,4.601,-4.601,-4.601,        53P    106
4.601,4.601,1.,1.,1.,1.,46.01,0.,46.01,-46.01,0.,46.01,46.01,0.,      53P    107
-46.01,-46.01,0.,-46.01,-4.601,4.601,-4.601,4.601;                    53P    108
502,5,-11.,7.,-1.34711147906209D-15,-46.,2.,                          55P    109
5.63337527607782D-15,-46.,0.,5.63337527607782D-15,-3.5,7.,            55P    110
4.28626379701574D-16,-3.5,0.,4.28626379701574D-16;                    55P    111
504,8,29,55,1,55,1,31,55,1,55,2,33,55,2,55,2,35,55,2,55,3,37,55,      57P    112
3,55,3,39,55,4,55,4,41,55,4,55,5,43,55,5,55,5;                        57P    113
406,1,5HBody1;                                                        59P    114
314,95.6862745098039,96.078431372549,94.1176470588235,11HABS (Wh      61P    115
ite);                                                                 61P    116
314,62.7450980392157,62.7450980392157,62.7450980392157,13HSteel       63P    117
- Satin;                                                              63P    118
S      1G      2D     64P    118                                        T      1
