                                                                        S      1
,,6Hplayer,6Hplayer,7Hunknown,7Hunknown,32,38,7,99,15,,1.,2,2HMM,1,0.08,G      1
15H20211012.212255,0.01,10000.,7Hunknown,7Hunknown,11,0,;               G      2
     186       1                                                00000000D      1
     186            -109       1       0                               0D      2
     514       2                                                00010000D      3
     514                       1       1                               0D      4
     510       3                                                00010000D      5
     510            -109       1       1                               0D      6
     510       4                                                00010000D      7
     510            -109       1       1                               0D      8
     510       5                                                00010000D      9
     510            -109       1       1                               0D     10
     510       6                                                00010000D     11
     510            -109       1       1                               0D     12
     510       7                                                00010000D     13
     510            -109       1       1                               0D     14
     510       8                                                00010000D     15
     510            -109       1       1                               0D     16
     510       9                                                00010000D     17
     510            -109       1       1                               0D     18
     510      10                                                00010000D     19
     510            -109       1       1                               0D     20
     510      11                                                00010000D     21
     510            -109       1       1                               0D     22
     508      12                                                00010000D     23
     508                       2       1                               0D     24
     508      14                                                00010000D     25
     508                       2       1                               0D     26
     508      16                                                00010000D     27
     508                       1       1                               0D     28
     508      17                                                00010000D     29
     508                       2       1                               0D     30
     508      19                                                00010000D     31
     508                       2       1                               0D     32
     508      21                                                00010000D     33
     508                       1       1                               0D     34
     508      22                                                00010000D     35
     508                       1       1                               0D     36
     508      23                                                00010000D     37
     508                       2       1                               0D     38
     508      25                                                00010000D     39
     508                       1       1                               0D     40
     508      26                                                00010000D     41
     508                       2       1                               0D     42
     126      28                                                00010000D     43
     126       0               9       0                               0D     44
     126      37                                                00010000D     45
     126       0               4       0                               0D     46
     126      41                                                00010000D     47
     126       0              10       0                               0D     48
     126      51                                                00010000D     49
     126       0               6       0                               0D     50
     126      57                                                00010000D     51
     126       0               5       0                               0D     52
     126      62                                                00010000D     53
     126       0               4       0                               0D     54
     126      66                                                00010000D     55
     126       0              12       0                               0D     56
     126      78                                                00010000D     57
     126       0               7       0                               0D     58
     126      85                                                00010000D     59
     126       0              11       0                               0D     60
     126      96                                                00010000D     61
     126       0               5       0                               0D     62
     126     101                                                00010000D     63
     126       0              10       0                               0D     64
     126     111                                                00010000D     65
     126       0               6       0                               0D     66
     126     117                                                00010000D     67
     126       0               6       0                               0D     68
     126     123                                                00010000D     69
     126       0               4       0                               0D     70
     126     127                                                00010000D     71
     126       0               6       0                               0D     72
     126     133                                                00010000D     73
     126       0              12       0                               0D     74
     126     145                                                00010000D     75
     126       0              12       0                               0D     76
     126     157                                                00010000D     77
     126       0               5       0                               0D     78
     126     162                                                00010000D     79
     126       0               8       0                               0D     80
     126     170                                                00010000D     81
     126       0               8       0                               0D     82
     126     178                                                00010000D     83
     126       0               3       0                               0D     84
     128     181                                                00010000D     85
     128       0    -109      28       0                               0D     86
     128     209                                                00010000D     87
     128       0    -109      21       0                               0D     88
     128     230                                                00010000D     89
     128       0    -109       7       0                               0D     90
     128     237                                                00010000D     91
     128       0    -109      29       0                               0D     92
     128     266                                                00010000D     93
     128       0    -109      24       0                               0D     94
     128     290                                                00010000D     95
     128       0    -109       7       0                               0D     96
     128     297                                                00010000D     97
     128       0    -109      31       0                               0D     98
     128     328                                                00010000D     99
     128       0    -109       7       0                               0D    100
     128     335                                                00010000D    101
     128       0    -109      20       0                               0D    102
     502     355                                                00010000D    103
     502                      11       1                               0D    104
     504     366                                                00010001D    105
     504                       6       1                               0D    106
     406     372                                                00000000D    107
     406                       1      15                               0D    108
     314     373                                                00000200D    109
     314                       2       0                               0D    110
     314     375                                                00000200D    111
     314                       2       0                               0D    112
186,3,1,0,0,1,107;                                                     1P      1
514,9,5,1,7,1,9,1,11,1,13,1,15,1,17,1,19,1,21,1;                       3P      2
510,85,1,1,23;                                                         5P      3
510,87,1,1,25;                                                         7P      4
510,89,1,1,27;                                                         9P      5
510,91,1,1,29;                                                        11P      6
510,93,1,1,31;                                                        13P      7
510,95,2,1,33,35;                                                     15P      8
510,97,1,1,37;                                                        17P      9
510,99,1,1,39;                                                        19P     10
510,101,1,1,41;                                                       21P     11
508,6,0,105,1,1,0,0,105,2,1,0,0,105,3,1,0,0,105,4,1,0,0,105,2,0,      23P     12
0,0,105,5,1,0;                                                        23P     13
508,6,0,105,4,0,0,0,105,6,1,0,0,105,7,0,0,0,105,8,0,0,0,105,6,0,      25P     14
0,0,105,3,0,0;                                                        25P     15
508,2,0,105,1,0,0,0,105,5,0,0;                                        27P     16
508,6,0,105,9,1,0,0,105,10,1,0,0,105,11,1,0,0,105,12,1,0,0,105,       29P     17
10,0,0,0,105,13,1,0;                                                  29P     18
508,6,0,105,9,0,0,0,105,14,1,0,0,105,15,0,0,0,105,16,0,0,0,105,       31P     19
14,0,0,0,105,13,0,0;                                                  31P     20
508,2,0,105,12,0,0,0,105,11,0,0;                                      33P     21
508,1,0,105,17,1,0;                                                   35P     22
508,6,0,105,16,1,0,0,105,18,1,0,0,105,7,1,0,0,105,8,1,0,0,105,        37P     23
18,0,0,0,105,15,1,0;                                                  37P     24
508,2,0,105,19,0,0,0,105,20,0,0;                                      39P     25
508,5,0,105,19,1,0,0,105,21,1,0,0,105,17,0,0,0,105,21,0,0,0,105,      41P     26
20,1,0;                                                               41P     27
126,6,2,0,0,0,0,-3.14159265358979,-3.14159265358979,                  43P     28
-3.14159265358979,-1.5707963267949,-1.5707963267949,0.,0.,            43P     29
1.5707963267949,1.5707963267949,1.5707963267949,1.,                   43P     30
0.707106781186547,1.,0.707106781186547,1.,0.707106781186547,1.,       43P     31
79.4563213953971,3.,-9.73059296688964D-15,79.4563213953971,3.,        43P     32
-79.4563213953971,-4.86529648344482D-15,3.,-79.4563213953971,         43P     33
-79.4563213953971,3.,-79.4563213953971,-79.4563213953971,3.,0.,       43P     34
-79.4563213953971,3.,79.4563213953971,-4.86529648344482D-15,3.,       43P     35
79.4563213953971,-3.14159265358979,1.5707963267949,0.,0.,0.;          43P     36
126,2,2,0,0,0,0,-1.5707963267949,-1.5707963267949,                    45P     37
-1.5707963267949,0.,0.,0.,1.,0.707106781186546,1.,0.,3.,              45P     38
79.4563213953971,0.,2.99999999999999,99.4563213953971,0.,23.,         45P     39
99.4563213953971,-1.5707963267949,0.,0.,0.,0.;                        45P     40
126,6,2,0,0,0,0,-1.5707963267949,-1.5707963267949,                    47P     41
-1.5707963267949,0.,0.,1.5707963267949,1.5707963267949,               47P     42
3.14159265358979,3.14159265358979,3.14159265358979,1.,                47P     43
0.707106781186548,1.,0.707106781186548,1.,0.707106781186548,1.,       47P     44
-6.08994328259217D-15,23.,99.4563213953971,-99.4563213953971,         47P     45
23.,99.4563213953971,-99.4563213953971,23.,0.,-99.4563213953971,      47P     46
23.,-99.4563213953971,-6.08994328259217D-15,23.,                      47P     47
-99.4563213953971,99.456321395397,23.,-99.4563213953971,              47P     48
99.4563213953971,23.,-1.21798865651843D-14,-1.5707963267949,          47P     49
3.14159265358979,0.,0.,0.;                                            47P     50
126,2,2,0,0,0,0,-3.14159265358979,-3.14159265358979,                  49P     51
-3.14159265358979,-1.5707963267949,-1.5707963267949,                  49P     52
-1.5707963267949,1.,0.707106781186548,1.,99.4563213953971,23.,        49P     53
1.21798865651843D-14,99.456321395397,23.,99.4563213953971,            49P     54
-6.08994328259217D-15,23.,99.4563213953971,-3.14159265358979,         49P     55
-1.5707963267949,0.,0.,0.;                                            49P     56
126,2,2,0,0,0,0,1.5707963267949,1.5707963267949,1.5707963267949,      51P     57
3.14159265358979,3.14159265358979,3.14159265358979,1.,                51P     58
0.707106781186547,1.,-4.86529648344482D-15,3.,79.4563213953971,       51P     59
79.4563213953971,3.,79.4563213953971,79.4563213953971,3.,             51P     60
9.73059296688964D-15,1.5707963267949,3.14159265358979,0.,0.,0.;       51P     61
126,1,1,0,0,1,0,-0.201093301254209,-0.201093301254209,                53P     62
-0.081343949084808,-0.081343949084808,1.,1.,99.4563213953971,         53P     63
23.,0.,99.4563213953971,34.9098300562505,0.,-0.201093301254209,       53P     64
-0.081343949084808,0.,0.,0.;                                          53P     65
126,6,2,0,0,0,0,-1.5707963267949,-1.5707963267949,                    55P     66
-1.5707963267949,0.,0.,1.5707963267949,1.5707963267949,               55P     67
3.14159265358979,3.14159265358979,3.14159265358979,1.,                55P     68
0.707106781186548,1.,0.707106781186548,1.,0.707106781186548,1.,       55P     69
-6.08994328259217D-15,34.9098300562505,-99.4563213953971,             55P     70
-99.4563213953971,34.9098300562505,-99.4563213953971,                 55P     71
-99.4563213953971,34.9098300562505,0.,-99.4563213953971,              55P     72
34.9098300562505,99.4563213953971,-6.08994328259217D-15,              55P     73
34.9098300562505,99.4563213953971,99.456321395397,                    55P     74
34.9098300562505,99.4563213953971,99.4563213953971,                   55P     75
34.9098300562505,1.21798865651843D-14,-1.5707963267949,               55P     76
3.14159265358979,0.,0.,0.;                                            55P     77
126,2,2,0,0,0,0,-3.14159265358979,-3.14159265358979,                  57P     78
-3.14159265358979,-1.5707963267949,-1.5707963267949,                  57P     79
-1.5707963267949,1.,0.707106781186548,1.,99.4563213953971,            57P     80
34.9098300562505,-1.21798865651843D-14,99.456321395397,               57P     81
34.9098300562505,-99.4563213953971,-6.08994328259217D-15,             57P     82
34.9098300562505,-99.4563213953971,-3.14159265358979,                 57P     83
-1.5707963267949,0.,0.,0.;                                            57P     84
126,6,2,0,0,0,0,-3.14159265358979,-3.14159265358979,                  59P     85
-3.14159265358979,-1.5707963267949,-1.5707963267949,0.,0.,            59P     86
1.5707963267949,1.5707963267949,1.5707963267949,1.,                   59P     87
0.707106781186548,1.,0.707106781186548,1.,0.707106781186548,1.,       59P     88
90.0897582493976,42.6832815729997,-2.20656268152167D-14,              59P     89
90.0897582493975,42.6832815729997,-90.0897582493976,                  59P     90
-1.10328134076084D-14,42.6832815729997,-90.0897582493976,             59P     91
-90.0897582493976,42.6832815729997,-90.0897582493975,                 59P     92
-90.0897582493976,42.6832815729997,0.,-90.0897582493976,              59P     93
42.6832815729997,90.0897582493976,0.,42.6832815729997,                59P     94
90.0897582493976,-3.14159265358979,1.5707963267949,0.,0.,0.;          59P     95
126,2,2,0,0,0,0,1.10714871779409,1.10714871779409,                    61P     96
1.10714871779409,1.5707963267949,1.5707963267949,                     61P     97
1.5707963267949,1.,0.973248989467866,1.,0.,42.6832815729997,          61P     98
90.0897582493976,0.,43.,89.4563213953971,0.,43.,                      61P     99
88.7481174628977,1.10714871779409,1.5707963267949,0.,0.,0.;           61P    100
126,6,2,0,0,0,0,-1.5707963267949,-1.5707963267949,                    63P    101
-1.5707963267949,0.,0.,1.5707963267949,1.5707963267949,               63P    102
3.14159265358979,3.14159265358979,3.14159265358979,1.,                63P    103
0.707106781186548,1.,0.707106781186548,1.,0.707106781186548,1.,       63P    104
-5.43425489906455D-15,43.,88.7481174628977,-88.7481174628977,         63P    105
43.,88.7481174628977,-88.7481174628977,43.,0.,-88.7481174628977,      63P    106
43.,-88.7481174628977,-5.43425489906455D-15,43.,                      63P    107
-88.7481174628977,88.7481174628977,43.,-88.7481174628977,             63P    108
88.7481174628977,43.,-1.08685097981291D-14,-1.5707963267949,          63P    109
3.14159265358979,0.,0.,0.;                                            63P    110
126,2,2,0,0,0,0,-3.14159265358979,-3.14159265358979,                  65P    111
-3.14159265358979,-1.5707963267949,-1.5707963267949,                  65P    112
-1.5707963267949,1.,0.707106781186548,1.,88.7481174628977,43.,        65P    113
1.08685097981291D-14,88.7481174628977,43.,88.7481174628977,           65P    114
-5.43425489906455D-15,43.,88.7481174628977,-3.14159265358979,         65P    115
-1.5707963267949,0.,0.,0.;                                            65P    116
126,2,2,0,0,0,0,1.5707963267949,1.5707963267949,1.5707963267949,      67P    117
3.14159265358979,3.14159265358979,3.14159265358979,1.,                67P    118
0.707106781186547,1.,0.,42.6832815729997,90.0897582493976,            67P    119
90.0897582493976,42.6832815729997,90.0897582493976,                   67P    120
90.0897582493976,42.6832815729997,0.,1.5707963267949,                 67P    121
3.14159265358979,0.,0.,0.;                                            67P    122
126,1,1,0,0,1,0,-0.0516849051405894,-0.0516849051405894,              69P    123
0.0264672598198581,0.0264672598198581,1.,1.,90.0897582493975,         69P    124
42.6832815729998,0.,96.6923893728968,39.3819660112501,0.,             69P    125
-0.0516849051405894,0.0264672598198581,0.,0.,0.;                      69P    126
126,2,2,0,0,0,0,1.5707963267949,1.5707963267949,1.5707963267949,      71P    127
3.14159265358979,3.14159265358979,3.14159265358979,1.,                71P    128
0.707106781186548,1.,9.62862088281941D-15,39.3819660112501,           71P    129
-96.6923893728968,96.6923893728968,39.3819660112501,                  71P    130
-96.6923893728968,96.6923893728968,39.3819660112501,                  71P    131
-2.36828050294855D-14,1.5707963267949,3.14159265358979,0.,0.,0.;      71P    132
126,6,2,0,0,0,0,-3.14159265358979,-3.14159265358979,                  73P    133
-3.14159265358979,-1.5707963267949,-1.5707963267949,                  73P    134
1.48029736616688D-16,1.48029736616688D-16,1.5707963267949,            73P    135
1.5707963267949,1.5707963267949,1.,0.707106781186547,1.,              73P    136
0.707106781186548,1.,0.707106781186547,1.,96.6923893728968,           73P    137
39.3819660112501,0.,96.6923893728968,39.3819660112501,                73P    138
96.6923893728968,0.,39.3819660112501,96.6923893728968,                73P    139
-96.6923893728968,39.3819660112501,96.6923893728968,                  73P    140
-96.6923893728968,39.3819660112501,-1.43133489317081D-14,             73P    141
-96.6923893728968,39.3819660112501,-96.6923893728969,                 73P    142
9.62862088281941D-15,39.3819660112501,-96.6923893728968,              73P    143
-3.14159265358979,1.5707963267949,0.,0.,0.;                           73P    144
126,8,2,0,1,0,0,-3.14159265358979,-3.14159265358979,                  75P    145
-3.14159265358979,-1.5707963267949,-1.5707963267949,0.,0.,            75P    146
1.5707963267949,1.5707963267949,3.14159265358979,                     75P    147
3.14159265358979,3.14159265358979,1.,0.707106781186548,1.,            75P    148
0.707106781186548,1.,0.707106781186548,1.,0.707106781186548,1.,       75P    149
87.5000000001361,43.,-3.11891081747777D-10,87.5000000001361,43.,      75P    150
87.4999999998242,-5.3578297463162D-15,43.,87.4999999998242,           75P    151
-87.5000000001361,43.,87.4999999998242,-87.5000000001361,43.,         75P    152
-3.1190179740727D-10,-87.5000000001361,43.,-87.500000000448,          75P    153
-5.3578297463162D-15,43.,-87.500000000448,87.5000000001361,43.,       75P    154
-87.500000000448,87.5000000001361,43.,-3.11912513066763D-10,          75P    155
-3.14159265358979,3.14159265358979,0.,0.,0.;                          75P    156
126,2,2,0,0,0,0,-1.10714871779409,-1.10714871779409,                  77P    157
-1.10714871779409,0.,0.,0.,1.,0.850650808352037,1.,0.,                77P    158
39.3819660112501,-96.6923893728968,0.,38.,-99.4563213953971,0.,       77P    159
34.9098300562505,-99.4563213953971,-1.10714871779409,0.,0.,0.,        77P    160
0.;                                                                   77P    161
126,4,2,0,0,0,0,-1.22464679914887D-16,-1.22464679914887D-16,          79P    162
-1.22464679914887D-16,1.5707963267949,1.5707963267949,                79P    163
3.14159265358979,3.14159265358979,3.14159265358979,1.,                79P    164
0.707106781186547,1.,0.707106781186548,1.,-87.5000000001361,10.,      79P    165
-3.11891081747777D-10,-87.5000000001361,10.,-87.500000000448,         79P    166
-5.3578297463162D-15,10.,-87.500000000448,87.5000000001361,10.,       79P    167
-87.500000000448,87.5000000001361,10.,-3.11912513066763D-10,          79P    168
-1.22464679914887D-16,3.14159265358979,0.,0.,0.;                      79P    169
126,4,2,0,0,0,0,3.14159265358979,3.14159265358979,                    81P    170
3.14159265358979,4.71238898038469,4.71238898038469,                   81P    171
6.28318530717959,6.28318530717959,6.28318530717959,1.,                81P    172
0.707106781186548,1.,0.707106781186548,1.,87.5000000001361,10.,       81P    173
-3.11912513066763D-10,87.5000000001361,10.,87.4999999998242,          81P    174
1.60734892387958D-14,10.,87.4999999998242,-87.5000000001361,10.,      81P    175
87.4999999998242,-87.5000000001361,10.,-3.11880366088285D-10,         81P    176
3.14159265358979,6.28318530717959,0.,0.,0.;                           81P    177
126,1,1,0,0,1,0,-0.37714285714227,-0.37714285714227,0.,0.,1.,1.,      83P    178
87.5000000001361,10.,-3.1190179740727D-10,87.5000000001361,43.,       83P    179
-3.1190179740727D-10,-0.37714285714227,0.,0.,0.,0.;                   83P    180
128,2,8,2,2,0,1,0,0,1,0.,0.,0.,1.5707963267949,1.5707963267949,       85P    181
1.5707963267949,-3.14159265358979,-3.14159265358979,                  85P    182
-3.14159265358979,-1.5707963267949,-1.5707963267949,0.,0.,            85P    183
1.5707963267949,1.5707963267949,3.14159265358979,                     85P    184
3.14159265358979,3.14159265358979,1.,0.707106781186546,1.,            85P    185
0.707106781186548,0.499999999999999,0.707106781186548,1.,             85P    186
0.707106781186546,1.,0.707106781186548,0.499999999999999,             85P    187
0.707106781186548,1.,0.707106781186546,1.,0.707106781186548,          85P    188
0.499999999999999,0.707106781186548,1.,0.707106781186546,1.,          85P    189
0.707106781186548,0.499999999999999,0.707106781186548,1.,             85P    190
0.707106781186546,1.,0.,3.,79.4563213953971,0.,2.99999999999999,      85P    191
99.4563213953971,0.,23.,99.4563213953971,-79.456321395397,3.,         85P    192
79.456321395397,-99.456321395397,2.99999999999999,                    85P    193
99.456321395397,-99.456321395397,23.,99.456321395397,                 85P    194
-79.4563213953971,3.,0.,-99.4563213953971,2.99999999999999,0.,        85P    195
-99.4563213953971,23.,0.,-79.456321395397,3.,-79.456321395397,        85P    196
-99.456321395397,2.99999999999999,-99.456321395397,                   85P    197
-99.456321395397,23.,-99.456321395397,0.,3.,-79.4563213953971,        85P    198
0.,2.99999999999999,-99.4563213953971,0.,23.,-99.4563213953971,       85P    199
79.456321395397,3.,-79.456321395397,99.456321395397,                  85P    200
2.99999999999999,-99.456321395397,99.456321395397,23.,                85P    201
-99.456321395397,79.4563213953971,3.,0.,99.4563213953971,             85P    202
2.99999999999999,0.,99.4563213953971,23.,0.,79.456321395397,3.,       85P    203
79.456321395397,99.456321395397,2.99999999999999,                     85P    204
99.456321395397,99.456321395397,23.,99.456321395397,0.,3.,            85P    205
79.4563213953971,0.,2.99999999999999,99.4563213953971,0.,23.,         85P    206
99.4563213953971,0.,1.5707963267949,-3.14159265358979,                85P    207
3.14159265358979;                                                     85P    208
128,1,8,1,2,0,1,0,0,1,0.081343949084808,0.081343949084808,            87P    209
0.201093301254209,0.201093301254209,-3.14159265358979,                87P    210
-3.14159265358979,-3.14159265358979,-1.5707963267949,                 87P    211
-1.5707963267949,0.,0.,1.5707963267949,1.5707963267949,               87P    212
3.14159265358979,3.14159265358979,3.14159265358979,1.,1.,             87P    213
0.707106781186548,0.707106781186548,1.,1.,0.707106781186548,          87P    214
0.707106781186548,1.,1.,0.707106781186548,0.707106781186548,1.,       87P    215
1.,0.707106781186548,0.707106781186548,1.,1.,99.4563213953971,        87P    216
23.,0.,99.4563213953971,34.9098300562505,0.,99.456321395397,23.,      87P    217
99.456321395397,99.456321395397,34.9098300562505,                     87P    218
99.456321395397,0.,23.,99.4563213953971,0.,34.9098300562505,          87P    219
99.4563213953971,-99.456321395397,23.,99.456321395397,                87P    220
-99.456321395397,34.9098300562505,99.456321395397,                    87P    221
-99.4563213953971,23.,0.,-99.4563213953971,34.9098300562505,0.,       87P    222
-99.456321395397,23.,-99.456321395397,-99.456321395397,               87P    223
34.9098300562505,-99.456321395397,0.,23.,-99.4563213953971,0.,        87P    224
34.9098300562505,-99.4563213953971,99.456321395397,23.,               87P    225
-99.456321395397,99.456321395397,34.9098300562505,                    87P    226
-99.456321395397,99.4563213953971,23.,0.,99.4563213953971,            87P    227
34.9098300562505,0.,0.081343949084808,0.201093301254209,              87P    228
-3.14159265358979,3.14159265358979;                                   87P    229
128,1,1,1,1,0,0,1,0,0,-7.94663213953971,-7.94663213953971,            89P    230
7.94663213953971,7.94663213953971,-7.94663213953971,                  89P    231
-7.94663213953971,7.94663213953971,7.94663213953971,1.,1.,1.,1.,      89P    232
-79.4663213953971,3.,-79.4663213953971,79.4663213953971,3.,           89P    233
-79.4663213953971,-79.4663213953971,3.,79.4663213953971,              89P    234
79.4663213953971,3.,79.4663213953971,-7.94663213953971,               89P    235
7.94663213953971,-7.94663213953971,7.94663213953971;                  89P    236
128,2,8,2,2,0,1,0,0,1,-1.5707963267949,-1.5707963267949,              91P    237
-1.5707963267949,-1.10714871779409,-1.10714871779409,                 91P    238
-1.10714871779409,-3.14159265358979,-3.14159265358979,                91P    239
-3.14159265358979,-1.5707963267949,-1.5707963267949,0.,0.,            91P    240
1.5707963267949,1.5707963267949,3.14159265358979,                     91P    241
3.14159265358979,3.14159265358979,1.,0.973248989467866,1.,            91P    242
0.707106781186548,0.688190960235683,0.707106781186548,1.,             91P    243
0.973248989467866,1.,0.707106781186548,0.688190960235683,             91P    244
0.707106781186548,1.,0.973248989467866,1.,0.707106781186548,          91P    245
0.688190960235683,0.707106781186548,1.,0.973248989467866,1.,          91P    246
0.707106781186548,0.688190960235683,0.707106781186548,1.,             91P    247
0.973248989467866,1.,0.,42.6832815729997,90.0897582493976,0.,         91P    248
43.,89.4563213953971,0.,43.,88.7481174628977,-90.0897582493975,       91P    249
42.6832815729997,90.0897582493975,-89.456321395397,43.,               91P    250
89.456321395397,-88.7481174628977,43.,88.7481174628977,               91P    251
-90.0897582493976,42.6832815729997,0.,-89.4563213953971,43.,0.,       91P    252
-88.7481174628977,43.,0.,-90.0897582493975,42.6832815729997,          91P    253
-90.0897582493975,-89.456321395397,43.,-89.456321395397,              91P    254
-88.7481174628977,43.,-88.7481174628977,0.,42.6832815729997,          91P    255
-90.0897582493976,0.,43.,-89.4563213953971,0.,43.,                    91P    256
-88.7481174628977,90.0897582493975,42.6832815729997,                  91P    257
-90.0897582493975,89.456321395397,43.,-89.456321395397,               91P    258
88.7481174628977,43.,-88.7481174628977,90.0897582493976,              91P    259
42.6832815729997,0.,89.4563213953971,43.,0.,88.7481174628977,         91P    260
43.,0.,90.0897582493975,42.6832815729997,90.0897582493975,            91P    261
89.456321395397,43.,89.456321395397,88.7481174628977,43.,             91P    262
88.7481174628977,0.,42.6832815729997,90.0897582493976,0.,43.,         91P    263
89.4563213953971,0.,43.,88.7481174628977,-1.5707963267949,            91P    264
-1.10714871779409,-3.14159265358979,3.14159265358979;                 91P    265
128,1,8,1,2,0,1,0,0,1,-0.0264672598198581,-0.0264672598198581,        93P    266
0.0516849051405894,0.0516849051405894,-3.14159265358979,              93P    267
-3.14159265358979,-3.14159265358979,-1.5707963267949,                 93P    268
-1.5707963267949,0.,0.,1.5707963267949,1.5707963267949,               93P    269
3.14159265358979,3.14159265358979,3.14159265358979,1.,1.,             93P    270
0.707106781186548,0.707106781186548,1.,1.,0.707106781186548,          93P    271
0.707106781186548,1.,1.,0.707106781186548,0.707106781186548,1.,       93P    272
1.,0.707106781186548,0.707106781186548,1.,1.,90.0897582493975,        93P    273
42.6832815729998,0.,96.6923893728968,39.3819660112501,0.,             93P    274
90.0897582493975,42.6832815729998,-90.0897582493975,                  93P    275
96.6923893728968,39.3819660112501,-96.6923893728968,0.,               93P    276
42.6832815729998,-90.0897582493975,0.,39.3819660112501,               93P    277
-96.6923893728968,-90.0897582493975,42.6832815729998,                 93P    278
-90.0897582493975,-96.6923893728968,39.3819660112501,                 93P    279
-96.6923893728968,-90.0897582493975,42.6832815729998,0.,              93P    280
-96.6923893728968,39.3819660112501,0.,-90.0897582493975,              93P    281
42.6832815729998,90.0897582493975,-96.6923893728968,                  93P    282
39.3819660112501,96.6923893728968,0.,42.6832815729998,                93P    283
90.0897582493975,0.,39.3819660112501,96.6923893728968,                93P    284
90.0897582493975,42.6832815729998,90.0897582493975,                   93P    285
96.6923893728968,39.3819660112501,96.6923893728968,                   93P    286
90.0897582493975,42.6832815729998,0.,96.6923893728968,                93P    287
39.3819660112501,0.,-0.0264672598198581,0.0516849051405894,           93P    288
-3.14159265358979,3.14159265358979;                                   93P    289
128,1,1,1,1,0,0,1,0,0,-8.87581174628977,-8.87581174628977,            95P    290
8.87581174628977,8.87581174628977,-8.87581174628977,                  95P    291
-8.87581174628977,8.87581174628977,8.87581174628977,1.,1.,1.,1.,      95P    292
88.7581174628977,43.,-88.7581174628977,-88.7581174628977,43.,         95P    293
-88.7581174628977,88.7581174628977,43.,88.7581174628977,              95P    294
-88.7581174628977,43.,88.7581174628977,-8.87581174628977,             95P    295
8.87581174628977,-8.87581174628977,8.87581174628977;                  95P    296
128,2,8,2,2,0,1,0,0,1,0.,0.,0.,1.10714871779409,                      97P    297
1.10714871779409,1.10714871779409,-3.14159265358979,                  97P    298
-3.14159265358979,-3.14159265358979,-1.5707963267949,                 97P    299
-1.5707963267949,0.,0.,1.5707963267949,1.5707963267949,               97P    300
3.14159265358979,3.14159265358979,3.14159265358979,1.,                97P    301
0.850650808352037,1.,0.707106781186548,0.601500955007544,             97P    302
0.707106781186548,1.,0.850650808352037,1.,0.707106781186548,          97P    303
0.601500955007544,0.707106781186548,1.,0.850650808352037,1.,          97P    304
0.707106781186548,0.601500955007544,0.707106781186548,1.,             97P    305
0.850650808352037,1.,0.707106781186548,0.601500955007544,             97P    306
0.707106781186548,1.,0.850650808352037,1.,0.,39.3819660112501,        97P    307
-96.6923893728968,0.,38.,-99.4563213953971,0.,34.9098300562505,       97P    308
-99.4563213953971,-96.6923893728968,39.3819660112501,                 97P    309
-96.6923893728968,-99.456321395397,38.,-99.456321395397,              97P    310
-99.456321395397,34.9098300562505,-99.456321395397,                   97P    311
-96.6923893728968,39.3819660112501,0.,-99.4563213953971,38.,0.,       97P    312
-99.4563213953971,34.9098300562505,0.,-96.6923893728968,              97P    313
39.3819660112501,96.6923893728968,-99.456321395397,38.,               97P    314
99.456321395397,-99.456321395397,34.9098300562505,                    97P    315
99.456321395397,0.,39.3819660112501,96.6923893728968,0.,38.,          97P    316
99.4563213953971,0.,34.9098300562505,99.4563213953971,                97P    317
96.6923893728968,39.3819660112501,96.6923893728968,                   97P    318
99.456321395397,38.,99.456321395397,99.456321395397,                  97P    319
34.9098300562505,99.456321395397,96.6923893728968,                    97P    320
39.3819660112501,0.,99.4563213953971,38.,0.,99.4563213953971,         97P    321
34.9098300562505,0.,96.6923893728968,39.3819660112501,                97P    322
-96.6923893728968,99.456321395397,38.,-99.456321395397,               97P    323
99.456321395397,34.9098300562505,-99.456321395397,0.,                 97P    324
39.3819660112501,-96.6923893728968,0.,38.,-99.4563213953971,0.,       97P    325
34.9098300562505,-99.4563213953971,0.,1.10714871779409,               97P    326
-3.14159265358979,3.14159265358979;                                   97P    327
128,1,1,1,1,0,0,1,0,0,-8.75100000001361,-8.75100000001361,            99P    328
8.75100000001361,8.75100000001361,-8.75100000001361,                  99P    329
-8.75100000001361,8.75100000001361,8.75100000001361,1.,1.,1.,1.,      99P    330
-87.5100000001361,10.,87.5099999998242,87.5100000001361,10.,          99P    331
87.5099999998242,-87.5100000001361,10.,-87.510000000448,              99P    332
87.5100000001361,10.,-87.510000000448,-8.75100000001361,              99P    333
8.75100000001361,-8.75100000001361,8.75100000001361;                  99P    334
128,1,8,1,2,0,1,0,0,1,0.,0.,0.37714285714227,0.37714285714227,       101P    335
-3.14159265358979,-3.14159265358979,-3.14159265358979,               101P    336
-1.5707963267949,-1.5707963267949,0.,0.,1.5707963267949,             101P    337
1.5707963267949,3.14159265358979,3.14159265358979,                   101P    338
3.14159265358979,1.,1.,0.707106781186548,0.707106781186548,1.,       101P    339
1.,0.707106781186548,0.707106781186548,1.,1.,0.707106781186548,      101P    340
0.707106781186548,1.,1.,0.707106781186548,0.707106781186548,1.,      101P    341
1.,87.5000000001361,43.,-3.1190179740727D-10,87.5000000001361,       101P    342
10.,-3.1190179740727D-10,87.5000000001361,43.,87.4999999998242,      101P    343
87.5000000001361,10.,87.4999999998242,-3.819665746805D-26,43.,       101P    344
87.4999999998242,-3.819665746805D-26,10.,87.4999999998242,           101P    345
-87.5000000001361,43.,87.4999999998242,-87.5000000001361,10.,        101P    346
87.4999999998242,-87.5000000001361,43.,-3.1190179740727D-10,         101P    347
-87.5000000001361,10.,-3.1190179740727D-10,-87.5000000001361,        101P    348
43.,-87.500000000448,-87.5000000001361,10.,-87.500000000448,         101P    349
-3.819665746805D-26,43.,-87.500000000448,-3.819665746805D-26,        101P    350
10.,-87.500000000448,87.5000000001361,43.,-87.500000000448,          101P    351
87.5000000001361,10.,-87.500000000448,87.5000000001361,43.,          101P    352
-3.1190179740727D-10,87.5000000001361,10.,-3.1190179740727D-10,      101P    353
0.,0.37714285714227,-3.14159265358979,3.14159265358979;              101P    354
502,15,79.4563213953971,3.,-9.73059296688964D-15,0.,3.,              103P    355
79.4563213953971,0.,23.,99.4563213953971,99.4563213953971,23.,       103P    356
1.21798865651843D-14,99.4563213953971,34.9098300562505,              103P    357
-1.21798865651843D-14,0.,34.9098300562505,-99.4563213953971,         103P    358
90.0897582493976,42.6832815729997,-2.20656268152167D-14,0.,          103P    359
42.6832815729997,90.0897582493976,0.,43.,88.7481174628977,           103P    360
88.7481174628977,43.,1.08685097981291D-14,96.6923893728968,          103P    361
39.3819660112501,0.,0.,39.3819660112501,-96.6923893728968,           103P    362
87.5000000001361,43.,-3.11912513066763D-10,-87.5000000001361,        103P    363
10.,-3.11891081747777D-10,87.5000000001361,10.,                      103P    364
-3.1190179740727D-10;                                                103P    365
504,21,43,103,1,103,2,45,103,2,103,3,47,103,3,103,4,49,103,4,        105P    366
103,3,51,103,2,103,1,53,103,4,103,5,55,103,6,103,5,57,103,5,103,     105P    367
6,59,103,7,103,8,61,103,8,103,9,63,103,9,103,10,65,103,10,103,9,     105P    368
67,103,8,103,7,69,103,7,103,11,71,103,12,103,11,73,103,11,103,       105P    369
12,75,103,13,103,13,77,103,12,103,6,79,103,14,103,15,81,103,15,      105P    370
103,14,83,103,15,103,13;                                             105P    371
406,1,5HBody1;                                                       107P    372
314,94.9019607843137,94.1176470588235,92.156862745098,11HABS (Wh     109P    373
ite);                                                                109P    374
314,62.7450980392157,62.7450980392157,62.7450980392157,13HSteel      111P    375
- Satin;                                                             111P    376
S      1G      2D    112P    376                                        T      1
