                                                                        S      1
,,7Hslipmat,7Hslipmat,7Hunknown,7Hunknown,32,38,7,99,15,,1.,2,2HMM,1,   G      1
0.08,15H20211012.212255,0.01,10000.,7Hunknown,7Hunknown,11,0,;          G      2
     186       1                                                00000000D      1
     186             -51       1       0                               0D      2
     514       2                                                00010000D      3
     514                       1       1                               0D      4
     510       3                                                00010000D      5
     510             -51       1       1                               0D      6
     510       4                                                00010000D      7
     510             -51       1       1                               0D      8
     510       5                                                00010000D      9
     510             -51       1       1                               0D     10
     510       6                                                00010000D     11
     510             -51       1       1                               0D     12
     508       7                                                00010000D     13
     508                       1       1                               0D     14
     508       8                                                00010000D     15
     508                       1       1                               0D     16
     508       9                                                00010000D     17
     508                       1       1                               0D     18
     508      10                                                00010000D     19
     508                       1       1                               0D     20
     508      11                                                00010000D     21
     508                       1       1                               0D     22
     508      12                                                00010000D     23
     508                       1       1                               0D     24
     126      13                                                00010000D     25
     126       0               9       0                               0D     26
     126      22                                                00010000D     27
     126       0               2       0                               0D     28
     126      24                                                00010000D     29
     126       0               9       0                               0D     30
     126      33                                                00010000D     31
     126       0               9       0                               0D     32
     126      42                                                00010000D     33
     126       0               2       0                               0D     34
     126      44                                                00010000D     35
     126       0               9       0                               0D     36
     128      53                                                00010000D     37
     128       0     -51      12       0                               0D     38
     128      65                                                00010000D     39
     128       0     -51      12       0                               0D     40
     128      77                                                00010000D     41
     128       0     -51       3       0                               0D     42
     128      80                                                00010000D     43
     128       0     -51       3       0                               0D     44
     502      83                                                00010000D     45
     502                       2       1                               0D     46
     504      85                                                00010001D     47
     504                       2       1                               0D     48
     406      87                                                00000000D     49
     406                       1      15                               0D     50
     314      88                                                00000200D     51
     314                       2       0                               0D     52
     314      90                                                00000200D     53
     314                       2       0                               0D     54
186,3,1,0,0,1,49;                                                      1P      1
514,4,5,1,7,1,9,1,11,1;                                                3P      2
510,37,1,1,13;                                                         5P      3
510,39,1,1,15;                                                         7P      4
510,41,2,1,17,19;                                                      9P      5
510,43,2,1,21,23;                                                     11P      6
508,4,0,47,1,0,0,0,47,2,1,0,0,47,3,1,0,0,47,2,0,0;                    13P      7
508,4,0,47,4,0,0,0,47,5,1,0,0,47,6,1,0,0,47,5,0,0;                    15P      8
508,1,0,47,4,1,0;                                                     17P      9
508,1,0,47,1,1,0;                                                     19P     10
508,1,0,47,6,0,0;                                                     21P     11
508,1,0,47,3,0,0;                                                     23P     12
126,8,2,0,1,0,0,-3.14159265358979,-3.14159265358979,                  25P     13
-3.14159265358979,-1.5707963267949,-1.5707963267949,0.,0.,            25P     14
1.5707963267949,1.5707963267949,3.14159265358979,                     25P     15
3.14159265358979,3.14159265358979,1.,0.707106781186548,1.,            25P     16
0.707106781186548,1.,0.707106781186548,1.,0.707106781186548,1.,       25P     17
-3.5,2.,-4.28626379701574D-16,-3.5,2.,-3.5,2.14313189850787D-16,      25P     18
2.,-3.5,3.5,2.,-3.5,3.5,2.,0.,3.5,2.,3.5,2.14313189850787D-16,        25P     19
2.,3.5,-3.5,2.,3.5,-3.5,2.,4.28626379701574D-16,                      25P     20
-3.14159265358979,3.14159265358979,0.,0.,0.;                          25P     21
126,1,1,0,0,1,0,-0.571428571428571,-0.571428571428571,0.,0.,1.,       27P     22
1.,-3.5,2.,0.,-3.5,0.,0.,-0.571428571428571,0.,0.,0.,0.;              27P     23
126,8,2,0,1,0,0,-3.14159265358979,-3.14159265358979,                  29P     24
-3.14159265358979,-1.5707963267949,-1.5707963267949,0.,0.,            29P     25
1.5707963267949,1.5707963267949,3.14159265358979,                     29P     26
3.14159265358979,3.14159265358979,1.,0.707106781186548,1.,            29P     27
0.707106781186548,1.,0.707106781186548,1.,0.707106781186548,1.,       29P     28
-3.5,0.,-4.28626379701574D-16,-3.5,0.,-3.5,2.14313189850787D-16,      29P     29
0.,-3.5,3.5,0.,-3.5,3.5,0.,0.,3.5,0.,3.5,2.14313189850787D-16,        29P     30
0.,3.5,-3.5,0.,3.5,-3.5,0.,4.28626379701574D-16,                      29P     31
-3.14159265358979,3.14159265358979,0.,0.,0.;                          29P     32
126,8,2,0,1,0,0,-3.14159265358979,-3.14159265358979,                  31P     33
-3.14159265358979,-1.5707963267949,-1.5707963267949,0.,0.,            31P     34
1.5707963267949,1.5707963267949,3.14159265358979,                     31P     35
3.14159265358979,3.14159265358979,1.,0.707106781186548,1.,            31P     36
0.707106781186548,1.,0.707106781186548,1.,0.707106781186548,1.,       31P     37
-90.,2.,1.10218211923262D-14,-90.,2.,90.,5.51091059616309D-15,        31P     38
2.,90.,90.,2.,90.,90.,2.,0.,90.,2.,-90.,5.51091059616309D-15,2.,      31P     39
-90.,-90.,2.,-90.,-90.,2.,-1.10218211923262D-14,                      31P     40
-3.14159265358979,3.14159265358979,0.,0.,0.;                          31P     41
126,1,1,0,0,1,0,-0.0222222222222222,-0.0222222222222222,0.,0.,        33P     42
1.,1.,-90.,2.,0.,-90.,0.,0.,-0.0222222222222222,0.,0.,0.,0.;          33P     43
126,8,2,0,1,0,0,-3.14159265358979,-3.14159265358979,                  35P     44
-3.14159265358979,-1.5707963267949,-1.5707963267949,0.,0.,            35P     45
1.5707963267949,1.5707963267949,3.14159265358979,                     35P     46
3.14159265358979,3.14159265358979,1.,0.707106781186548,1.,            35P     47
0.707106781186548,1.,0.707106781186548,1.,0.707106781186548,1.,       35P     48
-90.,0.,1.10218211923262D-14,-90.,0.,90.,5.51091059616309D-15,        35P     49
0.,90.,90.,0.,90.,90.,0.,0.,90.,0.,-90.,5.51091059616309D-15,0.,      35P     50
-90.,-90.,0.,-90.,-90.,0.,-1.10218211923262D-14,                      35P     51
-3.14159265358979,3.14159265358979,0.,0.,0.;                          35P     52
128,1,8,1,2,0,1,0,0,1,0.,0.,0.571428571428571,0.571428571428571,      37P     53
-3.14159265358979,-3.14159265358979,-3.14159265358979,                37P     54
-1.5707963267949,-1.5707963267949,0.,0.,1.5707963267949,              37P     55
1.5707963267949,3.14159265358979,3.14159265358979,                    37P     56
3.14159265358979,1.,1.,0.707106781186548,0.707106781186548,1.,        37P     57
1.,0.707106781186548,0.707106781186548,1.,1.,0.707106781186548,       37P     58
0.707106781186548,1.,1.,0.707106781186548,0.707106781186548,1.,       37P     59
1.,-3.5,0.,0.,-3.5,2.,0.,-3.5,0.,3.5,-3.5,2.,3.5,0.,0.,3.5,0.,        37P     60
2.,3.5,3.5,0.,3.5,3.5,2.,3.5,3.5,0.,0.,3.5,2.,0.,3.5,0.,-3.5,         37P     61
3.5,2.,-3.5,0.,0.,-3.5,0.,2.,-3.5,-3.5,0.,-3.5,-3.5,2.,-3.5,          37P     62
-3.5,0.,0.,-3.5,2.,0.,0.,0.571428571428571,-3.14159265358979,         37P     63
3.14159265358979;                                                     37P     64
128,1,8,1,2,0,1,0,0,1,0.,0.,0.0222222222222222,                       39P     65
0.0222222222222222,-3.14159265358979,-3.14159265358979,               39P     66
-3.14159265358979,-1.5707963267949,-1.5707963267949,0.,0.,            39P     67
1.5707963267949,1.5707963267949,3.14159265358979,                     39P     68
3.14159265358979,3.14159265358979,1.,1.,0.707106781186548,            39P     69
0.707106781186548,1.,1.,0.707106781186548,0.707106781186548,1.,       39P     70
1.,0.707106781186548,0.707106781186548,1.,1.,0.707106781186548,       39P     71
0.707106781186548,1.,1.,-90.,2.,0.,-90.,0.,0.,-90.,2.,90.,-90.,       39P     72
0.,90.,0.,2.,90.,0.,0.,90.,90.,2.,90.,90.,0.,90.,90.,2.,0.,90.,       39P     73
0.,0.,90.,2.,-90.,90.,0.,-90.,0.,2.,-90.,0.,0.,-90.,-90.,2.,          39P     74
-90.,-90.,0.,-90.,-90.,2.,0.,-90.,0.,0.,0.,0.0222222222222222,        39P     75
-3.14159265358979,3.14159265358979;                                   39P     76
128,1,1,1,1,0,0,1,0,0,-9.001,-9.001,9.001,9.001,-9.001,-9.001,        41P     77
9.001,9.001,1.,1.,1.,1.,-90.01,2.,90.01,90.01,2.,90.01,-90.01,        41P     78
2.,-90.01,90.01,2.,-90.01,-9.001,9.001,-9.001,9.001;                  41P     79
128,1,1,1,1,0,0,1,0,0,-9.001,-9.001,9.001,9.001,-9.001,-9.001,        43P     80
9.001,9.001,1.,1.,1.,1.,90.01,0.,90.01,-90.01,0.,90.01,90.01,0.,      43P     81
-90.01,-90.01,0.,-90.01,-9.001,9.001,-9.001,9.001;                    43P     82
502,4,-3.5,2.,4.28626379701574D-16,-3.5,0.,4.28626379701574D-16,      45P     83
-90.,2.,1.10218211923262D-14,-90.,0.,1.10218211923262D-14;            45P     84
504,6,25,45,1,45,1,27,45,1,45,2,29,45,2,45,2,31,45,3,45,3,33,45,      47P     85
3,45,4,35,45,4,45,4;                                                  47P     86
406,1,5HBody1;                                                        49P     87
314,94.9019607843137,94.1176470588235,92.156862745098,11HABS (Wh      51P     88
ite);                                                                 51P     89
314,62.7450980392157,62.7450980392157,62.7450980392157,13HSteel       53P     90
- Satin;                                                              53P     91
S      1G      2D     54P     91                                        T      1
