                                                                        S      1
,,7Hspindle,7Hspindle,7Hunknown,7Hunknown,32,38,7,99,15,,1.,2,2HMM,1,   G      1
0.08,15H20211012.212253,0.01,10000.,7Hunknown,7Hunknown,11,0,;          G      2
     186       1                                                00000000D      1
     186             -45       1       0                               0D      2
     514       2                                                00010000D      3
     514                       1       1                               0D      4
     510       3                                                00010000D      5
     510             -45       1       1                               0D      6
     510       4                                                00010000D      7
     510             -45       1       1                               0D      8
     510       5                                                00010000D      9
     510             -45       1       1                               0D     10
     510       6                                                00010000D     11
     510             -45       1       1                               0D     12
     508       7                                                00010000D     13
     508                       1       1                               0D     14
     508       8                                                00010000D     15
     508                       1       1                               0D     16
     508       9                                                00010000D     17
     508                       1       1                               0D     18
     508      10                                                00010000D     19
     508                       1       1                               0D     20
     126      11                                                00010000D     21
     126       0              10       0                               0D     22
     126      21                                                00010000D     23
     126       0               3       0                               0D     24
     126      24                                                00010000D     25
     126       0              10       0                               0D     26
     126      34                                                00010000D     27
     126       0               2       0                               0D     28
     126      36                                                00010000D     29
     126       0               9       0                               0D     30
     128      45                                                00010000D     31
     128       0     -45      13       0                               0D     32
     128      58                                                00010000D     33
     128       0     -45      12       0                               0D     34
     128      70                                                00010000D     35
     128       0     -45       3       0                               0D     36
     128      73                                                00010000D     37
     128       0     -45       3       0                               0D     38
     502      76                                                00010000D     39
     502                       2       1                               0D     40
     504      78                                                00010001D     41
     504                       2       1                               0D     42
     406      80                                                00000000D     43
     406                       1      15                               0D     44
     314      81                                                00000200D     45
     314                       2       0                               0D     46
     314      83                                                00000200D     47
     314                       2       0                               0D     48
186,3,1,0,0,1,43;                                                      1P      1
514,4,5,1,7,1,9,1,11,1;                                                3P      2
510,31,1,1,13;                                                         5P      3
510,33,1,1,15;                                                         7P      4
510,35,1,1,17;                                                         9P      5
510,37,1,1,19;                                                        11P      6
508,4,0,41,1,1,0,0,41,2,1,0,0,41,3,1,0,0,41,2,0,0;                    13P      7
508,4,0,41,3,0,0,0,41,4,1,0,0,41,5,1,0,0,41,4,0,0;                    15P      8
508,1,0,41,1,0,0;                                                     17P      9
508,1,0,41,5,0,0;                                                     19P     10
126,8,2,0,1,0,0,-3.14159265358979,-3.14159265358979,                  21P     11
-3.14159265358979,-1.5707963267949,-1.5707963267949,0.,0.,            21P     12
1.5707963267949,1.5707963267949,3.14159265358979,                     21P     13
3.14159265358979,3.14159265358979,1.,0.707106781186548,1.,            21P     14
0.707106781186548,1.,0.707106781186548,1.,0.707106781186548,1.,       21P     15
-2.5,60.,-3.06161699786838D-16,-2.5,60.,-2.5,                         21P     16
1.53080849893419D-16,60.,-2.5,2.5,60.,-2.5,2.5,60.,0.,2.5,60.,        21P     17
2.5,1.53080849893419D-16,60.,2.5,-2.5,60.,2.5,-2.5,60.,               21P     18
3.06161699786838D-16,-3.14159265358979,3.14159265358979,0.,0.,        21P     19
0.;                                                                   21P     20
126,1,1,0,0,1,0,-0.235702260395516,-0.235702260395516,                23P     21
0.235702260395515,0.235702260395515,1.,1.,-2.5,60.,0.,-3.5,59.,       23P     22
0.,-0.235702260395516,0.235702260395515,0.,0.,0.;                     23P     23
126,8,2,0,1,0,0,-3.14159265358979,-3.14159265358979,                  25P     24
-3.14159265358979,-1.5707963267949,-1.5707963267949,0.,0.,            25P     25
1.5707963267949,1.5707963267949,3.14159265358979,                     25P     26
3.14159265358979,3.14159265358979,1.,0.707106781186548,1.,            25P     27
0.707106781186548,1.,0.707106781186548,1.,0.707106781186548,1.,       25P     28
-3.5,59.,4.28626379701574D-16,-3.5,59.,3.5,2.14313189850787D-16,      25P     29
59.,3.5,3.5,59.,3.5,3.5,59.,0.,3.5,59.,-3.5,                          25P     30
2.14313189850787D-16,59.,-3.5,-3.5,59.,-3.5,-3.5,59.,                 25P     31
-4.28626379701574D-16,-3.14159265358979,3.14159265358979,0.,0.,       25P     32
0.;                                                                   25P     33
126,1,1,0,0,1,0,-16.8571428571429,-16.8571428571429,0.,0.,1.,1.,      27P     34
-3.5,59.,0.,-3.5,0.,0.,-16.8571428571429,0.,0.,0.,0.;                 27P     35
126,8,2,0,1,0,0,-3.14159265358979,-3.14159265358979,                  29P     36
-3.14159265358979,-1.5707963267949,-1.5707963267949,0.,0.,            29P     37
1.5707963267949,1.5707963267949,3.14159265358979,                     29P     38
3.14159265358979,3.14159265358979,1.,0.707106781186548,1.,            29P     39
0.707106781186548,1.,0.707106781186548,1.,0.707106781186548,1.,       29P     40
-3.5,0.,4.28626379701574D-16,-3.5,0.,3.5,2.14313189850787D-16,        29P     41
0.,3.5,3.5,0.,3.5,3.5,0.,0.,3.5,0.,-3.5,2.14313189850787D-16,0.,      29P     42
-3.5,-3.5,0.,-3.5,-3.5,0.,-4.28626379701574D-16,                      29P     43
-3.14159265358979,3.14159265358979,0.,0.,0.;                          29P     44
128,1,8,1,2,0,1,0,0,1,-0.235702260395515,-0.235702260395515,          31P     45
0.235702260395516,0.235702260395516,-3.14159265358979,                31P     46
-3.14159265358979,-3.14159265358979,-1.5707963267949,                 31P     47
-1.5707963267949,0.,0.,1.5707963267949,1.5707963267949,               31P     48
3.14159265358979,3.14159265358979,3.14159265358979,1.,1.,             31P     49
0.707106781186548,0.707106781186548,1.,1.,0.707106781186548,          31P     50
0.707106781186548,1.,1.,0.707106781186548,0.707106781186548,1.,       31P     51
1.,0.707106781186548,0.707106781186548,1.,1.,-2.5,60.,0.,-3.5,        31P     52
59.,0.,-2.5,60.,2.5,-3.5,59.,3.5,0.,60.,2.5,0.,59.,3.5,2.5,60.,       31P     53
2.5,3.5,59.,3.5,2.5,60.,0.,3.5,59.,0.,2.5,60.,-2.5,3.5,59.,-3.5,      31P     54
0.,60.,-2.5,0.,59.,-3.5,-2.5,60.,-2.5,-3.5,59.,-3.5,-2.5,60.,0.,      31P     55
-3.5,59.,0.,-0.235702260395515,0.235702260395516,                     31P     56
-3.14159265358979,3.14159265358979;                                   31P     57
128,1,8,1,2,0,1,0,0,1,0.,0.,16.8571428571429,16.8571428571429,        33P     58
-3.14159265358979,-3.14159265358979,-3.14159265358979,                33P     59
-1.5707963267949,-1.5707963267949,0.,0.,1.5707963267949,              33P     60
1.5707963267949,3.14159265358979,3.14159265358979,                    33P     61
3.14159265358979,1.,1.,0.707106781186548,0.707106781186548,1.,        33P     62
1.,0.707106781186548,0.707106781186548,1.,1.,0.707106781186548,       33P     63
0.707106781186548,1.,1.,0.707106781186548,0.707106781186548,1.,       33P     64
1.,-3.5,59.,0.,-3.5,0.,0.,-3.5,59.,3.5,-3.5,0.,3.5,0.,59.,3.5,        33P     65
0.,0.,3.5,3.5,59.,3.5,3.5,0.,3.5,3.5,59.,0.,3.5,0.,0.,3.5,59.,        33P     66
-3.5,3.5,0.,-3.5,0.,59.,-3.5,0.,0.,-3.5,-3.5,59.,-3.5,-3.5,0.,        33P     67
-3.5,-3.5,59.,0.,-3.5,0.,0.,0.,16.8571428571429,                      33P     68
-3.14159265358979,3.14159265358979;                                   33P     69
128,1,1,1,1,0,0,1,0,0,-0.251,-0.251,0.251,0.251,-0.251,-0.251,        35P     70
0.251,0.251,1.,1.,1.,1.,-2.51,60.,2.51,2.51,60.,2.51,-2.51,60.,       35P     71
-2.51,2.51,60.,-2.51,-0.251,0.251,-0.251,0.251;                       35P     72
128,1,1,1,1,0,0,1,0,0,-0.351,-0.351,0.351,0.351,-0.351,-0.351,        37P     73
0.351,0.351,1.,1.,1.,1.,3.51,0.,3.51,-3.51,0.,3.51,3.51,0.,           37P     74
-3.51,-3.51,0.,-3.51,-0.351,0.351,-0.351,0.351;                       37P     75
502,3,-2.5,60.,-3.06161699786838D-16,-3.5,59.,                        39P     76
4.28626379701574D-16,-3.5,0.,4.28626379701574D-16;                    39P     77
504,5,21,39,1,39,1,23,39,1,39,2,25,39,2,39,2,27,39,2,39,3,29,39,      41P     78
3,39,3;                                                               41P     79
406,1,5HBody1;                                                        43P     80
314,14.9019607843137,14.9019607843137,16.4705882352941,11HABS (W      45P     81
hite);                                                                45P     82
314,62.7450980392157,62.7450980392157,62.7450980392157,13HSteel       47P     83
- Satin;                                                              47P     84
S      1G      2D     48P     84                                        T      1
