                                                                        S      1
,,5Hvinyl,5Hvinyl,7Hunknown,7Hunknown,32,38,7,99,15,,1.,2,2HMM,1,0.08,  G      1
15H20211012.212254,0.01,10000.,7Hunknown,7Hunknown,11,0,;               G      2
     186       1                                                00000000D      1
     186             -61       1       0                               0D      2
     514       2                                                00010000D      3
     514                       1       1                               0D      4
     510       3                                                00010000D      5
     510             -61       1       1                               0D      6
     510       4                                                00010000D      7
     510             -61       1       1                               0D      8
     510       5                                                00010000D      9
     510             -61       1       1                               0D     10
     510       6                                                00010000D     11
     510             -61       1       1                               0D     12
     510       7                                                00010000D     13
     510             -61       1       1                               0D     14
     508       8                                                00010000D     15
     508                       1       1                               0D     16
     508       9                                                00010000D     17
     508                       1       1                               0D     18
     508      10                                                00010000D     19
     508                       1       1                               0D     20
     508      11                                                00010000D     21
     508                       1       1                               0D     22
     508      12                                                00010000D     23
     508                       1       1                               0D     24
     508      13                                                00010000D     25
     508                       1       1                               0D     26
     508      14                                                00010000D     27
     508                       1       1                               0D     28
     126      15                                                00010000D     29
     126       0               9       0                               0D     30
     126      24                                                00010000D     31
     126       0               4       0                               0D     32
     126      28                                                00010000D     33
     126       0               9       0                               0D     34
     126      37                                                00010000D     35
     126       0               9       0                               0D     36
     126      46                                                00010000D     37
     126       0               9       0                               0D     38
     126      55                                                00010000D     39
     126       0               4       0                               0D     40
     126      59                                                00010000D     41
     126       0               9       0                               0D     42
     126      68                                                00010000D     43
     126       0               2       0                               0D     44
     128      70                                                00010000D     45
     128       0     -61      16       0                               0D     46
     128      86                                                00010000D     47
     128       0     -61       3       0                               0D     48
     128      89                                                00010000D     49
     128       0     -61      15       0                               0D     50
     128     104                                                00010000D     51
     128       0     -61       3       0                               0D     52
     128     107                                                00010000D     53
     128       0     -61      12       0                               0D     54
     502     119                                                00010000D     55
     502                       3       1                               0D     56
     504     122                                                00010001D     57
     504                       2       1                               0D     58
     406     124                                                00000000D     59
     406                       1      15                               0D     60
     314     125                                                00000200D     61
     314                       2       0                               0D     62
     314     127                                                00000200D     63
     314                       2       0                               0D     64
186,3,1,0,0,1,59;                                                      1P      1
514,5,5,1,7,1,9,1,11,1,13,1;                                           3P      2
510,45,1,1,15;                                                         5P      3
510,47,2,1,17,19;                                                      7P      4
510,49,1,1,21;                                                         9P      5
510,51,2,1,23,25;                                                     11P      6
510,53,1,1,27;                                                        13P      7
508,4,0,57,1,0,0,0,57,2,1,0,0,57,3,1,0,0,57,2,0,0;                    15P      8
508,1,0,57,3,0,0;                                                     17P      9
508,1,0,57,4,0,0;                                                     19P     10
508,4,0,57,5,1,0,0,57,6,1,0,0,57,1,1,0,0,57,6,0,0;                    21P     11
508,1,0,57,5,0,0;                                                     23P     12
508,1,0,57,7,1,0;                                                     25P     13
508,4,0,57,7,0,0,0,57,8,1,0,0,57,4,1,0,0,57,8,0,0;                    27P     14
126,8,2,0,1,0,0,-3.14159265358979,-3.14159265358979,                  29P     15
-3.14159265358979,-1.5707963267949,-1.5707963267949,0.,0.,            29P     16
1.5707963267949,1.5707963267949,3.14159265358979,                     29P     17
3.14159265358979,3.14159265358979,1.,0.707106781186548,1.,            29P     18
0.707106781186548,1.,0.707106781186548,1.,0.707106781186548,1.,       29P     19
-90.,1.,1.10218211923262D-14,-90.,1.,90.,5.51091059616309D-15,        29P     20
1.,90.,90.,1.,90.,90.,1.,0.,90.,1.,-90.,5.51091059616309D-15,1.,      29P     21
-90.,-90.,1.,-90.,-90.,1.,-1.10218211923262D-14,                      29P     22
-3.14159265358979,3.14159265358979,0.,0.,0.;                          29P     23
126,1,1,0,0,1,0,-0.00790063442666539,-0.00790063442666539,            31P     24
0.00790063442666525,0.00790063442666525,1.,1.,-90.,1.,0.,-89.,        31P     25
4.44089209850063D-15,0.,-0.00790063442666539,                         31P     26
0.00790063442666525,0.,0.,0.;                                         31P     27
126,8,2,0,1,0,0,-3.14159265358979,-3.14159265358979,                  33P     28
-3.14159265358979,-1.5707963267949,-1.5707963267949,0.,0.,            33P     29
1.5707963267949,1.5707963267949,3.14159265358979,                     33P     30
3.14159265358979,3.14159265358979,1.,0.707106781186548,1.,            33P     31
0.707106781186548,1.,0.707106781186548,1.,0.707106781186548,1.,       33P     32
-89.,0.,1.08993565124114D-14,-89.,0.,89.,5.44967825620572D-15,        33P     33
0.,89.,89.,0.,89.,89.,0.,0.,89.,0.,-89.,5.44967825620572D-15,0.,      33P     34
-89.,-89.,0.,-89.,-89.,0.,-1.08993565124114D-14,                      33P     35
-3.14159265358979,3.14159265358979,0.,0.,0.;                          33P     36
126,8,2,0,1,0,0,-3.14159265358979,-3.14159265358979,                  35P     37
-3.14159265358979,-1.5707963267949,-1.5707963267949,0.,0.,            35P     38
1.5707963267949,1.5707963267949,3.14159265358979,                     35P     39
3.14159265358979,3.14159265358979,1.,0.707106781186548,1.,            35P     40
0.707106781186548,1.,0.707106781186548,1.,0.707106781186548,1.,       35P     41
-3.5,0.,-4.28626379701574D-16,-3.5,0.,-3.5,2.14313189850787D-16,      35P     42
0.,-3.5,3.5,0.,-3.5,3.5,0.,0.,3.5,0.,3.5,2.14313189850787D-16,        35P     43
0.,3.5,-3.5,0.,3.5,-3.5,0.,4.28626379701574D-16,                      35P     44
-3.14159265358979,3.14159265358979,0.,0.,0.;                          35P     45
126,8,2,0,1,0,0,-3.14159265358979,-3.14159265358979,                  37P     46
-3.14159265358979,-1.5707963267949,-1.5707963267949,0.,0.,            37P     47
1.5707963267949,1.5707963267949,3.14159265358979,                     37P     48
3.14159265358979,3.14159265358979,1.,0.707106781186548,1.,            37P     49
0.707106781186548,1.,0.707106781186548,1.,0.707106781186548,1.,       37P     50
-89.,2.,-1.08993565124114D-14,-89.,2.,-89.,5.44967825620572D-15,      37P     51
2.,-89.,89.,2.,-89.,89.,2.,0.,89.,2.,89.,5.44967825620572D-15,        37P     52
2.,89.,-89.,2.,89.,-89.,2.,1.08993565124114D-14,                      37P     53
-3.14159265358979,3.14159265358979,0.,0.,0.;                          37P     54
126,1,1,0,0,1,0,-0.00790063442666525,-0.00790063442666525,            39P     55
0.00790063442666539,0.00790063442666539,1.,1.,-89.,2.,0.,-90.,        39P     56
0.999999999999996,0.,-0.00790063442666525,0.00790063442666539,        39P     57
0.,0.,0.;                                                             39P     58
126,8,2,0,1,0,0,-3.14159265358979,-3.14159265358979,                  41P     59
-3.14159265358979,-1.5707963267949,-1.5707963267949,0.,0.,            41P     60
1.5707963267949,1.5707963267949,3.14159265358979,                     41P     61
3.14159265358979,3.14159265358979,1.,0.707106781186548,1.,            41P     62
0.707106781186548,1.,0.707106781186548,1.,0.707106781186548,1.,       41P     63
-3.5,2.,-4.28626379701574D-16,-3.5,2.,-3.5,2.14313189850787D-16,      41P     64
2.,-3.5,3.5,2.,-3.5,3.5,2.,0.,3.5,2.,3.5,2.14313189850787D-16,        41P     65
2.,3.5,-3.5,2.,3.5,-3.5,2.,4.28626379701574D-16,                      41P     66
-3.14159265358979,3.14159265358979,0.,0.,0.;                          41P     67
126,1,1,0,0,1,0,-0.571428571428571,-0.571428571428571,0.,0.,1.,       43P     68
1.,-3.5,2.,0.,-3.5,0.,0.,-0.571428571428571,0.,0.,0.,0.;              43P     69
128,1,8,1,2,0,1,0,0,1,-0.00790063442666525,-0.00790063442666525,      45P     70
0.00790063442666539,0.00790063442666539,-3.14159265358979,            45P     71
-3.14159265358979,-3.14159265358979,-1.5707963267949,                 45P     72
-1.5707963267949,0.,0.,1.5707963267949,1.5707963267949,               45P     73
3.14159265358979,3.14159265358979,3.14159265358979,1.,1.,             45P     74
0.707106781186548,0.707106781186548,1.,1.,0.707106781186548,          45P     75
0.707106781186548,1.,1.,0.707106781186548,0.707106781186548,1.,       45P     76
1.,0.707106781186548,0.707106781186548,1.,1.,-90.,1.,0.,-89.,         45P     77
4.44089209850063D-15,0.,-90.,1.,90.,-89.,4.44089209850063D-15,        45P     78
89.,0.,1.,90.,0.,4.44089209850063D-15,89.,90.,1.,90.,89.,             45P     79
4.44089209850063D-15,89.,90.,1.,0.,89.,4.44089209850063D-15,0.,       45P     80
90.,1.,-90.,89.,4.44089209850063D-15,-89.,0.,1.,-90.,0.,              45P     81
4.44089209850063D-15,-89.,-90.,1.,-90.,-89.,                          45P     82
4.44089209850063D-15,-89.,-90.,1.,0.,-89.,4.44089209850063D-15,       45P     83
0.,-0.00790063442666525,0.00790063442666539,-3.14159265358979,        45P     84
3.14159265358979;                                                     45P     85
128,1,1,1,1,0,0,1,0,0,-8.901,-8.901,8.901,8.901,-8.901,-8.901,        47P     86
8.901,8.901,1.,1.,1.,1.,89.01,0.,89.01,-89.01,0.,89.01,89.01,0.,      47P     87
-89.01,-89.01,0.,-89.01,-8.901,8.901,-8.901,8.901;                    47P     88
128,1,8,1,2,0,1,0,0,1,-0.00790063442666539,-0.00790063442666539,      49P     89
0.00790063442666525,0.00790063442666525,-3.14159265358979,            49P     90
-3.14159265358979,-3.14159265358979,-1.5707963267949,                 49P     91
-1.5707963267949,0.,0.,1.5707963267949,1.5707963267949,               49P     92
3.14159265358979,3.14159265358979,3.14159265358979,1.,1.,             49P     93
0.707106781186548,0.707106781186548,1.,1.,0.707106781186548,          49P     94
0.707106781186548,1.,1.,0.707106781186548,0.707106781186548,1.,       49P     95
1.,0.707106781186548,0.707106781186548,1.,1.,-89.,2.,0.,-90.,         49P     96
0.999999999999996,0.,-89.,2.,89.,-90.,0.999999999999996,90.,0.,       49P     97
2.,89.,0.,0.999999999999996,90.,89.,2.,89.,90.,                       49P     98
0.999999999999996,90.,89.,2.,0.,90.,0.999999999999996,0.,89.,2.,      49P     99
-89.,90.,0.999999999999996,-90.,0.,2.,-89.,0.,0.999999999999996,      49P    100
-90.,-89.,2.,-89.,-90.,0.999999999999996,-90.,-89.,2.,0.,-90.,        49P    101
0.999999999999996,0.,-0.00790063442666539,0.00790063442666525,        49P    102
-3.14159265358979,3.14159265358979;                                   49P    103
128,1,1,1,1,0,0,1,0,0,-8.901,-8.901,8.901,8.901,-8.901,-8.901,        51P    104
8.901,8.901,1.,1.,1.,1.,-89.01,2.,89.01,89.01,2.,89.01,-89.01,        51P    105
2.,-89.01,89.01,2.,-89.01,-8.901,8.901,-8.901,8.901;                  51P    106
128,1,8,1,2,0,1,0,0,1,0.,0.,0.571428571428571,0.571428571428571,      53P    107
-3.14159265358979,-3.14159265358979,-3.14159265358979,                53P    108
-1.5707963267949,-1.5707963267949,0.,0.,1.5707963267949,              53P    109
1.5707963267949,3.14159265358979,3.14159265358979,                    53P    110
3.14159265358979,1.,1.,0.707106781186548,0.707106781186548,1.,        53P    111
1.,0.707106781186548,0.707106781186548,1.,1.,0.707106781186548,       53P    112
0.707106781186548,1.,1.,0.707106781186548,0.707106781186548,1.,       53P    113
1.,-3.5,0.,0.,-3.5,2.,0.,-3.5,0.,3.5,-3.5,2.,3.5,0.,0.,3.5,0.,        53P    114
2.,3.5,3.5,0.,3.5,3.5,2.,3.5,3.5,0.,0.,3.5,2.,0.,3.5,0.,-3.5,         53P    115
3.5,2.,-3.5,0.,0.,-3.5,0.,2.,-3.5,-3.5,0.,-3.5,-3.5,2.,-3.5,          53P    116
-3.5,0.,0.,-3.5,2.,0.,0.,0.571428571428571,-3.14159265358979,         53P    117
3.14159265358979;                                                     53P    118
502,5,-90.,1.,1.10218211923262D-14,-89.,0.,1.08993565124114D-14,      55P    119
-3.5,0.,4.28626379701574D-16,-89.,2.,-1.08993565124114D-14,-3.5,      55P    120
2.,4.28626379701574D-16;                                              55P    121
504,8,29,55,1,55,1,31,55,1,55,2,33,55,2,55,2,35,55,3,55,3,37,55,      57P    122
4,55,4,39,55,4,55,1,41,55,5,55,5,43,55,5,55,3;                        57P    123
406,1,5HBody1;                                                        59P    124
314,81.5686274509804,10.9803921568627,12.156862745098,11HABS (Wh      61P    125
ite);                                                                 61P    126
314,62.7450980392157,62.7450980392157,62.7450980392157,13HSteel       63P    127
- Satin;                                                              63P    128
S      1G      2D     64P    128                                        T      1
