                                                                        S      1
,,8Hpltr v18,8Hpltr v18,7Hunknown,7Hunknown,32,38,7,99,15,,1.,2,2HMM,1, G      1
0.08,15H20211012.212251,0.01,10000.,7Hunknown,7Hunknown,11,0,15H20180201G      2
.224457;                                                                G      3
     408       1                                       3        00000001D      1
     408       0               1       0                               0D      2
     124       2                                                00000000D      3
     124                       1       0                               0D      4
     308       3                                                00010200D      5
     308       0               1       0                               0D      6
     186       4                                                00010000D      7
     186            -117       1       0                               0D      8
     514       5                                                00010000D      9
     514                       1       1                               0D     10
     510       6                                                00010000D     11
     510            -117       1       1                               0D     12
     510       7                                                00010000D     13
     510            -117       1       1                               0D     14
     510       8                                                00010000D     15
     510            -117       1       1                               0D     16
     510       9                                                00010000D     17
     510            -117       1       1                               0D     18
     510      10                                                00010000D     19
     510            -117       1       1                               0D     20
     510      11                                                00010000D     21
     510            -117       1       1                               0D     22
     510      12                                                00010000D     23
     510            -117       1       1                               0D     24
     510      13                                                00010000D     25
     510            -117       1       1                               0D     26
     510      14                                                00010000D     27
     510            -117       1       1                               0D     28
     508      15                                                00010000D     29
     508                       2       1                               0D     30
     508      17                                                00010000D     31
     508                       2       1                               0D     32
     508      19                                                00010000D     33
     508                       1       1                               0D     34
     508      20                                                00010000D     35
     508                       2       1                               0D     36
     508      22                                                00010000D     37
     508                       2       1                               0D     38
     508      24                                                00010000D     39
     508                       1       1                               0D     40
     508      25                                                00010000D     41
     508                       1       1                               0D     42
     508      26                                                00010000D     43
     508                       2       1                               0D     44
     508      28                                                00010000D     45
     508                       1       1                               0D     46
     508      29                                                00010000D     47
     508                       2       1                               0D     48
     126      31                                                00010000D     49
     126       0               9       0                               0D     50
     126      40                                                00010000D     51
     126       0               4       0                               0D     52
     126      44                                                00010000D     53
     126       0              10       0                               0D     54
     126      54                                                00010000D     55
     126       0               6       0                               0D     56
     126      60                                                00010000D     57
     126       0               5       0                               0D     58
     126      65                                                00010000D     59
     126       0               4       0                               0D     60
     126      69                                                00010000D     61
     126       0              12       0                               0D     62
     126      81                                                00010000D     63
     126       0               7       0                               0D     64
     126      88                                                00010000D     65
     126       0              11       0                               0D     66
     126      99                                                00010000D     67
     126       0               5       0                               0D     68
     126     104                                                00010000D     69
     126       0              10       0                               0D     70
     126     114                                                00010000D     71
     126       0               6       0                               0D     72
     126     120                                                00010000D     73
     126       0               6       0                               0D     74
     126     126                                                00010000D     75
     126       0               4       0                               0D     76
     126     130                                                00010000D     77
     126       0               6       0                               0D     78
     126     136                                                00010000D     79
     126       0              12       0                               0D     80
     126     148                                                00010000D     81
     126       0              12       0                               0D     82
     126     160                                                00010000D     83
     126       0               5       0                               0D     84
     126     165                                                00010000D     85
     126       0               8       0                               0D     86
     126     173                                                00010000D     87
     126       0               8       0                               0D     88
     126     181                                                00010000D     89
     126       0               3       0                               0D     90
     128     184                                                00010000D     91
     128       0    -117      28       0                               0D     92
     128     212                                                00010000D     93
     128       0    -117      21       0                               0D     94
     128     233                                                00010000D     95
     128       0    -117       7       0                               0D     96
     128     240                                                00010000D     97
     128       0    -117      29       0                               0D     98
     128     269                                                00010000D     99
     128       0    -117      24       0                               0D    100
     128     293                                                00010000D    101
     128       0    -117       7       0                               0D    102
     128     300                                                00010000D    103
     128       0    -117      31       0                               0D    104
     128     331                                                00010000D    105
     128       0    -117       7       0                               0D    106
     128     338                                                00010000D    107
     128       0    -117      20       0                               0D    108
     502     358                                                00010000D    109
     502                      11       1                               0D    110
     504     369                                                00010001D    111
     504                       6       1                               0D    112
     406     375                                                00000000D    113
     406                       1      15                               0D    114
     406     376                                                00000000D    115
     406                       1      15                               0D    116
     314     377                                                00000200D    117
     314                       2       0                               0D    118
     314     379                                                00000200D    119
     314                       2       0                               0D    120
408,5,0.,0.,0.,1.,0,1,115;                                             1P      1
124,1.,0.,0.,0.,0.,1.,0.,-16.,0.,0.,1.,0.;                             3P      2
308,0,6Hplayer,1,7;                                                    5P      3
186,9,1,0,0,1,113;                                                     7P      4
514,9,11,1,13,1,15,1,17,1,19,1,21,1,23,1,25,1,27,1;                    9P      5
510,91,1,1,29;                                                        11P      6
510,93,1,1,31;                                                        13P      7
510,95,1,1,33;                                                        15P      8
510,97,1,1,35;                                                        17P      9
510,99,1,1,37;                                                        19P     10
510,101,2,1,39,41;                                                    21P     11
510,103,1,1,43;                                                       23P     12
510,105,1,1,45;                                                       25P     13
510,107,1,1,47;                                                       27P     14
508,6,0,111,1,1,0,0,111,2,1,0,0,111,3,1,0,0,111,4,1,0,0,111,2,0,      29P     15
0,0,111,5,1,0;                                                        29P     16
508,6,0,111,4,0,0,0,111,6,1,0,0,111,7,0,0,0,111,8,0,0,0,111,6,0,      31P     17
0,0,111,3,0,0;                                                        31P     18
508,2,0,111,1,0,0,0,111,5,0,0;                                        33P     19
508,6,0,111,9,1,0,0,111,10,1,0,0,111,11,1,0,0,111,12,1,0,0,111,       35P     20
10,0,0,0,111,13,1,0;                                                  35P     21
508,6,0,111,9,0,0,0,111,14,1,0,0,111,15,0,0,0,111,16,0,0,0,111,       37P     22
14,0,0,0,111,13,0,0;                                                  37P     23
508,2,0,111,12,0,0,0,111,11,0,0;                                      39P     24
508,1,0,111,17,1,0;                                                   41P     25
508,6,0,111,16,1,0,0,111,18,1,0,0,111,7,1,0,0,111,8,1,0,0,111,        43P     26
18,0,0,0,111,15,1,0;                                                  43P     27
508,2,0,111,19,0,0,0,111,20,0,0;                                      45P     28
508,5,0,111,19,1,0,0,111,21,1,0,0,111,17,0,0,0,111,21,0,0,0,111,      47P     29
20,1,0;                                                               47P     30
126,6,2,0,0,0,0,-3.14159265358979,-3.14159265358979,                  49P     31
-3.14159265358979,-1.5707963267949,-1.5707963267949,0.,0.,            49P     32
1.5707963267949,1.5707963267949,1.5707963267949,1.,                   49P     33
0.707106781186547,1.,0.707106781186547,1.,0.707106781186547,1.,       49P     34
79.4563213953971,3.,-9.73059296688964D-15,79.4563213953971,3.,        49P     35
-79.4563213953971,-4.86529648344482D-15,3.,-79.4563213953971,         49P     36
-79.4563213953971,3.,-79.4563213953971,-79.4563213953971,3.,0.,       49P     37
-79.4563213953971,3.,79.4563213953971,-4.86529648344482D-15,3.,       49P     38
79.4563213953971,-3.14159265358979,1.5707963267949,0.,0.,0.;          49P     39
126,2,2,0,0,0,0,-1.5707963267949,-1.5707963267949,                    51P     40
-1.5707963267949,0.,0.,0.,1.,0.707106781186546,1.,0.,3.,              51P     41
79.4563213953971,0.,2.99999999999999,99.4563213953971,0.,23.,         51P     42
99.4563213953971,-1.5707963267949,0.,0.,0.,0.;                        51P     43
126,6,2,0,0,0,0,-1.5707963267949,-1.5707963267949,                    53P     44
-1.5707963267949,0.,0.,1.5707963267949,1.5707963267949,               53P     45
3.14159265358979,3.14159265358979,3.14159265358979,1.,                53P     46
0.707106781186548,1.,0.707106781186548,1.,0.707106781186548,1.,       53P     47
-6.08994328259217D-15,23.,99.4563213953971,-99.4563213953971,         53P     48
23.,99.4563213953971,-99.4563213953971,23.,0.,-99.4563213953971,      53P     49
23.,-99.4563213953971,-6.08994328259217D-15,23.,                      53P     50
-99.4563213953971,99.456321395397,23.,-99.4563213953971,              53P     51
99.4563213953971,23.,-1.21798865651843D-14,-1.5707963267949,          53P     52
3.14159265358979,0.,0.,0.;                                            53P     53
126,2,2,0,0,0,0,-3.14159265358979,-3.14159265358979,                  55P     54
-3.14159265358979,-1.5707963267949,-1.5707963267949,                  55P     55
-1.5707963267949,1.,0.707106781186548,1.,99.4563213953971,23.,        55P     56
1.21798865651843D-14,99.456321395397,23.,99.4563213953971,            55P     57
-6.08994328259217D-15,23.,99.4563213953971,-3.14159265358979,         55P     58
-1.5707963267949,0.,0.,0.;                                            55P     59
126,2,2,0,0,0,0,1.5707963267949,1.5707963267949,1.5707963267949,      57P     60
3.14159265358979,3.14159265358979,3.14159265358979,1.,                57P     61
0.707106781186547,1.,-4.86529648344482D-15,3.,79.4563213953971,       57P     62
79.4563213953971,3.,79.4563213953971,79.4563213953971,3.,             57P     63
9.73059296688964D-15,1.5707963267949,3.14159265358979,0.,0.,0.;       57P     64
126,1,1,0,0,1,0,-0.201093301254209,-0.201093301254209,                59P     65
-0.081343949084808,-0.081343949084808,1.,1.,99.4563213953971,         59P     66
23.,0.,99.4563213953971,34.9098300562505,0.,-0.201093301254209,       59P     67
-0.081343949084808,0.,0.,0.;                                          59P     68
126,6,2,0,0,0,0,-1.5707963267949,-1.5707963267949,                    61P     69
-1.5707963267949,0.,0.,1.5707963267949,1.5707963267949,               61P     70
3.14159265358979,3.14159265358979,3.14159265358979,1.,                61P     71
0.707106781186548,1.,0.707106781186548,1.,0.707106781186548,1.,       61P     72
-6.08994328259217D-15,34.9098300562505,-99.4563213953971,             61P     73
-99.4563213953971,34.9098300562505,-99.4563213953971,                 61P     74
-99.4563213953971,34.9098300562505,0.,-99.4563213953971,              61P     75
34.9098300562505,99.4563213953971,-6.08994328259217D-15,              61P     76
34.9098300562505,99.4563213953971,99.456321395397,                    61P     77
34.9098300562505,99.4563213953971,99.4563213953971,                   61P     78
34.9098300562505,1.21798865651843D-14,-1.5707963267949,               61P     79
3.14159265358979,0.,0.,0.;                                            61P     80
126,2,2,0,0,0,0,-3.14159265358979,-3.14159265358979,                  63P     81
-3.14159265358979,-1.5707963267949,-1.5707963267949,                  63P     82
-1.5707963267949,1.,0.707106781186548,1.,99.4563213953971,            63P     83
34.9098300562505,-1.21798865651843D-14,99.456321395397,               63P     84
34.9098300562505,-99.4563213953971,-6.08994328259217D-15,             63P     85
34.9098300562505,-99.4563213953971,-3.14159265358979,                 63P     86
-1.5707963267949,0.,0.,0.;                                            63P     87
126,6,2,0,0,0,0,-3.14159265358979,-3.14159265358979,                  65P     88
-3.14159265358979,-1.5707963267949,-1.5707963267949,0.,0.,            65P     89
1.5707963267949,1.5707963267949,1.5707963267949,1.,                   65P     90
0.707106781186548,1.,0.707106781186548,1.,0.707106781186548,1.,       65P     91
90.0897582493976,42.6832815729997,-2.20656268152167D-14,              65P     92
90.0897582493975,42.6832815729997,-90.0897582493976,                  65P     93
-1.10328134076084D-14,42.6832815729997,-90.0897582493976,             65P     94
-90.0897582493976,42.6832815729997,-90.0897582493975,                 65P     95
-90.0897582493976,42.6832815729997,0.,-90.0897582493976,              65P     96
42.6832815729997,90.0897582493976,0.,42.6832815729997,                65P     97
90.0897582493976,-3.14159265358979,1.5707963267949,0.,0.,0.;          65P     98
126,2,2,0,0,0,0,1.10714871779409,1.10714871779409,                    67P     99
1.10714871779409,1.5707963267949,1.5707963267949,                     67P    100
1.5707963267949,1.,0.973248989467866,1.,0.,42.6832815729997,          67P    101
90.0897582493976,0.,43.,89.4563213953971,0.,43.,                      67P    102
88.7481174628977,1.10714871779409,1.5707963267949,0.,0.,0.;           67P    103
126,6,2,0,0,0,0,-1.5707963267949,-1.5707963267949,                    69P    104
-1.5707963267949,0.,0.,1.5707963267949,1.5707963267949,               69P    105
3.14159265358979,3.14159265358979,3.14159265358979,1.,                69P    106
0.707106781186548,1.,0.707106781186548,1.,0.707106781186548,1.,       69P    107
-5.43425489906455D-15,43.,88.7481174628977,-88.7481174628977,         69P    108
43.,88.7481174628977,-88.7481174628977,43.,0.,-88.7481174628977,      69P    109
43.,-88.7481174628977,-5.43425489906455D-15,43.,                      69P    110
-88.7481174628977,88.7481174628977,43.,-88.7481174628977,             69P    111
88.7481174628977,43.,-1.08685097981291D-14,-1.5707963267949,          69P    112
3.14159265358979,0.,0.,0.;                                            69P    113
126,2,2,0,0,0,0,-3.14159265358979,-3.14159265358979,                  71P    114
-3.14159265358979,-1.5707963267949,-1.5707963267949,                  71P    115
-1.5707963267949,1.,0.707106781186548,1.,88.7481174628977,43.,        71P    116
1.08685097981291D-14,88.7481174628977,43.,88.7481174628977,           71P    117
-5.43425489906455D-15,43.,88.7481174628977,-3.14159265358979,         71P    118
-1.5707963267949,0.,0.,0.;                                            71P    119
126,2,2,0,0,0,0,1.5707963267949,1.5707963267949,1.5707963267949,      73P    120
3.14159265358979,3.14159265358979,3.14159265358979,1.,                73P    121
0.707106781186547,1.,0.,42.6832815729997,90.0897582493976,            73P    122
90.0897582493976,42.6832815729997,90.0897582493976,                   73P    123
90.0897582493976,42.6832815729997,0.,1.5707963267949,                 73P    124
3.14159265358979,0.,0.,0.;                                            73P    125
126,1,1,0,0,1,0,-0.0516849051405894,-0.0516849051405894,              75P    126
0.0264672598198581,0.0264672598198581,1.,1.,90.0897582493975,         75P    127
42.6832815729998,0.,96.6923893728968,39.3819660112501,0.,             75P    128
-0.0516849051405894,0.0264672598198581,0.,0.,0.;                      75P    129
126,2,2,0,0,0,0,1.5707963267949,1.5707963267949,1.5707963267949,      77P    130
3.14159265358979,3.14159265358979,3.14159265358979,1.,                77P    131
0.707106781186548,1.,9.62862088281941D-15,39.3819660112501,           77P    132
-96.6923893728968,96.6923893728968,39.3819660112501,                  77P    133
-96.6923893728968,96.6923893728968,39.3819660112501,                  77P    134
-2.36828050294855D-14,1.5707963267949,3.14159265358979,0.,0.,0.;      77P    135
126,6,2,0,0,0,0,-3.14159265358979,-3.14159265358979,                  79P    136
-3.14159265358979,-1.5707963267949,-1.5707963267949,                  79P    137
1.48029736616688D-16,1.48029736616688D-16,1.5707963267949,            79P    138
1.5707963267949,1.5707963267949,1.,0.707106781186547,1.,              79P    139
0.707106781186548,1.,0.707106781186547,1.,96.6923893728968,           79P    140
39.3819660112501,0.,96.6923893728968,39.3819660112501,                79P    141
96.6923893728968,0.,39.3819660112501,96.6923893728968,                79P    142
-96.6923893728968,39.3819660112501,96.6923893728968,                  79P    143
-96.6923893728968,39.3819660112501,-1.43133489317081D-14,             79P    144
-96.6923893728968,39.3819660112501,-96.6923893728969,                 79P    145
9.62862088281941D-15,39.3819660112501,-96.6923893728968,              79P    146
-3.14159265358979,1.5707963267949,0.,0.,0.;                           79P    147
126,8,2,0,1,0,0,-3.14159265358979,-3.14159265358979,                  81P    148
-3.14159265358979,-1.5707963267949,-1.5707963267949,0.,0.,            81P    149
1.5707963267949,1.5707963267949,3.14159265358979,                     81P    150
3.14159265358979,3.14159265358979,1.,0.707106781186548,1.,            81P    151
0.707106781186548,1.,0.707106781186548,1.,0.707106781186548,1.,       81P    152
87.5000000001361,43.,-3.11891081747777D-10,87.5000000001361,43.,      81P    153
87.4999999998242,-5.3578297463162D-15,43.,87.4999999998242,           81P    154
-87.5000000001361,43.,87.4999999998242,-87.5000000001361,43.,         81P    155
-3.1190179740727D-10,-87.5000000001361,43.,-87.500000000448,          81P    156
-5.3578297463162D-15,43.,-87.500000000448,87.5000000001361,43.,       81P    157
-87.500000000448,87.5000000001361,43.,-3.11912513066763D-10,          81P    158
-3.14159265358979,3.14159265358979,0.,0.,0.;                          81P    159
126,2,2,0,0,0,0,-1.10714871779409,-1.10714871779409,                  83P    160
-1.10714871779409,0.,0.,0.,1.,0.850650808352037,1.,0.,                83P    161
39.3819660112501,-96.6923893728968,0.,38.,-99.4563213953971,0.,       83P    162
34.9098300562505,-99.4563213953971,-1.10714871779409,0.,0.,0.,        83P    163
0.;                                                                   83P    164
126,4,2,0,0,0,0,-1.22464679914887D-16,-1.22464679914887D-16,          85P    165
-1.22464679914887D-16,1.5707963267949,1.5707963267949,                85P    166
3.14159265358979,3.14159265358979,3.14159265358979,1.,                85P    167
0.707106781186547,1.,0.707106781186548,1.,-87.5000000001361,10.,      85P    168
-3.11891081747777D-10,-87.5000000001361,10.,-87.500000000448,         85P    169
-5.3578297463162D-15,10.,-87.500000000448,87.5000000001361,10.,       85P    170
-87.500000000448,87.5000000001361,10.,-3.11912513066763D-10,          85P    171
-1.22464679914887D-16,3.14159265358979,0.,0.,0.;                      85P    172
126,4,2,0,0,0,0,3.14159265358979,3.14159265358979,                    87P    173
3.14159265358979,4.71238898038469,4.71238898038469,                   87P    174
6.28318530717959,6.28318530717959,6.28318530717959,1.,                87P    175
0.707106781186548,1.,0.707106781186548,1.,87.5000000001361,10.,       87P    176
-3.11912513066763D-10,87.5000000001361,10.,87.4999999998242,          87P    177
1.60734892387958D-14,10.,87.4999999998242,-87.5000000001361,10.,      87P    178
87.4999999998242,-87.5000000001361,10.,-3.11880366088285D-10,         87P    179
3.14159265358979,6.28318530717959,0.,0.,0.;                           87P    180
126,1,1,0,0,1,0,-0.37714285714227,-0.37714285714227,0.,0.,1.,1.,      89P    181
87.5000000001361,10.,-3.1190179740727D-10,87.5000000001361,43.,       89P    182
-3.1190179740727D-10,-0.37714285714227,0.,0.,0.,0.;                   89P    183
128,2,8,2,2,0,1,0,0,1,0.,0.,0.,1.5707963267949,1.5707963267949,       91P    184
1.5707963267949,-3.14159265358979,-3.14159265358979,                  91P    185
-3.14159265358979,-1.5707963267949,-1.5707963267949,0.,0.,            91P    186
1.5707963267949,1.5707963267949,3.14159265358979,                     91P    187
3.14159265358979,3.14159265358979,1.,0.707106781186546,1.,            91P    188
0.707106781186548,0.499999999999999,0.707106781186548,1.,             91P    189
0.707106781186546,1.,0.707106781186548,0.499999999999999,             91P    190
0.707106781186548,1.,0.707106781186546,1.,0.707106781186548,          91P    191
0.499999999999999,0.707106781186548,1.,0.707106781186546,1.,          91P    192
0.707106781186548,0.499999999999999,0.707106781186548,1.,             91P    193
0.707106781186546,1.,0.,3.,79.4563213953971,0.,2.99999999999999,      91P    194
99.4563213953971,0.,23.,99.4563213953971,-79.456321395397,3.,         91P    195
79.456321395397,-99.456321395397,2.99999999999999,                    91P    196
99.456321395397,-99.456321395397,23.,99.456321395397,                 91P    197
-79.4563213953971,3.,0.,-99.4563213953971,2.99999999999999,0.,        91P    198
-99.4563213953971,23.,0.,-79.456321395397,3.,-79.456321395397,        91P    199
-99.456321395397,2.99999999999999,-99.456321395397,                   91P    200
-99.456321395397,23.,-99.456321395397,0.,3.,-79.4563213953971,        91P    201
0.,2.99999999999999,-99.4563213953971,0.,23.,-99.4563213953971,       91P    202
79.456321395397,3.,-79.456321395397,99.456321395397,                  91P    203
2.99999999999999,-99.456321395397,99.456321395397,23.,                91P    204
-99.456321395397,79.4563213953971,3.,0.,99.4563213953971,             91P    205
2.99999999999999,0.,99.4563213953971,23.,0.,79.456321395397,3.,       91P    206
79.456321395397,99.456321395397,2.99999999999999,                     91P    207
99.456321395397,99.456321395397,23.,99.456321395397,0.,3.,            91P    208
79.4563213953971,0.,2.99999999999999,99.4563213953971,0.,23.,         91P    209
99.4563213953971,0.,1.5707963267949,-3.14159265358979,                91P    210
3.14159265358979;                                                     91P    211
128,1,8,1,2,0,1,0,0,1,0.081343949084808,0.081343949084808,            93P    212
0.201093301254209,0.201093301254209,-3.14159265358979,                93P    213
-3.14159265358979,-3.14159265358979,-1.5707963267949,                 93P    214
-1.5707963267949,0.,0.,1.5707963267949,1.5707963267949,               93P    215
3.14159265358979,3.14159265358979,3.14159265358979,1.,1.,             93P    216
0.707106781186548,0.707106781186548,1.,1.,0.707106781186548,          93P    217
0.707106781186548,1.,1.,0.707106781186548,0.707106781186548,1.,       93P    218
1.,0.707106781186548,0.707106781186548,1.,1.,99.4563213953971,        93P    219
23.,0.,99.4563213953971,34.9098300562505,0.,99.456321395397,23.,      93P    220
99.456321395397,99.456321395397,34.9098300562505,                     93P    221
99.456321395397,0.,23.,99.4563213953971,0.,34.9098300562505,          93P    222
99.4563213953971,-99.456321395397,23.,99.456321395397,                93P    223
-99.456321395397,34.9098300562505,99.456321395397,                    93P    224
-99.4563213953971,23.,0.,-99.4563213953971,34.9098300562505,0.,       93P    225
-99.456321395397,23.,-99.456321395397,-99.456321395397,               93P    226
34.9098300562505,-99.456321395397,0.,23.,-99.4563213953971,0.,        93P    227
34.9098300562505,-99.4563213953971,99.456321395397,23.,               93P    228
-99.456321395397,99.456321395397,34.9098300562505,                    93P    229
-99.456321395397,99.4563213953971,23.,0.,99.4563213953971,            93P    230
34.9098300562505,0.,0.081343949084808,0.201093301254209,              93P    231
-3.14159265358979,3.14159265358979;                                   93P    232
128,1,1,1,1,0,0,1,0,0,-7.94663213953971,-7.94663213953971,            95P    233
7.94663213953971,7.94663213953971,-7.94663213953971,                  95P    234
-7.94663213953971,7.94663213953971,7.94663213953971,1.,1.,1.,1.,      95P    235
-79.4663213953971,3.,-79.4663213953971,79.4663213953971,3.,           95P    236
-79.4663213953971,-79.4663213953971,3.,79.4663213953971,              95P    237
79.4663213953971,3.,79.4663213953971,-7.94663213953971,               95P    238
7.94663213953971,-7.94663213953971,7.94663213953971;                  95P    239
128,2,8,2,2,0,1,0,0,1,-1.5707963267949,-1.5707963267949,              97P    240
-1.5707963267949,-1.10714871779409,-1.10714871779409,                 97P    241
-1.10714871779409,-3.14159265358979,-3.14159265358979,                97P    242
-3.14159265358979,-1.5707963267949,-1.5707963267949,0.,0.,            97P    243
1.5707963267949,1.5707963267949,3.14159265358979,                     97P    244
3.14159265358979,3.14159265358979,1.,0.973248989467866,1.,            97P    245
0.707106781186548,0.688190960235683,0.707106781186548,1.,             97P    246
0.973248989467866,1.,0.707106781186548,0.688190960235683,             97P    247
0.707106781186548,1.,0.973248989467866,1.,0.707106781186548,          97P    248
0.688190960235683,0.707106781186548,1.,0.973248989467866,1.,          97P    249
0.707106781186548,0.688190960235683,0.707106781186548,1.,             97P    250
0.973248989467866,1.,0.,42.6832815729997,90.0897582493976,0.,         97P    251
43.,89.4563213953971,0.,43.,88.7481174628977,-90.0897582493975,       97P    252
42.6832815729997,90.0897582493975,-89.456321395397,43.,               97P    253
89.456321395397,-88.7481174628977,43.,88.7481174628977,               97P    254
-90.0897582493976,42.6832815729997,0.,-89.4563213953971,43.,0.,       97P    255
-88.7481174628977,43.,0.,-90.0897582493975,42.6832815729997,          97P    256
-90.0897582493975,-89.456321395397,43.,-89.456321395397,              97P    257
-88.7481174628977,43.,-88.7481174628977,0.,42.6832815729997,          97P    258
-90.0897582493976,0.,43.,-89.4563213953971,0.,43.,                    97P    259
-88.7481174628977,90.0897582493975,42.6832815729997,                  97P    260
-90.0897582493975,89.456321395397,43.,-89.456321395397,               97P    261
88.7481174628977,43.,-88.7481174628977,90.0897582493976,              97P    262
42.6832815729997,0.,89.4563213953971,43.,0.,88.7481174628977,         97P    263
43.,0.,90.0897582493975,42.6832815729997,90.0897582493975,            97P    264
89.456321395397,43.,89.456321395397,88.7481174628977,43.,             97P    265
88.7481174628977,0.,42.6832815729997,90.0897582493976,0.,43.,         97P    266
89.4563213953971,0.,43.,88.7481174628977,-1.5707963267949,            97P    267
-1.10714871779409,-3.14159265358979,3.14159265358979;                 97P    268
128,1,8,1,2,0,1,0,0,1,-0.0264672598198581,-0.0264672598198581,        99P    269
0.0516849051405894,0.0516849051405894,-3.14159265358979,              99P    270
-3.14159265358979,-3.14159265358979,-1.5707963267949,                 99P    271
-1.5707963267949,0.,0.,1.5707963267949,1.5707963267949,               99P    272
3.14159265358979,3.14159265358979,3.14159265358979,1.,1.,             99P    273
0.707106781186548,0.707106781186548,1.,1.,0.707106781186548,          99P    274
0.707106781186548,1.,1.,0.707106781186548,0.707106781186548,1.,       99P    275
1.,0.707106781186548,0.707106781186548,1.,1.,90.0897582493975,        99P    276
42.6832815729998,0.,96.6923893728968,39.3819660112501,0.,             99P    277
90.0897582493975,42.6832815729998,-90.0897582493975,                  99P    278
96.6923893728968,39.3819660112501,-96.6923893728968,0.,               99P    279
42.6832815729998,-90.0897582493975,0.,39.3819660112501,               99P    280
-96.6923893728968,-90.0897582493975,42.6832815729998,                 99P    281
-90.0897582493975,-96.6923893728968,39.3819660112501,                 99P    282
-96.6923893728968,-90.0897582493975,42.6832815729998,0.,              99P    283
-96.6923893728968,39.3819660112501,0.,-90.0897582493975,              99P    284
42.6832815729998,90.0897582493975,-96.6923893728968,                  99P    285
39.3819660112501,96.6923893728968,0.,42.6832815729998,                99P    286
90.0897582493975,0.,39.3819660112501,96.6923893728968,                99P    287
90.0897582493975,42.6832815729998,90.0897582493975,                   99P    288
96.6923893728968,39.3819660112501,96.6923893728968,                   99P    289
90.0897582493975,42.6832815729998,0.,96.6923893728968,                99P    290
39.3819660112501,0.,-0.0264672598198581,0.0516849051405894,           99P    291
-3.14159265358979,3.14159265358979;                                   99P    292
128,1,1,1,1,0,0,1,0,0,-8.87581174628977,-8.87581174628977,           101P    293
8.87581174628977,8.87581174628977,-8.87581174628977,                 101P    294
-8.87581174628977,8.87581174628977,8.87581174628977,1.,1.,1.,1.,     101P    295
88.7581174628977,43.,-88.7581174628977,-88.7581174628977,43.,        101P    296
-88.7581174628977,88.7581174628977,43.,88.7581174628977,             101P    297
-88.7581174628977,43.,88.7581174628977,-8.87581174628977,            101P    298
8.87581174628977,-8.87581174628977,8.87581174628977;                 101P    299
128,2,8,2,2,0,1,0,0,1,0.,0.,0.,1.10714871779409,                     103P    300
1.10714871779409,1.10714871779409,-3.14159265358979,                 103P    301
-3.14159265358979,-3.14159265358979,-1.5707963267949,                103P    302
-1.5707963267949,0.,0.,1.5707963267949,1.5707963267949,              103P    303
3.14159265358979,3.14159265358979,3.14159265358979,1.,               103P    304
0.850650808352037,1.,0.707106781186548,0.601500955007544,            103P    305
0.707106781186548,1.,0.850650808352037,1.,0.707106781186548,         103P    306
0.601500955007544,0.707106781186548,1.,0.850650808352037,1.,         103P    307
0.707106781186548,0.601500955007544,0.707106781186548,1.,            103P    308
0.850650808352037,1.,0.707106781186548,0.601500955007544,            103P    309
0.707106781186548,1.,0.850650808352037,1.,0.,39.3819660112501,       103P    310
-96.6923893728968,0.,38.,-99.4563213953971,0.,34.9098300562505,      103P    311
-99.4563213953971,-96.6923893728968,39.3819660112501,                103P    312
-96.6923893728968,-99.456321395397,38.,-99.456321395397,             103P    313
-99.456321395397,34.9098300562505,-99.456321395397,                  103P    314
-96.6923893728968,39.3819660112501,0.,-99.4563213953971,38.,0.,      103P    315
-99.4563213953971,34.9098300562505,0.,-96.6923893728968,             103P    316
39.3819660112501,96.6923893728968,-99.456321395397,38.,              103P    317
99.456321395397,-99.456321395397,34.9098300562505,                   103P    318
99.456321395397,0.,39.3819660112501,96.6923893728968,0.,38.,         103P    319
99.4563213953971,0.,34.9098300562505,99.4563213953971,               103P    320
96.6923893728968,39.3819660112501,96.6923893728968,                  103P    321
99.456321395397,38.,99.456321395397,99.456321395397,                 103P    322
34.9098300562505,99.456321395397,96.6923893728968,                   103P    323
39.3819660112501,0.,99.4563213953971,38.,0.,99.4563213953971,        103P    324
34.9098300562505,0.,96.6923893728968,39.3819660112501,               103P    325
-96.6923893728968,99.456321395397,38.,-99.456321395397,              103P    326
99.456321395397,34.9098300562505,-99.456321395397,0.,                103P    327
39.3819660112501,-96.6923893728968,0.,38.,-99.4563213953971,0.,      103P    328
34.9098300562505,-99.4563213953971,0.,1.10714871779409,              103P    329
-3.14159265358979,3.14159265358979;                                  103P    330
128,1,1,1,1,0,0,1,0,0,-8.75100000001361,-8.75100000001361,           105P    331
8.75100000001361,8.75100000001361,-8.75100000001361,                 105P    332
-8.75100000001361,8.75100000001361,8.75100000001361,1.,1.,1.,1.,     105P    333
-87.5100000001361,10.,87.5099999998242,87.5100000001361,10.,         105P    334
87.5099999998242,-87.5100000001361,10.,-87.510000000448,             105P    335
87.5100000001361,10.,-87.510000000448,-8.75100000001361,             105P    336
8.75100000001361,-8.75100000001361,8.75100000001361;                 105P    337
128,1,8,1,2,0,1,0,0,1,0.,0.,0.37714285714227,0.37714285714227,       107P    338
-3.14159265358979,-3.14159265358979,-3.14159265358979,               107P    339
-1.5707963267949,-1.5707963267949,0.,0.,1.5707963267949,             107P    340
1.5707963267949,3.14159265358979,3.14159265358979,                   107P    341
3.14159265358979,1.,1.,0.707106781186548,0.707106781186548,1.,       107P    342
1.,0.707106781186548,0.707106781186548,1.,1.,0.707106781186548,      107P    343
0.707106781186548,1.,1.,0.707106781186548,0.707106781186548,1.,      107P    344
1.,87.5000000001361,43.,-3.1190179740727D-10,87.5000000001361,       107P    345
10.,-3.1190179740727D-10,87.5000000001361,43.,87.4999999998242,      107P    346
87.5000000001361,10.,87.4999999998242,-3.819665746805D-26,43.,       107P    347
87.4999999998242,-3.819665746805D-26,10.,87.4999999998242,           107P    348
-87.5000000001361,43.,87.4999999998242,-87.5000000001361,10.,        107P    349
87.4999999998242,-87.5000000001361,43.,-3.1190179740727D-10,         107P    350
-87.5000000001361,10.,-3.1190179740727D-10,-87.5000000001361,        107P    351
43.,-87.500000000448,-87.5000000001361,10.,-87.500000000448,         107P    352
-3.819665746805D-26,43.,-87.500000000448,-3.819665746805D-26,        107P    353
10.,-87.500000000448,87.5000000001361,43.,-87.500000000448,          107P    354
87.5000000001361,10.,-87.500000000448,87.5000000001361,43.,          107P    355
-3.1190179740727D-10,87.5000000001361,10.,-3.1190179740727D-10,      107P    356
0.,0.37714285714227,-3.14159265358979,3.14159265358979;              107P    357
502,15,79.4563213953971,3.,-9.73059296688964D-15,0.,3.,              109P    358
79.4563213953971,0.,23.,99.4563213953971,99.4563213953971,23.,       109P    359
1.21798865651843D-14,99.4563213953971,34.9098300562505,              109P    360
-1.21798865651843D-14,0.,34.9098300562505,-99.4563213953971,         109P    361
90.0897582493976,42.6832815729997,-2.20656268152167D-14,0.,          109P    362
42.6832815729997,90.0897582493976,0.,43.,88.7481174628977,           109P    363
88.7481174628977,43.,1.08685097981291D-14,96.6923893728968,          109P    364
39.3819660112501,0.,0.,39.3819660112501,-96.6923893728968,           109P    365
87.5000000001361,43.,-3.11912513066763D-10,-87.5000000001361,        109P    366
10.,-3.11891081747777D-10,87.5000000001361,10.,                      109P    367
-3.1190179740727D-10;                                                109P    368
504,21,49,109,1,109,2,51,109,2,109,3,53,109,3,109,4,55,109,4,        111P    369
109,3,57,109,2,109,1,59,109,4,109,5,61,109,6,109,5,63,109,5,109,     111P    370
6,65,109,7,109,8,67,109,8,109,9,69,109,9,109,10,71,109,10,109,9,     111P    371
73,109,8,109,7,75,109,7,109,11,77,109,12,109,11,79,109,11,109,       111P    372
12,81,109,13,109,13,83,109,12,109,6,85,109,14,109,15,87,109,15,      111P    373
109,14,89,109,15,109,13;                                             111P    374
406,1,5HBody1;                                                       113P    375
406,1,8Hplayer:1;                                                    115P    376
314,94.9019607843137,94.1176470588235,92.156862745098,11HABS (Wh     117P    377
ite);                                                                117P    378
314,62.7450980392157,62.7450980392157,62.7450980392157,13HSteel      119P    379
- Satin;                                                             119P    380
S      1G      3D    120P    380                                        T      1
