                                                                        S      1
,,2HAC,2HAC,7Hunknown,7Hunknown,32,38,7,99,15,,1.,6,1HM,1,0.08,15H202110G      1
12.212349,1D-5,10000.,7Hunknown,7Hunknown,11,0,;                        G      2
     186       1                                                00000000D      1
     186             -71       1       0                               0D      2
     514       2                                                00010000D      3
     514                       1       1                               0D      4
     510       3                                                00010000D      5
     510             -71       1       1                               0D      6
     510       4                                                00010000D      7
     510             -71       1       1                               0D      8
     510       5                                                00010000D      9
     510             -71       1       1                               0D     10
     510       6                                                00010000D     11
     510             -71       1       1                               0D     12
     510       7                                                00010000D     13
     510             -71       1       1                               0D     14
     510       8                                                00010000D     15
     510             -71       1       1                               0D     16
     508       9                                                00010000D     17
     508                       1       1                               0D     18
     508      10                                                00010000D     19
     508                       1       1                               0D     20
     508      11                                                00010000D     21
     508                       1       1                               0D     22
     508      12                                                00010000D     23
     508                       1       1                               0D     24
     508      13                                                00010000D     25
     508                       1       1                               0D     26
     508      14                                                00010000D     27
     508                       1       1                               0D     28
     126      15                                                00010000D     29
     126       0               2       0                               0D     30
     126      17                                                00010000D     31
     126       0               2       0                               0D     32
     126      19                                                00010000D     33
     126       0               2       0                               0D     34
     126      21                                                00010000D     35
     126       0               2       0                               0D     36
     126      23                                                00010000D     37
     126       0               2       0                               0D     38
     126      25                                                00010000D     39
     126       0               2       0                               0D     40
     126      27                                                00010000D     41
     126       0               2       0                               0D     42
     126      29                                                00010000D     43
     126       0               2       0                               0D     44
     126      31                                                00010000D     45
     126       0               2       0                               0D     46
     126      33                                                00010000D     47
     126       0               2       0                               0D     48
     126      35                                                00010000D     49
     126       0               2       0                               0D     50
     126      37                                                00010000D     51
     126       0               2       0                               0D     52
     128      39                                                00010000D     53
     128       0     -71       4       0                               0D     54
     128      43                                                00010000D     55
     128       0     -71       5       0                               0D     56
     128      48                                                00010000D     57
     128       0     -71       4       0                               0D     58
     128      52                                                00010000D     59
     128       0     -71       4       0                               0D     60
     128      56                                                00010000D     61
     128       0     -71       4       0                               0D     62
     128      60                                                00010000D     63
     128       0     -71       4       0                               0D     64
     502      64                                                00010000D     65
     502                       2       1                               0D     66
     504      66                                                00010001D     67
     504                       3       1                               0D     68
     406      69                                                00000000D     69
     406                       1      15                               0D     70
     314      70                                                00000200D     71
     314                       2       0                               0D     72
     314      72                                                00000200D     73
     314                       2       0                               0D     74
186,3,1,0,0,1,69;                                                      1P      1
514,6,5,1,7,1,9,1,11,1,13,1,15,1;                                      3P      2
510,53,1,1,17;                                                         5P      3
510,55,1,1,19;                                                         7P      4
510,57,1,1,21;                                                         9P      5
510,59,1,1,23;                                                        11P      6
510,61,1,1,25;                                                        13P      7
510,63,1,1,27;                                                        15P      8
508,4,0,67,1,0,0,0,67,2,1,0,0,67,3,0,0,0,67,4,0,0;                    17P      9
508,4,0,67,5,0,0,0,67,4,1,0,0,67,6,0,0,0,67,7,0,0;                    19P     10
508,4,0,67,8,0,0,0,67,7,1,0,0,67,9,0,0,0,67,10,0,0;                   21P     11
508,4,0,67,11,0,0,0,67,10,1,0,0,67,12,0,0,0,67,2,0,0;                 23P     12
508,4,0,67,12,1,0,0,67,9,1,0,0,67,6,1,0,0,67,3,1,0;                   25P     13
508,4,0,67,11,1,0,0,67,1,1,0,0,67,5,1,0,0,67,8,1,0;                   27P     14
126,1,1,0,0,1,0,0.,0.,40.,40.,1.,1.,3.5,-0.3,4.1,3.5,-0.3,4.5,        29P     15
0.,40.,0.,0.,0.;                                                      29P     16
126,1,1,0,0,1,0,0.,0.,76.5,76.5,1.,1.,3.5,-0.3,4.1,3.5,0.465,         31P     17
4.1,0.,76.5,0.,0.,0.;                                                 31P     18
126,1,1,0,0,1,0,-40.,-40.,0.,0.,1.,1.,3.5,0.465,4.5,3.5,0.465,        33P     19
4.1,-40.,0.,0.,0.,0.;                                                 33P     20
126,1,1,0,0,1,0,0.,0.,76.5,76.5,1.,1.,3.5,-0.3,4.5,3.5,0.465,         35P     21
4.5,0.,76.5,0.,0.,0.;                                                 35P     22
126,1,1,0,0,1,0,0.,0.,46.5,46.5,1.,1.,3.5,-0.3,4.5,3.035,-0.3,        37P     23
4.5,0.,46.5,0.,0.,0.;                                                 37P     24
126,1,1,0,0,1,0,-46.5,-46.5,0.,0.,1.,1.,3.035,0.465,4.5,3.5,          39P     25
0.465,4.5,-46.5,0.,0.,0.,0.;                                          39P     26
126,1,1,0,0,1,0,0.,0.,76.5,76.5,1.,1.,3.035,-0.3,4.5,3.035,           41P     27
0.465,4.5,0.,76.5,0.,0.,0.;                                           41P     28
126,1,1,0,0,1,0,0.,0.,40.,40.,1.,1.,3.035,-0.3,4.5,3.035,-0.3,        43P     29
4.1,0.,40.,0.,0.,0.;                                                  43P     30
126,1,1,0,0,1,0,-40.,-40.,0.,0.,1.,1.,3.035,0.465,4.1,3.035,          45P     31
0.465,4.5,-40.,0.,0.,0.,0.;                                           45P     32
126,1,1,0,0,1,0,0.,0.,76.5,76.5,1.,1.,3.035,-0.3,4.1,3.035,           47P     33
0.465,4.1,0.,76.5,0.,0.,0.;                                           47P     34
126,1,1,0,0,1,0,0.,0.,46.5,46.5,1.,1.,3.035,-0.3,4.1,3.5,-0.3,        49P     35
4.1,0.,46.5,0.,0.,0.;                                                 49P     36
126,1,1,0,0,1,0,-46.5,-46.5,0.,0.,1.,1.,3.5,0.465,4.1,3.035,          51P     37
0.465,4.1,-46.5,0.,0.,0.,0.;                                          51P     38
128,1,1,1,1,0,0,1,0,0,-0.001,-0.001,40.001,40.001,-0.001,-0.001,      53P     39
76.501,76.501,1.,1.,1.,1.,3.5,-0.30001,4.50001,3.5,-0.30001,          53P     40
4.09999,3.5,0.46501,4.50001,3.5,0.46501,4.09999,-0.001,40.001,        53P     41
-0.001,76.501;                                                        53P     42
128,1,1,1,1,0,0,1,0,0,-0.00100000000000937,-0.00100000000000937,      55P     43
46.501,46.501,-0.00100000000000711,-0.00100000000000711,76.501,       55P     44
76.501,1.,1.,1.,1.,3.03499,-0.30001,4.5,3.50001,-0.30001,4.5,         55P     45
3.03499,0.46501,4.5,3.50001,0.46501,4.5,-0.00100000000000937,         55P     46
46.501,-0.00100000000000711,76.501;                                   55P     47
128,1,1,1,1,0,0,1,0,0,-0.001,-0.001,40.001,40.001,-0.001,-0.001,      57P     48
76.501,76.501,1.,1.,1.,1.,3.035,-0.30001,4.09999,3.035,-0.30001,      57P     49
4.50001,3.035,0.46501,4.09999,3.035,0.46501,4.50001,-0.001,           57P     50
40.001,-0.001,76.501;                                                 57P     51
128,1,1,1,1,0,0,1,0,0,-0.001,-0.001,46.501,46.501,-0.001,-0.001,      59P     52
76.501,76.501,1.,1.,1.,1.,3.50001,-0.30001,4.1,3.03499,-0.30001,      59P     53
4.1,3.50001,0.46501,4.1,3.03499,0.46501,4.1,-0.001,46.501,            59P     54
-0.001,76.501;                                                        59P     55
128,1,1,1,1,0,0,1,0,0,-20.001,-20.001,20.001,20.001,-23.251,          61P     56
-23.251,23.251,23.251,1.,1.,1.,1.,3.03499,0.465,4.09999,3.03499,      61P     57
0.465,4.50001,3.50001,0.465,4.09999,3.50001,0.465,4.50001,            61P     58
-20.001,20.001,-23.251,23.251;                                        61P     59
128,1,1,1,1,0,0,1,0,0,-23.251,-23.251,23.251,23.251,-20.001,          63P     60
-20.001,20.001,20.001,1.,1.,1.,1.,3.03499,-0.3,4.09999,3.50001,       63P     61
-0.3,4.09999,3.03499,-0.3,4.50001,3.50001,-0.3,4.50001,-23.251,       63P     62
23.251,-20.001,20.001;                                                63P     63
502,8,3.5,-0.3,4.1,3.5,-0.3,4.5,3.5,0.465,4.1,3.5,0.465,4.5,          65P     64
3.035,-0.3,4.5,3.035,0.465,4.5,3.035,-0.3,4.1,3.035,0.465,4.1;        65P     65
504,12,29,65,1,65,2,31,65,1,65,3,33,65,4,65,3,35,65,2,65,4,37,        67P     66
65,2,65,5,39,65,6,65,4,41,65,5,65,6,43,65,5,65,7,45,65,8,65,6,        67P     67
47,65,7,65,8,49,65,7,65,1,51,65,3,65,8;                               67P     68
406,1,5HBody1;                                                        69P     69
314,96.4705882352941,96.4705882352941,95.2941176470588,11HABS (W      71P     70
hite);                                                                71P     71
314,62.7450980392157,62.7450980392157,62.7450980392157,13HSteel       73P     72
- Satin;                                                              73P     73
S      1G      2D     74P     73                                        T      1
