                                                                        S      1
,,5Hbed 2,5Hbed 2,7Hunknown,7Hunknown,32,38,7,99,15,,1.,6,1HM,1,0.08,15HG      1
20211012.212347,1D-5,10000.,7Hunknown,7Hunknown,11,0,;                  G      2
     186       1                                                00000000D      1
     186             -71       1       0                               0D      2
     514       2                                                00010000D      3
     514                       1       1                               0D      4
     510       3                                                00010000D      5
     510             -71       1       1                               0D      6
     510       4                                                00010000D      7
     510             -71       1       1                               0D      8
     510       5                                                00010000D      9
     510             -71       1       1                               0D     10
     510       6                                                00010000D     11
     510             -71       1       1                               0D     12
     510       7                                                00010000D     13
     510             -71       1       1                               0D     14
     510       8                                                00010000D     15
     510             -71       1       1                               0D     16
     508       9                                                00010000D     17
     508                       1       1                               0D     18
     508      10                                                00010000D     19
     508                       1       1                               0D     20
     508      11                                                00010000D     21
     508                       1       1                               0D     22
     508      12                                                00010000D     23
     508                       1       1                               0D     24
     508      13                                                00010000D     25
     508                       1       1                               0D     26
     508      14                                                00010000D     27
     508                       1       1                               0D     28
     126      15                                                00010000D     29
     126       0               3       0                               0D     30
     126      18                                                00010000D     31
     126       0               3       0                               0D     32
     126      21                                                00010000D     33
     126       0               3       0                               0D     34
     126      24                                                00010000D     35
     126       0               3       0                               0D     36
     126      27                                                00010000D     37
     126       0               2       0                               0D     38
     126      29                                                00010000D     39
     126       0               3       0                               0D     40
     126      32                                                00010000D     41
     126       0               2       0                               0D     42
     126      34                                                00010000D     43
     126       0               2       0                               0D     44
     126      36                                                00010000D     45
     126       0               3       0                               0D     46
     126      39                                                00010000D     47
     126       0               3       0                               0D     48
     126      42                                                00010000D     49
     126       0               2       0                               0D     50
     126      44                                                00010000D     51
     126       0               3       0                               0D     52
     128      47                                                00010000D     53
     128       0     -71       4       0                               0D     54
     128      51                                                00010000D     55
     128       0     -71       6       0                               0D     56
     128      57                                                00010000D     57
     128       0     -71       5       0                               0D     58
     128      62                                                00010000D     59
     128       0     -71       5       0                               0D     60
     128      67                                                00010000D     61
     128       0     -71       6       0                               0D     62
     128      73                                                00010000D     63
     128       0     -71       6       0                               0D     64
     502      79                                                00010000D     65
     502                       6       1                               0D     66
     504      85                                                00010001D     67
     504                       3       1                               0D     68
     406      88                                                00000000D     69
     406                       1      15                               0D     70
     314      89                                                00000200D     71
     314                       2       0                               0D     72
186,3,1,0,0,1,69;                                                      1P      1
514,6,5,1,7,1,9,1,11,1,13,1,15,1;                                      3P      2
510,53,1,1,17;                                                         5P      3
510,55,1,1,19;                                                         7P      4
510,57,1,1,21;                                                         9P      5
510,59,1,1,23;                                                        11P      6
510,61,1,1,25;                                                        13P      7
510,63,1,1,27;                                                        15P      8
508,4,0,67,1,0,0,0,67,2,0,0,0,67,3,0,0,0,67,4,0,0;                    17P      9
508,4,0,67,2,1,0,0,67,5,1,0,0,67,6,0,0,0,67,7,0,0;                    19P     10
508,4,0,67,1,1,0,0,67,8,1,0,0,67,9,0,0,0,67,5,0,0;                    21P     11
508,4,0,67,3,1,0,0,67,7,1,0,0,67,10,0,0,0,67,11,0,0;                  23P     12
508,4,0,67,4,1,0,0,67,11,1,0,0,67,12,0,0,0,67,8,0,0;                  25P     13
508,4,0,67,9,1,0,0,67,12,1,0,0,67,10,1,0,0,67,6,1,0;                  27P     14
126,1,1,0,0,1,0,-22.75,-22.75,68.25,68.25,1.,1.,2.909,0.25,           29P     15
2.74100000000005,2.909,0.25,3.65100000000005,-22.75,68.25,0.,0.,      29P     16
0.;                                                                   29P     17
126,1,1,0,0,1,0,-47.5,-47.5,142.5,142.5,1.,1.,1.009,0.25,             31P     18
2.74100000000005,2.909,0.25,2.74100000000005,-47.5,142.5,0.,0.,       31P     19
0.;                                                                   31P     20
126,1,1,0,0,1,0,-22.75,-22.75,68.25,68.25,1.,1.,1.009,0.25,           33P     21
3.65100000000005,1.009,0.25,2.74100000000005,-22.75,68.25,0.,0.,      33P     22
0.;                                                                   33P     23
126,1,1,0,0,1,0,-47.5,-47.5,142.5,142.5,1.,1.,2.909,0.25,             35P     24
3.65100000000005,1.009,0.25,3.65100000000005,-47.5,142.5,0.,0.,       35P     25
0.;                                                                   35P     26
126,1,1,0,0,1,0,55.,55.,80.,80.,1.,1.,2.909,0.25,                     37P     27
2.74100000000005,2.909,0.,2.74100000000005,55.,80.,0.,0.,0.;          37P     28
126,1,1,0,0,1,0,0.,0.,190.,190.,1.,1.,1.009,                          39P     29
1.13545126192974D-50,2.74100000000005,2.909,                          39P     30
2.10773773113736D-31,2.74100000000005,0.,190.,0.,0.,0.;               39P     31
126,1,1,0,0,1,0,55.,55.,80.,80.,1.,1.,1.009,0.25,                     41P     32
2.74100000000005,1.009,0.,2.74100000000005,55.,80.,0.,0.,0.;          41P     33
126,1,1,0,0,1,0,55.,55.,80.,80.,1.,1.,2.909,0.25,                     43P     34
3.65100000000005,2.909,0.,3.65100000000005,55.,80.,0.,0.,0.;          43P     35
126,1,1,0,0,1,0,0.,0.,91.,91.,1.,1.,2.909,1.13545126192974D-50,       45P     36
2.74100000000005,2.909,5.38397567813424D-31,3.65100000000005,0.,      45P     37
91.,0.,0.,0.;                                                         45P     38
126,1,1,0,0,1,0,0.,0.,91.,91.,1.,1.,1.009,1.51241610992538D-50,       47P     39
3.65100000000005,1.009,-5.38397567813424D-31,2.74100000000005,        47P     40
0.,91.,0.,0.,0.;                                                      47P     41
126,1,1,0,0,1,0,55.,55.,80.,80.,1.,1.,1.009,0.25,                     49P     42
3.65100000000005,1.009,0.,3.65100000000005,55.,80.,0.,0.,0.;          49P     43
126,1,1,0,0,1,0,0.,0.,190.,190.,1.,1.,2.909,                          51P     44
1.51241610992538D-50,3.65100000000005,1.009,                          51P     45
-2.10773773113736D-31,3.65100000000005,0.,190.,0.,0.,0.;              51P     46
128,1,1,1,1,0,0,1,0,0,-45.501,-45.501,45.501,45.501,-95.001,          53P     47
-95.001,95.001,95.001,1.,1.,1.,1.,1.00899,0.25,2.74099000000005,      53P     48
1.00899,0.25,3.65101000000005,2.90901,0.25,2.74099000000005,          53P     49
2.90901,0.25,3.65101000000005,-45.501,45.501,-95.001,95.001;          53P     50
128,1,1,1,1,0,0,1,0,0,-0.001,-0.001,190.001,190.001,54.999,           55P     51
54.999,80.001,80.001,1.,1.,1.,1.,1.00899,0.25001,                     55P     52
2.74100000000005,2.90901,0.25001,2.74100000000005,1.00899,            55P     53
-1.00000000000477D-5,2.74100000000005,2.90901,                        55P     54
-1.00000000000477D-5,2.74100000000005,-0.001,190.001,54.999,          55P     55
80.001;                                                               55P     56
128,1,1,1,1,0,0,1,0,0,-0.001,-0.001,91.001,91.001,54.999,54.999,      57P     57
80.001,80.001,1.,1.,1.,1.,2.909,0.25001,2.74099000000005,2.909,       57P     58
0.25001,3.65101000000005,2.909,-1.00000000000477D-5,                  57P     59
2.74099000000005,2.909,-1.00000000000477D-5,3.65101000000005,         57P     60
-0.001,91.001,54.999,80.001;                                          57P     61
128,1,1,1,1,0,0,1,0,0,-0.001,-0.001,91.001,91.001,54.999,54.999,      59P     62
80.001,80.001,1.,1.,1.,1.,1.009,0.25001,3.65101000000005,1.009,       59P     63
0.25001,2.74099000000005,1.009,-1.00000000000477D-5,                  59P     64
3.65101000000005,1.009,-1.00000000000477D-5,2.74099000000005,         59P     65
-0.001,91.001,54.999,80.001;                                          59P     66
128,1,1,1,1,0,0,1,0,0,-0.001,-0.001,190.001,190.001,54.999,           61P     67
54.999,80.001,80.001,1.,1.,1.,1.,2.90901,0.25001,                     61P     68
3.65100000000005,1.00899,0.25001,3.65100000000005,2.90901,            61P     69
-1.00000000000477D-5,3.65100000000005,1.00899,                        61P     70
-1.00000000000477D-5,3.65100000000005,-0.001,190.001,54.999,          61P     71
80.001;                                                               61P     72
128,1,1,1,1,0,0,1,0,0,-45.501,-45.501,45.501,45.501,-95.001,          63P     73
-95.001,95.001,95.001,1.,1.,1.,1.,1.00899,1.51242025239624D-50,       63P     74
3.65101000000005,1.00899,1.13544711945888D-50,2.74099000000005,       63P     75
2.90901,1.51242025239624D-50,3.65101000000005,2.90901,                63P     76
1.13544711945888D-50,2.74099000000005,-45.501,45.501,-95.001,         63P     77
95.001;                                                               63P     78
502,8,2.909,0.25,2.74100000000005,2.909,0.25,3.65100000000005,        65P     79
1.009,0.25,2.74100000000005,1.009,0.25,3.65100000000005,2.909,        65P     80
1.13545126192974D-50,2.74100000000005,1.009,                          65P     81
1.13545126192974D-50,2.74100000000005,2.909,                          65P     82
1.51241610992538D-50,3.65100000000005,1.009,                          65P     83
1.51241610992538D-50,3.65100000000005;                                65P     84
504,12,29,65,1,65,2,31,65,3,65,1,33,65,4,65,3,35,65,2,65,4,37,        67P     85
65,1,65,5,39,65,6,65,5,41,65,3,65,6,43,65,2,65,7,45,65,5,65,7,        67P     86
47,65,8,65,6,49,65,4,65,8,51,65,7,65,8;                               67P     87
406,1,5HBody1;                                                        69P     88
314,62.7450980392157,62.7450980392157,62.7450980392157,13HSteel       71P     89
- Satin;                                                              71P     90
S      1G      2D     72P     90                                        T      1
