                                                                        S      1
,,7Hbracket,7Hbracket,7Hunknown,7Hunknown,32,38,7,99,15,,1.,2,2HMM,1,   G      1
0.08,15H20211012.211950,0.01,10000.,7Hunknown,7Hunknown,11,0,;          G      2
     186       1                                                00000000D      1
     186            -107       1       0                               0D      2
     514       2                                                00010000D      3
     514                       1       1                               0D      4
     510       3                                                00010000D      5
     510            -107       1       1                               0D      6
     510       4                                                00010000D      7
     510            -107       1       1                               0D      8
     510       5                                                00010000D      9
     510            -107       1       1                               0D     10
     510       6                                                00010000D     11
     510            -107       1       1                               0D     12
     510       7                                                00010000D     13
     510            -107       1       1                               0D     14
     510       8                                                00010000D     15
     510            -107       1       1                               0D     16
     510       9                                                00010000D     17
     510            -107       1       1                               0D     18
     510      10                                                00010000D     19
     510            -107       1       1                               0D     20
     510      11                                                00010000D     21
     510            -107       1       1                               0D     22
     508      12                                                00010000D     23
     508                       1       1                               0D     24
     508      13                                                00010000D     25
     508                       2       1                               0D     26
     508      15                                                00010000D     27
     508                       2       1                               0D     28
     508      17                                                00010000D     29
     508                       1       1                               0D     30
     508      18                                                00010000D     31
     508                       1       1                               0D     32
     508      19                                                00010000D     33
     508                       1       1                               0D     34
     508      20                                                00010000D     35
     508                       1       1                               0D     36
     508      21                                                00010000D     37
     508                       2       1                               0D     38
     508      23                                                00010000D     39
     508                       2       1                               0D     40
     126      25                                                00010000D     41
     126       0              13       0                               0D     42
     126      38                                                00010000D     43
     126       0              10       0                               0D     44
     126      48                                                00010000D     45
     126       0              13       0                               0D     46
     126      61                                                00010000D     47
     126       0              10       0                               0D     48
     126      71                                                00010000D     49
     126       0               3       0                               0D     50
     126      74                                                00010000D     51
     126       0               2       0                               0D     52
     126      76                                                00010000D     53
     126       0               3       0                               0D     54
     126      79                                                00010000D     55
     126       0               2       0                               0D     56
     126      81                                                00010000D     57
     126       0               4       0                               0D     58
     126      85                                                00010000D     59
     126       0               5       0                               0D     60
     126      90                                                00010000D     61
     126       0               4       0                               0D     62
     126      94                                                00010000D     63
     126       0               4       0                               0D     64
     126      98                                                00010000D     65
     126       0               4       0                               0D     66
     126     102                                                00010000D     67
     126       0               2       0                               0D     68
     126     104                                                00010000D     69
     126       0               2       0                               0D     70
     126     106                                                00010000D     71
     126       0               4       0                               0D     72
     126     110                                                00010000D     73
     126       0               2       0                               0D     74
     126     112                                                00010000D     75
     126       0               5       0                               0D     76
     126     117                                                00010000D     77
     126       0              10       0                               0D     78
     126     127                                                00010000D     79
     126       0               2       0                               0D     80
     126     129                                                00010000D     81
     126       0               4       0                               0D     82
     128     133                                                00010000D     83
     128       0    -107      26       0                               0D     84
     128     159                                                00010000D     85
     128       0    -107       5       0                               0D     86
     128     164                                                00010000D     87
     128       0    -107       3       0                               0D     88
     128     167                                                00010000D     89
     128       0    -107       6       0                               0D     90
     128     173                                                00010000D     91
     128       0    -107       5       0                               0D     92
     128     178                                                00010000D     93
     128       0    -107       7       0                               0D     94
     128     185                                                00010000D     95
     128       0    -107      17       0                               0D     96
     128     202                                                00010000D     97
     128       0    -107       5       0                               0D     98
     128     207                                                00010000D     99
     128       0    -107       3       0                               0D    100
     502     210                                                00010000D    101
     502                       6       1                               0D    102
     504     216                                                00010001D    103
     504                       6       1                               0D    104
     406     222                                                00000000D    105
     406                       1      15                               0D    106
     314     223                                                00000200D    107
     314                       2       0                               0D    108
186,3,1,0,0,1,105;                                                     1P      1
514,9,5,1,7,1,9,1,11,1,13,1,15,1,17,1,19,1,21,1;                       3P      2
510,83,1,1,23;                                                         5P      3
510,85,1,1,25;                                                         7P      4
510,87,1,1,27;                                                         9P      5
510,89,1,1,29;                                                        11P      6
510,91,1,1,31;                                                        13P      7
510,93,1,1,33;                                                        15P      8
510,95,1,1,35;                                                        17P      9
510,97,1,1,37;                                                        19P     10
510,99,1,1,39;                                                        21P     11
508,4,0,103,1,1,0,0,103,2,1,0,0,103,3,1,0,0,103,4,1,0;                23P     12
508,5,0,103,1,0,0,0,103,5,1,0,0,103,6,1,0,0,103,7,0,0,0,103,8,0,      25P     13
0;                                                                    25P     14
508,6,0,103,4,0,0,0,103,9,0,0,0,103,10,0,0,0,103,11,0,0,0,103,        27P     15
12,0,0,0,103,5,0,0;                                                   27P     16
508,4,0,103,13,1,0,0,103,14,1,0,0,103,10,1,0,0,103,15,1,0;            29P     17
508,4,0,103,14,0,0,0,103,16,0,0,0,103,17,0,0,0,103,11,1,0;            31P     18
508,4,0,103,12,1,0,0,103,17,1,0,0,103,18,1,0,0,103,6,0,0;             33P     19
508,4,0,103,2,0,0,0,103,8,1,0,0,103,19,0,0,0,103,20,0,0;              35P     20
508,5,0,103,3,0,0,0,103,20,1,0,0,103,21,0,0,0,103,15,0,0,0,103,       37P     21
9,1,0;                                                                37P     22
508,6,0,103,13,0,0,0,103,21,1,0,0,103,19,1,0,0,103,7,1,0,0,103,       39P     23
18,0,0,0,103,16,1,0;                                                  39P     24
126,9,3,0,0,1,0,0.113511995409309,0.113511995409309,                  41P     25
0.113511995409309,0.113511995409309,0.143734958461384,                41P     26
0.143734958461384,0.173893150048798,0.173893150048798,                41P     27
0.202676522010137,0.202676522010137,0.229463168226809,                41P     28
0.229463168226809,0.229463168226809,0.229463168226809,1.,1.,1.,       41P     29
1.,1.,1.,1.,1.,1.,1.,2.46714486497439,0.5,-2.5,2.56788807514797,      41P     30
0.5,-2.5,2.68660184143881,0.477155271430884,-2.5,                     41P     31
2.87388721109435,0.403439528821055,-2.5,2.97617056275887,             41P     32
0.339483447879196,-2.5,3.11983495580514,0.205462027164697,-2.5,       41P     33
3.18809346851961,0.112744739319088,-2.5,3.26414936183249,             41P     34
-0.0561543764808077,-2.5,3.28756443470179,-0.160711179277758,         41P     35
-2.5,3.28756443470179,-0.25,-2.5,0.113511995409309,                   41P     36
0.229463168226809,0.,0.,0.;                                           41P     37
126,6,2,0,0,0,0,-2.0943951023932,-2.0943951023932,                    43P     38
-2.0943951023932,-0.698131700797732,-0.698131700797732,               43P     39
0.698131700797732,0.698131700797732,2.0943951023932,                  43P     40
2.0943951023932,2.0943951023932,1.,0.766044443118979,1.,              43P     41
0.76604444311898,1.,0.766044443118978,1.,3.28756443470179,-0.25,      43P     42
-2.5,2.70019469287769,-0.25,-3.51735423566795,3.60009734643884,       43P     43
-0.25,-4.27246222036657,4.5,-0.25,-5.02757020506519,                  43P     44
5.39990265356115,-0.25,-4.27246222036657,6.29980530712231,-0.25,      43P     45
-3.51735423566795,5.71243556529821,-0.25,-2.5,-2.0943951023932,       43P     46
2.0943951023932,0.,0.,0.;                                             43P     47
126,9,3,0,0,1,0,0.229463168226809,0.229463168226809,                  45P     48
0.229463168226809,0.229463168226809,0.256249814443482,                45P     49
0.256249814443482,0.285033186404821,0.285033186404821,                45P     50
0.315191377992235,0.315191377992235,0.345414341044309,                45P     51
0.345414341044309,0.345414341044309,0.345414341044309,1.,1.,1.,       45P     52
1.,1.,1.,1.,1.,1.,1.,5.71243556529821,-0.25,-2.5,                     45P     53
5.71243556529821,-0.160711179277758,-2.5,5.73585063816751,            45P     54
-0.0561543764808077,-2.5,5.81190653148039,0.112744739319088,          45P     55
-2.5,5.88016504419486,0.205462027164697,-2.5,6.02382943724112,        45P     56
0.339483447879196,-2.5,6.12611278890565,0.403439528821055,-2.5,       45P     57
6.31339815856119,0.477155271430884,-2.5,6.43211192485203,0.5,         45P     58
-2.5,6.53285513502561,0.5,-2.5,0.229463168226809,                     45P     59
0.345414341044309,0.,0.,0.;                                           45P     60
126,6,2,0,0,0,0,-1.90242288854846,-1.90242288854846,                  47P     61
-1.90242288854846,-0.634140962849487,-0.634140962849487,              47P     62
0.634140962849487,0.634140962849487,1.90242288854846,                 47P     63
1.90242288854846,1.90242288854846,1.,0.805580960883245,1.,            47P     64
0.805580960883246,1.,0.805580960883244,1.,6.53285513502561,0.5,       47P     65
-2.5,7.04768854903819,0.5,-3.99511678479748,5.7738442745191,0.5,      47P     66
-4.93199906589897,4.5,0.5,-5.86888134700047,3.2261557254809,0.5,      47P     67
-4.93199906589897,1.95231145096181,0.5,-3.99511678479748,             47P     68
2.46714486497439,0.5,-2.5,-1.90242288854846,1.90242288854846,0.,      47P     69
0.,0.;                                                                47P     70
126,1,1,0,0,1,0,0.903285530638897,0.903285530638897,                  49P     71
1.17000001713634,1.17000001713634,1.,1.,2.46714486497439,0.5,         49P     72
-2.5,-0.2,0.5,-2.5,0.903285530638897,1.17000001713634,0.,0.,0.;       49P     73
126,1,1,0,0,1,0,0.,0.,0.9,0.9,1.,1.,-0.2,0.5,-2.5,-0.2,-8.5,          51P     74
-2.5,0.,0.9,0.,0.,0.;                                                 51P     75
126,1,1,0,0,1,0,0.821243573666157,0.821243573666157,                  53P     76
1.17000001713634,1.17000001713634,1.,1.,3.28756443470179,-8.5,        53P     77
-2.5,-0.2,-8.5,-2.5,0.821243573666157,1.17000001713634,0.,0.,0.;      53P     78
126,1,1,0,0,1,0,0.075,0.075,0.9,0.9,1.,1.,3.28756443470179,           55P     79
-0.25,-2.5,3.28756443470179,-8.5,-2.5,0.075,0.9,0.,0.,0.;             55P     80
126,1,1,0,0,1,0,0.230000017136335,0.230000017136335,                  57P     81
0.496714503633774,0.496714503633774,1.,1.,9.2,0.5,-2.5,               57P     82
6.53285513502561,0.5,-2.5,0.230000017136335,0.496714503633774,        57P     83
0.,0.,0.;                                                             57P     84
126,2,2,0,0,0,0,4.78745947146141,4.78745947146141,                    59P     85
4.78745947146141,6.28318530717959,6.28318530717959,                   59P     86
6.28318530717959,1.,0.73314391493076,1.,5.21126586496417,0.5,         59P     87
-6.2,8.92171622313704,0.5,-6.2,9.2,0.5,-2.5,4.78745947146141,         59P     88
6.28318530717959,0.,0.,0.;                                            59P     89
126,1,1,0,0,1,0,0.398873413503583,0.398873413503583,                  61P     90
0.541126586496417,0.541126586496417,1.,1.,3.78873413503583,0.5,       61P     91
-6.2,5.21126586496417,0.5,-6.2,0.398873413503583,                     61P     92
0.541126586496417,0.,0.,0.;                                           61P     93
126,2,2,0,0,0,0,0.,0.,0.,1.49572583571818,1.49572583571818,           63P     94
1.49572583571818,1.,0.733143914930758,1.,-0.2,0.5,-2.5,               63P     95
0.0782837768629636,0.5,-6.2,3.78873413503583,0.5,-6.2,0.,             63P     96
1.49572583571818,0.,0.,0.;                                            63P     97
126,2,2,0,0,0,0,0.,0.,0.,1.49572583571818,1.49572583571818,           65P     98
1.49572583571818,1.,0.73314391493076,1.,9.2,-8.5,-2.5,                65P     99
8.92171622313704,-8.5,-6.2,5.21126586496417,-8.5,-6.2,0.,             65P    100
1.49572583571818,0.,0.,0.;                                            65P    101
126,1,1,0,0,1,0,-2.25,-2.25,0.,0.,1.,1.,5.21126586496417,-8.5,        67P    102
-6.2,5.21126586496417,0.5,-6.2,-2.25,0.,0.,0.,0.;                     67P    103
126,1,1,0,0,1,0,0.,0.,0.9,0.9,1.,1.,9.2,0.5,-2.5,9.2,-8.5,-2.5,       69P    104
0.,0.9,0.,0.,0.;                                                      69P    105
126,1,1,0,0,1,0,0.398873413503583,0.398873413503583,                  71P    106
0.541126586496417,0.541126586496417,1.,1.,3.78873413503583,-8.5,      71P    107
-6.2,5.21126586496417,-8.5,-6.2,0.398873413503583,                    71P    108
0.541126586496417,0.,0.,0.;                                           71P    109
126,1,1,0,0,1,0,0.,0.,2.25,2.25,1.,1.,3.78873413503583,0.5,-6.2,      73P    110
3.78873413503583,-8.5,-6.2,0.,2.25,0.,0.,0.;                          73P    111
126,2,2,0,0,0,0,4.78745947146141,4.78745947146141,                    75P    112
4.78745947146141,6.28318530717959,6.28318530717959,                   75P    113
6.28318530717959,1.,0.73314391493076,1.,3.78873413503583,-8.5,        75P    114
-6.2,0.0782837768629643,-8.5,-6.2,-0.2,-8.5,-2.5,                     75P    115
4.78745947146141,6.28318530717959,0.,0.,0.;                           75P    116
126,6,2,0,0,0,0,2.61799387799149,2.61799387799149,                    77P    117
2.61799387799149,4.01425727958696,4.01425727958696,                   77P    118
5.41052068118242,5.41052068118242,6.80678408277789,                   77P    119
6.80678408277789,6.80678408277789,1.,0.766044443118978,1.,            77P    120
0.766044443118979,1.,0.766044443118979,1.,5.71243556529821,-8.5,      77P    121
-2.5,6.29980530712231,-8.5,-3.51735423566795,5.39990265356115,        77P    122
-8.5,-4.27246222036657,4.5,-8.5,-5.02757020506519,                    77P    123
3.60009734643884,-8.5,-4.27246222036657,2.70019469287769,-8.5,        77P    124
-3.51735423566795,3.28756443470179,-8.5,-2.5,2.61799387799149,        77P    125
6.80678408277789,0.,0.,0.;                                            77P    126
126,1,1,0,0,1,0,0.075,0.075,0.9,0.9,1.,1.,5.71243556529821,           79P    127
-0.25,-2.5,5.71243556529821,-8.5,-2.5,0.075,0.9,0.,0.,0.;             79P    128
126,1,1,0,0,1,0,0.230000017136335,0.230000017136335,                  81P    129
0.578756460606514,0.578756460606514,1.,1.,9.2,-8.5,-2.5,              81P    130
5.71243556529821,-8.5,-2.5,0.230000017136335,0.578756460606514,       81P    131
0.,0.,0.;                                                             81P    132
128,2,6,2,2,0,0,0,0,0,1.57079632679489,1.57079632679489,              83P    133
1.57079632679489,3.14159265358979,3.14159265358979,                   83P    134
3.14159265358979,-5.23598775598299,-5.23598775598299,                 83P    135
-5.23598775598299,-3.83972435438753,-3.83972435438753,                83P    136
-2.44346095279206,-2.44346095279206,-1.0471975511966,                 83P    137
-1.0471975511966,-1.0471975511966,1.,0.707106781186547,1.,            83P    138
0.766044443118978,0.541675220419701,0.766044443118978,1.,             83P    139
0.707106781186547,1.,0.766044443118978,0.541675220419701,             83P    140
0.766044443118978,1.,0.707106781186547,1.,0.766044443118978,          83P    141
0.541675220419701,0.766044443118978,1.,0.707106781186547,1.,          83P    142
5.71243556529821,-0.25,-2.5,5.71243556529821,0.500000000000001,       83P    143
-2.5,6.36195461813654,0.5,-2.125,6.29980530712231,-0.25,              83P    144
-3.51735423566795,6.29980530712231,0.500000000000001,                 83P    145
-3.51735423566795,7.26398672165212,0.5,-3.68736543334721,             83P    146
5.39990265356115,-0.25,-4.27246222036657,5.39990265356115,            83P    147
0.500000000000001,-4.27246222036657,5.88199336082606,0.5,             83P    148
-4.8469955527058,4.5,-0.25,-5.02757020506519,4.5,                     83P    149
0.500000000000001,-5.02757020506519,4.5,0.5,-6.0066256720644,         83P    150
3.60009734643885,-0.25,-4.27246222036657,3.60009734643885,            83P    151
0.500000000000001,-4.27246222036657,3.11800663917394,0.5,             83P    152
-4.84699555270581,2.70019469287769,-0.25,-3.51735423566795,           83P    153
2.70019469287769,0.500000000000001,-3.51735423566795,                 83P    154
1.73601327834788,0.5,-3.68736543334721,3.28756443470179,-0.25,        83P    155
-2.5,3.28756443470179,0.500000000000001,-2.5,2.63804538186345,        83P    156
0.5,-2.125,1.57079632679489,3.14159265358979,-5.23598775598299,       83P    157
-1.0471975511966;                                                     83P    158
128,1,1,1,1,0,0,1,0,0,-0.001,-0.001,0.349756443470179,                85P    159
0.349756443470179,-0.001,-0.001,0.901,0.901,1.,1.,1.,1.,              85P    160
3.29756443470179,0.51,-2.5,-0.21,0.51,-2.5,3.29756443470179,          85P    161
-8.51,-2.5,-0.21,-8.51,-2.5,-0.001,0.349756443470179,-0.001,          85P    162
0.901;                                                                85P    163
128,1,1,1,1,0,0,1,0,0,-0.471,-0.471,0.471,0.471,-0.186,-0.186,        87P    164
0.186,0.186,1.,1.,1.,1.,9.21,0.5,-6.21,-0.21,0.5,-6.21,9.21,0.5,      87P    165
-2.49,-0.21,0.5,-2.49,-0.471,0.471,-0.186,0.186;                      87P    166
128,1,2,1,2,0,0,0,0,0,0.,0.,2.25,2.25,0.,0.,0.,1.49572583571818,      89P    167
1.49572583571818,1.49572583571818,1.,1.,0.733143914930759,            89P    168
0.733143914930759,1.,1.,9.2,0.5,-2.5,9.2,-8.5,-2.5,                   89P    169
8.92171622313704,0.5,-6.2,8.92171622313704,-8.5,-6.2,                 89P    170
5.21126586496417,0.5,-6.2,5.21126586496417,-8.5,-6.2,0.,2.25,0.,      89P    171
1.49572583571818;                                                     89P    172
128,1,1,1,1,0,0,1,0,0,0.397873413503583,0.397873413503583,            91P    173
0.542126586496417,0.542126586496417,-0.001,-0.001,0.901,0.901,        91P    174
1.,1.,1.,1.,3.77873413503583,0.51,-6.2,5.22126586496417,0.51,         91P    175
-6.2,3.77873413503583,-8.51,-6.2,5.22126586496417,-8.51,-6.2,         91P    176
0.397873413503583,0.542126586496417,-0.001,0.901;                     91P    177
128,1,2,1,2,0,0,0,0,0,-2.25,-2.25,0.,0.,-8.67361737988403D-18,        93P    178
-8.67361737988403D-18,-8.67361737988403D-18,1.49572583571818,         93P    179
1.49572583571818,1.49572583571818,1.,1.,0.733143914930759,            93P    180
0.733143914930759,1.,1.,-0.2,-8.5,-2.5,-0.2,0.5,-2.5,                 93P    181
0.0782837768629635,-8.5,-6.2,0.0782837768629635,0.5,-6.2,             93P    182
3.78873413503583,-8.5,-6.2,3.78873413503583,0.5,-6.2,-2.25,0.,        93P    183
-8.67361737988403D-18,1.49572583571818;                               93P    184
128,1,6,1,2,0,0,0,0,0,0.535714285714286,0.535714285714286,            95P    185
6.42857142857143,6.42857142857143,-0.523598775598299,                 95P    186
-0.523598775598299,-0.523598775598299,0.872664625997164,              95P    187
0.872664625997164,2.26892802759263,2.26892802759263,                  95P    188
3.66519142918809,3.66519142918809,3.66519142918809,1.,1.,             95P    189
0.766044443118978,0.766044443118978,1.,1.,0.766044443118978,          95P    190
0.766044443118978,1.,1.,0.766044443118978,0.766044443118978,1.,       95P    191
1.,3.28756443470179,-0.25,-2.5,3.28756443470179,-8.5,-2.5,            95P    192
2.70019469287769,-0.25,-3.51735423566795,2.70019469287769,-8.5,       95P    193
-3.51735423566795,3.60009734643884,-0.25,-4.27246222036657,           95P    194
3.60009734643884,-8.5,-4.27246222036657,4.5,-0.25,                    95P    195
-5.02757020506519,4.5,-8.5,-5.02757020506519,5.39990265356115,        95P    196
-0.25,-4.27246222036657,5.39990265356115,-8.5,-4.27246222036657,      95P    197
6.29980530712231,-0.25,-3.51735423566795,6.29980530712231,-8.5,       95P    198
-3.51735423566795,5.71243556529821,-0.25,-2.5,5.71243556529821,       95P    199
-8.5,-2.5,0.535714285714286,6.42857142857143,-0.523598775598299,      95P    200
3.66519142918809;                                                     95P    201
128,1,1,1,1,0,0,1,0,0,-0.001,-0.001,0.349756443470179,                97P    202
0.349756443470179,-0.001,-0.001,0.901,0.901,1.,1.,1.,1.,9.21,         97P    203
0.51,-2.5,5.70243556529821,0.51,-2.5,9.21,-8.51000000000001,          97P    204
-2.5,5.70243556529821,-8.51000000000001,-2.5,-0.001,                  97P    205
0.349756443470179,-0.001,0.901;                                       97P    206
128,1,1,1,1,0,0,1,0,0,-0.471,-0.471,0.471,0.471,-0.186,-0.186,        99P    207
0.186,0.186,1.,1.,1.,1.,-0.21,-8.5,-6.21,9.21,-8.5,-6.21,-0.21,       99P    208
-8.5,-2.49,9.21,-8.5,-2.49,-0.471,0.471,-0.186,0.186;                 99P    209
502,14,2.46714486497439,0.5,-2.5,3.28756443470179,-0.25,-2.5,        101P    210
5.71243556529821,-0.25,-2.5,6.53285513502561,0.5,-2.5,-0.2,0.5,      101P    211
-2.5,-0.2,-8.5,-2.5,3.28756443470179,-8.5,-2.5,9.2,0.5,-2.5,         101P    212
5.21126586496417,0.5,-6.2,3.78873413503583,0.5,-6.2,9.2,-8.5,        101P    213
-2.5,5.21126586496417,-8.5,-6.2,3.78873413503583,-8.5,-6.2,          101P    214
5.71243556529821,-8.5,-2.5;                                          101P    215
504,21,41,101,1,101,2,43,101,2,101,3,45,101,3,101,4,47,101,4,        103P    216
101,1,49,101,1,101,5,51,101,5,101,6,53,101,7,101,6,55,101,2,101,     103P    217
7,57,101,8,101,4,59,101,9,101,8,61,101,10,101,9,63,101,5,101,10,     103P    218
65,101,11,101,12,67,101,12,101,9,69,101,8,101,11,71,101,13,101,      103P    219
12,73,101,10,101,13,75,101,13,101,6,77,101,14,101,7,79,101,3,        103P    220
101,14,81,101,11,101,14;                                             103P    221
406,1,5HBody1;                                                       105P    222
314,62.7450980392157,62.7450980392157,62.7450980392157,13HSteel      107P    223
- Satin;                                                             107P    224
S      1G      2D    108P    224                                        T      1
