                                                                        S      1
,,15Hled flashing 35,15Hled flashing 35,7Hunknown,7Hunknown,32,38,7,99, G      1
15,,1.,2,2HMM,1,0.08,15H20211012.211948,0.01,10000.,7Hunknown,7Hunknown,G      2
11,0,;                                                                  G      3
     186       1                                                00000000D      1
     186            -135       1       0                               0D      2
     514       2                                                00010000D      3
     514                       1       1                               0D      4
     510       3                                                00010000D      5
     510            -135       1       1                               0D      6
     510       4                                                00010000D      7
     510            -135       1       1                               0D      8
     510       5                                                00010000D      9
     510            -135       1       1                               0D     10
     510       6                                                00010000D     11
     510            -135       1       1                               0D     12
     510       7                                                00010000D     13
     510            -135       1       1                               0D     14
     510       8                                                00010000D     15
     510            -135       1       1                               0D     16
     510       9                                                00010000D     17
     510            -135       1       1                               0D     18
     510      10                                                00010000D     19
     510            -135       1       1                               0D     20
     510      11                                                00010000D     21
     510            -135       1       1                               0D     22
     510      12                                                00010000D     23
     510            -135       1       1                               0D     24
     510      13                                                00010000D     25
     510            -135       1       1                               0D     26
     508      14                                                00010000D     27
     508                       1       1                               0D     28
     508      15                                                00010000D     29
     508                       3       1                               0D     30
     508      18                                                00010000D     31
     508                       1       1                               0D     32
     508      19                                                00010000D     33
     508                       1       1                               0D     34
     508      20                                                00010000D     35
     508                       1       1                               0D     36
     508      21                                                00010000D     37
     508                       1       1                               0D     38
     508      22                                                00010000D     39
     508                       2       1                               0D     40
     508      24                                                00010000D     41
     508                       2       1                               0D     42
     508      26                                                00010000D     43
     508                       1       1                               0D     44
     508      27                                                00010000D     45
     508                       2       1                               0D     46
     508      29                                                00010000D     47
     508                       1       1                               0D     48
     508      30                                                00010000D     49
     508                       1       1                               0D     50
     508      31                                                00010000D     51
     508                       1       1                               0D     52
     126      32                                                00010000D     53
     126       0              10       0                               0D     54
     126      42                                                00010000D     55
     126       0               3       0                               0D     56
     126      45                                                00010000D     57
     126       0              10       0                               0D     58
     126      55                                                00010000D     59
     126       0              12       0                               0D     60
     126      67                                                00010000D     61
     126       0               5       0                               0D     62
     126      72                                                00010000D     63
     126       0               4       0                               0D     64
     126      76                                                00010000D     65
     126       0               5       0                               0D     66
     126      81                                                00010000D     67
     126       0               2       0                               0D     68
     126      83                                                00010000D     69
     126       0               5       0                               0D     70
     126      88                                                00010000D     71
     126       0               2       0                               0D     72
     126      90                                                00010000D     73
     126       0               6       0                               0D     74
     126      96                                                00010000D     75
     126       0               5       0                               0D     76
     126     101                                                00010000D     77
     126       0               4       0                               0D     78
     126     105                                                00010000D     79
     126       0               4       0                               0D     80
     126     109                                                00010000D     81
     126       0               2       0                               0D     82
     126     111                                                00010000D     83
     126       0               8       0                               0D     84
     126     119                                                00010000D     85
     126       0               8       0                               0D     86
     126     127                                                00010000D     87
     126       0               3       0                               0D     88
     126     130                                                00010000D     89
     126       0               3       0                               0D     90
     126     133                                                00010000D     91
     126       0               4       0                               0D     92
     126     137                                                00010000D     93
     126       0               7       0                               0D     94
     126     144                                                00010000D     95
     126       0               3       0                               0D     96
     126     147                                                00010000D     97
     126       0               3       0                               0D     98
     126     150                                                00010000D     99
     126       0               3       0                               0D    100
     126     153                                                00010000D    101
     126       0               8       0                               0D    102
     126     161                                                00010000D    103
     126       0               2       0                               0D    104
     126     163                                                00010000D    105
     126       0               3       0                               0D    106
     128     166                                                00010000D    107
     128       0    -135      17       0                               0D    108
     128     183                                                00010000D    109
     128       0    -135      17       0                               0D    110
     128     200                                                00010000D    111
     128       0    -135       6       0                               0D    112
     128     206                                                00010000D    113
     128       0    -135       5       0                               0D    114
     128     211                                                00010000D    115
     128       0    -135      12       0                               0D    116
     128     223                                                00010000D    117
     128       0    -135       7       0                               0D    118
     128     230                                                00010000D    119
     128       0    -135       7       0                               0D    120
     128     237                                                00010000D    121
     128       0    -135       6       0                               0D    122
     128     243                                                00010000D    123
     128       0    -135      11       0                               0D    124
     128     254                                                00010000D    125
     128       0    -135       4       0                               0D    126
     128     258                                                00010000D    127
     128       0    -135       5       0                               0D    128
     502     263                                                00010000D    129
     502                       8       1                               0D    130
     504     271                                                00010001D    131
     504                       7       1                               0D    132
     406     278                                                00000000D    133
     406                       1      15                               0D    134
     314     279                                                00000200D    135
     314                       2       0                               0D    136
186,3,1,0,0,1,133;                                                     1P      1
514,11,5,1,7,1,9,1,11,1,13,1,15,1,17,1,19,1,21,1,23,1,25,1;            3P      2
510,107,1,1,27;                                                        5P      3
510,109,1,1,29;                                                        7P      4
510,111,2,1,31,33;                                                     9P      5
510,113,1,1,35;                                                       11P      6
510,115,1,1,37;                                                       13P      7
510,117,1,1,39;                                                       15P      8
510,119,2,1,41,43;                                                    17P      9
510,121,1,1,45;                                                       19P     10
510,123,1,1,47;                                                       21P     11
510,125,1,1,49;                                                       23P     12
510,127,1,1,51;                                                       25P     13
508,4,0,131,1,0,0,0,131,2,1,0,0,131,3,1,0,0,131,2,0,0;                27P     14
508,10,0,131,4,0,0,0,131,5,0,0,0,131,6,1,0,0,131,7,0,0,0,131,8,       29P     15
0,0,0,131,9,1,0,0,131,10,1,0,0,131,11,0,0,0,131,12,0,0,0,131,6,       29P     16
0,0;                                                                  29P     17
508,2,0,131,4,1,0,0,131,5,1,0;                                        31P     18
508,1,0,131,1,1,0;                                                    33P     19
508,4,0,131,13,0,0,0,131,8,1,0,0,131,14,0,0,0,131,15,0,0;             35P     20
508,4,0,131,16,1,0,0,131,15,1,0,0,131,17,0,0,0,131,18,0,0;            37P     21
508,5,0,131,7,1,0,0,131,12,1,0,0,131,19,1,0,0,131,17,1,0,0,131,       39P     22
14,1,0;                                                               39P     23
508,6,0,131,13,1,0,0,131,16,0,0,0,131,20,0,0,0,131,21,0,0,0,131,      41P     24
22,1,0,0,131,9,0,0;                                                   41P     25
508,1,0,131,3,0,0;                                                    43P     26
508,5,0,131,20,1,0,0,131,18,1,0,0,131,19,0,0,0,131,23,0,0,0,131,      45P     27
24,0,0;                                                               45P     28
508,4,0,131,21,1,0,0,131,24,1,0,0,131,25,0,0,0,131,26,0,0;            47P     29
508,4,0,131,22,0,0,0,131,26,1,0,0,131,27,0,0,0,131,10,0,0;            49P     30
508,4,0,131,27,1,0,0,131,25,1,0,0,131,23,1,0,0,131,11,1,0;            51P     31
126,8,2,0,1,0,0,-3.14159265358979,-3.14159265358979,                  53P     32
-3.14159265358979,-1.5707963267949,-1.5707963267949,0.,0.,            53P     33
1.5707963267949,1.5707963267949,3.14159265358979,                     53P     34
3.14159265358979,3.14159265358979,1.,0.707106781186547,1.,            53P     35
0.707106781186548,1.,0.707106781186547,1.,0.707106781186546,1.,       53P     36
2.75,4.,6.00000008940697,2.75,4.,4.25000008940697,4.5,4.,             53P     37
4.25000008940697,6.25,4.,4.25000008940697,6.25,4.,                    53P     38
6.00000008940697,6.25,4.,7.75000008940697,4.5,4.,                     53P     39
7.75000008940697,2.75,4.,7.75000008940697,2.75,4.,                    53P     40
6.00000008940697,-3.14159265358979,3.14159265358979,0.,0.,0.;         53P     41
126,1,1,0,0,1,0,-2.28571428571429,-2.28571428571429,0.,0.,1.,1.,      55P     42
2.75,4.,6.00000008940697,2.75,0.,6.00000008940697,                    55P     43
-2.28571428571429,0.,0.,0.,0.;                                        55P     44
126,8,2,0,1,0,0,-3.14159265358979,-3.14159265358979,                  57P     45
-3.14159265358979,-1.5707963267949,-1.5707963267949,0.,0.,            57P     46
1.5707963267949,1.5707963267949,3.14159265358979,                     57P     47
3.14159265358979,3.14159265358979,1.,0.707106781186547,1.,            57P     48
0.707106781186548,1.,0.707106781186547,1.,0.707106781186546,1.,       57P     49
2.75,0.,6.00000008940697,2.75,0.,4.25000008940697,4.5,0.,             57P     50
4.25000008940697,6.25,0.,4.25000008940697,6.25,0.,                    57P     51
6.00000008940697,6.25,0.,7.75000008940697,4.5,0.,                     57P     52
7.75000008940697,2.75,0.,7.75000008940697,2.75,0.,                    57P     53
6.00000008940697,-3.14159265358979,3.14159265358979,0.,0.,0.;         57P     54
126,8,2,0,0,0,0,-1.57093728145016,-1.57093728145016,                  59P     55
-1.57093728145016,-0.392804797690175,-0.392804797690175,              59P     56
0.785327686069814,0.785327686069814,1.9634601698298,                  59P     57
1.9634601698298,3.14159265358979,3.14159265358979,                    59P     58
3.14159265358979,1.,0.831459823397151,1.,0.83145982339715,1.,         59P     59
0.831459823397151,1.,0.831459823397151,1.,4.4995771360356,4.,         59P     60
9.00000005960464,6.5041894878984,4.,9.00028261904952,                 59P     61
7.27151721477096,4.,7.14834338660874,8.03884494164352,4.,             59P     62
5.29640415416797,6.62146984328003,4.,3.87882925610443,                59P     63
5.20409474491655,4.,2.46125435804089,3.35204737245828,4.,             59P     64
3.22832103783551,1.5,4.,3.99538771763013,1.5,4.,                      59P     65
6.00000008940697,-1.57093728145016,3.14159265358979,0.,0.,0.;         59P     66
126,2,2,0,0,0,0,3.14159265358979,3.14159265358979,                    61P     67
3.14159265358979,4.71224802572942,4.71224802572942,                   61P     68
4.71224802572942,1.,0.707156614426678,1.,1.5,4.,                      61P     69
6.00000008940697,1.5,4.,8.99957725524068,4.49957713603559,4.,         61P     70
9.00000005960464,3.14159265358979,4.71224802572942,0.,0.,0.;          61P     71
126,1,1,0,0,1,0,-1.33333333333333,-1.33333333333333,                  63P     72
-0.166666666666667,-0.166666666666667,1.,1.,1.5,4.,                   63P     73
6.00000008940697,1.5,0.5,6.00000008940697,-1.33333333333333,          63P     74
-0.166666666666667,0.,0.,0.;                                          63P     75
126,2,2,0,0,0,0,-4.71224802572662,-4.71224802572662,                  65P     76
-4.71224802572662,-3.14159265358979,-3.14159265358979,                65P     77
-3.14159265358979,1.,0.707156614427668,1.,4.49957713602719,0.5,       65P     78
9.00000005960464,1.5,0.5,8.99957725523228,1.5,0.5,                    65P     79
6.00000008940697,-4.71224802572662,-3.14159265358979,0.,0.,0.;        65P     80
126,1,1,0,0,1,0,0.,0.,0.05,0.05,1.,1.,4.4995771360356,0.,9.,          67P     81
4.4995771360356,0.5,9.,0.,0.05,0.,0.,0.;                              67P     82
126,2,2,0,0,0,0,-1.57093728145016,-1.57093728145016,                  69P     83
-1.57093728145016,-1.5707963267949,-1.5707963267949,                  69P     84
-1.5707963267949,1.,0.999999997516473,1.,4.49957713603559,0.,         69P     85
9.00000005960464,4.49978856801675,0.,9.00000008940697,4.5,0.,         69P     86
9.00000008940697,-1.57093728145016,-1.5707963267949,0.,0.,0.;         69P     87
126,1,1,0,0,1,0,0.,0.,0.05,0.05,1.,1.,4.5,0.,9.,4.5,0.5,9.,0.,        71P     88
0.05,0.,0.,0.;                                                        71P     89
126,4,2,0,0,0,0,-1.5707963267949,-1.5707963267949,                    73P     90
-1.5707963267949,0.,0.,1.5707963267949,1.5707963267949,               73P     91
1.5707963267949,1.,0.707106781186547,1.,0.707106781186547,1.,         73P     92
4.5,0.5,3.00000008940697,7.5,0.5,3.00000008940697,7.5,0.5,            73P     93
6.00000008940697,7.5,0.5,9.00000008940697,4.5,0.5,                    73P     94
9.00000008940697,-1.5707963267949,1.5707963267949,0.,0.,0.;           73P     95
126,2,2,0,0,0,0,-3.14159265358979,-3.14159265358979,                  75P     96
-3.14159265358979,-1.5707963267949,-1.5707963267949,                  75P     97
-1.5707963267949,1.,0.707106781186548,1.,1.5,0.5,                     75P     98
6.00000008940697,1.5,0.5,3.00000008940697,4.5,0.5,                    75P     99
3.00000008940697,-3.14159265358979,-1.5707963267949,0.,0.,0.;         75P    100
126,1,1,0,0,1,0,0.45004228639644,0.45004228639644,                    77P    101
0.714575141244256,0.714575141244256,1.,1.,4.4995771360356,0.,9.,      77P    102
1.85424858755744,0.,9.,0.45004228639644,0.714575141244256,0.,0.,      77P    103
0.;                                                                   77P    104
126,1,1,0,0,1,0,-0.714575141244256,-0.714575141244256,                79P    105
-0.45004228639644,-0.45004228639644,1.,1.,1.85424858755744,0.5,       79P    106
9.,4.4995771360356,0.5,9.,-0.714575141244256,-0.45004228639644,       79P    107
0.,0.,0.;                                                             79P    108
126,1,1,0,0,1,0,0.,0.,0.05,0.05,1.,1.,1.85424858755744,0.,9.,         81P    109
1.85424858755744,0.5,9.,0.,0.05,0.,0.,0.;                             81P    110
126,4,2,0,0,0,0,2.29353057460831,2.29353057460831,                    83P    111
2.29353057460831,3.14159263669346,3.14159263669346,                   83P    112
3.98965469877862,3.98965469877862,3.98965469877862,1.,                83P    113
0.911437831242041,1.,0.91143783124204,1.,1.85424868893541,0.,         83P    114
3.00000008940697,0.500000030509107,0.,4.19433514391992,0.5,0.,        83P    115
6.00000002182165,0.499999969490892,0.,7.80566489972339,               83P    116
1.85424858755744,0.,9.,2.29353057460831,3.98965469877862,0.,0.,       83P    117
0.;                                                                   83P    118
126,4,2,0,0,0,0,2.29353057460831,2.29353057460831,                    85P    119
2.29353057460831,3.14159263669346,3.14159263669346,                   85P    120
3.98965469877862,3.98965469877862,3.98965469877862,1.,                85P    121
0.911437831242041,1.,0.91143783124204,1.,1.85424868893541,0.5,        85P    122
3.00000008940697,0.500000030509107,0.5,4.19433514391992,0.5,0.5,      85P    123
6.00000002182165,0.499999969490892,0.5,7.80566489972339,              85P    124
1.85424858755744,0.5,9.,2.29353057460831,3.98965469877862,0.,0.,      85P    125
0.;                                                                   85P    126
126,1,1,0,0,1,0,0.,0.,0.05,0.05,1.,1.,1.85424868893541,0.,            87P    127
3.00000008940697,1.85424868893541,0.5,3.00000008940697,0.,0.05,       87P    128
0.,0.,0.;                                                             87P    129
126,1,1,0,0,1,0,0.,0.,0.264575131106459,0.264575131106459,1.,1.,      89P    130
4.5,0.5,3.00000008940697,1.85424868893541,0.5,3.00000008940697,       89P    131
0.,0.264575131106459,0.,0.,0.;                                        89P    132
126,1,1,0,0,1,0,0.185424868893541,0.185424868893541,                  91P    133
0.714575131106459,0.714575131106459,1.,1.,7.14575131106459,0.,        91P    134
3.00000008940697,1.85424868893541,0.,3.00000008940697,                91P    135
0.185424868893541,0.714575131106459,0.,0.,0.;                         91P    136
126,4,2,0,0,0,0,-0.848062045188824,-0.848062045188824,                93P    137
-0.848062045188824,1.68963282809464D-8,1.68963282809464D-8,           93P    138
0.848062078981481,0.848062078981481,0.848062078981481,1.,             93P    139
0.911437831242037,1.,0.911437831242043,1.,7.14575141244256,0.,        93P    140
9.,8.50000003050911,0.,7.80566489972339,8.5,0.,6.00000002182165,      93P    141
8.49999996949089,0.,4.19433514391992,7.14575131106459,0.,             93P    142
3.00000008940697,-0.848062045188824,0.848062078981481,0.,0.,0.;       93P    143
126,1,1,0,0,1,0,0.185424858755744,0.185424858755744,0.45,0.45,        95P    144
1.,1.,7.14575141244256,0.,9.,4.5,0.,9.,0.185424858755744,0.45,        95P    145
0.,0.,0.;                                                             95P    146
126,1,1,0,0,1,0,0.185424868893541,0.185424868893541,0.45,0.45,        97P    147
1.,1.,7.14575131106459,0.5,3.00000008940697,4.5,0.5,                  97P    148
3.00000008940697,0.185424868893541,0.45,0.,0.,0.;                     97P    149
126,1,1,0,0,1,0,0.,0.,0.05,0.05,1.,1.,7.14575131106459,0.,            99P    150
3.00000008940697,7.14575131106459,0.5,3.00000008940697,0.,0.05,       99P    151
0.,0.,0.;                                                             99P    152
126,4,2,0,0,0,0,-0.848062045188824,-0.848062045188824,               101P    153
-0.848062045188824,1.68963282809464D-8,1.68963282809464D-8,          101P    154
0.848062078981481,0.848062078981481,0.848062078981481,1.,            101P    155
0.911437831242037,1.,0.911437831242043,1.,7.14575141244256,0.5,      101P    156
9.,8.50000003050911,0.5,7.80566489972339,8.5,0.5,                    101P    157
6.00000002182165,8.49999996949089,0.5,4.19433514391992,              101P    158
7.14575131106459,0.5,3.00000008940697,-0.848062045188824,            101P    159
0.848062078981481,0.,0.,0.;                                          101P    160
126,1,1,0,0,1,0,0.,0.,0.05,0.05,1.,1.,7.14575141244256,0.,9.,        103P    161
7.14575141244256,0.5,9.,0.,0.05,0.,0.,0.;                            103P    162
126,1,1,0,0,1,0,-0.45,-0.45,-0.185424858755744,                      105P    163
-0.185424858755744,1.,1.,4.5,0.5,9.,7.14575141244256,0.5,9.,         105P    164
-0.45,-0.185424858755744,0.,0.,0.;                                   105P    165
128,1,8,1,2,0,1,0,0,1,0.,0.,2.28571428571429,2.28571428571429,       107P    166
-3.14159265358979,-3.14159265358979,-3.14159265358979,               107P    167
-1.5707963267949,-1.5707963267949,0.,0.,1.5707963267949,             107P    168
1.5707963267949,3.14159265358979,3.14159265358979,                   107P    169
3.14159265358979,1.,1.,0.707106781186548,0.707106781186548,1.,       107P    170
1.,0.707106781186548,0.707106781186548,1.,1.,0.707106781186548,      107P    171
0.707106781186548,1.,1.,0.707106781186548,0.707106781186548,1.,      107P    172
1.,2.75,0.,6.00000008940697,2.75,4.,6.00000008940697,2.75,0.,        107P    173
7.75000008940697,2.75,4.,7.75000008940697,4.5,0.,                    107P    174
7.75000008940697,4.5,4.,7.75000008940697,6.25,0.,                    107P    175
7.75000008940697,6.25,4.,7.75000008940697,6.25,0.,                   107P    176
6.00000008940697,6.25,4.,6.00000008940697,6.25,0.,                   107P    177
4.25000008940697,6.25,4.,4.25000008940697,4.5,0.,                    107P    178
4.25000008940697,4.5,4.,4.25000008940697,2.75,0.,                    107P    179
4.25000008940697,2.75,4.,4.25000008940697,2.75,0.,                   107P    180
6.00000008940697,2.75,4.,6.00000008940697,0.,2.28571428571429,       107P    181
-3.14159265358979,3.14159265358979;                                  107P    182
128,1,8,1,2,0,1,0,0,1,0.,0.,1.33333333333333,1.33333333333333,       109P    183
-3.14159265358979,-3.14159265358979,-3.14159265358979,               109P    184
-1.5707963267949,-1.5707963267949,0.,0.,1.5707963267949,             109P    185
1.5707963267949,3.14159265358979,3.14159265358979,                   109P    186
3.14159265358979,1.,1.,0.707106781186548,0.707106781186548,1.,       109P    187
1.,0.707106781186548,0.707106781186548,1.,1.,0.707106781186548,      109P    188
0.707106781186548,1.,1.,0.707106781186548,0.707106781186548,1.,      109P    189
1.,1.5,4.,6.00000008940697,1.5,0.,6.00000008940697,1.5,4.,           109P    190
9.00000008940697,1.5,0.,9.00000008940697,4.5,4.,                     109P    191
9.00000008940697,4.5,0.,9.00000008940697,7.5,4.,                     109P    192
9.00000008940697,7.5,0.,9.00000008940697,7.5,4.,                     109P    193
6.00000008940697,7.5,0.,6.00000008940697,7.5,4.,                     109P    194
3.00000008940697,7.5,0.,3.00000008940697,4.5,4.,                     109P    195
3.00000008940697,4.5,0.,3.00000008940697,1.5,4.,                     109P    196
3.00000008940697,1.5,0.,3.00000008940697,1.5,4.,                     109P    197
6.00000008940697,1.5,0.,6.00000008940697,0.,1.33333333333333,        109P    198
-3.14159265358979,3.14159265358979;                                  109P    199
128,1,1,1,1,0,0,1,0,0,-0.301,-0.301,0.354884494164352,               111P    200
0.354884494164352,-0.301028252964255,-0.301028252964255,             111P    201
0.354874573136608,0.354874573136608,1.,1.,1.,1.,1.49,4.,             111P    202
9.01028261904952,8.04884494164352,4.,9.01028261904952,1.49,4.,       111P    203
2.45125435804089,8.04884494164352,4.,2.45125435804089,-0.301,        111P    204
0.354884494164352,-0.301028252964255,0.354874573136608;              111P    205
128,1,1,1,1,0,0,1,0,0,-0.001,-0.001,0.265532854847816,               113P    206
0.265532854847816,-0.001,-0.001,0.051,0.051,1.,1.,1.,1.,             113P    207
1.84424858755744,-0.01,9.,4.5095771360356,-0.01,9.,                  113P    208
1.84424858755744,0.51,9.,4.5095771360356,0.51,9.,-0.001,             113P    209
0.265532854847816,-0.001,0.051;                                      113P    210
128,1,4,1,2,0,0,0,0,0,0.,0.,0.125,0.125,2.29353057460831,            115P    211
2.29353057460831,2.29353057460831,3.14159263669346,                  115P    212
3.14159263669346,3.98965469877862,3.98965469877862,                  115P    213
3.98965469877862,1.,1.,0.911437831242042,0.911437831242042,1.,       115P    214
1.,0.911437831242042,0.911437831242042,1.,1.,1.85424868893541,       115P    215
0.5,3.00000008940697,1.85424868893541,0.,3.00000008940697,           115P    216
0.500000030509107,0.5,4.19433514391992,0.500000030509107,0.,         115P    217
4.19433514391992,0.5,0.5,6.00000002182165,0.5,0.,                    115P    218
6.00000002182165,0.499999969490893,0.5,7.80566489972339,             115P    219
0.499999969490893,0.,7.80566489972339,1.85424858755744,0.5,9.,       115P    220
1.85424858755744,0.,9.,0.,0.125,2.29353057460831,                    115P    221
3.98965469877862;                                                    115P    222
128,1,1,1,1,0,0,1,0,0,-0.201000003050911,-0.201000003050911,         117P    223
0.201,0.201,-0.300999998509884,-0.300999998509884,                   117P    224
0.300999998509884,0.300999998509884,1.,1.,1.,1.,                     117P    225
0.489999969490892,0.5,9.01000005960464,4.51,0.5,                     117P    226
9.01000005960464,0.489999969490892,0.5,2.99000008940697,4.51,        117P    227
0.5,2.99000008940697,-0.201000003050911,0.201,                       117P    228
-0.300999998509884,0.300999998509884;                                117P    229
128,1,1,1,1,0,0,1,0,0,-0.201000003050911,-0.201000003050911,         119P    230
0.601000003050911,0.601000003050911,-0.301000001490116,              119P    231
-0.301000001490116,0.300999998509884,0.300999998509884,1.,1.,1.,     119P    232
1.,8.51000003050911,0.,9.01000008940697,0.489999969490892,0.,        119P    233
9.01000008940697,8.51000003050911,0.,2.99000008940697,               119P    234
0.489999969490892,0.,2.99000008940697,-0.201000003050911,            119P    235
0.601000003050911,-0.301000001490116,0.300999998509884;              119P    236
128,1,1,1,1,0,0,1,0,0,-0.001,-0.001,0.530150262212918,               121P    237
0.530150262212918,-0.001,-0.001,0.051,0.051,1.,1.,1.,1.,             121P    238
7.15575131106459,-0.01,3.00000008940697,1.84424868893541,-0.01,      121P    239
3.00000008940697,7.15575131106459,0.51,3.00000008940697,             121P    240
1.84424868893541,0.51,3.00000008940697,-0.001,0.530150262212918,     121P    241
-0.001,0.051;                                                        121P    242
128,1,4,1,2,0,0,0,0,0,0.,0.,0.125,0.125,-0.848062045188824,          123P    243
-0.848062045188824,-0.848062045188824,1.68963282254353D-8,           123P    244
1.68963282254353D-8,0.848062078981481,0.848062078981481,             123P    245
0.848062078981481,1.,1.,0.911437831242042,0.911437831242042,1.,      123P    246
1.,0.911437831242042,0.911437831242042,1.,1.,7.14575141244256,       123P    247
0.5,9.,7.14575141244256,0.,9.,8.5000000305091,0.5,                   123P    248
7.80566489972339,8.5000000305091,0.,7.80566489972339,8.5,0.5,        123P    249
6.00000002182165,8.5,0.,6.00000002182165,8.49999996949089,0.5,       123P    250
4.19433514391992,8.49999996949089,0.,4.19433514391992,               123P    251
7.14575131106459,0.5,3.00000008940697,7.14575131106459,0.,           123P    252
3.00000008940697,0.,0.125,-0.848062045188824,0.848062078981481;      123P    253
128,1,1,1,1,0,0,1,0,0,-0.001,-0.001,0.265575141244256,               125P    254
0.265575141244256,-0.001,-0.001,0.051,0.051,1.,1.,1.,1.,4.49,        125P    255
-0.01,9.,7.15575141244256,-0.01,9.,4.49,0.51,9.,                     125P    256
7.15575141244256,0.51,9.,-0.001,0.265575141244256,-0.001,0.051;      125P    257
128,1,1,1,1,0,0,1,0,0,-0.201,-0.201,0.201000003050911,               127P    258
0.201000003050911,-0.301,-0.301,0.301,0.301,1.,1.,1.,1.,4.49,        127P    259
0.5,9.01000008940697,8.51000003050911,0.5,9.01000008940697,4.49,     127P    260
0.5,2.99000008940697,8.51000003050911,0.5,2.99000008940697,          127P    261
-0.201,0.201000003050911,-0.301,0.301;                               127P    262
502,18,2.75,4.,6.00000008940697,2.75,0.,6.00000008940697,            129P    263
4.4995771360356,4.,9.,1.5,4.,6.00000008940697,1.5,0.5,               129P    264
6.00000008940697,4.4995771360356,0.5,9.,4.4995771360356,0.,9.,       129P    265
4.5,0.,9.,4.5,0.5,9.,4.5,0.5,3.00000008940697,1.85424858755744,      129P    266
0.,9.,1.85424858755744,0.5,9.,1.85424868893541,0.,                   129P    267
3.00000008940697,1.85424868893541,0.5,3.00000008940697,              129P    268
7.14575131106459,0.,3.00000008940697,7.14575141244256,0.,9.,         129P    269
7.14575131106459,0.5,3.00000008940697,7.14575141244256,0.5,9.;       129P    270
504,27,53,129,1,129,1,55,129,1,129,2,57,129,2,129,2,59,129,3,        131P    271
129,4,61,129,4,129,3,63,129,4,129,5,65,129,6,129,5,67,129,7,129,     131P    272
6,69,129,7,129,8,71,129,8,129,9,73,129,10,129,9,75,129,5,129,10,     131P    273
77,129,7,129,11,79,129,12,129,6,81,129,11,129,12,83,129,13,129,      131P    274
11,85,129,14,129,12,87,129,13,129,14,89,129,10,129,14,91,129,15,     131P    275
129,13,93,129,16,129,15,95,129,16,129,8,97,129,17,129,10,99,129,     131P    276
15,129,17,101,129,18,129,17,103,129,16,129,18,105,129,9,129,18;      131P    277
406,1,5HBody1;                                                       133P    278
314,62.7450980392157,62.7450980392157,62.7450980392157,13HSteel      135P    279
- Satin;                                                             135P    280
S      1G      3D    136P    280                                        T      1
