                                                                        S      1
,,10HComponent3,10HComponent3,7Hunknown,7Hunknown,32,38,7,99,15,,1.,2,2HG      1
MM,1,0.08,15H20211012.211949,0.01,10000.,7Hunknown,7Hunknown,11,0,;     G      2
     186       1                                                00000000D      1
     186            -307       1       0                               0D      2
     514       2                                                00010000D      3
     514                       3       1                               0D      4
     510       5                                                00010000D      5
     510            -307       1       1                               0D      6
     510       6                                                00010000D      7
     510            -307       1       1                               0D      8
     510       7                                                00010000D      9
     510            -307       1       1                               0D     10
     510       8                                                00010000D     11
     510            -307       1       1                               0D     12
     510       9                                                00010000D     13
     510            -307       1       1                               0D     14
     510      10                                                00010000D     15
     510            -307       1       1                               0D     16
     510      11                                                00010000D     17
     510            -307       1       1                               0D     18
     510      12                                                00010000D     19
     510            -307       1       1                               0D     20
     510      13                                                00010000D     21
     510            -307       1       1                               0D     22
     510      14                                                00010000D     23
     510            -307       1       1                               0D     24
     510      15                                                00010000D     25
     510            -307       1       1                               0D     26
     510      16                                                00010000D     27
     510            -307       1       1                               0D     28
     510      17                                                00010000D     29
     510            -307       1       1                               0D     30
     510      18                                                00010000D     31
     510            -307       1       1                               0D     32
     510      19                                                00010000D     33
     510            -307       1       1                               0D     34
     510      20                                                00010000D     35
     510            -307       1       1                               0D     36
     510      21                                                00010000D     37
     510            -307       1       1                               0D     38
     510      22                                                00010000D     39
     510            -307       1       1                               0D     40
     510      23                                                00010000D     41
     510            -307       1       1                               0D     42
     510      24                                                00010000D     43
     510            -307       1       1                               0D     44
     510      25                                                00010000D     45
     510            -307       1       1                               0D     46
     510      26                                                00010000D     47
     510            -307       1       1                               0D     48
     510      27                                                00010000D     49
     510            -307       1       1                               0D     50
     510      28                                                00010000D     51
     510            -307       1       1                               0D     52
     510      29                                                00010000D     53
     510            -307       1       1                               0D     54
     508      30                                                00010000D     55
     508                       1       1                               0D     56
     508      31                                                00010000D     57
     508                       1       1                               0D     58
     508      32                                                00010000D     59
     508                       1       1                               0D     60
     508      33                                                00010000D     61
     508                       3       1                               0D     62
     508      36                                                00010000D     63
     508                       1       1                               0D     64
     508      37                                                00010000D     65
     508                       1       1                               0D     66
     508      38                                                00010000D     67
     508                       1       1                               0D     68
     508      39                                                00010000D     69
     508                       1       1                               0D     70
     508      40                                                00010000D     71
     508                       1       1                               0D     72
     508      41                                                00010000D     73
     508                       2       1                               0D     74
     508      43                                                00010000D     75
     508                       1       1                               0D     76
     508      44                                                00010000D     77
     508                       1       1                               0D     78
     508      45                                                00010000D     79
     508                       3       1                               0D     80
     508      48                                                00010000D     81
     508                       1       1                               0D     82
     508      49                                                00010000D     83
     508                       1       1                               0D     84
     508      50                                                00010000D     85
     508                       1       1                               0D     86
     508      51                                                00010000D     87
     508                       1       1                               0D     88
     508      52                                                00010000D     89
     508                       2       1                               0D     90
     508      54                                                00010000D     91
     508                       1       1                               0D     92
     508      55                                                00010000D     93
     508                       3       1                               0D     94
     508      58                                                00010000D     95
     508                       1       1                               0D     96
     508      59                                                00010000D     97
     508                       2       1                               0D     98
     508      61                                                00010000D     99
     508                       2       1                               0D    100
     508      63                                                00010000D    101
     508                       1       1                               0D    102
     508      64                                                00010000D    103
     508                       1       1                               0D    104
     508      65                                                00010000D    105
     508                       4       1                               0D    106
     126      69                                                00010000D    107
     126       0               2       0                               0D    108
     126      71                                                00010000D    109
     126       0               2       0                               0D    110
     126      73                                                00010000D    111
     126       0               2       0                               0D    112
     126      75                                                00010000D    113
     126       0               2       0                               0D    114
     126      77                                                00010000D    115
     126       0               3       0                               0D    116
     126      80                                                00010000D    117
     126       0               3       0                               0D    118
     126      83                                                00010000D    119
     126       0               2       0                               0D    120
     126      85                                                00010000D    121
     126       0               3       0                               0D    122
     126      88                                                00010000D    123
     126       0               4       0                               0D    124
     126      92                                                00010000D    125
     126       0               3       0                               0D    126
     126      95                                                00010000D    127
     126       0               2       0                               0D    128
     126      97                                                00010000D    129
     126       0               6       0                               0D    130
     126     103                                                00010000D    131
     126       0               4       0                               0D    132
     126     107                                                00010000D    133
     126       0               3       0                               0D    134
     126     110                                                00010000D    135
     126       0               2       0                               0D    136
     126     112                                                00010000D    137
     126       0               3       0                               0D    138
     126     115                                                00010000D    139
     126       0               5       0                               0D    140
     126     120                                                00010000D    141
     126       0               3       0                               0D    142
     126     123                                                00010000D    143
     126       0               3       0                               0D    144
     126     126                                                00010000D    145
     126       0               2       0                               0D    146
     126     128                                                00010000D    147
     126       0               3       0                               0D    148
     126     131                                                00010000D    149
     126       0               2       0                               0D    150
     126     133                                                00010000D    151
     126       0               2       0                               0D    152
     126     135                                                00010000D    153
     126       0               2       0                               0D    154
     126     137                                                00010000D    155
     126       0               2       0                               0D    156
     126     139                                                00010000D    157
     126       0               5       0                               0D    158
     126     144                                                00010000D    159
     126       0               3       0                               0D    160
     126     147                                                00010000D    161
     126       0               6       0                               0D    162
     126     153                                                00010000D    163
     126       0               3       0                               0D    164
     126     156                                                00010000D    165
     126       0               2       0                               0D    166
     126     158                                                00010000D    167
     126       0               2       0                               0D    168
     126     160                                                00010000D    169
     126       0               2       0                               0D    170
     126     162                                                00010000D    171
     126       0               2       0                               0D    172
     126     164                                                00010000D    173
     126       0               2       0                               0D    174
     126     166                                                00010000D    175
     126       0               4       0                               0D    176
     126     170                                                00010000D    177
     126       0               3       0                               0D    178
     126     173                                                00010000D    179
     126       0               2       0                               0D    180
     126     175                                                00010000D    181
     126       0               2       0                               0D    182
     126     177                                                00010000D    183
     126       0               2       0                               0D    184
     126     179                                                00010000D    185
     126       0              10       0                               0D    186
     126     189                                                00010000D    187
     126       0               2       0                               0D    188
     126     191                                                00010000D    189
     126       0              12       0                               0D    190
     126     203                                                00010000D    191
     126       0               2       0                               0D    192
     126     205                                                00010000D    193
     126       0               2       0                               0D    194
     126     207                                                00010000D    195
     126       0               2       0                               0D    196
     126     209                                                00010000D    197
     126       0               2       0                               0D    198
     126     211                                                00010000D    199
     126       0               2       0                               0D    200
     126     213                                                00010000D    201
     126       0               2       0                               0D    202
     126     215                                                00010000D    203
     126       0               2       0                               0D    204
     126     217                                                00010000D    205
     126       0               2       0                               0D    206
     126     219                                                00010000D    207
     126       0               2       0                               0D    208
     126     221                                                00010000D    209
     126       0               2       0                               0D    210
     126     223                                                00010000D    211
     126       0               2       0                               0D    212
     126     225                                                00010000D    213
     126       0               2       0                               0D    214
     126     227                                                00010000D    215
     126       0               2       0                               0D    216
     126     229                                                00010000D    217
     126       0               2       0                               0D    218
     126     231                                                00010000D    219
     126       0               2       0                               0D    220
     126     233                                                00010000D    221
     126       0               2       0                               0D    222
     126     235                                                00010000D    223
     126       0               2       0                               0D    224
     126     237                                                00010000D    225
     126       0               2       0                               0D    226
     126     239                                                00010000D    227
     126       0               2       0                               0D    228
     126     241                                                00010000D    229
     126       0               2       0                               0D    230
     126     243                                                00010000D    231
     126       0               2       0                               0D    232
     126     245                                                00010000D    233
     126       0               2       0                               0D    234
     126     247                                                00010000D    235
     126       0               2       0                               0D    236
     126     249                                                00010000D    237
     126       0               2       0                               0D    238
     126     251                                                00010000D    239
     126       0               2       0                               0D    240
     126     253                                                00010000D    241
     126       0               3       0                               0D    242
     126     256                                                00010000D    243
     126       0               2       0                               0D    244
     126     258                                                00010000D    245
     126       0               2       0                               0D    246
     126     260                                                00010000D    247
     126       0               2       0                               0D    248
     126     262                                                00010000D    249
     126       0               2       0                               0D    250
     128     264                                                00010000D    251
     128       0    -307       4       0                               0D    252
     128     268                                                00010000D    253
     128       0    -307       5       0                               0D    254
     128     273                                                00010000D    255
     128       0    -307       5       0                               0D    256
     128     278                                                00010000D    257
     128       0    -307       4       0                               0D    258
     128     282                                                00010000D    259
     128       0    -307       4       0                               0D    260
     128     286                                                00010000D    261
     128       0    -307       3       0                               0D    262
     128     289                                                00010000D    263
     128       0    -307       5       0                               0D    264
     128     294                                                00010000D    265
     128       0    -307       5       0                               0D    266
     128     299                                                00010000D    267
     128       0    -307       3       0                               0D    268
     128     302                                                00010000D    269
     128       0    -307       5       0                               0D    270
     128     307                                                00010000D    271
     128       0    -307       3       0                               0D    272
     128     310                                                00010000D    273
     128       0    -307      20       0                               0D    274
     128     330                                                00010000D    275
     128       0    -307       3       0                               0D    276
     128     333                                                00010000D    277
     128       0    -307       3       0                               0D    278
     128     336                                                00010000D    279
     128       0    -307       3       0                               0D    280
     128     339                                                00010000D    281
     128       0    -307       3       0                               0D    282
     128     342                                                00010000D    283
     128       0    -307       3       0                               0D    284
     128     345                                                00010000D    285
     128       0    -307       4       0                               0D    286
     128     349                                                00010000D    287
     128       0    -307       3       0                               0D    288
     128     352                                                00010000D    289
     128       0    -307       3       0                               0D    290
     128     355                                                00010000D    291
     128       0    -307       4       0                               0D    292
     128     359                                                00010000D    293
     128       0    -307       3       0                               0D    294
     128     362                                                00010000D    295
     128       0    -307       3       0                               0D    296
     128     365                                                00010000D    297
     128       0    -307       3       0                               0D    298
     128     368                                                00010000D    299
     128       0    -307       3       0                               0D    300
     502     371                                                00010000D    301
     502                      14       1                               0D    302
     504     385                                                00010001D    303
     504                      21       1                               0D    304
     406     406                                                00000000D    305
     406                       1      15                               0D    306
     314     407                                                00000200D    307
     314                       2       0                               0D    308
186,3,1,0,0,1,305;                                                     1P      1
514,25,5,1,7,1,9,1,11,1,13,1,15,1,17,1,19,1,21,1,23,1,25,1,27,1,       3P      2
29,1,31,1,33,1,35,1,37,1,39,1,41,1,43,1,45,1,47,1,49,1,51,1,53,        3P      3
1;                                                                     3P      4
510,251,1,1,55;                                                        5P      5
510,253,1,1,57;                                                        7P      6
510,255,1,1,59;                                                        9P      7
510,257,1,1,61;                                                       11P      8
510,259,1,1,63;                                                       13P      9
510,261,1,1,65;                                                       15P     10
510,263,1,1,67;                                                       17P     11
510,265,1,1,69;                                                       19P     12
510,267,1,1,71;                                                       21P     13
510,269,1,1,73;                                                       23P     14
510,271,2,1,75,77;                                                    25P     15
510,273,1,1,79;                                                       27P     16
510,275,1,1,81;                                                       29P     17
510,277,1,1,83;                                                       31P     18
510,279,1,1,85;                                                       33P     19
510,281,1,1,87;                                                       35P     20
510,283,1,1,89;                                                       37P     21
510,285,1,1,91;                                                       39P     22
510,287,1,1,93;                                                       41P     23
510,289,1,1,95;                                                       43P     24
510,291,1,1,97;                                                       45P     25
510,293,1,1,99;                                                       47P     26
510,295,1,1,101;                                                      49P     27
510,297,1,1,103;                                                      51P     28
510,299,1,1,105;                                                      53P     29
508,4,0,303,1,0,0,0,303,2,0,0,0,303,3,0,0,0,303,4,1,0;                55P     30
508,4,0,303,5,0,0,0,303,6,1,0,0,303,7,0,0,0,303,8,0,0;                57P     31
508,4,0,303,9,0,0,0,303,10,0,0,0,303,11,0,0,0,303,2,1,0;              59P     32
508,10,0,303,12,0,0,0,303,13,0,0,0,303,4,0,0,0,303,14,0,0,0,303,      61P     33
15,1,0,0,303,16,0,0,0,303,17,0,0,0,303,18,1,0,0,303,19,0,0,0,         61P     34
303,6,0,0;                                                            61P     35
508,4,0,303,20,0,0,0,303,21,1,0,0,303,22,0,0,0,303,18,0,0;            63P     36
508,4,0,303,23,0,0,0,303,15,0,0,0,303,24,1,0,0,303,25,1,0;            65P     37
508,3,0,303,26,0,0,0,303,27,0,0,0,303,21,0,0;                         67P     38
508,3,0,303,28,0,0,0,303,8,1,0,0,303,29,0,0;                          69P     39
508,4,0,303,30,0,0,0,303,25,0,0,0,303,31,1,0,0,303,32,0,0;            71P     40
508,8,0,303,33,0,0,0,303,29,1,0,0,303,7,1,0,0,303,19,1,0,0,303,       73P     41
22,1,0,0,303,27,1,0,0,303,34,0,0,0,303,35,1,0;                        73P     42
508,4,0,303,36,1,0,0,303,37,1,0,0,303,38,1,0,0,303,39,1,0;            75P     43
508,2,0,303,35,0,0,0,303,40,1,0;                                      77P     44
508,12,0,303,12,1,0,0,303,5,1,0,0,303,28,1,0,0,303,33,1,0,0,303,      79P     45
40,0,0,0,303,34,1,0,0,303,26,1,0,0,303,20,1,0,0,303,17,1,0,0,         79P     46
303,41,0,0,0,303,42,1,0,0,303,43,1,0;                                 79P     47
508,4,0,303,44,0,0,0,303,45,0,0,0,303,46,0,0,0,303,47,0,0;            81P     48
508,4,0,303,47,1,0,0,303,48,0,0,0,303,49,0,0,0,303,50,1,0;            83P     49
508,4,0,303,46,1,0,0,303,51,0,0,0,303,52,0,0,0,303,48,1,0;            85P     50
508,4,0,303,45,1,0,0,303,53,0,0,0,303,54,1,0,0,303,51,1,0;            87P     51
508,8,0,303,55,1,0,0,303,53,1,0,0,303,44,1,0,0,303,50,0,0,0,303,      89P     52
56,1,0,0,303,57,1,0,0,303,38,0,0,0,303,58,0,0;                        89P     53
508,4,0,303,59,1,0,0,303,58,1,0,0,303,37,0,0,0,303,60,0,0;            91P     54
508,12,0,303,61,1,0,0,303,60,1,0,0,303,36,0,0,0,303,62,0,0,0,         93P     55
303,63,1,0,0,303,64,1,0,0,303,31,0,0,0,303,24,0,0,0,303,14,1,0,       93P     56
0,303,3,1,0,0,303,11,1,0,0,303,65,0,0;                                93P     57
508,4,0,303,10,1,0,0,303,66,0,0,0,303,67,0,0,0,303,65,1,0;            95P     58
508,6,0,303,13,1,0,0,303,43,0,0,0,303,68,1,0,0,303,66,1,0,0,303,      97P     59
9,1,0,0,303,1,1,0;                                                    97P     60
508,6,0,303,30,1,0,0,303,69,0,0,0,303,70,1,0,0,303,41,1,0,0,303,      99P     61
16,1,0,0,303,23,1,0;                                                  99P     62
508,4,0,303,32,1,0,0,303,64,0,0,0,303,71,1,0,0,303,69,1,0;           101P     63
508,4,0,303,72,1,0,0,303,62,1,0,0,303,39,0,0,0,303,57,0,0;           103P     64
508,14,0,303,49,1,0,0,303,52,1,0,0,303,54,0,0,0,303,55,0,0,0,        105P     65
303,59,0,0,0,303,61,0,0,0,303,67,1,0,0,303,68,0,0,0,303,42,0,0,      105P     66
0,303,70,0,0,0,303,71,0,0,0,303,63,0,0,0,303,72,0,0,0,303,56,0,      105P     67
0;                                                                   105P     68
126,1,1,0,0,1,0,0.175,0.175,0.375,0.375,1.,1.,3.50000002235174,      107P     69
-3.5,9.,3.50000002235174,-5.5,9.,0.175,0.375,0.,0.,0.;               107P     70
126,1,1,0,0,1,0,0.,0.,0.1,0.1,1.,1.,3.50000002235174,-3.5,10.,       109P     71
3.50000002235174,-3.5,9.,0.,0.1,0.,0.,0.;                            109P     72
126,1,1,0,0,1,0,0.,0.,0.2,0.2,1.,1.,3.50000002235174,-5.5,10.,       111P     73
3.50000002235174,-3.5,10.,0.,0.2,0.,0.,0.;                           111P     74
126,1,1,0,0,1,0,0.,0.,0.1,0.1,1.,1.,3.50000002235174,-5.5,10.,       113P     75
3.50000002235174,-5.5,9.,0.,0.1,0.,0.,0.;                            113P     76
126,1,1,0,0,1,0,-0.55,-0.55,-0.35,-0.35,1.,1.,3.50000002235174,      115P     77
-5.5,8.82842722205569,3.50000002235174,-3.5,8.82842722205569,        115P     78
-0.55,-0.35,0.,0.,0.;                                                115P     79
126,1,1,0,0,1,0,0.117157277794431,0.117157277794431,0.2,0.2,1.,      117P     80
1.,3.50000002235174,-5.5,8.82842722205569,3.50000002235174,-5.5,     117P     81
8.,0.117157277794431,0.2,0.,0.,0.;                                   117P     82
126,1,1,0,0,1,0,-0.2,-0.2,0.,0.,1.,1.,3.50000002235174,-3.5,8.,      119P     83
3.50000002235174,-5.5,8.,-0.2,0.,0.,0.,0.;                           119P     84
126,1,1,0,0,1,0,0.117157277794431,0.117157277794431,0.2,0.2,1.,      121P     85
1.,3.50000002235174,-3.5,8.82842722205569,3.50000002235174,-3.5,     121P     86
8.,0.117157277794431,0.2,0.,0.,0.;                                   121P     87
126,1,1,0,0,1,0,-0.149978857919367,-0.149978857919367,               123P     88
0.0500211443158073,0.0500211443158073,1.,1.,1.5,-3.5,9.,             123P     89
3.50000002235174,-3.5,9.,-0.149978857919367,0.0500211443158073,      123P     90
0.,0.,0.;                                                            123P     91
126,1,1,0,0,1,0,-0.05,-0.05,0.0499999999999999,                      125P     92
0.0499999999999999,1.,1.,1.5,-3.5,10.,1.5,-3.5,9.,-0.05,             125P     93
0.0499999999999999,0.,0.,0.;                                         125P     94
126,1,1,0,0,1,0,0.,0.,0.2,0.2,1.,1.,3.50000002235174,-3.5,10.,       127P     95
1.50000002235174,-3.5,10.,0.,0.2,0.,0.,0.;                           127P     96
126,2,2,0,0,0,0,1.57093728145297,1.57093728145297,                   129P     97
1.57093728145297,1.91063322834648,1.91063322834648,                  129P     98
1.91063322834648,1.,0.985610475729464,1.,4.49957713602719,-5.5,      129P     99
9.00000005960464,3.98507618091151,-5.5,8.99992753829796,             129P    100
3.50000002235174,-5.5,8.82842722205569,1.57093728145297,             129P    101
1.91063322834648,0.,0.,0.;                                           129P    102
126,1,1,0,0,1,0,-0.0499788556841927,-0.0499788556841927,             131P    103
0.0499788556841927,0.0499788556841927,1.,1.,3.50000002235174,        131P    104
-5.5,9.,4.4995771360356,-5.5,9.,-0.0499788556841927,                 131P    105
0.0499788556841927,0.,0.,0.;                                         131P    106
126,1,1,0,0,1,0,0.2,0.2,0.399999997764826,0.399999997764826,1.,      133P    107
1.,5.5,-5.5,10.,3.50000002235174,-5.5,10.,0.2,0.399999997764826,     133P    108
0.,0.,0.;                                                            133P    109
126,1,1,0,0,1,0,0.,0.,0.1,0.1,1.,1.,5.5,-5.5,10.,5.5,-5.5,9.,0.,     135P    110
0.1,0.,0.,0.;                                                        135P    111
126,1,1,0,0,1,0,-0.100000001117587,-0.100000001117587,               137P    112
-1.11758702292519D-9,-1.11758702292519D-9,1.,1.,4.5,-5.5,9.,5.5,     137P    113
-5.5,9.,-0.100000001117587,-1.11758702292519D-9,0.,0.,0.;            137P    114
126,2,2,0,0,0,0,1.23095941734077,1.23095941734077,                   139P    115
1.23095941734077,1.5707963267949,1.5707963267949,                    139P    116
1.5707963267949,1.,0.985598559653488,1.,5.5,-5.5,                    139P    117
8.82842721415316,5.01471862576143,-5.5,9.00000008940697,4.5,         139P    118
-5.5,9.00000008940697,1.23095941734077,1.5707963267949,0.,0.,0.;     139P    119
126,1,1,0,0,1,0,0.117157278584684,0.117157278584684,0.2,0.2,1.,      141P    120
1.,5.5,-5.5,8.82842721415316,5.5,-5.5,8.,0.117157278584684,0.2,      141P    121
0.,0.,0.;                                                            141P    122
126,1,1,0,0,1,0,-0.399999997764826,-0.399999997764826,-0.2,-0.2,     143P    123
1.,1.,3.50000002235174,-5.5,8.,5.5,-5.5,8.,-0.399999997764826,       143P    124
-0.2,0.,0.,0.;                                                       143P    125
126,1,1,0,0,1,0,0.35,0.35,0.55,0.55,1.,1.,5.5,-3.5,                  145P    126
8.82842721415316,5.5,-5.5,8.82842721415316,0.35,0.55,0.,0.,0.;       145P    127
126,1,1,0,0,1,0,0.117157278584684,0.117157278584684,0.2,0.2,1.,      147P    128
1.,5.5,-3.5,8.82842721415316,5.5,-3.5,8.,0.117157278584684,0.2,      147P    129
0.,0.,0.;                                                            147P    130
126,1,1,0,0,1,0,0.,0.,0.2,0.2,1.,1.,5.5,-5.5,8.,5.5,-3.5,8.,0.,      149P    131
0.2,0.,0.,0.;                                                        149P    132
126,1,1,0,0,1,0,-0.275,-0.275,-0.075,-0.075,1.,1.,5.5,-5.5,9.,       151P    133
5.5,-3.5,9.,-0.275,-0.075,0.,0.,0.;                                  151P    134
126,1,1,0,0,1,0,0.,0.,0.2,0.2,1.,1.,5.5,-5.5,10.,5.5,-3.5,10.,       153P    135
0.,0.2,0.,0.,0.;                                                     153P    136
126,1,1,0,0,1,0,0.,0.,0.1,0.1,1.,1.,5.5,-3.5,10.,5.5,-3.5,9.,0.,     155P    137
0.1,0.,0.,0.;                                                        155P    138
126,2,2,0,0,0,0,0.729727616242956,0.729727616242956,                 157P    139
0.729727616242956,1.23095941734077,1.23095941734077,                 157P    140
1.23095941734077,1.,0.968759861715506,1.,6.73606805746781,-3.5,      157P    141
8.,6.22407191745596,-3.5,8.57242913270323,5.5,-3.5,                  157P    142
8.82842721415316,0.729727616242956,1.23095941734077,0.,0.,0.;        157P    143
126,1,1,0,0,1,0,0.,0.,0.123606805746781,0.123606805746781,1.,1.,     159P    144
5.5,-3.5,8.,6.73606805746781,-3.5,8.,0.,0.123606805746781,0.,0.,     159P    145
0.;                                                                  159P    146
126,2,2,0,0,0,0,1.91063322834648,1.91063322834648,                   161P    147
1.91063322834648,2.41186503734684,2.41186503734684,                  161P    148
2.41186503734684,1.,0.96875986073561,1.,3.50000002235174,-3.5,       161P    149
8.82842722205569,2.77592809096446,-3.5,8.57242914211755,             161P    150
2.26393194253219,-3.5,8.,1.91063322834648,2.41186503734684,0.,       161P    151
0.,0.;                                                               161P    152
126,1,1,0,0,1,0,-0.123606807981955,-0.123606807981955,0.,0.,1.,      163P    153
1.,2.26393194253219,-3.5,8.,3.50000002235174,-3.5,8.,                163P    154
-0.123606807981955,0.,0.,0.,0.;                                      163P    155
126,1,1,0,0,1,0,-0.1,-0.1,0.1,0.1,1.,1.,5.5,-3.5,9.,7.5,-3.5,9.,     165P    156
-0.1,0.1,0.,0.,0.;                                                   165P    157
126,1,1,0,0,1,0,0.,0.,0.2,0.2,1.,1.,5.5,-3.5,10.,7.5,-3.5,10.,       167P    158
0.,0.2,0.,0.,0.;                                                     167P    159
126,1,1,0,0,1,0,-0.1,-0.1,0.,0.,1.,1.,7.5,-3.5,9.,7.5,-3.5,10.,      169P    160
-0.1,0.,0.,0.,0.;                                                    169P    161
126,1,1,0,0,1,0,0.35,0.35,0.9,0.9,1.,1.,2.26393194253219,-3.5,       171P    162
8.,2.26393194253219,-9.,8.,0.35,0.9,0.,0.,0.;                        171P    163
126,1,1,0,0,1,0,-0.9,-0.9,-0.35,-0.35,1.,1.,6.73606805746781,        173P    164
-9.,8.,6.73606805746781,-3.5,8.,-0.9,-0.35,0.,0.,0.;                 173P    165
126,1,1,0,0,1,0,-0.523606803511607,-0.523606803511607,               175P    166
-0.076393192018045,-0.076393192018045,1.,1.,6.73606805746781,        175P    167
-9.,8.,2.26393194253219,-9.,8.,-0.523606803511607,                   175P    168
-0.076393192018045,0.,0.,0.;                                         175P    169
126,1,1,0,0,1,0,0.,0.,0.899999997764826,0.899999997764826,1.,1.,     177P    170
9.,-9.,10.,2.23517415687269D-8,-9.,10.,0.,0.899999997764826,0.,      177P    171
0.,0.;                                                               177P    172
126,1,1,0,0,1,0,0.,0.,1.,1.,1.,1.,0.,-9.,10.,0.,-9.,0.,0.,1.,0.,     179P    173
0.,0.;                                                               179P    174
126,1,1,0,0,1,0,0.,0.,0.9,0.9,1.,1.,0.,-9.,0.,9.,-9.,0.,0.,0.9,      181P    175
0.,0.,0.;                                                            181P    176
126,1,1,0,0,1,0,0.,0.,1.,1.,1.,1.,9.,-9.,0.,9.,-9.,10.,0.,1.,0.,     183P    177
0.,0.;                                                               183P    178
126,6,2,0,0,0,0,-0.729727616242956,-0.729727616242956,               185P    179
-0.729727616242956,0.803955012448946,0.803955012448946,              185P    180
2.33763764114085,2.33763764114085,3.87132026983275,                  185P    181
3.87132026983275,3.87132026983275,1.,0.720105956945698,1.,           185P    182
0.720105956945697,1.,0.720105956945698,1.,6.73606805746781,-9.,      185P    183
8.,8.66318469296854,-9.,5.84541792785367,6.58159234648427,-9.,       185P    184
3.83968221856987,4.5,-9.,1.83394650928608,2.41840765351573,-9.,      185P    185
3.83968221856987,0.336815307031461,-9.,5.84541792785367,             185P    186
2.26393194253219,-9.,8.,-0.729727616242956,3.87132026983275,0.,      185P    187
0.,0.;                                                               185P    188
126,1,1,0,0,1,0,0.,0.,0.55,0.55,1.,1.,4.5,0.,9.,4.5,-5.5,9.,0.,      187P    189
0.55,0.,0.,0.;                                                       187P    190
126,8,2,0,0,0,0,-1.5707963267949,-1.5707963267949,                   189P    191
-1.5707963267949,-3.52386645172675D-5,-3.52386645172675D-5,          189P    192
1.57072584946586,1.57072584946586,3.14148693759624,                  189P    193
3.14148693759624,4.71224802572662,4.71224802572662,                  189P    194
4.71224802572662,1.,0.70711923982611,1.,0.70711923982611,1.,         189P    195
0.70711923982611,1.,0.70711923982611,1.,4.5,0.,9.00000008940697,     189P    196
7.49989428586905,0.,9.00000008940697,7.49999999813735,0.,            189P    197
6.0001058054005,7.50010571040566,0.,3.00021152139403,                189P    198
4.50021143198693,0.,3.00000009685755,1.5003171535682,0.,             189P    199
2.99978867232107,1.50000001676381,0.,5.9996829414269,                189P    200
1.49968287995942,0.,8.99957721053273,4.49957713602719,0.,            189P    201
9.00000005960464,-1.5707963267949,4.71224802572662,0.,0.,0.;         189P    202
126,1,1,0,0,1,0,0.,0.,0.55,0.55,1.,1.,4.4995771360356,0.,9.,         191P    203
4.4995771360356,-5.5,9.,0.,0.55,0.,0.,0.;                            191P    204
126,1,1,0,0,1,0,0.,0.,0.2,0.2,1.,1.,3.5,-5.5,0.,5.5,-5.5,0.,0.,      193P    205
0.2,0.,0.,0.;                                                        193P    206
126,1,1,0,0,1,0,-0.2,-0.2,0.,0.,1.,1.,3.5,-5.5,2.,3.5,-5.5,0.,       195P    207
-0.2,0.,0.,0.,0.;                                                    195P    208
126,1,1,0,0,1,0,-0.1,-0.1,0.1,0.1,1.,1.,5.5,-5.5,2.,3.5,-5.5,2.,     197P    209
-0.1,0.1,0.,0.,0.;                                                   197P    210
126,1,1,0,0,1,0,-0.1,-0.1,0.1,0.1,1.,1.,5.5,-5.5,0.,5.5,-5.5,2.,     199P    211
-0.1,0.1,0.,0.,0.;                                                   199P    212
126,1,1,0,0,1,0,0.,0.,0.55,0.55,1.,1.,5.5,0.,2.,5.5,-5.5,2.,0.,      201P    213
0.55,0.,0.,0.;                                                       201P    214
126,1,1,0,0,1,0,0.,0.,0.2,0.2,1.,1.,5.5,0.,0.,5.5,0.,2.,0.,0.2,      203P    215
0.,0.,0.;                                                            203P    216
126,1,1,0,0,1,0,0.,0.,0.55,0.55,1.,1.,5.5,0.,0.,5.5,-5.5,0.,0.,      205P    217
0.55,0.,0.,0.;                                                       205P    218
126,1,1,0,0,1,0,0.,0.,0.55,0.55,1.,1.,3.5,0.,2.,3.5,-5.5,2.,0.,      207P    219
0.55,0.,0.,0.;                                                       207P    220
126,1,1,0,0,1,0,0.,0.,0.2,0.2,1.,1.,5.5,0.,2.,3.5,0.,2.,0.,0.2,      209P    221
0.,0.,0.;                                                            209P    222
126,1,1,0,0,1,0,0.,0.,0.55,0.55,1.,1.,3.5,0.,0.,3.5,-5.5,0.,0.,      211P    223
0.55,0.,0.,0.;                                                       211P    224
126,1,1,0,0,1,0,0.,0.,0.2,0.2,1.,1.,3.5,0.,0.,3.5,0.,2.,0.,0.2,      213P    225
0.,0.,0.;                                                            213P    226
126,1,1,0,0,1,0,0.,0.,0.35,0.35,1.,1.,0.,0.,0.,3.5,0.,0.,0.,         215P    227
0.35,0.,0.,0.;                                                       215P    228
126,1,1,0,0,1,0,0.55,0.55,0.9,0.9,1.,1.,5.5,0.,0.,9.,0.,0.,0.55,     217P    229
0.9,0.,0.,0.;                                                        217P    230
126,1,1,0,0,1,0,0.,0.,0.9,0.9,1.,1.,9.,0.,0.,9.,-9.,0.,0.,0.9,       219P    231
0.,0.,0.;                                                            219P    232
126,1,1,0,0,1,0,0.,0.,0.9,0.9,1.,1.,0.,0.,0.,0.,-9.,0.,0.,0.9,       221P    233
0.,0.,0.;                                                            221P    234
126,1,1,0,0,1,0,0.,0.,1.,1.,1.,1.,0.,0.,10.,0.,0.,0.,0.,1.,0.,       223P    235
0.,0.;                                                               223P    236
126,1,1,0,0,1,0,0.,0.,0.9,0.9,1.,1.,0.,0.,10.,0.,-9.,10.,0.,0.9,     225P    237
0.,0.,0.;                                                            225P    238
126,1,1,0,0,1,0,0.75,0.75,0.9,0.9,1.,1.,1.5,0.,10.,0.,0.,10.,        227P    239
0.75,0.9,0.,0.,0.;                                                   227P    240
126,1,1,0,0,1,0,0.,0.,0.9,0.9,1.,1.,9.,0.,10.,9.,-9.,10.,0.,0.9,     229P    241
0.,0.,0.;                                                            229P    242
126,1,1,0,0,1,0,0.,0.,0.15,0.15,1.,1.,9.,0.,10.,7.5,0.,10.,0.,       231P    243
0.15,0.,0.,0.;                                                       231P    244
126,1,1,0,0,1,0,0.,0.,0.35,0.35,1.,1.,7.5,0.,10.,7.5,-3.5,10.,       233P    245
0.,0.35,0.,0.,0.;                                                    233P    246
126,1,1,0,0,1,0,0.,0.,0.35,0.35,1.,1.,1.5,0.,10.,1.5,-3.5,10.,       235P    247
0.,0.35,0.,0.,0.;                                                    235P    248
126,1,1,0,0,1,0,0.,0.,0.35,0.35,1.,1.,1.5,0.,9.,1.5,-3.5,9.,0.,      237P    249
0.35,0.,0.,0.;                                                       237P    250
126,1,1,0,0,1,0,0.,0.,0.1,0.1,1.,1.,1.5,0.,10.,1.5,0.,9.,0.,0.1,     239P    251
0.,0.,0.;                                                            239P    252
126,1,1,0,0,1,0,0.45004228639644,0.45004228639644,0.75,0.75,1.,      241P    253
1.,4.4995771360356,0.,9.,1.5,0.,9.,0.45004228639644,0.75,0.,0.,      241P    254
0.;                                                                  241P    255
126,1,1,0,0,1,0,0.,0.,0.35,0.35,1.,1.,7.5,0.,9.,7.5,-3.5,9.,0.,      243P    256
0.35,0.,0.,0.;                                                       243P    257
126,1,1,0,0,1,0,0.15,0.15,0.45,0.45,1.,1.,7.5,0.,9.,4.5,0.,9.,       245P    258
0.15,0.45,0.,0.,0.;                                                  245P    259
126,1,1,0,0,1,0,0.,0.,0.1,0.1,1.,1.,7.5,0.,10.,7.5,0.,9.,0.,0.1,     247P    260
0.,0.,0.;                                                            247P    261
126,1,1,0,0,1,0,0.,0.,1.,1.,1.,1.,9.,0.,0.,9.,0.,10.,0.,1.,0.,       249P    262
0.,0.;                                                               249P    263
128,1,1,1,1,0,0,1,0,0,-0.001,-0.001,0.201,0.201,-0.001,-0.001,       251P    264
0.101,0.101,1.,1.,1.,1.,3.50000002235174,-3.49,10.01,                251P    265
3.50000002235174,-5.51,10.01,3.50000002235174,-3.49,8.99,            251P    266
3.50000002235174,-5.51,8.99,-0.001,0.201,-0.001,0.101;               251P    267
128,1,1,1,1,0,0,1,0,0,-0.001,-0.001,0.201,0.201,                     253P    268
0.116157277794431,0.116157277794431,0.201,0.201,1.,1.,1.,1.,         253P    269
3.50000002235174,-3.49,8.83842722205569,3.50000002235174,-5.51,      253P    270
8.83842722205569,3.50000002235174,-3.49,7.99,3.50000002235174,       253P    271
-5.51,7.99,-0.001,0.201,0.116157277794431,0.201;                     253P    272
128,1,1,1,1,0,0,1,0,0,-0.00100000223517421,-0.00100000223517421,     255P    273
0.201,0.201,-0.001,-0.001,0.101,0.101,1.,1.,1.,1.,1.49,-3.5,         255P    274
10.01,3.51000002235174,-3.5,10.01,1.49,-3.5,8.99,                    255P    275
3.51000002235174,-3.5,8.99,-0.00100000223517421,0.201,-0.001,        255P    276
0.101;                                                               255P    277
128,1,1,1,1,0,0,1,0,0,-0.001,-0.001,0.200999997764826,               257P    278
0.200999997764826,-0.001,-0.001,0.201,0.201,1.,1.,1.,1.,             257P    279
3.49000002235174,-5.5,10.01,5.51,-5.5,10.01,3.49000002235174,        257P    280
-5.5,7.99,5.51,-5.5,7.99,-0.001,0.200999997764826,-0.001,0.201;      257P    281
128,1,1,1,1,0,0,1,0,0,-0.001,-0.001,0.201,0.201,                     259P    282
0.116157278584684,0.116157278584684,0.201,0.201,1.,1.,1.,1.,5.5,     259P    283
-5.51,8.83842721415316,5.5,-3.49,8.83842721415316,5.5,-5.51,         259P    284
7.99,5.5,-3.49,7.99,-0.001,0.201,0.116157278584684,0.201;            259P    285
128,1,1,1,1,0,0,1,0,0,-0.001,-0.001,0.201,0.201,-0.001,-0.001,       261P    286
0.101,0.101,1.,1.,1.,1.,5.5,-5.51,10.01,5.5,-3.49,10.01,5.5,         261P    287
-5.51,8.99,5.5,-3.49,8.99,-0.001,0.201,-0.001,0.101;                 261P    288
128,1,1,1,1,0,0,1,0,0,-0.001,-0.001,0.124606805746781,               263P    289
0.124606805746781,0.116157278584684,0.116157278584684,0.201,         263P    290
0.201,1.,1.,1.,1.,5.49,-3.5,8.83842721415316,6.74606805746781,       263P    291
-3.5,8.83842721415316,5.49,-3.5,7.99,6.74606805746781,-3.5,7.99,     263P    292
-0.001,0.124606805746781,0.116157278584684,0.201;                    263P    293
128,1,1,1,1,0,0,1,0,0,0.075393192018045,0.075393192018045,0.201,     265P    294
0.201,0.116157277794431,0.116157277794431,0.201,0.201,1.,1.,1.,      265P    295
1.,2.25393194253219,-3.5,8.83842722205569,3.51000002235174,-3.5,     265P    296
8.83842722205569,2.25393194253219,-3.5,7.99,3.51000002235174,        265P    297
-3.5,7.99,0.075393192018045,0.201,0.116157277794431,0.201;           265P    298
128,1,1,1,1,0,0,1,0,0,-0.001,-0.001,0.201,0.201,-0.001,-0.001,       267P    299
0.101,0.101,1.,1.,1.,1.,5.49,-3.5,10.01,7.51,-3.5,10.01,5.49,        267P    300
-3.5,8.99,7.51,-3.5,8.99,-0.001,0.201,-0.001,0.101;                  267P    301
128,1,1,1,1,0,0,1,0,0,-0.224606804629194,-0.224606804629194,         269P    302
0.224606806864368,0.224606806864368,-0.276,-0.276,0.276,0.276,       269P    303
1.,1.,1.,1.,6.74606805746781,-9.01,8.,2.25393194253219,-9.01,8.,     269P    304
6.74606805746781,-3.49,8.,2.25393194253219,-3.49,8.,                 269P    305
-0.224606804629194,0.224606806864368,-0.276,0.276;                   269P    306
128,1,1,1,1,0,0,1,0,0,-0.451,-0.451,0.451,0.451,-0.501,-0.501,       271P    307
0.501,0.501,1.,1.,1.,1.,9.01,-9.,10.01,-0.01,-9.,10.01,9.01,-9.,     271P    308
-0.01,-0.01,-9.,-0.01,-0.451,0.451,-0.501,0.501;                     271P    309
128,1,8,1,2,0,0,0,0,0,0.,0.,3.,3.,1.57093728145297,                  273P    310
1.57093728145297,1.57093728145297,3.14169836958334,                  273P    311
3.14169836958334,4.71245945771372,4.71245945771372,                  273P    312
6.2832205458441,6.2832205458441,7.85398163397448,                    273P    313
7.85398163397448,7.85398163397448,1.,1.,0.707119239826109,           273P    314
0.707119239826109,1.,1.,0.707119239826109,0.707119239826109,1.,      273P    315
1.,0.707119239826109,0.707119239826109,1.,1.,0.707119239826109,      273P    316
0.707119239826109,1.,1.,4.49957713602719,0.,9.00000005960464,        273P    317
4.49957713602719,-9.,9.00000005960464,1.49968287995942,0.,           273P    318
8.99957721053274,1.49968287995942,-9.,8.99957721053274,              273P    319
1.50000001676381,0.,5.9996829414269,1.50000001676381,-9.,            273P    320
5.9996829414269,1.5003171535682,0.,2.99978867232107,                 273P    321
1.5003171535682,-9.,2.99978867232107,4.50021143198693,0.,            273P    322
3.00000009685755,4.50021143198693,-9.,3.00000009685755,              273P    323
7.50010571040566,0.,3.00021152139403,7.50010571040566,-9.,           273P    324
3.00021152139403,7.49999999813735,0.,6.0001058054005,                273P    325
7.49999999813735,-9.,6.0001058054005,7.49989428586905,0.,            273P    326
9.00000008940697,7.49989428586905,-9.,9.00000008940697,4.5,0.,       273P    327
9.00000008940697,4.5,-9.,9.00000008940697,0.,3.,                     273P    328
1.57093728145297,7.85398163397448;                                   273P    329
128,1,1,1,1,0,0,1,0,0,-0.001,-0.001,0.201,0.201,-0.001,-0.001,       275P    330
0.201,0.201,1.,1.,1.,1.,5.51,-5.5,-0.01,3.49,-5.5,-0.01,5.51,        275P    331
-5.5,2.01,3.49,-5.5,2.01,-0.001,0.201,-0.001,0.201;                  275P    332
128,1,1,1,1,0,0,1,0,0,-0.001,-0.001,0.201,0.201,-0.001,-0.001,       277P    333
0.551,0.551,1.,1.,1.,1.,5.5,0.01,2.01,5.5,0.01,-0.01,5.5,-5.51,      277P    334
2.01,5.5,-5.51,-0.01,-0.001,0.201,-0.001,0.551;                      277P    335
128,1,1,1,1,0,0,1,0,0,-0.001,-0.001,0.201,0.201,-0.001,-0.001,       279P    336
0.551,0.551,1.,1.,1.,1.,3.49,0.01,2.,5.51,0.01,2.,3.49,-5.51,2.,     279P    337
5.51,-5.51,2.,-0.001,0.201,-0.001,0.551;                             279P    338
128,1,1,1,1,0,0,1,0,0,-0.001,-0.001,0.201,0.201,-0.001,-0.001,       281P    339
0.551,0.551,1.,1.,1.,1.,3.5,0.01,-0.01,3.5,0.01,2.01,3.5,-5.51,      281P    340
-0.01,3.5,-5.51,2.01,-0.001,0.201,-0.001,0.551;                      281P    341
128,1,1,1,1,0,0,1,0,0,-0.001,-0.001,0.901,0.901,-0.001,-0.001,       283P    342
0.901,0.901,1.,1.,1.,1.,-0.01,0.01,0.,9.01,0.01,0.,-0.01,-9.01,      283P    343
0.,9.01,-9.01,0.,-0.001,0.901,-0.001,0.901;                          283P    344
128,1,1,1,1,0,0,1,0,0,-0.001,-0.001,1.001,1.001,-0.001,-0.001,       285P    345
0.901,0.901,1.,1.,1.,1.,0.,0.01,10.01,0.,0.01,                       285P    346
-0.0099999999999989,0.,-9.01,10.01,0.,-9.01,-0.0099999999999989,     285P    347
-0.001,1.001,-0.001,0.901;                                           285P    348
128,1,1,1,1,0,0,1,0,0,-0.751,-0.751,0.151,0.151,-0.001,-0.001,       287P    349
0.901,0.901,1.,1.,1.,1.,9.01,0.01,10.,-0.01,0.01,10.,9.01,-9.01,     287P    350
10.,-0.01,-9.01,10.,-0.751,0.151,-0.001,0.901;                       287P    351
128,1,1,1,1,0,0,1,0,0,-0.001,-0.001,0.101,0.101,-0.001,-0.001,       289P    352
0.351,0.351,1.,1.,1.,1.,1.5,0.01,8.99,1.5,0.01,10.01,1.5,-3.51,      289P    353
8.99,1.5,-3.51,10.01,-0.001,0.101,-0.001,0.351;                      289P    354
128,1,1,1,1,0,0,1,0,0,-0.001,-0.001,0.30095771360356,                291P    355
0.30095771360356,-0.001,-0.001,0.551,0.551,1.,1.,1.,1.,              291P    356
4.5095771360356,0.01,9.,1.49,0.01,9.,4.5095771360356,-5.51,9.,       291P    357
1.49,-5.51,9.,-0.001,0.30095771360356,-0.001,0.551;                  291P    358
128,1,1,1,1,0,0,1,0,0,-0.001,-0.001,0.301,0.301,-0.001,-0.001,       293P    359
0.551,0.551,1.,1.,1.,1.,7.51,0.01,9.,4.49,0.01,9.,7.51,-5.51,9.,     293P    360
4.49,-5.51,9.,-0.001,0.301,-0.001,0.551;                             293P    361
128,1,1,1,1,0,0,1,0,0,-0.001,-0.001,0.101,0.101,-0.001,-0.001,       295P    362
0.351,0.351,1.,1.,1.,1.,7.5,0.01,10.01,7.5,0.01,8.99,7.5,-3.51,      295P    363
10.01,7.5,-3.51,8.99,-0.001,0.101,-0.001,0.351;                      295P    364
128,1,1,1,1,0,0,1,0,0,-0.001,-0.001,1.001,1.001,-0.001,-0.001,       297P    365
0.901,0.901,1.,1.,1.,1.,9.,0.01,-0.01,9.,0.01,10.01,9.,-9.01,        297P    366
-0.01,9.,-9.01,10.01,-0.001,1.001,-0.001,0.901;                      297P    367
128,1,1,1,1,0,0,1,0,0,-0.451,-0.451,0.451,0.451,-0.501,-0.501,       299P    368
0.501,0.501,1.,1.,1.,1.,-0.01,0.,10.01,9.01,0.,10.01,-0.01,0.,       299P    369
-0.01,9.01,0.,-0.01,-0.451,0.451,-0.501,0.501;                       299P    370
502,48,3.50000002235174,-3.5,9.,3.50000002235174,-5.5,9.,            301P    371
3.50000002235174,-3.5,10.,3.50000002235174,-5.5,10.,                 301P    372
3.50000002235174,-5.5,8.82842722205569,3.50000002235174,-3.5,        301P    373
8.82842722205569,3.50000002235174,-5.5,8.,3.50000002235174,-3.5,     301P    374
8.,1.5,-3.5,9.,1.50000002235174,-3.5,10.,4.4995771360356,-5.5,       301P    375
9.,5.5,-5.5,10.,5.5,-5.5,9.,4.5,-5.5,9.,5.5,-5.5,                    301P    376
8.82842721415316,5.5,-5.5,8.,5.5,-3.5,8.82842721415316,5.5,-3.5,     301P    377
8.,5.5,-3.5,9.,5.5,-3.5,10.,6.73606805746781,-3.5,8.,                301P    378
2.26393194253219,-3.5,8.,7.5,-3.5,9.,7.5,-3.5,10.,                   301P    379
2.26393194253219,-9.,8.,6.73606805746781,-9.,8.,9.,-9.,10.,0.,       301P    380
-9.,10.,0.,-9.,0.,9.,-9.,0.,4.5,0.,9.,4.4995771360356,0.,9.,3.5,     301P    381
-5.5,0.,5.5,-5.5,0.,3.5,-5.5,2.,5.5,-5.5,2.,5.5,0.,2.,5.5,0.,0.,     301P    382
3.5,0.,2.,3.5,0.,0.,0.,0.,0.,9.,0.,0.,0.,0.,10.,1.5,0.,10.,9.,       301P    383
0.,10.,7.5,0.,10.,1.5,0.,9.,7.5,0.,9.;                               301P    384
504,72,107,301,1,301,2,109,301,3,301,1,111,301,4,301,3,113,301,      303P    385
4,301,2,115,301,5,301,6,117,301,5,301,7,119,301,8,301,7,121,301,     303P    386
6,301,8,123,301,9,301,1,125,301,10,301,9,127,301,3,301,10,129,       303P    387
301,11,301,5,131,301,2,301,11,133,301,12,301,4,135,301,12,301,       303P    388
13,137,301,14,301,13,139,301,15,301,14,141,301,15,301,16,143,        303P    389
301,7,301,16,145,301,17,301,15,147,301,17,301,18,149,301,16,301,     303P    390
18,151,301,13,301,19,153,301,12,301,20,155,301,20,301,19,157,        303P    391
301,21,301,17,159,301,18,301,21,161,301,6,301,22,163,301,22,301,     303P    392
8,165,301,19,301,23,167,301,20,301,24,169,301,23,301,24,171,301,     303P    393
22,301,25,173,301,26,301,21,175,301,26,301,25,177,301,27,301,28,     303P    394
179,301,28,301,29,181,301,29,301,30,183,301,30,301,27,185,301,       303P    395
26,301,25,187,301,31,301,14,189,301,31,301,32,191,301,32,301,11,     303P    396
193,301,33,301,34,195,301,35,301,33,197,301,36,301,35,199,301,       303P    397
34,301,36,201,301,37,301,36,203,301,38,301,37,205,301,38,301,34,     303P    398
207,301,39,301,35,209,301,37,301,39,211,301,40,301,33,213,301,       303P    399
40,301,39,215,301,41,301,40,217,301,38,301,42,219,301,42,301,30,     303P    400
221,301,41,301,29,223,301,43,301,41,225,301,43,301,28,227,301,       303P    401
44,301,43,229,301,45,301,27,231,301,45,301,46,233,301,46,301,24,     303P    402
235,301,44,301,10,237,301,47,301,9,239,301,44,301,47,241,301,32,     303P    403
301,47,243,301,48,301,23,245,301,48,301,31,247,301,46,301,48,        303P    404
249,301,42,301,45;                                                   303P    405
406,1,5HBody1;                                                       305P    406
314,62.7450980392157,62.7450980392157,62.7450980392157,13HSteel      307P    407
- Satin;                                                             307P    408
S      1G      2D    308P    408                                        T      1
