                                                                        S      1
,,11HComponent18,11HComponent18,7Hunknown,7Hunknown,32,38,7,99,15,,1.,2,G      1
2HMM,1,0.08,15H20211012.212109,0.01,10000.,7Hunknown,7Hunknown,11,0,;   G      2
     186       1                                                00000000D      1
     186            -141       1       0                               0D      2
     186       2                                                00000000D      3
     186            -141       1       0                               0D      4
     514       3                                                00010000D      5
     514                       1       1                               0D      6
     514       4                                                00010000D      7
     514                       1       1                               0D      8
     510       5                                                00010000D      9
     510            -141       1       1                               0D     10
     510       6                                                00010000D     11
     510            -141       1       1                               0D     12
     510       7                                                00010000D     13
     510            -141       1       1                               0D     14
     510       8                                                00010000D     15
     510            -141       1       1                               0D     16
     510       9                                                00010000D     17
     510            -141       1       1                               0D     18
     510      10                                                00010000D     19
     510            -141       1       1                               0D     20
     510      11                                                00010000D     21
     510            -141       1       1                               0D     22
     510      12                                                00010000D     23
     510            -141       1       1                               0D     24
     510      13                                                00010000D     25
     510            -141       1       1                               0D     26
     510      14                                                00010000D     27
     510            -141       1       1                               0D     28
     510      15                                                00010000D     29
     510            -141       1       1                               0D     30
     510      16                                                00010000D     31
     510            -141       1       1                               0D     32
     508      17                                                00010000D     33
     508                       1       1                               0D     34
     508      18                                                00010000D     35
     508                       1       1                               0D     36
     508      19                                                00010000D     37
     508                       1       1                               0D     38
     508      20                                                00010000D     39
     508                       1       1                               0D     40
     508      21                                                00010000D     41
     508                       1       1                               0D     42
     508      22                                                00010000D     43
     508                       1       1                               0D     44
     508      23                                                00010000D     45
     508                       1       1                               0D     46
     508      24                                                00010000D     47
     508                       1       1                               0D     48
     508      25                                                00010000D     49
     508                       1       1                               0D     50
     508      26                                                00010000D     51
     508                       1       1                               0D     52
     508      27                                                00010000D     53
     508                       1       1                               0D     54
     508      28                                                00010000D     55
     508                       1       1                               0D     56
     126      29                                                00010000D     57
     126       0               3       0                               0D     58
     126      32                                                00010000D     59
     126       0               3       0                               0D     60
     126      35                                                00010000D     61
     126       0               3       0                               0D     62
     126      38                                                00010000D     63
     126       0               3       0                               0D     64
     126      41                                                00010000D     65
     126       0               3       0                               0D     66
     126      44                                                00010000D     67
     126       0               3       0                               0D     68
     126      47                                                00010000D     69
     126       0               3       0                               0D     70
     126      50                                                00010000D     71
     126       0               3       0                               0D     72
     126      53                                                00010000D     73
     126       0               3       0                               0D     74
     126      56                                                00010000D     75
     126       0               3       0                               0D     76
     126      59                                                00010000D     77
     126       0               3       0                               0D     78
     126      62                                                00010000D     79
     126       0               3       0                               0D     80
     126      65                                                00010000D     81
     126       0               3       0                               0D     82
     126      68                                                00010000D     83
     126       0               3       0                               0D     84
     126      71                                                00010000D     85
     126       0               3       0                               0D     86
     126      74                                                00010000D     87
     126       0               3       0                               0D     88
     126      77                                                00010000D     89
     126       0               3       0                               0D     90
     126      80                                                00010000D     91
     126       0               3       0                               0D     92
     126      83                                                00010000D     93
     126       0               3       0                               0D     94
     126      86                                                00010000D     95
     126       0               3       0                               0D     96
     126      89                                                00010000D     97
     126       0               3       0                               0D     98
     126      92                                                00010000D     99
     126       0               3       0                               0D    100
     126      95                                                00010000D    101
     126       0               3       0                               0D    102
     126      98                                                00010000D    103
     126       0               3       0                               0D    104
     128     101                                                00010000D    105
     128       0    -141       6       0                               0D    106
     128     107                                                00010000D    107
     128       0    -141       6       0                               0D    108
     128     113                                                00010000D    109
     128       0    -141       6       0                               0D    110
     128     119                                                00010000D    111
     128       0    -141       6       0                               0D    112
     128     125                                                00010000D    113
     128       0    -141       7       0                               0D    114
     128     132                                                00010000D    115
     128       0    -141       7       0                               0D    116
     128     139                                                00010000D    117
     128       0    -141       6       0                               0D    118
     128     145                                                00010000D    119
     128       0    -141       6       0                               0D    120
     128     151                                                00010000D    121
     128       0    -141       6       0                               0D    122
     128     157                                                00010000D    123
     128       0    -141       6       0                               0D    124
     128     163                                                00010000D    125
     128       0    -141       8       0                               0D    126
     128     171                                                00010000D    127
     128       0    -141       7       0                               0D    128
     502     178                                                00010000D    129
     502                       6       1                               0D    130
     502     184                                                00010000D    131
     502                       6       1                               0D    132
     504     190                                                00010001D    133
     504                       3       1                               0D    134
     504     193                                                00010001D    135
     504                       3       1                               0D    136
     406     196                                                00000000D    137
     406                       1      15                               0D    138
     406     197                                                00000000D    139
     406                       1      15                               0D    140
     314     198                                                00000200D    141
     314                       2       0                               0D    142
186,5,1,0,0,1,137;                                                     1P      1
186,7,1,0,0,1,139;                                                     3P      2
514,6,9,1,11,1,13,1,15,1,17,1,19,1;                                    5P      3
514,6,21,1,23,1,25,1,27,1,29,1,31,1;                                   7P      4
510,105,1,1,33;                                                        9P      5
510,107,1,1,35;                                                       11P      6
510,109,1,1,37;                                                       13P      7
510,111,1,1,39;                                                       15P      8
510,113,1,1,41;                                                       17P      9
510,115,1,1,43;                                                       19P     10
510,117,1,1,45;                                                       21P     11
510,119,1,1,47;                                                       23P     12
510,121,1,1,49;                                                       25P     13
510,123,1,1,51;                                                       27P     14
510,125,1,1,53;                                                       29P     15
510,127,1,1,55;                                                       31P     16
508,4,0,133,1,1,0,0,133,2,1,0,0,133,3,0,0,0,133,4,0,0;                33P     17
508,4,0,133,5,1,0,0,133,4,1,0,0,133,6,0,0,0,133,7,0,0;                35P     18
508,4,0,133,8,1,0,0,133,7,1,0,0,133,9,0,0,0,133,10,0,0;               37P     19
508,4,0,133,11,1,0,0,133,10,1,0,0,133,12,0,0,0,133,2,0,0;             39P     20
508,4,0,133,12,1,0,0,133,9,1,0,0,133,6,1,0,0,133,3,1,0;               41P     21
508,4,0,133,11,0,0,0,133,1,0,0,0,133,5,0,0,0,133,8,0,0;               43P     22
508,4,0,135,1,0,0,0,135,2,1,0,0,135,3,0,0,0,135,4,0,0;                45P     23
508,4,0,135,5,0,0,0,135,4,1,0,0,135,6,0,0,0,135,7,0,0;                47P     24
508,4,0,135,8,0,0,0,135,7,1,0,0,135,9,0,0,0,135,10,0,0;               49P     25
508,4,0,135,11,0,0,0,135,10,1,0,0,135,12,0,0,0,135,2,0,0;             51P     26
508,4,0,135,12,1,0,0,135,9,1,0,0,135,6,1,0,0,135,3,1,0;               53P     27
508,4,0,135,11,1,0,0,135,1,1,0,0,135,5,1,0,0,135,8,1,0;               55P     28
126,1,1,0,0,1,0,0.,0.,17.3491031780931,17.3491031780931,1.,1.,        57P     29
0.,2.41948270026226,135.491031214687,0.,2.41948270026226,             57P     30
-38.0000005662441,0.,17.3491031780931,0.,0.,0.;                       57P     31
126,1,1,0,0,1,0,0.,0.,20.,20.,1.,1.,0.,2.41948270026226,              59P     32
-38.0000005662441,200.,2.41948270026226,-38.0000005662441,0.,         59P     33
20.,0.,0.,0.;                                                         59P     34
126,1,1,0,0,1,0,0.,0.,17.3491031780931,17.3491031780931,1.,1.,        61P     35
200.,2.41948270026226,135.491031214687,200.,2.41948270026226,         61P     36
-38.0000005662441,0.,17.3491031780931,0.,0.,0.;                       61P     37
126,1,1,0,0,1,0,0.,0.,20.,20.,1.,1.,0.,2.41948270026226,              63P     38
135.491031214687,200.,2.41948270026226,135.491031214687,0.,20.,       63P     39
0.,0.,0.;                                                             63P     40
126,1,1,0,0,1,0,0.,0.,1.65805175828598,1.65805175828598,1.,1.,        65P     41
0.,19.0000002831221,135.491031214687,0.,2.41948270026226,             65P     42
135.491031214687,0.,1.65805175828598,0.,0.,0.;                        65P     43
126,1,1,0,0,1,0,0.,0.,1.65805175828598,1.65805175828598,1.,1.,        67P     44
200.,19.0000002831221,135.491031214687,200.,2.41948270026226,         67P     45
135.491031214687,0.,1.65805175828598,0.,0.,0.;                        67P     46
126,1,1,0,0,1,0,0.,0.,20.,20.,1.,1.,0.,19.0000002831221,              69P     47
135.491031214687,200.,19.0000002831221,135.491031214687,0.,20.,       69P     48
0.,0.,0.;                                                             69P     49
126,1,1,0,0,1,0,0.,0.,17.3491031780931,17.3491031780931,1.,1.,        71P     50
0.,19.0000002831221,-38.0000005662441,0.,19.0000002831221,            71P     51
135.491031214687,0.,17.3491031780931,0.,0.,0.;                        71P     52
126,1,1,0,0,1,0,0.,0.,17.3491031780931,17.3491031780931,1.,1.,        73P     53
200.,19.0000002831221,-38.0000005662441,200.,19.0000002831221,        73P     54
135.491031214687,0.,17.3491031780931,0.,0.,0.;                        73P     55
126,1,1,0,0,1,0,0.,0.,20.,20.,1.,1.,0.,19.0000002831221,              75P     56
-38.0000005662441,200.,19.0000002831221,-38.0000005662441,0.,         75P     57
20.,0.,0.,0.;                                                         75P     58
126,1,1,0,0,1,0,0.,0.,1.65805175828598,1.65805175828598,1.,1.,        77P     59
0.,2.41948270026226,-38.0000005662441,0.,19.0000002831221,            77P     60
-38.0000005662441,0.,1.65805175828598,0.,0.,0.;                       77P     61
126,1,1,0,0,1,0,0.,0.,1.65805175828598,1.65805175828598,1.,1.,        79P     62
200.,2.41948270026226,-38.0000005662441,200.,19.0000002831221,        79P     63
-38.0000005662441,0.,1.65805175828598,0.,0.,0.;                       79P     64
126,1,1,0,0,1,0,0.,0.,2.70000004023314,2.70000004023314,1.,1.,        81P     65
0.,-6.00000008940697,-48.0000007152557,0.,-33.0000004917383,          81P     66
-48.0000007152557,0.,2.70000004023314,0.,0.,0.;                       81P     67
126,1,1,0,0,1,0,0.,0.,20.,20.,1.,1.,0.,-6.00000008940697,             83P     68
-48.0000007152557,200.,-6.00000008940697,-48.0000007152557,0.,        83P     69
20.,0.,0.,0.;                                                         83P     70
126,1,1,0,0,1,0,-2.70000004023314,-2.70000004023314,0.,0.,1.,1.,      85P     71
200.,-33.0000004917383,-48.0000007152557,200.,-6.00000008940697,      85P     72
-48.0000007152557,-2.70000004023314,0.,0.,0.,0.;                      85P     73
126,1,1,0,0,1,0,0.,0.,20.,20.,1.,1.,0.,-33.0000004917383,             87P     74
-48.0000007152557,200.,-33.0000004917383,-48.0000007152557,0.,        87P     75
20.,0.,0.,0.;                                                         87P     76
126,1,1,0,0,1,0,0.,0.,18.7000002786517,18.7000002786517,1.,1.,        89P     77
0.,-33.0000004917383,-48.0000007152557,0.,-33.0000004917383,          89P     78
139.000002071261,0.,18.7000002786517,0.,0.,0.;                        89P     79
126,1,1,0,0,1,0,-18.7000002786517,-18.7000002786517,0.,0.,1.,1.,      91P     80
200.,-33.0000004917383,139.000002071261,200.,-33.0000004917383,       91P     81
-48.0000007152557,-18.7000002786517,0.,0.,0.,0.;                      91P     82
126,1,1,0,0,1,0,0.,0.,20.,20.,1.,1.,0.,-33.0000004917383,             93P     83
139.000002071261,200.,-33.0000004917383,139.000002071261,0.,20.,      93P     84
0.,0.,0.;                                                             93P     85
126,1,1,0,0,1,0,0.,0.,2.70000004023314,2.70000004023314,1.,1.,        95P     86
0.,-33.0000004917383,139.000002071261,0.,-6.00000008940697,           95P     87
139.000002071261,0.,2.70000004023314,0.,0.,0.;                        95P     88
126,1,1,0,0,1,0,-2.70000004023314,-2.70000004023314,0.,0.,1.,1.,      97P     89
200.,-6.00000008940697,139.000002071261,200.,-33.0000004917383,       97P     90
139.000002071261,-2.70000004023314,0.,0.,0.,0.;                       97P     91
126,1,1,0,0,1,0,0.,0.,20.,20.,1.,1.,0.,-6.00000008940697,             99P     92
139.000002071261,200.,-6.00000008940697,139.000002071261,0.,20.,      99P     93
0.,0.,0.;                                                             99P     94
126,1,1,0,0,1,0,0.,0.,18.7000002786517,18.7000002786517,1.,1.,       101P     95
0.,-6.00000008940697,139.000002071261,0.,-6.00000008940697,          101P     96
-48.0000007152557,0.,18.7000002786517,0.,0.,0.;                      101P     97
126,1,1,0,0,1,0,-18.7000002786517,-18.7000002786517,0.,0.,1.,1.,     103P     98
200.,-6.00000008940697,-48.0000007152557,200.,-6.00000008940697,     103P     99
139.000002071261,-18.7000002786517,0.,0.,0.,0.;                      103P    100
128,1,1,1,1,0,0,1,0,0,-0.001,-0.001,17.3501031780931,                105P    101
17.3501031780931,-0.001,-0.001,20.001,20.001,1.,1.,1.,1.,-0.01,      105P    102
2.41948270026226,135.501031214687,-0.01,2.41948270026226,            105P    103
-38.0100005662442,200.01,2.41948270026226,135.501031214687,          105P    104
200.01,2.41948270026226,-38.0100005662442,-0.001,                    105P    105
17.3501031780931,-0.001,20.001;                                      105P    106
128,1,1,1,1,0,0,1,0,0,-0.001,-0.001,1.65905175828598,                107P    107
1.65905175828598,-0.001,-0.001,20.001,20.001,1.,1.,1.,1.,-0.01,      107P    108
19.0100002831221,135.491031214687,-0.01,2.40948270026226,            107P    109
135.491031214687,200.01,19.0100002831221,135.491031214687,           107P    110
200.01,2.40948270026226,135.491031214687,-0.001,                     107P    111
1.65905175828598,-0.001,20.001;                                      107P    112
128,1,1,1,1,0,0,1,0,0,-0.001,-0.001,17.3501031780931,                109P    113
17.3501031780931,-0.001,-0.001,20.001,20.001,1.,1.,1.,1.,-0.01,      109P    114
19.0000002831221,-38.0100005662441,-0.01,19.0000002831221,           109P    115
135.501031214687,200.01,19.0000002831221,-38.0100005662441,          109P    116
200.01,19.0000002831221,135.501031214687,-0.001,                     109P    117
17.3501031780931,-0.001,20.001;                                      109P    118
128,1,1,1,1,0,0,1,0,0,-0.001,-0.001,1.65905175828598,                111P    119
1.65905175828598,-0.001,-0.001,20.001,20.001,1.,1.,1.,1.,-0.01,      111P    120
2.40948270026226,-38.0000005662441,-0.01,19.0100002831221,           111P    121
-38.0000005662441,200.01,2.40948270026226,-38.0000005662441,         111P    122
200.01,19.0100002831221,-38.0000005662441,-0.001,                    111P    123
1.65905175828598,-0.001,20.001;                                      111P    124
128,1,1,1,1,0,0,1,0,0,-9.00010305366841,-9.00010305366841,           113P    125
8.3510001244247,8.3510001244247,0.940948280457038,                   113P    126
0.940948280457038,2.60100003874302,2.60100003874302,1.,1.,1.,1.,     113P    127
200.,2.40948270026226,135.501031214687,200.,2.40948270026226,        113P    128
-38.0100005662441,200.,19.0100002831221,135.501031214687,200.,       113P    129
19.0100002831221,-38.0100005662441,-9.00010305366841,                113P    130
8.3510001244247,0.940948280457038,2.60100003874302;                  113P    131
128,1,1,1,1,0,0,1,0,0,-9.00010305366841,-9.00010305366841,           115P    132
8.3510001244247,8.3510001244247,0.940948280457038,                   115P    133
0.940948280457038,2.60100003874302,2.60100003874302,1.,1.,1.,1.,     115P    134
0.,2.40948270026226,-38.0100005662441,0.,2.40948270026226,           115P    135
135.501031214687,0.,19.0100002831221,-38.0100005662441,0.,           115P    136
19.0100002831221,135.501031214687,-9.00010305366841,                 115P    137
8.3510001244247,0.940948280457038,2.60100003874302;                  115P    138
128,1,1,1,1,0,0,1,0,0,-0.001,-0.001,2.70100004023314,                117P    139
2.70100004023314,-0.001,-0.001,20.001,20.001,1.,1.,1.,1.,-0.01,      117P    140
-33.0100004917383,-48.0000007152557,-0.01,-5.99000008940697,         117P    141
-48.0000007152557,200.01,-33.0100004917383,-48.0000007152557,        117P    142
200.01,-5.99000008940697,-48.0000007152557,-0.001,                   117P    143
2.70100004023314,-0.001,20.001;                                      117P    144
128,1,1,1,1,0,0,1,0,0,-0.001,-0.001,18.7010002786517,                119P    145
18.7010002786517,-0.001,-0.001,20.001,20.001,1.,1.,1.,1.,-0.01,      119P    146
-33.0000004917383,139.010002071261,-0.01,-33.0000004917383,          119P    147
-48.0100007152557,200.01,-33.0000004917383,139.010002071261,         119P    148
200.01,-33.0000004917383,-48.0100007152557,-0.001,                   119P    149
18.7010002786517,-0.001,20.001;                                      119P    150
128,1,1,1,1,0,0,1,0,0,-0.001,-0.001,2.70100004023314,                121P    151
2.70100004023314,-0.001,-0.001,20.001,20.001,1.,1.,1.,1.,-0.01,      121P    152
-5.99000008940697,139.000002071261,-0.01,-33.0100004917383,          121P    153
139.000002071261,200.01,-5.99000008940697,139.000002071261,          121P    154
200.01,-33.0100004917383,139.000002071261,-0.001,                    121P    155
2.70100004023314,-0.001,20.001;                                      121P    156
128,1,1,1,1,0,0,1,0,0,-0.001,-0.001,18.7010002786517,                123P    157
18.7010002786517,-0.001,-0.001,20.001,20.001,1.,1.,1.,1.,-0.01,      123P    158
-6.00000008940697,-48.0100007152557,-0.01,-6.00000008940697,         123P    159
139.010002071261,200.01,-6.00000008940697,-48.0100007152557,         123P    160
200.01,-6.00000008940697,139.010002071261,-0.001,                    123P    161
18.7010002786517,-0.001,20.001;                                      123P    162
128,1,1,1,1,0,0,1,0,0,-9.35100013932586,-9.35100013932586,           125P    163
9.35100013932586,9.35100013932586,-2.60100003874302,                 125P    164
-2.60100003874302,0.101000001490116,0.101000001490116,1.,1.,1.,      125P    165
1.,200.,-33.0100004917383,139.010002071261,200.,                     125P    166
-33.0100004917383,-48.0100007152557,200.,-5.99000008940697,          125P    167
139.010002071261,200.,-5.99000008940697,-48.0100007152557,           125P    168
-9.35100013932586,9.35100013932586,-2.60100003874302,                125P    169
0.101000001490116;                                                   125P    170
128,1,1,1,1,0,0,1,0,0,-9.35100013932586,-9.35100013932586,           127P    171
9.35100013932586,9.35100013932586,-2.60100003874302,                 127P    172
-2.60100003874302,0.101000001490116,0.101000001490116,1.,1.,1.,      127P    173
1.,0.,-33.0100004917383,-48.0100007152557,0.,-33.0100004917383,      127P    174
139.010002071261,0.,-5.99000008940697,-48.0100007152557,0.,          127P    175
-5.99000008940697,139.010002071261,-9.35100013932586,                127P    176
9.35100013932586,-2.60100003874302,0.101000001490116;                127P    177
502,8,0.,2.41948270026226,135.491031214687,0.,2.41948270026226,      129P    178
-38.0000005662441,200.,2.41948270026226,-38.0000005662441,200.,      129P    179
2.41948270026226,135.491031214687,0.,19.0000002831221,               129P    180
135.491031214687,200.,19.0000002831221,135.491031214687,0.,          129P    181
19.0000002831221,-38.0000005662441,200.,19.0000002831221,            129P    182
-38.0000005662441;                                                   129P    183
502,8,0.,-6.00000008940697,-48.0000007152557,0.,                     131P    184
-33.0000004917383,-48.0000007152557,200.,-6.00000008940697,          131P    185
-48.0000007152557,200.,-33.0000004917383,-48.0000007152557,0.,       131P    186
-33.0000004917383,139.000002071261,200.,-33.0000004917383,           131P    187
139.000002071261,0.,-6.00000008940697,139.000002071261,200.,         131P    188
-6.00000008940697,139.000002071261;                                  131P    189
504,12,57,129,1,129,2,59,129,2,129,3,61,129,4,129,3,63,129,1,        133P    190
129,4,65,129,5,129,1,67,129,6,129,4,69,129,5,129,6,71,129,7,129,     133P    191
5,73,129,8,129,6,75,129,7,129,8,77,129,2,129,7,79,129,3,129,8;       133P    192
504,12,81,131,1,131,2,83,131,1,131,3,85,131,4,131,3,87,131,2,        135P    193
131,4,89,131,2,131,5,91,131,6,131,4,93,131,5,131,6,95,131,5,131,     135P    194
7,97,131,8,131,6,99,131,7,131,8,101,131,7,131,1,103,131,3,131,8;     135P    195
406,1,5HBody1;                                                       137P    196
406,1,5HBody2;                                                       139P    197
314,62.7450980392157,62.7450980392157,62.7450980392157,13HSteel      141P    198
- Satin;                                                             141P    199
S      1G      2D    142P    199                                        T      1
