0
SECTION
2
HEADER
9
$INSUNITS
70
4
9
$ACADVER
1
AC1014
9
$HANDSEED
5
FFFF
0
ENDSEC
0
SECTION
2
TABLES
0
TABLE
2
VPORT
5
8
100
AcDbSymbolTable
0
ENDTAB
0
TABLE
2
LTYPE
5
5
100
AcDbSymbolTable
0
LTYPE
5
14
100
AcDbSymbolTableRecord
100
AcDbLinetypeTableRecord
2
BYBLOCK
70
0
0
LTYPE
5
15
100
AcDbSymbolTableRecord
100
AcDbLinetypeTableRecord
2
BYLAYER
70
0
0
ENDTAB
0
TABLE
2
LAYER
5
2
100
AcDbSymbolTable
70
2
0
LAYER
5
50
100
AcDbSymbolTableRecord
100
AcDbLayerTableRecord
2
0
70
0
6
CONTINUOUS
0
ENDTAB
0
TABLE
2
STYLE
5
3
100
AcDbSymbolTable
70
1
0
STYLE
5
11
100
AcDbSymbolTableRecord
100
AcDbTextStyleTableRecord
2
STANDARD
70
0
0
ENDTAB
0
TABLE
2
VIEW
5
6
100
AcDbSymbolTable
70
0
0
ENDTAB
0
TABLE
2
UCS
5
7
100
AcDbSymbolTable
70
0
0
ENDTAB
0
TABLE
2
APPID
5
9
100
AcDbSymbolTable
70
2
0
APPID
5
12
100
AcDbSymbolTableRecord
100
AcDbRegAppTableRecord
2
ACAD
70
0
0
ENDTAB
0
TABLE
2
DIMSTYLE
5
A
100
AcDbSymbolTable
70
1
0
ENDTAB
0
TABLE
2
BLOCK_RECORD
5
1
100
AcDbSymbolTable
70
1
0
BLOCK_RECORD
5
1F
100
AcDbSymbolTableRecord
100
AcDbBlockTableRecord
2
*MODEL_SPACE
0
BLOCK_RECORD
5
1B
100
AcDbSymbolTableRecord
100
AcDbBlockTableRecord
2
*PAPER_SPACE
0
ENDTAB
0
ENDSEC
0
SECTION
2
BLOCKS
0
BLOCK
5
20
100
AcDbEntity
100
AcDbBlockBegin
2
*MODEL_SPACE
0
ENDBLK
5
21
100
AcDbEntity
100
AcDbBlockEnd
0
BLOCK
5
1C
100
AcDbEntity
100
AcDbBlockBegin
2
*PAPER_SPACE
0
ENDBLK
5
1D
100
AcDbEntity
100
AcDbBlockEnd
0
ENDSEC
0
SECTION
2
ENTITIES
0
LWPOLYLINE
5
100
100
AcDbEntity
8
0
100
AcDbPolyline
90
4
70
1
43
0.0
10
-23.173829168081284
20
-1.0000000149011612
10
-70.000001043081284
20
-1.0000000149011612
10
-70.000001043081284
20
8.9999999850988388
10
-23.173829168081284
20
8.9999999850988388
0
LINE
5
101
100
AcDbEntity
8
0
100
AcDbLine
10
-69.990001043081278
20
6.3002734225988366
30
0
11
-63.266368230581278
21
6.3002734225988366
31
0
0
LINE
5
102
100
AcDbEntity
8
0
100
AcDbLine
10
-63.266368230581278
20
6.3002734225988366
30
0
11
-63.266368230581278
21
4.5326952975988366
31
0
0
LINE
5
103
100
AcDbEntity
8
0
100
AcDbLine
10
-63.266368230581278
20
4.5326952975988366
30
0
11
-65.522227605581278
21
4.5326952975988366
31
0
0
LINE
5
104
100
AcDbEntity
8
0
100
AcDbLine
10
-65.522227605581278
20
4.5326952975988366
30
0
11
-65.522227605581278
21
-0.8579297024011634
31
0
0
LINE
5
105
100
AcDbEntity
8
0
100
AcDbLine
10
-65.522227605581278
20
-0.8579297024011634
30
0
11
-67.734141668081278
21
-0.8579297024011634
31
0
0
LINE
5
106
100
AcDbEntity
8
0
100
AcDbLine
10
-67.734141668081278
20
-0.8579297024011634
30
0
11
-67.734141668081278
21
4.5326952975988366
31
0
0
LINE
5
107
100
AcDbEntity
8
0
100
AcDbLine
10
-67.734141668081278
20
4.5326952975988366
30
0
11
-69.990001043081278
21
4.5326952975988366
31
0
0
LINE
5
108
100
AcDbEntity
8
0
100
AcDbLine
10
-69.990001043081278
20
4.5326952975988366
30
0
11
-69.990001043081278
21
6.3002734225988366
31
0
0
SPLINE
5
109
100
AcDbEntity
8
0
100
AcDbSpline
70
0
71
3
72
9
73
5
74
0
42
0.000000001
43
0.0000000001
44
0.0000000001
40
0
40
0
40
0
40
0
40
0.15778403639226593
40
0.2958736191192195
40
0.2958736191192195
40
0.2958736191192195
40
0.2958736191192195
10
-62.885508855581278
20
2.7162890475988366
30
0
10
-62.856811552387519
20
3.2555641254028678
30
0
10
-62.802998916147246
20
4.2668024776402476
30
0
10
-62.193439014173748
20
5.0706234245545501
30
0
10
-61.908946355581278
20
5.4457812350988366
30
0
0
SPLINE
5
110
100
AcDbEntity
8
0
100
AcDbSpline
70
0
71
3
72
9
73
5
74
0
42
0.000000001
43
0.0000000001
44
0.0000000001
40
0
40
0
40
0
40
0
40
0.13788267334226348
40
0.29494314955414935
40
0.29494314955414935
40
0.29494314955414935
40
0.29494314955414935
10
-61.908946355581278
20
5.4457812350988366
30
0
10
-61.534646149542965
20
5.7302889056864705
30
0
10
-60.733985131217111
20
6.3388758035277544
30
0
10
-59.725988893621235
20
6.3933406202261249
30
0
10
-59.189219793081278
20
6.4223437350988366
30
0
0
SPLINE
5
111
100
AcDbEntity
8
0
100
AcDbSpline
70
0
71
3
72
9
73
5
74
0
42
0.000000001
43
0.0000000001
44
0.0000000001
40
0
40
0
40
0
40
0
40
0.16001123748372414
40
0.2975292959633809
40
0.2975292959633809
40
0.2975292959633809
40
0.2975292959633809
10
-59.189219793081278
20
6.4223437350988366
30
0
10
-58.642293116501598
20
6.3959380907004171
30
0
10
-57.625322611271308
20
6.3468387092390364
30
0
10
-56.811474287329879
20
5.7422924132131143
30
0
10
-56.435313543081278
20
5.4628710788488366
30
0
0
SPLINE
5
112
100
AcDbEntity
8
0
100
AcDbSpline
70
0
71
3
72
9
73
5
74
0
42
0.000000001
43
0.0000000001
44
0.0000000001
40
0
40
0
40
0
40
0
40
0.13609762790642738
40
0.29161282257593896
40
0.29161282257593896
40
0.29161282257593896
40
0.29161282257593896
10
-56.435313543081278
20
5.4628710788488366
30
0
10
-56.153666035872021
20
5.093949418234013
30
0
10
-55.550187299231311
20
4.3034706390207669
30
0
10
-55.496922457054929
20
3.3065395638034123
30
0
10
-55.468516668081278
20
2.7748827975988366
30
0
0
SPLINE
5
113
100
AcDbEntity
8
0
100
AcDbSpline
70
0
71
3
72
9
73
5
74
0
42
0.000000001
43
0.0000000001
44
0.0000000001
40
0
40
0
40
0
40
0
40
0.11468390544902402
40
0.21161960933468726
40
0.21161960933468726
40
0.21161960933468726
40
0.21161960933468726
10
-55.468516668081278
20
2.7748827975988366
30
0
10
-55.479400605482788
20
2.3889798547514838
30
0
10
-55.499484108672831
20
1.6768953675104903
30
0
10
-55.767919074290198
20
1.01840790820796
30
0
10
-55.890879949331278
20
0.7167773288488366
30
0
0
SPLINE
5
114
100
AcDbEntity
8
0
100
AcDbSpline
70
0
71
3
72
9
73
5
74
0
42
0.000000001
43
0.0000000001
44
0.0000000001
40
0
40
0
40
0
40
0
40
0.088123775230175436
40
0.17662685642821069
40
0.17662685642821069
40
0.17662685642821069
40
0.17662685642821069
10
-55.890879949331278
20
0.7167773288488366
30
0
10
-56.047618058396942
20
0.46372924451214104
30
0
10
-56.361768915126135
20
-0.043456104104959703
30
0
10
-56.861287449439914
20
-0.36973358863013228
30
0
10
-57.111583074331278
20
-0.5332226711511634
30
0
0
SPLINE
5
115
100
AcDbEntity
8
0
100
AcDbSpline
70
0
71
3
72
9
73
5
74
0
42
0.000000001
43
0.0000000001
44
0.0000000001
40
0
40
0
40
0
40
0
40
0.09571748742526566
40
0.20560060331058172
40
0.20560060331058172
40
0.20560060331058172
40
0.20560060331058172
10
-57.111583074331278
20
-0.5332226711511634
30
0
10
-57.406136961333061
20
-0.66336738277407159
30
0
10
-58.038836988298641
20
-0.94291746235847018
30
0
10
-58.731262682191392
20
-0.96708414580731983
30
0
10
-59.101329168081278
20
-0.9800000149011634
30
0
0
SPLINE
5
116
100
AcDbEntity
8
0
100
AcDbSpline
70
0
71
3
72
9
73
5
74
0
42
0.000000001
43
0.0000000001
44
0.0000000001
40
0
40
0
40
0
40
0
40
0.1110761534896481
40
0.205404935989007
40
0.205404935989007
40
0.205404935989007
40
0.205404935989007
10
-59.101329168081278
20
-0.9800000149011634
30
0
10
-59.474631662588294
20
-0.9698672221060689
30
0
10
-60.164952425234219
20
-0.95112939593836821
30
0
10
-60.809654877500037
20
-0.70656838337906258
30
0
10
-61.105723699331278
20
-0.5942578274011634
30
0
0
SPLINE
5
117
100
AcDbEntity
8
0
100
AcDbSpline
70
0
71
3
72
9
73
5
74
0
42
0.000000001
43
0.0000000001
44
0.0000000001
40
0
40
0
40
0
40
0
40
0.087414298492012169
40
0.17934501643234901
40
0.17934501643234901
40
0.17934501643234901
40
0.17934501643234901
10
-61.105723699331278
20
-0.5942578274011634
30
0
10
-61.359649879014711
20
-0.44360421161475649
30
0
10
-61.880621798409464
20
-0.13451318571954918
30
0
10
-62.218930601076437
20
0.36856945088509341
30
0
10
-62.392344793081278
20
0.6264452975988366
30
0
0
SPLINE
5
118
100
AcDbEntity
8
0
100
AcDbSpline
70
0
71
3
72
9
73
5
74
0
42
0.000000001
43
0.0000000001
44
0.0000000001
40
0
40
0
40
0
40
0
40
0.10100969844464558
40
0.21665899912111258
40
0.21665899912111258
40
0.21665899912111258
40
0.21665899912111258
10
-62.392344793081278
20
0.6264452975988366
30
0
10
-62.536008551737027
20
0.93475511954238089
30
0
10
-62.844157636821052
20
1.5960589197720454
30
0
10
-62.871117883298453
20
2.3264286951526514
30
0
10
-62.885508855581278
20
2.7162890475988366
30
0
0
SPLINE
5
119
100
AcDbEntity
8
0
100
AcDbSpline
70
0
71
3
72
9
73
5
74
0
42
0.000000001
43
0.0000000001
44
0.0000000001
40
0
40
0
40
0
40
0
40
0.093682523126977751
40
0.16321174680741535
40
0.16321174680741535
40
0.16321174680741535
40
0.16321174680741535
10
-60.673594793081278
20
2.7065234225988366
30
0
10
-60.669334428831448
20
2.3876740705501041
30
0
10
-60.6619121106867
20
1.8321813491835881
30
0
10
-60.387615031167527
20
1.3530283891952721
30
0
10
-60.270762761831278
20
1.1489062350988366
30
0
0
SPLINE
5
120
100
AcDbEntity
8
0
100
AcDbSpline
70
0
71
3
72
9
73
5
74
0
42
0.000000001
43
0.0000000001
44
0.0000000001
40
0
40
0
40
0
40
0
40
0.059350687620828284
40
0.12254271087676452
40
0.12254271087676452
40
0.12254271087676452
40
0.12254271087676452
10
-60.270762761831278
20
1.1489062350988366
30
0
10
-60.120954801508304
20
1.01080093642818
30
0
10
-59.81164290800205
20
0.72565179386612444
30
0
10
-59.391320476548103
20
0.69241351878808421
30
0
10
-59.174571355581278
20
0.6752734225988366
30
0
0
SPLINE
5
121
100
AcDbEntity
8
0
100
AcDbSpline
70
0
71
3
72
9
73
5
74
0
42
0.000000001
43
0.0000000001
44
0.0000000001
40
0
40
0
40
0
40
0
40
0.064287029453478819
40
0.12285801400392668
40
0.12285801400392668
40
0.12285801400392668
40
0.12285801400392668
10
-59.174571355581278
20
0.6752734225988366
30
0
10
-58.953754468529866
20
0.69074099632367103
30
0
10
-58.531754503182285
20
0.72030085319445103
30
0
10
-58.219783777957552
20
1.0039259689652269
30
0
10
-58.071055730581278
20
1.1391406100988366
30
0
0
SPLINE
5
122
100
AcDbEntity
8
0
100
AcDbSpline
70
0
71
3
72
9
73
5
74
0
42
0.000000001
43
0.0000000001
44
0.0000000001
40
0
40
0
40
0
40
0
40
0.071132645080469931
40
0.17328507662900616
40
0.17328507662900616
40
0.17328507662900616
40
0.17328507662900616
10
-58.071055730581278
20
1.1391406100988366
30
0
10
-57.958008180680466
20
1.3511086525993188
30
0
10
-57.682614887978886
20
1.8674805440992626
30
0
10
-57.681240776353647
20
2.4567829282747189
30
0
10
-57.680430730581278
20
2.8041796725988366
30
0
0
SPLINE
5
123
100
AcDbEntity
8
0
100
AcDbSpline
70
0
71
3
72
9
73
5
74
0
42
0.000000001
43
0.0000000001
44
0.0000000001
40
0
40
0
40
0
40
0
40
0.088055308021902132
40
0.15561353413069351
40
0.15561353413069351
40
0.15561353413069351
40
0.15561353413069351
10
-57.680430730581278
20
2.8041796725988366
30
0
10
-57.686431604176711
20
3.1041597382942268
30
0
10
-57.697036497499248
20
3.63429198404148
30
0
10
-57.969749611430487
20
4.0853901944234501
30
0
10
-58.088145574331278
20
4.2812304538488366
30
0
0
SPLINE
5
124
100
AcDbEntity
8
0
100
AcDbSpline
70
0
71
3
72
9
73
5
74
0
42
0.000000001
43
0.0000000001
44
0.0000000001
40
0
40
0
40
0
40
0
40
0.059417591378915377
40
0.12305551588309557
40
0.12305551588309557
40
0.12305551588309557
40
0.12305551588309557
10
-58.088145574331278
20
4.2812304538488366
30
0
10
-58.23990984735282
20
4.4171929355455353
30
0
10
-58.554217958400152
20
4.6987750888717699
30
0
10
-58.97598604624087
20
4.7309169471246006
30
0
10
-59.194102605581278
20
4.7475390475988366
30
0
0
SPLINE
5
125
100
AcDbEntity
8
0
100
AcDbSpline
70
0
71
3
72
9
73
5
74
0
42
0.000000001
43
0.0000000001
44
0.0000000001
40
0
40
0
40
0
40
0
40
0.061454249639668689
40
0.12046322051948272
40
0.12046322051948272
40
0.12046322051948272
40
0.12046322051948272
10
-59.194102605581278
20
4.7475390475988366
30
0
10
-59.404660884283885
20
4.7294565238672366
30
0
10
-59.81739927924076
20
4.6940109841917792
30
0
10
-60.120061909566914
20
4.4120331990168458
30
0
10
-60.268321355581278
20
4.2739062350988366
30
0
0
SPLINE
5
126
100
AcDbEntity
8
0
100
AcDbSpline
70
0
71
3
72
9
73
5
74
0
42
0.000000001
43
0.0000000001
44
0.0000000001
40
0
40
0
40
0
40
0
40
0.06982870020856749
40
0.16424596390657645
40
0.16424596390657645
40
0.16424596390657645
40
0.16424596390657645
10
-60.268321355581278
20
4.2739062350988366
30
0
10
-60.385867757796547
20
4.0689999620329882
30
0
10
-60.662351812031105
20
3.5870344058980166
30
0
10
-60.669490879601199
20
3.0279275837896167
30
0
10
-60.673594793081278
20
2.7065234225988366
30
0
0
LINE
5
127
100
AcDbEntity
8
0
100
AcDbLine
10
-54.189219793081278
20
6.3002734225988366
30
0
11
-51.972422918081278
21
6.3002734225988366
31
0
0
LINE
5
128
100
AcDbEntity
8
0
100
AcDbLine
10
-51.972422918081278
20
6.3002734225988366
30
0
11
-51.972422918081278
21
-0.8579297024011634
31
0
0
LINE
5
129
100
AcDbEntity
8
0
100
AcDbLine
10
-51.972422918081278
20
-0.8579297024011634
30
0
11
-54.189219793081278
21
-0.8579297024011634
31
0
0
LINE
5
130
100
AcDbEntity
8
0
100
AcDbLine
10
-54.189219793081278
20
-0.8579297024011634
30
0
11
-54.189219793081278
21
6.3002734225988366
31
0
0
LINE
5
131
100
AcDbEntity
8
0
100
AcDbLine
10
-50.385508855581278
20
6.3002734225988366
30
0
11
-48.173594793081278
21
6.3002734225988366
31
0
0
LINE
5
132
100
AcDbEntity
8
0
100
AcDbLine
10
-48.173594793081278
20
6.3002734225988366
30
0
11
-48.173594793081278
21
0.9047656100988366
31
0
0
LINE
5
133
100
AcDbEntity
8
0
100
AcDbLine
10
-48.173594793081278
20
0.9047656100988366
30
0
11
-44.721446355581278
21
0.9047656100988366
31
0
0
LINE
5
134
100
AcDbEntity
8
0
100
AcDbLine
10
-44.721446355581278
20
0.9047656100988366
30
0
11
-44.721446355581278
21
-0.8579297024011634
31
0
0
LINE
5
135
100
AcDbEntity
8
0
100
AcDbLine
10
-44.721446355581278
20
-0.8579297024011634
30
0
11
-50.385508855581278
21
-0.8579297024011634
31
0
0
LINE
5
136
100
AcDbEntity
8
0
100
AcDbLine
10
-50.385508855581278
20
-0.8579297024011634
30
0
11
-50.385508855581278
21
6.3002734225988366
31
0
0
LINE
5
137
100
AcDbEntity
8
0
100
AcDbLine
10
-43.720469793081278
20
6.3002734225988366
30
0
11
-37.792735418081278
21
6.3002734225988366
31
0
0
LINE
5
138
100
AcDbEntity
8
0
100
AcDbLine
10
-37.792735418081278
20
6.3002734225988366
30
0
11
-37.792735418081278
21
4.7719531100988366
31
0
0
LINE
5
139
100
AcDbEntity
8
0
100
AcDbLine
10
-37.792735418081278
20
4.7719531100988366
30
0
11
-41.503672918081278
21
4.7719531100988366
31
0
0
LINE
5
140
100
AcDbEntity
8
0
100
AcDbLine
10
-41.503672918081278
20
4.7719531100988366
30
0
11
-41.503672918081278
21
3.6342577975988366
31
0
0
LINE
5
141
100
AcDbEntity
8
0
100
AcDbLine
10
-41.503672918081278
20
3.6342577975988366
30
0
11
-38.061290105581278
21
3.6342577975988366
31
0
0
LINE
5
142
100
AcDbEntity
8
0
100
AcDbLine
10
-38.061290105581278
20
3.6342577975988366
30
0
11
-38.061290105581278
21
2.1742968600988366
31
0
0
LINE
5
143
100
AcDbEntity
8
0
100
AcDbLine
10
-38.061290105581278
20
2.1742968600988366
30
0
11
-41.503672918081278
21
2.1742968600988366
31
0
0
LINE
5
144
100
AcDbEntity
8
0
100
AcDbLine
10
-41.503672918081278
20
2.1742968600988366
30
0
11
-41.503672918081278
21
0.7631640475988366
31
0
0
LINE
5
145
100
AcDbEntity
8
0
100
AcDbLine
10
-41.503672918081278
20
0.7631640475988366
30
0
11
-37.685313543081278
21
0.7631640475988366
31
0
0
LINE
5
146
100
AcDbEntity
8
0
100
AcDbLine
10
-37.685313543081278
20
0.7631640475988366
30
0
11
-37.685313543081278
21
-0.8579297024011634
31
0
0
LINE
5
147
100
AcDbEntity
8
0
100
AcDbLine
10
-37.685313543081278
20
-0.8579297024011634
30
0
11
-43.720469793081278
21
-0.8579297024011634
31
0
0
LINE
5
148
100
AcDbEntity
8
0
100
AcDbLine
10
-43.720469793081278
20
-0.8579297024011634
30
0
11
-43.720469793081278
21
6.3002734225988366
31
0
0
LINE
5
149
100
AcDbEntity
8
0
100
AcDbLine
10
-36.996836980581278
20
6.3002734225988366
30
0
11
-30.273204168081278
21
6.3002734225988366
31
0
0
LINE
5
150
100
AcDbEntity
8
0
100
AcDbLine
10
-30.273204168081278
20
6.3002734225988366
30
0
11
-30.273204168081278
21
4.5326952975988366
31
0
0
LINE
5
151
100
AcDbEntity
8
0
100
AcDbLine
10
-30.273204168081278
20
4.5326952975988366
30
0
11
-32.529063543081278
21
4.5326952975988366
31
0
0
LINE
5
152
100
AcDbEntity
8
0
100
AcDbLine
10
-32.529063543081278
20
4.5326952975988366
30
0
11
-32.529063543081278
21
-0.8579297024011634
31
0
0
LINE
5
153
100
AcDbEntity
8
0
100
AcDbLine
10
-32.529063543081278
20
-0.8579297024011634
30
0
11
-34.740977605581278
21
-0.8579297024011634
31
0
0
LINE
5
154
100
AcDbEntity
8
0
100
AcDbLine
10
-34.740977605581278
20
-0.8579297024011634
30
0
11
-34.740977605581278
21
4.5326952975988366
31
0
0
LINE
5
155
100
AcDbEntity
8
0
100
AcDbLine
10
-34.740977605581278
20
4.5326952975988366
30
0
11
-36.996836980581278
21
4.5326952975988366
31
0
0
LINE
5
156
100
AcDbEntity
8
0
100
AcDbLine
10
-36.996836980581278
20
4.5326952975988366
30
0
11
-36.996836980581278
21
6.3002734225988366
31
0
0
LINE
5
157
100
AcDbEntity
8
0
100
AcDbLine
10
-29.657969793081278
20
1.5102343600988366
30
0
11
-27.553477605581278
21
1.6420702975988366
31
0
0
SPLINE
5
158
100
AcDbEntity
8
0
100
AcDbSpline
70
0
71
3
72
9
73
5
74
0
42
0.000000001
43
0.0000000001
44
0.0000000001
40
0
40
0
40
0
40
0
40
0.046342527521309122
40
0.083638753822162737
40
0.083638753822162737
40
0.083638753822162737
40
0.083638753822162737
10
-27.553477605581278
20
1.6420702975988366
30
0
10
-27.529339196113007
20
1.4876265901274266
30
0
10
-27.485774319634324
20
1.2088873862149152
30
0
10
-27.340111372348865
20
0.9681638378359092
30
0
10
-27.275157293081278
20
0.8608202975988366
30
0
0
SPLINE
5
159
100
AcDbEntity
8
0
100
AcDbSpline
70
0
71
3
72
9
73
5
74
0
42
0.000000001
43
0.0000000001
44
0.0000000001
40
0
40
0
40
0
40
0
40
0.052771802265575457
40
0.10996548903636014
40
0.10996548903636014
40
0.10996548903636014
40
0.10996548903636014
10
-27.275157293081278
20
0.8608202975988366
30
0
10
-27.14505477261217
20
0.73412691672970598
30
0
10
-26.873948108180883
20
0.4701241920391408
30
0
10
-26.495452531386377
20
0.44126159087484851
30
0
10
-26.298594793081278
20
0.4262499850988366
30
0
0
SPLINE
5
160
100
AcDbEntity
8
0
100
AcDbSpline
70
0
71
3
72
9
73
5
74
0
42
0.000000001
43
0.0000000001
44
0.0000000001
40
0
40
0
40
0
40
0
40
0.042297407318136346
40
0.07755069222138869
40
0.07755069222138869
40
0.07755069222138869
40
0.07755069222138869
10
-26.298594793081278
20
0.4262499850988366
30
0
10
-26.154591275723416
20
0.43163960469193463
30
0
10
-25.890566287869639
20
0.44152126781872969
30
0
10
-25.669230141123247
20
0.58375899408450893
30
0
10
-25.568614324331278
20
0.6484179538488366
30
0
0
SPLINE
5
161
100
AcDbEntity
8
0
100
AcDbSpline
70
0
71
3
72
9
73
5
74
0
42
0.000000001
43
0.0000000001
44
0.0000000001
40
0
40
0
40
0
40
0
40
0.030741003418431671
40
0.059004037536126722
40
0.059004037536126722
40
0.059004037536126722
40
0.059004037536126722
10
-25.568614324331278
20
0.6484179538488366
30
0
10
-25.493885586611277
20
0.72320443439880422
30
0
10
-25.350451841608184
20
0.86674901053060749
30
0
10
-25.324633633555528
20
1.0674287410832684
30
0
10
-25.312266668081278
20
1.1635546725988366
30
0
0
SPLINE
5
162
100
AcDbEntity
8
0
100
AcDbSpline
70
0
71
3
72
9
73
5
74
0
42
0.000000001
43
0.0000000001
44
0.0000000001
40
0
40
0
40
0
40
0
40
0.027064395054107074
40
0.056806495402125068
40
0.056806495402125068
40
0.056806495402125068
40
0.056806495402125068
10
-25.312266668081278
20
1.1635546725988366
30
0
10
-25.324227705312037
20
1.2554471498148034
30
0
10
-25.349333184488458
20
1.4483237899178869
30
0
10
-25.485247052249377
20
1.5883094460232139
30
0
10
-25.556407293081278
20
1.6616015475988366
30
0
0
SPLINE
5
163
100
AcDbEntity
8
0
100
AcDbSpline
70
0
71
3
72
9
73
5
74
0
42
0.000000001
43
0.0000000001
44
0.0000000001
40
0
40
0
40
0
40
0
40
0.045812811013866507
40
0.12130330702585659
40
0.12130330702585659
40
0.12130330702585659
40
0.12130330702585659
10
-25.556407293081278
20
1.6616015475988366
30
0
10
-25.689216851354423
20
1.7385617969952594
30
0
10
-26.04087042306606
20
1.9423373906495123
30
0
10
-26.440511679431495
20
2.0251216267989047
30
0
10
-26.689219793081278
20
2.0766406100988366
30
0
0
SPLINE
5
164
100
AcDbEntity
8
0
100
AcDbSpline
70
0
71
3
72
9
73
5
74
0
42
0.000000001
43
0.0000000001
44
0.0000000001
40
0
40
0
40
0
40
0
40
0.13032313689951469
40
0.22652205606697906
40
0.22652205606697906
40
0.22652205606697906
40
0.22652205606697906
10
-26.689219793081278
20
2.0766406100988366
30
0
10
-27.116504306036468
20
2.1766851813001065
30
0
10
-27.859191818805698
20
2.3505783403047475
30
0
10
-28.494579834633143
20
2.7683590048798634
30
0
10
-28.764415105581278
20
2.9457812350988366
30
0
0
SPLINE
5
165
100
AcDbEntity
8
0
100
AcDbSpline
70
0
71
3
72
9
73
5
74
0
42
0.000000001
43
0.0000000001
44
0.0000000001
40
0
40
0
40
0
40
0
40
0.077443103362797888
40
0.15555980595562457
40
0.15555980595562457
40
0.15555980595562457
40
0.15555980595562457
10
-28.764415105581278
20
2.9457812350988366
30
0
10
-28.946705799879979
20
3.1394571262638959
30
0
10
-29.312872750857871
20
3.5284934992870398
30
0
10
-29.363827439979708
20
4.0604747597360511
30
0
10
-29.389415105581278
20
4.3276171725988366
30
0
0
SPLINE
5
166
100
AcDbEntity
8
0
100
AcDbSpline
70
0
71
3
72
9
73
5
74
0
42
0.000000001
43
0.0000000001
44
0.0000000001
40
0
40
0
40
0
40
0
40
0.054242434756432319
40
0.11023832381368731
40
0.11023832381368731
40
0.11023832381368731
40
0.11023832381368731
10
-29.389415105581278
20
4.3276171725988366
30
0
10
-29.37526115306386
20
4.5102522169883095
30
0
10
-29.346495703875163
20
4.8814262111782813
30
0
10
-29.162866098635281
20
5.205488980371662
30
0
10
-29.069590886831278
20
5.3700976413488366
30
0
0
SPLINE
5
167
100
AcDbEntity
8
0
100
AcDbSpline
70
0
71
3
72
9
73
5
74
0
42
0.000000001
43
0.0000000001
44
0.0000000001
40
0
40
0
40
0
40
0
40
0.059359945095183386
40
0.12465660926139049
40
0.12465660926139049
40
0.12465660926139049
40
0.12465660926139049
10
-29.069590886831278
20
5.3700976413488366
30
0
10
-28.944863767622337
20
5.5269115181870987
30
0
10
-28.682935294834884
20
5.8562225736546525
30
0
10
-28.30542260927853
20
6.0434893677724988
30
0
10
-28.107676824331278
20
6.1415820163488366
30
0
0
SPLINE
5
168
100
AcDbEntity
8
0
100
AcDbSpline
70
0
71
3
72
9
73
5
74
0
42
0.000000001
43
0.0000000001
44
0.0000000001
40
0
40
0
40
0
40
0
40
0.078970010887015787
40
0.17913080372541212
40
0.17913080372541212
40
0.17913080372541212
40
0.17913080372541212
10
-28.107676824331278
20
6.1415820163488366
30
0
10
-27.855932157446361
20
6.223178063446114
30
0
10
-27.284889757854948
20
6.4082656091254986
30
0
10
-26.683621439936864
20
6.4172949750340269
30
0
10
-26.347422918081278
20
6.4223437350988366
30
0
0
SPLINE
5
169
100
AcDbEntity
8
0
100
AcDbSpline
70
0
71
3
72
9
73
5
74
0
42
0.000000001
43
0.0000000001
44
0.0000000001
40
0
40
0
40
0
40
0
40
0.12158169420800737
40
0.21783430977909862
40
0.21783430977909862
40
0.21783430977909862
40
0.21783430977909862
10
-26.347422918081278
20
6.4223437350988366
30
0
10
-25.935688161333612
20
6.4129232298119101
30
0
10
-25.197995228754884
20
6.3960447903369912
30
0
10
-24.544078465749291
20
6.0603988703980995
30
0
10
-24.255137761831278
20
5.9120898288488366
30
0
0
SPLINE
5
170
100
AcDbEntity
8
0
100
AcDbSpline
70
0
71
3
72
9
73
5
74
0
42
0.000000001
43
0.0000000001
44
0.0000000001
40
0
40
0
40
0
40
0
40
0.08756726438370134
40
0.18788236410779358
40
0.18788236410779358
40
0.18788236410779358
40
0.18788236410779358
10
-24.255137761831278
20
5.9120898288488366
30
0
10
-24.038238518782737
20
5.7056728694569525
30
0
10
-23.572864353631413
20
5.2627892576936075
30
0
10
-23.458999477305483
20
4.6276639702970659
30
0
10
-23.398204168081278
20
4.2885546725988366
30
0
0
LINE
5
171
100
AcDbEntity
8
0
100
AcDbLine
10
-23.398204168081278
20
4.2885546725988366
30
0
11
-25.483165105581278
21
4.1664843600988366
31
0
0
SPLINE
5
172
100
AcDbEntity
8
0
100
AcDbSpline
70
0
71
3
72
9
73
5
74
0
42
0.000000001
43
0.0000000001
44
0.0000000001
40
0
40
0
40
0
40
0
40
0.04368927863051781
40
0.079764360602928866
40
0.079764360602928866
40
0.079764360602928866
40
0.079764360602928866
10
-25.483165105581278
20
4.1664843600988366
30
0
10
-25.513490077968683
20
4.3121758506176944
30
0
10
-25.568854966302929
20
4.5781676213860676
30
0
10
-25.750247619773976
20
4.7788476611429118
30
0
10
-25.832286199331278
20
4.8696093600988366
30
0
0
SPLINE
5
173
100
AcDbEntity
8
0
100
AcDbSpline
70
0
71
3
72
9
73
5
74
0
42
0.000000001
43
0.0000000001
44
0.0000000001
40
0
40
0
40
0
40
0
40
0.0357074443616716
40
0.077875847126221892
40
0.077875847126221892
40
0.077875847126221892
40
0.077875847126221892
10
-25.832286199331278
20
4.8696093600988366
30
0
10
-25.935029677531773
20
4.9335798949862673
30
0
10
-26.159107192587598
20
5.0730958890466997
30
0
10
-26.423814905532971
20
5.0836312239034847
30
0
10
-26.567149480581278
20
5.0893359225988366
30
0
0
SPLINE
5
174
100
AcDbEntity
8
0
100
AcDbSpline
70
0
71
3
72
9
73
5
74
0
42
0.000000001
43
0.0000000001
44
0.0000000001
40
0
40
0
40
0
40
0
40
0.034059859444697249
40
0.061273942890327393
40
0.061273942890327393
40
0.061273942890327393
40
0.061273942890327393
10
-26.567149480581278
20
5.0893359225988366
30
0
10
-26.683020930219151
20
5.0861408402336554
30
0
10
-26.891474538175419
20
5.0803928630673978
30
0
10
-27.06924815718893
20
4.9733178020523559
30
0
10
-27.148204168081278
20
4.9257617038488366
30
0
0
SPLINE
5
175
100
AcDbEntity
8
0
100
AcDbSpline
70
0
71
3
72
9
73
5
74
0
42
0.000000001
43
0.0000000001
44
0.0000000001
40
0
40
0
40
0
40
0
40
0.023306240647698487
40
0.045517084120511919
40
0.045517084120511919
40
0.045517084120511919
40
0.045517084120511919
10
-27.148204168081278
20
4.9257617038488366
30
0
10
-27.205160655128566
20
4.8692698561366026
30
0
10
-27.316396664887883
20
4.7589412869216066
30
0
10
-27.334622875412364
20
4.6036093656732593
30
0
10
-27.343516668081278
20
4.5278124850988366
30
0
0
SPLINE
5
176
100
AcDbEntity
8
0
100
AcDbSpline
70
0
71
3
72
9
73
5
74
0
42
0.000000001
43
0.0000000001
44
0.0000000001
40
0
40
0
40
0
40
0
40
0.016727641940753973
40
0.03562371625599145
40
0.03562371625599145
40
0.03562371625599145
40
0.03562371625599145
10
-27.343516668081278
20
4.5278124850988366
30
0
10
-27.335308789670052
20
4.4710525872562723
30
0
10
-27.317829031756695
20
4.3501749104968024
30
0
10
-27.229327948503041
20
4.2652450749191821
30
0
10
-27.182383855581278
20
4.2201952975988366
30
0
0
SPLINE
5
177
100
AcDbEntity
8
0
100
AcDbSpline
70
0
71
3
72
9
73
5
74
0
42
0.000000001
43
0.0000000001
44
0.0000000001
40
0
40
0
40
0
40
0
40
0.029700988917471777
40
0.079207988353552153
40
0.079207988353552153
40
0.079207988353552153
40
0.079207988353552153
10
-27.182383855581278
20
4.2201952975988366
30
0
10
-27.095956035884747
20
4.1708379423447735
30
0
10
-26.865466278288849
20
4.0392094355974404
30
0
10
-26.603765790541534
20
3.9883265285866489
30
0
10
-26.440196355581278
20
3.9565234225988366
30
0
0
SPLINE
5
178
100
AcDbEntity
8
0
100
AcDbSpline
70
0
71
3
72
9
73
5
74
0
42
0.000000001
43
0.0000000001
44
0.0000000001
40
0
40
0
40
0
40
0
40
0.12835892164692425
40
0.21753431365759332
40
0.21753431365759332
40
0.21753431365759332
40
0.21753431365759332
10
-26.440196355581278
20
3.9565234225988366
30
0
10
-26.020905673701861
20
3.8658477086606147
30
0
10
-25.31031922177954
20
3.7121764332722087
30
0
10
-24.638119330436297
20
3.4370030078551697
30
0
10
-24.362559636831278
20
3.3241992038488366
30
0
0
SPLINE
5
179
100
AcDbEntity
8
0
100
AcDbSpline
70
0
71
3
72
9
73
5
74
0
42
0.000000001
43
0.0000000001
44
0.0000000001
40
0
40
0
40
0
40
0
40
0.064970569229160016
40
0.12216259504246207
40
0.12216259504246207
40
0.12216259504246207
40
0.12216259504246207
10
-24.362559636831278
20
3.3241992038488366
30
0
10
-24.171220996246426
20
3.2168368823749107
30
0
10
-23.811451563054355
20
3.0149660975465209
30
0
10
-23.564900038653434
20
2.6851499435438497
30
0
10
-23.449473699331278
20
2.5307421725988366
30
0
0
SPLINE
5
180
100
AcDbEntity
8
0
100
AcDbSpline
70
0
71
3
72
9
73
5
74
0
42
0.000000001
43
0.0000000001
44
0.0000000001
40
0
40
0
40
0
40
0
40
0.054553446638014966
40
0.11079478475393761
40
0.11079478475393761
40
0.11079478475393761
40
0.11079478475393761
10
-23.449473699331278
20
2.5307421725988366
30
0
10
-23.36616615267679
20
2.3667399824010382
30
0
10
-23.196973511903607
20
2.0336613506748158
30
0
10
-23.174988923321742
20
1.6605629994680382
30
0
10
-23.163829168081278
20
1.4711718600988366
30
0
0
SPLINE
5
181
100
AcDbEntity
8
0
100
AcDbSpline
70
0
71
3
72
9
73
5
74
0
42
0.000000001
43
0.0000000001
44
0.0000000001
40
0
40
0
40
0
40
0
40
0.066843723577108063
40
0.13401124223791105
40
0.13401124223791105
40
0.13401124223791105
40
0.13401124223791105
10
-23.163829168081278
20
1.4711718600988366
30
0
10
-23.179851124895823
20
1.2459227755408586
30
0
10
-23.211972649863284
20
0.79433348608804133
30
0
10
-23.433604744440551
20
0.39952287972953915
30
0
10
-23.544688543081278
20
0.2016406100988366
30
0
0
SPLINE
5
182
100
AcDbEntity
8
0
100
AcDbSpline
70
0
71
3
72
9
73
5
74
0
42
0.000000001
43
0.0000000001
44
0.0000000001
40
0
40
0
40
0
40
0
40
0.068513777608987525
40
0.13970455696907733
40
0.13970455696907733
40
0.13970455696907733
40
0.13970455696907733
10
-23.544688543081278
20
0.2016406100988366
30
0
10
-23.686365752353218
20
0.01873958150102828
30
0
10
-23.975255847815625
20
-0.3542088685942657
30
0
10
-24.395164316303408
20
-0.5698304156675138
30
0
10
-24.609141668081278
20
-0.6797070461511634
30
0
0
SPLINE
5
183
100
AcDbEntity
8
0
100
AcDbSpline
70
0
71
3
72
9
73
5
74
0
42
0.000000001
43
0.0000000001
44
0.0000000001
40
0
40
0
40
0
40
0
40
0.080485841176759138
40
0.17587449604179609
40
0.17587449604179609
40
0.17587449604179609
40
0.17587449604179609
10
-24.609141668081278
20
-0.6797070461511634
30
0
10
-24.864448044110794
20
-0.76712685321368435
30
0
10
-25.42233350028485
20
-0.95815317891768448
30
0
10
-26.012621374071401
20
-0.97231765815438465
30
0
10
-26.332774480581278
20
-0.9800000149011634
30
0
0
SPLINE
5
184
100
AcDbEntity
8
0
100
AcDbSpline
70
0
71
3
72
9
73
5
74
0
42
0.000000001
43
0.0000000001
44
0.0000000001
40
0
40
0
40
0
40
0
40
0.15553750669508021
40
0.26716745366258099
40
0.26716745366258099
40
0.26716745366258099
40
0.26716745366258099
10
-26.332774480581278
20
-0.9800000149011634
30
0
10
-26.864845616039574
20
-0.97564370635110587
30
0
10
-27.778786526166339
20
-0.96816085615363257
30
0
10
-28.542832026438205
20
-0.48059394663099608
30
0
10
-28.862071355581278
20
-0.2768750149011634
30
0
0
SPLINE
5
185
100
AcDbEntity
8
0
100
AcDbSpline
70
0
71
3
72
9
73
5
74
0
42
0.000000001
43
0.0000000001
44
0.0000000001
40
0
40
0
40
0
40
0
40
0.096976162788478856
40
0.1988519384796415
40
0.1988519384796415
40
0.1988519384796415
40
0.1988519384796415
10
-28.862071355581278
20
-0.2768750149011634
30
0
10
-29.071347563016452
20
-0.02237468557035216
30
0
10
-29.500473425801115
20
0.49948431952890227
30
0
10
-29.604615666310991
20
1.1678284574807229
30
0
10
-29.657969793081278
20
1.5102343600988366
30
0
0
ENDSEC
0
SECTION
2
OBJECTS
0
DICTIONARY
5
C
100
AcDbDictionary
3
ACAD_GROUP
350
D
3
ACAD_MLINESTYLE
350
17
0
DICTIONARY
5
D
100
AcDbDictionary
0
DICTIONARY
5
1A
330
C
100
AcDbDictionary
0
DICTIONARY
5
17
100
AcDbDictionary
0
ENDSEC
0
EOF
