                                                                        S      1
,,7Hbelt v3,7Hbelt v3,7Hunknown,7Hunknown,32,38,7,99,15,,1.,2,2HMM,1,   G      1
0.08,15H20211012.212307,0.01,10000.,7Hunknown,7Hunknown,11,0,15H20170807G      2
.135323;                                                                G      3
     186       1                                                00000000D      1
     186            -123       1       0                               0D      2
     514       2                                                00010000D      3
     514                       1       1                               0D      4
     510       3                                                00010000D      5
     510            -123       1       1                               0D      6
     510       4                                                00010000D      7
     510            -123       1       1                               0D      8
     510       5                                                00010000D      9
     510            -123       1       1                               0D     10
     510       6                                                00010000D     11
     510            -123       1       1                               0D     12
     510       7                                                00010000D     13
     510            -123       1       1                               0D     14
     510       8                                                00010000D     15
     510            -123       1       1                               0D     16
     510       9                                                00010000D     17
     510            -123       1       1                               0D     18
     510      10                                                00010000D     19
     510            -123       1       1                               0D     20
     510      11                                                00010000D     21
     510            -123       1       1                               0D     22
     510      12                                                00010000D     23
     510            -123       1       1                               0D     24
     508      13                                                00010000D     25
     508                       1       1                               0D     26
     508      14                                                00010000D     27
     508                       1       1                               0D     28
     508      15                                                00010000D     29
     508                       1       1                               0D     30
     508      16                                                00010000D     31
     508                       1       1                               0D     32
     508      17                                                00010000D     33
     508                       1       1                               0D     34
     508      18                                                00010000D     35
     508                       1       1                               0D     36
     508      19                                                00010000D     37
     508                       1       1                               0D     38
     508      20                                                00010000D     39
     508                       1       1                               0D     40
     508      21                                                00010000D     41
     508                       1       1                               0D     42
     508      22                                                00010000D     43
     508                       1       1                               0D     44
     508      23                                                00010000D     45
     508                       1       1                               0D     46
     508      24                                                00010000D     47
     508                       1       1                               0D     48
     126      25                                                00010000D     49
     126       0               3       0                               0D     50
     126      28                                                00010000D     51
     126       0               7       0                               0D     52
     126      35                                                00010000D     53
     126       0               3       0                               0D     54
     126      38                                                00010000D     55
     126       0               7       0                               0D     56
     126      45                                                00010000D     57
     126       0               3       0                               0D     58
     126      48                                                00010000D     59
     126       0               3       0                               0D     60
     126      51                                                00010000D     61
     126       0               3       0                               0D     62
     126      54                                                00010000D     63
     126       0               3       0                               0D     64
     126      57                                                00010000D     65
     126       0               3       0                               0D     66
     126      60                                                00010000D     67
     126       0               3       0                               0D     68
     126      63                                                00010000D     69
     126       0               9       0                               0D     70
     126      72                                                00010000D     71
     126       0               9       0                               0D     72
     126      81                                                00010000D     73
     126       0               3       0                               0D     74
     126      84                                                00010000D     75
     126       0               8       0                               0D     76
     126      92                                                00010000D     77
     126       0               3       0                               0D     78
     126      95                                                00010000D     79
     126       0               8       0                               0D     80
     126     103                                                00010000D     81
     126       0               3       0                               0D     82
     126     106                                                00010000D     83
     126       0               4       0                               0D     84
     126     110                                                00010000D     85
     126       0               4       0                               0D     86
     126     114                                                00010000D     87
     126       0               4       0                               0D     88
     126     118                                                00010000D     89
     126       0               3       0                               0D     90
     126     121                                                00010000D     91
     126       0               4       0                               0D     92
     126     125                                                00010000D     93
     126       0              10       0                               0D     94
     126     135                                                00010000D     95
     126       0              10       0                               0D     96
     128     145                                                00010000D     97
     128       0    -123      14       0                               0D     98
     128     159                                                00010000D     99
     128       0    -123       5       0                               0D    100
     128     164                                                00010000D    101
     128       0    -123       7       0                               0D    102
     128     171                                                00010000D    103
     128       0    -123      18       0                               0D    104
     128     189                                                00010000D    105
     128       0    -123      14       0                               0D    106
     128     203                                                00010000D    107
     128       0    -123       7       0                               0D    108
     128     210                                                00010000D    109
     128       0    -123       7       0                               0D    110
     128     217                                                00010000D    111
     128       0    -123      18       0                               0D    112
     128     235                                                00010000D    113
     128       0    -123       7       0                               0D    114
     128     242                                                00010000D    115
     128       0    -123       7       0                               0D    116
     502     249                                                00010000D    117
     502                      11       1                               0D    118
     504     260                                                00010001D    119
     504                       7       1                               0D    120
     406     267                                                00000000D    121
     406                       1      15                               0D    122
     314     268                                                00000200D    123
     314                       2       0                               0D    124
186,3,1,0,0,1,121;                                                     1P      1
514,10,5,1,7,1,9,1,11,1,13,1,15,1,17,1,19,1,21,1,23,1;                 3P      2
510,97,1,1,25;                                                         5P      3
510,99,1,1,27;                                                         7P      4
510,101,1,1,29;                                                        9P      5
510,103,1,1,31;                                                       11P      6
510,105,1,1,33;                                                       13P      7
510,107,1,1,35;                                                       15P      8
510,109,1,1,37;                                                       17P      9
510,111,1,1,39;                                                       19P     10
510,113,2,1,41,43;                                                    21P     11
510,115,2,1,45,47;                                                    23P     12
508,4,0,119,1,1,0,0,119,2,1,0,0,119,3,0,0,0,119,4,0,0;                25P     13
508,4,0,119,5,1,0,0,119,6,1,0,0,119,1,0,0,0,119,7,0,0;                27P     14
508,4,0,119,3,1,0,0,119,8,1,0,0,119,9,1,0,0,119,10,0,0;               29P     15
508,4,0,119,9,0,0,0,119,11,1,0,0,119,5,0,0,0,119,12,0,0;              31P     16
508,4,0,119,13,0,0,0,119,14,1,0,0,119,15,1,0,0,119,16,0,0;            33P     17
508,4,0,119,17,0,0,0,119,18,1,0,0,119,13,1,0,0,119,19,0,0;            35P     18
508,4,0,119,15,0,0,0,119,20,1,0,0,119,21,0,0,0,119,22,0,0;            37P     19
508,4,0,119,21,1,0,0,119,23,1,0,0,119,17,1,0,0,119,24,0,0;            39P     20
508,4,0,119,24,1,0,0,119,19,1,0,0,119,16,1,0,0,119,22,1,0;            41P     21
508,4,0,119,8,0,0,0,119,2,0,0,0,119,6,0,0,0,119,11,0,0;               43P     22
508,4,0,119,20,0,0,0,119,14,0,0,0,119,18,0,0,0,119,23,0,0;            45P     23
508,4,0,119,12,1,0,0,119,7,1,0,0,119,4,1,0,0,119,10,1,0;              47P     24
126,1,1,0,0,1,0,-1.5,-1.5,0.,0.,1.,1.,-44.6679889415297,20.,          49P     25
3.29458410453037,-44.6679889415297,5.,3.29458410453037,-1.5,0.,       49P     26
0.,0.,0.;                                                             49P     27
126,4,2,0,0,0,0,0.,0.,0.,0.898537122608066,0.898537122608066,         51P     28
1.79707424521613,1.79707424521613,1.79707424521613,1.,                51P     29
0.900765012076627,1.,0.900765012076611,1.,-44.6679889415297,5.,       51P     30
3.29458410453038,-46.2564834404074,5.,2.00820481413639,               51P     31
-46.239241990636,5.,-0.0357592716853414,-46.2220005408645,5.,         51P     32
-2.07972335750708,-44.6120316365039,5.,-3.3391226503095,0.,           51P     33
1.79707424521613,0.,0.,0.;                                            51P     34
126,1,1,0,0,1,0,-1.5,-1.5,0.,0.,1.,1.,-44.6120316365039,20.,          53P     35
-3.3391226503095,-44.6120316365039,5.,-3.3391226503095,-1.5,0.,       53P     36
0.,0.,0.;                                                             53P     37
126,4,2,0,0,0,0,0.,0.,0.,0.898537122608066,0.898537122608066,         55P     38
1.79707424521613,1.79707424521613,1.79707424521613,1.,                55P     39
0.900765012076627,1.,0.900765012076611,1.,-44.6679889415297,20.,      55P     40
3.29458410453038,-46.2564834404074,20.,2.00820481413639,              55P     41
-46.239241990636,20.,-0.0357592716853414,-46.2220005408645,20.,       55P     42
-2.07972335750708,-44.6120316365039,20.,-3.3391226503095,0.,          55P     43
1.79707424521613,0.,0.,0.;                                            55P     44
126,1,1,0,0,1,0,-1.5,-1.5,0.,0.,1.,1.,18.0899390045939,20.,           57P     45
52.3849891821094,18.0899390045939,5.,52.3849891821094,-1.5,0.,        57P     46
0.,0.,0.;                                                             57P     47
126,1,1,0,0,1,0,0.,0.,7.96770066629742,7.96770066629742,1.,1.,        59P     48
18.0899390045939,5.,52.3849891821094,-44.6679889415297,5.,            59P     49
3.29458410453036,0.,7.96770066629742,0.,0.,0.;                        59P     50
126,1,1,0,0,1,0,0.,0.,7.96770066629742,7.96770066629742,1.,1.,        61P     51
18.0899390045939,20.,52.3849891821094,-44.6679889415297,20.,          61P     52
3.29458410453036,0.,7.96770066629742,0.,0.,0.;                        61P     53
126,1,1,0,0,1,0,0.,0.,7.79802374069884,7.79802374069884,1.,1.,        63P     54
-44.6120316365039,5.,-3.33912265030952,16.8093854306244,5.,           63P     55
-51.3841739200934,0.,7.79802374069884,0.,0.,0.;                       63P     56
126,1,1,0,0,1,0,0.,0.,1.5,1.5,1.,1.,16.8093854306243,5.,              65P     57
-51.3841739200933,16.8093854306243,20.,-51.3841739200933,0.,1.5,      65P     58
0.,0.,0.;                                                             65P     59
126,1,1,0,0,1,0,0.,0.,7.79802374069884,7.79802374069884,1.,1.,        67P     60
-44.6120316365039,20.,-3.33912265030952,16.8093854306244,20.,         67P     61
-51.3841739200934,0.,7.79802374069884,0.,0.,0.;                       67P     62
126,6,2,0,0,0,0,0.,0.,0.,1.48945661086453,1.48945661086453,           69P     63
2.97891322172905,2.97891322172905,4.46836983259358,                   69P     64
4.46836983259358,4.46836983259358,1.,0.735272076505718,1.,            69P     65
0.735272076505717,1.,0.735272076505717,1.,16.8093854306243,5.,        69P     66
-51.3841739200933,64.1751957648738,5.,-89.3535860821912,              69P     67
105.867546111341,5.,-45.2293957650556,147.559896457808,5.,            69P     68
-1.10520544792004,106.969097472419,5.,44.0343923159404,               69P     69
66.3782984870303,5.,89.1739900798009,18.0899390045939,5.,             69P     70
52.3849891821092,0.,4.46836983259358,0.,0.,0.;                        69P     71
126,6,2,0,0,0,0,0.,0.,0.,1.48945661086453,1.48945661086453,           71P     72
2.97891322172905,2.97891322172905,4.46836983259358,                   71P     73
4.46836983259358,4.46836983259358,1.,0.735272076505718,1.,            71P     74
0.735272076505717,1.,0.735272076505717,1.,16.8093854306243,20.,       71P     75
-51.3841739200933,64.1751957648738,20.,-89.3535860821912,             71P     76
105.867546111341,20.,-45.2293957650556,147.559896457808,20.,          71P     77
-1.10520544792004,106.969097472419,20.,44.0343923159404,              71P     78
66.3782984870303,20.,89.1739900798009,18.0899390045939,20.,           71P     79
52.3849891821092,0.,4.46836983259358,0.,0.,0.;                        71P     80
126,1,1,0,0,1,0,-0.75,-0.75,0.75,0.75,1.,1.,-45.9122466374911,        73P     81
20.,4.86048824168856,-45.9122466374911,5.,4.86048824168856,           73P     82
-0.75,0.75,0.,0.,0.;                                                  73P     83
126,4,2,0,0,0,0,-0.00296781768934061,-0.00296781768934061,            75P     84
-0.00296781768934061,0.897062783306188,0.897062783306188,             75P     85
1.79709338430172,1.79709338430172,1.79709338430172,1.,                75P     86
0.900440447058092,1.,0.9004404470581,1.,-45.9122466374911,20.,        75P     87
4.86048824168856,-48.2602218257426,20.,2.97058416026632,              75P     88
-48.2392416525582,20.,-0.043430563313272,-48.2182614793738,20.,       75P     89
-3.05744528689286,-45.8442043273735,20.,-4.91447990171769,            75P     90
-0.00296781768934061,1.79709338430172,0.,0.,0.;                       75P     91
126,1,1,0,0,1,0,-0.75,-0.75,0.75,0.75,1.,1.,-45.8442043268951,        77P     92
20.,-4.91447990110611,-45.8442043268951,5.,-4.91447990110611,         77P     93
-0.75,0.75,0.,0.,0.;                                                  77P     94
126,4,2,0,0,0,0,-0.00296781768934061,-0.00296781768934061,            79P     95
-0.00296781768934061,0.897062783306188,0.897062783306188,             79P     96
1.79709338430172,1.79709338430172,1.79709338430172,1.,                79P     97
0.900440447058092,1.,0.9004404470581,1.,-45.9122466374911,5.,         79P     98
4.86048824168856,-48.2602218257426,5.,2.97058416026632,               79P     99
-48.2392416525582,5.,-0.043430563313272,-48.2182614793738,5.,         79P    100
-3.05744528689286,-45.8442043273735,5.,-4.91447990171769,             79P    101
-0.00296781768934061,1.79709338430172,0.,0.,0.;                       79P    102
126,1,1,0,0,1,0,-0.75,-0.75,0.75,0.75,1.,1.,16.8676755480478,         81P    103
20.,53.968097617714,16.8676755480478,5.,53.968097617714,-0.75,        81P    104
0.75,0.,0.,0.;                                                        81P    105
126,1,1,0,0,1,0,-0.00126600193783787,-0.00126600193783787,            83P    106
7.96922703692152,7.96922703692152,1.,1.,16.8676755480468,20.,         83P    107
53.9680976177133,-45.9122466374917,20.,4.86048824168805,              83P    108
-0.00126600193783787,7.96922703692152,0.,0.,0.;                       83P    109
126,1,1,0,0,1,0,-0.00126600193783787,-0.00126600193783787,            85P    110
7.96922703692152,7.96922703692152,1.,1.,16.8676755480468,5.,          85P    111
53.9680976177133,-45.9122466374917,5.,4.86048824168805,               85P    112
-0.00126600193783787,7.96922703692152,0.,0.,0.;                       85P    113
126,1,1,0,0,1,0,8.11380897529356D-6,8.11380897529356D-6,              87P    114
7.79684030438361,7.79684030438361,1.,1.,-45.8442043268951,20.,        87P    115
-4.91447990110611,15.5678274524258,20.,-52.9521898125264,             87P    116
8.11380897529356D-6,7.79684030438361,0.,0.,0.;                        87P    117
126,1,1,0,0,1,0,-0.75,-0.75,0.75,0.75,1.,1.,15.5678274524258,5.,      89P    118
-52.9521898125264,15.5678274524258,20.,-52.9521898125264,-0.75,       89P    119
0.75,0.,0.,0.;                                                        89P    120
126,1,1,0,0,1,0,8.11380897529356D-6,8.11380897529356D-6,              91P    121
7.79684030438361,7.79684030438361,1.,1.,-45.8442043268951,5.,         91P    122
-4.91447990110611,15.5678274524258,5.,-52.9521898125264,              91P    123
8.11380897529356D-6,7.79684030438361,0.,0.,0.;                        91P    124
126,6,2,0,0,0,0,0.000177032789438496,0.000177032789438496,            93P    125
0.000177032789438496,1.48963776071048,1.48963776071048,               93P    126
2.97909848863152,2.97909848863152,4.46855921655257,                   93P    127
4.46855921655257,4.46855921655257,1.,0.73527068129121,1.,             93P    128
0.73527068129121,1.,0.735270681291209,1.,15.5678274524258,20.,        93P    129
-52.9521898125264,64.3792327637752,20.,-92.0662287593522,             93P    130
107.329692928583,20.,-46.5940471222906,150.28015309339,20.,           93P    131
-1.12186548522902,108.447849619969,20.,45.3810346104659,              93P    132
66.6155461465468,20.,91.8839347061609,16.8676755480479,20.,           93P    133
53.968097617714,0.000177032789438496,4.46855921655257,0.,0.,0.;       93P    134
126,6,2,0,0,0,0,0.000177032789438496,0.000177032789438496,            95P    135
0.000177032789438496,1.48963776071048,1.48963776071048,               95P    136
2.97909848863152,2.97909848863152,4.46855921655257,                   95P    137
4.46855921655257,4.46855921655257,1.,0.73527068129121,1.,             95P    138
0.73527068129121,1.,0.735270681291209,1.,15.5678274524258,5.,         95P    139
-52.9521898125264,64.3792327637752,5.,-92.0662287593522,              95P    140
107.329692928583,5.,-46.5940471222906,150.28015309339,5.,             95P    141
-1.12186548522902,108.447849619969,5.,45.3810346104659,               95P    142
66.6155461465468,5.,91.8839347061609,16.8676755480479,5.,             95P    143
53.968097617714,0.000177032789438496,4.46855921655257,0.,0.,0.;       95P    144
128,1,4,1,2,0,0,0,0,0,-1.76912153386135,-1.76912153386135,            97P    145
1.76912153386135,1.76912153386135,-1.36833655730962D-14,              97P    146
-1.36833655730962D-14,-1.36833655730962D-14,0.898537122608044,        97P    147
0.898537122608044,1.79707424521611,1.79707424521611,                  97P    148
1.79707424521611,1.,1.,0.900765012076625,0.900765012076625,1.,        97P    149
1.,0.900765012076625,0.900765012076625,1.,1.,-44.6679889415297,       97P    150
20.,3.29458410453034,-44.6679889415297,5.,3.29458410453034,           97P    151
-46.2564834404074,20.,2.00820481413636,-46.2564834404074,5.,          97P    152
2.00820481413636,-46.239241990636,20.,-0.0357592716853397,            97P    153
-46.239241990636,5.,-0.0357592716853397,-46.2220005408645,20.,        97P    154
-2.07972335750707,-46.2220005408645,5.,-2.07972335750707,             97P    155
-44.6120316365039,20.,-3.3391226503095,-44.6120316365039,5.,          97P    156
-3.3391226503095,-1.76912153386135,1.76912153386135,                  97P    157
-1.36833655730962D-14,1.79707424521611;                               97P    158
128,1,1,1,1,0,0,1,0,0,-0.001,-0.001,1.501,1.501,-0.001,-0.001,        99P    159
7.96870066629742,7.96870066629742,1.,1.,1.,1.,18.097815546469,        99P    160
20.01,52.3911503579785,18.097815546469,4.99,52.3911503579785,         99P    161
-44.6758654834048,20.01,3.28842292866124,-44.6758654834048,4.99,      99P    162
3.28842292866124,-0.001,1.501,-0.001,7.96870066629742;                99P    163
128,1,1,1,1,0,0,1,0,0,-0.001,-0.001,1.501,1.501,                     101P    164
-0.00100000000000458,-0.00100000000000458,7.79902374069884,          101P    165
7.79902374069884,1.,1.,1.,1.,-44.6199081728046,20.01,                101P    166
-3.33296146731398,-44.6199081728046,4.99,-3.33296146731398,          101P    167
16.817261966925,20.01,-51.3903351030889,16.817261966925,4.99,        101P    168
-51.3903351030889,-0.001,1.501,-0.00100000000000458,                 101P    169
7.79902374069884;                                                    101P    170
128,1,6,1,2,0,0,0,0,0,-0.113885005169665,-0.113885005169665,         103P    171
0.113885005169665,0.113885005169665,-1.34866938558845D-16,           103P    172
-1.34866938558845D-16,-1.34866938558845D-16,1.48945661086453,        103P    173
1.48945661086453,2.97891322172906,2.97891322172906,                  103P    174
4.46836983259358,4.46836983259358,4.46836983259358,1.,1.,            103P    175
0.735272076505718,0.735272076505718,1.,1.,0.735272076505718,         103P    176
0.735272076505718,1.,1.,0.735272076505718,0.735272076505718,1.,      103P    177
1.,16.8093854306243,20.,-51.3841739200934,16.8093854306243,5.,       103P    178
-51.3841739200934,64.1751957648738,20.,-89.3535860821913,            103P    179
64.1751957648738,5.,-89.3535860821913,105.867546111341,20.,          103P    180
-45.2293957650556,105.867546111341,5.,-45.2293957650556,             103P    181
147.559896457808,20.,-1.10520544791994,147.559896457808,5.,          103P    182
-1.10520544791994,106.969097472419,20.,44.0343923159405,             103P    183
106.969097472419,5.,44.0343923159405,66.3782984870303,20.,           103P    184
89.173990079801,66.3782984870303,5.,89.173990079801,                 103P    185
18.0899390045938,20.,52.3849891821093,18.0899390045938,5.,           103P    186
52.3849891821093,-0.113885005169665,0.113885005169665,               103P    187
-1.34866938558845D-16,4.46836983259358;                              103P    188
128,1,4,1,2,0,0,0,0,0,-1.76912153386135,-1.76912153386135,           105P    189
1.76912153386135,1.76912153386135,-0.00296781768935442,              105P    190
-0.00296781768935442,-0.00296781768935442,0.897062783306172,         105P    191
0.897062783306172,1.7970933843017,1.7970933843017,                   105P    192
1.7970933843017,1.,1.,0.900440447058096,0.900440447058096,1.,1.,     105P    193
0.900440447058096,0.900440447058096,1.,1.,-45.9122466374911,5.,      105P    194
4.86048824168856,-45.9122466374911,20.,4.86048824168856,             105P    195
-48.2602218257426,5.,2.97058416026631,-48.2602218257426,20.,         105P    196
2.97058416026631,-48.2392416525582,5.,-0.0434305633132731,           105P    197
-48.2392416525582,20.,-0.0434305633132731,-48.2182614793738,5.,      105P    198
-3.05744528689285,-48.2182614793738,20.,-3.05744528689285,           105P    199
-45.8442043273735,5.,-4.91447990171769,-45.8442043273735,20.,        105P    200
-4.91447990171769,-1.76912153386135,1.76912153386135,                105P    201
-0.00296781768935442,1.7970933843017;                                105P    202
128,1,1,1,1,0,0,1,0,0,-0.001,-0.001,1.501,1.501,                     107P    203
-0.00226600193796378,-0.00226600193796378,7.97022703692152,          107P    204
7.97022703692152,1.,1.,1.,1.,16.8755520899229,4.99,                  107P    205
53.9742587935832,16.8755520899229,20.01,53.9742587935832,            107P    206
-45.9201231793668,4.99,4.85432706581893,-45.9201231793668,20.01,     107P    207
4.85432706581893,-0.001,1.501,-0.00226600193796378,                  107P    208
7.97022703692152;                                                    107P    209
128,1,1,1,1,0,0,1,0,0,-0.001,-0.001,1.501,1.501,                     109P    210
-0.000991886191025077,-0.000991886191025077,7.79784030438362,        109P    211
7.79784030438362,1.,1.,1.,1.,-45.8520808631958,4.99,                 109P    212
-4.90831871811059,-45.8520808631958,20.01,-4.90831871811059,         109P    213
15.5757039887265,4.99,-52.958350995522,15.5757039887265,20.01,       109P    214
-52.958350995522,-0.001,1.501,-0.000991886191025077,                 109P    215
7.79784030438362;                                                    109P    216
128,1,6,1,2,0,0,0,0,0,-0.113885005169665,-0.113885005169665,         111P    217
0.113885005169665,0.113885005169665,0.000177032789438289,            111P    218
0.000177032789438289,0.000177032789438289,1.48963776071048,          111P    219
1.48963776071048,2.97909848863153,2.97909848863153,                  111P    220
4.46855921655257,4.46855921655257,4.46855921655257,1.,1.,            111P    221
0.735270681291209,0.735270681291209,1.,1.,0.735270681291209,         111P    222
0.735270681291209,1.,1.,0.735270681291209,0.735270681291209,1.,      111P    223
1.,15.5678274524258,5.,-52.9521898125264,15.5678274524258,20.,       111P    224
-52.9521898125264,64.3792327637753,5.,-92.0662287593522,             111P    225
64.3792327637753,20.,-92.0662287593522,107.329692928583,5.,          111P    226
-46.5940471222905,107.329692928583,20.,-46.5940471222905,            111P    227
150.28015309339,5.,-1.12186548522891,150.28015309339,20.,            111P    228
-1.12186548522891,108.447849619969,5.,45.3810346104661,              111P    229
108.447849619969,20.,45.3810346104661,66.6155461465467,5.,           111P    230
91.883934706161,66.6155461465467,20.,91.883934706161,                111P    231
16.8676755480478,5.,53.968097617714,16.8676755480478,20.,            111P    232
53.968097617714,-0.113885005169665,0.113885005169665,                111P    233
0.000177032789438289,4.46855921655257;                               111P    234
128,1,1,1,1,0,0,1,0,0,-9.20404694876668,-9.20404694876668,           113P    235
9.19296939778462,9.19296939778462,-0.203097983510663,                113P    236
-0.203097983510663,19.6529395084026,19.6529395084026,1.,1.,1.,       113P    237
1.,-48.2702218257426,5.,91.8939347061609,-48.2702218257426,5.,       113P    238
-92.0762287593521,150.29015309339,5.,91.8939347061609,               113P    239
150.29015309339,5.,-92.0762287593521,-9.20404694876668,              113P    240
9.19296939778462,-0.203097983510663,19.6529395084026;                113P    241
128,1,1,1,1,0,0,1,0,0,-9.19296939778462,-9.19296939778462,           115P    242
9.20404694876668,9.20404694876668,-0.203097983510663,                115P    243
-0.203097983510663,19.6529395084026,19.6529395084026,1.,1.,1.,       115P    244
1.,-48.2702218257426,20.,-92.0762287593521,-48.2702218257426,        115P    245
20.,91.8939347061609,150.29015309339,20.,-92.0762287593521,          115P    246
150.29015309339,20.,91.8939347061609,-9.19296939778462,              115P    247
9.20404694876668,-0.203097983510663,19.6529395084026;                115P    248
502,16,-44.6679889415297,20.,3.29458410453036,-44.6679889415297,     117P    249
5.,3.29458410453036,-44.6120316365039,5.,-3.3391226503095,           117P    250
-44.6120316365039,20.,-3.3391226503095,18.0899390045939,20.,         117P    251
52.3849891821094,18.0899390045939,5.,52.3849891821094,               117P    252
16.8093854306243,5.,-51.3841739200933,16.8093854306243,20.,          117P    253
-51.3841739200933,-45.9122466374911,20.,4.86048824168856,            117P    254
-45.9122466374911,5.,4.86048824168856,-45.8442043268951,20.,         117P    255
-4.91447990110611,-45.8442043268951,5.,-4.91447990110611,            117P    256
16.8676755480478,20.,53.968097617714,16.8676755480478,5.,            117P    257
53.968097617714,15.5678274524258,20.,-52.9521898125264,              117P    258
15.5678274524258,5.,-52.9521898125264;                               117P    259
504,24,49,117,1,117,2,51,117,2,117,3,53,117,4,117,3,55,117,1,        119P    260
117,4,57,117,5,117,6,59,117,6,117,2,61,117,5,117,1,63,117,3,117,     119P    261
7,65,117,7,117,8,67,117,4,117,8,69,117,7,117,6,71,117,8,117,5,       119P    262
73,117,9,117,10,75,117,9,117,11,77,117,11,117,12,79,117,10,117,      119P    263
12,81,117,13,117,14,83,117,13,117,9,85,117,14,117,10,87,117,11,      119P    264
117,15,89,117,16,117,15,91,117,12,117,16,93,117,15,117,13,95,        119P    265
117,16,117,14;                                                       119P    266
406,1,5HBody4;                                                       121P    267
314,62.7450980392157,62.7450980392157,62.7450980392157,13HSteel      123P    268
- Satin;                                                             123P    269
S      1G      3D    124P    269                                        T      1
