                                                                        S      1
,,13Hgameboypcb v2,13Hgameboypcb v2,7Hunknown,7Hunknown,32,38,7,99,15,, G      1
1.,2,2HMM,1,0.08,15H20211012.211955,0.01,10000.,7Hunknown,7Hunknown,11, G      2
0,15H20180225.160506;                                                   G      3
     186       1                                                00000000D      1
     186             -95       1       0                               0D      2
     514       2                                                00010000D      3
     514                       1       1                               0D      4
     510       3                                                00010000D      5
     510             -95       1       1                               0D      6
     510       4                                                00010000D      7
     510             -95       1       1                               0D      8
     510       5                                                00010000D      9
     510             -95       1       1                               0D     10
     510       6                                                00010000D     11
     510             -95       1       1                               0D     12
     510       7                                                00010000D     13
     510             -95       1       1                               0D     14
     510       8                                                00010000D     15
     510             -95       1       1                               0D     16
     510       9                                                00010000D     17
     510             -95       1       1                               0D     18
     510      10                                                00010000D     19
     510             -95       1       1                               0D     20
     508      11                                                00010000D     21
     508                       1       1                               0D     22
     508      12                                                00010000D     23
     508                       1       1                               0D     24
     508      13                                                00010000D     25
     508                       1       1                               0D     26
     508      14                                                00010000D     27
     508                       1       1                               0D     28
     508      15                                                00010000D     29
     508                       1       1                               0D     30
     508      16                                                00010000D     31
     508                       1       1                               0D     32
     508      17                                                00010000D     33
     508                       2       1                               0D     34
     508      19                                                00010000D     35
     508                       2       1                               0D     36
     126      21                                                00010000D     37
     126       0               3       0                               0D     38
     126      24                                                00010000D     39
     126       0               2       0                               0D     40
     126      26                                                00010000D     41
     126       0               3       0                               0D     42
     126      29                                                00010000D     43
     126       0               2       0                               0D     44
     126      31                                                00010000D     45
     126       0               2       0                               0D     46
     126      33                                                00010000D     47
     126       0               2       0                               0D     48
     126      35                                                00010000D     49
     126       0               2       0                               0D     50
     126      37                                                00010000D     51
     126       0               2       0                               0D     52
     126      39                                                00010000D     53
     126       0               2       0                               0D     54
     126      41                                                00010000D     55
     126       0               2       0                               0D     56
     126      43                                                00010000D     57
     126       0               2       0                               0D     58
     126      45                                                00010000D     59
     126       0               2       0                               0D     60
     126      47                                                00010000D     61
     126       0               2       0                               0D     62
     126      49                                                00010000D     63
     126       0               3       0                               0D     64
     126      52                                                00010000D     65
     126       0               3       0                               0D     66
     126      55                                                00010000D     67
     126       0               3       0                               0D     68
     126      58                                                00010000D     69
     126       0               2       0                               0D     70
     126      60                                                00010000D     71
     126       0               3       0                               0D     72
     128      63                                                00010000D     73
     128       0     -95       5       0                               0D     74
     128      68                                                00010000D     75
     128       0     -95       4       0                               0D     76
     128      72                                                00010000D     77
     128       0     -95       4       0                               0D     78
     128      76                                                00010000D     79
     128       0     -95       4       0                               0D     80
     128      80                                                00010000D     81
     128       0     -95       4       0                               0D     82
     128      84                                                00010000D     83
     128       0     -95       5       0                               0D     84
     128      89                                                00010000D     85
     128       0     -95       6       0                               0D     86
     128      95                                                00010000D     87
     128       0     -95       5       0                               0D     88
     502     100                                                00010000D     89
     502                       6       1                               0D     90
     504     106                                                00010001D     91
     504                       4       1                               0D     92
     406     110                                                00000000D     93
     406                       1      15                               0D     94
     314     111                                                00000200D     95
     314                       2       0                               0D     96
186,3,1,0,0,1,93;                                                      1P      1
514,8,5,1,7,1,9,1,11,1,13,1,15,1,17,1,19,1;                            3P      2
510,73,1,1,21;                                                         5P      3
510,75,1,1,23;                                                         7P      4
510,77,1,1,25;                                                         9P      5
510,79,1,1,27;                                                        11P      6
510,81,1,1,29;                                                        13P      7
510,83,1,1,31;                                                        15P      8
510,85,1,1,33;                                                        17P      9
510,87,1,1,35;                                                        19P     10
508,4,0,91,1,0,0,0,91,2,1,0,0,91,3,0,0,0,91,4,0,0;                    21P     11
508,4,0,91,5,0,0,0,91,4,1,0,0,91,6,0,0,0,91,7,0,0;                    23P     12
508,4,0,91,8,0,0,0,91,7,1,0,0,91,9,0,0,0,91,10,0,0;                   25P     13
508,4,0,91,11,0,0,0,91,10,1,0,0,91,12,0,0,0,91,13,0,0;                27P     14
508,4,0,91,14,0,0,0,91,13,1,0,0,91,15,0,0,0,91,16,0,0;                29P     15
508,4,0,91,17,0,0,0,91,16,1,0,0,91,18,0,0,0,91,2,0,0;                 31P     16
508,6,0,91,18,1,0,0,91,15,1,0,0,91,12,1,0,0,91,9,1,0,0,91,6,1,0,      33P     17
0,91,3,1,0;                                                           33P     18
508,6,0,91,17,1,0,0,91,1,1,0,0,91,5,1,0,0,91,8,1,0,0,91,11,1,0,       35P     19
0,91,14,1,0;                                                          35P     20
126,3,3,0,0,1,0,0.,0.,0.,0.,1.,1.,1.,1.,1.,1.,1.,1.,-6.28713,         37P     21
-1D-5,0.,-5.9701,204.51763,0.,-5.29167,378.35417,0.,-5.29167,         37P     22
613.83333,0.,0.,1.,0.,0.,0.;                                          37P     23
126,1,1,0,0,1,0,0.,0.,0.08,0.08,1.,1.,-6.28713,-1D-5,0.,              39P     24
-6.28713,-1D-5,0.8,0.,0.08,0.,0.,0.;                                  39P     25
126,3,3,0,0,1,0,-1.,-1.,-1.,-1.,0.,0.,0.,0.,1.,1.,1.,1.,              41P     26
-5.29167,613.83333,0.8,-5.29167,378.35417,0.8,-5.9701,204.51763,      41P     27
0.8,-6.28713,-1D-5,0.8,-1.,0.,0.,0.,0.;                               41P     28
126,1,1,0,0,1,0,0.,0.,0.08,0.08,1.,1.,-5.29167,613.83333,0.,          43P     29
-5.29167,613.83333,0.8,0.,0.08,0.,0.,0.;                              43P     30
126,1,1,0,0,1,0,0.,0.,47.289686,47.289686,1.,1.,-5.29167,             45P     31
613.83333,0.,467.60519,613.83333,0.,0.,47.289686,0.,0.,0.;            45P     32
126,1,1,0,0,1,0,-47.289686,-47.289686,0.,0.,1.,1.,467.60519,          47P     33
613.83333,0.8,-5.29167,613.83333,0.8,-47.289686,0.,0.,0.,0.;          47P     34
126,1,1,0,0,1,0,0.,0.,0.08,0.08,1.,1.,467.60519,613.83333,0.,         49P     35
467.60519,613.83333,0.8,0.,0.08,0.,0.,0.;                             49P     36
126,1,1,0,0,1,0,0.,0.,2.645833,2.645833,1.,1.,467.60519,              51P     37
613.83333,0.,467.60519,587.375,0.,0.,2.645833,0.,0.,0.;               51P     38
126,1,1,0,0,1,0,-2.645833,-2.645833,0.,0.,1.,1.,467.60519,            53P     39
587.375,0.8,467.60519,613.83333,0.8,-2.645833,0.,0.,0.,0.;            53P     40
126,1,1,0,0,1,0,0.,0.,0.08,0.08,1.,1.,467.60519,587.375,0.,           55P     41
467.60519,587.375,0.8,0.,0.08,0.,0.,0.;                               55P     42
126,1,1,0,0,1,0,0.,0.,5.097814,5.097814,1.,1.,467.60519,587.375,      57P     43
0.,518.58333,587.375,0.,0.,5.097814,0.,0.,0.;                         57P     44
126,1,1,0,0,1,0,-5.097814,-5.097814,0.,0.,1.,1.,518.58333,            59P     45
587.375,0.8,467.60519,587.375,0.8,-5.097814,0.,0.,0.,0.;              59P     46
126,1,1,0,0,1,0,0.,0.,0.08,0.08,1.,1.,518.58333,587.375,0.,           61P     47
518.58333,587.375,0.8,0.,0.08,0.,0.,0.;                               61P     48
126,1,1,0,0,1,0,0.,0.,58.737501,58.737501,1.,1.,518.58333,            63P     49
587.375,0.,518.58333,-9.99999997475243D-6,0.,0.,58.737501,0.,0.,      63P     50
0.;                                                                   63P     51
126,1,1,0,0,1,0,-58.737501,-58.737501,0.,0.,1.,1.,518.58333,          65P     52
-9.99999997475243D-6,0.8,518.58333,587.375,0.8,-58.737501,0.,0.,      65P     53
0.,0.;                                                                65P     54
126,1,1,0,0,1,0,0.,0.,0.08,0.08,1.,1.,518.58333,                      67P     55
-9.99999997475243D-6,0.,518.58333,-9.99999997475243D-6,0.8,0.,        67P     56
0.08,0.,0.,0.;                                                        67P     57
126,1,1,0,0,1,0,0.,0.,52.487046,52.487046,1.,1.,518.58333,-1D-5,      69P     58
0.,-6.28712999999998,-1D-5,0.,0.,52.487046,0.,0.,0.;                  69P     59
126,1,1,0,0,1,0,-52.487046,-52.487046,0.,0.,1.,1.,                    71P     60
-6.28712999999998,-1D-5,0.8,518.58333,-1D-5,0.8,-52.487046,0.,        71P     61
0.,0.,0.;                                                             71P     62
128,3,1,3,1,0,0,1,0,0,-1.,-1.,-1.,-1.,0.,0.,0.,0.,0.,0.,0.08,         73P     63
0.08,1.,1.,1.,1.,1.,1.,1.,1.,-5.29167,613.83333,0.,-5.29167,          73P     64
378.35417,0.,-5.9701,204.51763,0.,-6.28713,-1D-5,0.,-5.29167,         73P     65
613.83333,0.8,-5.29167,378.35417,0.8,-5.9701,204.51763,0.8,           73P     66
-6.28713,-1D-5,0.8,-1.,0.,0.,0.08;                                    73P     67
128,1,1,1,1,0,0,1,0,0,-0.001,-0.001,47.290686,47.290686,-0.001,       75P     68
-0.001,0.081,0.081,1.,1.,1.,1.,467.61519,613.83333,-0.01,             75P     69
-5.30166999999999,613.83333,-0.01,467.61519,613.83333,0.81,           75P     70
-5.30166999999999,613.83333,0.81,-0.001,47.290686,-0.001,0.081;       75P     71
128,1,1,1,1,0,0,1,0,0,-0.001,-0.001,2.646833,2.646833,-0.001,         77P     72
-0.001,0.081,0.081,1.,1.,1.,1.,467.60519,587.365,-0.01,               77P     73
467.60519,613.84333,-0.01,467.60519,587.365,0.81,467.60519,           77P     74
613.84333,0.81,-0.001,2.646833,-0.001,0.081;                          77P     75
128,1,1,1,1,0,0,1,0,0,-0.001,-0.001,5.098814,5.098814,-0.001,         79P     76
-0.001,0.081,0.081,1.,1.,1.,1.,518.59333,587.375,-0.01,               79P     77
467.59519,587.375,-0.01,518.59333,587.375,0.81,467.59519,             79P     78
587.375,0.81,-0.001,5.098814,-0.001,0.081;                            79P     79
128,1,1,1,1,0,0,1,0,0,-0.001,-0.001,58.738501,58.738501,-0.001,       81P     80
-0.001,0.081,0.081,1.,1.,1.,1.,518.58333,-0.0100099999999748,         81P     81
-0.01,518.58333,587.385,-0.01,518.58333,-0.0100099999999748,          81P     82
0.81,518.58333,587.385,0.81,-0.001,58.738501,-0.001,0.081;            81P     83
128,1,1,1,1,0,0,1,0,0,-0.00100000000000233,-0.00100000000000233,      83P     84
52.488046,52.488046,-0.001,-0.001,0.081,0.081,1.,1.,1.,1.,            83P     85
-6.29713,-1D-5,-0.01,518.59333,-1D-5,-0.01,-6.29713,-1D-5,0.81,       83P     86
518.59333,-1D-5,0.81,-0.00100000000000233,52.488046,-0.001,           83P     87
0.081;                                                                83P     88
128,1,1,1,1,0,0,1,0,0,-26.2270065,-26.2270065,26.2620395,             85P     89
26.2620395,-4.0677865,-4.0677865,57.3175475,57.3175475,1.,1.,1.,      85P     90
1.,-6.29713000000002,-0.0100100000000047,0.8,518.59333,               85P     91
-0.0100100000000047,0.8,-6.29713000000002,613.84333,0.8,              85P     92
518.59333,613.84333,0.8,-26.2270065,26.2620395,-4.0677865,            85P     93
57.3175475;                                                           85P     94
128,1,1,1,1,0,0,1,0,0,-26.2270065,-26.2270065,26.2620395,             87P     95
26.2620395,-4.0677865,-4.0677865,57.3175475,57.3175475,1.,1.,1.,      87P     96
1.,518.59333,-0.0100100000000047,0.,-6.29713000000002,                87P     97
-0.0100100000000047,0.,518.59333,613.84333,0.,-6.29713000000002,      87P     98
613.84333,0.,-26.2270065,26.2620395,-4.0677865,57.3175475;            87P     99
502,12,-6.28713,-1D-5,0.,-5.29167,613.83333,0.,                       89P    100
-6.28712999999998,-1D-5,0.8,-5.29167000000001,613.83333,0.8,          89P    101
467.60519,613.83333,0.,467.60519,613.83333,0.8,467.60519,             89P    102
587.375,0.,467.60519,587.375,0.8,518.58333,587.375,0.,518.58333,      89P    103
587.375,0.8,518.58333,-9.99999997475243D-6,0.,518.58333,              89P    104
-9.99999997475243D-6,0.8;                                             89P    105
504,18,37,89,1,89,2,39,89,1,89,3,41,89,4,89,3,43,89,2,89,4,45,        91P    106
89,2,89,5,47,89,6,89,4,49,89,5,89,6,51,89,5,89,7,53,89,8,89,6,        91P    107
55,89,7,89,8,57,89,7,89,9,59,89,10,89,8,61,89,9,89,10,63,89,9,        91P    108
89,11,65,89,12,89,10,67,89,11,89,12,69,89,11,89,1,71,89,3,89,12;      91P    109
406,1,5HBody1;                                                        93P    110
314,62.7450980392157,62.7450980392157,62.7450980392157,13HSteel       95P    111
- Satin;                                                              95P    112
S      1G      3D     96P    112                                        T      1
