                                                                        S      1
,,5Hchair,5Hchair,7Hunknown,7Hunknown,32,38,7,99,15,,1.,6,1HM,1,0.08,15HG      1
20211012.212342,1D-5,10000.,7Hunknown,7Hunknown,11,0,;                  G      2
     186       1                                                00000000D      1
     186            -141       1       0                               0D      2
     186       2                                                00000000D      3
     186            -141       1       0                               0D      4
     514       3                                                00010000D      5
     514                       1       1                               0D      6
     514       4                                                00010000D      7
     514                       1       1                               0D      8
     510       5                                                00010000D      9
     510            -141       1       1                               0D     10
     510       6                                                00010000D     11
     510            -141       1       1                               0D     12
     510       7                                                00010000D     13
     510            -141       1       1                               0D     14
     510       8                                                00010000D     15
     510            -141       1       1                               0D     16
     510       9                                                00010000D     17
     510            -141       1       1                               0D     18
     510      10                                                00010000D     19
     510            -141       1       1                               0D     20
     510      11                                                00010000D     21
     510            -141       1       1                               0D     22
     510      12                                                00010000D     23
     510            -141       1       1                               0D     24
     510      13                                                00010000D     25
     510            -141       1       1                               0D     26
     510      14                                                00010000D     27
     510            -141       1       1                               0D     28
     510      15                                                00010000D     29
     510            -141       1       1                               0D     30
     510      16                                                00010000D     31
     510            -141       1       1                               0D     32
     508      17                                                00010000D     33
     508                       1       1                               0D     34
     508      18                                                00010000D     35
     508                       1       1                               0D     36
     508      19                                                00010000D     37
     508                       1       1                               0D     38
     508      20                                                00010000D     39
     508                       1       1                               0D     40
     508      21                                                00010000D     41
     508                       1       1                               0D     42
     508      22                                                00010000D     43
     508                       1       1                               0D     44
     508      23                                                00010000D     45
     508                       1       1                               0D     46
     508      24                                                00010000D     47
     508                       1       1                               0D     48
     508      25                                                00010000D     49
     508                       1       1                               0D     50
     508      26                                                00010000D     51
     508                       1       1                               0D     52
     508      27                                                00010000D     53
     508                       1       1                               0D     54
     508      28                                                00010000D     55
     508                       1       1                               0D     56
     126      29                                                00010000D     57
     126       0               2       0                               0D     58
     126      31                                                00010000D     59
     126       0               2       0                               0D     60
     126      33                                                00010000D     61
     126       0               2       0                               0D     62
     126      35                                                00010000D     63
     126       0               2       0                               0D     64
     126      37                                                00010000D     65
     126       0               2       0                               0D     66
     126      39                                                00010000D     67
     126       0               2       0                               0D     68
     126      41                                                00010000D     69
     126       0               2       0                               0D     70
     126      43                                                00010000D     71
     126       0               2       0                               0D     72
     126      45                                                00010000D     73
     126       0               2       0                               0D     74
     126      47                                                00010000D     75
     126       0               2       0                               0D     76
     126      49                                                00010000D     77
     126       0               2       0                               0D     78
     126      51                                                00010000D     79
     126       0               2       0                               0D     80
     126      53                                                00010000D     81
     126       0               2       0                               0D     82
     126      55                                                00010000D     83
     126       0               2       0                               0D     84
     126      57                                                00010000D     85
     126       0               2       0                               0D     86
     126      59                                                00010000D     87
     126       0               2       0                               0D     88
     126      61                                                00010000D     89
     126       0               2       0                               0D     90
     126      63                                                00010000D     91
     126       0               2       0                               0D     92
     126      65                                                00010000D     93
     126       0               2       0                               0D     94
     126      67                                                00010000D     95
     126       0               2       0                               0D     96
     126      69                                                00010000D     97
     126       0               2       0                               0D     98
     126      71                                                00010000D     99
     126       0               2       0                               0D    100
     126      73                                                00010000D    101
     126       0               2       0                               0D    102
     126      75                                                00010000D    103
     126       0               2       0                               0D    104
     128      77                                                00010000D    105
     128       0    -141       3       0                               0D    106
     128      80                                                00010000D    107
     128       0    -141       4       0                               0D    108
     128      84                                                00010000D    109
     128       0    -141       4       0                               0D    110
     128      88                                                00010000D    111
     128       0    -141       4       0                               0D    112
     128      92                                                00010000D    113
     128       0    -141       4       0                               0D    114
     128      96                                                00010000D    115
     128       0    -141       4       0                               0D    116
     128     100                                                00010000D    117
     128       0    -141       4       0                               0D    118
     128     104                                                00010000D    119
     128       0    -141       4       0                               0D    120
     128     108                                                00010000D    121
     128       0    -141       4       0                               0D    122
     128     112                                                00010000D    123
     128       0    -141       4       0                               0D    124
     128     116                                                00010000D    125
     128       0    -141       4       0                               0D    126
     128     120                                                00010000D    127
     128       0    -141       4       0                               0D    128
     502     124                                                00010000D    129
     502                       2       1                               0D    130
     502     126                                                00010000D    131
     502                       2       1                               0D    132
     504     128                                                00010001D    133
     504                       3       1                               0D    134
     504     131                                                00010001D    135
     504                       3       1                               0D    136
     406     134                                                00000000D    137
     406                       1      15                               0D    138
     406     135                                                00000000D    139
     406                       1      15                               0D    140
     314     136                                                00000200D    141
     314                       2       0                               0D    142
     314     138                                                00000200D    143
     314                       2       0                               0D    144
186,5,1,0,0,1,137;                                                     1P      1
186,7,1,0,0,1,139;                                                     3P      2
514,6,9,1,11,1,13,1,15,1,17,1,19,1;                                    5P      3
514,6,21,1,23,1,25,1,27,1,29,1,31,1;                                   7P      4
510,105,1,1,33;                                                        9P      5
510,107,1,1,35;                                                       11P      6
510,109,1,1,37;                                                       13P      7
510,111,1,1,39;                                                       15P      8
510,113,1,1,41;                                                       17P      9
510,115,1,1,43;                                                       19P     10
510,117,1,1,45;                                                       21P     11
510,119,1,1,47;                                                       23P     12
510,121,1,1,49;                                                       25P     13
510,123,1,1,51;                                                       27P     14
510,125,1,1,53;                                                       29P     15
510,127,1,1,55;                                                       31P     16
508,4,0,133,1,0,0,0,133,2,1,0,0,133,3,0,0,0,133,4,0,0;                33P     17
508,4,0,133,5,0,0,0,133,4,1,0,0,133,6,0,0,0,133,7,0,0;                35P     18
508,4,0,133,8,0,0,0,133,7,1,0,0,133,9,0,0,0,133,10,0,0;               37P     19
508,4,0,133,11,0,0,0,133,10,1,0,0,133,12,0,0,0,133,2,0,0;             39P     20
508,4,0,133,12,1,0,0,133,9,1,0,0,133,6,1,0,0,133,3,1,0;               41P     21
508,4,0,133,11,1,0,0,133,1,1,0,0,133,5,1,0,0,133,8,1,0;               43P     22
508,4,0,135,1,1,0,0,135,2,1,0,0,135,3,0,0,0,135,4,0,0;                45P     23
508,4,0,135,5,1,0,0,135,4,1,0,0,135,6,0,0,0,135,7,0,0;                47P     24
508,4,0,135,8,1,0,0,135,7,1,0,0,135,9,0,0,0,135,10,0,0;               49P     25
508,4,0,135,11,1,0,0,135,10,1,0,0,135,12,0,0,0,135,2,0,0;             51P     26
508,4,0,135,12,1,0,0,135,9,1,0,0,135,6,1,0,0,135,3,1,0;               53P     27
508,4,0,135,11,0,0,0,135,1,0,0,0,135,5,0,0,0,135,8,0,0;               55P     28
126,1,1,0,0,1,0,0.,0.,57.,57.,1.,1.,1.,0.,1.67,1.,0.,1.1,0.,57.,      57P     29
0.,0.,0.;                                                             57P     30
126,1,1,0,0,1,0,0.,0.,56.,56.,1.,1.,1.,0.,1.67,1.,0.56,1.67,0.,       59P     31
56.,0.,0.,0.;                                                         59P     32
126,1,1,0,0,1,0,-57.,-57.,0.,0.,1.,1.,1.,0.56,1.1,1.,0.56,1.67,       61P     33
-57.,0.,0.,0.,0.;                                                     61P     34
126,1,1,0,0,1,0,0.,0.,56.,56.,1.,1.,1.,0.,1.1,1.,0.56,1.1,0.,         63P     35
56.,0.,0.,0.;                                                         63P     36
126,1,1,0,0,1,0,0.,0.,51.,51.,1.,1.,1.,0.,1.1,1.51,0.,1.1,0.,         65P     37
51.,0.,0.,0.;                                                         65P     38
126,1,1,0,0,1,0,-51.,-51.,0.,0.,1.,1.,1.51,0.56,1.1,1.,0.56,1.1,      67P     39
-51.,0.,0.,0.,0.;                                                     67P     40
126,1,1,0,0,1,0,0.,0.,56.,56.,1.,1.,1.51,0.,1.1,1.51,0.56,1.1,        69P     41
0.,56.,0.,0.,0.;                                                      69P     42
126,1,1,0,0,1,0,0.,0.,57.,57.,1.,1.,1.51,0.,1.1,1.51,0.,1.67,0.,      71P     43
57.,0.,0.,0.;                                                         71P     44
126,1,1,0,0,1,0,-57.,-57.,0.,0.,1.,1.,1.51,0.56,1.67,1.51,0.56,       73P     45
1.1,-57.,0.,0.,0.,0.;                                                 73P     46
126,1,1,0,0,1,0,0.,0.,56.,56.,1.,1.,1.51,0.,1.67,1.51,0.56,1.67,      75P     47
0.,56.,0.,0.,0.;                                                      75P     48
126,1,1,0,0,1,0,0.,0.,51.,51.,1.,1.,1.51,0.,1.67,1.,0.,1.67,0.,       77P     49
51.,0.,0.,0.;                                                         77P     50
126,1,1,0,0,1,0,-51.,-51.,0.,0.,1.,1.,1.,0.56,1.67,1.51,0.56,         79P     51
1.67,-51.,0.,0.,0.,0.;                                                79P     52
126,1,1,0,0,1,0,0.,0.,10.,10.,1.,1.,0.9,0.56,1.67,1.,0.56,1.67,       81P     53
0.,10.,0.,0.,0.;                                                      81P     54
126,1,1,0,0,1,0,0.,0.,59.,59.,1.,1.,1.,0.56,1.67,1.,1.15,1.67,        83P     55
0.,59.,0.,0.,0.;                                                      83P     56
126,1,1,0,0,1,0,0.,0.,10.,10.,1.,1.,0.9,1.15,1.67,1.,1.15,1.67,       85P     57
0.,10.,0.,0.,0.;                                                      85P     58
126,1,1,0,0,1,0,0.,0.,59.,59.,1.,1.,0.9,0.56,1.67,0.9,1.15,1.67,      87P     59
0.,59.,0.,0.,0.;                                                      87P     60
126,1,1,0,0,1,0,0.,0.,57.,57.,1.,1.,0.9,0.56,1.1,0.9,0.56,1.67,       89P     61
0.,57.,0.,0.,0.;                                                      89P     62
126,1,1,0,0,1,0,0.,0.,57.,57.,1.,1.,0.9,1.15,1.1,0.9,1.15,1.67,       91P     63
0.,57.,0.,0.,0.;                                                      91P     64
126,1,1,0,0,1,0,0.,0.,59.,59.,1.,1.,0.9,0.56,1.1,0.9,1.15,1.1,        93P     65
0.,59.,0.,0.,0.;                                                      93P     66
126,1,1,0,0,1,0,0.,0.,10.,10.,1.,1.,1.,0.56,1.1,0.9,0.56,1.1,0.,      95P     67
10.,0.,0.,0.;                                                         95P     68
126,1,1,0,0,1,0,0.,0.,10.,10.,1.,1.,1.,1.15,1.1,0.9,1.15,1.1,0.,      97P     69
10.,0.,0.,0.;                                                         97P     70
126,1,1,0,0,1,0,0.,0.,59.,59.,1.,1.,1.,0.56,1.1,1.,1.15,1.1,0.,       99P     71
59.,0.,0.,0.;                                                         99P     72
126,1,1,0,0,1,0,0.,0.,57.,57.,1.,1.,1.,0.56,1.67,1.,0.56,1.1,0.,     101P     73
57.,0.,0.,0.;                                                        101P     74
126,1,1,0,0,1,0,0.,0.,57.,57.,1.,1.,1.,1.15,1.67,1.,1.15,1.1,0.,     103P     75
57.,0.,0.,0.;                                                        103P     76
128,1,1,1,1,0,0,1,0,0,-0.001,-0.001,57.001,57.001,-0.001,-0.001,     105P     77
56.001,56.001,1.,1.,1.,1.,1.,-1D-5,1.09999,1.,-1D-5,1.67001,1.,      105P     78
0.56001,1.09999,1.,0.56001,1.67001,-0.001,57.001,-0.001,56.001;      105P     79
128,1,1,1,1,0,0,1,0,0,-0.001,-0.001,51.001,51.001,-0.001,-0.001,     107P     80
56.001,56.001,1.,1.,1.,1.,1.51001,-1D-5,1.1,0.99999,-1D-5,1.1,       107P     81
1.51001,0.56001,1.1,0.99999,0.56001,1.1,-0.001,51.001,-0.001,        107P     82
56.001;                                                              107P     83
128,1,1,1,1,0,0,1,0,0,-0.001,-0.001,57.001,57.001,-0.001,-0.001,     109P     84
56.001,56.001,1.,1.,1.,1.,1.51,-1D-5,1.67001,1.51,-1D-5,1.09999,     109P     85
1.51,0.56001,1.67001,1.51,0.56001,1.09999,-0.001,57.001,-0.001,      109P     86
56.001;                                                              109P     87
128,1,1,1,1,0,0,1,0,0,-0.001,-0.001,51.001,51.001,-0.001,-0.001,     111P     88
56.001,56.001,1.,1.,1.,1.,0.99999,-1D-5,1.67,1.51001,-1D-5,1.67,     111P     89
0.99999,0.56001,1.67,1.51001,0.56001,1.67,-0.001,51.001,-0.001,      111P     90
56.001;                                                              111P     91
128,1,1,1,1,0,0,1,0,0,-28.501,-28.501,28.501,28.501,-25.501,         113P     92
-25.501,25.501,25.501,1.,1.,1.,1.,0.99999,0.56,1.09999,0.99999,      113P     93
0.56,1.67001,1.51001,0.56,1.09999,1.51001,0.56,1.67001,-28.501,      113P     94
28.501,-25.501,25.501;                                               113P     95
128,1,1,1,1,0,0,1,0,0,-25.501,-25.501,25.501,25.501,-28.501,         115P     96
-28.501,28.501,28.501,1.,1.,1.,1.,1.51001,0.,1.67001,0.99999,0.,     115P     97
1.67001,1.51001,0.,1.09999,0.99999,0.,1.09999,-25.501,25.501,        115P     98
-28.501,28.501;                                                      115P     99
128,1,1,1,1,0,0,1,0,0,-0.001,-0.001,10.001,10.001,-0.001,-0.001,     117P    100
59.001,59.001,1.,1.,1.,1.,0.89999,0.55999,1.67,1.00001,0.55999,      117P    101
1.67,0.89999,1.15001,1.67,1.00001,1.15001,1.67,-0.001,10.001,        117P    102
-0.001,59.001;                                                       117P    103
128,1,1,1,1,0,0,1,0,0,-0.001,-0.001,57.001,57.001,-0.001,-0.001,     119P    104
59.001,59.001,1.,1.,1.,1.,0.9,0.55999,1.09999,0.9,0.55999,           119P    105
1.67001,0.9,1.15001,1.09999,0.9,1.15001,1.67001,-0.001,57.001,       119P    106
-0.001,59.001;                                                       119P    107
128,1,1,1,1,0,0,1,0,0,-0.001,-0.001,10.001,10.001,-0.001,-0.001,     121P    108
59.001,59.001,1.,1.,1.,1.,1.00001,0.55999,1.1,0.89999,0.55999,       121P    109
1.1,1.00001,1.15001,1.1,0.89999,1.15001,1.1,-0.001,10.001,           121P    110
-0.001,59.001;                                                       121P    111
128,1,1,1,1,0,0,1,0,0,-0.001,-0.001,57.001,57.001,-0.001,-0.001,     123P    112
59.001,59.001,1.,1.,1.,1.,1.,0.55999,1.67001,1.,0.55999,1.09999,     123P    113
1.,1.15001,1.67001,1.,1.15001,1.09999,-0.001,57.001,-0.001,          123P    114
59.001;                                                              123P    115
128,1,1,1,1,0,0,1,0,0,-28.501,-28.501,28.501,28.501,-5.001,          125P    116
-5.001,5.001,5.001,1.,1.,1.,1.,0.89999,1.15,1.09999,0.89999,         125P    117
1.15,1.67001,1.00001,1.15,1.09999,1.00001,1.15,1.67001,-28.501,      125P    118
28.501,-5.001,5.001;                                                 125P    119
128,1,1,1,1,0,0,1,0,0,-5.001,-5.001,5.001,5.001,-28.501,-28.501,     127P    120
28.501,28.501,1.,1.,1.,1.,0.89999,0.56,1.09999,1.00001,0.56,         127P    121
1.09999,0.89999,0.56,1.67001,1.00001,0.56,1.67001,-5.001,5.001,      127P    122
-28.501,28.501;                                                      127P    123
502,8,1.,0.,1.67,1.,0.,1.1,1.,0.56,1.67,1.,0.56,1.1,1.51,0.,1.1,     129P    124
1.51,0.56,1.1,1.51,0.,1.67,1.51,0.56,1.67;                           129P    125
502,8,0.9,0.56,1.67,1.,0.56,1.67,1.,1.15,1.67,0.9,1.15,1.67,0.9,     131P    126
0.56,1.1,0.9,1.15,1.1,1.,0.56,1.1,1.,1.15,1.1;                       131P    127
504,12,57,129,1,129,2,59,129,1,129,3,61,129,4,129,3,63,129,2,        133P    128
129,4,65,129,2,129,5,67,129,6,129,4,69,129,5,129,6,71,129,5,129,     133P    129
7,73,129,8,129,6,75,129,7,129,8,77,129,7,129,1,79,129,3,129,8;       133P    130
504,12,81,131,1,131,2,83,131,2,131,3,85,131,4,131,3,87,131,1,        135P    131
131,4,89,131,5,131,1,91,131,6,131,4,93,131,5,131,6,95,131,7,131,     135P    132
5,97,131,8,131,6,99,131,7,131,8,101,131,2,131,7,103,131,3,131,8;     135P    133
406,1,5HBody1;                                                       137P    134
406,1,5HBody2;                                                       139P    135
314,21.5686274509804,27.0588235294118,62.3529411764706,14HFabric     141P    136
 (White);                                                            141P    137
314,62.7450980392157,62.7450980392157,62.7450980392157,13HSteel      143P    138
- Satin;                                                             143P    139
S      1G      2D    144P    139                                        T      1
