                                                                        S      1
,,6Hdesk 1,6Hdesk 1,7Hunknown,7Hunknown,32,38,7,99,15,,1.,6,1HM,1,0.08, G      1
15H20211012.212330,1D-5,10000.,7Hunknown,7Hunknown,11,0,;               G      2
     186       1                                                00000000D      1
     186             -71       1       0                               0D      2
     514       2                                                00010000D      3
     514                       1       1                               0D      4
     510       3                                                00010000D      5
     510             -71       1       1                               0D      6
     510       4                                                00010000D      7
     510             -71       1       1                               0D      8
     510       5                                                00010000D      9
     510             -71       1       1                               0D     10
     510       6                                                00010000D     11
     510             -71       1       1                               0D     12
     510       7                                                00010000D     13
     510             -71       1       1                               0D     14
     510       8                                                00010000D     15
     510             -71       1       1                               0D     16
     508       9                                                00010000D     17
     508                       1       1                               0D     18
     508      10                                                00010000D     19
     508                       1       1                               0D     20
     508      11                                                00010000D     21
     508                       1       1                               0D     22
     508      12                                                00010000D     23
     508                       1       1                               0D     24
     508      13                                                00010000D     25
     508                       1       1                               0D     26
     508      14                                                00010000D     27
     508                       1       1                               0D     28
     126      15                                                00010000D     29
     126       0               3       0                               0D     30
     126      18                                                00010000D     31
     126       0               3       0                               0D     32
     126      21                                                00010000D     33
     126       0               3       0                               0D     34
     126      24                                                00010000D     35
     126       0               2       0                               0D     36
     126      26                                                00010000D     37
     126       0               2       0                               0D     38
     126      28                                                00010000D     39
     126       0               2       0                               0D     40
     126      30                                                00010000D     41
     126       0               2       0                               0D     42
     126      32                                                00010000D     43
     126       0               2       0                               0D     44
     126      34                                                00010000D     45
     126       0               3       0                               0D     46
     126      37                                                00010000D     47
     126       0               3       0                               0D     48
     126      40                                                00010000D     49
     126       0               3       0                               0D     50
     126      43                                                00010000D     51
     126       0               3       0                               0D     52
     128      46                                                00010000D     53
     128       0     -71       6       0                               0D     54
     128      52                                                00010000D     55
     128       0     -71       4       0                               0D     56
     128      56                                                00010000D     57
     128       0     -71       6       0                               0D     58
     128      62                                                00010000D     59
     128       0     -71       5       0                               0D     60
     128      67                                                00010000D     61
     128       0     -71       6       0                               0D     62
     128      73                                                00010000D     63
     128       0     -71       5       0                               0D     64
     502      78                                                00010000D     65
     502                       5       1                               0D     66
     504      83                                                00010001D     67
     504                       3       1                               0D     68
     406      86                                                00000000D     69
     406                       1      15                               0D     70
     314      87                                                00000200D     71
     314                       2       0                               0D     72
186,3,1,0,0,1,69;                                                      1P      1
514,6,5,1,7,1,9,1,11,1,13,1,15,1;                                      3P      2
510,53,1,1,17;                                                         5P      3
510,55,1,1,19;                                                         7P      4
510,57,1,1,21;                                                         9P      5
510,59,1,1,23;                                                        11P      6
510,61,1,1,25;                                                        13P      7
510,63,1,1,27;                                                        15P      8
508,4,0,67,1,1,0,0,67,2,1,0,0,67,3,0,0,0,67,4,0,0;                    17P      9
508,4,0,67,5,1,0,0,67,4,1,0,0,67,6,0,0,0,67,7,0,0;                    19P     10
508,4,0,67,8,1,0,0,67,7,1,0,0,67,9,0,0,0,67,10,0,0;                   21P     11
508,4,0,67,11,1,0,0,67,10,1,0,0,67,12,0,0,0,67,2,0,0;                 23P     12
508,4,0,67,12,1,0,0,67,9,1,0,0,67,6,1,0,0,67,3,1,0;                   25P     13
508,4,0,67,11,0,0,0,67,1,0,0,0,67,5,0,0,0,67,8,0,0;                   27P     14
126,1,1,0,0,1,0,0.,0.,365.1,365.1,1.,1.,3.716,-0.3,                   29P     15
4.75000030517578,0.0650000000000006,-0.3,4.75000030517578,0.,         29P     16
365.1,0.,0.,0.;                                                       29P     17
126,1,1,0,0,1,0,0.,0.,5.,5.,1.,1.,0.0650000000000006,-0.3,            31P     18
4.75000030517578,0.0650000000000006,-0.25,4.75000030517578,0.,        31P     19
5.,0.,0.,0.;                                                          31P     20
126,1,1,0,0,1,0,0.,0.,365.1,365.1,1.,1.,3.716,-0.25,                  33P     21
4.75000030517578,0.0650000000000006,-0.25,4.75000030517578,0.,        33P     22
365.1,0.,0.,0.;                                                       33P     23
126,1,1,0,0,1,0,0.,0.,5.,5.,1.,1.,3.716,-0.3,4.75000030517578,        35P     24
3.716,-0.25,4.75000030517578,0.,5.,0.,0.,0.;                          35P     25
126,1,1,0,0,1,0,0.,0.,90.,90.,1.,1.,3.716,-0.3,5.65000030517578,      37P     26
3.716,-0.3,4.75000030517578,0.,90.,0.,0.,0.;                          37P     27
126,1,1,0,0,1,0,0.,0.,90.,90.,1.,1.,3.716,-0.25,                      39P     28
5.65000030517578,3.716,-0.25,4.75000030517578,0.,90.,0.,0.,0.;        39P     29
126,1,1,0,0,1,0,0.,0.,5.,5.,1.,1.,3.716,-0.3,5.65000030517578,        41P     30
3.716,-0.25,5.65000030517578,0.,5.,0.,0.,0.;                          41P     31
126,1,1,0,0,1,0,0.,0.,365.1,365.1,1.,1.,0.0650000000000006,-0.3,      43P     32
5.65000030517578,3.716,-0.3,5.65000030517578,0.,365.1,0.,0.,0.;       43P     33
126,1,1,0,0,1,0,0.,0.,365.1,365.1,1.,1.,0.0650000000000006,           45P     34
-0.25,5.65000030517578,3.716,-0.25,5.65000030517578,0.,365.1,0.,      45P     35
0.,0.;                                                                45P     36
126,1,1,0,0,1,0,0.,0.,5.,5.,1.,1.,0.0650000000000006,-0.3,            47P     37
5.65000030517578,0.0650000000000006,-0.25,5.65000030517578,0.,        47P     38
5.,0.,0.,0.;                                                          47P     39
126,1,1,0,0,1,0,0.,0.,90.,90.,1.,1.,0.0650000000000006,-0.3,          49P     40
4.75000030517578,0.0650000000000006,-0.3,5.65000030517578,0.,         49P     41
90.,0.,0.,0.;                                                         49P     42
126,1,1,0,0,1,0,0.,0.,90.,90.,1.,1.,0.0650000000000006,-0.25,         51P     43
4.75000030517578,0.0650000000000006,-0.25,5.65000030517578,0.,        51P     44
90.,0.,0.,0.;                                                         51P     45
128,1,1,1,1,0,0,1,0,0,-0.00100000000000003,-0.00100000000000003,      53P     46
365.101,365.101,-0.00100000000000156,-0.00100000000000156,5.001,      53P     47
5.001,1.,1.,1.,1.,3.71601,-0.30001,4.75000030517578,                  53P     48
0.0649900000000008,-0.30001,4.75000030517578,3.71601,-0.24999,        53P     49
4.75000030517578,0.0649900000000008,-0.24999,4.75000030517578,        53P     50
-0.00100000000000003,365.101,-0.00100000000000156,5.001;              53P     51
128,1,1,1,1,0,0,1,0,0,-0.001,-0.001,90.001,90.001,-0.001,-0.001,      55P     52
5.001,5.001,1.,1.,1.,1.,3.716,-0.30001,5.65001030517578,3.716,        55P     53
-0.30001,4.74999030517578,3.716,-0.24999,5.65001030517578,3.716,      55P     54
-0.24999,4.74999030517578,-0.001,90.001,-0.001,5.001;                 55P     55
128,1,1,1,1,0,0,1,0,0,-0.00100000000000033,-0.00100000000000033,      57P     56
365.101,365.101,-0.00100000000004619,-0.00100000000004619,5.001,      57P     57
5.001,1.,1.,1.,1.,0.0649900000000006,-0.30001,5.65000030517578,       57P     58
3.71601,-0.300010000000001,5.65000030517578,0.0649900000000006,       57P     59
-0.24999,5.65000030517578,3.71601,-0.24999,5.65000030517578,          57P     60
-0.00100000000000033,365.101,-0.00100000000004619,5.001;              57P     61
128,1,1,1,1,0,0,1,0,0,-0.001,-0.001,90.001,90.001,-0.001,-0.001,      59P     62
5.001,5.001,1.,1.,1.,1.,0.0650000000000006,-0.30001,                  59P     63
4.74999030517578,0.0650000000000006,-0.30001,5.65001030517578,        59P     64
0.0650000000000006,-0.24999,4.74999030517578,0.0650000000000006,      59P     65
-0.24999,5.65001030517578,-0.001,90.001,-0.001,5.001;                 59P     66
128,1,1,1,1,0,0,1,0,0,-45.001,-45.001,45.001,45.001,-182.551,         61P     67
-182.551,182.551,182.551,1.,1.,1.,1.,0.0649900000000005,-0.25,        61P     68
4.74999030517578,0.0649900000000005,-0.25,5.65001030517578,           61P     69
3.71601,-0.250000000000001,4.74999030517578,3.71601,                  61P     70
-0.250000000000001,5.65001030517578,-45.001,45.001,-182.551,          61P     71
182.551;                                                              61P     72
128,1,1,1,1,0,0,1,0,0,-182.551,-182.551,182.551,182.551,-45.001,      63P     73
-45.001,45.001,45.001,1.,1.,1.,1.,0.0649900000000005,-0.3,            63P     74
4.74999030517578,3.71601,-0.3,4.74999030517578,                       63P     75
0.0649900000000002,-0.3,5.65001030517578,3.71601,-0.3,                63P     76
5.65001030517578,-182.551,182.551,-45.001,45.001;                     63P     77
502,8,3.716,-0.3,4.75000030517578,0.0650000000000006,-0.3,            65P     78
4.75000030517578,0.0650000000000006,-0.25,4.75000030517578,           65P     79
3.716,-0.25,4.75000030517578,3.716,-0.3,5.65000030517578,3.716,       65P     80
-0.25,5.65000030517578,0.0650000000000006,-0.3,5.65000030517578,      65P     81
0.0650000000000006,-0.25,5.65000030517578;                            65P     82
504,12,29,65,1,65,2,31,65,2,65,3,33,65,4,65,3,35,65,1,65,4,37,        67P     83
65,5,65,1,39,65,6,65,4,41,65,5,65,6,43,65,7,65,5,45,65,8,65,6,        67P     84
47,65,7,65,8,49,65,2,65,7,51,65,3,65,8;                               67P     85
406,1,5HBody1;                                                        69P     86
314,62.7450980392157,62.7450980392157,62.7450980392157,13HSteel       71P     87
- Satin;                                                              71P     88
S      1G      2D     72P     88                                        T      1
