                                                                        S      1
,,9Hdimmer v1,9Hdimmer v1,7Hunknown,7Hunknown,32,38,7,99,15,,1.,2,2HMM, G      1
1,0.08,15H20211012.212045,0.01,10000.,7Hunknown,7Hunknown,11,0,15H201811G      2
10.000520;                                                              G      3
     186       1                                                00000000D      1
     186            -119       1       0                               0D      2
     514       2                                                00010000D      3
     514                       1       1                               0D      4
     510       3                                                00010000D      5
     510            -119       1       1                               0D      6
     510       4                                                00010000D      7
     510            -119       1       1                               0D      8
     510       5                                                00010000D      9
     510            -119       1       1                               0D     10
     510       6                                                00010000D     11
     510            -119       1       1                               0D     12
     510       7                                                00010000D     13
     510            -119       1       1                               0D     14
     510       8                                                00010000D     15
     510            -119       1       1                               0D     16
     510       9                                                00010000D     17
     510            -119       1       1                               0D     18
     510      10                                                00010000D     19
     510            -119       1       1                               0D     20
     510      11                                                00010000D     21
     510            -119       1       1                               0D     22
     510      12                                                00010000D     23
     510            -119       1       1                               0D     24
     508      13                                                00010000D     25
     508                       2       1                               0D     26
     508      15                                                00010000D     27
     508                       2       1                               0D     28
     508      17                                                00010000D     29
     508                       1       1                               0D     30
     508      18                                                00010000D     31
     508                       1       1                               0D     32
     508      19                                                00010000D     33
     508                       2       1                               0D     34
     508      21                                                00010000D     35
     508                       1       1                               0D     36
     508      22                                                00010000D     37
     508                       1       1                               0D     38
     508      23                                                00010000D     39
     508                       2       1                               0D     40
     508      25                                                00010000D     41
     508                       2       1                               0D     42
     508      27                                                00010000D     43
     508                       1       1                               0D     44
     508      28                                                00010000D     45
     508                       1       1                               0D     46
     508      29                                                00010000D     47
     508                       1       1                               0D     48
     126      30                                                00010000D     49
     126       0               7       0                               0D     50
     126      37                                                00010000D     51
     126       0               5       0                               0D     52
     126      42                                                00010000D     53
     126       0               3       0                               0D     54
     126      45                                                00010000D     55
     126       0               8       0                               0D     56
     126      53                                                00010000D     57
     126       0               5       0                               0D     58
     126      58                                                00010000D     59
     126       0               4       0                               0D     60
     126      62                                                00010000D     61
     126       0               2       0                               0D     62
     126      64                                                00010000D     63
     126       0               7       0                               0D     64
     126      71                                                00010000D     65
     126       0               5       0                               0D     66
     126      76                                                00010000D     67
     126       0              10       0                               0D     68
     126      86                                                00010000D     69
     126       0               4       0                               0D     70
     126      90                                                00010000D     71
     126       0               5       0                               0D     72
     126      95                                                00010000D     73
     126       0               7       0                               0D     74
     126     102                                                00010000D     75
     126       0              10       0                               0D     76
     126     112                                                00010000D     77
     126       0               2       0                               0D     78
     126     114                                                00010000D     79
     126       0               5       0                               0D     80
     126     119                                                00010000D     81
     126       0               4       0                               0D     82
     126     123                                                00010000D     83
     126       0               5       0                               0D     84
     126     128                                                00010000D     85
     126       0               8       0                               0D     86
     126     136                                                00010000D     87
     126       0               8       0                               0D     88
     126     144                                                00010000D     89
     126       0               3       0                               0D     90
     126     147                                                00010000D     91
     126       0              10       0                               0D     92
     128     157                                                00010000D     93
     128       0    -119      17       0                               0D     94
     128     174                                                00010000D     95
     128       0    -119      11       0                               0D     96
     128     185                                                00010000D     97
     128       0    -119       3       0                               0D     98
     128     188                                                00010000D     99
     128       0    -119      19       0                               0D    100
     128     207                                                00010000D    101
     128       0    -119       3       0                               0D    102
     128     210                                                00010000D    103
     128       0    -119      12       0                               0D    104
     128     222                                                00010000D    105
     128       0    -119      19       0                               0D    106
     128     241                                                00010000D    107
     128       0    -119      13       0                               0D    108
     128     254                                                00010000D    109
     128       0    -119       3       0                               0D    110
     128     257                                                00010000D    111
     128       0    -119       3       0                               0D    112
     502     260                                                00010000D    113
     502                       6       1                               0D    114
     504     266                                                00010001D    115
     504                       6       1                               0D    116
     406     272                                                00000000D    117
     406                       1      15                               0D    118
     314     273                                                00000200D    119
     314                       2       0                               0D    120
186,3,1,0,0,1,117;                                                     1P      1
514,10,5,1,7,1,9,1,11,1,13,1,15,1,17,1,19,1,21,1,23,1;                 3P      2
510,93,1,1,25;                                                         5P      3
510,95,1,1,27;                                                         7P      4
510,97,2,1,29,31;                                                      9P      5
510,99,1,1,33;                                                        11P      6
510,101,1,1,35;                                                       13P      7
510,103,1,1,37;                                                       15P      8
510,105,1,1,39;                                                       17P      9
510,107,1,1,41;                                                       19P     10
510,109,2,1,43,45;                                                    21P     11
510,111,1,1,47;                                                       23P     12
508,7,0,115,1,1,0,0,115,2,1,0,0,115,3,1,0,0,115,4,1,0,0,115,5,1,      25P     13
0,0,115,3,0,0,0,115,6,1,0;                                            25P     14
508,7,0,115,1,0,0,0,115,6,0,0,0,115,2,0,0,0,115,7,1,0,0,115,8,0,      27P     15
0,0,115,9,0,0,0,115,7,0,0;                                            27P     16
508,2,0,115,5,0,0,0,115,4,0,0;                                        29P     17
508,1,0,115,10,0,0;                                                   31P     18
508,6,0,115,9,1,0,0,115,11,1,0,0,115,12,1,0,0,115,13,1,0,0,115,       33P     19
11,0,0,0,115,8,1,0;                                                   33P     20
508,2,0,115,13,0,0,0,115,12,0,0;                                      35P     21
508,4,0,115,14,0,0,0,115,15,1,0,0,115,10,1,0,0,115,15,0,0;            37P     22
508,6,0,115,16,1,0,0,115,17,1,0,0,115,18,1,0,0,115,19,1,0,0,115,      39P     23
17,0,0,0,115,20,1,0;                                                  39P     24
508,5,0,115,19,0,0,0,115,21,1,0,0,115,22,1,0,0,115,21,0,0,0,115,      41P     25
18,0,0;                                                               41P     26
508,1,0,115,14,1,0;                                                   43P     27
508,2,0,115,16,0,0,0,115,20,0,0;                                      45P     28
508,1,0,115,22,0,0;                                                   47P     29
126,4,2,0,0,0,0,-3.14159265358979,-3.14159265358979,                  49P     30
-3.14159265358979,-1.5707963267949,-1.5707963267949,                  49P     31
-1.22464679914735D-16,-1.22464679914735D-16,                          49P     32
-1.22464679914735D-16,1.,0.707106781186548,1.,0.707106781186548,      49P     33
1.,15.,6.,-3.67394039744206D-15,15.,6.,-15.,                          49P     34
-2.75545529808154D-15,6.,-15.,-15.,6.,-15.,-15.,6.,0.,                49P     35
-3.14159265358979,-1.22464679914735D-16,0.,0.,0.;                     49P     36
126,2,2,0,0,0,0,-1.22464679914735D-16,-1.22464679914735D-16,          51P     37
-1.22464679914735D-16,1.5707963267949,1.5707963267949,                51P     38
1.5707963267949,1.,0.707106781186548,1.,-15.,6.,0.,-15.,6.,15.,       51P     39
9.18485099360515D-16,6.,15.,-1.22464679914735D-16,                    51P     40
1.5707963267949,0.,0.,0.;                                             51P     41
126,2,2,0,0,0,0,0.,0.,0.,1.5707963267949,1.5707963267949,             53P     42
1.5707963267949,1.,0.707106781186549,1.,0.,6.,15.,0.,8.,15.,0.,       53P     43
8.,13.,0.,1.5707963267949,0.,0.,0.;                                   53P     44
126,6,2,0,0,0,0,-1.5707963267949,-1.5707963267949,                    55P     45
-1.5707963267949,0.,0.,1.5707963267949,1.5707963267949,               55P     46
3.14159265358979,3.14159265358979,3.14159265358979,1.,                55P     47
0.707106781186548,1.,0.707106781186548,1.,0.707106781186547,1.,       55P     48
7.9602041944578D-16,8.,13.,-13.,8.,13.,-13.,8.,                       55P     49
1.59204083889156D-15,-13.,8.,-13.,-2.38806125833734D-15,8.,-13.,      55P     50
13.,8.,-13.,13.,8.,-3.18408167778312D-15,-1.5707963267949,            55P     51
3.14159265358979,0.,0.,0.;                                            55P     52
126,2,2,0,0,0,0,-3.14159265358979,-3.14159265358979,                  57P     53
-3.14159265358979,-1.5707963267949,-1.5707963267949,                  57P     54
-1.5707963267949,1.,0.707106781186547,1.,13.,8.,0.,13.,8.,13.,        57P     55
7.9602041944578D-16,8.,13.,-3.14159265358979,-1.5707963267949,        57P     56
0.,0.,0.;                                                             57P     57
126,2,2,0,0,0,0,1.5707963267949,1.5707963267949,1.5707963267949,      59P     58
3.14159265358979,3.14159265358979,3.14159265358979,1.,                59P     59
0.707106781186548,1.,9.18485099360515D-16,6.,15.,15.,6.,15.,15.,      59P     60
6.,0.,1.5707963267949,3.14159265358979,0.,0.,0.;                      59P     61
126,1,1,0,0,1,0,-0.4,-0.4,-0.2,-0.2,1.,1.,-15.,6.,0.,-15.,3.,0.,      61P     62
-0.4,-0.2,0.,0.,0.;                                                   61P     63
126,6,2,0,0,0,0,-1.5707963267949,-1.5707963267949,                    63P     64
-1.5707963267949,0.,0.,1.5707963267949,1.5707963267949,               63P     65
3.14159265358979,3.14159265358979,3.14159265358979,1.,                63P     66
0.707106781186548,1.,0.707106781186548,1.,0.707106781186548,1.,       63P     67
9.18485099360515D-16,3.,-15.,15.,3.,-15.,15.,3.,0.,15.,3.,15.,        63P     68
9.18485099360515D-16,3.,15.,-15.,3.,15.,-15.,3.,                      63P     69
1.83697019872103D-15,-1.5707963267949,3.14159265358979,0.,0.,0.;      63P     70
126,2,2,0,0,0,0,-3.14159265358979,-3.14159265358979,                  65P     71
-3.14159265358979,-1.5707963267949,-1.5707963267949,                  65P     72
-1.5707963267949,1.,0.707106781186548,1.,-15.,3.,                     65P     73
-1.83697019872103D-15,-15.,3.,-15.,9.18485099360515D-16,3.,-15.,      65P     74
-3.14159265358979,-1.5707963267949,0.,0.,0.;                          65P     75
126,8,2,0,1,0,0,-3.14159265358979,-3.14159265358979,                  67P     76
-3.14159265358979,-1.5707963267949,-1.5707963267949,0.,0.,            67P     77
1.5707963267949,1.5707963267949,3.14159265358979,                     67P     78
3.14159265358979,3.14159265358979,1.,0.707106781186548,1.,            67P     79
0.707106781186548,1.,0.707106781186548,1.,0.707106781186548,1.,       67P     80
7.5,8.,-9.18485099360515D-16,7.5,8.,-7.5,-4.59242549680257D-16,       67P     81
8.,-7.5,-7.5,8.,-7.5,-7.5,8.,0.,-7.5,8.,7.5,                          67P     82
-4.59242549680257D-16,8.,7.5,7.5,8.,7.5,7.5,8.,                       67P     83
9.18485099360515D-16,-3.14159265358979,3.14159265358979,0.,0.,        67P     84
0.;                                                                   67P     85
126,2,2,0,0,0,0,0.,0.,0.,1.5707963267949,1.5707963267949,             69P     86
1.5707963267949,1.,0.707106781186547,1.,0.,3.,-15.,0.,                69P     87
-5.91448871017372D-16,-15.,0.,0.,-12.,0.,1.5707963267949,0.,0.,       69P     88
0.;                                                                   69P     89
126,2,2,0,0,0,0,1.5707963267949,1.5707963267949,1.5707963267949,      71P     90
3.14159265358979,3.14159265358979,3.14159265358979,1.,                71P     91
0.707106781186547,1.,7.34788079488412D-16,0.,-12.,-12.,0.,-12.,       71P     92
-12.,0.,-1.46957615897682D-15,1.5707963267949,3.14159265358979,       71P     93
0.,0.,0.;                                                             71P     94
126,6,2,0,0,0,0,-3.14159265358979,-3.14159265358979,                  73P     95
-3.14159265358979,-1.5707963267949,-1.5707963267949,0.,0.,            73P     96
1.5707963267949,1.5707963267949,1.5707963267949,1.,                   73P     97
0.707106781186547,1.,0.707106781186547,1.,0.707106781186547,1.,       73P     98
-12.,0.,1.46957615897682D-15,-12.,0.,12.,7.34788079488412D-16,        73P     99
0.,12.,12.,0.,12.,12.,0.,0.,12.,0.,-12.,7.34788079488412D-16,0.,      73P    100
-12.,-3.14159265358979,1.5707963267949,0.,0.,0.;                      73P    101
126,8,2,0,1,0,0,-3.14159265358979,-3.14159265358979,                  75P    102
-3.14159265358979,-1.5707963267949,-1.5707963267949,0.,0.,            75P    103
1.5707963267949,1.5707963267949,3.14159265358979,                     75P    104
3.14159265358979,3.14159265358979,1.,0.707106781186548,1.,            75P    105
0.707106781186548,1.,0.707106781186548,1.,0.707106781186548,1.,       75P    106
7.5,12.,-9.18485099360515D-16,7.5,12.,-7.5,                           75P    107
-4.59242549680257D-16,12.,-7.5,-7.5,12.,-7.5,-7.5,12.,0.,-7.5,        75P    108
12.,7.5,-4.59242549680257D-16,12.,7.5,7.5,12.,7.5,7.5,12.,            75P    109
9.18485099360515D-16,-3.14159265358979,3.14159265358979,0.,0.,        75P    110
0.;                                                                   75P    111
126,1,1,0,0,1,0,0.,0.,0.533333333333333,0.533333333333333,1.,1.,      77P    112
7.5,12.,0.,7.5,8.,0.,0.,0.533333333333333,0.,0.,0.;                   77P    113
126,2,2,0,0,0,0,-3.14159265358979,-3.14159265358979,                  79P    114
-3.14159265358979,-1.5707963267949,-1.5707963267949,                  79P    115
-1.5707963267949,1.,0.707106781186547,1.,-2.45,12.,                   79P    116
3.00038465791102D-16,-2.45,12.,2.45,1.50019232895551D-16,12.,         79P    117
2.45,-3.14159265358979,-1.5707963267949,0.,0.,0.;                     79P    118
126,2,2,0,0,0,0,1.5707963267949,1.5707963267949,1.5707963267949,      81P    119
3.14159265358979,3.14159265358979,3.14159265358979,1.,                81P    120
0.707106781186549,1.,0.,12.,2.45,0.,12.,1.45,0.,11.,1.45,             81P    121
1.5707963267949,3.14159265358979,0.,0.,0.;                            81P    122
126,2,2,0,0,0,0,1.5707963267949,1.5707963267949,1.5707963267949,      83P    123
3.14159265358979,3.14159265358979,3.14159265358979,1.,                83P    124
0.707106781186548,1.,8.87868929381831D-17,11.,1.45,-1.45,11.,         83P    125
1.45,-1.45,11.,1.77573785876366D-16,1.5707963267949,                  83P    126
3.14159265358979,0.,0.,0.;                                            83P    127
126,6,2,0,0,0,0,-3.14159265358979,-3.14159265358979,                  85P    128
-3.14159265358979,-1.5707963267949,-1.5707963267949,0.,0.,            85P    129
1.5707963267949,1.5707963267949,1.5707963267949,1.,                   85P    130
0.707106781186548,1.,0.707106781186548,1.,0.707106781186548,1.,       85P    131
-1.45,11.,-1.77573785876366D-16,-1.45,11.,-1.45,                      85P    132
8.87868929381831D-17,11.,-1.45,1.45,11.,-1.45,1.45,11.,0.,1.45,       85P    133
11.,1.45,8.87868929381831D-17,11.,1.45,-3.14159265358979,             85P    134
1.5707963267949,0.,0.,0.;                                             85P    135
126,6,2,0,0,0,0,-1.5707963267949,-1.5707963267949,                    87P    136
-1.5707963267949,0.,0.,1.5707963267949,1.5707963267949,               87P    137
3.14159265358979,3.14159265358979,3.14159265358979,1.,                87P    138
0.707106781186548,1.,0.707106781186548,1.,0.707106781186547,1.,       87P    139
1.50019232895551D-16,12.,2.45,2.45,12.,2.45,2.45,12.,0.,2.45,         87P    140
12.,-2.45,1.50019232895551D-16,12.,-2.45,-2.45,12.,-2.45,-2.45,       87P    141
12.,-3.00038465791102D-16,-1.5707963267949,3.14159265358979,0.,       87P    142
0.,0.;                                                                87P    143
126,1,1,0,0,1,0,-7.58620689655173,-7.58620689655173,                  89P    144
-2.75862068965517,-2.75862068965517,1.,1.,-1.45,11.,0.,-1.45,4.,      89P    145
0.,-7.58620689655173,-2.75862068965517,0.,0.,0.;                      89P    146
126,8,2,0,1,0,0,-3.14159265358979,-3.14159265358979,                  91P    147
-3.14159265358979,-1.5707963267949,-1.5707963267949,0.,0.,            91P    148
1.5707963267949,1.5707963267949,3.14159265358979,                     91P    149
3.14159265358979,3.14159265358979,1.,0.707106781186548,1.,            91P    150
0.707106781186548,1.,0.707106781186548,1.,0.707106781186548,1.,       91P    151
-1.45,4.,-1.77573785876366D-16,-1.45,4.,-1.45,                        91P    152
8.87868929381831D-17,4.,-1.45,1.45,4.,-1.45,1.45,4.,0.,1.45,4.,       91P    153
1.45,8.87868929381831D-17,4.,1.45,-1.45,4.,1.45,-1.45,4.,             91P    154
1.77573785876366D-16,-3.14159265358979,3.14159265358979,0.,0.,        91P    155
0.;                                                                   91P    156
128,2,8,2,2,0,1,0,0,1,-1.5707963267949,-1.5707963267949,              93P    157
-1.5707963267949,0.,0.,0.,-3.14159265358979,-3.14159265358979,        93P    158
-3.14159265358979,-1.5707963267949,-1.5707963267949,0.,0.,            93P    159
1.5707963267949,1.5707963267949,3.14159265358979,                     93P    160
3.14159265358979,3.14159265358979,1.,0.707106781186549,1.,            93P    161
0.707106781186548,0.500000000000001,0.707106781186548,1.,             93P    162
0.707106781186549,1.,0.707106781186548,0.500000000000001,             93P    163
0.707106781186548,1.,0.707106781186549,1.,0.707106781186548,          93P    164
0.500000000000001,0.707106781186548,1.,0.707106781186549,1.,          93P    165
0.707106781186548,0.500000000000001,0.707106781186548,1.,             93P    166
0.707106781186549,1.,0.,6.,15.,0.,8.,15.,0.,8.,13.,-15.,6.,15.,       93P    167
-15.,8.,15.,-13.,8.,13.,-15.,6.,0.,-15.,8.,0.,-13.,8.,0.,-15.,        93P    168
6.,-15.,-15.,8.,-15.,-13.,8.,-13.,0.,6.,-15.,0.,8.,-15.,0.,8.,        93P    169
-13.,15.,6.,-15.,15.,8.,-15.,13.,8.,-13.,15.,6.,0.,15.,8.,0.,         93P    170
13.,8.,0.,15.,6.,15.,15.,8.,15.,13.,8.,13.,0.,6.,15.,0.,8.,15.,       93P    171
0.,8.,13.,-1.5707963267949,0.,-3.14159265358979,                      93P    172
3.14159265358979;                                                     93P    173
128,1,8,1,2,0,1,0,0,1,0.2,0.2,0.4,0.4,-3.14159265358979,              95P    174
-3.14159265358979,-3.14159265358979,-1.5707963267949,                 95P    175
-1.5707963267949,0.,0.,1.5707963267949,1.5707963267949,               95P    176
3.14159265358979,3.14159265358979,3.14159265358979,1.,1.,             95P    177
0.707106781186548,0.707106781186548,1.,1.,0.707106781186548,          95P    178
0.707106781186548,1.,1.,0.707106781186548,0.707106781186548,1.,       95P    179
1.,0.707106781186548,0.707106781186548,1.,1.,-15.,6.,0.,-15.,3.,      95P    180
0.,-15.,6.,15.,-15.,3.,15.,0.,6.,15.,0.,3.,15.,15.,6.,15.,15.,        95P    181
3.,15.,15.,6.,0.,15.,3.,0.,15.,6.,-15.,15.,3.,-15.,0.,6.,-15.,        95P    182
0.,3.,-15.,-15.,6.,-15.,-15.,3.,-15.,-15.,6.,0.,-15.,3.,0.,0.2,       95P    183
0.4,-3.14159265358979,3.14159265358979;                               95P    184
128,1,1,1,1,0,0,1,0,0,-1.301,-1.301,1.301,1.301,-1.301,-1.301,        97P    185
1.301,1.301,1.,1.,1.,1.,13.01,8.,-13.01,-13.01,8.,-13.01,13.01,       97P    186
8.,13.01,-13.01,8.,13.01,-1.301,1.301,-1.301,1.301;                   97P    187
128,2,8,2,2,0,1,0,0,1,-1.5707963267949,-1.5707963267949,              99P    188
-1.5707963267949,0.,0.,0.,-3.14159265358979,-3.14159265358979,        99P    189
-3.14159265358979,-1.5707963267949,-1.5707963267949,0.,0.,            99P    190
1.5707963267949,1.5707963267949,3.14159265358979,                     99P    191
3.14159265358979,3.14159265358979,1.,0.707106781186547,1.,            99P    192
0.707106781186548,0.5,0.707106781186548,1.,0.707106781186547,1.,      99P    193
0.707106781186548,0.5,0.707106781186548,1.,0.707106781186547,1.,      99P    194
0.707106781186548,0.5,0.707106781186548,1.,0.707106781186547,1.,      99P    195
0.707106781186548,0.5,0.707106781186548,1.,0.707106781186547,1.,      99P    196
0.,3.,-15.,0.,-5.91448871017372D-16,-15.,0.,0.,-12.,-15.,3.,          99P    197
-15.,-15.,-5.91448871017372D-16,-15.,-12.,0.,-12.,-15.,3.,0.,         99P    198
-15.,-5.55111512312578D-16,0.,-12.,0.,0.,-15.,3.,15.,-15.,            99P    199
-5.18774153607785D-16,15.,-12.,0.,12.,0.,3.,15.,0.,                   99P    200
-5.18774153607785D-16,15.,0.,0.,12.,15.,3.,15.,15.,                   99P    201
-5.18774153607785D-16,15.,12.,0.,12.,15.,3.,0.,15.,                   99P    202
-5.55111512312578D-16,0.,12.,0.,0.,15.,3.,-15.,15.,                   99P    203
-5.91448871017372D-16,-15.,12.,0.,-12.,0.,3.,-15.,0.,                 99P    204
-5.91448871017372D-16,-15.,0.,0.,-12.,-1.5707963267949,0.,            99P    205
-3.14159265358979,3.14159265358979;                                   99P    206
128,1,1,1,1,0,0,1,0,0,-1.201,-1.201,1.201,1.201,-1.201,-1.201,       101P    207
1.201,1.201,1.,1.,1.,1.,12.01,0.,12.01,-12.01,0.,12.01,12.01,0.,     101P    208
-12.01,-12.01,0.,-12.01,-1.201,1.201,-1.201,1.201;                   101P    209
128,1,8,1,2,0,1,0,0,1,0.,0.,0.533333333333333,0.533333333333333,     103P    210
-3.14159265358979,-3.14159265358979,-3.14159265358979,               103P    211
-1.5707963267949,-1.5707963267949,0.,0.,1.5707963267949,             103P    212
1.5707963267949,3.14159265358979,3.14159265358979,                   103P    213
3.14159265358979,1.,1.,0.707106781186548,0.707106781186548,1.,       103P    214
1.,0.707106781186548,0.707106781186548,1.,1.,0.707106781186548,      103P    215
0.707106781186548,1.,1.,0.707106781186548,0.707106781186548,1.,      103P    216
1.,7.5,8.,0.,7.5,12.,0.,7.5,8.,7.5,7.5,12.,7.5,0.,8.,7.5,0.,12.,     103P    217
7.5,-7.5,8.,7.5,-7.5,12.,7.5,-7.5,8.,0.,-7.5,12.,0.,-7.5,8.,         103P    218
-7.5,-7.5,12.,-7.5,0.,8.,-7.5,0.,12.,-7.5,7.5,8.,-7.5,7.5,12.,       103P    219
-7.5,7.5,8.,0.,7.5,12.,0.,0.,0.533333333333333,                      103P    220
-3.14159265358979,3.14159265358979;                                  103P    221
128,2,8,2,2,0,1,0,0,1,-3.14159265358979,-3.14159265358979,           105P    222
-3.14159265358979,-1.5707963267949,-1.5707963267949,                 105P    223
-1.5707963267949,-3.14159265358979,-3.14159265358979,                105P    224
-3.14159265358979,-1.5707963267949,-1.5707963267949,0.,0.,           105P    225
1.5707963267949,1.5707963267949,3.14159265358979,                    105P    226
3.14159265358979,3.14159265358979,1.,0.707106781186549,1.,           105P    227
0.707106781186548,0.500000000000001,0.707106781186548,1.,            105P    228
0.707106781186549,1.,0.707106781186548,0.500000000000001,            105P    229
0.707106781186548,1.,0.707106781186549,1.,0.707106781186548,         105P    230
0.500000000000001,0.707106781186548,1.,0.707106781186549,1.,         105P    231
0.707106781186548,0.500000000000001,0.707106781186548,1.,            105P    232
0.707106781186549,1.,0.,12.,2.45,0.,12.,1.45,0.,11.,1.45,-2.45,      105P    233
12.,2.45,-1.45,12.,1.45,-1.45,11.,1.45,-2.45,12.,0.,-1.45,12.,       105P    234
0.,-1.45,11.,0.,-2.45,12.,-2.45,-1.45,12.,-1.45,-1.45,11.,-1.45,     105P    235
0.,12.,-2.45,0.,12.,-1.45,0.,11.,-1.45,2.45,12.,-2.45,1.45,12.,      105P    236
-1.45,1.45,11.,-1.45,2.45,12.,0.,1.45,12.,0.,1.45,11.,0.,2.45,       105P    237
12.,2.45,1.45,12.,1.45,1.45,11.,1.45,0.,12.,2.45,0.,12.,1.45,0.,     105P    238
11.,1.45,-3.14159265358979,-1.5707963267949,-3.14159265358979,       105P    239
3.14159265358979;                                                    105P    240
128,1,8,1,2,0,1,0,0,1,2.75862068965517,2.75862068965517,             107P    241
7.58620689655173,7.58620689655173,-3.14159265358979,                 107P    242
-3.14159265358979,-3.14159265358979,-1.5707963267949,                107P    243
-1.5707963267949,0.,0.,1.5707963267949,1.5707963267949,              107P    244
3.14159265358979,3.14159265358979,3.14159265358979,1.,1.,            107P    245
0.707106781186548,0.707106781186548,1.,1.,0.707106781186548,         107P    246
0.707106781186548,1.,1.,0.707106781186548,0.707106781186548,1.,      107P    247
1.,0.707106781186548,0.707106781186548,1.,1.,-1.45,4.,0.,-1.45,      107P    248
11.,0.,-1.45,4.,1.45,-1.45,11.,1.45,0.,4.,1.45,0.,11.,1.45,1.45,     107P    249
4.,1.45,1.45,11.,1.45,1.45,4.,0.,1.45,11.,0.,1.45,4.,-1.45,1.45,     107P    250
11.,-1.45,0.,4.,-1.45,0.,11.,-1.45,-1.45,4.,-1.45,-1.45,11.,         107P    251
-1.45,-1.45,4.,0.,-1.45,11.,0.,2.75862068965517,                     107P    252
7.58620689655173,-3.14159265358979,3.14159265358979;                 107P    253
128,1,1,1,1,0,0,1,0,0,-0.751,-0.751,0.751,0.751,-0.751,-0.751,       109P    254
0.751,0.751,1.,1.,1.,1.,-7.51,12.,7.51,7.51,12.,7.51,-7.51,12.,      109P    255
-7.51,7.51,12.,-7.51,-0.751,0.751,-0.751,0.751;                      109P    256
128,1,1,1,1,0,0,1,0,0,-0.146,-0.146,0.146,0.146,-0.146,-0.146,       111P    257
0.146,0.146,1.,1.,1.,1.,-1.46,4.,1.46,1.46,4.,1.46,-1.46,4.,         111P    258
-1.46,1.46,4.,-1.46,-0.146,0.146,-0.146,0.146;                       111P    259
502,16,15.,6.,-3.67394039744206D-15,-15.,6.,0.,0.,6.,15.,0.,8.,      113P    260
13.,13.,8.,0.,-15.,3.,-1.83697019872103D-15,0.,3.,-15.,7.5,8.,       113P    261
-9.18485099360515D-16,0.,0.,-12.,-12.,0.,1.46957615897682D-15,       113P    262
7.5,12.,-9.18485099360515D-16,-2.45,12.,3.00038465791102D-16,0.,     113P    263
12.,2.45,0.,11.,1.45,-1.45,11.,-1.77573785876366D-16,-1.45,4.,       113P    264
1.77573785876366D-16;                                                113P    265
504,22,49,113,1,113,2,51,113,2,113,3,53,113,3,113,4,55,113,4,        115P    266
113,5,57,113,5,113,4,59,113,3,113,1,61,113,2,113,6,63,113,7,113,     115P    267
6,65,113,6,113,7,67,113,8,113,8,69,113,7,113,9,71,113,9,113,10,      115P    268
73,113,10,113,9,75,113,11,113,11,77,113,11,113,8,79,113,12,113,      115P    269
13,81,113,13,113,14,83,113,14,113,15,85,113,15,113,14,87,113,13,     115P    270
113,12,89,113,15,113,16,91,113,16,113,16;                            115P    271
406,1,5HBody1;                                                       117P    272
314,62.7450980392157,62.7450980392157,62.7450980392157,13HSteel      119P    273
- Satin;                                                             119P    274
S      1G      3D    120P    274                                        T      1
